<svg width="317" height="345" fill="none" xmlns="http://www.w3.org/2000/svg"><path d="M197.156 239.899C263.344 239.899 317 186.196 317 119.95 317 53.703 263.344 0 197.156 0 130.968 0 77.312 53.703 77.312 119.95c0 66.246 53.656 119.949 119.844 119.949Z" fill="#01854A"/><path opacity=".05" d="M197.156 218.972c54.64 0 98.935-44.333 98.935-99.022 0-54.689-44.295-99.022-98.935-99.022-54.641 0-98.935 44.334-98.935 99.022 0 54.689 44.294 99.022 98.935 99.022Z" fill="#000"/><path opacity=".05" d="M197.156 201.107c44.783 0 81.086-36.336 81.086-81.158s-36.303-81.157-81.086-81.157c-44.782 0-81.086 36.335-81.086 81.157 0 44.822 36.304 81.158 81.086 81.158Z" fill="#000"/><path opacity=".05" d="M197.157 178.138c32.108 0 58.137-26.051 58.137-58.188 0-32.136-26.029-58.188-58.137-58.188-32.109 0-58.137 26.052-58.137 58.188 0 32.137 26.028 58.188 58.137 58.188Z" fill="#000"/><path d="M317 327.5a.566.566 0 0 1-.033.192.505.505 0 0 1-.095.162.436.436 0 0 1-.142.108.392.392 0 0 1-.167.038H.437a.414.414 0 0 1-.309-.146A.54.54 0 0 1 0 327.5a.54.54 0 0 1 .128-.354.414.414 0 0 1 .31-.146h316.125c.057 0 .114.013.167.038a.436.436 0 0 1 .142.108.505.505 0 0 1 .095.162.566.566 0 0 1 .033.192Z" fill="#4E596A"/><path d="M78.374 147.659s-9.422 26.545-5.235 35.976c4.188 9.43 10.818 18.511 10.818 18.511s-2.442-52.74-5.583-54.487Z" fill="#D0CDE1"/><path d="M78.374 147.659s-9.422 26.545-5.235 35.976c4.188 9.43 10.818 18.511 10.818 18.511s-2.442-52.74-5.583-54.487Z" fill="#DCDEE1"/><path d="M85.004 209.132s-.698 6.636-1.047 6.986c-.348.349.35 1.047 0 2.095-.348 1.048-.697 2.445 0 2.794.699.35-3.838 31.086-3.838 31.086s-11.167 14.67-6.63 37.722l1.395 23.401s10.818.699 10.818-3.143c0 0-.698-4.541-.698-6.636 0-2.096 1.745-2.096.698-3.144-1.046-1.048-1.046-1.746-1.046-1.746s1.744-1.397 1.395-1.747c-.349-.349 3.141-25.148 3.141-25.148s3.839-3.842 3.839-5.937v-2.096s1.744-4.54 1.744-4.89c0-.349 9.423-21.655 9.423-21.655l3.838 15.368 4.188 22.005s2.094 19.908 6.281 27.592c0 0 7.329 25.148 7.329 24.45 0-.699 12.214-2.445 11.865-5.589-.349-3.143-7.329-47.152-7.329-47.152l1.745-65.314-47.11.698Z" fill="#4E596A"/><path d="M75.581 311.47s-9.422 18.511-3.14 19.21c6.28.698 8.724.698 11.515-2.096 1.527-1.527 4.617-3.577 7.106-5.121a9.192 9.192 0 0 0 4.36-8.746c-.184-1.708-.822-3.116-2.392-3.247-4.188-.35-9.074-4.192-9.074-4.192l-8.375 4.192Zm51.996 13.622s-9.422 18.511-3.14 19.21c6.281.698 8.724.698 11.516-2.096 1.526-1.527 4.617-3.577 7.105-5.121a9.194 9.194 0 0 0 4.36-8.745c-.184-1.709-.822-3.117-2.392-3.248-4.188-.35-9.073-4.192-9.073-4.192l-8.376 4.192Z" fill="#000"/><path d="M117.619 117.364c8.101 0 14.669-6.573 14.669-14.682S125.72 88 117.619 88c-8.102 0-14.67 6.573-14.67 14.682s6.568 14.682 14.67 14.682Z" fill="#FFB8B8"/><path d="M108.19 107.507s-10.478 19.297-11.316 19.297c-.839 0 18.86 6.292 18.86 6.292s5.449-18.458 6.287-20.136l-13.831-5.453Z" fill="#FFB8B8"/><path d="M124.263 128.624s-20.938-11.526-23.032-11.177c-2.094.35-24.427 19.909-24.078 27.942.348 8.034 3.14 21.306 3.14 21.306s1.047 37.023 3.14 37.373c2.095.349-.348 6.636.35 6.636s48.855 0 49.204-1.048c.349-1.048-8.724-81.032-8.724-81.032Z" fill="#B8BDC3"/><path d="M135.952 211.576s6.63 20.258 1.047 19.56c-5.584-.699-8.026-17.464-8.026-17.464l6.979-2.096Z" fill="#FFB8B8"/><path d="M118.157 127.401s-12.912 2.794-10.818 20.258c2.094 17.464 5.932 34.928 5.932 34.928l12.912 28.291 1.396 5.239 9.422-2.445-6.979-40.516s-2.443-43.31-5.584-44.707a13.496 13.496 0 0 0-6.281-1.048Z" fill="#B8BDC3"/><path opacity=".5" d="m110.305 182.062 16.052 28.641-13.524-30.18-2.528 1.539Z" fill="#4E596A"/><path d="m132.225 98.36.048-1.122 2.23.555a2.505 2.505 0 0 0-.999-1.836l2.375-.133a25.639 25.639 0 0 0-17.142-10.603c-5.137-.745-10.858.333-14.382 4.15-1.709 1.851-2.782 4.205-3.546 6.607-1.407 4.423-1.694 9.696 1.24 13.291 2.981 3.655 8.189 4.371 12.881 4.823 1.651.159 3.381.307 4.911-.334a11.841 11.841 0 0 0-.658-5.187 3.457 3.457 0 0 1-.349-1.652c.209-1.397 2.071-1.749 3.469-1.56 1.399.189 3.081.477 4-.595.633-.738.596-1.813.679-2.783.229-2.639 5.219-3.068 5.243-3.621Z" fill="#2F2E41"/></svg>