<svg width="549" height="252" fill="none" xmlns="http://www.w3.org/2000/svg"><path d="M314.578 46.383h-51.585V33.331h19.16a4.418 4.418 0 0 0 3.127-1.297 4.433 4.433 0 0 0 1.295-3.132v-14.14a4.433 4.433 0 0 0-1.295-3.132 4.418 4.418 0 0 0-3.127-1.297h-19.16V5.905a5.908 5.908 0 0 0-1.727-4.176 5.889 5.889 0 0 0-8.337 0 5.908 5.908 0 0 0-1.727 4.176v4.428H180.39c-.915 0-1.808.285-2.555.815l-9.969 7.07A4.427 4.427 0 0 0 166 21.832a4.43 4.43 0 0 0 1.866 3.614l9.969 7.07c.747.53 1.64.815 2.555.815h70.812v13.052h-51.585a4.429 4.429 0 0 0-4.421 4.428v14.141a4.429 4.429 0 0 0 4.421 4.429h51.585v48.714a5.91 5.91 0 0 0 1.727 4.176 5.892 5.892 0 0 0 10.064-4.176V69.381h51.585a4.418 4.418 0 0 0 3.127-1.297A4.433 4.433 0 0 0 319 64.952v-14.14a4.42 4.42 0 0 0-.337-1.695 4.417 4.417 0 0 0-4.085-2.733Z" fill="#4E596A"/><path d="M227.421 23h-36.842c-.684 0-1.34-.263-1.824-.732A2.464 2.464 0 0 1 188 20.5c0-.663.272-1.299.755-1.768a2.623 2.623 0 0 1 1.824-.732h36.842c.684 0 1.34.263 1.824.732.483.47.755 1.105.755 1.768s-.272 1.299-.755 1.768a2.623 2.623 0 0 1-1.824.732Z" fill="#F5E05D"/><path d="M273.421 60h-36.842c-.684 0-1.34-.263-1.824-.732A2.464 2.464 0 0 1 234 57.5c0-.663.272-1.299.755-1.768a2.623 2.623 0 0 1 1.824-.732h36.842c.684 0 1.34.263 1.824.732.483.47.755 1.105.755 1.768s-.272 1.299-.755 1.768a2.623 2.623 0 0 1-1.824.732Z" fill="#fff"/><path d="M95.42 120.384v-13.053h19.159a4.42 4.42 0 0 0 3.126-1.297 4.434 4.434 0 0 0 1.295-3.132v-14.14c0-1.174-.466-2.3-1.295-3.131a4.418 4.418 0 0 0-3.126-1.297h-19.16v-4.227a6.045 6.045 0 0 0-1.556-4.129 6.025 6.025 0 0 0-3.946-1.965 5.885 5.885 0 0 0-4.42 1.58 5.903 5.903 0 0 0-1.868 4.312v4.429L4.334 121.496a2.613 2.613 0 0 0-1.381 1.558c-.625 1.906-1.937 5.973-2.83 9.18a3.452 3.452 0 0 0 1.864 4.04 3.426 3.426 0 0 0 1.563.32c5.11-.157 8.473-.395 10.806-.461.45-.012.893-.114 1.304-.298l67.97-28.504v84.562a6.048 6.048 0 0 0 1.556 4.129 6.027 6.027 0 0 0 3.946 1.965 5.887 5.887 0 0 0 5.8-3.542 5.915 5.915 0 0 0 .488-2.35v-71.711Z" fill="#4E596A"/><path d="m64.467 107.877-33.812 14.9a2.632 2.632 0 0 1-1.985.056 2.578 2.578 0 0 1-1.443-1.34 2.508 2.508 0 0 1-.057-1.95 2.571 2.571 0 0 1 1.363-1.42l33.812-14.9a2.632 2.632 0 0 1 1.985-.056 2.578 2.578 0 0 1 1.443 1.34c.282.617.302 1.319.057 1.95a2.571 2.571 0 0 1-1.363 1.42Z" fill="#fff"/><path d="m485.465 56-15.253 1.58a46.955 46.955 0 0 0 3.963 23.336l-4.577 43.503.068-.001a5.127 5.127 0 0 0-.665 2.618c.015.918.276 1.815.753 2.593a4.991 4.991 0 0 0 1.957 1.825c.802.415 1.7.599 2.598.533a4.888 4.888 0 0 0 2.495-.912 5.038 5.038 0 0 0 1.677-2.094 5.147 5.147 0 0 0-.653-5.17L488 84.994 485.465 56ZM438.475 245l-6.808-1.117L431 224.32l12-4.32-4.525 25Z" fill="#A0616A"/><path d="M437.575 252 417 248.634l.045-.247c.366-2.017 1.56-3.813 3.321-4.993a8.463 8.463 0 0 1 6.067-1.301l4.25-2.093 6.521 3.855 1.796.293-1.425 7.852Z" fill="#2F2E41"/><path d="M504 231.583 498.259 235 482 215.043l8.475-5.043L504 231.583Z" fill="#A0616A"/><path d="M508 237.747 490.318 248l-.136-.212a7.325 7.325 0 0 1-.956-5.79c.502-1.974 1.81-3.677 3.635-4.736l1.733-4.199 7.523-1.168 1.543-.895 4.34 6.747Z" fill="#2F2E41"/><path d="m440.81 125.023-3.939 14.979s-1.075 6.208-.518 6.766a7.49 7.49 0 0 1 1.364 4.614c-.25 1.519-2.799.9-1.524 3.161 1.274 2.261-2.665 36.667-2.665 36.667L430 233.517 442.597 235c1.808-1.06 2.074-2.265 1.006-3.595 0 0 2.584-2.983 1.159-4.143-1.424-1.16 1.149-1.645 1.289-4.606l8.131-29.053 2.691-6.495-.704-3.388 2.045-3.889.983-10.203 2.665 26.813 24.896 28.609 12.257-6.133.72-1.568a2.916 2.916 0 0 0-1.111-3.689l-4.158-3.871c.356-1.595-5.301-5.593-5.301-5.593l-9.472-17.841 5.881-49.976s8.891-11.864-2.888-22.599c-4.826-4.398-41.876 11.243-41.876 11.243Z" fill="#004B76"/><path d="M478.244 105.762c2.077-3.101 7.062 1.353 5.4-4.214s-5.866-6.602-2.102-11.93l5.426-26.557a24.513 24.513 0 0 0-5.972-17.335l-7.811-8.983-1.173-3.186L458.717 33l-1.107 3.897c-3.972 4.97-10.472 11.351-10.278 20.738.375 18.063-2.428 42.098-9.332 73.365 0 0 15.44-12.116 20.294-6.867 4.855 5.25 19.479 3.823 23.134.165a21.777 21.777 0 0 0 4.986-8.907s-10.246-6.528-8.17-9.629Z" fill="#F5E05D"/><path d="m486.74 126.961-30.032-8.606L437 128c8.824-16.689 14.193-44.477 12.497-68.083a27.6 27.6 0 0 1 2.8-14.538c2.709-5.3 6.947-9.045 13.17-8.637l8.029-.742 5.11 2.968c7.393 7.872 10.301 19.618 9.151 30.44-1.27 11.943-2.851 26.452-3.169 27.748-.188.761.404 2.098 1.029 3.513 1.057 2.388 2.371 5.36.545 7.216a5.395 5.395 0 0 0-1.306 1.789 5.467 5.467 0 0 0-.485 2.171 4.89 4.89 0 0 0 .533 1.91 4.814 4.814 0 0 0 1.243 1.532c2.334 2.049.71 11.039.64 11.42l-.047.254Z" fill="#4E596A"/><path d="M471 67.543 456.041 65a46.277 46.277 0 0 0-2.176 23.262l-15.475 40.192.065.018a5.006 5.006 0 0 0-1.304 2.315c-.219.878-.2 1.8.057 2.668a5.003 5.003 0 0 0 1.401 2.255 4.872 4.872 0 0 0 2.344 1.197 4.818 4.818 0 0 0 2.613-.206 4.898 4.898 0 0 0 2.135-1.549 5.032 5.032 0 0 0 1.044-2.448 5.07 5.07 0 0 0-.347-2.645l19.618-34.248L471 67.542Z" fill="#A0616A"/><path d="m453.667 76 17.478-3.756L474 59.159c-.002-2.695-1.042-5.28-2.89-7.184-1.848-1.905-4.354-2.975-6.967-2.975-2.612 0-5.118 1.07-6.966 2.975-1.848 1.905-2.888 4.489-2.89 7.184-1.762 7.282-1.454 9.391-.62 16.841Z" fill="#F5E05D"/><path d="M465 31c7.732 0 14-6.268 14-14s-6.268-14-14-14-14 6.268-14 14 6.268 14 14 14Z" fill="#A0616A"/><path d="M481.067 6.323c-1.065-1.942-5.302.543-6.615-1.234a14.42 14.42 0 0 0-3.902-3.912A8.402 8.402 0 0 0 466.361 0a8.401 8.401 0 0 0-4.214 1.08 16.804 16.804 0 0 1-3.018 1.748c-1.106.36-2.549.087-3.028-.99l1.013 2.824a3.875 3.875 0 0 1-2.854.181 3.955 3.955 0 0 1-2.224-1.831l-.179 2.923a1.164 1.164 0 0 0-.479-.645 1.128 1.128 0 0 0-.777-.172 2.06 2.06 0 0 0-.894.56c-.245.261-.42.583-.508.934-.864 2.59 1.204 5.613 3.855 6.047 1.64.269 3.29-.268 4.936-.495 1.646-.227 3.551-.037 4.591 1.282 1.021 1.296.823 3.143.882 4.803.059 1.661.772 3.654 2.389 3.875 1.109.152 2.169-.636 3.287-.569 1.595.097 2.617 1.964 2.445 3.583-.171 1.618-1.17 3.003-2.134 4.301l4.779.386-.617.174c3.897-.194 6.905-4.047 7.37-7.994.466-3.947 1.989-12.213.085-15.683Z" fill="#2F2E41"/><path d="M549 251.5a.36.36 0 0 1-.057.192.551.551 0 0 1-.164.162.874.874 0 0 1-.246.108 1.114 1.114 0 0 1-.29.038H.757a.994.994 0 0 1-.535-.146C.08 251.76 0 251.633 0 251.5c0-.133.08-.26.222-.354A.994.994 0 0 1 .757 251h547.486c.099 0 .198.013.29.038a.874.874 0 0 1 .246.108c.07.046.126.102.164.162a.36.36 0 0 1 .057.192Z" fill="#4E596A"/></svg>