<svg xmlns="http://www.w3.org/2000/svg" width="303" height="182" fill="none">
    <path fill="#ECF1F4" d="M0 .37h303v181.26H0z"/>
    <path fill="#000" d="M67.454 1H62v5.455h5.454V1ZM72.91 1h-5.456v5.455h5.455V1Z"/>
    <path fill="#000"
          d="M78.364 1h-5.455v5.455h5.455V1ZM83.818 1h-5.454v5.455h5.454V1ZM89.273 1h-5.455v5.455h5.455V1ZM94.727 1h-5.454v5.455h5.454V1ZM100.182 1h-5.455v5.455h5.455V1ZM111.091 1h-5.455v5.455h5.455V1ZM116.545 1h-5.454v5.455h5.454V1ZM138.364 1h-5.455v5.455h5.455V1ZM154.727 1h-5.454v5.455h5.454V1Z"/>
    <path fill="#000"
          d="M160.182 1h-5.455v5.455h5.455V1ZM165.636 1h-5.454v5.455h5.454V1ZM171.091 1h-5.455v5.455h5.455V1Z"/>
    <path fill="#000"
          d="M176.545 1h-5.454v5.455h5.454V1ZM182 1h-5.455v5.455H182V1ZM198.364 1h-5.455v5.455h5.455V1ZM209.273 1h-5.455v5.455h5.455V1ZM214.727 1h-5.454v5.455h5.454V1Z"/>
    <path fill="#000"
          d="M220.182 1h-5.455v5.455h5.455V1ZM225.636 1h-5.454v5.455h5.454V1ZM231.091 1h-5.455v5.455h5.455V1Z"/>
    <path fill="#000"
          d="M236.545 1h-5.454v5.455h5.454V1ZM242 1h-5.455v5.455H242V1ZM67.454 6.455H62v5.454h5.454V6.455ZM100.182 6.455h-5.455v5.454h5.455V6.455ZM116.545 6.455h-5.454v5.454h5.454V6.455ZM122 6.455h-5.455v5.454H122V6.455ZM138.364 6.455h-5.455v5.454h5.455V6.455ZM149.273 6.455h-5.455v5.454h5.455V6.455ZM154.727 6.455h-5.454v5.454h5.454V6.455ZM165.636 6.455h-5.454v5.454h5.454V6.455ZM171.091 6.455h-5.455v5.454h5.455V6.455Z"/>
    <path fill="#000"
          d="M176.545 6.455h-5.454v5.454h5.454V6.455ZM192.909 6.455h-5.454v5.454h5.454V6.455ZM209.273 6.455h-5.455v5.454h5.455V6.455ZM242 6.455h-5.455v5.454H242V6.455ZM67.454 11.91H62v5.454h5.454v-5.455ZM78.364 11.91h-5.455v5.454h5.455v-5.455ZM83.818 11.91h-5.454v5.454h5.454v-5.455ZM89.273 11.91h-5.455v5.454h5.455v-5.455ZM100.182 11.91h-5.455v5.454h5.455v-5.455ZM111.091 11.91h-5.455v5.454h5.455v-5.455ZM138.364 11.91h-5.455v5.454h5.455v-5.455ZM143.818 11.91h-5.454v5.454h5.454v-5.455ZM154.727 11.91h-5.454v5.454h5.454v-5.455Z"/>
    <path fill="#000"
          d="M160.182 11.91h-5.455v5.454h5.455v-5.455ZM165.636 11.91h-5.454v5.454h5.454v-5.455ZM171.091 11.91h-5.455v5.454h5.455v-5.455Z"/>
    <path fill="#000"
          d="M176.545 11.91h-5.454v5.454h5.454v-5.455ZM182 11.91h-5.455v5.454H182v-5.455ZM187.455 11.91H182v5.454h5.455v-5.455Z"/>
    <path fill="#000"
          d="M192.909 11.91h-5.454v5.454h5.454v-5.455ZM198.364 11.91h-5.455v5.454h5.455v-5.455ZM209.273 11.91h-5.455v5.454h5.455v-5.455ZM220.182 11.91h-5.455v5.454h5.455v-5.455ZM225.636 11.91h-5.454v5.454h5.454v-5.455ZM231.091 11.91h-5.455v5.454h5.455v-5.455ZM242 11.91h-5.455v5.454H242v-5.455ZM67.454 17.364H62v5.454h5.454v-5.454ZM78.364 17.364h-5.455v5.454h5.455v-5.454ZM83.818 17.364h-5.454v5.454h5.454v-5.454ZM89.273 17.364h-5.455v5.454h5.455v-5.454ZM100.182 17.364h-5.455v5.454h5.455v-5.454ZM111.091 17.364h-5.455v5.454h5.455v-5.454ZM127.455 17.364H122v5.454h5.455v-5.454ZM132.909 17.364h-5.454v5.454h5.454v-5.454ZM143.818 17.364h-5.454v5.454h5.454v-5.454ZM154.727 17.364h-5.454v5.454h5.454v-5.454Z"/>
    <path fill="#000"
          d="M160.182 17.364h-5.455v5.454h5.455v-5.454ZM165.636 17.364h-5.454v5.454h5.454v-5.454ZM171.091 17.364h-5.455v5.454h5.455v-5.454ZM182 17.364h-5.455v5.454H182v-5.454ZM192.909 17.364h-5.454v5.454h5.454v-5.454ZM198.364 17.364h-5.455v5.454h5.455v-5.454ZM209.273 17.364h-5.455v5.454h5.455v-5.454ZM220.182 17.364h-5.455v5.454h5.455v-5.454ZM225.636 17.364h-5.454v5.454h5.454v-5.454ZM231.091 17.364h-5.455v5.454h5.455v-5.454ZM242 17.364h-5.455v5.454H242v-5.454ZM67.454 22.818H62v5.455h5.454v-5.455ZM78.364 22.818h-5.455v5.455h5.455v-5.455ZM83.818 22.818h-5.454v5.455h5.454v-5.455ZM89.273 22.818h-5.455v5.455h5.455v-5.455ZM100.182 22.818h-5.455v5.455h5.455v-5.455ZM116.545 22.818h-5.454v5.455h5.454v-5.455ZM122 22.818h-5.455v5.455H122v-5.455ZM149.273 22.818h-5.455v5.455h5.455v-5.455ZM160.182 22.818h-5.455v5.455h5.455v-5.455ZM171.091 22.818h-5.455v5.455h5.455v-5.455ZM209.273 22.818h-5.455v5.455h5.455v-5.455ZM220.182 22.818h-5.455v5.455h5.455v-5.455ZM225.636 22.818h-5.454v5.455h5.454v-5.455ZM231.091 22.818h-5.455v5.455h5.455v-5.455ZM242 22.818h-5.455v5.455H242v-5.455Z"/>
    <path fill="#000"
          d="M67.454 28.273H62v5.454h5.454v-5.454ZM100.182 28.273h-5.455v5.454h5.455v-5.454ZM111.091 28.273h-5.455v5.454h5.455v-5.454ZM138.364 28.273h-5.455v5.454h5.455v-5.454ZM143.818 28.273h-5.454v5.454h5.454v-5.454Z"/>
    <path fill="#000"
          d="M149.273 28.273h-5.455v5.454h5.455v-5.454ZM154.727 28.273h-5.454v5.454h5.454v-5.454ZM171.091 28.273h-5.455v5.454h5.455v-5.454ZM182 28.273h-5.455v5.454H182v-5.454ZM187.455 28.273H182v5.454h5.455v-5.454ZM198.364 28.273h-5.455v5.454h5.455v-5.454ZM209.273 28.273h-5.455v5.454h5.455v-5.454ZM242 28.273h-5.455v5.454H242v-5.454ZM67.454 33.727H62v5.455h5.454v-5.455ZM72.91 33.727h-5.456v5.455h5.455v-5.455Z"/>
    <path fill="#000"
          d="M78.364 33.727h-5.455v5.455h5.455v-5.455ZM83.818 33.727h-5.454v5.455h5.454v-5.455ZM89.273 33.727h-5.455v5.455h5.455v-5.455ZM94.727 33.727h-5.454v5.455h5.454v-5.455ZM100.182 33.727h-5.455v5.455h5.455v-5.455ZM111.091 33.727h-5.455v5.455h5.455v-5.455ZM122 33.727h-5.455v5.455H122v-5.455ZM132.909 33.727h-5.454v5.455h5.454v-5.455ZM143.818 33.727h-5.454v5.455h5.454v-5.455ZM154.727 33.727h-5.454v5.455h5.454v-5.455ZM165.636 33.727h-5.454v5.455h5.454v-5.455ZM176.545 33.727h-5.454v5.455h5.454v-5.455ZM187.455 33.727H182v5.455h5.455v-5.455ZM198.364 33.727h-5.455v5.455h5.455v-5.455ZM209.273 33.727h-5.455v5.455h5.455v-5.455ZM214.727 33.727h-5.454v5.455h5.454v-5.455Z"/>
    <path fill="#000"
          d="M220.182 33.727h-5.455v5.455h5.455v-5.455ZM225.636 33.727h-5.454v5.455h5.454v-5.455ZM231.091 33.727h-5.455v5.455h5.455v-5.455Z"/>
    <path fill="#000"
          d="M236.545 33.727h-5.454v5.455h5.454v-5.455ZM242 33.727h-5.455v5.455H242v-5.455ZM111.091 39.182h-5.455v5.454h5.455v-5.454ZM116.545 39.182h-5.454v5.454h5.454v-5.454ZM122 39.182h-5.455v5.454H122v-5.454ZM138.364 39.182h-5.455v5.454h5.455v-5.454ZM143.818 39.182h-5.454v5.454h5.454v-5.454ZM171.091 39.182h-5.455v5.454h5.455v-5.454Z"/>
    <path fill="#000"
          d="M176.545 39.182h-5.454v5.454h5.454v-5.454ZM182 39.182h-5.455v5.454H182v-5.454ZM187.455 39.182H182v5.454h5.455v-5.454ZM67.454 44.636H62v5.455h5.454v-5.455ZM72.91 44.636h-5.456v5.455h5.455v-5.455ZM83.818 44.636h-5.454v5.455h5.454v-5.455ZM100.182 44.636h-5.455v5.455h5.455v-5.455ZM105.636 44.636h-5.454v5.455h5.454v-5.455ZM122 44.636h-5.455v5.455H122v-5.455ZM127.455 44.636H122v5.455h5.455v-5.455ZM132.909 44.636h-5.454v5.455h5.454v-5.455ZM154.727 44.636h-5.454v5.455h5.454v-5.455Z"/>
    <path fill="#000"
          d="M160.182 44.636h-5.455v5.455h5.455v-5.455ZM165.636 44.636h-5.454v5.455h5.454v-5.455ZM192.909 44.636h-5.454v5.455h5.454v-5.455ZM198.364 44.636h-5.455v5.455h5.455v-5.455ZM203.818 44.636h-5.454v5.455h5.454v-5.455Z"/>
    <path fill="#000"
          d="M209.273 44.636h-5.455v5.455h5.455v-5.455ZM214.727 44.636h-5.454v5.455h5.454v-5.455ZM225.636 44.636h-5.454v5.455h5.454v-5.455ZM231.091 44.636h-5.455v5.455h5.455v-5.455ZM242 44.636h-5.455v5.455H242v-5.455ZM67.454 50.09H62v5.455h5.454v-5.454ZM83.818 50.09h-5.454v5.455h5.454v-5.454ZM94.727 50.09h-5.454v5.455h5.454v-5.454ZM111.091 50.09h-5.455v5.455h5.455v-5.454ZM122 50.09h-5.455v5.455H122v-5.454ZM132.909 50.09h-5.454v5.455h5.454v-5.454ZM138.364 50.09h-5.455v5.455h5.455v-5.454ZM149.273 50.09h-5.455v5.455h5.455v-5.454ZM154.727 50.09h-5.454v5.455h5.454v-5.454ZM165.636 50.09h-5.454v5.455h5.454v-5.454ZM171.091 50.09h-5.455v5.455h5.455v-5.454ZM182 50.09h-5.455v5.455H182v-5.454ZM187.455 50.09H182v5.455h5.455v-5.454Z"/>
    <path fill="#000"
          d="M192.909 50.09h-5.454v5.455h5.454v-5.454ZM209.273 50.09h-5.455v5.455h5.455v-5.454ZM214.727 50.09h-5.454v5.455h5.454v-5.454ZM225.636 50.09h-5.454v5.455h5.454v-5.454ZM67.454 55.545H62V61h5.454v-5.455ZM72.91 55.545h-5.456V61h5.455v-5.455ZM83.818 55.545h-5.454V61h5.454v-5.455ZM94.727 55.545h-5.454V61h5.454v-5.455ZM100.182 55.545h-5.455V61h5.455v-5.455ZM111.091 55.545h-5.455V61h5.455v-5.455ZM116.545 55.545h-5.454V61h5.454v-5.455ZM132.909 55.545h-5.454V61h5.454v-5.455ZM138.364 55.545h-5.455V61h5.455v-5.455ZM143.818 55.545h-5.454V61h5.454v-5.455Z"/>
    <path fill="#000" d="M149.273 55.545h-5.455V61h5.455v-5.455ZM154.727 55.545h-5.454V61h5.454v-5.455Z"/>
    <path fill="#000"
          d="M160.182 55.545h-5.455V61h5.455v-5.455ZM165.636 55.545h-5.454V61h5.454v-5.455ZM182 55.545h-5.455V61H182v-5.455ZM187.455 55.545H182V61h5.455v-5.455ZM203.818 55.545h-5.454V61h5.454v-5.455Z"/>
    <path fill="#000"
          d="M209.273 55.545h-5.455V61h5.455v-5.455ZM231.091 55.545h-5.455V61h5.455v-5.455ZM242 55.545h-5.455V61H242v-5.455ZM72.91 61h-5.456v5.454h5.455V61Z"/>
    <path fill="#000"
          d="M78.364 61h-5.455v5.454h5.455V61ZM83.818 61h-5.454v5.454h5.454V61ZM89.273 61h-5.455v5.454h5.455V61ZM94.727 61h-5.454v5.454h5.454V61ZM105.636 61h-5.454v5.454h5.454V61ZM111.091 61h-5.455v5.454h5.455V61ZM132.909 61h-5.454v5.454h5.454V61ZM138.364 61h-5.455v5.454h5.455V61ZM149.273 61h-5.455v5.454h5.455V61ZM154.727 61h-5.454v5.454h5.454V61ZM165.636 61h-5.454v5.454h5.454V61ZM176.545 61h-5.454v5.454h5.454V61ZM182 61h-5.455v5.454H182V61ZM192.909 61h-5.454v5.454h5.454V61ZM198.364 61h-5.455v5.454h5.455V61ZM214.727 61h-5.454v5.454h5.454V61ZM231.091 61h-5.455v5.454h5.455V61ZM242 61h-5.455v5.454H242V61ZM72.91 66.454h-5.456v5.455h5.455v-5.455ZM83.818 66.454h-5.454v5.455h5.454v-5.455ZM89.273 66.454h-5.455v5.455h5.455v-5.455ZM100.182 66.454h-5.455v5.455h5.455v-5.455ZM105.636 66.454h-5.454v5.455h5.454v-5.455ZM122 66.454h-5.455v5.455H122v-5.455ZM138.364 66.454h-5.455v5.455h5.455v-5.455ZM143.818 66.454h-5.454v5.455h5.454v-5.455ZM160.182 66.454h-5.455v5.455h5.455v-5.455ZM165.636 66.454h-5.454v5.455h5.454v-5.455ZM176.545 66.454h-5.454v5.455h5.454v-5.455ZM182 66.454h-5.455v5.455H182v-5.455ZM198.364 66.454h-5.455v5.455h5.455v-5.455ZM209.273 66.454h-5.455v5.455h5.455v-5.455ZM220.182 66.454h-5.455v5.455h5.455v-5.455ZM236.545 66.454h-5.454v5.455h5.454v-5.455ZM242 66.454h-5.455v5.455H242v-5.455ZM78.364 71.91h-5.455v5.454h5.455v-5.455ZM89.273 71.91h-5.455v5.454h5.455v-5.455ZM94.727 71.91h-5.454v5.454h5.454v-5.455ZM116.545 71.91h-5.454v5.454h5.454v-5.455ZM122 71.91h-5.455v5.454H122v-5.455ZM138.364 71.91h-5.455v5.454h5.455v-5.455ZM160.182 71.91h-5.455v5.454h5.455v-5.455ZM171.091 71.91h-5.455v5.454h5.455v-5.455Z"/>
    <path fill="#000"
          d="M176.545 71.91h-5.454v5.454h5.454v-5.455ZM182 71.91h-5.455v5.454H182v-5.455ZM203.818 71.91h-5.454v5.454h5.454v-5.455Z"/>
    <path fill="#000" d="M209.273 71.91h-5.455v5.454h5.455v-5.455ZM214.727 71.91h-5.454v5.454h5.454v-5.455Z"/>
    <path fill="#000"
          d="M220.182 71.91h-5.455v5.454h5.455v-5.455ZM231.091 71.91h-5.455v5.454h5.455v-5.455ZM242 71.91h-5.455v5.454H242v-5.455ZM72.91 77.364h-5.456v5.454h5.455v-5.454Z"/>
    <path fill="#000"
          d="M78.364 77.364h-5.455v5.454h5.455v-5.454ZM100.182 77.364h-5.455v5.454h5.455v-5.454ZM111.091 77.364h-5.455v5.454h5.455v-5.454ZM116.545 77.364h-5.454v5.454h5.454v-5.454ZM132.909 77.364h-5.454v5.454h5.454v-5.454ZM138.364 77.364h-5.455v5.454h5.455v-5.454ZM171.091 77.364h-5.455v5.454h5.455v-5.454ZM182 77.364h-5.455v5.454H182v-5.454ZM187.455 77.364H182v5.454h5.455v-5.454ZM214.727 77.364h-5.454v5.454h5.454v-5.454ZM225.636 77.364h-5.454v5.454h5.454v-5.454ZM236.545 77.364h-5.454v5.454h5.454v-5.454ZM242 77.364h-5.455v5.454H242v-5.454ZM78.364 82.818h-5.455v5.455h5.455v-5.455ZM83.818 82.818h-5.454v5.455h5.454v-5.455ZM94.727 82.818h-5.454v5.455h5.454v-5.455ZM105.636 82.818h-5.454v5.455h5.454v-5.455ZM111.091 82.818h-5.455v5.455h5.455v-5.455ZM132.909 82.818h-5.454v5.455h5.454v-5.455ZM149.273 82.818h-5.455v5.455h5.455v-5.455ZM160.182 82.818h-5.455v5.455h5.455v-5.455ZM165.636 82.818h-5.454v5.455h5.454v-5.455ZM176.545 82.818h-5.454v5.455h5.454v-5.455ZM182 82.818h-5.455v5.455H182v-5.455ZM187.455 82.818H182v5.455h5.455v-5.455Z"/>
    <path fill="#000"
          d="M192.909 82.818h-5.454v5.455h5.454v-5.455ZM203.818 82.818h-5.454v5.455h5.454v-5.455ZM231.091 82.818h-5.455v5.455h5.455v-5.455ZM67.454 88.273H62v5.454h5.454v-5.454ZM78.364 88.273h-5.455v5.454h5.455v-5.454ZM89.273 88.273h-5.455v5.454h5.455v-5.454ZM94.727 88.273h-5.454v5.454h5.454v-5.454ZM100.182 88.273h-5.455v5.454h5.455v-5.454ZM105.636 88.273h-5.454v5.454h5.454v-5.454ZM116.545 88.273h-5.454v5.454h5.454v-5.454ZM127.455 88.273H122v5.454h5.455v-5.454ZM132.909 88.273h-5.454v5.454h5.454v-5.454ZM154.727 88.273h-5.454v5.454h5.454v-5.454ZM165.636 88.273h-5.454v5.454h5.454v-5.454ZM171.091 88.273h-5.455v5.454h5.455v-5.454Z"/>
    <path fill="#000"
          d="M176.545 88.273h-5.454v5.454h5.454v-5.454ZM182 88.273h-5.455v5.454H182v-5.454ZM209.273 88.273h-5.455v5.454h5.455v-5.454ZM220.182 88.273h-5.455v5.454h5.455v-5.454ZM225.636 88.273h-5.454v5.454h5.454v-5.454ZM231.091 88.273h-5.455v5.454h5.455v-5.454ZM67.454 93.727H62v5.455h5.454v-5.455ZM105.636 93.727h-5.454v5.455h5.454v-5.455ZM111.091 93.727h-5.455v5.455h5.455v-5.455ZM116.545 93.727h-5.454v5.455h5.454v-5.455ZM127.455 93.727H122v5.455h5.455v-5.455ZM138.364 93.727h-5.455v5.455h5.455v-5.455ZM143.818 93.727h-5.454v5.455h5.454v-5.455ZM171.091 93.727h-5.455v5.455h5.455v-5.455ZM187.455 93.727H182v5.455h5.455v-5.455ZM198.364 93.727h-5.455v5.455h5.455v-5.455ZM209.273 93.727h-5.455v5.455h5.455v-5.455ZM214.727 93.727h-5.454v5.455h5.454v-5.455Z"/>
    <path fill="#000"
          d="M220.182 93.727h-5.455v5.455h5.455v-5.455ZM236.545 93.727h-5.454v5.455h5.454v-5.455ZM242 93.727h-5.455v5.455H242v-5.455ZM67.454 99.182H62v5.454h5.454v-5.454ZM72.91 99.182h-5.456v5.454h5.455v-5.454ZM83.818 99.182h-5.454v5.454h5.454v-5.454ZM94.727 99.182h-5.454v5.454h5.454v-5.454ZM100.182 99.182h-5.455v5.454h5.455v-5.454ZM105.636 99.182h-5.454v5.454h5.454v-5.454ZM111.091 99.182h-5.455v5.454h5.455v-5.454ZM116.545 99.182h-5.454v5.454h5.454v-5.454ZM122 99.182h-5.455v5.454H122v-5.454ZM143.818 99.182h-5.454v5.454h5.454v-5.454Z"/>
    <path fill="#000" d="M149.273 99.182h-5.455v5.454h5.455v-5.454ZM154.727 99.182h-5.454v5.454h5.454v-5.454Z"/>
    <path fill="#000"
          d="M160.182 99.182h-5.455v5.454h5.455v-5.454ZM165.636 99.182h-5.454v5.454h5.454v-5.454ZM171.091 99.182h-5.455v5.454h5.455v-5.454ZM187.455 99.182H182v5.454h5.455v-5.454Z"/>
    <path fill="#000"
          d="M192.909 99.182h-5.454v5.454h5.454v-5.454ZM209.273 99.182h-5.455v5.454h5.455v-5.454ZM214.727 99.182h-5.454v5.454h5.454v-5.454Z"/>
    <path fill="#000"
          d="M220.182 99.182h-5.455v5.454h5.455v-5.454ZM236.545 99.182h-5.454v5.454h5.454v-5.454ZM242 99.182h-5.455v5.454H242v-5.454ZM67.454 104.636H62v5.455h5.454v-5.455ZM89.273 104.636h-5.455v5.455h5.455v-5.455ZM94.727 104.636h-5.454v5.455h5.454v-5.455ZM111.091 104.636h-5.455v5.455h5.455v-5.455ZM116.545 104.636h-5.454v5.455h5.454v-5.455ZM132.909 104.636h-5.454v5.455h5.454v-5.455ZM138.364 104.636h-5.455v5.455h5.455v-5.455ZM143.818 104.636h-5.454v5.455h5.454v-5.455ZM176.545 104.636h-5.454v5.455h5.454v-5.455ZM182 104.636h-5.455v5.455H182v-5.455ZM192.909 104.636h-5.454v5.455h5.454v-5.455ZM198.364 104.636h-5.455v5.455h5.455v-5.455ZM203.818 104.636h-5.454v5.455h5.454v-5.455Z"/>
    <path fill="#000"
          d="M209.273 104.636h-5.455v5.455h5.455v-5.455ZM214.727 104.636h-5.454v5.455h5.454v-5.455ZM242 104.636h-5.455v5.455H242v-5.455ZM78.364 110.091h-5.455v5.454h5.455v-5.454ZM94.727 110.091h-5.454v5.454h5.454v-5.454ZM100.182 110.091h-5.455v5.454h5.455v-5.454ZM116.545 110.091h-5.454v5.454h5.454v-5.454ZM122 110.091h-5.455v5.454H122v-5.454ZM127.455 110.091H122v5.454h5.455v-5.454ZM149.273 110.091h-5.455v5.454h5.455v-5.454ZM154.727 110.091h-5.454v5.454h5.454v-5.454Z"/>
    <path fill="#000"
          d="M160.182 110.091h-5.455v5.454h5.455v-5.454ZM165.636 110.091h-5.454v5.454h5.454v-5.454ZM182 110.091h-5.455v5.454H182v-5.454ZM187.455 110.091H182v5.454h5.455v-5.454Z"/>
    <path fill="#000"
          d="M192.909 110.091h-5.454v5.454h5.454v-5.454ZM198.364 110.091h-5.455v5.454h5.455v-5.454ZM220.182 110.091h-5.455v5.454h5.455v-5.454ZM225.636 110.091h-5.454v5.454h5.454v-5.454ZM231.091 110.091h-5.455v5.454h5.455v-5.454ZM242 110.091h-5.455v5.454H242v-5.454ZM72.91 115.545h-5.456V121h5.455v-5.455ZM89.273 115.545h-5.455V121h5.455v-5.455ZM94.727 115.545h-5.454V121h5.454v-5.455ZM111.091 115.545h-5.455V121h5.455v-5.455ZM116.545 115.545h-5.454V121h5.454v-5.455ZM138.364 115.545h-5.455V121h5.455v-5.455ZM149.273 115.545h-5.455V121h5.455v-5.455ZM154.727 115.545h-5.454V121h5.454v-5.455Z"/>
    <path fill="#000"
          d="M160.182 115.545h-5.455V121h5.455v-5.455ZM176.545 115.545h-5.454V121h5.454v-5.455ZM182 115.545h-5.455V121H182v-5.455ZM203.818 115.545h-5.454V121h5.454v-5.455ZM214.727 115.545h-5.454V121h5.454v-5.455Z"/>
    <path fill="#000"
          d="M220.182 115.545h-5.455V121h5.455v-5.455ZM231.091 115.545h-5.455V121h5.455v-5.455ZM242 115.545h-5.455V121H242v-5.455ZM72.91 121h-5.456v5.455h5.455V121ZM83.818 121h-5.454v5.455h5.454V121ZM94.727 121h-5.454v5.455h5.454V121ZM100.182 121h-5.455v5.455h5.455V121ZM105.636 121h-5.454v5.455h5.454V121ZM132.909 121h-5.454v5.455h5.454V121ZM154.727 121h-5.454v5.455h5.454V121Z"/>
    <path fill="#000"
          d="M160.182 121h-5.455v5.455h5.455V121ZM165.636 121h-5.454v5.455h5.454V121ZM198.364 121h-5.455v5.455h5.455V121ZM214.727 121h-5.454v5.455h5.454V121Z"/>
    <path fill="#000"
          d="M220.182 121h-5.455v5.455h5.455V121ZM225.636 121h-5.454v5.455h5.454V121ZM231.091 121h-5.455v5.455h5.455V121Z"/>
    <path fill="#000"
          d="M236.545 121h-5.454v5.455h5.454V121ZM67.454 126.455H62v5.454h5.454v-5.454ZM72.91 126.455h-5.456v5.454h5.455v-5.454Z"/>
    <path fill="#000"
          d="M78.364 126.455h-5.455v5.454h5.455v-5.454ZM105.636 126.455h-5.454v5.454h5.454v-5.454ZM116.545 126.455h-5.454v5.454h5.454v-5.454ZM122 126.455h-5.455v5.454H122v-5.454ZM154.727 126.455h-5.454v5.454h5.454v-5.454Z"/>
    <path fill="#000"
          d="M160.182 126.455h-5.455v5.454h5.455v-5.454ZM182 126.455h-5.455v5.454H182v-5.454ZM187.455 126.455H182v5.454h5.455v-5.454Z"/>
    <path fill="#000"
          d="M192.909 126.455h-5.454v5.454h5.454v-5.454ZM198.364 126.455h-5.455v5.454h5.455v-5.454ZM209.273 126.455h-5.455v5.454h5.455v-5.454ZM214.727 126.455h-5.454v5.454h5.454v-5.454Z"/>
    <path fill="#000"
          d="M220.182 126.455h-5.455v5.454h5.455v-5.454ZM225.636 126.455h-5.454v5.454h5.454v-5.454ZM231.091 126.455h-5.455v5.454h5.455v-5.454Z"/>
    <path fill="#000"
          d="M236.545 126.455h-5.454v5.454h5.454v-5.454ZM83.818 131.909h-5.454v5.455h5.454v-5.455ZM94.727 131.909h-5.454v5.455h5.454v-5.455ZM100.182 131.909h-5.455v5.455h5.455v-5.455ZM105.636 131.909h-5.454v5.455h5.454v-5.455ZM111.091 131.909h-5.455v5.455h5.455v-5.455ZM122 131.909h-5.455v5.455H122v-5.455ZM127.455 131.909H122v5.455h5.455v-5.455ZM132.909 131.909h-5.454v5.455h5.454v-5.455ZM138.364 131.909h-5.455v5.455h5.455v-5.455ZM160.182 131.909h-5.455v5.455h5.455v-5.455ZM165.636 131.909h-5.454v5.455h5.454v-5.455ZM192.909 131.909h-5.454v5.455h5.454v-5.455ZM198.364 131.909h-5.455v5.455h5.455v-5.455ZM203.818 131.909h-5.454v5.455h5.454v-5.455Z"/>
    <path fill="#000" d="M209.273 131.909h-5.455v5.455h5.455v-5.455ZM214.727 131.909h-5.454v5.455h5.454v-5.455Z"/>
    <path fill="#000" d="M220.182 131.909h-5.455v5.455h5.455v-5.455ZM231.091 131.909h-5.455v5.455h5.455v-5.455Z"/>
    <path fill="#000"
          d="M236.545 131.909h-5.454v5.455h5.454v-5.455ZM122 137.364h-5.455v5.454H122v-5.454ZM127.455 137.364H122v5.454h5.455v-5.454ZM132.909 137.364h-5.454v5.454h5.454v-5.454ZM138.364 137.364h-5.455v5.454h5.455v-5.454ZM149.273 137.364h-5.455v5.454h5.455v-5.454ZM154.727 137.364h-5.454v5.454h5.454v-5.454ZM165.636 137.364h-5.454v5.454h5.454v-5.454ZM171.091 137.364h-5.455v5.454h5.455v-5.454ZM187.455 137.364H182v5.454h5.455v-5.454ZM198.364 137.364h-5.455v5.454h5.455v-5.454ZM220.182 137.364h-5.455v5.454h5.455v-5.454ZM236.545 137.364h-5.454v5.454h5.454v-5.454ZM67.454 142.818H62v5.455h5.454v-5.455ZM72.91 142.818h-5.456v5.455h5.455v-5.455Z"/>
    <path fill="#000"
          d="M78.364 142.818h-5.455v5.455h5.455v-5.455ZM83.818 142.818h-5.454v5.455h5.454v-5.455ZM89.273 142.818h-5.455v5.455h5.455v-5.455ZM94.727 142.818h-5.454v5.455h5.454v-5.455ZM100.182 142.818h-5.455v5.455h5.455v-5.455ZM111.091 142.818h-5.455v5.455h5.455v-5.455ZM116.545 142.818h-5.454v5.455h5.454v-5.455ZM122 142.818h-5.455v5.455H122v-5.455ZM154.727 142.818h-5.454v5.455h5.454v-5.455Z"/>
    <path fill="#000"
          d="M160.182 142.818h-5.455v5.455h5.455v-5.455ZM171.091 142.818h-5.455v5.455h5.455v-5.455ZM182 142.818h-5.455v5.455H182v-5.455ZM187.455 142.818H182v5.455h5.455v-5.455ZM198.364 142.818h-5.455v5.455h5.455v-5.455ZM209.273 142.818h-5.455v5.455h5.455v-5.455ZM220.182 142.818h-5.455v5.455h5.455v-5.455ZM231.091 142.818h-5.455v5.455h5.455v-5.455ZM67.454 148.273H62v5.454h5.454v-5.454ZM100.182 148.273h-5.455v5.454h5.455v-5.454ZM127.455 148.273H122v5.454h5.455v-5.454ZM138.364 148.273h-5.455v5.454h5.455v-5.454Z"/>
    <path fill="#000" d="M154.727 148.273h-5.454v5.454h5.454v-5.454Z"/>
    <path fill="#000" d="M160.182 148.273h-5.455v5.454h5.455v-5.454ZM187.455 148.273H182v5.454h5.455v-5.454Z"/>
    <path fill="#000"
          d="M192.909 148.273h-5.454v5.454h5.454v-5.454ZM198.364 148.273h-5.455v5.454h5.455v-5.454ZM220.182 148.273h-5.455v5.454h5.455v-5.454ZM225.636 148.273h-5.454v5.454h5.454v-5.454ZM242 148.273h-5.455v5.454H242v-5.454ZM67.454 153.727H62v5.455h5.454v-5.455ZM78.364 153.727h-5.455v5.455h5.455v-5.455ZM83.818 153.727h-5.454v5.455h5.454v-5.455ZM89.273 153.727h-5.455v5.455h5.455v-5.455ZM100.182 153.727h-5.455v5.455h5.455v-5.455ZM127.455 153.727H122v5.455h5.455v-5.455ZM132.909 153.727h-5.454v5.455h5.454v-5.455ZM149.273 153.727h-5.455v5.455h5.455v-5.455ZM154.727 153.727h-5.454v5.455h5.454v-5.455Z"/>
    <path fill="#000"
          d="M160.182 153.727h-5.455v5.455h5.455v-5.455ZM165.636 153.727h-5.454v5.455h5.454v-5.455ZM192.909 153.727h-5.454v5.455h5.454v-5.455ZM198.364 153.727h-5.455v5.455h5.455v-5.455ZM203.818 153.727h-5.454v5.455h5.454v-5.455Z"/>
    <path fill="#000" d="M209.273 153.727h-5.455v5.455h5.455v-5.455ZM214.727 153.727h-5.454v5.455h5.454v-5.455Z"/>
    <path fill="#000"
          d="M220.182 153.727h-5.455v5.455h5.455v-5.455ZM242 153.727h-5.455v5.455H242v-5.455ZM67.454 159.182H62v5.454h5.454v-5.454ZM78.364 159.182h-5.455v5.454h5.455v-5.454ZM83.818 159.182h-5.454v5.454h5.454v-5.454ZM89.273 159.182h-5.455v5.454h5.455v-5.454ZM100.182 159.182h-5.455v5.454h5.455v-5.454ZM111.091 159.182h-5.455v5.454h5.455v-5.454ZM122 159.182h-5.455v5.454H122v-5.454ZM127.455 159.182H122v5.454h5.455v-5.454ZM132.909 159.182h-5.454v5.454h5.454v-5.454ZM143.818 159.182h-5.454v5.454h5.454v-5.454Z"/>
    <path fill="#000" d="M149.273 159.182h-5.455v5.454h5.455v-5.454ZM154.727 159.182h-5.454v5.454h5.454v-5.454Z"/>
    <path fill="#000"
          d="M160.182 159.182h-5.455v5.454h5.455v-5.454ZM165.636 159.182h-5.454v5.454h5.454v-5.454ZM192.909 159.182h-5.454v5.454h5.454v-5.454ZM214.727 159.182h-5.454v5.454h5.454v-5.454Z"/>
    <path fill="#000"
          d="M220.182 159.182h-5.455v5.454h5.455v-5.454ZM225.636 159.182h-5.454v5.454h5.454v-5.454ZM231.091 159.182h-5.455v5.454h5.455v-5.454ZM67.454 164.636H62v5.455h5.454v-5.455ZM78.364 164.636h-5.455v5.455h5.455v-5.455ZM83.818 164.636h-5.454v5.455h5.454v-5.455ZM89.273 164.636h-5.455v5.455h5.455v-5.455ZM100.182 164.636h-5.455v5.455h5.455v-5.455ZM116.545 164.636h-5.454v5.455h5.454v-5.455ZM122 164.636h-5.455v5.455H122v-5.455ZM149.273 164.636h-5.455v5.455h5.455v-5.455ZM154.727 164.636h-5.454v5.455h5.454v-5.455ZM165.636 164.636h-5.454v5.455h5.454v-5.455ZM176.545 164.636h-5.454v5.455h5.454v-5.455ZM203.818 164.636h-5.454v5.455h5.454v-5.455Z"/>
    <path fill="#000" d="M209.273 164.636h-5.455v5.455h5.455v-5.455ZM214.727 164.636h-5.454v5.455h5.454v-5.455Z"/>
    <path fill="#000"
          d="M220.182 164.636h-5.455v5.455h5.455v-5.455ZM242 164.636h-5.455v5.455H242v-5.455ZM67.454 170.091H62v5.454h5.454v-5.454ZM100.182 170.091h-5.455v5.454h5.455v-5.454ZM111.091 170.091h-5.455v5.454h5.455v-5.454ZM122 170.091h-5.455v5.454H122v-5.454ZM127.455 170.091H122v5.454h5.455v-5.454ZM132.909 170.091h-5.454v5.454h5.454v-5.454ZM138.364 170.091h-5.455v5.454h5.455v-5.454ZM149.273 170.091h-5.455v5.454h5.455v-5.454ZM154.727 170.091h-5.454v5.454h5.454v-5.454ZM165.636 170.091h-5.454v5.454h5.454v-5.454ZM171.091 170.091h-5.455v5.454h5.455v-5.454Z"/>
    <path fill="#000"
          d="M176.545 170.091h-5.454v5.454h5.454v-5.454ZM187.455 170.091H182v5.454h5.455v-5.454ZM198.364 170.091h-5.455v5.454h5.455v-5.454ZM220.182 170.091h-5.455v5.454h5.455v-5.454ZM67.454 175.545H62V181h5.454v-5.455ZM72.91 175.545h-5.456V181h5.455v-5.455Z"/>
    <path fill="#000"
          d="M78.364 175.545h-5.455V181h5.455v-5.455ZM83.818 175.545h-5.454V181h5.454v-5.455ZM89.273 175.545h-5.455V181h5.455v-5.455ZM94.727 175.545h-5.454V181h5.454v-5.455ZM100.182 175.545h-5.455V181h5.455v-5.455ZM111.091 175.545h-5.455V181h5.455v-5.455ZM116.545 175.545h-5.454V181h5.454v-5.455ZM122 175.545h-5.455V181H122v-5.455ZM149.273 175.545h-5.455V181h5.455v-5.455ZM154.727 175.545h-5.454V181h5.454v-5.455Z"/>
    <path fill="#000"
          d="M160.182 175.545h-5.455V181h5.455v-5.455ZM171.091 175.545h-5.455V181h5.455v-5.455ZM182 175.545h-5.455V181H182v-5.455ZM187.455 175.545H182V181h5.455v-5.455ZM214.727 175.545h-5.454V181h5.454v-5.455Z"/>
    <path fill="#000"
          d="M220.182 175.545h-5.455V181h5.455v-5.455ZM225.636 175.545h-5.454V181h5.454v-5.455ZM236.545 175.545h-5.454V181h5.454v-5.455Z"/>
</svg>
