<svg width="303" height="182" viewBox="0 0 303 182" fill="none" xmlns="http://www.w3.org/2000/svg">
<path d="M68.2069 1H62V7.2069H68.2069V1Z" fill="black"/>
<path d="M74.4138 1H68.2069V7.2069H74.4138V1Z" fill="black"/>
<path d="M80.6207 1H74.4138V7.2069H80.6207V1Z" fill="black"/>
<path d="M86.8276 1H80.6207V7.2069H86.8276V1Z" fill="black"/>
<path d="M93.0345 1H86.8276V7.2069H93.0345V1Z" fill="black"/>
<path d="M99.2414 1H93.0345V7.2069H99.2414V1Z" fill="black"/>
<path d="M105.448 1H99.2414V7.2069H105.448V1Z" fill="black"/>
<path d="M117.862 1H111.655V7.2069H117.862V1Z" fill="black"/>
<path d="M124.069 1H117.862V7.2069H124.069V1Z" fill="black"/>
<path d="M130.276 1H124.069V7.2069H130.276V1Z" fill="black"/>
<path d="M136.483 1H130.276V7.2069H136.483V1Z" fill="black"/>
<path d="M155.103 1H148.897V7.2069H155.103V1Z" fill="black"/>
<path d="M167.517 1H161.31V7.2069H167.517V1Z" fill="black"/>
<path d="M179.931 1H173.724V7.2069H179.931V1Z" fill="black"/>
<path d="M192.345 1H186.138V7.2069H192.345V1Z" fill="black"/>
<path d="M204.759 1H198.552V7.2069H204.759V1Z" fill="black"/>
<path d="M210.966 1H204.759V7.2069H210.966V1Z" fill="black"/>
<path d="M217.172 1H210.966V7.2069H217.172V1Z" fill="black"/>
<path d="M223.379 1H217.172V7.2069H223.379V1Z" fill="black"/>
<path d="M229.586 1H223.379V7.2069H229.586V1Z" fill="black"/>
<path d="M235.793 1H229.586V7.2069H235.793V1Z" fill="black"/>
<path d="M242 1H235.793V7.2069H242V1Z" fill="black"/>
<path d="M68.2069 7.2069H62V13.4138H68.2069V7.2069Z" fill="black"/>
<path d="M105.448 7.2069H99.2414V13.4138H105.448V7.2069Z" fill="black"/>
<path d="M124.069 7.2069H117.862V13.4138H124.069V7.2069Z" fill="black"/>
<path d="M136.483 7.2069H130.276V13.4138H136.483V7.2069Z" fill="black"/>
<path d="M155.103 7.2069H148.897V13.4138H155.103V7.2069Z" fill="black"/>
<path d="M161.31 7.2069H155.103V13.4138H161.31V7.2069Z" fill="black"/>
<path d="M173.724 7.2069H167.517V13.4138H173.724V7.2069Z" fill="black"/>
<path d="M186.138 7.2069H179.931V13.4138H186.138V7.2069Z" fill="black"/>
<path d="M204.759 7.2069H198.552V13.4138H204.759V7.2069Z" fill="black"/>
<path d="M242 7.2069H235.793V13.4138H242V7.2069Z" fill="black"/>
<path d="M68.2069 13.4138H62V19.6207H68.2069V13.4138Z" fill="black"/>
<path d="M80.6207 13.4138H74.4138V19.6207H80.6207V13.4138Z" fill="black"/>
<path d="M86.8276 13.4138H80.6207V19.6207H86.8276V13.4138Z" fill="black"/>
<path d="M93.0345 13.4138H86.8276V19.6207H93.0345V13.4138Z" fill="black"/>
<path d="M105.448 13.4138H99.2414V19.6207H105.448V13.4138Z" fill="black"/>
<path d="M117.862 13.4138H111.655V19.6207H117.862V13.4138Z" fill="black"/>
<path d="M124.069 13.4138H117.862V19.6207H124.069V13.4138Z" fill="black"/>
<path d="M130.276 13.4138H124.069V19.6207H130.276V13.4138Z" fill="black"/>
<path d="M136.483 13.4138H130.276V19.6207H136.483V13.4138Z" fill="black"/>
<path d="M148.897 13.4138H142.69V19.6207H148.897V13.4138Z" fill="black"/>
<path d="M173.724 13.4138H167.517V19.6207H173.724V13.4138Z" fill="black"/>
<path d="M186.138 13.4138H179.931V19.6207H186.138V13.4138Z" fill="black"/>
<path d="M204.759 13.4138H198.552V19.6207H204.759V13.4138Z" fill="black"/>
<path d="M217.172 13.4138H210.966V19.6207H217.172V13.4138Z" fill="black"/>
<path d="M223.379 13.4138H217.172V19.6207H223.379V13.4138Z" fill="black"/>
<path d="M229.586 13.4138H223.379V19.6207H229.586V13.4138Z" fill="black"/>
<path d="M242 13.4138H235.793V19.6207H242V13.4138Z" fill="black"/>
<path d="M68.2069 19.6207H62V25.8276H68.2069V19.6207Z" fill="black"/>
<path d="M80.6207 19.6207H74.4138V25.8276H80.6207V19.6207Z" fill="black"/>
<path d="M86.8276 19.6207H80.6207V25.8276H86.8276V19.6207Z" fill="black"/>
<path d="M93.0345 19.6207H86.8276V25.8276H93.0345V19.6207Z" fill="black"/>
<path d="M105.448 19.6207H99.2414V25.8276H105.448V19.6207Z" fill="black"/>
<path d="M124.069 19.6207H117.862V25.8276H124.069V19.6207Z" fill="black"/>
<path d="M155.103 19.6207H148.897V25.8276H155.103V19.6207Z" fill="black"/>
<path d="M167.517 19.6207H161.31V25.8276H167.517V19.6207Z" fill="black"/>
<path d="M173.724 19.6207H167.517V25.8276H173.724V19.6207Z" fill="black"/>
<path d="M179.931 19.6207H173.724V25.8276H179.931V19.6207Z" fill="black"/>
<path d="M186.138 19.6207H179.931V25.8276H186.138V19.6207Z" fill="black"/>
<path d="M192.345 19.6207H186.138V25.8276H192.345V19.6207Z" fill="black"/>
<path d="M204.759 19.6207H198.552V25.8276H204.759V19.6207Z" fill="black"/>
<path d="M217.172 19.6207H210.966V25.8276H217.172V19.6207Z" fill="black"/>
<path d="M223.379 19.6207H217.172V25.8276H223.379V19.6207Z" fill="black"/>
<path d="M229.586 19.6207H223.379V25.8276H229.586V19.6207Z" fill="black"/>
<path d="M242 19.6207H235.793V25.8276H242V19.6207Z" fill="black"/>
<path d="M68.2069 25.8276H62V32.0345H68.2069V25.8276Z" fill="black"/>
<path d="M80.6207 25.8276H74.4138V32.0345H80.6207V25.8276Z" fill="black"/>
<path d="M86.8276 25.8276H80.6207V32.0345H86.8276V25.8276Z" fill="black"/>
<path d="M93.0345 25.8276H86.8276V32.0345H93.0345V25.8276Z" fill="black"/>
<path d="M105.448 25.8276H99.2414V32.0345H105.448V25.8276Z" fill="black"/>
<path d="M117.862 25.8276H111.655V32.0345H117.862V25.8276Z" fill="black"/>
<path d="M142.69 25.8276H136.483V32.0345H142.69V25.8276Z" fill="black"/>
<path d="M148.897 25.8276H142.69V32.0345H148.897V25.8276Z" fill="black"/>
<path d="M155.103 25.8276H148.897V32.0345H155.103V25.8276Z" fill="black"/>
<path d="M167.517 25.8276H161.31V32.0345H167.517V25.8276Z" fill="black"/>
<path d="M186.138 25.8276H179.931V32.0345H186.138V25.8276Z" fill="black"/>
<path d="M192.345 25.8276H186.138V32.0345H192.345V25.8276Z" fill="black"/>
<path d="M204.759 25.8276H198.552V32.0345H204.759V25.8276Z" fill="black"/>
<path d="M217.172 25.8276H210.966V32.0345H217.172V25.8276Z" fill="black"/>
<path d="M223.379 25.8276H217.172V32.0345H223.379V25.8276Z" fill="black"/>
<path d="M229.586 25.8276H223.379V32.0345H229.586V25.8276Z" fill="black"/>
<path d="M242 25.8276H235.793V32.0345H242V25.8276Z" fill="black"/>
<path d="M68.2069 32.0345H62V38.2414H68.2069V32.0345Z" fill="black"/>
<path d="M105.448 32.0345H99.2414V38.2414H105.448V32.0345Z" fill="black"/>
<path d="M130.276 32.0345H124.069V38.2414H130.276V32.0345Z" fill="black"/>
<path d="M161.31 32.0345H155.103V38.2414H161.31V32.0345Z" fill="black"/>
<path d="M179.931 32.0345H173.724V38.2414H179.931V32.0345Z" fill="black"/>
<path d="M186.138 32.0345H179.931V38.2414H186.138V32.0345Z" fill="black"/>
<path d="M204.759 32.0345H198.552V38.2414H204.759V32.0345Z" fill="black"/>
<path d="M242 32.0345H235.793V38.2414H242V32.0345Z" fill="black"/>
<path d="M68.2069 38.2414H62V44.4483H68.2069V38.2414Z" fill="black"/>
<path d="M74.4138 38.2414H68.2069V44.4483H74.4138V38.2414Z" fill="black"/>
<path d="M80.6207 38.2414H74.4138V44.4483H80.6207V38.2414Z" fill="black"/>
<path d="M86.8276 38.2414H80.6207V44.4483H86.8276V38.2414Z" fill="black"/>
<path d="M93.0345 38.2414H86.8276V44.4483H93.0345V38.2414Z" fill="black"/>
<path d="M99.2414 38.2414H93.0345V44.4483H99.2414V38.2414Z" fill="black"/>
<path d="M105.448 38.2414H99.2414V44.4483H105.448V38.2414Z" fill="black"/>
<path d="M117.862 38.2414H111.655V44.4483H117.862V38.2414Z" fill="black"/>
<path d="M130.276 38.2414H124.069V44.4483H130.276V38.2414Z" fill="black"/>
<path d="M142.69 38.2414H136.483V44.4483H142.69V38.2414Z" fill="black"/>
<path d="M155.103 38.2414H148.897V44.4483H155.103V38.2414Z" fill="black"/>
<path d="M167.517 38.2414H161.31V44.4483H167.517V38.2414Z" fill="black"/>
<path d="M179.931 38.2414H173.724V44.4483H179.931V38.2414Z" fill="black"/>
<path d="M192.345 38.2414H186.138V44.4483H192.345V38.2414Z" fill="black"/>
<path d="M204.759 38.2414H198.552V44.4483H204.759V38.2414Z" fill="black"/>
<path d="M210.966 38.2414H204.759V44.4483H210.966V38.2414Z" fill="black"/>
<path d="M217.172 38.2414H210.966V44.4483H217.172V38.2414Z" fill="black"/>
<path d="M223.379 38.2414H217.172V44.4483H223.379V38.2414Z" fill="black"/>
<path d="M229.586 38.2414H223.379V44.4483H229.586V38.2414Z" fill="black"/>
<path d="M235.793 38.2414H229.586V44.4483H235.793V38.2414Z" fill="black"/>
<path d="M242 38.2414H235.793V44.4483H242V38.2414Z" fill="black"/>
<path d="M124.069 44.4483H117.862V50.6552H124.069V44.4483Z" fill="black"/>
<path d="M130.276 44.4483H124.069V50.6552H130.276V44.4483Z" fill="black"/>
<path d="M136.483 44.4483H130.276V50.6552H136.483V44.4483Z" fill="black"/>
<path d="M142.69 44.4483H136.483V50.6552H142.69V44.4483Z" fill="black"/>
<path d="M161.31 44.4483H155.103V50.6552H161.31V44.4483Z" fill="black"/>
<path d="M173.724 44.4483H167.517V50.6552H173.724V44.4483Z" fill="black"/>
<path d="M74.4138 50.6552H68.2069V56.8621H74.4138V50.6552Z" fill="black"/>
<path d="M93.0345 50.6552H86.8276V56.8621H93.0345V50.6552Z" fill="black"/>
<path d="M105.448 50.6552H99.2414V56.8621H105.448V50.6552Z" fill="black"/>
<path d="M124.069 50.6552H117.862V56.8621H124.069V50.6552Z" fill="black"/>
<path d="M136.483 50.6552H130.276V56.8621H136.483V50.6552Z" fill="black"/>
<path d="M155.103 50.6552H148.897V56.8621H155.103V50.6552Z" fill="black"/>
<path d="M161.31 50.6552H155.103V56.8621H161.31V50.6552Z" fill="black"/>
<path d="M173.724 50.6552H167.517V56.8621H173.724V50.6552Z" fill="black"/>
<path d="M186.138 50.6552H179.931V56.8621H186.138V50.6552Z" fill="black"/>
<path d="M198.552 50.6552H192.345V56.8621H198.552V50.6552Z" fill="black"/>
<path d="M217.172 50.6552H210.966V56.8621H217.172V50.6552Z" fill="black"/>
<path d="M229.586 50.6552H223.379V56.8621H229.586V50.6552Z" fill="black"/>
<path d="M242 50.6552H235.793V56.8621H242V50.6552Z" fill="black"/>
<path d="M68.2069 56.8621H62V63.069H68.2069V56.8621Z" fill="black"/>
<path d="M74.4138 56.8621H68.2069V63.069H74.4138V56.8621Z" fill="black"/>
<path d="M86.8276 56.8621H80.6207V63.069H86.8276V56.8621Z" fill="black"/>
<path d="M99.2414 56.8621H93.0345V63.069H99.2414V56.8621Z" fill="black"/>
<path d="M117.862 56.8621H111.655V63.069H117.862V56.8621Z" fill="black"/>
<path d="M136.483 56.8621H130.276V63.069H136.483V56.8621Z" fill="black"/>
<path d="M155.103 56.8621H148.897V63.069H155.103V56.8621Z" fill="black"/>
<path d="M161.31 56.8621H155.103V63.069H161.31V56.8621Z" fill="black"/>
<path d="M173.724 56.8621H167.517V63.069H173.724V56.8621Z" fill="black"/>
<path d="M192.345 56.8621H186.138V63.069H192.345V56.8621Z" fill="black"/>
<path d="M217.172 56.8621H210.966V63.069H217.172V56.8621Z" fill="black"/>
<path d="M223.379 56.8621H217.172V63.069H223.379V56.8621Z" fill="black"/>
<path d="M229.586 56.8621H223.379V63.069H229.586V56.8621Z" fill="black"/>
<path d="M68.2069 63.069H62V69.2759H68.2069V63.069Z" fill="black"/>
<path d="M86.8276 63.069H80.6207V69.2759H86.8276V63.069Z" fill="black"/>
<path d="M93.0345 63.069H86.8276V69.2759H93.0345V63.069Z" fill="black"/>
<path d="M99.2414 63.069H93.0345V69.2759H99.2414V63.069Z" fill="black"/>
<path d="M105.448 63.069H99.2414V69.2759H105.448V63.069Z" fill="black"/>
<path d="M111.655 63.069H105.448V69.2759H111.655V63.069Z" fill="black"/>
<path d="M117.862 63.069H111.655V69.2759H117.862V63.069Z" fill="black"/>
<path d="M148.897 63.069H142.69V69.2759H148.897V63.069Z" fill="black"/>
<path d="M167.517 63.069H161.31V69.2759H167.517V63.069Z" fill="black"/>
<path d="M173.724 63.069H167.517V69.2759H173.724V63.069Z" fill="black"/>
<path d="M179.931 63.069H173.724V69.2759H179.931V63.069Z" fill="black"/>
<path d="M186.138 63.069H179.931V69.2759H186.138V63.069Z" fill="black"/>
<path d="M192.345 63.069H186.138V69.2759H192.345V63.069Z" fill="black"/>
<path d="M217.172 63.069H210.966V69.2759H217.172V63.069Z" fill="black"/>
<path d="M223.379 63.069H217.172V69.2759H223.379V63.069Z" fill="black"/>
<path d="M229.586 63.069H223.379V69.2759H229.586V63.069Z" fill="black"/>
<path d="M235.793 63.069H229.586V69.2759H235.793V63.069Z" fill="black"/>
<path d="M242 63.069H235.793V69.2759H242V63.069Z" fill="black"/>
<path d="M68.2069 69.2759H62V75.4828H68.2069V69.2759Z" fill="black"/>
<path d="M80.6207 69.2759H74.4138V75.4828H80.6207V69.2759Z" fill="black"/>
<path d="M86.8276 69.2759H80.6207V75.4828H86.8276V69.2759Z" fill="black"/>
<path d="M111.655 69.2759H105.448V75.4828H111.655V69.2759Z" fill="black"/>
<path d="M117.862 69.2759H111.655V75.4828H117.862V69.2759Z" fill="black"/>
<path d="M124.069 69.2759H117.862V75.4828H124.069V69.2759Z" fill="black"/>
<path d="M142.69 69.2759H136.483V75.4828H142.69V69.2759Z" fill="black"/>
<path d="M148.897 69.2759H142.69V75.4828H148.897V69.2759Z" fill="black"/>
<path d="M155.103 69.2759H148.897V75.4828H155.103V69.2759Z" fill="black"/>
<path d="M161.31 69.2759H155.103V75.4828H161.31V69.2759Z" fill="black"/>
<path d="M167.517 69.2759H161.31V75.4828H167.517V69.2759Z" fill="black"/>
<path d="M186.138 69.2759H179.931V75.4828H186.138V69.2759Z" fill="black"/>
<path d="M192.345 69.2759H186.138V75.4828H192.345V69.2759Z" fill="black"/>
<path d="M217.172 69.2759H210.966V75.4828H217.172V69.2759Z" fill="black"/>
<path d="M223.379 69.2759H217.172V75.4828H223.379V69.2759Z" fill="black"/>
<path d="M229.586 69.2759H223.379V75.4828H229.586V69.2759Z" fill="black"/>
<path d="M68.2069 75.4828H62V81.6897H68.2069V75.4828Z" fill="black"/>
<path d="M74.4138 75.4828H68.2069V81.6897H74.4138V75.4828Z" fill="black"/>
<path d="M105.448 75.4828H99.2414V81.6897H105.448V75.4828Z" fill="black"/>
<path d="M117.862 75.4828H111.655V81.6897H117.862V75.4828Z" fill="black"/>
<path d="M148.897 75.4828H142.69V81.6897H148.897V75.4828Z" fill="black"/>
<path d="M155.103 75.4828H148.897V81.6897H155.103V75.4828Z" fill="black"/>
<path d="M179.931 75.4828H173.724V81.6897H179.931V75.4828Z" fill="black"/>
<path d="M186.138 75.4828H179.931V81.6897H186.138V75.4828Z" fill="black"/>
<path d="M192.345 75.4828H186.138V81.6897H192.345V75.4828Z" fill="black"/>
<path d="M198.552 75.4828H192.345V81.6897H198.552V75.4828Z" fill="black"/>
<path d="M204.759 75.4828H198.552V81.6897H204.759V75.4828Z" fill="black"/>
<path d="M74.4138 81.6897H68.2069V87.8966H74.4138V81.6897Z" fill="black"/>
<path d="M86.8276 81.6897H80.6207V87.8966H86.8276V81.6897Z" fill="black"/>
<path d="M93.0345 81.6897H86.8276V87.8966H93.0345V81.6897Z" fill="black"/>
<path d="M124.069 81.6897H117.862V87.8966H124.069V81.6897Z" fill="black"/>
<path d="M136.483 81.6897H130.276V87.8966H136.483V81.6897Z" fill="black"/>
<path d="M155.103 81.6897H148.897V87.8966H155.103V81.6897Z" fill="black"/>
<path d="M173.724 81.6897H167.517V87.8966H173.724V81.6897Z" fill="black"/>
<path d="M186.138 81.6897H179.931V87.8966H186.138V81.6897Z" fill="black"/>
<path d="M204.759 81.6897H198.552V87.8966H204.759V81.6897Z" fill="black"/>
<path d="M223.379 81.6897H217.172V87.8966H223.379V81.6897Z" fill="black"/>
<path d="M229.586 81.6897H223.379V87.8966H229.586V81.6897Z" fill="black"/>
<path d="M235.793 81.6897H229.586V87.8966H235.793V81.6897Z" fill="black"/>
<path d="M242 81.6897H235.793V87.8966H242V81.6897Z" fill="black"/>
<path d="M68.2069 87.8966H62V94.1034H68.2069V87.8966Z" fill="black"/>
<path d="M74.4138 87.8966H68.2069V94.1034H74.4138V87.8966Z" fill="black"/>
<path d="M93.0345 87.8966H86.8276V94.1034H93.0345V87.8966Z" fill="black"/>
<path d="M99.2414 87.8966H93.0345V94.1034H99.2414V87.8966Z" fill="black"/>
<path d="M105.448 87.8966H99.2414V94.1034H105.448V87.8966Z" fill="black"/>
<path d="M130.276 87.8966H124.069V94.1034H130.276V87.8966Z" fill="black"/>
<path d="M136.483 87.8966H130.276V94.1034H136.483V87.8966Z" fill="black"/>
<path d="M142.69 87.8966H136.483V94.1034H142.69V87.8966Z" fill="black"/>
<path d="M148.897 87.8966H142.69V94.1034H148.897V87.8966Z" fill="black"/>
<path d="M179.931 87.8966H173.724V94.1034H179.931V87.8966Z" fill="black"/>
<path d="M186.138 87.8966H179.931V94.1034H186.138V87.8966Z" fill="black"/>
<path d="M192.345 87.8966H186.138V94.1034H192.345V87.8966Z" fill="black"/>
<path d="M198.552 87.8966H192.345V94.1034H198.552V87.8966Z" fill="black"/>
<path d="M68.2069 94.1034H62V100.31H68.2069V94.1034Z" fill="black"/>
<path d="M74.4138 94.1034H68.2069V100.31H74.4138V94.1034Z" fill="black"/>
<path d="M86.8276 94.1034H80.6207V100.31H86.8276V94.1034Z" fill="black"/>
<path d="M93.0345 94.1034H86.8276V100.31H93.0345V94.1034Z" fill="black"/>
<path d="M99.2414 94.1034H93.0345V100.31H99.2414V94.1034Z" fill="black"/>
<path d="M117.862 94.1034H111.655V100.31H117.862V94.1034Z" fill="black"/>
<path d="M186.138 94.1034H179.931V100.31H186.138V94.1034Z" fill="black"/>
<path d="M210.966 94.1034H204.759V100.31H210.966V94.1034Z" fill="black"/>
<path d="M217.172 94.1034H210.966V100.31H217.172V94.1034Z" fill="black"/>
<path d="M235.793 94.1034H229.586V100.31H235.793V94.1034Z" fill="black"/>
<path d="M99.2414 100.31H93.0345V106.517H99.2414V100.31Z" fill="black"/>
<path d="M105.448 100.31H99.2414V106.517H105.448V100.31Z" fill="black"/>
<path d="M111.655 100.31H105.448V106.517H111.655V100.31Z" fill="black"/>
<path d="M117.862 100.31H111.655V106.517H117.862V100.31Z" fill="black"/>
<path d="M124.069 100.31H117.862V106.517H124.069V100.31Z" fill="black"/>
<path d="M142.69 100.31H136.483V106.517H142.69V100.31Z" fill="black"/>
<path d="M148.897 100.31H142.69V106.517H148.897V100.31Z" fill="black"/>
<path d="M155.103 100.31H148.897V106.517H155.103V100.31Z" fill="black"/>
<path d="M173.724 100.31H167.517V106.517H173.724V100.31Z" fill="black"/>
<path d="M198.552 100.31H192.345V106.517H198.552V100.31Z" fill="black"/>
<path d="M210.966 100.31H204.759V106.517H210.966V100.31Z" fill="black"/>
<path d="M217.172 100.31H210.966V106.517H217.172V100.31Z" fill="black"/>
<path d="M229.586 100.31H223.379V106.517H229.586V100.31Z" fill="black"/>
<path d="M74.4138 106.517H68.2069V112.724H74.4138V106.517Z" fill="black"/>
<path d="M93.0345 106.517H86.8276V112.724H93.0345V106.517Z" fill="black"/>
<path d="M111.655 106.517H105.448V112.724H111.655V106.517Z" fill="black"/>
<path d="M117.862 106.517H111.655V112.724H117.862V106.517Z" fill="black"/>
<path d="M124.069 106.517H117.862V112.724H124.069V106.517Z" fill="black"/>
<path d="M136.483 106.517H130.276V112.724H136.483V106.517Z" fill="black"/>
<path d="M142.69 106.517H136.483V112.724H142.69V106.517Z" fill="black"/>
<path d="M148.897 106.517H142.69V112.724H148.897V106.517Z" fill="black"/>
<path d="M161.31 106.517H155.103V112.724H161.31V106.517Z" fill="black"/>
<path d="M167.517 106.517H161.31V112.724H167.517V106.517Z" fill="black"/>
<path d="M179.931 106.517H173.724V112.724H179.931V106.517Z" fill="black"/>
<path d="M186.138 106.517H179.931V112.724H186.138V106.517Z" fill="black"/>
<path d="M192.345 106.517H186.138V112.724H192.345V106.517Z" fill="black"/>
<path d="M198.552 106.517H192.345V112.724H198.552V106.517Z" fill="black"/>
<path d="M204.759 106.517H198.552V112.724H204.759V106.517Z" fill="black"/>
<path d="M210.966 106.517H204.759V112.724H210.966V106.517Z" fill="black"/>
<path d="M217.172 106.517H210.966V112.724H217.172V106.517Z" fill="black"/>
<path d="M223.379 106.517H217.172V112.724H223.379V106.517Z" fill="black"/>
<path d="M229.586 106.517H223.379V112.724H229.586V106.517Z" fill="black"/>
<path d="M235.793 106.517H229.586V112.724H235.793V106.517Z" fill="black"/>
<path d="M242 106.517H235.793V112.724H242V106.517Z" fill="black"/>
<path d="M74.4138 112.724H68.2069V118.931H74.4138V112.724Z" fill="black"/>
<path d="M80.6207 112.724H74.4138V118.931H80.6207V112.724Z" fill="black"/>
<path d="M93.0345 112.724H86.8276V118.931H93.0345V112.724Z" fill="black"/>
<path d="M99.2414 112.724H93.0345V118.931H99.2414V112.724Z" fill="black"/>
<path d="M105.448 112.724H99.2414V118.931H105.448V112.724Z" fill="black"/>
<path d="M161.31 112.724H155.103V118.931H161.31V112.724Z" fill="black"/>
<path d="M167.517 112.724H161.31V118.931H167.517V112.724Z" fill="black"/>
<path d="M186.138 112.724H179.931V118.931H186.138V112.724Z" fill="black"/>
<path d="M210.966 112.724H204.759V118.931H210.966V112.724Z" fill="black"/>
<path d="M68.2069 118.931H62V125.138H68.2069V118.931Z" fill="black"/>
<path d="M74.4138 118.931H68.2069V125.138H74.4138V118.931Z" fill="black"/>
<path d="M80.6207 118.931H74.4138V125.138H80.6207V118.931Z" fill="black"/>
<path d="M93.0345 118.931H86.8276V125.138H93.0345V118.931Z" fill="black"/>
<path d="M99.2414 118.931H93.0345V125.138H99.2414V118.931Z" fill="black"/>
<path d="M111.655 118.931H105.448V125.138H111.655V118.931Z" fill="black"/>
<path d="M136.483 118.931H130.276V125.138H136.483V118.931Z" fill="black"/>
<path d="M161.31 118.931H155.103V125.138H161.31V118.931Z" fill="black"/>
<path d="M167.517 118.931H161.31V125.138H167.517V118.931Z" fill="black"/>
<path d="M204.759 118.931H198.552V125.138H204.759V118.931Z" fill="black"/>
<path d="M229.586 118.931H223.379V125.138H229.586V118.931Z" fill="black"/>
<path d="M235.793 118.931H229.586V125.138H235.793V118.931Z" fill="black"/>
<path d="M242 118.931H235.793V125.138H242V118.931Z" fill="black"/>
<path d="M99.2414 125.138H93.0345V131.345H99.2414V125.138Z" fill="black"/>
<path d="M105.448 125.138H99.2414V131.345H105.448V125.138Z" fill="black"/>
<path d="M111.655 125.138H105.448V131.345H111.655V125.138Z" fill="black"/>
<path d="M117.862 125.138H111.655V131.345H117.862V125.138Z" fill="black"/>
<path d="M124.069 125.138H117.862V131.345H124.069V125.138Z" fill="black"/>
<path d="M130.276 125.138H124.069V131.345H130.276V125.138Z" fill="black"/>
<path d="M136.483 125.138H130.276V131.345H136.483V125.138Z" fill="black"/>
<path d="M142.69 125.138H136.483V131.345H142.69V125.138Z" fill="black"/>
<path d="M148.897 125.138H142.69V131.345H148.897V125.138Z" fill="black"/>
<path d="M167.517 125.138H161.31V131.345H167.517V125.138Z" fill="black"/>
<path d="M173.724 125.138H167.517V131.345H173.724V125.138Z" fill="black"/>
<path d="M192.345 125.138H186.138V131.345H192.345V125.138Z" fill="black"/>
<path d="M198.552 125.138H192.345V131.345H198.552V125.138Z" fill="black"/>
<path d="M204.759 125.138H198.552V131.345H204.759V125.138Z" fill="black"/>
<path d="M210.966 125.138H204.759V131.345H210.966V125.138Z" fill="black"/>
<path d="M217.172 125.138H210.966V131.345H217.172V125.138Z" fill="black"/>
<path d="M229.586 125.138H223.379V131.345H229.586V125.138Z" fill="black"/>
<path d="M235.793 125.138H229.586V131.345H235.793V125.138Z" fill="black"/>
<path d="M242 125.138H235.793V131.345H242V125.138Z" fill="black"/>
<path d="M124.069 131.345H117.862V137.552H124.069V131.345Z" fill="black"/>
<path d="M136.483 131.345H130.276V137.552H136.483V131.345Z" fill="black"/>
<path d="M142.69 131.345H136.483V137.552H142.69V131.345Z" fill="black"/>
<path d="M155.103 131.345H148.897V137.552H155.103V131.345Z" fill="black"/>
<path d="M167.517 131.345H161.31V137.552H167.517V131.345Z" fill="black"/>
<path d="M173.724 131.345H167.517V137.552H173.724V131.345Z" fill="black"/>
<path d="M179.931 131.345H173.724V137.552H179.931V131.345Z" fill="black"/>
<path d="M186.138 131.345H179.931V137.552H186.138V131.345Z" fill="black"/>
<path d="M192.345 131.345H186.138V137.552H192.345V131.345Z" fill="black"/>
<path d="M217.172 131.345H210.966V137.552H217.172V131.345Z" fill="black"/>
<path d="M68.2069 137.552H62V143.759H68.2069V137.552Z" fill="black"/>
<path d="M74.4138 137.552H68.2069V143.759H74.4138V137.552Z" fill="black"/>
<path d="M80.6207 137.552H74.4138V143.759H80.6207V137.552Z" fill="black"/>
<path d="M86.8276 137.552H80.6207V143.759H86.8276V137.552Z" fill="black"/>
<path d="M93.0345 137.552H86.8276V143.759H93.0345V137.552Z" fill="black"/>
<path d="M99.2414 137.552H93.0345V143.759H99.2414V137.552Z" fill="black"/>
<path d="M105.448 137.552H99.2414V143.759H105.448V137.552Z" fill="black"/>
<path d="M124.069 137.552H117.862V143.759H124.069V137.552Z" fill="black"/>
<path d="M130.276 137.552H124.069V143.759H130.276V137.552Z" fill="black"/>
<path d="M136.483 137.552H130.276V143.759H136.483V137.552Z" fill="black"/>
<path d="M142.69 137.552H136.483V143.759H142.69V137.552Z" fill="black"/>
<path d="M148.897 137.552H142.69V143.759H148.897V137.552Z" fill="black"/>
<path d="M155.103 137.552H148.897V143.759H155.103V137.552Z" fill="black"/>
<path d="M167.517 137.552H161.31V143.759H167.517V137.552Z" fill="black"/>
<path d="M173.724 137.552H167.517V143.759H173.724V137.552Z" fill="black"/>
<path d="M186.138 137.552H179.931V143.759H186.138V137.552Z" fill="black"/>
<path d="M192.345 137.552H186.138V143.759H192.345V137.552Z" fill="black"/>
<path d="M204.759 137.552H198.552V143.759H204.759V137.552Z" fill="black"/>
<path d="M217.172 137.552H210.966V143.759H217.172V137.552Z" fill="black"/>
<path d="M242 137.552H235.793V143.759H242V137.552Z" fill="black"/>
<path d="M68.2069 143.759H62V149.966H68.2069V143.759Z" fill="black"/>
<path d="M105.448 143.759H99.2414V149.966H105.448V143.759Z" fill="black"/>
<path d="M148.897 143.759H142.69V149.966H148.897V143.759Z" fill="black"/>
<path d="M155.103 143.759H148.897V149.966H155.103V143.759Z" fill="black"/>
<path d="M167.517 143.759H161.31V149.966H167.517V143.759Z" fill="black"/>
<path d="M179.931 143.759H173.724V149.966H179.931V143.759Z" fill="black"/>
<path d="M192.345 143.759H186.138V149.966H192.345V143.759Z" fill="black"/>
<path d="M217.172 143.759H210.966V149.966H217.172V143.759Z" fill="black"/>
<path d="M229.586 143.759H223.379V149.966H229.586V143.759Z" fill="black"/>
<path d="M242 143.759H235.793V149.966H242V143.759Z" fill="black"/>
<path d="M68.2069 149.966H62V156.172H68.2069V149.966Z" fill="black"/>
<path d="M80.6207 149.966H74.4138V156.172H80.6207V149.966Z" fill="black"/>
<path d="M86.8276 149.966H80.6207V156.172H86.8276V149.966Z" fill="black"/>
<path d="M93.0345 149.966H86.8276V156.172H93.0345V149.966Z" fill="black"/>
<path d="M105.448 149.966H99.2414V156.172H105.448V149.966Z" fill="black"/>
<path d="M117.862 149.966H111.655V156.172H117.862V149.966Z" fill="black"/>
<path d="M136.483 149.966H130.276V156.172H136.483V149.966Z" fill="black"/>
<path d="M192.345 149.966H186.138V156.172H192.345V149.966Z" fill="black"/>
<path d="M198.552 149.966H192.345V156.172H198.552V149.966Z" fill="black"/>
<path d="M204.759 149.966H198.552V156.172H204.759V149.966Z" fill="black"/>
<path d="M210.966 149.966H204.759V156.172H210.966V149.966Z" fill="black"/>
<path d="M217.172 149.966H210.966V156.172H217.172V149.966Z" fill="black"/>
<path d="M223.379 149.966H217.172V156.172H223.379V149.966Z" fill="black"/>
<path d="M229.586 149.966H223.379V156.172H229.586V149.966Z" fill="black"/>
<path d="M235.793 149.966H229.586V156.172H235.793V149.966Z" fill="black"/>
<path d="M242 149.966H235.793V156.172H242V149.966Z" fill="black"/>
<path d="M68.2069 156.172H62V162.379H68.2069V156.172Z" fill="black"/>
<path d="M80.6207 156.172H74.4138V162.379H80.6207V156.172Z" fill="black"/>
<path d="M86.8276 156.172H80.6207V162.379H86.8276V156.172Z" fill="black"/>
<path d="M93.0345 156.172H86.8276V162.379H93.0345V156.172Z" fill="black"/>
<path d="M105.448 156.172H99.2414V162.379H105.448V156.172Z" fill="black"/>
<path d="M124.069 156.172H117.862V162.379H124.069V156.172Z" fill="black"/>
<path d="M142.69 156.172H136.483V162.379H142.69V156.172Z" fill="black"/>
<path d="M148.897 156.172H142.69V162.379H148.897V156.172Z" fill="black"/>
<path d="M155.103 156.172H148.897V162.379H155.103V156.172Z" fill="black"/>
<path d="M161.31 156.172H155.103V162.379H161.31V156.172Z" fill="black"/>
<path d="M167.517 156.172H161.31V162.379H167.517V156.172Z" fill="black"/>
<path d="M173.724 156.172H167.517V162.379H173.724V156.172Z" fill="black"/>
<path d="M186.138 156.172H179.931V162.379H186.138V156.172Z" fill="black"/>
<path d="M204.759 156.172H198.552V162.379H204.759V156.172Z" fill="black"/>
<path d="M210.966 156.172H204.759V162.379H210.966V156.172Z" fill="black"/>
<path d="M229.586 156.172H223.379V162.379H229.586V156.172Z" fill="black"/>
<path d="M242 156.172H235.793V162.379H242V156.172Z" fill="black"/>
<path d="M68.2069 162.379H62V168.586H68.2069V162.379Z" fill="black"/>
<path d="M80.6207 162.379H74.4138V168.586H80.6207V162.379Z" fill="black"/>
<path d="M86.8276 162.379H80.6207V168.586H86.8276V162.379Z" fill="black"/>
<path d="M93.0345 162.379H86.8276V168.586H93.0345V162.379Z" fill="black"/>
<path d="M105.448 162.379H99.2414V168.586H105.448V162.379Z" fill="black"/>
<path d="M130.276 162.379H124.069V168.586H130.276V162.379Z" fill="black"/>
<path d="M173.724 162.379H167.517V168.586H173.724V162.379Z" fill="black"/>
<path d="M198.552 162.379H192.345V168.586H198.552V162.379Z" fill="black"/>
<path d="M223.379 162.379H217.172V168.586H223.379V162.379Z" fill="black"/>
<path d="M68.2069 168.586H62V174.793H68.2069V168.586Z" fill="black"/>
<path d="M105.448 168.586H99.2414V174.793H105.448V168.586Z" fill="black"/>
<path d="M117.862 168.586H111.655V174.793H117.862V168.586Z" fill="black"/>
<path d="M130.276 168.586H124.069V174.793H130.276V168.586Z" fill="black"/>
<path d="M136.483 168.586H130.276V174.793H136.483V168.586Z" fill="black"/>
<path d="M142.69 168.586H136.483V174.793H142.69V168.586Z" fill="black"/>
<path d="M155.103 168.586H148.897V174.793H155.103V168.586Z" fill="black"/>
<path d="M161.31 168.586H155.103V174.793H161.31V168.586Z" fill="black"/>
<path d="M167.517 168.586H161.31V174.793H167.517V168.586Z" fill="black"/>
<path d="M179.931 168.586H173.724V174.793H179.931V168.586Z" fill="black"/>
<path d="M186.138 168.586H179.931V174.793H186.138V168.586Z" fill="black"/>
<path d="M198.552 168.586H192.345V174.793H198.552V168.586Z" fill="black"/>
<path d="M204.759 168.586H198.552V174.793H204.759V168.586Z" fill="black"/>
<path d="M217.172 168.586H210.966V174.793H217.172V168.586Z" fill="black"/>
<path d="M223.379 168.586H217.172V174.793H223.379V168.586Z" fill="black"/>
<path d="M235.793 168.586H229.586V174.793H235.793V168.586Z" fill="black"/>
<path d="M242 168.586H235.793V174.793H242V168.586Z" fill="black"/>
<path d="M68.2069 174.793H62V181H68.2069V174.793Z" fill="black"/>
<path d="M74.4138 174.793H68.2069V181H74.4138V174.793Z" fill="black"/>
<path d="M80.6207 174.793H74.4138V181H80.6207V174.793Z" fill="black"/>
<path d="M86.8276 174.793H80.6207V181H86.8276V174.793Z" fill="black"/>
<path d="M93.0345 174.793H86.8276V181H93.0345V174.793Z" fill="black"/>
<path d="M99.2414 174.793H93.0345V181H99.2414V174.793Z" fill="black"/>
<path d="M105.448 174.793H99.2414V181H105.448V174.793Z" fill="black"/>
<path d="M124.069 174.793H117.862V181H124.069V174.793Z" fill="black"/>
<path d="M130.276 174.793H124.069V181H130.276V174.793Z" fill="black"/>
<path d="M142.69 174.793H136.483V181H142.69V174.793Z" fill="black"/>
<path d="M148.897 174.793H142.69V181H148.897V174.793Z" fill="black"/>
<path d="M155.103 174.793H148.897V181H155.103V174.793Z" fill="black"/>
<path d="M167.517 174.793H161.31V181H167.517V174.793Z" fill="black"/>
<path d="M173.724 174.793H167.517V181H173.724V174.793Z" fill="black"/>
<path d="M179.931 174.793H173.724V181H179.931V174.793Z" fill="black"/>
<path d="M198.552 174.793H192.345V181H198.552V174.793Z" fill="black"/>
<path d="M204.759 174.793H198.552V181H204.759V174.793Z" fill="black"/>
<path d="M217.172 174.793H210.966V181H217.172V174.793Z" fill="black"/>
<path d="M223.379 174.793H217.172V181H223.379V174.793Z" fill="black"/>
<path d="M229.586 174.793H223.379V181H229.586V174.793Z" fill="black"/>
<path d="M242 174.793H235.793V181H242V174.793Z" fill="black"/>
</svg>
