<svg width="78" height="78" fill="none" xmlns="http://www.w3.org/2000/svg"><path d="M78 0H0v78h78V0Z" fill="#fff"/><path d="M9.977 20.763V10.046h3.84c3.056 0 5.293 1.98 5.293 5.366 0 3.386-2.252 5.351-5.306 5.351H9.977Zm3.751-1.935c1.754 0 3.22-1.088 3.22-3.416s-1.451-3.431-3.207-3.431h-1.67v6.847h1.657ZM21.768 9.638a1.24 1.24 0 1 1 .018 2.479 1.24 1.24 0 0 1-.018-2.48Zm-.998 11.125v-7.437h2.01v7.437h-2.01ZM26.222 20.688a1.665 1.665 0 0 0 1.738 1.406c1.27 0 1.98-.635 1.98-2.071v-.544c-.302.483-.997.952-2.07.952-1.98 0-3.462-1.512-3.462-3.613 0-1.965 1.42-3.628 3.461-3.628 1.18 0 1.86.514 2.117 1.013v-.877h1.934v6.627c0 2.041-1.103 3.9-3.9 3.9-2.04 0-3.4-1.27-3.627-2.69l1.829-.475Zm3.748-3.87c0-1.149-.786-1.874-1.753-1.874-.967 0-1.784.725-1.784 1.874 0 1.15.741 1.89 1.784 1.89 1.043 0 1.754-.74 1.754-1.89ZM34.958 9.638a1.24 1.24 0 1 1 0 2.478 1.24 1.24 0 0 1 0-2.478Zm-.997 11.125v-7.437h2.016v7.437h-2.016ZM40.596 13.327h1.497v1.79h-1.497v3.113c0 .65.302.862.877.862.203 0 .406-.02.604-.06v1.662a2.983 2.983 0 0 1-1.133.182c-1.451 0-2.358-.862-2.358-2.298v-3.462H37.24v-1.783h.378c.786 0 1.149-.514 1.149-1.18v-1.049h1.814l.015 2.223ZM45.614 16.486l1.83-.272c.423-.06.559-.272.559-.53 0-.529-.408-.967-1.255-.967a1.32 1.32 0 0 0-1.42 1.21l-1.794-.379c.121-1.164 1.195-2.448 3.19-2.448 2.358 0 3.235 1.33 3.235 2.826v3.658c.002.395.032.79.09 1.18h-1.844a5.032 5.032 0 0 1-.075-.907 2.485 2.485 0 0 1-2.177 1.118c-1.587 0-2.555-1.073-2.555-2.237-.006-1.33.977-2.07 2.216-2.252Zm2.389 1.27v-.333l-1.678.257c-.514.075-.907.363-.907.937a.874.874 0 0 0 .967.862c.832 0 1.618-.409 1.618-1.724ZM52 20.764V9.819h2.01v10.944H52ZM15.325 27.99c-.109-.605-.605-1.512-1.953-1.512-1.013 0-1.678.65-1.678 1.36 0 .605.378 1.059 1.164 1.21l1.496.302c1.953.378 2.996 1.648 2.996 3.16 0 1.647-1.375 3.325-3.872 3.325-2.842 0-4.097-1.83-4.263-3.356l1.935-.514c.09 1.058.831 2.01 2.343 2.01 1.118 0 1.741-.559 1.741-1.314 0-.62-.472-1.104-1.303-1.27l-1.496-.302c-1.709-.348-2.812-1.452-2.812-3.07 0-1.904 1.708-3.355 3.734-3.355 2.603 0 3.6 1.572 3.842 2.781l-1.874.545ZM25.571 33.446c-.378 1.285-1.557 2.358-3.386 2.358-2.04 0-3.84-1.466-3.84-3.975 0-2.374 1.754-3.93 3.659-3.93 2.297 0 3.676 1.466 3.676 3.854 0 .302-.033.605-.033.605h-5.321A1.814 1.814 0 0 0 22.2 34.05a1.644 1.644 0 0 0 1.684-1.098l1.687.493Zm-1.874-2.418c-.027-.741-.514-1.467-1.663-1.467a1.609 1.609 0 0 0-1.663 1.466h3.326ZM31.799 30.136c-.2-.04-.402-.06-.605-.06-1.028 0-1.92.498-1.92 2.116v3.4h-2.01v-7.451h1.95v1.103c.453-.982 1.481-1.164 2.116-1.164.157.002.313.012.469.03v2.026ZM37.573 35.578h-2.01l-3.024-7.437h2.207l1.844 4.988 1.769-4.988h2.116l-2.902 7.437ZM42.683 24.452a1.24 1.24 0 1 1 0 2.48 1.24 1.24 0 0 1 0-2.48Zm-.998 11.126V28.14h2.01v7.438h-2.01ZM47.293 31.86c0 1.345.877 2.116 1.905 2.116a1.702 1.702 0 0 0 1.708-1.255l1.768.59c-.332 1.24-1.496 2.509-3.476 2.509a3.849 3.849 0 0 1-3.916-3.945c0-2.298 1.694-3.93 3.855-3.93 2.026 0 3.175 1.254 3.492 2.509l-1.814.604a1.62 1.62 0 0 0-1.648-1.254c-1.012-.03-1.874.71-1.874 2.056ZM60.747 33.446c-.378 1.285-1.557 2.358-3.386 2.358-2.04 0-3.84-1.466-3.84-3.975 0-2.374 1.754-3.93 3.659-3.93 2.297 0 3.673 1.466 3.673 3.854 0 .302-.03.605-.03.605h-5.321a1.814 1.814 0 0 0 1.874 1.693 1.642 1.642 0 0 0 1.693-1.134l1.678.53Zm-1.874-2.418c-.03-.741-.514-1.467-1.663-1.467a1.609 1.609 0 0 0-1.663 1.466h3.326Z" fill="#000"/></svg>