<svg width="354" height="465" fill="none" xmlns="http://www.w3.org/2000/svg">
    <path d="M238.216.094h65.355c52.669 0 81.792 8.074 132.146 20.264 61.808 14.963 126.445 24.43 167.841 71.36 24.305 27.557 46.836 60.114 49.267 95.629 2.12 30.977-15.235 56.486-41.726 76.177-54.269 40.336-129.555 59.89-197.646 73.8-79.053 16.15-163.234 17.903-243.321 5.754-53.862-8.17-114.507-27.123-149.096-66.17C.643 253.887-2.637 228.346 1.645 200.231c5.083-33.379 23.289-62.797 44.24-90.562 23.442-31.065 49.034-62.515 83.956-84.558 16.542-10.441 34.497-19.529 54.798-22.89C202.155-.68 220.483.093 238.216.093Z"
          fill="#ECF1F4"/>
    <g clip-path="url(#a)">
        <path d="M49.426 365.317 49 366.41l236.7 92.125.426-1.093-236.7-92.125Z" fill="#4E596A"/>
        <path d="M218.561 61.18 86.992 95.818a3.647 3.647 0 0 0-1.421.776c-.458.4-.848.87-1.156 1.393a7.623 7.623 0 0 0-1.061 3.857v194.922c0 .681.096 1.358.285 2.012.174.609.435 1.189.776 1.723.307.486.698.912 1.156 1.26a3.18 3.18 0 0 0 1.421.61l131.569 19.347a5.04 5.04 0 0 0 2.279-.175 4.843 4.843 0 0 0 1.872-1.115 5.436 5.436 0 0 0 1.269-1.881 6.502 6.502 0 0 0 .468-2.461V66.129a6.101 6.101 0 0 0-.468-2.408 4.624 4.624 0 0 0-1.269-1.732 4.203 4.203 0 0 0-1.872-.898 5.01 5.01 0 0 0-2.279.089Z"
              fill="#F2F2F2"/>
        <path d="M90.236 101.288a2.601 2.601 0 0 0-1.003.557c-.32.282-.594.614-.81.982a5.294 5.294 0 0 0-.725 2.721v187.011c-.005.478.057.955.186 1.416.119.43.3.84.538 1.217.214.343.489.645.81.891.293.226.637.377 1.002.439l123.241 16.582a3.427 3.427 0 0 0 1.556-.17 3.39 3.39 0 0 0 1.268-.812c.371-.379.659-.831.846-1.327a4.592 4.592 0 0 0 .296-1.712V73.94a4.335 4.335 0 0 0-.296-1.677 3.277 3.277 0 0 0-.846-1.229 2.92 2.92 0 0 0-1.268-.665 3.367 3.367 0 0 0-1.556.011l-123.24 30.908Z"
              fill="#fff"/>
        <path d="M95.448 108.764a1.574 1.574 0 0 0-.678.372 2.746 2.746 0 0 0-.552.707c-.165.297-.29.614-.373.944a4.344 4.344 0 0 0-.14 1.079v26.047a3.73 3.73 0 0 0 .138 1.022c.077.283.203.551.372.792.142.204.332.37.554.483.21.103.448.136.679.095L205.6 121.361a2.47 2.47 0 0 0 1.005-.432c.322-.234.601-.521.825-.849a4.368 4.368 0 0 0 .763-2.465V85.722a3.612 3.612 0 0 0-.205-1.236 2.57 2.57 0 0 0-.558-.92 1.873 1.873 0 0 0-1.83-.538L95.448 108.764Z"
              fill="#F2F2F2"/>
        <path d="m105.1 110.272 86.82-19.657v6.642l-86.82 18.711v-5.696ZM105.251 122.243l86.875-17.671v3.086l-86.875 17.23v-2.645ZM105.251 126.922l86.875-16.891v3.086l-86.875 16.451v-2.646ZM105.251 131.602l86.875-16.112v3.086l-86.875 15.671v-2.645ZM153.42 212.235l44.056-1.246c.153-.004.305-.035.448-.089a1.51 1.51 0 0 0 .402-.229c.126-.101.238-.218.33-.35a1.988 1.988 0 0 0 .32-1.465 1.84 1.84 0 0 0-.149-.474 1.647 1.647 0 0 0-.27-.407l-29.043-32.155a1.226 1.226 0 0 0-.46-.325 1.12 1.12 0 0 0-.522-.074 1.264 1.264 0 0 0-.521.168 1.575 1.575 0 0 0-.458.406l-6.757 8.72a3.184 3.184 0 0 1-.935.825c-.325.187-.687.3-1.06.33a2.276 2.276 0 0 1-1.057-.172 2.53 2.53 0 0 1-.926-.682l-19.914-22.852a1.057 1.057 0 0 0-.41-.295.956.956 0 0 0-.465-.059 1.11 1.11 0 0 0-.465.171c-.16.104-.298.237-.408.393l-34.986 48.659c-.079.11-.143.23-.19.356a1.99 1.99 0 0 0-.12.831c.008.142.034.282.076.418.039.13.094.253.165.368.063.104.142.198.232.279a.96.96 0 0 0 .285.175c.101.04.209.058.318.055l52.536-1.506-.052.226ZM108.602 158.829a3.149 3.149 0 0 1 1.674.232 3.738 3.738 0 0 1 1.38 1.053c.414.509.729 1.091.93 1.716a7 7 0 0 1 .342 2.207 7.795 7.795 0 0 1-.342 2.29 7.078 7.078 0 0 1-.93 1.942 5.353 5.353 0 0 1-1.377 1.39 3.731 3.731 0 0 1-1.674.637 3.15 3.15 0 0 1-1.666-.265 3.757 3.757 0 0 1-1.352-1.071 5.308 5.308 0 0 1-.911-1.705 7.039 7.039 0 0 1-.332-2.175c0-.764.112-1.524.332-2.256.204-.684.51-1.333.908-1.926a5.39 5.39 0 0 1 1.353-1.399 3.77 3.77 0 0 1 1.665-.67ZM153.42 294.468l44.054 5.112a1.298 1.298 0 0 0 .85-.196c.126-.082.237-.184.33-.302.098-.127.177-.268.233-.418a1.84 1.84 0 0 0 .11-.491 2.1 2.1 0 0 0-.172-1.007 2.059 2.059 0 0 0-.271-.447l-29.04-36.343a1.513 1.513 0 0 0-.46-.39 1.247 1.247 0 0 0-.523-.15 1.165 1.165 0 0 0-.521.093 1.31 1.31 0 0 0-.458.339l-6.756 7.744a2.582 2.582 0 0 1-.935.69 2.297 2.297 0 0 1-1.061.178 2.52 2.52 0 0 1-1.056-.325 3.12 3.12 0 0 1-.926-.816l-19.914-25.727a1.295 1.295 0 0 0-.41-.355 1.04 1.04 0 0 0-.466-.126 1.014 1.014 0 0 0-.465.104c-.159.08-.3.194-.41.334l-34.983 43.614c-.079.1-.144.21-.191.328-.05.126-.086.257-.105.39a1.962 1.962 0 0 0 .061.855c.04.137.095.268.165.392.064.114.142.219.233.313.083.086.179.159.284.216a.897.897 0 0 0 .318.101l52.537 6.074-.052.216ZM108.602 234.594c.59.011 1.166.173 1.674.472.54.32 1.009.747 1.377 1.254.411.561.725 1.187.93 1.851.229.73.345 1.491.343 2.256a7.316 7.316 0 0 1-.343 2.241 5.946 5.946 0 0 1-.93 1.808c-.369.49-.838.896-1.377 1.19a3.31 3.31 0 0 1-1.674.395 3.442 3.442 0 0 1-1.665-.505 4.655 4.655 0 0 1-1.353-1.266 6.339 6.339 0 0 1-.908-1.837 7.475 7.475 0 0 1-.332-2.223 7.37 7.37 0 0 1 .332-2.207 5.98 5.98 0 0 1 .908-1.795 4.352 4.352 0 0 1 1.353-1.205 3.336 3.336 0 0 1 1.665-.429Z"
              fill="#fff"/>
        <path d="M126.519 134.116a2.79 2.79 0 0 0-1.146.498 3.905 3.905 0 0 0-.93.976 5.144 5.144 0 0 0-.86 2.827V349.03a5.338 5.338 0 0 0 .858 2.875c.252.391.566.738.93 1.028a2.98 2.98 0 0 0 1.146.565l156.249 36.016c.625.15 1.276.168 1.909.052a3.719 3.719 0 0 0 1.567-.697 3.582 3.582 0 0 0 1.061-1.327 4.305 4.305 0 0 0 .392-1.835V111.085a4.457 4.457 0 0 0-.392-1.858 3.9 3.9 0 0 0-2.628-2.174 4.602 4.602 0 0 0-1.909-.056l-156.247 27.119Z"
              fill="#E6E6E6"/>
        <path d="M130.126 139.459c-.423.083-.821.26-1.166.518a3.97 3.97 0 0 0-.942.997 4.972 4.972 0 0 0-.626 1.336 5.179 5.179 0 0 0-.217 1.535v201.658a5.352 5.352 0 0 0 .843 2.921c.254.4.572.756.942 1.054.342.277.74.478 1.166.588l146.212 32.562a4.46 4.46 0 0 0 1.883 0 3.615 3.615 0 0 0 2.558-2.097 4.412 4.412 0 0 0 .358-1.848V119.91a4.543 4.543 0 0 0-.358-1.869 3.929 3.929 0 0 0-2.558-2.251 4.5 4.5 0 0 0-1.883-.112l-146.212 23.781Z"
              fill="#fff"/>
        <path d="M148.793 166.923a1.3 1.3 0 0 0-.552.2 1.69 1.69 0 0 0-.45.426 2.07 2.07 0 0 0-.304.593c-.074.225-.112.46-.112.696v8.074c-.001.229.037.457.112.674.067.195.17.375.303.531.123.145.277.26.45.338.174.076.364.107.553.09l98.482-8.677a1.99 1.99 0 0 0 .764-.232c.237-.128.448-.297.625-.5.18-.206.323-.442.422-.697.102-.261.155-.538.157-.819v-9.535a2.037 2.037 0 0 0-.156-.789 1.807 1.807 0 0 0-.422-.615 1.695 1.695 0 0 0-.625-.377 1.771 1.771 0 0 0-.765-.082l-98.482 10.701Z"
              fill="#004B76"/>
        <path d="M148.261 193.744a.32.32 0 0 0-.14.044.386.386 0 0 0-.112.101.536.536 0 0 0-.104.317v3.155c0 .058.009.115.028.169.017.05.042.096.076.136.03.037.069.067.112.088.044.021.092.03.14.028l100.243-5.427a.477.477 0 0 0 .192-.051.558.558 0 0 0 .3-.495v-3.719a.503.503 0 0 0-.144-.358.458.458 0 0 0-.348-.131l-100.243 6.143ZM148.261 204.005a.303.303 0 0 0-.14.041.394.394 0 0 0-.112.099.526.526 0 0 0-.104.316v3.155c0 .058.009.115.028.17a.428.428 0 0 0 .076.139c.03.038.069.069.112.09a.286.286 0 0 0 .14.03l100.243-3.607a.488.488 0 0 0 .348-.163.552.552 0 0 0 .144-.372v-3.721a.552.552 0 0 0-.038-.201.469.469 0 0 0-.454-.297l-100.243 4.321ZM148.261 214.266a.325.325 0 0 0-.251.136.47.47 0 0 0-.076.141.563.563 0 0 0-.028.172v3.155c0 .058.01.116.028.171.017.05.043.097.076.139.031.038.069.07.113.093a.293.293 0 0 0 .139.032l100.242-1.784a.5.5 0 0 0 .348-.16.551.551 0 0 0 .144-.37v-3.718a.532.532 0 0 0-.038-.201.528.528 0 0 0-.262-.272.484.484 0 0 0-.192-.034l-100.243 2.5ZM148.084 234.76a.307.307 0 0 0-.14.033.36.36 0 0 0-.112.093.462.462 0 0 0-.075.14.54.54 0 0 0-.028.17v3.154c0 .058.01.116.028.172.017.05.043.097.076.139a.39.39 0 0 0 .113.097c.042.023.09.036.139.037l100.175 1.854a.462.462 0 0 0 .347-.145.509.509 0 0 0 .145-.365v-3.717a.538.538 0 0 0-.145-.369.497.497 0 0 0-.347-.156l-100.176-1.137ZM148.084 245.018a.293.293 0 0 0-.14.031.42.42 0 0 0-.188.232.525.525 0 0 0-.027.166v3.154c0 .059.01.117.028.172a.48.48 0 0 0 .076.143c.031.04.069.073.113.099.042.024.09.038.139.04l100.175 3.674a.462.462 0 0 0 .347-.139.524.524 0 0 0 .145-.362v-3.718a.54.54 0 0 0-.301-.487.488.488 0 0 0-.191-.047l-100.176-2.958ZM148.084 255.275a.284.284 0 0 0-.138.03.336.336 0 0 0-.113.088.433.433 0 0 0-.076.136.54.54 0 0 0-.028.169v3.154c0 .059.01.117.028.173.017.052.043.1.076.144.031.04.069.074.113.1a.31.31 0 0 0 .139.043l100.175 5.494a.447.447 0 0 0 .347-.133.462.462 0 0 0 .106-.159.524.524 0 0 0 .039-.2v-3.718a.556.556 0 0 0-.301-.49.483.483 0 0 0-.191-.05l-100.176-4.781ZM148.084 265.584a.282.282 0 0 0-.14.025.328.328 0 0 0-.111.088.423.423 0 0 0-.076.134.518.518 0 0 0-.028.17v3.154c0 .059.01.117.028.173a.503.503 0 0 0 .076.145.411.411 0 0 0 .113.103c.042.026.09.042.139.046l100.173 7.323a.444.444 0 0 0 .348-.127.476.476 0 0 0 .105-.157.523.523 0 0 0 .039-.199v-3.719a.585.585 0 0 0-.144-.376.563.563 0 0 0-.157-.122.487.487 0 0 0-.191-.053l-100.174-6.608ZM148.084 275.841a.292.292 0 0 0-.14.023.326.326 0 0 0-.111.087.414.414 0 0 0-.076.132.506.506 0 0 0-.028.168v3.154c0 .059.01.118.028.174a.514.514 0 0 0 .076.147.415.415 0 0 0 .113.104c.042.026.09.042.139.047l100.173 9.145a.44.44 0 0 0 .453-.275.523.523 0 0 0 .039-.199v-3.718a.59.59 0 0 0-.301-.504.492.492 0 0 0-.191-.057l-100.174-8.428ZM148.084 286.099a.268.268 0 0 0-.14.02.303.303 0 0 0-.111.083.425.425 0 0 0-.076.132.508.508 0 0 0-.028.169v3.154c0 .059.01.117.028.174a.52.52 0 0 0 .076.148.443.443 0 0 0 .113.107.314.314 0 0 0 .139.049L248.258 301.1a.44.44 0 0 0 .348-.113.46.46 0 0 0 .105-.153.518.518 0 0 0 .039-.198v-3.72a.6.6 0 0 0-.301-.508.498.498 0 0 0-.191-.061l-100.174-10.248ZM148.084 296.408a.278.278 0 0 0-.14.018.307.307 0 0 0-.111.078.4.4 0 0 0-.076.133.506.506 0 0 0-.028.168v3.154a.57.57 0 0 0 .104.324.447.447 0 0 0 .113.108.327.327 0 0 0 .139.053l100.173 12.794a.417.417 0 0 0 .348-.109.442.442 0 0 0 .105-.151.516.516 0 0 0 .039-.197v-3.717a.597.597 0 0 0-.301-.515.54.54 0 0 0-.191-.064l-100.174-12.077ZM148.084 306.665a.278.278 0 0 0-.251.094.392.392 0 0 0-.076.129.506.506 0 0 0-.028.168v3.153a.584.584 0 0 0 .104.327c.031.043.069.08.113.11a.33.33 0 0 0 .139.055l100.173 14.615a.414.414 0 0 0 .453-.251.508.508 0 0 0 .039-.196v-3.719a.585.585 0 0 0-.039-.207.607.607 0 0 0-.262-.312.496.496 0 0 0-.191-.067l-100.174-13.899ZM148.084 316.923a.267.267 0 0 0-.14.013.283.283 0 0 0-.111.076.378.378 0 0 0-.076.128.496.496 0 0 0-.028.167v3.153a.579.579 0 0 0 .104.329.466.466 0 0 0 .113.113.347.347 0 0 0 .139.057l100.173 16.435a.41.41 0 0 0 .453-.243.503.503 0 0 0 .039-.195v-3.719a.59.59 0 0 0-.039-.208.639.639 0 0 0-.262-.318.538.538 0 0 0-.191-.071l-100.174-15.717Z"
              fill="#CCC"/>
        <path d="m191.356 367.139-2.064-28.562 3.707-26.766-10.527-.71-2.078 29.566 5.873 27.804a4.132 4.132 0 0 0 1.908 6.299 4.145 4.145 0 0 0 4.612-1.207 4.136 4.136 0 0 0 .418-4.743 4.141 4.141 0 0 0-1.849-1.681Z"
              fill="#9F616A"/>
        <path d="m181.129 314.948 2.472-10.684a8.223 8.223 0 0 1 3.463-4.997 8.243 8.243 0 0 1 11.147 1.906 8.216 8.216 0 0 1 1.6 5.863l-1.361 12.073-17.321-4.161Z"
              fill="#B8BDC3"/>
        <path d="m200.618 460.196 4.963-.001 2.36-19.117-7.324.001.001 19.117Z" fill="#9F616A"/>
        <path d="M199.352 458.577h9.774c1.651 0 3.236.655 4.404 1.822a6.216 6.216 0 0 1 1.824 4.398v.202l-16.002.001v-6.423Z"
              fill="#2F2E41"/>
        <path d="m225.342 460.033 4.771-1.365-3.001-19.027-7.042 2.014 5.272 18.378Z" fill="#9F616A"/>
        <path d="m223.679 458.826 9.396-2.688a6.237 6.237 0 0 1 4.736.54 6.221 6.221 0 0 1 2.967 3.727l.055.194L225.45 465l-1.771-6.174ZM197.935 453.257l2.309-57.911-5.996-26.207c-8.068-13.509.636-35.058.725-35.274l.033-.079.084-.011 21.105-2.856.297.68a100.817 100.817 0 0 1 6.565 59.949l-2.196 11.22 10.856 43.775-10.275 5.13-7.883-20.415-5.328 20.887-10.296 1.112Z"
              fill="#2F2E41"/>
        <path d="m192.194 339.236-6.885-20.147c-4.281-7.528-1.566-14.211 1.466-18.492 3.273-4.623 3.47-7.215 3.513-7.244l.035-.023 9.046-.274 8.372 8.496c.527-.205 4.975 10.743 4.598 11.293l5.847 18.877-25.992 7.514Z"
              fill="#B8BDC3"/>
        <path d="M247.943 342.721 225.262 325.2l-17.49-20.615-7.553 7.357 20.666 21.272 24.656 14.181a4.137 4.137 0 0 0 3.51 3.223 4.146 4.146 0 0 0 4.222-2.213 4.13 4.13 0 0 0-.662-4.715 4.147 4.147 0 0 0-4.668-.969Z"
              fill="#9F616A"/>
        <path d="m198.072 319.397-6.32-8.968a8.22 8.22 0 0 1 1.616-11.178 8.247 8.247 0 0 1 11.268.969l8.096 9.067-14.66 10.11Z"
              fill="#B8BDC3"/>
        <path d="M193.782 290.586c5.933 0 10.742-4.803 10.742-10.728s-4.809-10.728-10.742-10.728c-5.933 0-10.742 4.803-10.742 10.728s4.809 10.728 10.742 10.728Z"
              fill="#9F616A"/>
        <path d="M204.705 274.416h-17.058v-7.426c3.744-1.485 7.408-2.749 9.622 0 1.972 0 3.864.782 5.258 2.175a7.421 7.421 0 0 1 2.178 5.251Z"
              fill="#2F2E41"/>
        <path d="M189.999 265.21c-15.629-.427-12.669 25.286-12.669 25.286s2.948.39 4.294.618l1.624-.913 1.749 1.145c.803.004 1.646-.012 2.52-.028l.802-1.648 1.787 1.618c3.253.005 12.082.095 12.082.095s5.321-25.696-12.189-26.173Z"
              fill="#2F2E41"/>
        <path d="M127.031 309.265a3.473 3.473 0 0 0-.91-2.788 3.464 3.464 0 0 0-2.724-1.094l-3.433-7.138-4.852 1.026 4.99 10.012a3.482 3.482 0 0 0 3.473 3.064 3.489 3.489 0 0 0 3.456-3.082ZM52.491 392.137l4.039 2.064 9.893-14.574-5.96-3.046-7.972 15.556Z"
              fill="#FFB7B7"/>
        <path d="m52.136 390.294 7.953 4.065a5.68 5.68 0 0 1 2.474 7.652l-.083.164-13.022-6.655 2.678-5.226Z"
              fill="#2F2E41"/>
        <path d="M99.134 397.783h4.536l2.158-17.475h-6.695v17.475Z" fill="#FFB7B7"/>
        <path d="M97.976 396.304H106.911a5.687 5.687 0 0 1 5.693 5.686v.185H97.977v-5.871Z" fill="#2F2E41"/>
        <path d="M77.913 255.243s-3.038-2.325-3.038 3.353l-.48 18.762 5.357 17.725 3.118-5.749-1.28-12.455-3.677-21.636Z"
              fill="#01854A"/>
        <path d="M110.41 306.561s3.523 17.133-.94 31.194l-2.466 54.062-9.041-.704-3.17-40.106-3.054-19.936-6.34 18.176-20.902 38.465-9.63-7.505s10.671-29.076 18.554-35.181l3.953-44.97 33.036 6.505Z"
              fill="#2F2E41"/>
        <path d="M99.692 232.336c5.694 0 10.31-4.61 10.31-10.296 0-5.687-4.616-10.296-10.31-10.296-5.693 0-10.31 4.609-10.31 10.296 0 5.686 4.617 10.296 10.31 10.296Z"
              fill="#FFB8B8"/>
        <path d="M98.963 224.223c1.236.161 2.168-1.102 2.6-2.269.433-1.167.762-2.526 1.836-3.157 1.468-.861 3.347.175 5.025-.11 1.896-.32 3.129-2.327 3.225-4.245.097-1.918-.667-3.762-1.417-5.531l-.262 2.198a4.351 4.351 0 0 0-1.907-3.809l.338 3.224a3.421 3.421 0 0 0-2.603-2.787 3.436 3.436 0 0 0-1.34-.045l.053 1.922a31.841 31.841 0 0 0-6.594-.323 10.677 10.677 0 0 0-6.072 2.337c-2.49 2.16-3.4 5.718-3.094 8.998.305 3.28 1.661 6.361 3.074 9.338.355.749.847 1.594 1.671 1.689a1.681 1.681 0 0 0 1.649-1.241 4.49 4.49 0 0 0-.02-2.209 9.388 9.388 0 0 1-.275-3.344c.196-1.108.994-2.202 2.112-2.338 1.118-.136 2.263 1.141 1.725 2.129l.276-.427Z"
              fill="#2F2E41"/>
        <path d="m89.825 236.081 2.159-2.993s2.412.819 8.873 4.031l.457 2.804 11.215 68.892-20.385-.878-5.552-.118-4.057-.086-5.421-.115-.08-19.801 1.759-15.169-2.718-14.292s-3.42-13.123 9.753-20.199l3.997-2.076Z"
              fill="#01854A"/>
        <path d="m118.078 305.599.74 2.588 5.181-3.37-1.955-2.235-3.966 3.017Z" fill="#CBCBCB"/>
        <path d="M93.681 244.408s8.031-10.239 12.884 1.173l1.53 11.958s5.88 14.865 6.057 20.879c0 0 3.986 7.849 3.95 11.971l5.897 13.333-6.048 3.75-16.74-25.632-7.53-37.432Z"
              fill="#01854A"/>
    </g>
    <defs>
        <clipPath id="a">
            <path fill="#fff" transform="translate(49 61)" d="M0 0h271v404H0z"/>
        </clipPath>
    </defs>
</svg>