<svg width="300" height="180" viewBox="0 0 300 180" fill="none" xmlns="http://www.w3.org/2000/svg">
    <rect width="300" height="180" fill="white"/>
    <g clip-path="url(#clip0_3482_218477)">
        <path d="M240.007 155.242H58.3838V155.743H240.007V155.242Z" fill="#3F3D56"/>
        <path d="M58.4954 159C60.4259 159 61.9908 157.43 61.9908 155.493C61.9908 153.556 60.4259 151.986 58.4954 151.986C56.5649 151.986 55 153.556 55 155.493C55 157.43 56.5649 159 58.4954 159Z"
              fill="#3F3D56"/>
        <path d="M241.505 159C243.435 159 245 157.43 245 155.493C245 153.556 243.435 151.986 241.505 151.986C239.574 151.986 238.009 153.556 238.009 155.493C238.009 157.43 239.574 159 241.505 159Z"
              fill="#3F3D56"/>
        <path d="M157.048 155.506H85.8913C85.2956 155.505 84.7244 155.267 84.3032 154.845C83.8819 154.422 83.645 153.849 83.6443 153.251V32.2546C83.645 31.6568 83.8819 31.0838 84.3032 30.6611C84.7244 30.2384 85.2956 30.0007 85.8913 30H157.048C157.643 30.0007 158.215 30.2384 158.636 30.6611C159.057 31.0838 159.294 31.6568 159.295 32.2546V153.251C159.294 153.849 159.057 154.422 158.636 154.845C158.215 155.267 157.643 155.505 157.048 155.506ZM85.8913 30.501C85.428 30.5016 84.9838 30.6865 84.6561 31.0152C84.3285 31.344 84.1442 31.7897 84.1436 32.2546V153.251C84.1442 153.716 84.3285 154.162 84.6561 154.491C84.9838 154.819 85.428 155.004 85.8913 155.005H157.048C157.511 155.004 157.955 154.819 158.283 154.491C158.611 154.162 158.795 153.716 158.795 153.251V32.2546C158.795 31.7897 158.611 31.344 158.283 31.0152C157.955 30.6865 157.511 30.5016 157.048 30.501H85.8913Z"
              fill="#3F3D56"/>
        <path d="M131.207 37.2647H111.732C111.666 37.2647 111.603 37.2383 111.556 37.1913C111.509 37.1443 111.483 37.0806 111.483 37.0142C111.483 36.9477 111.509 36.884 111.556 36.837C111.603 36.7901 111.666 36.7637 111.732 36.7637H131.207C131.273 36.7637 131.336 36.7901 131.383 36.837C131.43 36.884 131.456 36.9477 131.456 37.0142C131.456 37.0806 131.43 37.1443 131.383 37.1913C131.336 37.2383 131.273 37.2647 131.207 37.2647Z"
              fill="#3F3D56"/>
        <path d="M148.809 146.487H93.8808C93.2851 146.487 92.7139 146.249 92.2927 145.826C91.8714 145.404 91.6345 144.831 91.6338 144.233V46.0327C91.6345 45.4349 91.8714 44.8618 92.2927 44.4392C92.7139 44.0165 93.2851 43.7787 93.8808 43.7781H148.809C149.404 43.7787 149.975 44.0165 150.397 44.4392C150.818 44.8618 151.055 45.4349 151.056 46.0327V144.233C151.055 144.831 150.818 145.404 150.397 145.826C149.975 146.249 149.404 146.487 148.809 146.487ZM93.8808 44.2791C93.4175 44.2796 92.9733 44.4646 92.6456 44.7933C92.318 45.122 92.1337 45.5678 92.1331 46.0327V144.233C92.1337 144.698 92.318 145.143 92.6456 145.472C92.9733 145.801 93.4175 145.986 93.8808 145.986H148.809C149.272 145.986 149.716 145.801 150.044 145.472C150.371 145.143 150.556 144.698 150.556 144.233V46.0327C150.556 45.5678 150.371 45.122 150.044 44.7933C149.716 44.4646 149.272 44.2796 148.809 44.2791H93.8808Z"
              fill="#3F3D56"/>
        <path d="M140.07 83.1101H102.619C102.222 83.1101 101.841 82.9518 101.56 82.6699C101.279 82.388 101.121 82.0057 101.121 81.6071C101.121 81.2084 101.279 80.8261 101.56 80.5442C101.841 80.2624 102.222 80.104 102.619 80.104H140.07C140.467 80.104 140.848 80.2624 141.129 80.5442C141.41 80.8261 141.568 81.2084 141.568 81.6071C141.568 82.0057 141.41 82.388 141.129 82.6699C140.848 82.9518 140.467 83.1101 140.07 83.1101Z"
              fill="#CCCCCC"/>
        <path d="M140.07 89.8738H102.619C102.222 89.8738 101.841 89.7154 101.56 89.4336C101.279 89.1517 101.121 88.7694 101.121 88.3707C101.121 87.9721 101.279 87.5898 101.56 87.3079C101.841 87.026 102.222 86.8677 102.619 86.8677H140.07C140.467 86.8677 140.848 87.026 141.129 87.3079C141.41 87.5898 141.568 87.9721 141.568 88.3707C141.568 88.7694 141.41 89.1517 141.129 89.4336C140.848 89.7154 140.467 89.8738 140.07 89.8738Z"
              fill="#CCCCCC"/>
        <path d="M140.07 96.6377H102.619C102.222 96.6377 101.841 96.4794 101.56 96.1975C101.279 95.9156 101.121 95.5333 101.121 95.1347C101.121 94.736 101.279 94.3537 101.56 94.0718C101.841 93.79 102.222 93.6316 102.619 93.6316H140.07C140.467 93.6316 140.848 93.79 141.129 94.0718C141.41 94.3537 141.568 94.736 141.568 95.1347C141.568 95.5333 141.41 95.9156 141.129 96.1975C140.848 96.4794 140.467 96.6377 140.07 96.6377Z"
              fill="#CCCCCC"/>
        <path d="M126.738 76.3464H114.628C113.9 76.3464 113.201 76.0561 112.686 75.5393C112.171 75.0226 111.882 74.3217 111.882 73.5908C111.882 72.86 112.171 72.1591 112.686 71.6423C113.201 71.1255 113.9 70.8352 114.628 70.8352H126.738C127.467 70.8352 128.165 71.1255 128.68 71.6423C129.195 72.1591 129.485 72.86 129.485 73.5908C129.485 74.3217 129.195 75.0226 128.68 75.5393C128.165 76.0561 127.467 76.3464 126.738 76.3464Z"
              fill="#349D6E"/>
        <path d="M121 134C118.627 134 116.307 133.296 114.333 131.978C112.36 130.659 110.822 128.785 109.913 126.592C109.005 124.399 108.768 121.987 109.231 119.659C109.694 117.331 110.836 115.193 112.515 113.515C114.193 111.836 116.331 110.694 118.659 110.231C120.987 109.768 123.399 110.005 125.592 110.913C127.785 111.822 129.659 113.36 130.978 115.333C132.296 117.307 133 119.627 133 122C132.996 125.182 131.731 128.232 129.481 130.481C127.232 132.731 124.181 133.996 121 134ZM121 111.263C118.876 111.263 116.801 111.893 115.035 113.073C113.269 114.252 111.893 115.929 111.08 117.891C110.268 119.853 110.055 122.012 110.469 124.095C110.884 126.177 111.906 128.091 113.408 129.592C114.909 131.094 116.823 132.116 118.905 132.531C120.988 132.945 123.147 132.732 125.109 131.92C127.071 131.107 128.748 129.731 129.927 127.965C131.107 126.199 131.737 124.124 131.737 122C131.737 120.59 131.459 119.194 130.92 117.891C130.38 116.589 129.589 115.405 128.592 114.408C127.595 113.411 126.411 112.62 125.109 112.08C123.806 111.541 122.41 111.263 121 111.263Z"
              fill="#3F3D56"/>
        <path d="M121.587 126C121.412 126 121.239 125.965 121.078 125.896C120.917 125.828 120.771 125.728 120.647 125.601L116.39 121.249C116.266 121.123 116.168 120.973 116.101 120.808C116.034 120.643 116 120.466 116 120.288C116 120.109 116.034 119.933 116.101 119.768C116.168 119.603 116.266 119.453 116.39 119.327L116.61 119.101C116.86 118.847 117.198 118.704 117.55 118.704C117.903 118.704 118.241 118.847 118.491 119.101L120.698 121.357C120.78 121.441 120.879 121.506 120.989 121.547C121.098 121.587 121.215 121.603 121.33 121.593C121.446 121.583 121.559 121.547 121.66 121.487C121.76 121.428 121.847 121.347 121.914 121.25L131.327 107.577C131.53 107.282 131.839 107.082 132.187 107.02C132.534 106.958 132.891 107.04 133.18 107.247L133.436 107.432C133.579 107.534 133.7 107.665 133.794 107.816C133.887 107.966 133.951 108.134 133.98 108.31C134.01 108.486 134.006 108.666 133.968 108.841C133.929 109.015 133.858 109.179 133.758 109.325L122.675 125.423C122.563 125.585 122.418 125.721 122.25 125.819C122.082 125.918 121.895 125.978 121.701 125.995C121.663 125.998 121.625 126 121.587 126Z"
              fill="#349D6E"/>
        <path d="M205.168 152.375H208.36L209.879 140.022H205.168V152.375Z" fill="#FFB8B8"/>
        <path d="M214.516 155.349H204.484V151.46H210.694C211.196 151.46 211.693 151.559 212.156 151.752C212.62 151.945 213.041 152.227 213.396 152.583C213.751 152.94 214.033 153.362 214.225 153.828C214.417 154.293 214.516 154.792 214.516 155.295V155.349Z"
              fill="#2F2E41"/>
        <path d="M206.29 133.233L204.088 135.552L194.126 128.135L197.375 124.712L206.29 133.233Z" fill="#FFB8B8"/>
        <path d="M201.818 136.616L206.101 132.105L208.908 134.787L201.988 142.075L201.949 142.038C201.215 141.337 200.789 140.371 200.765 139.355C200.74 138.338 201.119 137.353 201.818 136.616Z"
              fill="#2F2E41"/>
        <path d="M228.508 99.3887C228.71 99.0626 228.839 98.696 228.884 98.3147C228.93 97.9334 228.892 97.5467 228.772 97.1818C228.653 96.8169 228.455 96.4828 228.193 96.2029C227.931 95.923 227.611 95.7041 227.256 95.5617L214.723 63.5142L209.838 66.4489L223.76 97.1936C223.561 97.8086 223.594 98.4755 223.852 99.0678C224.111 99.6601 224.577 100.137 225.162 100.407C225.748 100.678 226.411 100.724 227.028 100.536C227.645 100.348 228.171 99.94 228.508 99.3887Z"
              fill="#FFB8B8"/>
        <path d="M180.939 101.686C181.321 101.658 181.692 101.547 182.027 101.36C182.361 101.173 182.65 100.915 182.875 100.604C183.099 100.293 183.252 99.9359 183.324 99.5587C183.396 99.1814 183.384 98.793 183.29 98.4207L201.779 69.42L196.542 67.177L179.921 96.5407C179.308 96.7405 178.79 97.1589 178.464 97.7167C178.138 98.2745 178.027 98.9329 178.152 99.5671C178.278 100.201 178.631 100.767 179.145 101.158C179.658 101.548 180.297 101.736 180.939 101.686Z"
              fill="#FFB8B8"/>
        <path d="M214.6 96.1797L211.327 144.981L203.506 144.288L201.896 108.285L197.526 123.748L188.095 124.44L191.828 93.8718L214.6 96.1797Z"
              fill="#2F2E41"/>
        <path d="M196.146 121.44L197.526 123.748L207.187 130.441L200.286 134.133C200.286 134.133 186.945 126.748 188.095 124.44L196.146 121.44Z"
              fill="#2F2E41"/>
        <path d="M221.448 76.4349L218.725 68.7369C218.12 67.0242 217.182 65.4492 215.965 64.1027C214.749 62.7563 213.278 61.6653 211.639 60.8929C207.954 59.5308 203.947 59.3107 200.136 60.2611C199.823 60.3391 199.492 60.4214 199.145 60.5078C196.503 61.1505 194.028 62.3502 191.884 64.0271C190.206 65.354 188.697 67.0342 188.563 68.8413C188.562 68.8452 188.561 68.8487 188.56 68.8526C188.095 70.8959 187.865 81.5124 187.865 81.5124H191.964L191.315 95.8216L191.368 95.718C191.368 95.718 215.007 100.207 215.007 97.8987V83.128L215.492 77.7796L221.448 76.4349Z"
              fill="#E6E6E6"/>
        <path d="M199.383 58.2617C203.001 58.2617 205.934 55.3188 205.934 51.6886C205.934 48.0584 203.001 45.1155 199.383 45.1155C195.765 45.1155 192.832 48.0584 192.832 51.6886C192.832 55.3188 195.765 58.2617 199.383 58.2617Z"
              fill="#FFB8B8"/>
        <path d="M198.824 48.9627L193.315 48.9452C192.675 48.9431 191.976 48.9204 191.489 48.5044C190.754 47.8779 190.877 46.6956 191.271 45.8126C192.366 43.3536 195.084 41.7919 197.767 41.8642C200.45 41.9365 202.991 43.5301 204.437 45.7994C205.882 48.0688 206.273 50.9348 205.728 53.5721C205.099 52.2312 204.13 51.0793 202.918 50.2315C201.706 49.3836 200.294 48.8696 198.822 48.7406L198.824 48.9627Z"
              fill="#2F2E41"/>
    </g>
    <defs>
        <clipPath id="clip0_3482_218477">
            <rect width="190" height="129" fill="white" transform="translate(55 30)"/>
        </clipPath>
    </defs>
</svg>
