<svg width="484" height="450" viewBox="0 0 484 450" fill="none" xmlns="http://www.w3.org/2000/svg">
    <g clip-path="url(#clip0_5416_342337)">
        <path d="M466.364 54.0187H471.171C474.853 25.7814 446.522 4.33839 414.026 1.72063C426.788 4.64529 438.467 11.1026 447.724 20.3523C456.981 29.6021 463.441 41.27 466.364 54.0187V54.0187Z"
              fill="#F2F2F2"/>
        <path d="M391.57 138.267C388.85 138.234 386.244 138.142 383.753 137.992C386.339 138.39 388.963 138.483 391.57 138.267V138.267Z"
              fill="#F2F2F2"/>
        <path d="M331.091 69.3727C331.718 32.1783 361.389 1.90888 398.631 1.90888C403.746 1.36641 408.9 1.30338 414.026 1.72064C403.857 -0.584467 393.299 -0.573357 383.135 1.75314C372.971 4.07964 363.461 8.66184 355.311 15.1599C347.162 21.658 340.581 29.9053 336.058 39.2902C331.534 48.675 329.183 58.9567 329.18 69.3727C329.18 104.641 330.444 134.73 383.753 137.992C356.744 133.895 330.599 98.5785 331.091 69.3727Z"
              fill="#F2F2F2"/>
        <path d="M465.568 70.4592C453.36 91.3206 405.36 106.62 398.631 136.837C396.341 137.588 393.972 138.068 391.57 138.267C393.782 138.294 396.064 138.285 398.435 138.231C436.367 138.231 467.48 108.203 468.068 70.4592L465.568 70.4592Z"
              fill="#F2F2F2"/>
        <path d="M404.082 120.068C395.205 100.832 391.317 80.1012 394.04 57.3894C393.619 54.7473 395.094 52.0995 397.336 51.4707L437.525 40.255C439.768 39.6322 441.929 41.2656 442.354 43.9063L452.396 106.585C452.817 109.227 451.342 111.875 449.1 112.504L408.911 123.719C406.668 124.342 404.507 122.709 404.082 120.068Z"
              fill="#F2F2F2"/>
        <path d="M423.116 47.1889C423.696 42.7107 421.132 38.6888 417.389 38.2059C413.647 37.7229 410.144 40.9617 409.565 45.4399C408.985 49.9182 411.55 53.94 415.292 54.423C419.034 54.906 422.537 51.6672 423.116 47.1889Z"
              fill="#F2F2F2"/>
        <path d="M349.622 89.4166C340.745 70.1807 336.858 49.4496 339.58 26.7378C339.16 24.0957 340.634 21.4479 342.876 20.8191L383.066 9.60344C385.309 8.98059 387.469 10.614 387.895 13.2547L397.936 75.9335C398.357 78.5756 396.883 81.2234 394.64 81.8522L354.451 93.0678C352.208 93.6907 350.048 92.0573 349.622 89.4166Z"
              fill="#F2F2F2"/>
        <path d="M368.657 16.5373C369.236 12.0591 366.672 8.03724 362.93 7.55426C359.188 7.07128 355.684 10.3101 355.105 14.7883C354.526 19.2666 357.09 23.2884 360.832 23.7714C364.574 24.2544 368.078 21.0156 368.657 16.5373Z"
              fill="#F2F2F2"/>
        <path d="M404.63 297.664H0V298.979H404.63V297.664Z" fill="#3F3D56"/>
        <path d="M164.589 142.465C164.112 140.796 170.785 156.091 169.197 156.275C161.967 157.104 145.945 160.839 140.909 162.851C140.682 162.825 140.456 162.799 140.236 162.766C139.695 162.707 139.168 162.621 138.648 162.523C126.922 160.306 118.05 150.685 117.81 139.072C117.797 138.907 117.797 138.736 117.797 138.572C117.795 137.77 117.838 136.969 117.924 136.172C118.034 135.083 118.224 134.004 118.491 132.943L118.464 132.936C113.795 128.557 115.763 120.435 121.712 117.009C124.298 115.524 127.165 114.594 130.13 114.28C130.934 114.192 131.743 114.149 132.552 114.148H140.149C141.721 113.81 143.314 113.579 144.918 113.458H144.931C160.226 112.294 172.286 121.605 171.159 132.936C171.152 132.949 171.139 132.963 171.132 132.976C170.805 133.462 170.518 133.923 170.265 134.363C170.018 134.778 169.811 135.172 169.631 135.547C168.237 138.441 171.821 142.082 169.444 142.761C166.284 143.665 177.756 173.373 165.247 173.373C171.332 175.101 165.906 147.069 164.589 142.465Z"
              fill="#2F2E41"/>
        <path d="M234.379 429.622L244.244 429.539L248.61 390.648L234.052 390.77L234.379 429.622Z" fill="#FFB6B6"/>
        <path d="M265.976 445.29C265.984 446.458 265.529 447.582 264.709 448.415C263.89 449.248 262.773 449.722 261.603 449.734L241.991 449.897L238.558 442.946L237.297 449.933L229.897 450L231.765 425.08L234.34 424.908L244.841 424.185L248.229 423.959L248.289 431.01L264.043 441.684C264.633 442.084 265.117 442.621 265.454 443.249C265.791 443.877 265.97 444.578 265.976 445.29Z"
              fill="#2F2E41"/>
        <path d="M246.883 410.117C242.96 409.643 233.058 408.801 233.058 408.801C233.058 408.801 228.384 399.056 229.141 396.024C229.885 392.979 231.741 392.361 230.016 390.769C225.816 375.263 226.488 350.076 226.488 350.076C226.488 350.076 203.88 339.14 180.989 326.481C158.611 314.098 135.964 300.07 133.916 293.001C132.565 287.945 131.657 282.78 131.204 277.567C130.861 274.147 130.651 270.793 130.519 267.788C130.21 260.909 130.335 255.826 130.335 255.826L158.861 255.352L177.756 254.918H179.731V258.206L184.695 266.637C184.695 266.637 193.274 276.6 192.266 277.527C191.048 278.652 191.417 279.651 195.742 280.467C196.972 280.682 198.225 280.733 199.469 280.618C206.454 280.085 209.377 284.077 209.548 284.952C210.72 291.127 222.472 304.542 233.479 315.991H233.486C243.644 326.566 253.164 335.457 253.164 335.457L253.704 346.801L256.239 399.838C256.239 399.838 251.485 397.181 255.732 402.909C259.978 408.644 250.807 410.584 246.883 410.117Z"
              fill="#2F2E41"/>
        <path d="M353.906 286.793L357.934 277.797L324.342 257.656L318.399 270.931L353.906 286.793Z" fill="#FFB6B6"/>
        <path d="M381.312 264.608C382.379 265.086 383.213 265.967 383.631 267.058C384.048 268.149 384.015 269.361 383.54 270.428L375.531 288.311L367.774 288.539L373.611 292.59L370.594 299.34L348.683 287.278L349.599 284.868L353.308 275.028L354.511 271.856L360.955 274.735L377.225 264.863C377.835 264.493 378.525 264.277 379.237 264.233C379.949 264.188 380.661 264.317 381.312 264.608V264.608Z"
              fill="#2F2E41"/>
        <path d="M336.628 265.02C336.605 265.071 336.577 265.118 336.554 265.16C334.719 268.524 331.707 276.31 331.519 276.79C331.514 276.799 331.511 276.808 331.51 276.818C331.51 276.818 321.572 276.307 319.032 274.486C316.487 272.652 320.338 275.552 314.47 271.717C311.436 269.723 301.043 266.611 291.734 264.068C283.074 261.702 275.357 259.841 275.357 259.841C275.357 259.841 268.535 266.043 258.653 274.613L258.648 274.617C249.469 282.56 237.64 292.547 226.176 301.49C201.634 308.701 175.731 314.948 169.255 311.438C164.703 308.847 160.386 305.865 156.353 302.525L163.021 285.066L180.655 266.619L199.218 259.085L206.479 256.136L216.648 252.014L271.7 229.672L332.665 250.765C332.665 250.765 328.419 254.192 335.33 252.384C342.147 250.605 338.545 261.412 336.628 265.02Z"
              fill="#2F2E41"/>
        <path d="M144.18 163.509H163.931L167.04 170.365L180.267 176.252C181.987 177.019 183.503 178.179 184.692 179.638C185.881 181.098 186.71 182.816 187.112 184.654C191.875 206.402 185.85 210.921 185.656 218.092C184.998 242.423 181.606 247.263 181.985 253.27C182.099 255.068 183.197 262.176 186.731 261.506C190.265 260.837 188.36 263.647 189.196 264.739C189.919 265.683 193.719 264.43 191.334 267.566C188.948 270.701 199.147 279.25 192.898 279.25C181.048 279.25 157.347 285.169 148.13 285.169C138.913 285.169 131.79 287.899 127.721 287.799C125.241 287.739 126.016 276.187 127.008 266.182C127.232 263.917 131.587 263.976 127.679 259.776C123.771 255.576 128.371 253.393 128.379 252.288C128.388 251.113 130.595 248.155 127.841 243.317C125.088 238.478 127.626 240.48 127.506 238.961C126.585 227.252 125.264 212.322 125.264 212.322L119.442 195.954C117.953 191.77 118.15 187.173 119.99 183.131C121.831 179.089 125.17 175.92 129.305 174.29L136.135 171.599L144.18 163.509Z"
              fill="#01854A"/>
        <path d="M282.893 157.472C282.454 158.29 281.842 159.003 281.1 159.561C280.358 160.12 279.504 160.511 278.596 160.707C277.688 160.903 276.748 160.9 275.841 160.698C274.934 160.496 274.083 160.099 273.344 159.536L245.522 175.27L239.273 168.653L272.455 150.206C273.497 149.036 274.933 148.288 276.49 148.104C278.047 147.92 279.618 148.313 280.904 149.208C282.191 150.104 283.104 151.44 283.47 152.963C283.837 154.486 283.631 156.09 282.893 157.472V157.472Z"
              fill="#FFB6B6"/>
        <path d="M157.619 194.611L157.196 199.678L212.586 198.967L267.721 168.006L259.66 155.614L211.2 175.966L176.758 176.664C171.91 176.762 167.272 178.651 163.737 181.965C160.203 185.28 158.023 189.785 157.619 194.611V194.611Z"
              fill="#01854A"/>
        <path d="M150.935 159.897C160.87 159.897 168.923 151.852 168.923 141.929C168.923 132.006 160.87 123.962 150.935 123.962C141.001 123.962 132.948 132.006 132.948 141.929C132.948 151.852 141.001 159.897 150.935 159.897Z"
              fill="#FFB6B6"/>
        <path d="M171.159 133.916C170.858 134.074 170.565 134.219 170.265 134.363C169.951 134.515 169.638 134.666 169.324 134.804C163.301 137.533 158.399 137.836 155.424 133.916C155.344 131.854 154.88 129.824 154.056 127.932C154.202 130.047 153.644 132.151 152.469 133.916H146.479C140.309 138.007 137.141 138.434 141.423 151.863C142.617 155.604 147.364 177.378 145.497 180.607C144.956 180.548 139.168 162.621 138.648 162.523C126.922 160.306 118.05 150.685 117.81 139.072C117.824 138.48 117.864 137.888 117.924 137.309C118.696 136.149 119.545 135.042 120.465 133.995C120.46 130.891 121.175 127.827 122.553 125.045C124.296 121.519 127.013 118.567 130.384 116.535C132.393 115.562 134.487 114.776 136.64 114.187C136.694 114.174 136.74 114.161 136.794 114.148C137.454 113.97 138.128 113.806 138.801 113.668C140.193 113.374 141.601 113.161 143.017 113.03C143.117 113.024 143.217 113.017 143.311 113.017C143.876 113.018 144.431 113.17 144.918 113.458C144.925 113.458 144.925 113.464 144.931 113.464C145.279 113.667 145.583 113.938 145.825 114.26C146.251 114.802 146.482 115.471 146.479 116.16H153.149C153.396 116.16 153.643 116.167 153.889 116.18C158.341 116.332 162.576 118.138 165.765 121.244C168.954 124.351 170.868 128.534 171.132 132.976C171.152 133.291 171.159 133.6 171.159 133.916Z"
              fill="#2F2E41"/>
        <path d="M126.404 137.204C132.949 137.204 138.255 131.905 138.255 125.367C138.255 118.83 132.949 113.53 126.404 113.53C119.86 113.53 114.554 118.83 114.554 125.367C114.554 131.905 119.86 137.204 126.404 137.204Z"
              fill="#2F2E41"/>
        <path d="M140.888 116.16C141.114 122.694 135.583 127.998 129.038 127.998C125.895 127.998 122.881 126.75 120.658 124.53C118.436 122.311 117.187 119.3 117.187 116.16C117.187 109.623 125.114 109.555 129.038 104.323C134.589 96.9218 140.583 107.349 140.888 116.16Z"
              fill="#2F2E41"/>
        <path d="M156.382 301.334C154.542 274.06 159.929 248.405 174.889 224.895C175.266 223.348 176.241 222.014 177.601 221.185C178.961 220.355 180.595 220.098 182.144 220.471L239.937 234.432C241.485 234.808 242.821 235.782 243.652 237.141C244.482 238.499 244.739 240.131 244.366 241.679L225.859 318.117C225.483 319.664 224.507 320.999 223.147 321.828C221.787 322.657 220.153 322.914 218.604 322.542L160.812 308.58C159.263 308.204 157.927 307.23 157.097 305.872C156.267 304.513 156.01 302.881 156.382 301.334V301.334Z"
              fill="#F2F2F2"/>
        <path opacity="0.2"
              d="M167.708 307.126C166.16 306.75 164.824 305.776 163.993 304.418C163.163 303.059 162.906 301.427 163.279 299.879C161.439 272.606 166.826 246.951 181.786 223.441C182.038 222.426 182.554 221.497 183.282 220.746L182.144 220.471C180.595 220.098 178.961 220.355 177.601 221.184C176.241 222.014 175.266 223.348 174.889 224.895C159.929 248.405 154.542 274.06 156.382 301.333C156.01 302.881 156.267 304.513 157.097 305.872C157.927 307.23 159.263 308.204 160.812 308.58L218.604 322.542C219.632 322.786 220.705 322.755 221.717 322.451C222.728 322.148 223.641 321.582 224.363 320.813L167.708 307.126Z"
              fill="black"/>
        <path d="M220.034 274.948L181.28 265.699C180.664 265.552 180.132 265.166 179.8 264.626C179.469 264.087 179.365 263.438 179.513 262.822C179.66 262.207 180.046 261.675 180.585 261.343C181.125 261.011 181.775 260.907 182.391 261.054L221.145 270.302C221.76 270.451 222.29 270.838 222.621 271.377C222.951 271.916 223.054 272.563 222.907 273.178C222.76 273.793 222.375 274.324 221.836 274.656C221.298 274.987 220.65 275.092 220.034 274.948L220.034 274.948Z"
              fill="white"/>
        <path d="M192.853 254.996L184.327 252.962C183.71 252.816 183.177 252.431 182.844 251.893C182.511 251.355 182.406 250.706 182.551 250.09C182.696 249.475 183.08 248.941 183.619 248.608C184.157 248.275 184.806 248.169 185.423 248.313L185.438 248.316L193.964 250.351C194.578 250.5 195.109 250.886 195.439 251.425C195.769 251.964 195.872 252.612 195.725 253.227C195.578 253.841 195.193 254.373 194.655 254.704C194.116 255.036 193.468 255.141 192.853 254.996V254.996Z"
              fill="white"/>
        <path d="M215.149 295.37L176.396 286.121C175.781 285.972 175.25 285.586 174.919 285.047C174.589 284.508 174.486 283.86 174.633 283.245C174.78 282.63 175.165 282.099 175.704 281.767C176.242 281.436 176.891 281.331 177.507 281.476L216.261 290.724C216.567 290.796 216.855 290.927 217.111 291.11C217.366 291.293 217.583 291.525 217.748 291.792C217.914 292.058 218.025 292.355 218.075 292.665C218.126 292.975 218.115 293.292 218.043 293.597C217.971 293.903 217.839 294.191 217.655 294.446C217.472 294.7 217.24 294.916 216.972 295.081C216.705 295.246 216.408 295.357 216.097 295.407C215.787 295.457 215.47 295.446 215.164 295.373L215.149 295.37Z"
              fill="white"/>
        <path d="M217.592 285.159L178.838 275.91C178.221 275.764 177.688 275.379 177.355 274.839C177.023 274.3 176.918 273.651 177.065 273.035C177.211 272.419 177.597 271.886 178.137 271.554C178.677 271.221 179.326 271.117 179.943 271.264L179.949 271.265L218.703 280.513C219.318 280.662 219.849 281.048 220.179 281.587C220.51 282.127 220.612 282.774 220.465 283.389C220.318 284.004 219.933 284.536 219.395 284.867C218.856 285.199 218.208 285.304 217.592 285.159L217.592 285.159Z"
              fill="white"/>
        <path d="M209.399 237.194C214.904 237.194 219.367 232.736 219.367 227.237C219.367 221.738 214.904 217.28 209.399 217.28C203.894 217.28 199.431 221.738 199.431 227.237C199.431 232.736 203.894 237.194 209.399 237.194Z"
              fill="#3F3D56"/>
        <path d="M159.138 307.034C158.325 306.585 157.619 305.965 157.07 305.217C156.52 304.469 156.14 303.61 155.955 302.701C155.77 301.791 155.785 300.853 155.999 299.95C156.213 299.046 156.621 298.201 157.195 297.471L141.802 269.479L148.507 263.323L166.545 296.702C167.704 297.758 168.434 299.201 168.598 300.759C168.763 302.317 168.349 303.881 167.436 305.154C166.523 306.428 165.174 307.323 163.645 307.669C162.115 308.015 160.512 307.789 159.138 307.034H159.138Z"
              fill="#FFB6B6"/>
        <path d="M141.16 183.129L124.604 181.533C123.832 181.459 123.052 181.547 122.316 181.791C121.58 182.035 120.902 182.43 120.328 182.951C119.753 183.472 119.295 184.108 118.98 184.817C118.666 185.525 118.504 186.292 118.504 187.067V236.278L148.788 291.745L161.297 283.854L141.547 235.19L141.16 183.129Z"
              fill="#01854A"/>
        <path d="M271.859 179.135C275.698 152.07 286.273 128.08 305.772 108.163C306.46 106.727 307.69 105.623 309.192 105.092C310.695 104.561 312.346 104.647 313.785 105.331L367.445 130.914C368.882 131.601 369.988 132.83 370.52 134.33C371.051 135.831 370.965 137.481 370.28 138.918L336.368 209.89C335.68 211.326 334.45 212.431 332.947 212.962C331.445 213.492 329.794 213.406 328.355 212.722L274.695 187.14C273.257 186.452 272.152 185.224 271.62 183.723C271.089 182.223 271.175 180.573 271.859 179.135V179.135Z"
              fill="#F2F2F2"/>
        <path opacity="0.2"
              d="M281.743 187.139C280.306 186.452 279.2 185.223 278.669 183.723C278.137 182.222 278.223 180.572 278.908 179.135C282.747 152.07 293.322 128.08 312.821 108.163C313.277 107.222 313.974 106.419 314.841 105.834L313.785 105.331C312.346 104.647 310.695 104.561 309.192 105.092C307.69 105.623 306.46 106.727 305.772 108.163C286.273 128.08 275.698 152.07 271.859 179.135C271.175 180.572 271.089 182.222 271.62 183.723C272.152 185.223 273.257 186.452 274.695 187.139L328.355 212.722C329.309 213.174 330.366 213.365 331.419 213.276C332.471 213.188 333.481 212.823 334.347 212.219L281.743 187.139Z"
              fill="black"/>
        <path d="M339.594 166.45L303.588 149.406C303.015 149.134 302.573 148.647 302.36 148.05C302.147 147.454 302.18 146.797 302.451 146.225C302.723 145.653 303.211 145.212 303.808 144.999C304.405 144.786 305.063 144.818 305.636 145.09L341.642 162.134C342.212 162.406 342.652 162.894 342.863 163.489C343.075 164.085 343.042 164.74 342.771 165.311C342.5 165.882 342.013 166.322 341.418 166.536C340.823 166.749 340.167 166.718 339.594 166.45L339.594 166.45Z"
              fill="white"/>
        <path d="M317.124 141.321L309.203 137.571C308.918 137.438 308.663 137.25 308.451 137.018C308.239 136.787 308.075 136.515 307.969 136.22C307.862 135.925 307.815 135.612 307.829 135.298C307.844 134.985 307.92 134.677 308.054 134.393C308.187 134.109 308.376 133.854 308.608 133.643C308.84 133.432 309.112 133.268 309.408 133.162C309.703 133.056 310.017 133.009 310.331 133.024C310.645 133.039 310.952 133.115 311.237 133.249L311.25 133.255L319.172 137.005C319.743 137.277 320.182 137.765 320.394 138.361C320.606 138.956 320.573 139.611 320.302 140.183C320.031 140.754 319.544 141.195 318.948 141.408C318.353 141.621 317.697 141.59 317.124 141.321V141.321Z"
              fill="white"/>
        <path d="M330.593 185.424L294.586 168.38C294.015 168.107 293.576 167.62 293.364 167.024C293.152 166.428 293.185 165.773 293.456 165.202C293.727 164.631 294.214 164.19 294.81 163.977C295.405 163.763 296.061 163.795 296.634 164.064L332.64 181.108C332.924 181.241 333.179 181.429 333.391 181.661C333.602 181.893 333.766 182.164 333.872 182.459C333.979 182.754 334.026 183.067 334.011 183.38C333.997 183.694 333.92 184.001 333.787 184.285C333.653 184.568 333.465 184.823 333.233 185.034C333.001 185.246 332.729 185.409 332.434 185.515C332.139 185.622 331.825 185.669 331.512 185.654C331.198 185.64 330.89 185.563 330.606 185.43L330.593 185.424Z"
              fill="white"/>
        <path d="M335.093 175.937L299.087 158.893C298.514 158.622 298.072 158.135 297.858 157.539C297.644 156.943 297.676 156.286 297.947 155.713C298.218 155.141 298.705 154.699 299.302 154.485C299.899 154.272 300.556 154.304 301.13 154.574L301.135 154.577L337.141 171.621C337.712 171.893 338.151 172.381 338.363 172.976C338.575 173.572 338.541 174.227 338.27 174.798C337.999 175.369 337.513 175.81 336.917 176.023C336.322 176.236 335.666 176.205 335.093 175.937L335.093 175.937Z"
              fill="white"/>
        <path d="M339.053 127.531C344.559 127.531 349.022 123.073 349.022 117.574C349.022 112.075 344.559 107.617 339.053 107.617C333.548 107.617 329.085 112.075 329.085 117.574C329.085 123.073 333.548 127.531 339.053 127.531Z"
              fill="#3F3D56"/>
        <path d="M425.073 214.198C414.263 190.772 409.529 165.524 412.844 137.865C412.332 134.647 414.128 131.423 416.858 130.657L465.802 116.998C468.534 116.239 471.165 118.229 471.684 121.445L483.913 197.778C484.425 200.995 482.63 204.22 479.899 204.986L430.955 218.644C428.223 219.403 425.592 217.414 425.073 214.198Z"
              fill="#F2F2F2"/>
        <path opacity="0.2"
              d="M435.719 214.239C432.987 214.998 430.357 213.009 429.838 209.793C419.027 186.366 414.293 161.119 417.609 133.46C417.452 132.433 417.525 131.384 417.821 130.388L416.858 130.657C414.128 131.423 412.332 134.647 412.844 137.865C409.528 165.524 414.263 190.771 425.073 214.198C425.592 217.414 428.223 219.403 430.955 218.644L479.899 204.986C480.831 204.673 481.668 204.13 482.333 203.407C482.998 202.683 483.468 201.803 483.7 200.849L435.719 214.239Z"
              fill="black"/>
        <path d="M464.577 162.012L431.796 171.272C430.709 171.577 429.661 170.787 429.454 169.508C429.336 168.919 429.431 168.308 429.722 167.783C430.013 167.258 430.481 166.852 431.042 166.639L463.824 157.379C464.911 157.076 465.958 157.869 466.162 159.149C466.279 159.736 466.183 160.345 465.893 160.869C465.603 161.393 465.137 161.798 464.577 162.012H464.577Z"
              fill="white"/>
        <path d="M436.941 156.532L429.729 158.569C428.644 158.88 427.592 158.095 427.381 156.817C427.261 156.228 427.354 155.615 427.644 155.088C427.934 154.562 428.401 154.154 428.963 153.94L428.976 153.936L436.188 151.899C437.275 151.596 438.322 152.388 438.526 153.669C438.643 154.256 438.547 154.865 438.257 155.389C437.967 155.913 437.501 156.318 436.941 156.532Z"
              fill="white"/>
        <path d="M467.89 182.378L435.109 191.638C434.022 191.941 432.975 191.149 432.77 189.869C432.654 189.281 432.749 188.672 433.039 188.148C433.329 187.624 433.795 187.219 434.355 187.006L467.137 177.746C468.222 177.435 469.274 178.219 469.485 179.497C469.605 180.086 469.512 180.699 469.222 181.226C468.932 181.753 468.465 182.16 467.903 182.375L467.89 182.378Z"
              fill="white"/>
        <path d="M466.234 172.195L433.452 181.455C432.366 181.764 431.316 180.977 431.107 179.698C430.988 179.109 431.082 178.496 431.373 177.97C431.663 177.444 432.132 177.037 432.694 176.824L432.699 176.822L465.48 167.562C466.567 167.259 467.614 168.052 467.819 169.332C467.935 169.919 467.84 170.529 467.55 171.053C467.26 171.577 466.794 171.981 466.234 172.195L466.234 172.195Z"
              fill="white"/>
        <path d="M448.255 125.442C448.96 119.989 445.838 115.091 441.28 114.502C436.723 113.914 432.456 117.859 431.751 123.312C431.046 128.766 434.168 133.664 438.726 134.252C443.283 134.841 447.549 130.896 448.255 125.442Z"
              fill="#3F3D56"/>
    </g>
    <defs>
        <clipPath id="clip0_5416_342337">
            <rect width="484" height="450" fill="white"/>
        </clipPath>
    </defs>
</svg>
