<svg width="300" height="180" viewBox="0 0 300 180" fill="none" xmlns="http://www.w3.org/2000/svg">
    <rect width="300" height="180" fill="white"/>
    <path d="M240.269 167.387H60.0431C58.4403 167.387 56.9033 166.751 55.77 165.617C54.6367 164.484 54 162.947 54 161.344C119.332 153.751 183.436 153.751 246.312 161.344C246.312 162.947 245.675 164.484 244.542 165.617C243.408 166.751 241.871 167.387 240.269 167.387Z"
          fill="#B8BDC3"/>
    <path d="M246.312 161.7L54 161.344L76.2883 123.842L76.3949 123.664V41.0124C76.3948 40.0092 76.5924 39.0158 76.9762 38.089C77.3601 37.1621 77.9228 36.3199 78.6322 35.6106C79.3415 34.9012 80.1837 34.3385 81.1106 33.9546C82.0374 33.5707 83.0308 33.3732 84.034 33.3733H215.211C216.214 33.3732 217.208 33.5707 218.135 33.9546C219.062 34.3385 219.904 34.9012 220.613 35.6106C221.322 36.3199 221.885 37.1621 222.269 38.089C222.653 39.0158 222.85 40.0092 222.85 41.0124V124.233L246.312 161.7Z"
          fill="#818181"/>
    <path d="M83.8599 38.7056C83.2002 38.7063 82.5677 38.9687 82.1012 39.4352C81.6347 39.9017 81.3723 40.5342 81.3716 41.1939V116.554C81.3724 117.214 81.6348 117.847 82.1012 118.313C82.5677 118.78 83.2002 119.042 83.8599 119.043H216.452C217.112 119.042 217.744 118.78 218.211 118.313C218.677 117.847 218.939 117.214 218.94 116.554V41.1939C218.939 40.5342 218.677 39.9017 218.211 39.4352C217.744 38.9687 217.112 38.7063 216.452 38.7056H83.8599Z"
          fill="white"/>
    <path d="M84.4154 128.996C84.2116 128.996 84.0121 129.055 83.8404 129.165C83.6687 129.275 83.5321 129.432 83.4466 129.617L76.5788 144.546C76.5041 144.709 76.4714 144.888 76.4838 145.066C76.4961 145.244 76.5532 145.417 76.6497 145.567C76.7461 145.718 76.8789 145.842 77.0358 145.928C77.1927 146.014 77.3687 146.059 77.5475 146.059H221.972C222.154 146.059 222.332 146.012 222.491 145.924C222.65 145.835 222.783 145.707 222.879 145.553C222.974 145.398 223.029 145.222 223.037 145.04C223.045 144.858 223.007 144.678 222.925 144.515L215.46 129.585C215.372 129.408 215.236 129.259 215.068 129.154C214.899 129.05 214.705 128.995 214.507 128.996H84.4154Z"
          fill="#B8BDC3"/>
    <path d="M149.623 37.4612C150.506 37.4612 151.222 36.7451 151.222 35.8616C151.222 34.9781 150.506 34.262 149.623 34.262C148.739 34.262 148.023 34.9781 148.023 35.8616C148.023 36.7451 148.739 37.4612 149.623 37.4612Z"
          fill="white"/>
    <path d="M135.427 148.903C135.193 148.903 134.965 148.98 134.779 149.123C134.593 149.265 134.459 149.465 134.397 149.692L132.675 156.09C132.632 156.248 132.626 156.414 132.658 156.575C132.69 156.735 132.758 156.886 132.858 157.016C132.957 157.146 133.086 157.251 133.232 157.324C133.379 157.396 133.541 157.434 133.704 157.434H166.466C166.636 157.434 166.804 157.393 166.955 157.315C167.106 157.237 167.236 157.125 167.335 156.986C167.433 156.848 167.497 156.687 167.521 156.519C167.546 156.351 167.529 156.179 167.474 156.019L165.259 149.62C165.186 149.411 165.05 149.229 164.869 149.1C164.689 148.972 164.473 148.903 164.251 148.903H135.427Z"
          fill="#B8BDC3"/>
    <path d="M222.85 122.42V123.841H76.2881L76.3984 123.664V122.42H222.85Z" fill="#B8BDC3"/>
    <path d="M218.763 63.7664C232.505 63.7664 243.646 52.6258 243.646 38.8832C243.646 25.1406 232.505 14 218.763 14C205.02 14 193.879 25.1406 193.879 38.8832C193.879 52.6258 205.02 63.7664 218.763 63.7664Z"
          fill="#349D6E"/>
    <path d="M229.071 49.7251H208.454C208.077 49.7247 207.715 49.5748 207.449 49.3082C207.182 49.0417 207.032 48.6802 207.032 48.3032V35.8616C207.032 35.4846 207.182 35.1232 207.449 34.8566C207.715 34.59 208.077 34.4401 208.454 34.4397H229.071C229.448 34.4401 229.81 34.59 230.076 34.8566C230.343 35.1232 230.493 35.4846 230.493 35.8616V48.3032C230.493 48.6802 230.343 49.0417 230.076 49.3082C229.81 49.5748 229.448 49.7247 229.071 49.7251ZM208.454 35.8616V48.3032H229.072L229.071 35.8616L208.454 35.8616Z"
          fill="white"/>
    <path d="M225.161 35.8615H212.364V30.1739C212.364 26.0544 215.055 23.0645 218.762 23.0645C222.47 23.0645 225.161 26.0544 225.161 30.1739L225.161 35.8615ZM213.786 34.4396H223.739V30.1739C223.739 26.8252 221.693 24.4864 218.762 24.4864C215.832 24.4864 213.786 26.8252 213.786 30.1739L213.786 34.4396Z"
          fill="white"/>
    <path d="M218.762 43.149C219.548 43.149 220.184 42.5124 220.184 41.7271C220.184 40.9418 219.548 40.3052 218.762 40.3052C217.977 40.3052 217.341 40.9418 217.341 41.7271C217.341 42.5124 217.977 43.149 218.762 43.149Z"
          fill="white"/>
    <path d="M201.392 93.4812H98.9198C98.4167 93.4807 97.9344 93.2805 97.5787 92.9248C97.2229 92.569 97.0228 92.0867 97.0222 91.5836V66.1647C97.0228 65.6616 97.2229 65.1793 97.5787 64.8235C97.9344 64.4678 98.4167 64.2677 98.9198 64.2671H201.392C201.895 64.2677 202.377 64.4678 202.733 64.8235C203.089 65.1793 203.289 65.6616 203.289 66.1647V91.5836C203.289 92.0867 203.089 92.569 202.733 92.9248C202.377 93.2805 201.895 93.4807 201.392 93.4812ZM98.9198 65.0261C98.618 65.0265 98.3286 65.1465 98.1151 65.36C97.9017 65.5735 97.7816 65.8629 97.7813 66.1647V91.5836C97.7816 91.8855 97.9017 92.1749 98.1151 92.3884C98.3286 92.6018 98.618 92.7219 98.9198 92.7222H201.392C201.694 92.7219 201.983 92.6018 202.196 92.3884C202.41 92.1749 202.53 91.8855 202.53 91.5836V66.1647C202.53 65.8628 202.41 65.5734 202.196 65.36C201.983 65.1465 201.694 65.0265 201.392 65.0261L98.9198 65.0261Z"
          fill="#E6E6E6"/>
    <path d="M114.842 85.6288C119.111 85.6288 122.572 82.168 122.572 77.8989C122.572 73.6297 119.111 70.1689 114.842 70.1689C110.573 70.1689 107.112 73.6297 107.112 77.8989C107.112 82.168 110.573 85.6288 114.842 85.6288Z"
          fill="#E6E6E6"/>
    <path d="M132.694 72.7454C132.525 72.7451 132.357 72.7782 132.201 72.8428C132.044 72.9075 131.902 73.0023 131.782 73.122C131.662 73.2416 131.567 73.3838 131.502 73.5402C131.437 73.6966 131.404 73.8643 131.404 74.0337C131.404 74.203 131.437 74.3707 131.502 74.5272C131.567 74.6836 131.662 74.8257 131.782 74.9454C131.902 75.065 132.044 75.1599 132.201 75.2245C132.357 75.2891 132.525 75.3223 132.694 75.322H193.429C193.771 75.322 194.099 75.1863 194.34 74.9447C194.582 74.703 194.718 74.3754 194.718 74.0337C194.718 73.692 194.582 73.3643 194.34 73.1227C194.099 72.8811 193.771 72.7454 193.429 72.7454H132.694Z"
          fill="#E6E6E6"/>
    <path d="M132.694 80.4753C132.353 80.4753 132.025 80.6111 131.783 80.8527C131.542 81.0943 131.406 81.422 131.406 81.7637C131.406 82.1053 131.542 82.433 131.783 82.6746C132.025 82.9163 132.353 83.052 132.694 83.052H158.829C159.17 83.052 159.498 82.9163 159.74 82.6746C159.981 82.433 160.117 82.1053 160.117 81.7637C160.117 81.422 159.981 81.0943 159.74 80.8527C159.498 80.6111 159.17 80.4753 158.829 80.4753H132.694Z"
          fill="#E6E6E6"/>
</svg>
