<svg width="320" height="162" viewBox="0 0 320 162" fill="none" xmlns="http://www.w3.org/2000/svg">
<path d="M132.527 0.599023H162.066C185.871 0.599023 199.034 4.24819 221.793 9.75783C249.728 16.5207 278.943 20.7996 297.653 42.0115C308.638 54.4664 318.822 69.1814 319.921 85.2332C320.879 99.2343 313.035 110.764 301.061 119.663C276.533 137.894 242.505 146.733 211.73 153.02C176 160.319 137.952 161.111 101.754 155.62C77.4098 151.927 49.9999 143.361 34.3662 125.713C25.1491 115.308 23.6667 103.764 25.6019 91.0564C27.8993 75.9699 36.1278 62.6736 45.5975 50.1244C56.1925 36.0839 67.7596 21.8694 83.5437 11.9062C91.02 7.18705 99.1353 3.07965 108.311 1.56013C116.228 0.24911 124.512 0.599023 132.527 0.599023Z" fill="#ECF1F4"/>
<g clip-path="url(#clip0_4900_316391)">
<path d="M91.2137 161.01H12.2896C12.2668 161.01 12.2449 160.986 12.2288 160.943C12.2127 160.901 12.2036 160.844 12.2036 160.784C12.2036 160.724 12.2127 160.666 12.2288 160.624C12.2449 160.581 12.2668 160.558 12.2896 160.558H91.2137C91.2365 160.558 91.2584 160.581 91.2745 160.624C91.2906 160.666 91.2997 160.724 91.2997 160.784C91.2997 160.844 91.2906 160.901 91.2745 160.943C91.2584 160.986 91.2365 161.01 91.2137 161.01Z" fill="#CCCCCC"/>
<rect x="80.4521" y="16.8281" width="111.638" height="114.35" rx="3.61582" fill="white"/>
<path d="M156.642 102.566H76.0472C75.1338 102.565 74.2581 102.201 73.6122 101.555C72.9664 100.908 72.6031 100.032 72.6021 99.1174V73.2014C72.6031 72.2871 72.9664 71.4106 73.6122 70.7641C74.2581 70.1176 75.1338 69.754 76.0472 69.7529H156.642C157.555 69.754 158.431 70.1176 159.077 70.7641C159.722 71.4106 160.086 72.2871 160.087 73.2014V99.1174C160.086 100.032 159.722 100.908 159.077 101.555C158.431 102.201 157.555 102.565 156.642 102.566Z" fill="white"/>
<path d="M85.9448 95.7151C84.0565 95.7151 82.2106 95.1546 80.6406 94.1045C79.0705 93.0543 77.8468 91.5618 77.1242 89.8155C76.4016 88.0693 76.2125 86.1477 76.5809 84.2939C76.9493 82.4401 77.8586 80.7372 79.1938 79.4007C80.529 78.0641 82.2302 77.1539 84.0822 76.7852C85.9342 76.4164 87.8538 76.6057 89.5984 77.329C91.3429 78.0524 92.834 79.2773 93.8831 80.8489C94.9322 82.4205 95.4921 84.2682 95.4921 86.1583C95.4893 88.692 94.4824 91.1212 92.6926 92.9128C90.9027 94.7044 88.476 95.7122 85.9448 95.7151ZM85.9448 77.0196C84.1391 77.0196 82.374 77.5555 80.8726 78.5597C79.3712 79.5639 78.201 80.9912 77.51 82.6611C76.819 84.331 76.6382 86.1685 76.9905 87.9412C77.3427 89.7139 78.2123 91.3423 79.4891 92.6204C80.7659 93.8985 82.3927 94.7688 84.1637 95.1215C85.9347 95.4741 87.7703 95.2931 89.4386 94.6014C91.1068 93.9097 92.5327 92.7384 93.5359 91.2355C94.5391 89.7327 95.0745 87.9658 95.0745 86.1583C95.0718 83.7354 94.109 81.4125 92.3975 79.6993C90.6859 77.986 88.3653 77.0223 85.9448 77.0196Z" fill="#3F3D56"/>
<path d="M153.748 94.046H104.721C104.414 94.0462 104.11 93.986 103.827 93.8687C103.543 93.7514 103.285 93.5793 103.068 93.3623C102.851 93.1452 102.679 92.8875 102.562 92.6038C102.444 92.3202 102.384 92.0161 102.384 91.709C102.384 91.4019 102.444 91.0979 102.562 90.8142C102.679 90.5305 102.851 90.2728 103.068 90.0558C103.285 89.8387 103.543 89.6666 103.827 89.5493C104.11 89.432 104.414 89.3718 104.721 89.3721H153.748C154.055 89.3718 154.359 89.432 154.642 89.5493C154.926 89.6666 155.183 89.8387 155.4 90.0558C155.617 90.2728 155.79 90.5305 155.907 90.8142C156.024 91.0979 156.085 91.4019 156.085 91.709C156.085 92.0161 156.024 92.3202 155.907 92.6038C155.79 92.8875 155.617 93.1452 155.4 93.3623C155.183 93.5793 154.926 93.7514 154.642 93.8687C154.359 93.986 154.055 94.0462 153.748 94.046Z" fill="#2F2E41"/>
<path d="M120.188 84.1143H104.721C104.414 84.1146 104.11 84.0544 103.827 83.9371C103.543 83.8197 103.285 83.6477 103.068 83.4306C102.851 83.2136 102.679 82.9559 102.562 82.6722C102.444 82.3885 102.384 82.0845 102.384 81.7774C102.384 81.4703 102.444 81.1662 102.562 80.8826C102.679 80.5989 102.851 80.3412 103.068 80.1241C103.285 79.9071 103.543 79.735 103.827 79.6177C104.11 79.5004 104.414 79.4401 104.721 79.4404H120.188C120.494 79.4401 120.798 79.5004 121.082 79.6177C121.365 79.735 121.623 79.9071 121.84 80.1241C122.057 80.3412 122.229 80.5989 122.347 80.8826C122.464 81.1662 122.524 81.4703 122.524 81.7774C122.524 82.0845 122.464 82.3885 122.347 82.6722C122.229 82.9559 122.057 83.2136 121.84 83.4306C121.623 83.6477 121.365 83.8197 121.082 83.9371C120.798 84.0544 120.494 84.1146 120.188 84.1143Z" fill="#2F2E41"/>
<path d="M156.642 102.566H76.0472C75.1338 102.565 74.2581 102.201 73.6122 101.555C72.9664 100.908 72.6031 100.032 72.6021 99.1174V73.2014C72.6031 72.2871 72.9664 71.4106 73.6122 70.7641C74.2581 70.1176 75.1338 69.754 76.0472 69.7529H156.642C157.555 69.754 158.431 70.1176 159.077 70.7641C159.722 71.4106 160.086 72.2871 160.087 73.2014V99.1174C160.086 100.032 159.722 100.908 159.077 101.555C158.431 102.201 157.555 102.565 156.642 102.566ZM76.0472 69.9619C75.1891 69.9629 74.3665 70.3045 73.7598 70.9118C73.1531 71.5191 72.8118 72.3426 72.8108 73.2014V99.1174C72.8118 99.9763 73.1531 100.8 73.7598 101.407C74.3665 102.014 75.1891 102.356 76.0472 102.357H156.642C157.5 102.356 158.322 102.014 158.929 101.407C159.536 100.8 159.877 99.9763 159.878 99.1174V73.2014C159.877 72.3426 159.536 71.5191 158.929 70.9118C158.322 70.3045 157.5 69.9629 156.642 69.9619H76.0472Z" fill="#3F3D56"/>
<path d="M27.2307 103.676C27.1088 103.281 27.075 102.863 27.1317 102.453C27.1884 102.043 27.3342 101.651 27.5589 101.303C27.7836 100.956 28.0817 100.662 28.4321 100.442C28.7826 100.222 29.1769 100.082 29.5873 100.031L43.1037 84.2217L46.2562 87.535L32.7931 102.694C32.8324 103.389 32.6154 104.076 32.1832 104.622C31.7509 105.168 31.1335 105.537 30.4479 105.658C29.7623 105.779 29.0561 105.644 28.4631 105.279C27.8702 104.914 27.4317 104.344 27.2307 103.676Z" fill="#FFB8B8"/>
<path d="M38.7065 86.6906C38.6927 86.5207 38.7157 86.3498 38.7739 86.1896C38.8321 86.0295 38.9241 85.8837 39.0437 85.7624L43.2194 81.524C43.7332 80.8194 44.5051 80.3475 45.366 80.2119C46.2269 80.0763 47.1063 80.2881 47.8114 80.8007C48.5164 81.3134 48.9896 82.085 49.127 82.9464C49.2644 83.8078 49.0548 84.6886 48.5443 85.3955L45.7678 90.6816C45.6886 90.8324 45.5778 90.9644 45.443 91.0685C45.3082 91.1726 45.1525 91.2465 44.9867 91.2849C44.8208 91.3234 44.6486 91.3257 44.4818 91.2916C44.3149 91.2574 44.1574 91.1877 44.02 91.0871L39.1884 87.5525C39.0509 87.452 38.9366 87.323 38.8535 87.1742C38.7703 87.0255 38.7202 86.8605 38.7065 86.6906Z" fill="#349D6E"/>
<path d="M48.5116 76.99C52.0832 76.99 54.9787 74.0917 54.9787 70.5165C54.9787 66.9413 52.0832 64.043 48.5116 64.043C44.9399 64.043 42.0444 66.9413 42.0444 70.5165C42.0444 74.0917 44.9399 76.99 48.5116 76.99Z" fill="#FFB8B8"/>
<path d="M44.995 99.4845C44.8665 99.3889 44.7589 99.2678 44.6789 99.1289C44.5989 98.99 44.5483 98.8361 44.5301 98.6768C44.083 94.9357 43.4323 91.2218 42.581 87.5516C42.204 85.9024 42.4381 84.1723 43.2397 82.6828C44.0413 81.1933 45.3558 80.0458 46.9391 79.4536C48.5223 78.8613 50.2665 78.8646 51.8475 79.4627C53.4285 80.0609 54.7388 81.2133 55.5348 82.7057C58.0781 87.4837 58.2724 94.0435 58.2379 96.6422C58.234 96.9195 58.1329 97.1867 57.9523 97.3971C57.7717 97.6074 57.523 97.7476 57.2497 97.7932L45.9025 99.7051C45.8363 99.7163 45.7693 99.7219 45.7023 99.7218C45.447 99.7217 45.1988 99.6384 44.995 99.4845Z" fill="#2F2E41"/>
<path d="M69.4932 78.4064C69.4609 78.5486 69.4399 78.6932 69.4302 78.8387L58.1192 85.3704L55.3699 83.7861L52.439 87.6269L57.0338 90.9051C57.405 91.1699 57.852 91.307 58.3077 91.2959C58.7634 91.2848 59.2032 91.126 59.5611 90.8434L71.2247 81.6328C71.7511 81.8279 72.3243 81.8579 72.8681 81.7188C73.4119 81.5798 73.9006 81.2784 74.2691 80.8546C74.6376 80.4308 74.8684 79.9047 74.931 79.3464C74.9935 78.788 74.8847 78.2239 74.6191 77.7289C74.3535 77.234 73.9436 76.8317 73.444 76.5756C72.9445 76.3195 72.3788 76.2217 71.8224 76.2953C71.2659 76.3688 70.745 76.6102 70.329 76.9873C69.9129 77.3644 69.6214 77.8594 69.4932 78.4064Z" fill="#FFB8B8"/>
<path d="M57.7408 85.6801L54.0851 90.4228C53.9811 90.5577 53.8493 90.6686 53.6986 90.748C53.5479 90.8273 53.3819 90.8732 53.2118 90.8825C53.0418 90.8918 52.8718 90.8644 52.7133 90.802C52.5549 90.7396 52.4117 90.6438 52.2936 90.521L48.1551 86.2192C47.4685 85.6826 47.0225 84.8953 46.9149 84.03C46.8072 83.1647 47.0468 82.292 47.5809 81.6032C48.1151 80.9144 48.9003 80.4657 49.7644 80.3555C50.6286 80.2453 51.5011 80.4826 52.1907 81.0153L57.3813 83.9206C57.5299 84.0038 57.6588 84.1181 57.7593 84.2557C57.8598 84.3933 57.9295 84.551 57.9636 84.718C57.9977 84.8849 57.9955 85.0573 57.957 85.2234C57.9186 85.3894 57.8449 85.5452 57.7408 85.6801H57.7408Z" fill="#349D6E"/>
<path d="M63.4405 157.781L66.6686 157.781L67.4285 145.357L63.4399 145.317L63.4405 157.781Z" fill="#FFB8B8"/>
<path d="M62.6167 156.726L68.974 156.726H68.9742C69.5063 156.726 70.0331 156.83 70.5246 157.034C71.0162 157.238 71.4628 157.537 71.839 157.913C72.2152 158.29 72.5136 158.737 72.7172 159.229C72.9208 159.721 73.0256 160.248 73.0256 160.781V160.913L62.6169 160.913L62.6167 156.726Z" fill="#2F2E41"/>
<path d="M32.6333 157.781L35.8615 157.781L37.3971 145.317L32.6328 145.318L32.6333 157.781Z" fill="#FFB8B8"/>
<path d="M31.8096 156.726L38.1668 156.726H38.1671C38.6991 156.726 39.226 156.83 39.7175 157.034C40.209 157.238 40.6557 157.537 41.0319 157.913C41.4081 158.29 41.7065 158.737 41.9101 159.229C42.1137 159.721 42.2185 160.248 42.2185 160.781V160.913L31.8098 160.913L31.8096 156.726Z" fill="#2F2E41"/>
<path d="M36.1514 151.308L32.1452 150.785C31.9778 150.763 31.817 150.706 31.6736 150.616C31.5302 150.527 31.4074 150.409 31.3136 150.268C31.2198 150.128 31.157 149.969 31.1296 149.802C31.1021 149.635 31.1105 149.465 31.1543 149.301L36.9981 120.556C37.5791 117.766 37.981 114.941 38.2015 112.099C38.3721 109.786 39.0484 106.516 41.3013 104.071C42.2174 103.068 43.0725 102.011 43.8618 100.904L45.6307 98.4528L57.4143 96.5762L57.4224 96.7221C57.9315 106.095 60.3636 115.262 64.5672 123.653C66.4581 127.427 67.5435 131.553 67.7542 135.77L68.422 148.804C68.4303 148.969 68.4041 149.134 68.345 149.288C68.286 149.443 68.1953 149.583 68.0789 149.7C67.9629 149.818 67.8233 149.91 67.6692 149.97C67.5151 150.03 67.35 150.057 67.1848 150.049L63.355 149.875C63.0954 149.862 62.847 149.765 62.6479 149.598C62.4487 149.431 62.3099 149.203 62.2527 148.949L59.0551 134.669C59.0264 134.542 58.9712 134.422 58.8931 134.317L48.8583 120.925C48.7867 120.829 48.6906 120.755 48.5801 120.71C48.4696 120.665 48.349 120.65 48.2311 120.669C48.1132 120.687 48.0025 120.737 47.9108 120.813C47.819 120.89 47.7498 120.989 47.7103 121.102L37.423 150.523C37.341 150.755 37.1894 150.956 36.9889 151.098C36.7884 151.24 36.5489 151.317 36.3032 151.318C36.2524 151.318 36.2017 151.315 36.1514 151.308Z" fill="#2F2E41"/>
<path d="M41.3608 66.0232C41.8745 64.4643 42.2537 62.8643 42.4942 61.2406C42.5698 60.2953 42.3279 59.2782 41.6402 58.626C40.3531 57.4054 38.1664 57.9867 36.8204 59.1419C34.8751 60.8114 33.905 63.3771 33.5383 65.9156C33.1717 68.4541 33.333 71.0355 33.2447 73.5989C33.1565 76.1623 32.7902 78.798 31.4846 81.005C30.1791 83.212 27.7563 84.9061 25.2009 84.7183C24.1694 84.6625 23.1899 84.247 22.4325 83.5439C22.0607 83.1899 21.7791 82.7517 21.6114 82.2663C21.4436 81.7808 21.3946 81.2621 21.4684 80.7538C20.1623 83.0949 20.8244 86.2679 22.7726 88.1083C24.7208 89.9487 27.7176 90.469 30.2788 89.6832C32.84 88.8974 34.948 86.9272 36.2071 84.5604C37.4662 82.1936 37.9276 79.4595 37.8607 76.7789C37.8094 74.7204 37.4598 72.645 37.8073 70.6154C38.1548 68.5859 39.4238 66.5252 41.4247 66.0472L41.3608 66.0232Z" fill="#2F2E41"/>
<path d="M50.3463 68.6919C50.6875 69.8327 51.9924 70.5361 53.1663 70.3432C54.3402 70.1502 55.3055 69.1825 55.6622 68.0466C55.9846 66.8863 55.8526 65.6466 55.293 64.5805C54.9847 63.9415 54.5535 63.3696 54.024 62.8976C53.4946 62.4255 52.8774 62.0627 52.2077 61.8297C51.5343 61.6063 50.8171 61.5482 50.1165 61.6602C49.4159 61.7723 48.7525 62.0512 48.1821 62.4736C48.1213 62.2173 47.9934 61.9819 47.8116 61.7915C47.6298 61.6011 47.4005 61.4627 47.1475 61.3905C46.6379 61.2531 46.1001 61.261 45.5948 61.4135C44.1389 61.8288 42.8773 62.7475 42.0343 64.0063C41.2021 65.2612 40.6515 66.6817 40.4206 68.1701C40.0233 70.4021 40.1699 72.8412 41.4222 74.7302C42.6746 76.6193 45.2367 77.7348 47.3153 76.8342C47.4449 76.1709 47.1379 75.5031 46.7826 74.9284C46.4274 74.3536 46.0064 73.7938 45.87 73.1319C45.7335 72.47 45.9951 71.6604 46.6347 71.444C47.1803 71.2593 47.7621 71.5585 48.3369 71.5946C48.6634 71.6151 48.9895 71.5494 49.2825 71.4039C49.5756 71.2584 49.8252 71.0384 50.0065 70.7659C50.1878 70.4933 50.2942 70.1778 50.3153 69.8511C50.3363 69.5244 50.2711 69.1978 50.1262 68.9043L50.3463 68.6919Z" fill="#2F2E41"/>
<path d="M90.7868 81.5146H89.7051V85.2628H90.7868V81.5146Z" fill="#E7E7E7"/>
<path d="M91.5015 84.5579L88.8705 81.4248L83.5894 81.4731L80.3857 84.5966L80.4505 84.6383H80.4273V91.1352H91.4945V84.6383L91.5015 84.5579Z" fill="#E7E7E7"/>
<path d="M88.8728 81.4316L85.5859 85.2889V91.1353H91.4939V84.5551L88.8728 81.4316Z" fill="#CBCBCB"/>
<path d="M89.1641 87.9023H87.9575V88.9699H89.1641V87.9023Z" fill="white"/>
<path d="M89.1641 86.0547H87.9575V87.1053H89.1641V86.0547Z" fill="white"/>
<path d="M83.8023 87.6191H82.5957V88.6867H83.8023V87.6191Z" fill="white"/>
<path d="M83.8023 85.7715H82.5957V86.8221H83.8023V85.7715Z" fill="white"/>
<path d="M94.5945 23.7725C92.8225 23.7725 91.1231 24.4771 89.87 25.7313C88.617 26.9856 87.9131 28.6867 87.9131 30.4604C87.9131 32.2342 88.617 33.9353 89.87 35.1896C91.123 36.4438 92.8224 37.1485 94.5945 37.1485H94.5945C96.3665 37.1485 98.066 36.4438 99.319 35.1896C100.572 33.9353 101.276 32.2342 101.276 30.4605C101.276 28.6867 100.572 26.9856 99.319 25.7313C98.066 24.4771 96.3665 23.7725 94.5945 23.7725Z" fill="#E6E6E6"/>
<path d="M94.5945 51.7783C92.8225 51.7783 91.1231 52.4829 89.87 53.7372C88.617 54.9914 87.9131 56.6925 87.9131 58.4663C87.9131 60.2401 88.617 61.9412 89.87 63.1954C91.123 64.4497 92.8224 65.1543 94.5945 65.1543H94.5945C96.3665 65.1543 98.066 64.4497 99.319 63.1954C100.572 61.9412 101.276 60.2401 101.276 58.4663C101.276 56.6926 100.572 54.9914 99.319 53.7372C98.066 52.4829 96.3665 51.7783 94.5945 51.7783Z" fill="#E6E6E6"/>
<path d="M94.5945 107.79C92.8225 107.79 91.1231 108.495 89.87 109.749C88.617 111.003 87.9131 112.704 87.9131 114.478C87.9131 116.252 88.617 117.953 89.87 119.207C91.123 120.461 92.8224 121.166 94.5945 121.166H94.5945C96.3665 121.166 98.066 120.461 99.319 119.207C100.572 117.953 101.276 116.252 101.276 114.478C101.276 112.704 100.572 111.003 99.319 109.749C98.066 108.495 96.3665 107.79 94.5945 107.79Z" fill="#E6E6E6"/>
<rect x="108.475" y="32.6475" width="71.4124" height="3.61582" rx="1.80791" fill="#E6E6E6"/>
<rect x="108.475" y="60.6699" width="71.4124" height="3.61582" rx="1.80791" fill="#E6E6E6"/>
<rect x="108.475" y="116.716" width="71.4124" height="3.61582" rx="1.80791" fill="#E6E6E6"/>
<rect x="108.475" y="25.416" width="27.5706" height="3.61582" rx="1.80791" fill="#E6E6E6"/>
<rect x="108.475" y="53.4385" width="27.5706" height="3.61582" rx="1.80791" fill="#E6E6E6"/>
<rect x="108.475" y="109.483" width="27.5706" height="3.61582" rx="1.80791" fill="#E6E6E6"/>
</g>
<defs>
<clipPath id="clip0_4900_316391">
<rect width="192.09" height="152.316" fill="white" transform="translate(0 8.69238)"/>
</clipPath>
</defs>
</svg>
