<svg width="31" height="32" viewBox="0 0 31 32" fill="none" xmlns="http://www.w3.org/2000/svg">
<circle cx="15.5" cy="16.1699" r="15.5" fill="#004B76"/>
<path d="M10.5 20.6699C10.5 20.9461 10.7239 21.1699 11 21.1699H15.5C15.7761 21.1699 16 20.9461 16 20.6699C16 20.3938 15.7761 20.1699 15.5 20.1699H11.5V16.1699C11.5 15.8938 11.2761 15.6699 11 15.6699C10.7239 15.6699 10.5 15.8938 10.5 16.1699V20.6699ZM20.5 11.6699C20.5 11.3938 20.2761 11.1699 20 11.1699H15.5C15.2239 11.1699 15 11.3938 15 11.6699C15 11.9461 15.2239 12.1699 15.5 12.1699H19.5V16.1699C19.5 16.4461 19.7239 16.6699 20 16.6699C20.2761 16.6699 20.5 16.4461 20.5 16.1699V11.6699ZM11.3536 21.0235L20.3536 12.0235L19.6464 11.3164L10.6464 20.3164L11.3536 21.0235Z" fill="white"/>
</svg>
