<svg width="121" height="161" viewBox="0 0 121 161" fill="none" xmlns="http://www.w3.org/2000/svg">
    <path d="M109.205 149.752H22.6855C19.7515 149.748 16.9386 148.342 14.864 145.842C12.7893 143.342 11.6223 139.953 11.619 136.418V13.9924C11.6223 10.4574 12.7893 7.06829 14.864 4.56864C16.9386 2.06899 19.7515 0.662929 22.6855 0.658936H103.178L120.272 17.0749V136.418C120.268 139.953 119.101 143.342 117.027 145.842C114.952 148.342 112.139 149.748 109.205 149.752Z"
          fill="#B8BDC3"/>
    <path d="M22.4632 4.55719C20.3632 4.56003 18.3498 5.56047 16.8648 7.33903C15.3798 9.11759 14.5445 11.529 14.5421 14.0443V136.367C14.5445 138.883 15.3798 141.294 16.8648 143.073C18.3498 144.851 20.3632 145.852 22.4632 145.854H109.427C111.527 145.852 113.54 144.851 115.025 143.073C116.51 141.294 117.346 138.883 117.348 136.367V18.9718L102.249 4.55719H22.4632Z"
          fill="white"/>
    <path d="M93.3121 79.2089H53.0137C52.5137 79.2089 52.0341 79.4491 51.6806 79.8765C51.327 80.304 51.1284 80.8838 51.1284 81.4884C51.1284 82.0929 51.327 82.6727 51.6806 83.1002C52.0341 83.5276 52.5137 83.7678 53.0137 83.7678H93.3121C93.8121 83.7678 94.2916 83.5276 94.6451 83.1002C94.9987 82.6727 95.1973 82.0929 95.1973 81.4884C95.1973 80.8838 94.9987 80.304 94.6451 79.8765C94.2916 79.4491 93.8121 79.2089 93.3121 79.2089Z"
          fill="#B8BDC3"/>
    <path d="M100.917 86.8065H53.0071C52.5089 86.8065 52.031 87.0466 51.6787 87.4741C51.3263 87.9016 51.1284 88.4814 51.1284 89.0859C51.1284 89.6904 51.3263 90.2702 51.6787 90.6977C52.031 91.1252 52.5089 91.3653 53.0071 91.3653H100.917C101.415 91.3653 101.893 91.1252 102.245 90.6977C102.597 90.2702 102.795 89.6904 102.795 89.0859C102.795 88.4814 102.597 87.9016 102.245 87.4741C101.893 87.0466 101.415 86.8065 100.917 86.8065Z"
          fill="#B8BDC3"/>
    <path d="M40.9716 85.4337C40.972 86.4652 40.7696 87.4868 40.3759 88.44C39.9823 89.3932 39.4051 90.2593 38.6773 90.989C37.9495 91.7186 37.0854 92.2974 36.1344 92.6924C35.1833 93.0873 34.1639 93.2907 33.1344 93.2908C33.0671 93.2922 32.9997 93.2895 32.9326 93.2828C31.3914 93.2431 29.896 92.749 28.6337 91.862C27.3713 90.9751 26.398 89.7348 25.8356 88.2964C25.2732 86.8579 25.1467 85.2852 25.4718 83.7751C25.7969 82.265 26.5593 80.8844 27.6636 79.8063C28.7678 78.7281 30.1648 78.0003 31.6798 77.7137C33.1948 77.4272 34.7605 77.5947 36.181 78.1954C37.6014 78.796 38.8136 79.8031 39.6657 81.0906C40.5178 82.3781 40.9721 83.8888 40.9716 85.4337Z"
          fill="#B8BDC3"/>
    <path d="M93.312 117.67H53.0137C52.5137 117.67 52.0342 117.429 51.6806 117.002C51.327 116.574 51.1284 115.995 51.1284 115.39C51.1284 114.786 51.327 114.206 51.6806 113.778C52.0342 113.351 52.5137 113.111 53.0137 113.111H93.312C93.812 113.111 94.2916 113.351 94.6451 113.778C94.9987 114.206 95.1973 114.786 95.1973 115.39C95.1973 115.995 94.9987 116.574 94.6451 117.002C94.2916 117.429 93.812 117.67 93.312 117.67Z"
          fill="#B8BDC3"/>
    <path d="M100.914 124.797H53.0047C52.5068 124.797 52.0296 124.556 51.6778 124.129C51.326 123.701 51.1284 123.122 51.1284 122.518C51.1284 121.914 51.326 121.335 51.6778 120.907C52.0296 120.48 52.5068 120.239 53.0047 120.239H100.914C101.161 120.238 101.406 120.297 101.634 120.411C101.862 120.526 102.07 120.693 102.244 120.905C102.419 121.117 102.558 121.368 102.652 121.645C102.747 121.922 102.795 122.218 102.795 122.518C102.795 122.818 102.747 123.114 102.652 123.391C102.558 123.668 102.419 123.919 102.244 124.131C102.07 124.343 101.862 124.51 101.634 124.625C101.406 124.739 101.161 124.798 100.914 124.797Z"
          fill="#B8BDC3"/>
    <path d="M33.134 126.9C37.4631 126.9 40.9726 123.384 40.9726 119.046C40.9726 114.708 37.4631 111.192 33.134 111.192C28.8049 111.192 25.2955 114.708 25.2955 119.046C25.2955 123.384 28.8049 126.9 33.134 126.9Z"
          fill="#B8BDC3"/>
    <path d="M120.038 17.2248H106.467C105.476 17.2248 104.526 16.7589 103.825 15.9295C103.125 15.1001 102.731 13.9752 102.731 12.8022V0.935345C102.731 0.883391 102.744 0.83249 102.767 0.788477C102.79 0.744464 102.824 0.709122 102.863 0.686504C102.903 0.663886 102.947 0.654908 102.99 0.660599C103.034 0.666291 103.075 0.686422 103.11 0.718684L120.183 16.7317C120.221 16.7674 120.249 16.8161 120.262 16.8712C120.276 16.9263 120.275 16.9851 120.259 17.0393C120.243 17.0935 120.213 17.1405 120.173 17.1737C120.134 17.207 120.087 17.2248 120.038 17.2248Z"
          fill="#B8BDC3"/>
    <path opacity="0.5"
          d="M92.3969 58.7092H40.7151L41.0831 34.4395L55.5973 31.923H77.3019L92.0289 33.7053L92.3969 58.7092Z"
          fill="#B8BDC3"/>
    <g opacity="0.7">
        <path opacity="0.7" d="M60.5268 22.6982H56.6484V30.3522H60.5268V22.6982Z"
              fill="url(#paint0_linear_4884_311047)"/>
    </g>
    <g opacity="0.7">
        <path opacity="0.7" d="M56.6466 40.0912V31.8185H39.8L36.939 40.0912V40.9391H56.753V40.0912H56.6466Z"
              fill="url(#paint1_linear_4884_311047)"/>
    </g>
    <path d="M56.649 40.1001H37.1488L39.9791 31.923H56.649V40.1001Z" fill="#349D6E"/>
    <path opacity="0.1" d="M56.649 40.1001H37.1488L39.9791 31.923H56.649V40.1001Z" fill="black"/>
    <path d="M56.7536 40.1004H37.1488V40.9392H56.7536V40.1004Z" fill="#349D6E"/>
    <g opacity="0.7">
        <path opacity="0.7" d="M92.9357 31.7122H76.0439V40.0787H75.9375V40.9373H95.8057V40.0787L92.9357 31.7122Z"
              fill="url(#paint2_linear_4884_311047)"/>
    </g>
    <path d="M76.0428 40.1001H95.543L92.7127 31.923H76.0428V40.1001Z" fill="#349D6E"/>
    <path opacity="0.1" d="M76.0428 40.1001H95.543L92.7127 31.923H76.0428V40.1001Z" fill="black"/>
    <path d="M75.9379 40.9391H95.5427V40.1003H75.9379V40.9391Z" fill="#349D6E"/>
    <path opacity="0.5" d="M52.9792 44.2419H42.3903V50.846H52.9792V44.2419Z" fill="#349D6E"/>
    <path opacity="0.1" d="M53.6075 50.3748H41.7612V51.5275H53.6075V50.3748Z" fill="black"/>
    <path d="M53.6073 50.2703H41.7611V51.423H53.6073V50.2703Z" fill="#4E596A"/>
    <g opacity="0.1">
        <path opacity="0.1" d="M52.9792 44.2419H42.3903V46.863H52.9792V44.2419Z" fill="black"/>
    </g>
    <path opacity="0.5" d="M90.4067 44.2419H79.8177V50.846H90.4067V44.2419Z" fill="#349D6E"/>
    <path opacity="0.1" d="M91.0348 50.3748H79.1886V51.5275H91.0348V50.3748Z" fill="black"/>
    <path d="M91.0348 50.2703H79.1886V51.423H91.0348V50.2703Z" fill="#4E596A"/>
    <g opacity="0.1">
        <path opacity="0.1" d="M90.4076 44.2419H79.8187V46.863H90.4076V44.2419Z" fill="black"/>
    </g>
    <g opacity="0.7">
        <path opacity="0.7"
              d="M79.311 32.4134L66.3788 22.4125L53.8633 32.4062L52.882 31.1777L66.3643 20.4138L80.2724 31.1705L79.311 32.4134Z"
              fill="url(#paint3_linear_4884_311047)"/>
    </g>
    <path opacity="0.1" d="M54.9187 40.9391H40.9745V41.0961H54.9187V40.9391Z" fill="black"/>
    <path opacity="0.1" d="M92.1368 40.9391H78.0356V41.0961H92.1368V40.9391Z" fill="black"/>
    <path d="M60.4223 22.8024H56.7532V30.3499H60.4223V22.8024Z" fill="#4E596A"/>
    <g opacity="0.7">
        <path opacity="0.7" d="M78.036 58.7085H54.5527V29.9831L66.3954 29.7216L78.036 29.9831V58.7085Z"
              fill="url(#paint4_linear_4884_311047)"/>
    </g>
    <path d="M77.7726 58.7095H54.9189V29.9842L66.3467 21.8594L77.7726 29.9842V58.7095Z" fill="white"/>
    <path d="M69.2273 49.064H63.462V58.7095H69.2273V49.064Z" fill="#4E596A"/>
    <path opacity="0.1" d="M72.2682 40.4152H60.422V41.5679H72.2682V40.4152Z" fill="black"/>
    <path opacity="0.5" d="M71.6412 34.2828H61.0522V40.8869H71.6412V34.2828Z" fill="#349D6E"/>
    <path d="M72.2682 40.311H60.422V41.4637H72.2682V40.311Z" fill="#4E596A"/>
    <g opacity="0.1">
        <path opacity="0.1" d="M71.6413 34.2828H61.0524V36.9038H71.6413V34.2828Z" fill="black"/>
    </g>
    <path d="M79.3112 32.5174L66.379 22.5166L53.8635 32.5102L52.8822 31.2818L66.3646 20.5179L80.2727 31.2746L79.3112 32.5174Z"
          fill="#349D6E"/>
    <path d="M68.3899 54.306C68.6211 54.306 68.8084 54.1186 68.8084 53.8875C68.8084 53.6564 68.6211 53.469 68.3899 53.469C68.1588 53.469 67.9714 53.6564 67.9714 53.8875C67.9714 54.1186 68.1588 54.306 68.3899 54.306Z"
          fill="#E0E0E0"/>
    <path d="M35.1729 58.832H98.3204" stroke="#B8BDC3" stroke-width="0.481481"/>
    <path d="M25.6676 160.895C39.6753 160.895 51.0307 149.54 51.0307 135.532C51.0307 121.525 39.6753 110.169 25.6676 110.169C11.66 110.169 0.304565 121.525 0.304565 135.532C0.304565 149.54 11.66 160.895 25.6676 160.895Z"
          fill="#01854A"/>
    <path d="M33.1832 137.266L26.876 143.762C26.7387 143.901 26.5747 144.01 26.394 144.082C26.2132 144.155 26.0196 144.19 25.8248 144.186H25.8038C25.6086 144.19 25.4145 144.155 25.2333 144.082C25.0521 144.009 24.8875 143.901 24.7495 143.762L18.4453 137.266C18.4243 137.242 18.4003 137.221 18.3792 137.2C18.1276 136.93 17.9933 136.571 18.0057 136.203C18.0181 135.834 18.1762 135.485 18.4453 135.233C18.7332 134.962 19.1135 134.811 19.5086 134.811C19.9037 134.811 20.2839 134.962 20.5718 135.233L24.3081 139.137V129.069C24.3255 128.682 24.4918 128.316 24.7723 128.047C25.0529 127.779 25.4261 127.629 25.8143 127.629C26.2025 127.629 26.5757 127.779 26.8562 128.047C27.1368 128.316 27.3031 128.682 27.3205 129.069V139.137L31.0538 135.233C31.3423 134.962 31.723 134.811 32.1185 134.811C32.5141 134.811 32.8948 134.962 33.1832 135.233C33.2044 135.254 33.2253 135.275 33.2494 135.299C33.5003 135.569 33.6342 135.927 33.6218 136.296C33.6094 136.664 33.4517 137.013 33.1832 137.266Z"
          fill="white"/>
    <defs>
        <linearGradient id="paint0_linear_4884_311047" x1="1318.1" y1="958.395" x2="1318.1" y2="633.714"
                        gradientUnits="userSpaceOnUse">
            <stop stop-color="#808080" stop-opacity="0.25"/>
            <stop offset="0.54" stop-color="#808080" stop-opacity="0.12"/>
            <stop offset="1" stop-color="#808080" stop-opacity="0.1"/>
        </linearGradient>
        <linearGradient id="paint1_linear_4884_311047" x1="5191.77" y1="1682.18" x2="5191.77" y2="1221.05"
                        gradientUnits="userSpaceOnUse">
            <stop stop-color="#808080" stop-opacity="0.25"/>
            <stop offset="0.54" stop-color="#808080" stop-opacity="0.12"/>
            <stop offset="1" stop-color="#808080" stop-opacity="0.1"/>
        </linearGradient>
        <linearGradient id="paint2_linear_4884_311047" x1="9543.13" y1="1701.01" x2="9543.13" y2="1229.23"
                        gradientUnits="userSpaceOnUse">
            <stop stop-color="#808080" stop-opacity="0.25"/>
            <stop offset="0.54" stop-color="#808080" stop-opacity="0.12"/>
            <stop offset="1" stop-color="#808080" stop-opacity="0.1"/>
        </linearGradient>
        <linearGradient id="paint3_linear_4884_311047" x1="10174.8" y1="1624.64" x2="10174.8" y2="826.425"
                        gradientUnits="userSpaceOnUse">
            <stop stop-color="#808080" stop-opacity="0.25"/>
            <stop offset="0.54" stop-color="#808080" stop-opacity="0.12"/>
            <stop offset="1" stop-color="#808080" stop-opacity="0.1"/>
        </linearGradient>
        <linearGradient id="paint4_linear_4884_311047" x1="8695.67" y1="8130.41" x2="8695.67" y2="3472.5"
                        gradientUnits="userSpaceOnUse">
            <stop stop-color="#808080" stop-opacity="0.25"/>
            <stop offset="0.54" stop-color="#808080" stop-opacity="0.12"/>
            <stop offset="1" stop-color="#808080" stop-opacity="0.1"/>
        </linearGradient>
    </defs>
</svg>
