<svg width="131" height="124" viewBox="0 0 131 124" fill="none" xmlns="http://www.w3.org/2000/svg">
    <rect x="41.6357" y="2.01112" width="79.7123" height="100.969" rx="7.1741"
          transform="rotate(16.0804 41.6357 2.01112)" fill="white" stroke="#B8BDC3" stroke-width="2.65708"/>
    <path d="M50.6505 33.092L93.7982 45.53" stroke="#87BCA5" stroke-width="3.4542" stroke-linecap="round"/>
    <path d="M48.0009 42.2833L69.447 48.4655" stroke="#87BCA5" stroke-width="3.4542" stroke-linecap="round"/>
    <path d="M2.17925 47.4763C2.17925 43.5141 5.3912 40.3022 9.35335 40.3022H19.8965C21.0894 40.3022 22.2635 40.5996 23.3125 41.1676L40.2308 50.3284C41.6683 51.1068 43.2772 51.5144 44.912 51.5144H62.7252H122.013C125.976 51.5144 129.187 54.7264 129.187 58.6886V115.497C129.187 119.46 125.976 122.672 122.013 122.672H9.35334C5.39119 122.672 2.17925 119.46 2.17925 115.497V47.4763Z"
          fill="white" stroke="#B8BDC3" stroke-width="2.65708"/>
    <path d="M65.6523 106.798C77.9415 106.798 87.9038 96.8354 87.9038 84.5463C87.9038 72.2571 77.9415 62.2948 65.6523 62.2948C53.3632 62.2948 43.4009 72.2571 43.4009 84.5463C43.4009 96.8354 53.3632 106.798 65.6523 106.798Z"
          fill="#01854A"/>
    <path d="M72.2461 86.0667L66.7126 91.7662C66.5922 91.8875 66.4483 91.9831 66.2897 92.0469C66.1311 92.1108 65.9612 92.1417 65.7903 92.1377H65.7719C65.6007 92.1415 65.4304 92.1105 65.2714 92.0466C65.1125 91.9828 64.9681 91.8874 64.847 91.7662L59.3162 86.0667C59.2978 86.0456 59.2767 86.0272 59.2582 86.0087C59.0375 85.7719 58.9196 85.4573 58.9305 85.1338C58.9414 84.8103 59.0801 84.5042 59.3162 84.2828C59.5688 84.0454 59.9024 83.9133 60.249 83.9133C60.5956 83.9133 60.9292 84.0454 61.1818 84.2828L64.4597 87.7083V78.8758C64.475 78.5356 64.6209 78.2144 64.867 77.9791C65.1132 77.7437 65.4406 77.6124 65.7811 77.6124C66.1217 77.6124 66.4491 77.7437 66.6953 77.9791C66.9414 78.2144 67.0873 78.5356 67.1025 78.8758V87.7083L70.3779 84.2828C70.631 84.0454 70.965 83.9133 71.312 83.9133C71.659 83.9133 71.993 84.0454 72.2461 84.2828C72.2646 84.3013 72.283 84.3197 72.3041 84.3408C72.5242 84.5779 72.6417 84.8924 72.6308 85.2157C72.6199 85.539 72.4816 85.845 72.2461 86.0667Z"
          fill="white"/>
</svg>
