<svg width="696" height="356" fill="none" xmlns="http://www.w3.org/2000/svg">
    <path d="M281.216.094h65.355c52.669 0 81.792 8.074 132.146 20.264 61.808 14.963 126.445 24.43 167.841 71.36 24.305 27.557 46.836 60.114 49.267 95.629 2.12 30.977-15.235 56.486-41.726 76.177-54.269 40.336-129.555 59.89-197.646 73.8-79.053 16.15-163.234 17.903-243.321 5.754-53.862-8.17-114.507-27.123-149.096-66.17-20.393-23.021-23.673-48.562-19.391-76.677 5.083-33.379 23.289-62.797 44.24-90.562 23.442-31.065 49.034-62.515 83.956-84.558 16.542-10.441 34.497-19.529 54.798-22.89C245.155-.68 263.483.093 281.216.093Z"
          fill="#ECF1F4"/>
    <g clip-path="url(#a)">
        <path d="M26.056 331.472a12.326 12.326 0 0 0 11.918-2.101c4.174-3.506 5.483-9.281 6.547-14.629l3.15-15.821-6.594 4.544c-4.742 3.268-9.591 6.64-12.874 11.373-3.284 4.733-4.716 11.195-2.079 16.316"
              fill="#E6E6E6"/>
        <path d="M27.075 351.727c-.83-6.051-1.684-12.181-1.1-18.297.517-5.432 2.173-10.736 5.544-15.088a25.101 25.101 0 0 1 6.434-5.835c.643-.406 1.236.614.595 1.019a23.852 23.852 0 0 0-9.43 11.387c-2.054 5.226-2.384 10.924-2.03 16.476.214 3.357.668 6.692 1.124 10.024a.612.612 0 0 1-.412.725.591.591 0 0 1-.725-.412v.001Z"
              fill="#F2F2F2"/>
        <path d="M33.049 342.017a9.082 9.082 0 0 0 7.916 4.09c4.008-.19 7.348-2.989 10.355-5.647l8.894-7.859-5.886-.282c-4.234-.203-8.576-.393-12.609.915-4.032 1.308-7.75 4.451-8.487 8.628"
              fill="#E6E6E6"/>
        <path d="M24.729 355.205c3.995-7.075 8.63-14.939 16.911-17.452a18.862 18.862 0 0 1 7.113-.735c.755.065.566 1.23-.187 1.165a17.518 17.518 0 0 0-11.352 3.006c-3.2 2.18-5.692 5.211-7.801 8.425-1.292 1.97-2.45 4.022-3.607 6.072-.37.655-1.451.182-1.077-.481Z"
              fill="#F2F2F2"/>
        <path d="M344.44 267.86H124.155a2.565 2.565 0 0 1-2.56-2.562V60.562a2.567 2.567 0 0 1 2.56-2.562H344.44a2.563 2.563 0 0 1 2.56 2.562v204.735a2.562 2.562 0 0 1-2.56 2.562v.001Z"
              fill="#fff"/>
        <path d="M344.44 267.86H124.155a2.565 2.565 0 0 1-2.56-2.562V60.562a2.567 2.567 0 0 1 2.56-2.562H344.44a2.563 2.563 0 0 1 2.56 2.562v204.735a2.562 2.562 0 0 1-2.56 2.562v.001ZM124.155 59.023a1.54 1.54 0 0 0-1.535 1.536v204.738a1.54 1.54 0 0 0 1.535 1.536H344.44a1.54 1.54 0 0 0 1.535-1.536V60.562a1.54 1.54 0 0 0-1.535-1.536l-220.285-.003Z"
              fill="#CACACA"/>
        <path d="M228.243 111.201a1.74 1.74 0 0 0 0 3.479h95.38a1.738 1.738 0 0 0 0-3.479h-95.38ZM228.243 121.64a1.741 1.741 0 0 0-1.227 2.968c.326.326.767.51 1.227.511h48.693a1.738 1.738 0 0 0 1.734-1.74 1.74 1.74 0 0 0-1.734-1.739h-48.693ZM144.878 177.775a1.742 1.742 0 0 0-1.734 1.74 1.742 1.742 0 0 0 1.734 1.74h178.838a1.741 1.741 0 0 0 0-3.48H144.878ZM144.878 188.214a1.738 1.738 0 0 0-1.734 1.739 1.74 1.74 0 0 0 1.734 1.74h132.151a1.738 1.738 0 0 0 1.734-1.74 1.74 1.74 0 0 0-1.734-1.739H144.878ZM144.878 198.416a1.738 1.738 0 0 0-1.734 1.74 1.74 1.74 0 0 0 1.734 1.739h178.838a1.737 1.737 0 0 0 1.734-1.739 1.741 1.741 0 0 0-1.734-1.74H144.878ZM144.878 208.855a1.742 1.742 0 0 0-1.227 2.969c.325.326.766.51 1.227.511h132.151a1.738 1.738 0 0 0 1.734-1.74 1.742 1.742 0 0 0-1.734-1.74H144.878ZM144.878 219.329a1.738 1.738 0 0 0-1.734 1.74 1.74 1.74 0 0 0 1.734 1.739h178.838a1.737 1.737 0 0 0 1.734-1.739 1.741 1.741 0 0 0-1.734-1.74H144.878ZM144.878 229.768a1.74 1.74 0 0 0 0 3.479h132.151a1.738 1.738 0 0 0 1.734-1.74 1.74 1.74 0 0 0-1.734-1.739H144.878Z"
              fill="#E4E4E4"/>
        <path d="M173.204 143.153a24.945 24.945 0 0 1-13.874-4.212 24.983 24.983 0 0 1-9.198-11.216 25.012 25.012 0 0 1 5.413-27.238 24.955 24.955 0 0 1 27.216-5.418 24.98 24.98 0 0 1 11.208 9.205 25.013 25.013 0 0 1 4.209 13.886 25.035 25.035 0 0 1-7.323 17.665 24.993 24.993 0 0 1-17.651 7.328Z"
              fill="#01723F"/>
        <path d="M97.396 237.656a6.25 6.25 0 0 0-4.916-5.811 6.234 6.234 0 0 0-2.705.015l-8.255-11.642-8.292 3.295 11.888 16.277a6.275 6.275 0 0 0 12.28-2.134Z"
              fill="#A0616A"/>
        <path d="M81.308 236.793 56.33 204.364l9.359-29.437c.686-7.401 5.313-9.468 5.51-9.552l.3-.129 8.144 21.735-5.98 15.958 14.678 24.704-7.033 9.15Z"
              fill="#B8BDC3"/>
        <path d="M168.051 136.825a6.236 6.236 0 0 0-5.408 5.354 6.253 6.253 0 0 0 .223 2.698l-10.96 9.137 3.924 8.02 15.297-13.121a6.282 6.282 0 0 0-3.076-12.088Z"
              fill="#FFB8B8"/>
        <path d="m168.435 152.944-30.376 27.43-30.049-7.063c-7.425-.112-9.842-4.569-9.941-4.759l-.152-.29 21.023-9.806 16.36 4.732 23.476-16.554 9.659 6.31Z"
              fill="#B8BDC3"/>
        <path d="M115.821 347.943h8.161l3.882-31.505-12.045.001.002 31.504Z" fill="#FFB8B8"/>
        <path d="m139.722 355.526-25.65.002v-9.918l18.453-.001c1.909 0 3.739.758 5.089 2.109a7.21 7.21 0 0 1 2.108 5.092v2.716Z"
              fill="#2F2E41"/>
        <path d="M83.201 347.943h8.162l3.882-31.505-12.045.001.001 31.504Z" fill="#FFB8B8"/>
        <path d="m107.103 355.526-25.65.002v-9.918l18.453-.001a7.19 7.19 0 0 1 5.089 2.109 7.22 7.22 0 0 1 1.56 2.336c.361.874.547 1.81.547 2.756l.001 2.716Z"
              fill="#2F2E41"/>
        <path d="m80.299 232.95.665 46.636.667 61.292 14.644-1.333 7.323-84.609 9.32 84.609h15.119l1.523-85.275-5.325-18.655-43.936-2.665Z"
              fill="#4E596A"/>
        <path d="M108.963 239.212c-15.935.002-30.603-7.216-30.8-7.315l-.165-.083-1.337-32.117c-.388-1.135-8.024-23.53-9.317-30.648-1.31-7.212 17.68-13.541 19.986-14.282l.523-5.801 21.28-2.295 2.697 7.423 7.635 2.865a3.779 3.779 0 0 1 2.34 4.44l-4.243 17.269 10.363 57.135-2.231.096c-5.348 2.417-11.119 3.313-16.731 3.313Z"
              fill="#B8BDC3"/>
        <path d="M106.675 141.117c7.425-4.062 10.154-13.379 6.095-20.81-4.059-7.431-13.368-10.162-20.793-6.1-7.426 4.062-10.154 13.379-6.095 20.81 4.058 7.431 13.368 10.162 20.793 6.1Z"
              fill="#FFB8B8"/>
        <path d="M86.917 142.507c2.92 3.113 8.342 1.442 8.723-2.811.03-.33.028-.662-.007-.992-.196-1.883-1.283-3.594-1.023-5.583.059-.495.243-.966.535-1.37 2.327-3.119 7.789 1.395 9.985-1.428 1.347-1.731-.236-4.457.797-6.391 1.364-2.554 5.404-1.294 7.937-2.693 2.819-1.555 2.65-5.883.795-8.516-2.263-3.21-6.23-4.923-10.148-5.17-3.918-.247-7.808.813-11.466 2.239-4.156 1.621-8.277 3.861-10.834 7.518-3.11 4.448-3.41 10.427-1.854 15.627.946 3.164 4.175 7.028 6.56 9.57Z"
              fill="#2F2E41"/>
        <path d="M194.692 355.922H.51a.509.509 0 0 1-.51-.511.508.508 0 0 1 .51-.51h194.182a.511.511 0 0 1 0 1.021Z"
              fill="#BFC1C6"/>
        <path d="M171.762 127.6c-.45.001-.884-.17-1.214-.477l-8.234-7.655a1.79 1.79 0 0 1-.092-2.522 1.786 1.786 0 0 1 2.52-.094l6.975 6.484 13.8-13.811a1.788 1.788 0 0 1 1.262-.527 1.769 1.769 0 0 1 1.265.523 1.79 1.79 0 0 1 .523 1.265 1.781 1.781 0 0 1-.528 1.264l-15.015 15.027a1.786 1.786 0 0 1-1.262.523Z"
              fill="#fff"/>
    </g>
    <defs>
        <clipPath id="a">
            <path fill="#fff" transform="translate(0 58)" d="M0 0h347v298H0z"/>
        </clipPath>
    </defs>
</svg>