<svg width="433" height="388" viewBox="0 0 433 388" fill="none" xmlns="http://www.w3.org/2000/svg">
<mask id="mask0_2608_169245" style="mask-type:alpha" maskUnits="userSpaceOnUse" x="0" y="0" width="433" height="388">
    <rect width="433" height="388" fill="#D9D9D9"/>
</mask>
<g mask="url(#mask0_2608_169245)">
    <path d="M239.216 37.0938H304.571C357.24 37.0938 386.363 45.1676 436.717 57.3576C498.525 72.3205 563.162 81.7876 604.558 128.719C628.863 156.275 651.394 188.832 653.825 224.347C655.945 255.324 638.59 280.833 612.099 300.524C557.83 340.86 482.544 360.414 414.453 374.324C335.4 390.474 251.219 392.227 171.132 380.078C117.27 371.908 56.6255 352.955 22.0359 313.908C1.6431 290.887 -1.63671 265.346 2.64489 237.231C7.728 203.852 25.9336 174.434 46.8852 146.669C70.3268 115.604 95.9189 84.1544 130.841 62.1109C147.383 51.6698 165.338 42.5822 185.639 39.2202C203.155 36.3196 221.483 37.0938 239.216 37.0938Z" fill="#ECF1F4"/>
    <g clip-path="url(#clip0_2608_169245)">
        <path d="M272.29 141.012C257.199 141.012 249.014 139.172 246.156 135.245C243.633 131.779 245.324 127.207 247.282 121.913C248.69 118.108 250.284 113.795 250.284 109.527C250.284 88.7663 260.835 78.2395 281.643 78.2395C291.996 78.2395 303.112 83.7266 311.378 92.9178C318.893 101.273 322.637 111.274 321.65 120.354C320.84 127.801 317.366 132.699 310.716 135.768L310.327 135.947L310.217 135.534C309.642 133.397 308.671 131.386 307.352 129.607C307.223 132.4 306.518 135.136 305.279 137.643L305.208 137.786L305.055 137.83C297.529 139.969 288.597 140.548 281.657 140.814C278.278 140.945 275.156 141.011 272.29 141.012Z" fill="#2F2E41"/>
        <path d="M276.403 169.938C275.824 168.242 274.849 166.707 273.557 165.463C272.266 164.218 270.695 163.298 268.976 162.78C267.256 162.262 265.438 162.161 263.672 162.484C261.906 162.808 260.242 163.547 258.819 164.641L209.182 194.25L193.649 156.437C194.962 154.516 195.63 152.231 195.56 149.907C195.489 147.584 194.683 145.343 193.257 143.505C191.831 141.667 189.858 140.327 187.622 139.677C185.385 139.027 183 139.1 180.807 139.886C178.615 140.672 176.729 142.131 175.419 144.053C174.109 145.975 173.443 148.262 173.516 150.585C173.589 152.908 174.397 155.149 175.826 156.985C177.254 158.821 179.228 160.159 181.465 160.807C182.423 171.711 187.743 220.448 206.252 218.676C221.809 217.187 260.444 191.515 272.444 182.614C274.364 181.191 275.782 179.197 276.493 176.919C277.205 174.641 277.173 172.197 276.403 169.938Z" fill="#FFB6B6"/>
        <path d="M313.808 385H270.606L263.361 349.261L261.011 385H220.88C220.895 356.933 222.36 328.886 225.27 300.97L225.767 299.28L226.553 296.575L227.05 294.878L235.355 266.424L236.011 264.166H286.018C288.896 266.863 291.55 269.788 293.955 272.912C294.77 273.948 295.621 275.07 296.493 276.278C297.098 277.134 297.726 278.033 298.353 278.975C303.925 287.252 308.09 296.389 310.68 306.019V306.026C311.12 307.673 311.509 309.359 311.848 311.083V311.09C312.15 312.622 312.417 314.176 312.626 315.765C312.785 316.923 312.922 318.095 313.023 319.282C313.624 325.857 313.413 332.481 312.395 339.004L313.808 385Z" fill="#2F2E41"/>
        <path d="M84.7489 58.2023C87.5545 57.1186 89.2165 54.6615 88.461 52.7142C87.7055 50.7668 84.8185 50.0666 82.0129 51.1502C79.2072 52.2339 77.5452 54.6909 78.3007 56.6383C79.0563 58.5857 81.9432 59.2859 84.7489 58.2023Z" fill="#B8BDC3"/>
        <path d="M120.075 53.6809C122.88 52.5973 124.542 50.1402 123.787 48.1928C123.031 46.2455 120.144 45.5453 117.339 46.6289C114.533 47.7125 112.871 50.1696 113.626 52.1169C114.382 54.0643 117.269 54.7645 120.075 53.6809Z" fill="#3F3D56"/>
        <path d="M81.6852 88.2728C84.4908 87.1892 86.1528 84.7321 85.3973 82.7847C84.6418 80.8374 81.7548 80.1372 78.9492 81.2208C76.1435 82.3044 74.4815 84.7615 75.237 86.7089C75.9926 88.6562 78.8795 89.3564 81.6852 88.2728Z" fill="#97CCB4"/>
        <path d="M71.4656 101.537C72.7528 101.233 73.4412 99.4901 73.0032 97.644C72.5653 95.7979 71.1668 94.5477 69.8797 94.8517C68.5925 95.1557 67.9041 96.8987 68.342 98.7448C68.78 100.591 70.1785 101.841 71.4656 101.537Z" fill="#B8BDC3"/>
        <path d="M71.2554 123.994C72.5426 123.69 73.231 121.947 72.793 120.101C72.3551 118.255 70.9566 117.005 69.6695 117.309C68.3823 117.613 67.6939 119.356 68.1318 121.202C68.5698 123.048 69.9683 124.298 71.2554 123.994Z" fill="#3F3D56"/>
        <path d="M102.26 77.4805C103.547 77.1765 104.235 75.4335 103.797 73.5874C103.359 71.7414 101.961 70.4912 100.674 70.7952C99.3867 71.0992 98.6983 72.8421 99.1362 74.6882C99.5742 76.5343 100.973 77.7845 102.26 77.4805Z" fill="#B8BDC3"/>
        <path d="M83.6547 72.9727C84.9418 72.6687 85.6303 70.9258 85.1923 69.0797C84.7544 67.2336 83.3559 65.9834 82.0688 66.2874C80.7816 66.5914 80.0932 68.3343 80.5311 70.1804C80.9691 72.0265 82.3675 73.2767 83.6547 72.9727Z" fill="#97CCB4"/>
        <path d="M103.375 52.2937C104.662 51.9898 105.35 50.2468 104.912 48.4007C104.474 46.5546 103.076 45.3045 101.789 45.6084C100.502 45.9124 99.8133 47.6554 100.251 49.5015C100.689 51.3475 102.088 52.5977 103.375 52.2937Z" fill="#3F3D56"/>
        <path d="M112.546 207.722C113.903 206.132 113.145 203.266 110.854 201.32C108.563 199.374 105.606 199.086 104.25 200.676C102.893 202.266 103.651 205.133 105.942 207.078C108.233 209.024 111.19 209.312 112.546 207.722Z" fill="#B8BDC3"/>
        <path d="M91.741 178.881C93.0976 177.291 92.3402 174.424 90.0492 172.479C87.7582 170.533 84.8013 170.245 83.4447 171.835C82.0881 173.425 82.8456 176.291 85.1366 178.237C87.4275 180.183 90.3845 180.471 91.741 178.881Z" fill="#3F3D56"/>
        <path d="M140.508 196.092C141.865 194.502 141.107 191.636 138.816 189.69C136.525 187.744 133.568 187.456 132.212 189.046C130.855 190.636 131.613 193.503 133.904 195.448C136.195 197.394 139.151 197.682 140.508 196.092Z" fill="#97CCB4"/>
        <path d="M154.399 196.41C155.818 195.147 156.253 193.325 155.373 192.34C154.492 191.356 152.628 191.582 151.209 192.845C149.791 194.108 149.355 195.93 150.236 196.915C151.116 197.9 152.98 197.674 154.399 196.41Z" fill="#B8BDC3"/>
        <path d="M174.292 185.902C175.71 184.639 176.146 182.817 175.265 181.832C174.385 180.848 172.521 181.073 171.102 182.337C169.684 183.6 169.248 185.422 170.128 186.407C171.009 187.391 172.873 187.165 174.292 185.902Z" fill="#3F3D56"/>
        <path d="M118.534 180.847C119.953 179.584 120.388 177.761 119.508 176.777C118.627 175.792 116.763 176.018 115.344 177.281C113.926 178.545 113.49 180.367 114.371 181.351C115.251 182.336 117.115 182.11 118.534 180.847Z" fill="#B8BDC3"/>
        <path d="M123.42 199.317C124.838 198.054 125.274 196.231 124.393 195.247C123.513 194.262 121.649 194.488 120.23 195.751C118.812 197.015 118.376 198.837 119.256 199.821C120.137 200.806 122.001 200.58 123.42 199.317Z" fill="#97CCB4"/>
        <path d="M95.8045 191.861C97.223 190.598 97.659 188.776 96.7782 187.791C95.8974 186.807 94.0334 187.032 92.6149 188.296C91.1964 189.559 90.7604 191.381 91.6412 192.366C92.522 193.35 94.3859 193.124 95.8045 191.861Z" fill="#3F3D56"/>
        <path d="M252.316 22.7449C254.194 21.8234 254.64 18.8927 253.312 16.1991C251.984 13.5055 249.386 12.0689 247.507 12.9905C245.629 13.912 245.183 16.8427 246.511 19.5363C247.839 22.2299 250.438 23.6664 252.316 22.7449Z" fill="#B8BDC3"/>
        <path d="M259.925 57.4589C261.803 56.5374 262.249 53.6067 260.921 50.9131C259.594 48.2194 256.995 46.7829 255.117 47.7045C253.239 48.626 252.793 51.5567 254.12 54.2503C255.448 56.9439 258.047 58.3804 259.925 57.4589Z" fill="#3F3D56"/>
        <path d="M222.024 22.3346C223.902 21.4131 224.348 18.4824 223.021 15.7888C221.693 13.0952 219.094 11.6586 217.216 12.5802C215.338 13.5017 214.892 16.4324 216.22 19.126C217.547 21.8196 220.146 23.2562 222.024 22.3346Z" fill="#97CCB4"/>
        <path d="M206.103 11.3182C207.907 10.7212 209.033 9.22173 208.617 7.96906C208.2 6.7164 206.4 6.18488 204.595 6.7819C202.79 7.37893 201.665 8.87841 202.081 10.1311C202.497 11.3837 204.298 11.9152 206.103 11.3182Z" fill="#B8BDC3"/>
        <path d="M183.663 13.0769C185.468 12.4799 186.593 10.9804 186.177 9.72772C185.761 8.47505 183.96 7.94356 182.155 8.54058C180.351 9.13761 179.225 10.6371 179.641 11.8897C180.058 13.1424 181.858 13.6739 183.663 13.0769Z" fill="#3F3D56"/>
        <path d="M232.819 39.8167C234.624 39.2197 235.75 37.7202 235.333 36.4676C234.917 35.2149 233.116 34.6834 231.312 35.2804C229.507 35.8775 228.381 37.3769 228.798 38.6296C229.214 39.8823 231.014 40.4138 232.819 39.8167Z" fill="#B8BDC3"/>
        <path d="M235.69 20.9301C237.494 20.3331 238.62 18.8336 238.204 17.581C237.788 16.3283 235.987 15.7968 234.182 16.3938C232.377 16.9909 231.252 18.4903 231.668 19.743C232.084 20.9957 233.885 21.5272 235.69 20.9301Z" fill="#97CCB4"/>
        <path d="M258.064 38.7181C259.868 38.1211 260.994 36.6216 260.578 35.3689C260.162 34.1163 258.361 33.5848 256.556 34.1818C254.751 34.7788 253.626 36.2783 254.042 37.531C254.458 38.7836 256.259 39.3151 258.064 38.7181Z" fill="#3F3D56"/>
        <path d="M264.991 146.792L288.792 145.568L299.847 162.997C299.847 162.997 320.647 166.466 319.205 190.921C317.763 215.375 293.898 236.834 293.898 236.834L294.918 249.569L293.146 254.62L293.373 257.457L295.79 260.46L296.039 263.567L293.898 268.481L296.81 273.187L235.583 267.269L233.344 259.131L236.61 254.761L234.785 249.062L237.528 243.58L238.958 226.166C238.958 226.166 223.312 202.713 241.273 185.048L248.482 172.821L256.548 163.002L264.991 146.792Z" fill="#349D6E"/>
        <path d="M276.824 141.871C290.752 141.871 302.043 130.605 302.043 116.708C302.043 102.811 290.752 91.5457 276.824 91.5457C262.895 91.5457 251.604 102.811 251.604 116.708C251.604 130.605 262.895 141.871 276.824 141.871Z" fill="#FFB6B6"/>
        <path d="M273.447 115.183C271.274 115.183 269.102 115.122 266.931 115L266.543 114.978L266.594 114.594C266.914 112.192 266.734 109.75 266.065 107.421C264.93 110.073 263.241 112.453 261.111 114.403L260.99 114.513L260.828 114.495C254.933 113.852 249.09 112.789 243.347 111.314L243.127 111.258L243.083 111.036C242.654 108.934 242.432 106.795 242.419 104.65C242.419 97.9498 244.854 92.3103 249.276 88.7706C254.088 84.9176 260.986 83.7327 268.706 85.4321H293.393C296.107 85.4352 298.709 86.5122 300.628 88.427C302.547 90.3417 303.627 92.9378 303.63 95.6456V111.243L303.36 111.314C293.596 113.874 283.543 115.174 273.447 115.183Z" fill="#2F2E41"/>
        <path d="M101.363 87.1941C100.258 87.5973 99.358 88.4215 98.8612 89.4858C98.3643 90.55 98.3109 91.7675 98.7126 92.871L125.344 165.781C125.748 166.883 126.575 167.781 127.641 168.277C128.708 168.772 129.928 168.826 131.034 168.425L234.396 130.84C235.502 130.437 236.401 129.613 236.898 128.549C237.395 127.484 237.448 126.267 237.047 125.164L210.415 52.2539C210.011 51.1513 209.185 50.2536 208.118 49.7579C207.051 49.2621 205.831 49.2088 204.725 49.6095L101.363 87.1941Z" fill="#CCCCCC"/>
        <path d="M195.927 140.809L132.659 163.815C131.468 164.246 130.155 164.189 129.007 163.655C127.859 163.122 126.97 162.155 126.535 160.969L102.38 94.8403C101.948 93.6526 102.005 92.3423 102.54 91.1969C103.075 90.0514 104.043 89.1644 105.233 88.7303L202.754 53.2696C203.945 52.8383 205.258 52.8957 206.406 53.4292C207.554 53.9628 208.443 54.929 208.878 56.1157L220.549 88.0683C224.281 98.3206 223.784 109.631 219.169 119.518C214.553 129.406 206.194 137.063 195.927 140.809V140.809Z" fill="white"/>
        <path d="M150.402 93.0369L135.367 98.5038C135.179 98.5724 134.979 98.6032 134.778 98.5946C134.578 98.5859 134.381 98.5379 134.199 98.4534C134.017 98.3689 133.854 98.2494 133.718 98.1018C133.582 97.9543 133.477 97.7815 133.408 97.5934C133.34 97.4053 133.309 97.2055 133.317 97.0055C133.326 96.8054 133.374 96.609 133.459 96.4275C133.544 96.246 133.663 96.083 133.811 95.9476C133.959 95.8123 134.132 95.7074 134.321 95.6388L149.356 90.1719C149.736 90.0334 150.157 90.0516 150.524 90.2223C150.891 90.393 151.176 90.7024 151.315 91.0823C151.453 91.4622 151.435 91.8816 151.264 92.2482C151.093 92.6147 150.783 92.8984 150.402 93.0369H150.402Z" fill="#349D6E"/>
        <path d="M186.245 86.6409L137.507 104.363C137.319 104.432 137.119 104.463 136.918 104.454C136.717 104.446 136.52 104.398 136.338 104.313C136.156 104.229 135.992 104.109 135.857 103.962C135.721 103.814 135.615 103.641 135.547 103.453C135.478 103.265 135.447 103.065 135.456 102.865C135.465 102.664 135.513 102.468 135.598 102.286C135.683 102.105 135.803 101.942 135.951 101.806C136.099 101.671 136.272 101.566 136.461 101.498L185.199 83.7759C185.387 83.7073 185.587 83.6765 185.788 83.6851C185.988 83.6938 186.185 83.7418 186.367 83.8263C186.549 83.9108 186.712 84.0303 186.848 84.1779C186.984 84.3254 187.089 84.4982 187.158 84.6863C187.226 84.8744 187.257 85.0742 187.249 85.2743C187.24 85.4743 187.192 85.6707 187.107 85.8522C187.022 86.0337 186.903 86.1967 186.755 86.3321C186.607 86.4674 186.434 86.5723 186.245 86.6409V86.6409Z" fill="#349D6E"/>
        <path d="M188.702 93.3662L139.964 111.088C139.775 111.157 139.575 111.188 139.375 111.179C139.174 111.17 138.977 111.122 138.795 111.038C138.614 110.953 138.45 110.834 138.315 110.686C138.179 110.539 138.074 110.366 138.005 110.178C137.936 109.99 137.905 109.79 137.914 109.59C137.923 109.39 137.971 109.193 138.056 109.012C138.14 108.83 138.26 108.667 138.408 108.532C138.556 108.397 138.729 108.292 138.917 108.223L187.655 90.5012C188.036 90.3633 188.456 90.3818 188.823 90.5526C189.19 90.7235 189.474 91.0326 189.612 91.4123C189.751 91.7919 189.733 92.2109 189.562 92.5773C189.391 92.9436 189.082 93.2274 188.702 93.3662V93.3662Z" fill="#349D6E"/>
        <path d="M191.158 100.091L142.421 117.813C142.232 117.882 142.032 117.913 141.831 117.905C141.63 117.896 141.433 117.849 141.251 117.764C141.069 117.68 140.905 117.56 140.77 117.412C140.634 117.265 140.529 117.092 140.46 116.904C140.391 116.715 140.36 116.515 140.369 116.315C140.378 116.115 140.426 115.919 140.511 115.737C140.596 115.555 140.716 115.392 140.864 115.257C141.012 115.122 141.185 115.017 141.374 114.948L190.112 97.2265C190.3 97.1579 190.5 97.1271 190.701 97.1357C190.901 97.1443 191.098 97.1923 191.28 97.2769C191.462 97.3614 191.626 97.4809 191.761 97.6284C191.897 97.776 192.002 97.9488 192.071 98.1369C192.139 98.325 192.17 98.5248 192.162 98.7248C192.153 98.9249 192.105 99.1212 192.02 99.3027C191.935 99.4842 191.816 99.6473 191.668 99.7826C191.52 99.918 191.347 100.023 191.158 100.091V100.091Z" fill="#349D6E"/>
        <path d="M193.615 106.817L144.877 124.539C144.496 124.677 144.076 124.659 143.709 124.488C143.341 124.318 143.057 124.008 142.918 123.628C142.779 123.248 142.798 122.829 142.969 122.462C143.14 122.096 143.45 121.812 143.831 121.674L192.568 103.952C192.757 103.883 192.957 103.852 193.158 103.861C193.358 103.87 193.555 103.918 193.737 104.002C193.919 104.087 194.082 104.206 194.218 104.354C194.353 104.501 194.459 104.674 194.527 104.862C194.596 105.05 194.627 105.25 194.618 105.45C194.61 105.65 194.562 105.847 194.477 106.028C194.392 106.21 194.272 106.373 194.124 106.508C193.977 106.643 193.803 106.748 193.615 106.817H193.615Z" fill="#349D6E"/>
        <path d="M348.259 125.494L321.575 189.206C320.437 191.902 318.281 194.043 315.574 195.167C312.868 196.292 309.826 196.309 307.106 195.216C305.7 194.65 304.423 193.805 303.354 192.731C302.285 191.657 301.447 190.377 300.89 188.969C300.333 187.562 300.07 186.055 300.115 184.543C300.161 183.03 300.515 181.542 301.155 180.171L330.907 114.838L347.309 74.3792C345.891 72.9689 344.944 71.1574 344.594 69.191C344.245 67.2245 344.51 65.1984 345.355 63.3879C346.2 61.5773 347.583 60.0702 349.316 59.0711C351.049 58.0721 353.049 57.6297 355.043 57.8039C357.037 57.9782 358.929 58.7607 360.462 60.0451C361.994 61.3295 363.094 63.0535 363.61 64.983C364.127 66.9125 364.035 68.9539 363.349 70.8298C362.662 72.7057 361.413 74.3252 359.772 75.4682L348.259 125.494Z" fill="#FFB6B6"/>
    </g>
</g>
<defs>
    <clipPath id="clip0_2608_169245">
        <rect width="340" height="385" fill="white" transform="translate(68)"/>
    </clipPath>
</defs>
</svg>
