<svg width="402" height="340" fill="none" xmlns="http://www.w3.org/2000/svg">
    <path d="M210.126 80.067h57.649c46.458 0 72.147 5.797 116.564 14.549 54.519 10.742 111.535 17.539 148.049 51.233 21.439 19.785 41.314 43.159 43.458 68.656 1.87 22.241-13.439 40.555-36.807 54.692-47.869 28.959-114.277 42.998-174.339 52.985-69.731 11.594-143.986 12.853-214.63 4.131-47.51-5.866-101.004-19.473-131.515-47.507-17.988-16.528-20.88-34.865-17.104-55.051 4.484-23.964 20.543-45.085 39.024-65.018 20.677-22.303 43.251-44.883 74.056-60.709 14.591-7.496 30.429-14.02 48.336-16.434 15.45-2.082 31.618-1.527 47.259-1.527Z"
          fill="#DCDEE1"/>
    <g clip-path="url(#a)">
        <path d="M397.102 285.322 399.941 340S279.856 225.349 264.896 191.804c-14.961-33.545 13.2-116.526 13.2-116.526l62.482 34.428 56.524 175.616ZM212.975 52.326l-18.481 1.765s-9.68 21.187 20.241 22.952l-1.76-24.717ZM212.975 84.988l-18.481 1.766s-9.68 21.186 20.241 22.952l-1.76-24.718ZM212.975 120.299l-18.481 1.766s-9.68 21.186 20.241 22.952l-1.76-24.718ZM218.255 155.61l-18.481 1.766s-9.68 21.186 20.241 22.952l-1.76-24.718Z"
              fill="#717A88"/>
        <path d="M203.978 60.837h1.402V22.303c0-2.93.575-5.83 1.692-8.535a22.312 22.312 0 0 1 4.82-7.236 22.217 22.217 0 0 1 7.213-4.834A22.169 22.169 0 0 1 227.613 0h81.386c2.92 0 5.811.577 8.508 1.698a22.217 22.217 0 0 1 7.213 4.834 22.313 22.313 0 0 1 4.82 7.236 22.37 22.37 0 0 1 1.692 8.535v211.402a22.37 22.37 0 0 1-1.692 8.535 22.309 22.309 0 0 1-4.82 7.235 22.221 22.221 0 0 1-7.213 4.835 22.166 22.166 0 0 1-8.508 1.698h-81.386a22.195 22.195 0 0 1-15.721-6.533 22.334 22.334 0 0 1-6.512-15.77V88.266h-1.402V60.837Z"
              fill="#3F3D56"/>
        <path d="M226.716 5.802h10.623a7.942 7.942 0 0 0 .757 7.402 7.899 7.899 0 0 0 2.838 2.57 7.87 7.87 0 0 0 3.709.93h46.625a7.872 7.872 0 0 0 6.546-3.5 7.923 7.923 0 0 0 .757-7.402h9.923c4.403 0 8.626 1.755 11.74 4.879a16.68 16.68 0 0 1 4.863 11.777V233.55a16.693 16.693 0 0 1-4.863 11.777 16.563 16.563 0 0 1-11.74 4.878h-81.778a16.59 16.59 0 0 1-11.741-4.878 16.69 16.69 0 0 1-4.863-11.777V22.458a16.68 16.68 0 0 1 4.863-11.777 16.598 16.598 0 0 1 5.387-3.61 16.555 16.555 0 0 1 6.354-1.269Z"
              fill="#fff"/>
        <path d="M285.125 64.94h-35.041v8.482h35.041V64.94Z" fill="#B8BDC3"/>
        <path d="M286.794 101.388h-38.378v8.482h38.378v-8.482ZM310.433 119.609h-85.656v8.482h85.656v-8.482ZM310.433 137.83h-85.656v8.482h85.656v-8.482Z"
              fill="#E5E5E5"/>
        <path d="m480 313.8-98.501-112.727-3.52-72.387-36.961-61.795-10.56-26.483s-24.641 2.648-4.4 52.967l8.36 26.924a123.739 123.739 0 0 0-11.44 51.97v61.697c0 14.528 69.015 93.661 77.048 105.749L480 313.8Z"
              fill="#717A88"/>
        <path opacity=".2"
              d="m333.355 72.127 7.348-3.622-.25-.511-6.789 3.347-10.249-26.954-.53.203 10.47 27.537ZM194.592 53.823l-.196.534 10.885 4.023.196-.535-10.885-4.022ZM194.592 86.858l-.196.535 10.885 4.022.196-.535-10.885-4.022ZM194.592 122.171l-.196.535 10.885 4.022.196-.535-10.885-4.022ZM200.295 157.494l-.246.514 5.3 2.551.245-.513-5.299-2.552Z"
              fill="#000"/>
        <path d="M267.648 219.514c13.556 0 24.546-11.024 24.546-24.623 0-13.598-10.99-24.622-24.546-24.622s-24.545 11.024-24.545 24.622c0 13.599 10.989 24.623 24.545 24.623Z"
              fill="#B8BDC3"/>
        <path d="m265.309 205.285-7.346-9.475 4.272-3.334 3.478 4.487 11.752-12.444 3.93 3.735-16.086 17.031Z"
              fill="#fff"/>
    </g>
    <defs>
        <clipPath id="a">
            <path fill="#fff" transform="translate(193)" d="M0 0h287v340H0z"/>
        </clipPath>
    </defs>
</svg>