<svg width="225" height="211" viewBox="0 0 225 211" fill="none" xmlns="http://www.w3.org/2000/svg">
    <rect x="70.95" y="-.159" width="137.727" height="174.455" rx="12.396" transform="rotate(16.08 70.95 -.159)"
          fill="#fff" stroke="#B8BDC3" stroke-width="4.591"/>
    <path d="m86.526 53.543 74.551 21.49M81.948 69.424l37.055 10.681" stroke="#87BCA5" stroke-width="5.968"
          stroke-linecap="round"/>
    <path d="M2.777 78.397C2.777 71.55 8.327 66 15.173 66h18.216c2.061 0 4.09.514 5.902 1.495l29.232 15.829a16.987 16.987 0 0 0 8.088 2.049h133.216c6.846 0 12.396 5.55 12.396 12.395v98.155c0 6.846-5.55 12.395-12.396 12.395H15.173c-6.846 0-12.396-5.549-12.396-12.395V78.396Z"
          fill="#fff" stroke="#B8BDC3" stroke-width="4.591"/>
    <path d="M112.446 180.892c21.233 0 38.446-17.213 38.446-38.446 0-21.233-17.213-38.446-38.446-38.446C91.213 104 74 121.213 74 142.446c0 21.233 17.213 38.446 38.446 38.446Z"
          fill="#01854A"/>
    <path d="m123.839 145.073-9.561 9.848a2.16 2.16 0 0 1-1.593.642h-.032a2.19 2.19 0 0 1-1.598-.642l-9.556-9.848c-.032-.036-.069-.068-.101-.1a2.114 2.114 0 0 1 .101-2.982 2.351 2.351 0 0 1 3.223 0l5.664 5.919v-15.261a2.286 2.286 0 0 1 4.566 0v15.261l5.659-5.919a2.358 2.358 0 0 1 3.328.1 2.119 2.119 0 0 1-.1 2.982Z"
          fill="#fff"/>
</svg>