<svg width="468" height="380" viewBox="0 0 468 380" fill="none" xmlns="http://www.w3.org/2000/svg">
    <path d="M335.284 350.614H132.716c-6.869-.01-13.455-3.302-18.312-9.154-4.857-5.853-7.59-13.787-7.597-22.064V32.762c.007-8.277 2.74-16.212 7.597-22.064s11.443-9.144 18.312-9.154h188.456l40.022 38.435v279.417c-.008 8.277-2.74 16.211-7.598 22.064-4.857 5.852-11.443 9.144-18.312 9.154Z"
          fill="#B8BDC3"/>
    <path d="M132.194 10.67c-4.917.007-9.631 2.35-13.108 6.514-3.476 4.164-5.432 9.81-5.438 15.699v286.393c.006 5.889 1.962 11.535 5.438 15.699 3.477 4.164 8.191 6.506 13.108 6.513h203.607c4.917-.007 9.631-2.349 13.108-6.513 3.476-4.164 5.432-9.81 5.438-15.699V44.419l-35.352-33.748H132.194Z"
          fill="#fff"/>
    <path d="M298.077 185.449h-94.35c-1.171 0-2.293.562-3.121 1.563-.828 1.001-1.293 2.358-1.293 3.774 0 1.415.465 2.773 1.293 3.773.828 1.001 1.95 1.564 3.121 1.564h94.35c1.171 0 2.293-.563 3.121-1.564.828-1 1.293-2.358 1.293-3.773 0-1.416-.465-2.773-1.293-3.774-.828-1.001-1.95-1.563-3.121-1.563ZM315.882 203.238h-112.17c-1.167 0-2.286.563-3.111 1.563-.825 1.001-1.288 2.359-1.288 3.774s.463 2.773 1.288 3.774 1.944 1.563 3.111 1.563h112.17c1.166 0 2.285-.562 3.11-1.563.825-1.001 1.288-2.359 1.288-3.774s-.463-2.773-1.288-3.774c-.825-1-1.944-1.563-3.11-1.563ZM175.53 200.024a18.41 18.41 0 0 1-5.372 13.007 18.34 18.34 0 0 1-12.977 5.389 3.734 3.734 0 0 1-.473-.019 18.319 18.319 0 0 1-10.065-3.326 18.383 18.383 0 0 1-6.551-8.348 18.409 18.409 0 0 1 4.28-19.878 18.34 18.34 0 0 1 9.403-4.899 18.312 18.312 0 0 1 10.539 1.128 18.36 18.36 0 0 1 8.158 6.778 18.414 18.414 0 0 1 3.058 10.168ZM298.077 275.499h-94.35c-1.171 0-2.293-.562-3.121-1.563-.828-1.001-1.293-2.358-1.293-3.774 0-1.415.465-2.772 1.293-3.773.828-1.001 1.95-1.563 3.121-1.563h94.35c1.171 0 2.293.562 3.121 1.563.828 1.001 1.293 2.358 1.293 3.773 0 1.416-.465 2.773-1.293 3.774-.828 1.001-1.95 1.563-3.121 1.563ZM315.876 292.185h-112.17c-1.166-.002-2.283-.565-3.107-1.566-.823-1-1.286-2.357-1.286-3.771 0-1.414.463-2.77 1.286-3.771.824-1.001 1.941-1.564 3.107-1.566h112.17a3.748 3.748 0 0 1 1.685.404 4.45 4.45 0 0 1 1.429 1.157 5.53 5.53 0 0 1 .955 1.732c.221.648.335 1.343.335 2.044 0 .701-.114 1.396-.335 2.044a5.53 5.53 0 0 1-.955 1.732 4.45 4.45 0 0 1-1.429 1.157 3.748 3.748 0 0 1-1.685.404ZM157.18 297.11c10.135 0 18.352-8.233 18.352-18.389 0-10.156-8.217-18.39-18.352-18.39-10.136 0-18.352 8.234-18.352 18.39s8.216 18.389 18.352 18.389ZM360.646 40.33h-31.774c-2.32 0-4.544-1.091-6.184-3.033-1.641-1.942-2.562-4.576-2.562-7.322V2.191c0-.121.029-.24.084-.344a.583.583 0 0 1 .225-.238.472.472 0 0 1 .298-.06c.102.012.199.06.279.135l39.974 37.491a.657.657 0 0 1 .185.327.76.76 0 0 1-.008.393.651.651 0 0 1-.2.315.492.492 0 0 1-.317.12Z"
          fill="#B8BDC3"/>
    <path opacity=".5" d="M295.931 137.458H174.929l.861-56.823 33.982-5.891h50.817l34.48 4.172.862 58.542Z"
          fill="#B8BDC3"/>
    <path opacity=".7" d="M221.315 53.145h-9.081v17.92h9.081v-17.92Z" fill="url(#a)"/>
    <path opacity=".7" d="M212.23 93.867V74.498h-39.443l-6.698 19.37v1.984h46.39v-1.985h-.249Z" fill="url(#b)"/>
    <path d="M212.236 93.889H166.58l6.627-19.145h39.029v19.145Z" fill="#349D6E"/>
    <path opacity=".1" d="M212.236 93.889H166.58l6.627-19.145h39.029v19.145Z" fill="#000"/>
    <path d="M212.481 93.889H166.58v1.964h45.901v-1.964Z" fill="#349D6E"/>
    <path opacity=".7" d="M297.192 74.253h-39.548V93.84h-.249v2.01h46.517v-2.01l-6.72-19.588Z" fill="url(#c)"/>
    <path d="M257.643 93.889h45.656l-6.627-19.145h-39.029v19.145Z" fill="#349D6E"/>
    <path opacity=".1" d="M257.643 93.889h45.656l-6.627-19.145h-39.029v19.145Z" fill="#000"/>
    <path d="M257.396 95.852h45.9v-1.964h-45.9v1.964Z" fill="#349D6E"/>
    <path opacity=".5" d="M203.642 103.585h-24.791v15.463h24.791v-15.463Z" fill="#349D6E"/>
    <path opacity=".1" d="M205.115 117.945h-27.736v2.699h27.736v-2.699Z" fill="#000"/>
    <path d="M205.115 117.7h-27.736v2.699h27.736V117.7Z" fill="#4E596A"/>
    <path opacity=".1" d="M203.648 103.586h-24.792v6.137h24.792v-6.137Z" fill="#000"/>
    <path opacity=".5" d="M291.272 103.585H266.48v15.463h24.792v-15.463Z" fill="#349D6E"/>
    <path opacity=".1" d="M292.742 117.945h-27.735v2.699h27.735v-2.699Z" fill="#000"/>
    <path d="M292.742 117.7h-27.735v2.699h27.735V117.7Z" fill="#4E596A"/>
    <path opacity=".1" d="M291.273 103.586h-24.792v6.137h24.792v-6.137Z" fill="#000"/>
    <path opacity=".7"
          d="m265.297 75.892-30.278-23.415-29.303 23.398L203.419 73l31.566-25.201 32.563 25.184-2.251 2.91Z"
          fill="url(#d)"/>
    <path opacity=".1" d="M208.183 95.852h-32.647v.367h32.647v-.367ZM295.322 95.852h-33.015v.368h33.015v-.368Z"
          fill="#000"/>
    <path d="M221.071 53.39h-8.59v17.67h8.59V53.39Z" fill="#4E596A"/>
    <path opacity=".7" d="M262.306 137.458h-54.981V70.204l27.727-.612 27.254.612v67.254Z" fill="url(#e)"/>
    <path d="M261.691 137.457h-53.507V70.203l26.755-19.023 26.752 19.023v67.254Z" fill="#fff"/>
    <path d="M241.682 114.875h-13.498v22.583h13.498v-22.583Z" fill="#4E596A"/>
    <path opacity=".1" d="M248.804 94.627h-27.735v2.699h27.735v-2.7Z" fill="#000"/>
    <path opacity=".5" d="M247.335 80.267h-24.791V95.73h24.791V80.267Z" fill="#349D6E"/>
    <path d="M248.804 94.382h-27.735v2.7h27.735v-2.7Z" fill="#4E596A"/>
    <path opacity=".1" d="M247.336 80.267h-24.792v6.137h24.792v-6.137Z" fill="#000"/>
    <path d="m265.293 76.137-30.278-23.415-29.302 23.398-2.298-2.876 31.567-25.202 32.562 25.185-2.251 2.91Z"
          fill="#349D6E"/>
    <path d="M239.724 127.148a.98.98 0 1 0 0-1.96.98.98 0 0 0 0 1.96Z" fill="#E0E0E0"/>
    <path d="M161.951 137.746h147.847" stroke="#B8BDC3" stroke-width="1.333"/>
    <path d="M139.695 376.705c32.796 0 59.382-26.587 59.382-59.383 0-32.795-26.586-59.382-59.382-59.382s-59.382 26.587-59.382 59.382c0 32.796 26.586 59.383 59.382 59.383Z"
          fill="#01854A"/>
    <path d="m157.293 321.38-14.767 15.21a3.357 3.357 0 0 1-2.462.991h-.049a3.376 3.376 0 0 1-2.468-.991l-14.76-15.21c-.049-.057-.105-.106-.155-.155a3.264 3.264 0 0 1 .155-4.606 3.632 3.632 0 0 1 4.979 0l8.747 9.142v-23.572a3.53 3.53 0 0 1 7.053 0v23.572l8.741-9.142a3.643 3.643 0 0 1 5.141.155 3.271 3.271 0 0 1-.155 4.606Z"
          fill="#fff"/>
    <defs>
        <linearGradient id="a" x1="3165.64" y1="2243.88" x2="3165.64" y2="1483.71" gradientUnits="userSpaceOnUse">
            <stop stop-color="gray" stop-opacity=".25"/>
            <stop offset=".54" stop-color="gray" stop-opacity=".12"/>
            <stop offset="1" stop-color="gray" stop-opacity=".1"/>
        </linearGradient>
        <linearGradient id="b" x1="12235" y1="3938.47" x2="12235" y2="2858.82" gradientUnits="userSpaceOnUse">
            <stop stop-color="gray" stop-opacity=".25"/>
            <stop offset=".54" stop-color="gray" stop-opacity=".12"/>
            <stop offset="1" stop-color="gray" stop-opacity=".1"/>
        </linearGradient>
        <linearGradient id="c" x1="22422.8" y1="3982.55" x2="22422.8" y2="2877.99" gradientUnits="userSpaceOnUse">
            <stop stop-color="gray" stop-opacity=".25"/>
            <stop offset=".54" stop-color="gray" stop-opacity=".12"/>
            <stop offset="1" stop-color="gray" stop-opacity=".1"/>
        </linearGradient>
        <linearGradient id="d" x1="23901.6" y1="3803.74" x2="23901.6" y2="1934.9" gradientUnits="userSpaceOnUse">
            <stop stop-color="gray" stop-opacity=".25"/>
            <stop offset=".54" stop-color="gray" stop-opacity=".12"/>
            <stop offset="1" stop-color="gray" stop-opacity=".1"/>
        </linearGradient>
        <linearGradient id="e" x1="20438.7" y1="19035.6" x2="20438.7" y2="8130.13" gradientUnits="userSpaceOnUse">
            <stop stop-color="gray" stop-opacity=".25"/>
            <stop offset=".54" stop-color="gray" stop-opacity=".12"/>
            <stop offset="1" stop-color="gray" stop-opacity=".1"/>
        </linearGradient>
    </defs>
</svg>