<svg width="312" height="184" fill="none" xmlns="http://www.w3.org/2000/svg"><path d="m30.536 183-.536-.169c5.978-37.125 21.002-70.838 42.305-94.93 16.105-18.184 35.26-30.347 55.66-35.34 20.401-4.995 41.376-2.657 60.951 6.793 19.575 9.45 37.105 25.702 50.941 47.224 13.835 21.523 23.52 47.608 28.143 75.8l-.536.17C254.809 104.957 206.11 50.765 149.037 50.765c-56.326 0-106.162 55.613-118.5 132.235ZM306.003 153H304v30h2.003v-30Z" fill="#4E596A"/><path d="M312 156.38c.046 10.251-6.928 18.594-6.928 18.594s-7.049-8.277-7.094-18.527c-.046-10.251 6.928-18.594 6.928-18.594s7.048 8.276 7.094 18.527Z" fill="#B0D8C6"/><path d="M76.026 153h-2.004v30h2.004v-30Z" fill="#4E596A"/><path d="M82.022 156.38c.046 10.251-6.928 18.594-6.928 18.594s-7.048-8.277-7.094-18.527c-.046-10.251 6.929-18.594 6.929-18.594s7.048 8.276 7.093 18.527Z" fill="#B0D8C6"/><path d="M4.532 161.784 3 159l14-12h37l.082 3.479-13.281 14.389-15.325 3.083-20.944-6.167Z" fill="#4E596A"/><path d="M60.202 153.995v-8.116h-4.807v2.559L54 147l-13 12v24h24.1v-23.343l-4.898-5.662Z" fill="#B8BDC3"/><path d="M52 169v-2h-2v2h2ZM51.833 171H50v2h2v-2h-.167ZM58.002 167h-4.007v2.007h4.007V167ZM57.995 171h-4v2h4v-2Z" fill="#4E596A"/><path d="m41 159-38 .001V183h38v-24Z" fill="#DCDEE1"/><path d="M36 167h-8v6h8v-6Z" fill="#4E596A"/><path d="M25.035 166.947h-8.012V183h8.012v-16.053Z" fill="#B8BDC3"/><path d="M8.005 169v-2h-2v2h2ZM7.838 171H6.005v2h2v-2h-.167ZM14.007 167H10v2.007h4.007V167ZM14 171h-4v2h4v-2ZM152.532 161.784 151 159l14-12h37l.082 3.479-13.281 14.389-15.325 3.083-20.944-6.167Z" fill="#4E596A"/><path d="M208.202 153.995v-8.116h-4.807v2.559L202 147l-13 12v24h24.1v-23.343l-4.898-5.662Z" fill="#B8BDC3"/><path d="M200 169v-2h-2v2h2ZM199.833 171H198v2h2v-2h-.167ZM206.002 167h-4.007v2.007h4.007V167ZM205.995 171h-4v2h4v-2Z" fill="#4E596A"/><path d="m189 159-38 .001V183h38v-24Z" fill="#DCDEE1"/><path d="M184 167h-8v6h8v-6Z" fill="#4E596A"/><path d="M173.035 166.947h-8.013V183h8.013v-16.053Z" fill="#B8BDC3"/><path d="M156.005 169v-2h-2v2h2ZM155.838 171h-1.833v2h2v-2h-.167ZM162.006 167H158v2.007h4.006V167ZM162 171h-4v2h4v-2Z" fill="#4E596A"/><path d="M148.738 54.02c8.021 0 14.524-1.348 14.524-3.01 0-1.663-6.503-3.01-14.524-3.01-8.021 0-14.523 1.347-14.523 3.01 0 1.662 6.502 3.01 14.523 3.01Z" fill="#004B76"/><path d="M148.5 45c12.426 0 22.5-10.074 22.5-22.5S160.926 0 148.5 0 126 10.074 126 22.5 136.074 45 148.5 45Z" fill="#DCE0E0"/><path d="M167.269 22.57a18.56 18.56 0 0 1-1.972 8.34 18.53 18.53 0 0 1-5.98 6.9 18.51 18.51 0 0 1-21.629-.34 18.564 18.564 0 0 1-7.479-14.9 18.583 18.583 0 0 1 7.479-14.9 18.51 18.51 0 0 1 22.102 0 18.53 18.53 0 0 1 5.507 6.56 18.56 18.56 0 0 1 1.972 8.34Z" fill="#fff"/><path d="M148.5 40c9.665 0 17.5-7.835 17.5-17.5S158.165 5 148.5 5 131 12.835 131 22.5 138.835 40 148.5 40Z" fill="#004B76"/><path fill="#fff" d="M148 37h1v3h-1zM148 5h1v3h-1zM134 22v1h-3v-1zM166 22v1h-3v-1zM149.504 22.296a1.154 1.154 0 0 1-.942 1.33l-9.776 1.666a1.149 1.149 0 0 1-1.328-.944 1.156 1.156 0 0 1 .522-1.17 1.15 1.15 0 0 1 .42-.16l9.776-1.666a1.15 1.15 0 0 1 1.328.944Z"/><path d="M159.792 33.145a.754.754 0 0 1-1.063.004l-10.523-10.458a.756.756 0 0 1-.004-1.063.752.752 0 0 1 1.062-.005l10.523 10.458a.752.752 0 0 1 .005 1.064Z" fill="#fff"/><path d="M148.739 23.875c.719 0 1.302-.584 1.302-1.305a1.303 1.303 0 1 0-2.604 0c0 .72.582 1.305 1.302 1.305Z" fill="#DCDEE1"/><path d="M81.704 117.559 79 116l14-13h38l-.794 10.982-23.735 15.844-24.767-12.267Z" fill="#4E596A"/><path d="M137 110v-8l-4-.002V105l-2-2.002L119 116v67h24v-67l-6-6Z" fill="#B8BDC3"/><path d="M130 122v-3h-3v3h3ZM130 127v-3h-3v3h3ZM134 119h-2v3h2v-3ZM134 124h-2v3h2v-3ZM130.005 136v-3H127v3h3.005ZM129.755 138H127v3h3.005v-3h-.25ZM134.003 133H132v3h2.003v-3ZM134.003 138H132v3h2.003v-3ZM130 150v-3h-3v3h3ZM129.75 152H127v3h3v-3h-.25ZM134 147h-2v3h2v-3ZM134 152h-2v3h2v-3ZM130 164v-3h-3v3h3ZM129.75 166H127v3h3v-3h-.25ZM134 161h-2v3h2v-3ZM134 166h-2v3h2v-3Z" fill="#4E596A"/><path d="M119 116H79v67h40v-67Z" fill="#DCDEE1"/><path d="M103 167h-8v16h8v-16Z" fill="#B8BDC3"/><path d="M114 122H84v6h30v-6ZM114 133H84v6h30v-6ZM114 144H84v6h30v-6ZM114 155H84v6h30v-6ZM86 171v-2h-2v2h2ZM85.833 173H84v2h2v-2h-.167ZM92.002 169h-4.007v2.007h4.007V169ZM91.995 173h-4v2h4v-2ZM108 171v-2h-2v2h2ZM107.833 173H106v2h2v-2h-.167ZM114.002 169h-4.007v2.007h4.007V169ZM113.995 173h-4v2h4v-2ZM226.704 117.559 224 116l14-13h38l-.794 10.982-23.735 15.844-24.767-12.267Z" fill="#4E596A"/><path d="M282 110v-8l-4-.002V105l-2-2.002L264 116v67h24v-67l-6-6Z" fill="#B8BDC3"/><path d="M275 122v-3h-3v3h3ZM275 127v-3h-3v3h3ZM279 119h-2v3h2v-3ZM279 124h-2v3h2v-3ZM275.005 136v-3H272v3h3.005ZM274.755 138H272v3h3.005v-3h-.25ZM279.003 133H277v3h2.003v-3ZM279.003 138H277v3h2.003v-3ZM275 150v-3h-3v3h3ZM274.75 152H272v3h3v-3h-.25ZM279 147h-2v3h2v-3ZM279 152h-2v3h2v-3ZM275 164v-3h-3v3h3ZM274.75 166H272v3h3v-3h-.25ZM279 161h-2v3h2v-3ZM279 166h-2v3h2v-3Z" fill="#4E596A"/><path d="M264 116h-40v67h40v-67Z" fill="#DCDEE1"/><path d="M248 167h-8v16h8v-16Z" fill="#B8BDC3"/><path d="M259 122h-30v6h30v-6ZM259 133h-30v6h30v-6ZM259 144h-30v6h30v-6ZM259 155h-30v6h30v-6ZM231 171v-2h-2v2h2ZM230.833 173H229v2h2v-2h-.167ZM237.002 169h-4.007v2.007h4.007V169ZM236.995 173h-4v2h4v-2ZM253 171v-2h-2v2h2ZM252.833 173H251v2h2v-2h-.167ZM259.002 169h-4.007v2.007h4.007V169ZM258.995 173h-4v2h4v-2ZM293.026 153.147h-2.004v30h2.004v-30Z" fill="#4E596A"/><path d="M299.022 156.527c.046 10.251-6.928 18.594-6.928 18.594s-7.048-8.276-7.094-18.527c-.045-10.251 6.929-18.594 6.929-18.594s7.048 8.276 7.093 18.527Z" fill="#01854A"/><path d="M148.003 153H146v30h2.003v-30Z" fill="#4E596A"/><path d="M155 155.467c.052 10.217-7.906 18.533-7.906 18.533s-8.042-8.249-8.094-18.467c-.052-10.217 7.906-18.533 7.906-18.533s8.042 8.249 8.094 18.467Z" fill="#349D6E"/><path d="M67.026 153h-2.004v30h2.004v-30Z" fill="#4E596A"/><path d="M73.022 156.38c.046 10.251-6.928 18.594-6.928 18.594s-7.048-8.277-7.094-18.527c-.045-10.251 6.929-18.594 6.929-18.594s7.048 8.276 7.093 18.527Z" fill="#01854A"/></svg>