<svg width="312" height="182" fill="none" xmlns="http://www.w3.org/2000/svg"><path d="M146.235 152.905h-2.004V182h2.004v-29.095ZM72.115 152.905H70.11V182h2.004v-29.095Z" fill="#4E596A"/><path d="m30.584 178.99-.537-.166c5.988-36.407 21.036-69.467 42.373-93.092 16.131-17.833 35.317-29.76 55.75-34.658 20.434-4.898 41.443-2.605 61.049 6.663 19.607 9.267 37.166 25.204 51.023 46.31 13.858 21.106 23.559 46.686 28.189 74.333l-.536.167c-12.676-76.091-61.454-129.233-118.619-129.233-56.416 0-106.334 54.536-118.692 129.676Z" fill="#3F3D56"/><path d="M305.492 152.905h-2.004V182h2.004v-29.095Z" fill="#4E596A"/><path d="M311 155.38c.046 10.251-6.928 18.594-6.928 18.594s-7.049-8.277-7.094-18.527c-.046-10.251 6.928-18.594 6.928-18.594s7.048 8.276 7.094 18.527Z" fill="#B0D8C6"/><path d="M2.532 160.784 1 158.215l14.303-12.333h36.78v3.597L38.8 163.868l-15.325 3.083-20.944-6.167Z" fill="#4E596A"/><path d="M58.202 152.995v-8.116h-4.807v2.559l-1.513-1.749-12.238 12.45-2.04 2.075-2.55 10.374L39.645 182H63.1v-23.343l-4.898-5.662Z" fill="#B8BDC3"/><path d="M39.061 157.921H1V182h38.061v-24.079Z" fill="#DCDEE1"/><path d="M34.053 165.947H26.04v6.02h8.013v-6.02Z" fill="#4E596A"/><path d="M23.035 165.947h-8.012V182h8.012v-16.053Z" fill="#CCC"/><path d="M7.01 167.954v-2.007H4.005v2.007h3.004ZM6.76 169.961H4.004v2.006H7.01v-2.006h-.25ZM13.02 165.947H9.012v2.007h4.006v-2.007ZM13.02 169.961H9.012v2.006h4.006v-2.006ZM50.08 167.954v-2.007h-2.004v2.007h2.003ZM49.912 169.961h-1.836v2.006h2.003v-2.006h-.167ZM55.087 165.947h-3.005v2.007h3.005v-2.007ZM55.087 169.961h-3.005v2.006h3.005v-2.006ZM150.772 160.784l-1.533-2.569 14.303-12.333h36.78v3.597l-13.282 14.389-15.325 3.083-20.943-6.167Z" fill="#4E596A"/><path d="M207.443 152.995v-8.116h-4.807v2.559l-1.513-1.749-12.238 12.45-2.04 2.075-2.549 10.374L188.885 182h23.456v-23.343l-4.898-5.662Z" fill="#B8BDC3"/><path d="M188.302 157.921h-39.063V182h39.063v-24.079Z" fill="#DCDEE1"/><path d="M183.294 165.947h-8.013v6.02h8.013v-6.02Z" fill="#4E596A"/><path d="M172.277 165.947h-8.013V182h8.013v-16.053Z" fill="#B8BDC3"/><path d="M156.25 167.954v-2.007h-3.005v2.007h3.005ZM155.999 169.961h-2.754v2.006h3.005v-2.006h-.251ZM161.259 165.947h-3.005v2.007h3.005v-2.007ZM161.259 169.961h-3.005v2.006h3.005v-2.006ZM199.32 167.954v-2.007h-3.005v2.007h3.005ZM199.07 169.961h-2.755v2.006h3.005v-2.006h-.25ZM205.33 165.947h-4.007v2.007h4.007v-2.007ZM205.33 169.961h-4.007v2.006h4.007v-2.006ZM80.704 116.559l-2.58-2.044 14.448-12.778h36.634v11.245l-23.735 15.844-24.767-12.267Z" fill="#4E596A"/><path d="M136.53 109.046v-7.048h-4.859v1.726l-1.814-1.987-11.855 13.03-4.639 3.127-7.193 53.137L117.018 182h25.21v-66.712l-5.698-6.242Z" fill="#B8BDC3"/><path d="M118.189 114.78H78.124V182h40.065v-67.22Z" fill="#DCDEE1"/><path d="M100.16 165.947h-6.01V182h6.01v-16.053Z" fill="#B8BDC3"/><path d="M86.138 169.961v-2.007h-3.005v2.007h3.004ZM85.887 171.967h-2.754v2.006h3.005v-2.006h-.25ZM92.147 167.954h-4.006v2.007h4.006v-2.007ZM92.147 171.967h-4.006v2.006h4.006v-2.006ZM107.171 169.961v-2.007h-3.005v2.007h3.005ZM106.921 171.967h-2.755v2.006h3.005v-2.006h-.25ZM113.181 167.954h-4.006v2.007h4.006v-2.007ZM113.181 171.967h-4.006v2.006h4.006v-2.006ZM129.207 117.79v-2.007h-3.005v2.007h3.005ZM128.957 120.8h-2.755v2.006h3.005V120.8h-.25ZM133.213 115.783h-2.003v2.007h2.003v-2.007ZM133.213 120.8h-2.003v2.006h2.003V120.8ZM129.207 132.839v-3.01h-3.005v3.01h3.005ZM128.957 134.846h-2.755v3.01h3.005v-3.01h-.25ZM133.213 129.829h-2.003v3.01h2.003v-3.01ZM133.213 134.846h-2.003v3.01h2.003v-3.01ZM129.207 146.885v-2.006h-3.005v2.006h3.005ZM128.957 148.892h-2.755v3.009h3.005v-3.009h-.25ZM133.213 144.879h-2.003v2.006h2.003v-2.006ZM133.213 148.892h-2.003v3.009h2.003v-3.009ZM129.207 161.935v-3.01h-3.005v3.01h3.005ZM128.957 162.938h-2.755v4.013h3.005v-4.013h-.25ZM133.213 158.925h-2.003v3.01h2.003v-3.01ZM133.213 162.938h-2.003v4.013h2.003v-4.013ZM113.181 117.79H83.133v7.023h30.048v-7.023ZM113.181 129.829H83.133v7.023h30.048v-7.023ZM113.181 143.875H83.133v5.016h30.048v-5.016ZM113.181 155.915H83.133v6.02h30.048v-6.02ZM231.948 116.559l-2.58-2.044 14.448-12.778h36.635v11.245l-23.736 15.844-24.767-12.267Z" fill="#4E596A"/><path d="M286.772 109.046v-7.048h-4.859v1.726l-1.814-1.987-11.855 13.03-4.639 3.127-7.193 53.137L267.26 182h25.21v-66.712l-5.698-6.242Z" fill="#B8BDC3"/><path d="M268.431 114.78h-39.063V182h39.063v-67.22Z" fill="#DCDEE1"/><path d="M252.406 165.947h-8.013V182h8.013v-16.053Z" fill="#B8BDC3"/><path d="M237.381 169.961v-2.007h-4.006v2.007h4.006ZM237.048 171.967h-3.673v2.006h4.006v-2.006h-.333ZM242.39 167.954h-3.005v2.007h3.005v-2.007ZM242.39 171.967h-3.005v2.006h3.005v-2.006ZM257.414 169.961v-2.007h-3.005v2.007h3.005ZM257.164 171.967h-2.755v2.006h3.005v-2.006h-.25ZM263.423 167.954h-3.005v2.007h3.005v-2.007ZM263.423 171.967h-3.005v2.006h3.005v-2.006ZM279.449 117.79v-2.007h-3.005v2.007h3.005ZM279.199 120.8h-2.755v2.006h3.005V120.8h-.25ZM285.459 115.783h-3.005v2.007h3.005v-2.007ZM285.459 120.8h-3.005v2.006h3.005V120.8ZM279.449 132.839v-3.01h-3.005v3.01h3.005ZM279.199 134.846h-2.755v3.01h3.005v-3.01h-.25ZM285.459 129.829h-3.005v3.01h3.005v-3.01ZM285.459 134.846h-3.005v3.01h3.005v-3.01ZM279.449 146.885v-2.006h-3.005v2.006h3.005ZM279.199 148.892h-2.755v3.009h3.005v-3.009h-.25ZM285.459 144.879h-3.005v2.006h3.005v-2.006ZM285.459 148.892h-3.005v3.009h3.005v-3.009ZM279.449 161.935v-3.01h-3.005v3.01h3.005ZM279.199 162.938h-2.755v4.013h3.005v-4.013h-.25ZM285.459 158.925h-3.005v3.01h3.005v-3.01ZM285.459 162.938h-3.005v4.013h3.005v-4.013ZM263.423 117.79h-30.048v7.023h30.048v-7.023ZM263.423 129.829h-30.048v7.023h30.048v-7.023ZM263.423 143.875h-30.048v5.016h30.048v-5.016ZM263.423 155.915h-30.048v6.02h30.048v-6.02Z" fill="#4E596A"/><path d="M79.126 155.38c.052 10.251-7.918 18.594-7.918 18.594s-8.055-8.277-8.107-18.527c-.052-10.251 7.918-18.594 7.918-18.594s8.055 8.276 8.107 18.527ZM152.745 155.38c.049 10.251-7.424 18.594-7.424 18.594s-7.551-8.277-7.6-18.527c-.049-10.251 7.423-18.594 7.423-18.594s7.552 8.276 7.601 18.527Z" fill="#349D6E"/><path d="M295.475 152.905h-2.003V182h2.003v-29.095Z" fill="#4E596A"/><path d="M301.484 155.38c.046 10.251-6.928 18.594-6.928 18.594s-7.048-8.277-7.094-18.527c-.046-10.251 6.929-18.594 6.929-18.594s7.048 8.276 7.093 18.527Z" fill="#349D6E"/><path d="M148.738 52.577c8.021 0 14.524-1.347 14.524-3.01 0-1.662-6.503-3.01-14.524-3.01-8.021 0-14.523 1.348-14.523 3.01 0 1.663 6.502 3.01 14.523 3.01Z" fill="#004B76"/><path d="M148.739 43.141c11.893 0 21.535-9.657 21.535-21.57C170.274 9.656 160.632 0 148.739 0s-21.535 9.657-21.535 21.57 9.642 21.571 21.535 21.571Z" fill="#DCDEE1"/><path d="M167.269 21.57a18.56 18.56 0 0 1-1.972 8.34 18.53 18.53 0 0 1-5.98 6.9 18.51 18.51 0 0 1-21.629-.34 18.564 18.564 0 0 1-7.479-14.9 18.583 18.583 0 0 1 7.479-14.9 18.51 18.51 0 0 1 22.102 0 18.53 18.53 0 0 1 5.507 6.56 18.56 18.56 0 0 1 1.972 8.34Z" fill="#fff"/><path d="M148.739 38.526c9.349 0 16.927-7.591 16.927-16.955 0-9.365-7.578-16.956-16.927-16.956s-16.927 7.591-16.927 16.956c0 9.364 7.578 16.955 16.927 16.955Z" fill="#004B76"/><path d="M148.789 3.41a.55.55 0 0 0-.551.552v2.409a.55.55 0 1 0 1.102 0V3.962a.55.55 0 0 0-.551-.552ZM148.789 36.218a.55.55 0 0 0-.551.552v2.408a.55.55 0 1 0 1.102 0V36.77a.55.55 0 0 0-.551-.552ZM166.996 21.57a.55.55 0 0 0-.553-.55h-2.414a.55.55 0 0 0-.392.938c.104.104.245.162.392.162h2.414a.55.55 0 0 0 .553-.55ZM134.103 21.57a.552.552 0 0 0-.554-.55h-2.414a.554.554 0 0 0-.553.55.555.555 0 0 0 .553.55h2.414a.554.554 0 0 0 .554-.55ZM149.504 21.296a1.154 1.154 0 0 1-.942 1.33l-9.776 1.666a1.149 1.149 0 0 1-1.328-.944 1.156 1.156 0 0 1 .522-1.17 1.15 1.15 0 0 1 .42-.16l9.776-1.666a1.15 1.15 0 0 1 1.328.944Z" fill="#fff"/><path d="M159.792 32.145a.754.754 0 0 1-1.063.004l-10.523-10.458a.756.756 0 0 1-.004-1.063.752.752 0 0 1 1.062-.005l10.523 10.458a.752.752 0 0 1 .005 1.064Z" fill="#fff"/><path d="M148.739 22.875c.719 0 1.302-.584 1.302-1.305a1.303 1.303 0 1 0-2.604 0c0 .72.582 1.305 1.302 1.305Z" fill="#DCDEE1"/></svg>