<svg width="312" height="182" fill="none" xmlns="http://www.w3.org/2000/svg"><path d="M87.816 97.755h-2.09v82.755h2.09V97.755Z" fill="#3F3D56"/><path d="M77 128h-3v54h3v-54ZM59 128h-3v54h3v-54Z" fill="#4E596A"/><path d="m149.779 43.625 9.221-7.52c-7.163-.805-10.107 3.178-11.311 6.33-5.597-2.369-11.689.736-11.689.736L154.45 50a14.215 14.215 0 0 0-4.671-6.375ZM287.18 114.625l8.82-7.52c-6.852-.805-9.667 3.178-10.82 6.33-5.353-2.369-11.18.736-11.18.736L291.647 121c-.89-2.535-2.44-4.746-4.467-6.375Z" fill="#004B76"/><path d="M121.109 108.301c.133 28.938-20.182 52.49-20.182 52.49s-20.532-23.364-20.665-52.301C80.13 79.553 100.445 56 100.445 56s20.531 23.364 20.664 52.301Z" fill="#B0D8C6"/><path d="M88.89 133.867c.087 19.095-13.319 34.637-13.319 34.637s-13.548-15.417-13.636-34.513c-.088-19.095 13.318-34.638 13.318-34.638s13.549 15.418 13.636 34.514Z" fill="#349D6E"/><path d="M70.955 133.867c.088 19.095-13.318 34.637-13.318 34.637S44.088 153.087 44 133.991c-.087-19.095 13.319-34.638 13.319-34.638s13.548 15.418 13.636 34.514Z" fill="#CCEBDD"/><path d="m80 148.014 17.612-36.947h140.662l13.151 36.947H80Z" fill="#4E596A"/><path d="M187.682 115h-64v22h64v-22Z" fill="#F2F2F2"/><path d="M132.682 121h-5v5h5v-5ZM139.682 121h-5v5h5v-5ZM132.682 128h-5v5h5v-5ZM139.682 128h-5v5h5v-5ZM154.682 121h-5v5h5v-5ZM161.682 121h-5v5h5v-5ZM154.682 128h-5v5h5v-5ZM161.682 128h-5v5h5v-5ZM176.682 121h-5v5h5v-5ZM183.682 121h-5v5h5v-5ZM176.682 128h-5v5h5v-5ZM183.682 128h-5v5h5v-5ZM127.808 96l-10 21h75.874l-10-21h-55.874Z" fill="#4E596A"/><path d="M246.797 148H85v34h161.797v-34Z" fill="#DCDEE1"/><path d="M226 159h-6v6h6v-6ZM234 159h-6v6h6v-6ZM226 167h-6v6h6v-6ZM234 167h-6v6h6v-6ZM204 156h-14v26h14v-26Z" fill="#4E596A"/><path d="M196 159h-3v3h3v-3ZM196 164h-3v3h3v-3ZM201 159h-3v3h3v-3ZM201 164h-3v3h3v-3ZM201 172a1 1 0 1 0 0-2 1 1 0 0 0 0 2Z" fill="#F2F2F2"/><path d="M181 156h-52v26h52v-26Z" fill="#B8BDC3"/><path d="M181 160h-52v1h52v-1ZM181 165h-52v1h52v-1ZM181 170h-52v1h52v-1ZM181 175h-52v1h52v-1Z" fill="#F2F2F2"/><path d="M120 156H92v26h28v-26Z" fill="#B8BDC3"/><path d="M120 160H92v1h28v-1ZM120 165H92v1h28v-1ZM120 170H92v1h28v-1ZM120 175H92v1h28v-1Z" fill="#F2F2F2"/><path d="M256 128h-3v54h3v-54Z" fill="#4E596A"/><path d="M268 133.937c.088 19.33-13.341 35.063-13.341 35.063S241.088 153.393 241 134.063C240.912 114.733 254.341 99 254.341 99s13.571 15.607 13.659 34.937Z" fill="#97CCB4"/></svg>