<svg width="312" height="182" fill="none" xmlns="http://www.w3.org/2000/svg"><path d="M53.855 126.77a2.79 2.79 0 0 1-.522-2.3 2.787 2.787 0 0 1 1.42-1.879l-.58-6.345 3.75-1.294.694 8.972a2.814 2.814 0 0 1-1.123 3.548 2.783 2.783 0 0 1-3.639-.702Z" fill="#FFB8B8"/><path d="M57.882 90.357s2.575-5.429 4.862-3.52c2.287 1.91-3.136 17.961-3.136 17.961l-.825 15.582-4.347-.436-1.229-15.181 4.675-14.406Z" fill="#B8BDC3"/><path d="m23.355 170.67 3.227 2.625 11.611-11.259-4.762-3.874-10.075 12.508Z" fill="#FFB8B8"/><path d="m23.385 168.94 6.355 5.17a5.252 5.252 0 0 1 .771 7.364l-.106.132L20 173.143l3.385-4.203Z" fill="#2F2E41"/><path d="M68.201 177.956h4.152l1.975-16.093-6.128.001.001 16.092Z" fill="#FFB8B8"/><path d="M67.143 176.593h8.176a5.2 5.2 0 0 1 3.684 1.533 5.25 5.25 0 0 1 1.526 3.703v.17H67.143v-5.406ZM75.486 102.515s7.788 9.528 6.095 19.056c-1.693 9.529-3.047 16.675-3.047 16.675l-2.71 21.439s1.016 5.839-.338 7.343c0 0 2.032 3.547-1.693 4.908-3.725 1.361-5.735-.47-5.735-.47s-2.731-3.954-1.038-4.975l.713-42.073-27.127 35.607s-.498 4.332-3.974 4.378l-4.153 3.109-4.74-2.722 2.37-3.063s-1.355-3.403 1.693-4.084l17.609-23.14 4.402-11.911s2.37-9.188 8.805-12.931v-3.983l12.868-3.163Z" fill="#2F2E41"/><path d="M62.11 86.01a6.44 6.44 0 0 1 8.523-1.21l.281.189a25.134 25.134 0 0 1 5.843 12.09l1.268 6.967-15.915 3.464-3.732-12.931a7.34 7.34 0 0 1 .322-4.963 7.29 7.29 0 0 1 3.41-3.606Z" fill="#B8BDC3"/><path d="M96.28 139.634c4.629-1.816 6.912-7.047 5.1-11.684-1.812-4.637-7.033-6.925-11.661-5.109-4.629 1.815-6.912 7.046-5.1 11.684 1.812 4.637 7.033 6.924 11.662 5.109Z" fill="#004B76"/><g clip-path="url(#a)"><path d="m94.914 126.664-2.803 6.421-2.263-.991-.458-.201-.2.459-.397.909-.2.458.457.2 3.628 1.59.459.2.2-.459 3.4-7.789.2-.458-.457-.2-.908-.398-.458-.2-.2.459Z" fill="#fff" stroke="#fff"/></g><path d="M88.258 128.253a3.171 3.171 0 0 1-1.96-1.846 3.205 3.205 0 0 1 .149-2.696l-4.591-5.646 2.734-3.641 6.372 8.066a3.221 3.221 0 0 1 1.195 4.088 3.199 3.199 0 0 1-1.632 1.582 3.176 3.176 0 0 1-2.267.093Z" fill="#FFB8B8"/><path d="M68.883 91.115s-1.016-6.806 2.37-6.466c3.387.34 8.466 19.057 8.466 19.057l9.144 15.313-4.403 2.382-10.836-13.612-4.74-16.674Z" fill="#B8BDC3"/><path d="M75.084 81.165H58.958a1.25 1.25 0 0 1-.884-.368 1.262 1.262 0 0 1-.367-.889v-6.985c0-2.482.981-4.863 2.728-6.618a9.29 9.29 0 0 1 6.586-2.742c2.47 0 4.84.987 6.586 2.742a9.383 9.383 0 0 1 2.728 6.618v6.985c0 .333-.132.653-.367.889a1.25 1.25 0 0 1-.884.368Z" fill="#2F2E41"/><path d="M68.935 81.002c3.772 0 6.829-3.073 6.829-6.862 0-3.79-3.057-6.863-6.829-6.863-3.771 0-6.829 3.073-6.829 6.863 0 3.79 3.058 6.862 6.83 6.862Z" fill="#FFB8B8"/><path d="M78.538 73.622h-8.593l-.088-1.423-.441 1.423h-1.323l-.175-2.82-.873 2.82h-2.56v-.14c0-4.082 2.88-7.404 6.42-7.404h1.212c3.54 0 6.421 3.322 6.421 7.404v.14Z" fill="#2F2E41"/><path d="M70.3 82.468a2.06 2.06 0 0 1-.313-.024l-10.23-1.584V70.154c0-1.094.433-2.142 1.203-2.916a4.093 4.093 0 0 1 2.901-1.208h7.157l-.279.285c-3.879 3.969-.957 10.403 1.13 13.885a1.378 1.378 0 0 1-.138 1.627 1.86 1.86 0 0 1-1.43.641Z" fill="#2F2E41"/><path d="M283 25.034c4.971 0 9-4.037 9-9.017 0-4.98-4.029-9.017-9-9.017s-9 4.037-9 9.017c0 4.98 4.029 9.017 9 9.017Z" fill="#004B76"/><path d="m281.5 17.414-1.746-1.75-.354-.354-.354.354-.7.702-.352.353.352.353 2.8 2.806.354.354.354-.354 6-6.012.353-.353-.353-.353-.7-.702-.354-.354-.354.354-4.946 4.956Z" fill="#fff" stroke="#fff"/><path d="M265.039 34h-139V4h139v30Z" fill="#fff"/><path d="M141 27a8 8 0 1 0 0-16 8 8 0 0 0 0 16Z" fill="#004B76"/><path d="M265.039 34h-139V4h139v30Zm-136.878-2.143h134.756V6.143H128.161v25.714Z" fill="#959BA6"/><path fill="#4E596A" d="M159 22h94v2h-94zM159 14h51v4h-51z"/><path d="M265.039 80h-139V50h139v30Z" fill="#fff"/><path d="M141 73a8 8 0 1 0 0-16 8 8 0 0 0 0 16Z" fill="#B8BDC3"/><path d="M265.039 80h-139V50h139v30Zm-136.878-2.143h134.756V52.143H128.161v25.714Z" fill="#B8BDC3"/><path fill="#B8BDC3" d="M159 68h94v2h-94zM159 60h51v4h-51z"/><path d="M265.039 126h-139V96h139v30Z" fill="#fff"/><path d="M141 119a8 8 0 1 0 0-16 8 8 0 0 0 0 16Z" fill="#B8BDC3"/><path d="M265.039 126h-139V96h139v30Zm-136.878-2.143h134.756V98.143H128.161v25.714Z" fill="#B8BDC3"/><path fill="#B8BDC3" d="M159 114h94v2h-94zM159 106h51v4h-51z"/><defs><clipPath id="a"><path fill="#fff" transform="rotate(-21.418 380.591 -161.417) skewX(-.074)" d="M0 0h12.003v12.02H0z"/></clipPath></defs></svg>