<svg width="312" height="182" fill="none" xmlns="http://www.w3.org/2000/svg"><path d="M94.55 137.27c4.059 0 7.349-3.3 7.349-7.372 0-4.071-3.29-7.372-7.35-7.372s-7.35 3.301-7.35 7.372c0 4.072 3.29 7.372 7.35 7.372Z" fill="#004B76"/><path d="m93.85 133.01-2.2-2.836 1.279-.998 1.041 1.343 3.52-3.726 1.176 1.118-4.817 5.099ZM265.039 31h-139V1h139v30Z" fill="#fff"/><path d="M144.039 24a8 8 0 1 0 0-16 8 8 0 0 0 0 16Z" fill="#004B76"/><path d="M161.292 11a1.43 1.43 0 0 0-.886.293c-.235.187-.367.442-.367.707 0 .265.132.52.367.707.235.188.554.293.886.293h91.497c.332 0 .65-.106.884-.294.234-.187.366-.441.366-.706 0-.265-.132-.519-.366-.706a1.427 1.427 0 0 0-.884-.294h-91.497ZM161.308 18c-.336 0-.658.156-.896.437-.238.28-.372.662-.373 1.06-.001.398.132.78.369 1.061.237.282.559.441.895.442h58.467c.167 0 .332-.038.486-.113.154-.076.293-.186.411-.326.118-.139.212-.304.275-.486a1.737 1.737 0 0 0 0-1.15 1.524 1.524 0 0 0-.275-.486 1.272 1.272 0 0 0-.411-.326 1.099 1.099 0 0 0-.486-.113h-58.462Z" fill="#4E596A"/><path d="M265.039 31h-139V1h139v30Zm-136.878-2.143h134.756V3.143H128.161v25.714Z" fill="#959BA6"/><path d="M265.039 68h-139V38h139v30Z" fill="#fff"/><path d="M144.039 61c4.418 0 8-3.358 8-7.5 0-4.142-3.582-7.5-8-7.5s-8 3.358-8 7.5c0 4.142 3.582 7.5 8 7.5ZM161.292 48c-.332 0-.651.158-.886.44a1.662 1.662 0 0 0-.367 1.06c0 .398.132.78.367 1.06.235.282.554.44.886.44h91.497c.332 0 .65-.16.884-.44.234-.282.366-.663.366-1.06s-.132-.778-.366-1.06a1.158 1.158 0 0 0-.884-.44h-91.497ZM161.308 56c-.336 0-.658.104-.896.291-.238.188-.372.442-.373.707-.001.265.132.52.369.708.237.188.559.293.895.294h58.467c.167 0 .332-.026.486-.076.154-.05.293-.123.411-.216a1.01 1.01 0 0 0 .275-.325.82.82 0 0 0 .097-.383.82.82 0 0 0-.097-.383 1.01 1.01 0 0 0-.275-.325 1.329 1.329 0 0 0-.411-.216 1.57 1.57 0 0 0-.486-.076h-58.462Z" fill="#DCDEE1"/><path d="M265.039 68h-139V38h139v30Zm-136.878-2.143h134.756V40.143H128.161v25.714Z" fill="#DCDEE1"/><path d="M265.039 105h-139V76h139v29Z" fill="#fff"/><path d="M144.039 98c4.418 0 8-3.358 8-7.5 0-4.142-3.582-7.5-8-7.5s-8 3.358-8 7.5c0 4.142 3.582 7.5 8 7.5ZM161.292 85c-.332 0-.651.158-.886.44a1.662 1.662 0 0 0-.367 1.06c0 .398.132.78.367 1.06.235.282.554.44.886.44h91.497c.332 0 .65-.16.884-.44.234-.282.366-.663.366-1.06s-.132-.778-.366-1.06a1.158 1.158 0 0 0-.884-.44h-91.497ZM161.308 93c-.336 0-.658.156-.896.437-.238.28-.372.662-.373 1.06-.001.398.132.78.369 1.061.237.282.559.441.895.442h58.467c.167 0 .332-.038.486-.114.154-.075.293-.185.411-.325.118-.139.212-.304.275-.486a1.737 1.737 0 0 0 0-1.15 1.524 1.524 0 0 0-.275-.486 1.272 1.272 0 0 0-.411-.325 1.099 1.099 0 0 0-.486-.114h-58.462Z" fill="#DCDEE1"/><path d="M265.039 105h-139V76h139v29Zm-136.878-2.071h134.756V78.071H128.161v24.858Z" fill="#DCDEE1"/><path d="M53.855 126.542a2.785 2.785 0 0 1-.522-2.296 2.785 2.785 0 0 1 1.42-1.875l-.58-6.333 3.75-1.292.694 8.955a2.803 2.803 0 0 1-1.123 3.541 2.78 2.78 0 0 1-3.639-.7Z" fill="#FFB8B8"/><path d="M57.882 90.197s2.575-5.418 4.862-3.512c2.287 1.906-3.136 17.926-3.136 17.926l-.825 15.552-4.347-.435-1.229-15.153 4.675-14.378Z" fill="#B8BDC3"/><path d="m23.355 170.357 3.227 2.62 11.611-11.237-4.762-3.867-10.075 12.484Z" fill="#FFB8B8"/><path d="m23.385 168.631 6.355 5.159v.001a5.239 5.239 0 0 1 .771 7.35l-.106.132L20 172.825l3.385-4.194Z" fill="#2F2E41"/><path d="M68.201 177.629h4.152l1.975-16.062-6.128.001.001 16.061Z" fill="#FFB8B8"/><path d="M67.143 176.27h8.176c1.382 0 2.707.55 3.684 1.53a5.235 5.235 0 0 1 1.526 3.695v.17l-13.386.001v-5.396ZM75.486 102.332s7.788 9.51 6.095 19.02c-1.693 9.511-3.047 16.643-3.047 16.643l-2.71 21.398s1.016 5.828-.338 7.329c0 0 2.032 3.54-1.693 4.899-3.725 1.358-5.735-.47-5.735-.47s-2.731-3.946-1.038-4.965l.713-41.993-27.127 35.54s-.498 4.323-3.974 4.369l-4.153 3.103-4.74-2.717 2.37-3.057s-1.355-3.396 1.693-4.076l17.609-23.096 4.402-11.888s2.37-9.17 8.805-12.906v-3.976l12.868-3.157Z" fill="#2F2E41"/><path d="M62.11 85.859a6.451 6.451 0 0 1 8.523-1.207l.281.188a25.066 25.066 0 0 1 5.843 12.066l1.268 6.954-15.915 3.458-3.732-12.906a7.312 7.312 0 0 1 .322-4.954 7.283 7.283 0 0 1 3.41-3.6Z" fill="#B8BDC3"/><path d="M88.258 128.022a3.182 3.182 0 0 1-2.184-3.205c.026-.465.153-.918.373-1.329l-4.591-5.635 2.734-3.634 6.372 8.05a3.204 3.204 0 0 1 1.195 4.081 3.186 3.186 0 0 1-3.9 1.672h.001Z" fill="#FFB8B8"/><path d="M68.883 90.954s-1.016-6.793 2.37-6.453c3.387.34 8.466 19.02 8.466 19.02l9.144 15.284-4.403 2.378-10.836-13.586-4.74-16.643Z" fill="#B8BDC3"/><path d="M75.084 81.023H58.958a1.25 1.25 0 0 1-1.251-1.255v-6.971c0-2.478.981-4.854 2.728-6.606a9.3 9.3 0 0 1 6.586-2.736 9.3 9.3 0 0 1 6.586 2.736 9.356 9.356 0 0 1 2.728 6.606v6.971a1.258 1.258 0 0 1-1.251 1.255Z" fill="#2F2E41"/><path d="M68.935 80.86c3.772 0 6.829-3.066 6.829-6.849 0-3.782-3.057-6.849-6.829-6.849-3.771 0-6.829 3.067-6.829 6.85 0 3.782 3.058 6.848 6.83 6.848Z" fill="#FFB8B8"/><path d="M78.538 73.494h-8.593l-.088-1.42-.441 1.42h-1.323l-.175-2.814-.873 2.814h-2.56v-.14c0-4.074 2.88-7.39 6.42-7.39h1.212c3.54 0 6.421 3.316 6.421 7.39v.14Z" fill="#2F2E41"/><path d="M70.3 82.324a2.06 2.06 0 0 1-.313-.024l-10.23-1.58V70.034c0-1.092.433-2.139 1.203-2.91a4.098 4.098 0 0 1 2.901-1.206h7.157l-.279.285c-3.879 3.96-.957 10.382 1.13 13.858a1.373 1.373 0 0 1-.138 1.623 1.86 1.86 0 0 1-1.43.64Z" fill="#2F2E41"/><path d="M283.039 25a9 9 0 0 0 9-9 9 9 0 0 0-9-9 9 9 0 0 0-9 9 9 9 0 0 0 9 9Z" fill="#004B76"/><path d="m281.861 20-2.822-3.65 1.641-1.284 1.336 1.728L286.529 12l1.51 1.439L281.861 20Z" fill="#fff"/></svg>