<svg width="312" height="183" fill="none" xmlns="http://www.w3.org/2000/svg"><path d="M80.816 97.755h-2.09v82.755h2.09V97.755Z" fill="#3F3D56"/><path d="M100.109 108.301c.133 28.938-20.182 52.49-20.182 52.49s-20.532-23.364-20.665-52.301C59.13 79.553 79.445 56 79.445 56s20.531 23.364 20.664 52.301Z" fill="#B0D8C6"/><path d="M226.282 148H64.485v34h161.797v-34Z" fill="#DCDEE1"/><path d="m59.318 152.014 17.612-36.947h140.663l13.15 36.947H59.318Z" fill="#4E596A"/><path d="M168.515 117.421h-65.283v21.65h65.283v-21.65Z" fill="#F2F2F2"/><path d="m107.458 99.772-10.332 21.65h77.493l-6.105-21.65h-61.056Z" fill="#4E596A"/><path d="M160.531 156h-52v26h52v-26ZM98.531 156h-28v26h28v-26Z" fill="#B8BDC3"/><path d="M183.66 157.662h-14.207v24.945h14.207v-24.945ZM55.531 128h-2v54h2v-54ZM234.531 128h-2v54h2v-54ZM37.531 128h-2v54h2v-54Z" fill="#4E596A"/><path d="M67.89 133.867c.087 19.095-13.319 34.637-13.319 34.637s-13.548-15.417-13.636-34.513c-.088-19.095 13.318-34.638 13.318-34.638s13.549 15.418 13.636 34.514Z" fill="#349D6E"/><path d="M49.955 133.867c.088 19.095-13.318 34.637-13.318 34.637S23.088 153.087 23 133.991c-.087-19.095 13.319-34.638 13.319-34.638s13.548 15.418 13.636 34.514Z" fill="#CCEBDD"/><path d="M247.031 133.937c.088 19.33-13.34 35.063-13.34 35.063s-13.571-15.607-13.659-34.937c-.088-19.33 13.34-35.063 13.34-35.063s13.571 15.607 13.659 34.937Z" fill="#97CCB4"/><path d="M205.969 159.074h-6.927v6.472h6.927v-6.472ZM215.245 159.074h-6.928v6.472h6.928v-6.472ZM205.969 167.899h-6.927v6.707h6.927v-6.707ZM215.245 167.899h-6.928v6.707h6.928v-6.707ZM114.641 123.346h-5.421v5.064h5.421v-5.064ZM121.9 123.346h-5.421v5.064h5.421v-5.064ZM114.641 130.252h-5.421v5.249h5.421v-5.249ZM121.9 130.252h-5.421v5.249h5.421v-5.249ZM155.267 123.346h-5.421v5.064h5.421v-5.064ZM162.526 123.346h-5.422v5.064h5.422v-5.064ZM155.267 130.252h-5.421v5.249h5.421v-5.249ZM162.526 130.252h-5.422v5.249h5.422v-5.249ZM135.072 123.346h-5.422v5.064h5.422v-5.064ZM142.331 123.346h-5.422v5.064h5.422v-5.064ZM135.072 130.252h-5.422v5.249h5.422v-5.249ZM142.331 130.252h-5.422v5.249h5.422v-5.249Z" fill="#4E596A"/><path d="M176.037 160.189h-3.414v3.189h3.414v-3.189ZM180.608 160.189h-3.414v3.189h3.414v-3.189ZM176.037 164.538h-3.414v3.305h3.414v-3.305ZM180.608 164.538h-3.414v3.305h3.414v-3.305ZM181.782 172.842a.94.94 0 0 0 .939-.942.94.94 0 1 0-1.878 0c0 .52.42.942.939.942Z" fill="#F2F2F2"/><path d="M160.531 158.016h-52v.47h52v-.47ZM160.531 160.133h-52v.47h52v-.47ZM160.531 162.252h-52v.471h52v-.471ZM160.531 164.369h-52v.471h52v-.471ZM160.531 166.487h-52v.471h52v-.471ZM160.531 168.605h-52v.471h52v-.471ZM160.531 170.723h-52v.47h52v-.47ZM160.531 172.842h-52v.47h52v-.47ZM160.531 174.959h-52v.471h52v-.471ZM160.531 177.195h-52v.471h52v-.471Z" fill="#EDEEF0"/><path d="M98.531 158.016h-28v.47h28v-.47ZM98.531 160.133h-28v.47h28v-.47ZM98.531 162.252h-28v.471h28v-.471ZM98.531 164.369h-28v.471h28v-.471ZM98.531 166.487h-28v.471h28v-.471ZM98.531 168.605h-28v.471h28v-.471ZM98.531 170.723h-28v.47h28v-.47ZM98.531 172.842h-28v.47h28v-.47ZM98.531 174.959h-28v.471h28v-.471ZM98.531 177.195h-28v.471h28v-.471Z" fill="#F2F2F2"/><path d="m143.287 43.466 9.206-7.363c-7.152-.789-10.09 3.111-11.293 6.198-5.587-2.32-11.669.72-11.669.72l18.419 6.688a13.938 13.938 0 0 0-4.663-6.243ZM281.287 114.466l9.206-7.363c-7.152-.789-10.09 3.111-11.293 6.198-5.587-2.32-11.669.721-11.669.721l18.419 6.687a13.937 13.937 0 0 0-4.663-6.243Z" fill="#004B76"/></svg>