<svg width="303" height="182" fill="none" xmlns="http://www.w3.org/2000/svg">
    <path d="M0 .518h303v181.259H0V.517Z" fill="#fff"/>
    <rect x="58.487" y="23.835" width="77.253" height="103.133" rx="2.704" fill="#fff" stroke="#D1D1D1"
          stroke-width="1.545"/>
    <rect x="65.439" y="36.968" width="32.446" height="3.09" rx="1.159" fill="#C4C4C4"/>
    <rect x="65.439" y="65.552" width="61.03" height="3.09" rx="1.159" fill="#C4C4C4"/>
    <rect x="65.439" y="72.118" width="61.03" height="3.09" rx="1.159" fill="#C4C4C4"/>
    <rect x="65.439" y="78.685" width="61.03" height="3.09" rx="1.159" fill="#C4C4C4"/>
    <rect x="65.439" y="85.251" width="61.03" height="3.09" rx="1.159" fill="#C4C4C4"/>
    <rect x="65.439" y="91.817" width="42.103" height="3.09" rx="1.159" fill="#C4C4C4"/>
    <rect x="65.439" y="43.534" width="27.038" height="3.09" rx="1.159" fill="#C4C4C4"/>
    <rect x="122.821" y="115.908" width="118.454" height="32.39" rx="7.403" fill="#C4C4C4"/>
    <rect x="113.412" y="109.276" width="121.539" height="33.315" rx="6.941" fill="#EBEBEB" stroke="#C4C4C4"
          stroke-width=".925"/>
    <path d="M235.414 133.491a9.868 9.868 0 0 0-9.12 6.094 9.87 9.87 0 0 0 2.14 10.757 9.874 9.874 0 0 0 10.758 2.14 9.872 9.872 0 0 0 6.093-9.12 9.886 9.886 0 0 0-2.894-6.977 9.886 9.886 0 0 0-6.977-2.894Z"
          fill="#349D6E"/>
    <path d="M234.745 147.678a1.174 1.174 0 0 1-.708-.235l-.012-.009-2.665-2.038a1.188 1.188 0 0 1-.219-1.661 1.183 1.183 0 0 1 1.66-.219l1.726 1.324 4.078-5.321a1.179 1.179 0 0 1 1.245-.423c.151.04.291.109.415.204l-.025.035.026-.035a1.187 1.187 0 0 1 .219 1.66l-4.797 6.255a1.188 1.188 0 0 1-.942.462l-.001.001Z"
          fill="#fff"/>
    <path fill="#fff" stroke="#D1D1D1" stroke-width=".925"
          d="M125.752 118.838h28.071v14.19h-28.071zM159.375 118.838h28.071v14.19h-28.071zM192.999 118.838h28.071v14.19h-28.071z"/>
    <path d="M133.888 123.276h-.929l-.8 1.428h-.013l-.807-1.428h-.986l1.287 2.145-1.339 2.273h.935l.846-1.543h.013l.858 1.543h.986l-1.345-2.26 1.294-2.158Zm5.017 0h-.928l-.801 1.428h-.013l-.807-1.428h-.986l1.287 2.145-1.338 2.273h.935l.845-1.543h.013l.858 1.543h.986l-1.344-2.26 1.293-2.158Zm5.018 0h-.929l-.8 1.428h-.013l-.807-1.428h-.986l1.287 2.145-1.339 2.273h.935l.846-1.543h.013l.858 1.543h.986l-1.345-2.26 1.294-2.158Zm5.017 0h-.928l-.801 1.428h-.013l-.807-1.428h-.986l1.287 2.145-1.338 2.273h.935l.845-1.543h.013l.858 1.543h.986l-1.345-2.26 1.294-2.158ZM167.511 123.276h-.928l-.801 1.428h-.013l-.807-1.428h-.986l1.287 2.145-1.338 2.273h.935l.845-1.543h.013l.858 1.543h.986l-1.344-2.26 1.293-2.158Zm5.018 0h-.929l-.8 1.428h-.013l-.807-1.428h-.986l1.287 2.145-1.339 2.273h.935l.846-1.543h.013l.858 1.543h.986l-1.345-2.26 1.294-2.158Zm5.017 0h-.928l-.801 1.428h-.013l-.807-1.428h-.986l1.287 2.145-1.338 2.273h.935l.845-1.543h.013l.858 1.543h.986l-1.344-2.26 1.293-2.158Zm5.018 0h-.929l-.8 1.428h-.013l-.807-1.428h-.986l1.287 2.145-1.339 2.273h.935l.846-1.543h.013l.858 1.543h.986l-1.345-2.26 1.294-2.158ZM201.135 123.276h-.929l-.8 1.428h-.013l-.807-1.428h-.986l1.287 2.145-1.338 2.273h.935l.845-1.543h.013l.858 1.543h.986l-1.345-2.26 1.294-2.158Zm5.017 0h-.928l-.801 1.428h-.013l-.807-1.428h-.986l1.287 2.145-1.338 2.273h.935l.845-1.543h.013l.858 1.543h.986l-1.344-2.26 1.293-2.158Zm5.018 0h-.929l-.8 1.428h-.013l-.807-1.428h-.986l1.287 2.145-1.339 2.273h.935l.846-1.543h.013l.858 1.543h.986l-1.345-2.26 1.294-2.158Zm5.017 0h-.928l-.801 1.428h-.013l-.807-1.428h-.986l1.287 2.145-1.338 2.273h.935l.845-1.543h.013l.858 1.543h.986l-1.344-2.26 1.293-2.158Z"
          fill="#C4C4C4"/>
    <path d="M171.349 137.276a.194.194 0 0 0-.238-.134l-1.674.467a.192.192 0 0 0-.134.238.194.194 0 0 0 .238.134l1.488-.415.415 1.488a.193.193 0 1 0 .372-.103l-.467-1.675Zm-16.382 16.738-.1-.165.1.165Zm-22.305 6.575-.006-.193.006.193Zm-22.657-5.234.089-.171-.089.171Zm-17.162-15.692-.162.105.162-.105Zm-7.236-22.099.192-.011-.192.011Zm4.556-22.803.174.085-.174-.085Zm15.283-17.462c.088-.061.11-.181.049-.27a.192.192 0 0 0-.268-.049l.219.319Zm-1.815.832a.193.193 0 1 0 .232.308l-.232-.308Zm-2.78 2.787a.193.193 0 1 0-.258-.287l.258.287Zm-3.07 2.463a.193.193 0 1 0 .282.265l-.282-.264Zm-2.264 3.22a.193.193 0 0 0-.303-.239l.303.24Zm-2.605 2.951a.193.193 0 1 0 .322.213l-.322-.213Zm-1.682 3.56a.193.193 0 1 0-.34-.185l.34.184Zm-2.065 3.35a.193.193 0 0 0 .354.155l-.354-.155Zm-1.051 3.794a.193.193 0 0 0-.366-.124l.366.124Zm-1.464 3.654a.192.192 0 0 0 .142.233.193.193 0 0 0 .233-.141l-.375-.092Zm-.39 3.917a.194.194 0 0 0-.16-.221.194.194 0 0 0-.22.162l.38.059Zm-.819 3.85a.193.193 0 0 0 .385.027l-.385-.027Zm.284 3.926a.193.193 0 1 0-.386.007l.386-.007Zm-.152 3.934a.193.193 0 1 0 .384-.04l-.384.04Zm.949 3.82a.193.193 0 1 0-.38.072l.38-.072Zm.52 3.902a.193.193 0 0 0 .372-.105l-.371.105Zm1.586 3.602a.193.193 0 0 0-.361.136l.361-.136Zm1.178 3.756a.193.193 0 1 0 .349-.166l-.349.166Zm2.177 3.28a.193.193 0 1 0-.334.196l.334-.196Zm1.8 3.501a.193.193 0 1 0 .315-.223l-.315.223Zm2.704 2.861a.193.193 0 1 0-.295.249l.295-.249Zm2.37 3.142a.193.193 0 1 0 .273-.273l-.273.273Zm3.152 2.359a.193.193 0 0 0-.249.296l.249-.296Zm2.871 2.693a.193.193 0 0 0 .222-.316l-.222.316Zm3.507 1.787a.192.192 0 0 0-.264.07.194.194 0 0 0 .07.264l.194-.334Zm3.289 2.164a.194.194 0 0 0 .257-.092.194.194 0 0 0-.093-.258l-.164.35Zm3.76 1.163a.193.193 0 1 0-.134.362l.134-.362Zm3.609 1.572a.192.192 0 0 0 .237-.134.192.192 0 0 0-.134-.238l-.103.372Zm3.904.506a.194.194 0 0 0-.226.154.195.195 0 0 0 .155.226l.071-.38Zm3.823.934a.193.193 0 1 0 .038-.384l-.038.384Zm3.933-.167a.193.193 0 0 0-.005.387l.005-.387Zm3.927.269a.193.193 0 1 0-.028-.385l.028.385Zm3.847-.834a.193.193 0 0 0 .061.381l-.061-.381Zm3.916-.404a.193.193 0 1 0-.093-.375l.093.375Zm3.648-1.478a.193.193 0 0 0 .125.366l-.125-.366Zm3.79-1.065a.194.194 0 0 0 .099-.255.194.194 0 0 0-.255-.099l.156.354Zm3.343-2.078a.193.193 0 1 0 .185.339l-.185-.339Zm3.553-1.695a.193.193 0 1 0-.214-.322l.214.322Zm2.94-2.617a.193.193 0 0 0-.031.271.194.194 0 0 0 .271.031l-.24-.302Zm3.212-2.276a.193.193 0 0 0 .007-.273.193.193 0 0 0-.273-.008l.266.281Zm2.451-3.08a.193.193 0 1 0 .289.257l-.289-.257Zm2.777-2.79a.192.192 0 0 0-.039-.27.192.192 0 0 0-.27.039l.309.231Zm1.891-3.452a.194.194 0 0 0 .062.266c.091.056.21.028.266-.062l-.328-.204ZM105.227 76.98c-.541.373-1.073.756-1.596 1.15l.232.31c.519-.392 1.047-.772 1.583-1.141l-.219-.319Zm-4.634 3.65a46.077 46.077 0 0 0-2.812 2.752l.282.264a45.71 45.71 0 0 1 2.788-2.728l-.258-.287Zm-5.379 5.733a45.935 45.935 0 0 0-2.302 3.19l.322.212a45.595 45.595 0 0 1 2.283-3.163l-.303-.24Zm-4.324 6.564c-.312.576-.612 1.159-.9 1.75l.347.169c.285-.586.583-1.164.893-1.735l-.34-.184Zm-.9 1.75c-.288.59-.563 1.185-.825 1.785l.354.155c.26-.596.532-1.186.818-1.771l-.347-.17Zm-2.242 5.455a46.011 46.011 0 0 0-1.098 3.778l.375.092a45.434 45.434 0 0 1 1.089-3.746l-.366-.124Zm-1.869 7.636a45.955 45.955 0 0 0-.438 3.909l.385.027c.09-1.299.235-2.593.435-3.877l-.382-.059Zm-.54 7.842c.01.655.036 1.31.075 1.966l.385-.023c-.038-.651-.063-1.3-.074-1.95l-.386.007Zm.075 1.966c.039.655.092 1.309.16 1.961l.383-.04a45.563 45.563 0 0 1-.157-1.944l-.386.023Zm.728 5.853c.246 1.29.546 2.568.9 3.83l.372-.105a45.526 45.526 0 0 1-.892-3.797l-.38.072Zm2.125 7.568a45.94 45.94 0 0 0 1.539 3.62l.349-.166a45.479 45.479 0 0 1-1.527-3.59l-.361.136Zm3.382 7.096c.332.565.676 1.123 1.032 1.675l.324-.209a44.881 44.881 0 0 1-1.022-1.662l-.334.196Zm1.032 1.675c.356.552.724 1.095 1.102 1.63l.315-.223c-.375-.53-.74-1.069-1.093-1.616l-.324.209Zm3.51 4.74a45.904 45.904 0 0 0 2.666 2.893l.273-.273a45.904 45.904 0 0 1-2.643-2.869l-.295.249Zm5.569 5.548a46.242 46.242 0 0 0 3.12 2.397l.222-.316a45.781 45.781 0 0 1-3.093-2.377l-.249.296Zm6.433 4.518c.566.329 1.14.646 1.722.952l.179-.342a47.15 47.15 0 0 1-1.707-.944l-.194.334Zm1.722.952c.581.306 1.168.598 1.761.878l.164-.35a45.747 45.747 0 0 1-1.746-.87l-.179.342Zm5.387 2.403c1.231.457 2.48.861 3.743 1.21l.103-.372a45.455 45.455 0 0 1-3.712-1.2l-.134.362Zm7.576 2.096c1.288.24 2.588.425 3.894.554l.038-.384a45.516 45.516 0 0 1-3.861-.55l-.071.38Zm7.822.774c.655.008 1.311.003 1.968-.017l-.012-.386c-.651.019-1.301.025-1.951.016l-.005.387Zm1.968-.017c.656-.02 1.311-.053 1.964-.101l-.028-.385c-.647.047-1.297.081-1.948.1l.012.386Zm5.872-.554a46.168 46.168 0 0 0 3.855-.785l-.093-.375a45.489 45.489 0 0 1-3.823.779l.061.381Zm7.628-1.897a46.095 46.095 0 0 0 3.665-1.431l-.156-.354a45.32 45.32 0 0 1-3.634 1.419l.125.366Zm7.193-3.17a47.317 47.317 0 0 0 1.706-.981l-.2-.331c-.557.337-1.121.661-1.691.973l.185.339Zm1.706-.981c.562-.34 1.116-.691 1.662-1.053l-.214-.322c-.541.359-1.091.707-1.648 1.044l.2.331Zm4.842-3.368a46.154 46.154 0 0 0 2.972-2.578l-.266-.281a45.682 45.682 0 0 1-2.946 2.557l.24.302Zm5.712-5.401a45.755 45.755 0 0 0 2.488-3.047l-.309-.231a45.824 45.824 0 0 1-2.468 3.021l.289.257Zm4.707-6.295c.346-.557.681-1.121 1.003-1.693l-.336-.19c-.32.568-.652 1.127-.995 1.679l.328.204Zm1.207-1.891a.386.386 0 0 0-.476-.269l-3.348.933a.386.386 0 1 0 .207.744l2.977-.829.829 2.977a.387.387 0 0 0 .744-.208l-.933-3.348Zm-16.568 16.789-.2-.33.2.33Zm-22.305 6.575-.012-.386.012.386Zm-22.657-5.234.179-.342-.179.342Zm-17.162-15.692-.324.21.324-.21Zm-7.236-22.099.385-.023-.385.023Zm4.556-22.803.347.17-.347-.17Zm15.392-17.303a.386.386 0 1 0-.438-.637l.438.636Zm-2.041.519a.387.387 0 0 0 .465.616l-.465-.617Zm-2.534 3.085a.386.386 0 1 0-.516-.575l.516.575Zm-3.34 2.187a.386.386 0 0 0 .564.529l-.564-.529Zm-1.971 3.472a.386.386 0 1 0-.606-.478l.606.478Zm-2.919 2.725a.386.386 0 1 0 .645.425l-.645-.425Zm-1.35 3.757a.386.386 0 1 0-.68-.368l.68.368Zm-2.412 3.182a.386.386 0 1 0 .708.309l-.708-.309Zm-.691 3.933a.386.386 0 0 0-.732-.248l.732.248Zm-1.835 3.546a.386.386 0 0 0 .75.184l-.75-.184Zm-.01 3.993a.386.386 0 1 0-.764-.119l.764.119Zm-1.204 3.807a.387.387 0 0 0 .771.053l-.77-.053Zm.67 3.936a.386.386 0 1 0-.772.013l.772-.013Zm-.537 3.956a.386.386 0 1 0 .769-.079l-.769.079Zm1.33 3.765a.387.387 0 0 0-.758.144l.759-.144Zm.145 3.99a.386.386 0 0 0 .744-.209l-.743.209Zm1.953 3.483a.386.386 0 1 0-.723.271l.723-.271Zm.823 3.907a.386.386 0 0 0 .697-.333l-.697.333Zm2.517 3.099a.386.386 0 0 0-.666.39l.666-.39Zm1.477 3.709a.386.386 0 1 0 .63-.446l-.63.446Zm3.008 2.625a.386.386 0 0 0-.59.499l.59-.499Zm2.087 3.404a.386.386 0 1 0 .545-.547l-.545.547Zm3.412 2.074a.386.386 0 1 0-.497.592l.497-.592Zm2.636 2.999a.387.387 0 0 0 .444-.633l-.444.633Zm3.715 1.462a.386.386 0 1 0-.388.668l.388-.668Zm3.109 2.505a.386.386 0 1 0 .33-.698l-.33.698Zm3.91.808a.386.386 0 0 0-.269.724l.269-.724Zm3.49 1.939a.386.386 0 1 0 .206-.744l-.206.744Zm3.991.13a.386.386 0 1 0-.142.76l.142-.76Zm3.769 1.316a.386.386 0 1 0 .076-.768l-.076.768Zm3.955-.552a.386.386 0 1 0-.01.773l.01-.773Zm3.938.655a.387.387 0 1 0-.056-.771l.056.771Zm3.803-1.218a.387.387 0 0 0 .122.763l-.122-.763Zm3.992-.026a.385.385 0 1 0-.186-.749l.186.749Zm3.54-1.848a.387.387 0 0 0 .25.731l-.25-.731Zm3.93-.705a.387.387 0 0 0-.312-.707l.312.707Zm3.172-2.424a.385.385 0 1 0 .371.677l-.371-.677Zm3.753-1.366a.386.386 0 1 0-.428-.643l.428.643Zm2.713-2.929a.386.386 0 1 0 .481.605l-.481-.605Zm3.464-1.984a.387.387 0 0 0-.53-.561l.53.561Zm2.175-3.349a.386.386 0 1 0 .577.514l-.577-.514Zm3.076-2.545a.386.386 0 1 0-.619-.463l.619.463Zm1.572-3.67a.386.386 0 1 0 .656.408l-.656-.408Zm-64.719-61.989c-.543.374-1.077.76-1.603 1.156l.465.616c.517-.389 1.042-.768 1.576-1.136l-.438-.636Zm-4.653 3.666c-.98.88-1.923 1.803-2.824 2.762l.564.529a45.613 45.613 0 0 1 2.776-2.716l-.516-.575Zm-5.401 5.756a46.115 46.115 0 0 0-2.313 3.203l.645.425a45.391 45.391 0 0 1 2.274-3.15l-.606-.478Zm-4.343 6.592a46.153 46.153 0 0 0-.904 1.757l.694.338c.285-.582.581-1.158.89-1.727l-.68-.368Zm-.904 1.757c-.29.592-.565 1.19-.828 1.793l.708.309c.258-.593.53-1.18.814-1.764l-.694-.339Zm-2.251 5.478a46.204 46.204 0 0 0-1.103 3.794l.75.184c.308-1.257.67-2.502 1.085-3.73l-.732-.248Zm-1.877 7.668c-.202 1.3-.349 2.61-.44 3.926l.771.053c.09-1.294.234-2.582.433-3.86l-.764-.119Zm-.542 7.875c.01.658.036 1.316.075 1.974l.771-.046a45.278 45.278 0 0 1-.074-1.941l-.772.013Zm.075 1.974c.04.658.093 1.315.16 1.969l.769-.079a45.351 45.351 0 0 1-.158-1.936l-.77.046Zm.732 5.878a46.09 46.09 0 0 0 .903 3.846l.744-.209a45.474 45.474 0 0 1-.888-3.781l-.76.144Zm2.133 7.6a46.316 46.316 0 0 0 1.546 3.636l.697-.333a45.424 45.424 0 0 1-1.52-3.574l-.723.271Zm3.397 7.125c.332.568.678 1.129 1.036 1.683l.649-.419a45.444 45.444 0 0 1-1.019-1.654l-.666.39Zm1.036 1.683c.357.554.726 1.1 1.106 1.636l.631-.446a45.202 45.202 0 0 1-1.088-1.609l-.65.419Zm3.525 4.76a46.199 46.199 0 0 0 2.677 2.905l.545-.547a45.332 45.332 0 0 1-2.632-2.857l-.59.499Zm5.592 5.571a46.3 46.3 0 0 0 3.133 2.407l.444-.633a45.061 45.061 0 0 1-3.08-2.366l-.497.592Zm6.46 4.537c.569.33 1.145.649 1.729.956l.359-.684a45.936 45.936 0 0 1-1.7-.94l-.388.668Zm1.729.956c.584.307 1.173.601 1.768.881l.33-.698a44.674 44.674 0 0 1-1.739-.867l-.359.684Zm5.409 2.413c1.237.459 2.491.865 3.759 1.215l.206-.744a45.58 45.58 0 0 1-3.696-1.195l-.269.724Zm7.608 2.105c1.294.241 2.599.427 3.911.556l.076-.768a45.545 45.545 0 0 1-3.845-.548l-.142.76Zm7.856.777c.657.008 1.316.003 1.975-.017l-.023-.772c-.648.019-1.296.025-1.942.016l-.01.773Zm1.975-.017c.66-.02 1.317-.053 1.973-.101l-.056-.771c-.645.047-1.292.081-1.94.1l.023.772Zm5.898-.556a46.128 46.128 0 0 0 3.87-.789l-.186-.749a45.482 45.482 0 0 1-3.806.775l.122.763Zm7.66-1.906a46.231 46.231 0 0 0 3.68-1.436l-.312-.707a45.44 45.44 0 0 1-3.618 1.412l.25.731Zm7.223-3.183a45.64 45.64 0 0 0 1.713-.985l-.4-.661a46.12 46.12 0 0 1-1.684.969l.371.677Zm1.713-.985a46.505 46.505 0 0 0 1.669-1.058l-.428-.643c-.539.358-1.086.705-1.641 1.04l.4.661Zm4.863-3.382a46.247 46.247 0 0 0 2.983-2.589l-.53-.561a45.555 45.555 0 0 1-2.934 2.545l.481.605Zm5.735-5.424a46.453 46.453 0 0 0 2.499-3.059l-.619-.463a45.167 45.167 0 0 1-2.457 3.008l.577.514Zm4.727-6.321c.348-.559.683-1.126 1.008-1.7l-.673-.38a45.905 45.905 0 0 1-.991 1.672l.656.408Z"
          fill="#349D6E"/>
    <path d="M0 .518v-.902h-.902v.902H0Zm303 0h.902v-.902H303v.902Zm0 181.259v.902h.902v-.902H303Zm-303 0h-.902v.902H0v-.902ZM0 1.42h303V-.384H0V1.42ZM302.098.518v181.259h1.804V.517h-1.804ZM303 180.875H0v1.804h303v-1.804Zm-302.098.902V.517H-.902v181.26H.902Z"
          fill="#DCE0E0"/>
</svg>