<svg width="255" height="391" fill="none" xmlns="http://www.w3.org/2000/svg"><path d="m111.428 6.638 8.186-6.546c-6.359-.702-8.972 2.766-10.041 5.51-4.968-2.062-10.376.642-10.376.642l16.377 5.945a12.388 12.388 0 0 0-4.146-5.55Z" fill="#349D6E"/><path d="m163.231 61.638 8.185-6.546c-6.358-.702-8.971 2.766-10.04 5.51-4.968-2.062-10.376.642-10.376.642l16.377 5.945a12.388 12.388 0 0 0-4.146-5.55Z" fill="#97CCB4"/><path d="m246.231 12.638 8.185-6.546c-6.358-.702-8.971 2.766-10.04 5.51-4.968-2.062-10.376.641-10.376.641l16.377 5.946a12.388 12.388 0 0 0-4.146-5.55Z" fill="#B0D8C6"/><path d="m82.222 102 4.883 2.642 5.185-1.321 6.76.566 10.516 11.839 2.03 6.714 11.945 1.584 1.928-2.188 12.195 5.657 3.832-1.96 7.062 10.182 10.442 3.77-7.664 7.39-8.037-2.335-7.212 4.373 7.511 16.518.452 10.483-4.658 5.732-7.137 3.017.826 13.501-.901 5.506-5.634-1.434-10.744 9.275-5.784-.904-1.952 3.393-4.059-.98 2.706-11.162-7.663-2.035 1.577-9.278-4.583-4.073-.374-6.561-5.484-4.072-1.276-5.581 5.332-4.977-3.23-3.622-3.38 4.448-5.41-.002-.334-4.046-10.522 2.529 3.08 2.977.391 9.273-5.709.953-5.372 4.271-3.021-2.134.783-13.488-4.647.057-4.086-2.752-14.327 8.26-.671-10.62-8.787.897.615-8.709 8.955.73 4.757-12.923.503-17.418-4.923-.843 1.062-7.361 7.22-5.844 17.52-1.911 4.588 6.687-.784 2.193-2.406 1.461.168 2.021 5.091 1.686 1.567-4.215-1.567-2.639 2.129-.955 4.28 2.816-.227-7.02L82.223 102Z" fill="#DCDEE1" stroke="#F2F6F8" stroke-miterlimit="10"/><path d="m38.76 171.281-11.144 7.139 2.562 5.855-11.503 3.404-4.47-3.153-7.132 3.153v6.008l4.671 4.906 1.154 9.91-4.872 6.307 2.562 3.254-4.971 3.903-3.617-.2 5.774 5.957-2.157 5.655 1.708 3.706 3.062.45 2.412 4.754-2.11 1.302 4.92 5.357.201 4.052 10.4-.651 1.005-4.503 17.528-11.012 6.58-.902 4.773-7.909 1.657.25 6.832 11.813 1.708-3.001-1.408-2.204 4.17-2.953 3.216.051 4.368-6.808v-2.703l4.321-.25.552-7.659-4.27.349 9.945-6.306v-3.553l4.47-.15.354 3.604 1.756-.301 5.654-9.278 1.579-9.22-4.588-4.047-.375-6.52-5.49-4.046-1.278-5.546 5.338-4.946L91.374 161l-3.384 4.42-5.416-.002-.334-4.021-10.534 2.513 3.084 2.959.39 9.214-5.715.947-5.378 4.244-3.025-2.12.785-13.403-4.653.056-4.09-2.734-14.344 8.208Z" fill="#4E596A" stroke="#F6F7F8" stroke-miterlimit="10"/><path d="M64.675 246.314h-3.247v6.821l2.41 3.616-8.8 8.542v4.426l4.82 1.16 5.342-2.215 4.505 4.218L74 280.895l-3.353 4.113 1.571 8.856L74 296.078 65.723 314l-7.229-3.584-12.257-.317-3.665-5.903-3.353-4.008v-12.756l-4.924-.422-3.771-3.691-8.696 5.063-7.437-.421v-4.325l3.561-4.427v-3.584L8 264.026l2.411-2.424 1.046-6.959 5.137-1.508 10.363-.655 1-4.532 17.467-11.081 6.556-.908L56.737 228l1.65.252 6.808 11.887-.52 6.175Z" fill="#4E596A" stroke="#F2F6F8" stroke-miterlimit="10"/><path d="m13 291.371 5.262.964.536 5.901 4.726 6.868 3.653-1.502L33.943 308h4.833L42 304.246l-3.438-4.078v-12.983l-5.048-.429L29.647 283l-8.916 5.152-7.624-.428-.107 3.647Z" fill="#4E596A" stroke="#F6F7F8" stroke-miterlimit="10"/><path d="m60.495 321.922-4.702 2.641-4.597 11.1v5.182l-6.586 11.838 1.57 4.441L42 369.598l5.33 6.872h9.927l6.686-2.539L70.736 377l2.613-3.806-3.866-4.124 3.866-2.856 7.835 6.027 10.452-.21 17.034 3.594 3.238-4.334 8.15.422-.94-20.825-3.24-12.686 8.466-5.182-1.149-6.024 4.805 1.585-.835-12.581-8.257-13.741.107-10.15-2.823 1.162-5.016-4.756.942-4.546h-5.643l-.524-4.969-9.51 1.058-1.357 2.853h3.552v2.328l-11.39 5.815L85 297.183l-2.56-1.373 1.15-4.334-5.644-5.181-1.67 4.863-3.451-4.756-2.496.035 1.242 7.047 1.778 2.221-8.257 17.97-4.597 8.247Z" fill="#DCDEE1" stroke="#F6F7F8" stroke-miterlimit="10"/><path d="m123.849 390 3.147-6.597 2.202-1.255v-3.667l10.482-1.36 4.612 6.44h10.169l7.861-7.487 17.611-2.096v-4.397l2.621-.525 4.297 2.933h9.644l.734 4.607 6.814 2.933 2.936-8.063-4.719-1.677.526-5.759-6.815-11.415 15.724-11.1 4.508-10.682 7.023 3.667 3.774-1.886-.942-11.833-3.985-3.455h-3.459l-18.868-18.641h-5.032l-4.508-3.141-2.41-9.634-4.927-3.77 4.401-8.692-9.539-5.026-.313-5.445-4.404-3.352 2.41-2.618-6.288-3.56-7.444.491-3.982.661-1.364-4.503h-3.564l-.104 10.263-4.927.314-1.257-5.237-8.597-.418 2.098 5.967-7.864-.312-2.202-7.54L119.344 248l-5.347 5.447-4.612.491-1.26 3.592-5.239 5.132-.526 4.085-4.297-1.362-10.063.941.838 9.951 2.936 3.767-.734 5.029-1.887 2.723.54 2.858 8.789-4.429v-2.306h-3.564l1.362-2.827 9.539-1.048.526 4.923h5.661l-.945 4.503 5.032 4.711 2.831-1.151-.106 10.054 8.282 13.612.838 12.463-4.82-1.571 1.153 5.968-8.493 5.132 3.251 12.567.942 20.63-8.176-.419-3.248 4.293 3.352 3.352 2.306.104 3.356 5.863h4.508L119.658 390h4.191Z" fill="#DCDEE1" stroke="#F2F6F8" stroke-miterlimit="10"/><path d="m184.492 257.754 4.382-4.412 5.323-.736 7.098-4.831h4.279l2.609-6.089h5.74l3.131-4.832 18.995-7.666-3.237-5.251 3.654-2.786 6.785 2.997.521 5.564 4.802 1.682L254 217.953l-3.34-13.442-6.261-5.147h-5.323l-3.027 3.885-7.098-2.623-1.565 8.294-12.211 2.206-5.74-4.201-4.8 3.362-.837-6.407-7.409-5.88-9.601 3.885-8.977 2.31-.521 17.089 1.983 2.76 4.382.944 5.846 5.251-10.645 6.3 1.148 5.776-6.264 5.46-3.338-4.094-2.402 3.361 2.61 2.939-.835 3.256 6.261 3.57L182.09 265l1.879-1.051.523-6.195Z" fill="#4E596A" stroke="#F6F7F8" stroke-miterlimit="10"/><path d="m202.754 188.961-12.476-7.151-3.459 2.074-9.54-7.36v-15.545l-4.298-1.76 3.775-4.563v-8.808l-9.017-.726-8.475-5.879-8.264-2.94 6.465-2.372.422-3.42 10.69-1.451 1.887-4.457 3.985-.415 9.644 6.426 10.274 1.554 8.387-4.146 6.919-3.211.734-5.08 5.554-3.731 1.26 4.354 9.852.206-2.306 6.84 7.234-2.695v6.117l-2.096 5.7-5.031 4.974v3.834l5.555 1.969 7.129 7.98 2.83 2.164-2.726 5.195 2.726 5.906 2.098 2.386v6.32l1.465 3.214-3.038 9.637 4.087 4.248-.523 4.043h-5.347l-3.04 3.834-7.129-2.589-1.573 8.186L215.123 210l-5.765-4.146-4.821 3.317-.841-6.322-5.696-4.441 5.277-5.093-.523-4.354Z" fill="#4E596A" stroke="#F6F7F8" stroke-miterlimit="10"/><path d="m140.94 199.758-.726 4.307 1.868 3.884 11.936 1.363 1.971 2.729-2.18 4.831 3.945 5.985 7.991.628L177.16 228l1.868-4.408-1.971-2.759.518-17.084 8.926-2.309 9.547-3.885 1.728 1.38 5.224-5.159-.518-4.411-12.351-7.244-3.424 2.101-9.444-7.456v-15.747l-4.254-1.783 3.736-4.622v-8.923l-8.926-.735-8.39-5.956-7.573 7.359-7.943-2.325-7.126 4.354 7.422 16.448.447 10.439-4.603 5.707-7.053 3.005.817 13.443 7.123 2.328ZM78 130l3.702 9H91l-5.751-6.826L78 130Z" fill="#4E596A" stroke="#F6F7F8" stroke-miterlimit="10"/><path d="m110 115.821 1.151-2.14h3.236l6.711-4.681 2.184 1.032-.971 3.649 4.689 4.604-.965 3.559-1.944 2.156-12.045-1.561-2.046-6.618Z" fill="#DCDEE1" stroke="#F2F6F8" stroke-miterlimit="10"/><path d="m200 165.412 1.349-3.842-1.349-2.275 3.297-5.412 2.471 2.116 3.07-3.999 3.671 1.097-1.649 6.041 6.14 3.372-2.845 5.49-5.655-2.745-5.951-.313-2.549.47ZM81 57l16.361 1.8 4.474 3.324 4.055-2.561 6.293 3.67h4.613l2.099 9.417-4.754 4.846h6.851l16.5 6.234 3.775-3.324L147 87.33l-10.068 8.585 3.916 2.91-3.636 4.708 3.495 6.51-6.571 10.387-.355 4.569-8.259-3.781.955-3.554-4.639-4.598.96-3.643-2.161-1.031-6.64 4.674h-3.201l-1.139 2.138-10.492-11.653-6.744-.557-5.304-8.405 4.066-.275-1.67-3.639-3.564-.663 2.449-5.623L81 82.844l4.893-5.017 5.789-3.694-4.677 1.38.838-5.515-6.35-10.202L81 57Z" fill="#4E596A" stroke="#F6F7F8" stroke-miterlimit="10"/><path d="m142.677 97.671 5.459-1.76 2.393 5.342h3.315l5.378-10.627 11.923-1.7 12.638-7.773L194.03 80l10.859 11.335 6.626-3.682 3.926 10.808v3.574l5.892 4.502 5.336-1.213L232 124.382l-7.238 2.699 2.308-6.851-9.858-.207-1.26-4.361-5.558 3.738-.735 5.088-15.314 7.37-10.279-1.557-9.65-6.437-3.987.415-1.888 4.465-10.697 1.454-.422 3.426-6.468 2.376-2.161-.767-7.053-10.026-3.827 1.93L134 125.35l.355-4.571 6.578-10.391-3.498-6.513 3.64-4.71 1.602-1.494Z" fill="#4E596A" stroke="#F6F7F8" stroke-miterlimit="10"/><path d="m118.905 241.663-6.872 1.331 5.683-16.623h3.302l1.982-8.645-5.482-1.463-1.843-5.555-5.779-.906-1.95 3.398-4.055-.981 2.703-11.181L98.938 199l-5.643 9.352-1.752.304-.353-3.633-4.461.151v3.582l-9.925 6.356 4.261-.352-.55 7.72-4.312.253v2.724l-4.36 6.862-3.208-.051-4.163 2.977 1.406 2.221-1.705 3.025-.52 6.185H60.4v6.832l2.412 3.622L54 265.687v4.434l4.827 1.161 5.352-2.218 4.512 4.224 4.3 8.027-3.357 4.119.326 1.832 2.506-.035 3.465 4.751 1.677-4.859 5.666 5.176-1.154 4.33L84.69 298l2.255-6.123 2.64-1.342-.54-2.882 1.889-2.746.734-5.071-2.938-3.8-.84-10.035 10.073-.949 4.301 1.374.526-4.119 5.244-5.177 1.261-3.622 4.616-.495 5.352-5.493-.358-5.857Z" fill="#DCDEE1" stroke="#F2F6F8" stroke-miterlimit="10"/><path d="m132.031 203.404-5.636-1.407-10.749 9.103 1.846 5.443 5.489 1.433-1.985 8.471h-3.306L112 242.735l6.88-1.304.359 5.738 10.609 5.072 2.207 7.451 7.881.308-2.103-5.896 8.617.413 1.26 5.175 4.938-.311.104-10.141h3.572l1.367 4.45 3.991-.654 7.461-.484.84-3.209-2.627-2.896 2.418-3.312 3.36 4.034 6.305-5.38-1.155-5.691L189 229.891l-5.885-5.175-4.411-.93-1.892 4.345-11.556-4.45-8.09-.62-3.994-5.899 2.207-4.761-1.995-2.69-12.084-1.343-1.891-3.829.736-4.244-7.212-2.295-.902 5.404Z" fill="#4E596A" stroke="#F6F7F8" stroke-miterlimit="10"/></svg>