<svg width="150" height="150" fill="none" xmlns="http://www.w3.org/2000/svg"><path opacity=".5" d="M128.12 114.526H21.089l.762-50.262 30.059-5.211h44.949l30.499 3.69.762 51.783z" fill="#B8BDC3"/><path opacity=".7" d="M62.12 39.95h-8.032V55.8h8.032V39.95z" fill="url(#paint0_linear_979_75854)"/><path opacity=".7" d="M54.084 75.968V58.836h-34.89L13.27 75.968v1.756h41.034v-1.756h-.22z" fill="url(#paint1_linear_979_75854)"/><path d="M54.087 75.987H13.703l5.862-16.934h34.523v16.934z" fill="#349D6E"/><path opacity=".1" d="M54.087 75.987H13.703l5.862-16.934h34.523v16.934z" fill="#000"/><path d="M54.304 75.988h-40.6v1.737h40.6v-1.737z" fill="#349D6E"/><path opacity=".7" d="M129.237 58.62H94.255v17.326h-.22v1.778h41.146v-1.778l-5.944-17.327z" fill="url(#paint2_linear_979_75854)"/><path d="M94.251 75.987h40.385l-5.862-16.934H94.251v16.934z" fill="#349D6E"/><path opacity=".1" d="M94.251 75.987h40.385l-5.862-16.934H94.251v16.934z" fill="#000"/><path d="M94.035 77.725h40.6v-1.738h-40.6v1.738z" fill="#349D6E"/><path opacity=".5" d="M46.489 84.564h-21.93v13.677h21.93V84.564z" fill="#349D6E"/><path opacity=".1" d="M47.789 97.268H23.256v2.387h24.533v-2.387z" fill="#000"/><path d="M47.789 97.05H23.256v2.388h24.533v-2.387z" fill="#4E596A"/><path opacity=".1" d="M46.489 84.564h-21.93v5.429h21.93v-5.428z" fill="#000"/><path opacity=".5" d="M124 84.564h-21.93v13.677H124V84.564z" fill="#349D6E"/><path opacity=".1" d="M125.3 97.268h-24.534v2.387H125.3v-2.387z" fill="#000"/><path d="M125.3 97.05h-24.534v2.388H125.3v-2.387z" fill="#4E596A"/><path opacity=".1" d="M124 84.564h-21.93v5.429H124v-5.428z" fill="#000"/><path opacity=".7" d="M101.021 60.07L74.239 39.357l-25.92 20.697-2.032-2.545L74.21 35.22l28.803 22.276-1.991 2.574z" fill="url(#paint3_linear_979_75854)"/><path opacity=".1" d="M50.505 77.725H21.627v.325h28.878v-.325zM127.582 77.725H98.379v.325h29.203v-.325z" fill="#000"/><path d="M61.903 40.164h-7.599v15.63h7.599v-15.63z" fill="#4E596A"/><path opacity=".7" d="M98.38 114.527H49.745v-59.49l24.526-.54 24.107.54v59.49z" fill="url(#paint4_linear_979_75854)"/><path d="M97.834 114.526h-47.33V55.037l23.667-16.826 23.663 16.826v59.489z" fill="#fff"/><path d="M80.137 94.55h-11.94v19.976h11.94V94.551z" fill="#4E596A"/><path opacity=".1" d="M86.436 76.64H61.903v2.388h24.533V76.64z" fill="#000"/><path opacity=".5" d="M85.136 63.94h-21.93v13.676h21.93V63.94z" fill="#349D6E"/><path d="M86.436 76.424H61.903v2.387h24.533v-2.387z" fill="#4E596A"/><path opacity=".1" d="M85.136 63.94h-21.93v5.428h21.93V63.94z" fill="#000"/><path d="M101.021 60.286L74.239 39.575 48.319 60.27l-2.032-2.544L74.21 35.436l28.803 22.276-1.991 2.574z" fill="#349D6E"/><path d="M78.404 105.407a.867.867 0 1 0 0-1.733.867.867 0 0 0 0 1.733z" fill="#E0E0E0"/><path d="M9.612 114.781h130.776" stroke="#B8BDC3"/><defs><linearGradient id="paint0_linear_979_75854" x1="2666.5" y1="1977.74" x2="2666.5" y2="1305.34" gradientUnits="userSpaceOnUse"><stop stop-color="gray" stop-opacity=".25"/><stop offset=".54" stop-color="gray" stop-opacity=".12"/><stop offset="1" stop-color="gray" stop-opacity=".1"/></linearGradient><linearGradient id="paint1_linear_979_75854" x1="10688.7" y1="3476.67" x2="10688.7" y2="2521.68" gradientUnits="userSpaceOnUse"><stop stop-color="gray" stop-opacity=".25"/><stop offset=".54" stop-color="gray" stop-opacity=".12"/><stop offset="1" stop-color="gray" stop-opacity=".1"/></linearGradient><linearGradient id="paint2_linear_979_75854" x1="19700.3" y1="3515.67" x2="19700.3" y2="2538.64" gradientUnits="userSpaceOnUse"><stop stop-color="gray" stop-opacity=".25"/><stop offset=".54" stop-color="gray" stop-opacity=".12"/><stop offset="1" stop-color="gray" stop-opacity=".1"/></linearGradient><linearGradient id="paint3_linear_979_75854" x1="21008.3" y1="3357.51" x2="21008.3" y2="1704.44" gradientUnits="userSpaceOnUse"><stop stop-color="gray" stop-opacity=".25"/><stop offset=".54" stop-color="gray" stop-opacity=".12"/><stop offset="1" stop-color="gray" stop-opacity=".1"/></linearGradient><linearGradient id="paint4_linear_979_75854" x1="17945.2" y1="16830.7" x2="17945.2" y2="7184.36" gradientUnits="userSpaceOnUse"><stop stop-color="gray" stop-opacity=".25"/><stop offset=".54" stop-color="gray" stop-opacity=".12"/><stop offset="1" stop-color="gray" stop-opacity=".1"/></linearGradient></defs></svg>