<svg width="162" height="96" viewBox="0 0 162 96" fill="none" xmlns="http://www.w3.org/2000/svg">
<rect x="27.2812" y="0.229012" width="56" height="56" rx="28" fill="#F6F7F8"/>
<path d="M43.4328 23.501L38.7708 34.229H37.1508L41.8488 23.915V23.879H36.4308V22.529H43.3248L43.4328 23.501ZM51.8188 23.879H47.8588L47.6068 26.975C49.2628 27.047 50.4688 27.425 51.2248 28.109C51.9928 28.793 52.3768 29.717 52.3768 30.881C52.3768 31.409 52.2928 31.895 52.1248 32.339C51.9568 32.771 51.7048 33.143 51.3688 33.455C51.0448 33.767 50.6308 34.013 50.1268 34.193C49.6348 34.361 49.0588 34.445 48.3988 34.445C47.9188 34.445 47.4988 34.385 47.1388 34.265C46.7908 34.157 46.4908 34.025 46.2388 33.869C45.9988 33.713 45.8008 33.557 45.6448 33.401C45.4888 33.245 45.3748 33.125 45.3028 33.041L45.9688 31.781C46.0528 31.889 46.1668 32.021 46.3108 32.177C46.4668 32.333 46.6468 32.483 46.8508 32.627C47.0548 32.771 47.2828 32.897 47.5348 33.005C47.7988 33.101 48.0868 33.149 48.3988 33.149C49.2268 33.149 49.8448 32.963 50.2528 32.591C50.6608 32.219 50.8648 31.721 50.8648 31.097C50.8648 30.077 50.4868 29.345 49.7308 28.901C48.9748 28.457 47.7808 28.235 46.1488 28.235L46.6168 22.529H51.8188V23.879ZM58.0448 31.879H55.6748C55.7215 32.2123 55.7915 32.4923 55.8848 32.719C55.9848 32.9457 56.1048 33.129 56.2448 33.269C56.3915 33.409 56.5548 33.509 56.7348 33.569C56.9215 33.629 57.1215 33.659 57.3348 33.659C57.6482 33.659 57.8815 33.6257 58.0348 33.559C58.1948 33.4857 58.3215 33.4123 58.4148 33.339L58.5948 33.979C58.4815 34.0657 58.3215 34.149 58.1148 34.229C57.9148 34.309 57.6215 34.349 57.2348 34.349C56.9148 34.349 56.6215 34.3057 56.3548 34.219C56.0882 34.1257 55.8515 33.9823 55.6448 33.789C55.4382 33.589 55.2648 33.3323 55.1248 33.019C54.9848 32.7057 54.8882 32.3257 54.8348 31.879H54.0948V31.319H54.7848V30.979C54.7848 30.9257 54.7848 30.869 54.7848 30.809C54.7848 30.749 54.7882 30.6923 54.7948 30.639H54.0948V30.079H54.8448C54.9115 29.639 55.0282 29.2623 55.1948 28.949C55.3615 28.6357 55.5582 28.379 55.7848 28.179C56.0115 27.979 56.2648 27.8357 56.5448 27.749C56.8248 27.6557 57.1148 27.609 57.4148 27.609C57.7282 27.609 57.9682 27.6457 58.1348 27.719C58.3082 27.7857 58.4482 27.8523 58.5548 27.919L58.3548 28.589C58.2615 28.5157 58.1415 28.449 57.9948 28.389C57.8482 28.329 57.6548 28.299 57.4148 28.299C56.9882 28.299 56.6215 28.4423 56.3148 28.729C56.0082 29.0157 55.8015 29.4657 55.6948 30.079H58.0448V30.639H55.6348C55.6282 30.6923 55.6248 30.749 55.6248 30.809C55.6248 30.8623 55.6248 30.919 55.6248 30.979V31.319H58.0448V31.879ZM60.3329 35.629H59.6029L62.6529 26.729H63.3729L60.3329 35.629ZM67.2923 34.229V31.389C67.2923 30.909 67.2223 30.5623 67.0823 30.349C66.949 30.1357 66.7323 30.029 66.4323 30.029C66.259 30.029 66.1057 30.049 65.9723 30.089C65.839 30.1223 65.7223 30.1657 65.6223 30.219C65.5223 30.2723 65.4357 30.329 65.3623 30.389C65.2957 30.449 65.239 30.5023 65.1923 30.549V34.229H64.3823V29.429H65.1323V29.969H65.1523C65.199 29.9157 65.2657 29.8523 65.3523 29.779C65.439 29.699 65.5423 29.6257 65.6623 29.559C65.7823 29.4857 65.9223 29.4257 66.0823 29.379C66.2423 29.3323 66.4223 29.309 66.6223 29.309C66.9023 29.309 67.1457 29.369 67.3523 29.489C67.5657 29.6023 67.7323 29.779 67.8523 30.019C67.9123 29.9523 67.989 29.879 68.0823 29.799C68.1823 29.7123 68.2957 29.6357 68.4223 29.569C68.549 29.4957 68.6923 29.4357 68.8523 29.389C69.0123 29.3357 69.189 29.309 69.3823 29.309C69.909 29.309 70.3123 29.469 70.5923 29.789C70.8723 30.109 71.0123 30.599 71.0123 31.259V34.229H70.2023V31.389C70.2023 30.909 70.1157 30.5623 69.9423 30.349C69.769 30.1357 69.519 30.029 69.1923 30.029C68.9057 30.029 68.6657 30.0923 68.4723 30.219C68.2857 30.339 68.139 30.449 68.0323 30.549C68.079 30.7423 68.1023 30.979 68.1023 31.259V34.229H67.2923ZM74.6188 27.519C74.6188 27.719 74.5854 27.9057 74.5188 28.079C74.4588 28.2523 74.3688 28.4257 74.2488 28.599C74.1288 28.7723 73.9788 28.9523 73.7988 29.139C73.6254 29.3257 73.4221 29.529 73.1888 29.749V29.769H74.6588V30.329H72.3688L72.3088 29.889C72.6288 29.5423 72.8921 29.2557 73.0988 29.029C73.3054 28.7957 73.4688 28.599 73.5888 28.439C73.7088 28.2723 73.7888 28.1257 73.8288 27.999C73.8754 27.8723 73.8988 27.739 73.8988 27.599C73.8988 27.399 73.8488 27.2457 73.7488 27.139C73.6554 27.0257 73.5088 26.969 73.3088 26.969C73.1021 26.969 72.9321 27.0157 72.7988 27.109C72.6721 27.1957 72.5788 27.269 72.5188 27.329L72.2688 26.849C72.3088 26.809 72.3588 26.7623 72.4188 26.709C72.4854 26.6557 72.5654 26.6057 72.6588 26.559C72.7521 26.5057 72.8621 26.4623 72.9888 26.429C73.1154 26.389 73.2588 26.369 73.4188 26.369C73.7988 26.369 74.0921 26.4723 74.2988 26.679C74.5121 26.879 74.6188 27.159 74.6188 27.519Z" fill="#004B76"/>
<path d="M25.8749 69.8085L24 66.4021L41.129 51.7201H86.3985L86.4993 55.9763L70.2495 73.5811L51.4995 77.3532L25.8749 69.8085Z" fill="#6693AD"/>
<path d="M93.9852 60.2802V50.3502H88.1041V53.4815L86.3972 51.7219L70.4917 66.4039V71.2979V81.0859V95.7681H99.978V67.2083L93.9852 60.2802Z" fill="#B8BDC3"/>
<path d="M70.4935 66.4037L24.0005 66.4044V95.7679H70.4935V66.4037Z" fill="#F6F7F8"/>
<path d="M64.3786 76.1916H54.5906V83.5326H64.3786V76.1916Z" fill="#6693AD"/>
<path d="M50.959 76.1279H41.1552V95.7681H50.959V76.1279Z" fill="#B8BDC3"/>
<path d="M30.1216 78.6386V76.1916H27.6746V78.6386H29.9176H30.1216Z" fill="#6693AD"/>
<path d="M29.9176 81.0842H27.6746V83.5312H30.1216V81.0842H29.9176Z" fill="#6693AD"/>
<path d="M37.4665 76.1916H32.5646V78.6466H37.4665V76.1916Z" fill="#6693AD"/>
<path d="M37.4586 81.0842H32.5646V83.5312H37.4586V81.0842Z" fill="#6693AD"/>
<path d="M83.9505 78.6372V76.1902H81.5035V78.6372H83.7464H83.9505Z" fill="#6693AD"/>
<path d="M83.7464 81.0855H81.5035V83.5325H83.9505V81.0855H83.7464Z" fill="#6693AD"/>
<path d="M91.2953 76.1902H86.3934V78.6452H91.2953V76.1902Z" fill="#6693AD"/>
<path d="M91.2874 81.0855H86.3934V83.5325H91.2874V81.0855Z" fill="#6693AD"/>
<path d="M62.5013 61.1672L60.0021 56.6265L82.8351 37.0554H143.179L143.314 42.729L121.653 66.1961L96.6589 71.2244L62.5013 61.1672Z" fill="#4E596A"/>
<path d="M153.295 48.4657V35.229H145.456V39.403L143.181 37.0574L121.979 56.6285V63.1522V76.1996V95.771H161.284V57.7008L153.295 48.4657Z" fill="#B8BDC3"/>
<path d="M121.977 56.6277L60.0018 56.6285V95.77H121.977V56.6277Z" fill="#DCDEE1"/>
<path d="M113.823 69.6755H100.775V79.4611H113.823V69.6755Z" fill="#4E596A"/>
<path d="M95.9405 69.5906H82.872V95.7709H95.9405V69.5906Z" fill="#B8BDC3"/>
<path d="M68.1615 72.9374V69.6755H64.8997V72.9374H67.8895H68.1615Z" fill="#4E596A"/>
<path d="M67.8895 76.1955H64.8997V79.4573H68.1615V76.1955H67.8895Z" fill="#4E596A"/>
<path d="M77.9512 69.6755H71.417V72.9481H77.9512V69.6755Z" fill="#4E596A"/>
<path d="M77.9407 76.1955H71.417V79.4573H77.9407V76.1955Z" fill="#4E596A"/>
<path d="M139.918 72.9382V69.6764H136.657V72.9382H139.646H139.918Z" fill="#4E596A"/>
<path d="M139.646 76.2017H136.656V79.4636H139.918V76.2017H139.646Z" fill="#4E596A"/>
<path d="M149.708 69.6765H143.174V72.949H149.708V69.6765Z" fill="#4E596A"/>
<path d="M149.697 76.2017H143.174V79.4636H149.697V76.2017Z" fill="#4E596A"/>
</svg>
