<svg width="150" height="150" fill="none" xmlns="http://www.w3.org/2000/svg">
    <path fill="#DCDEE1" d="M40.5 33.063h69v88.714h-69z"/>
    <path fill="#2F8D63" d="M54 28.223h42v5H54z"/>
    <path fill="#87BCA5"
          d="M44.607 38.169h6.571v5.75h-6.571zM65.964 38.169h6.571v5.75h-6.571zM87.322 38.169h6.571v5.75h-6.571zM55.286 38.169h6.571v5.75h-6.571zM76.643 38.169h6.571v5.75h-6.571zM98.001 38.169h6.571v5.75h-6.571z"/>
    <path fill="#fff"
          d="M44.607 52.777h16.429v9.036H44.607zM44.607 68.384h16.429v9.036H44.607zM44.607 83.991h16.429v9.036H44.607zM44.607 99.598h16.429v9.036H44.607zM65.964 52.777h16.429v9.036H65.964zM65.964 68.384h16.429v9.036H65.964zM65.964 83.991h16.429v9.036H65.964zM87.321 52.777h16.429v9.036H87.321zM87.321 68.384h16.429v9.036H87.321zM87.321 83.991h16.429v9.036H87.321zM87.321 99.598h16.429v9.036H87.321z"/>
    <path fill="#2F8D63" d="M68.429 102.062H80.75v19.714H68.429z"/>
</svg>