<svg width="150" height="150" fill="none" xmlns="http://www.w3.org/2000/svg"><path opacity=".5" d="M106.258 51.098h-62.13v54.426h62.13V51.098z" fill="#B8BDC3"/><path opacity=".7" d="M63.641 34.033h-7.703v15.195h7.703V34.033z" fill="url(#paint0_linear_979_75830)"/><path d="M63.431 34.242H56.15v14.986h7.282V34.242z" fill="#4E596A"/><path opacity=".7" d="M98.398 105.531H51.777v-57.03l23.513-.523 23.108.523v57.03z" fill="url(#paint1_linear_979_75830)"/><path d="M97.88 105.531H52.506v-57.03l22.688-16.134L97.88 48.5v57.031z" fill="#fff"/><path d="M80.917 86.379H69.468v19.147h11.45V86.379z" fill="#4E596A"/><path opacity=".5" d="M85.704 57.033H64.682v13.115h21.022V57.033z" fill="#349D6E"/><path d="M86.95 69H63.43v2.29H86.95V69z" fill="#4E596A"/><path opacity=".1" d="M85.704 57.033H64.682v5.202h21.022v-5.202z" fill="#000"/><path opacity=".7" d="M100.929 53.326L75.256 33.471 50.41 53.311l-1.948-2.442L75.227 29.5l27.611 21.355-1.909 2.471z" fill="url(#paint2_linear_979_75830)"/><path d="M100.929 53.531L75.256 33.676 50.41 53.516l-1.948-2.437 26.766-21.374 27.611 21.36-1.909 2.466z" fill="#349D6E"/><path d="M79.252 96.788a.83.83 0 1 0 0-1.661.83.83 0 0 0 0 1.66z" fill="#E0E0E0"/><path d="M22 106.32h106.084" stroke="#B8BDC3"/><defs><linearGradient id="paint0_linear_979_75830" x1="320.141" y1="2554.94" x2="320.141" y2="2082.21" gradientUnits="userSpaceOnUse"><stop stop-color="gray" stop-opacity=".25"/><stop offset=".54" stop-color="gray" stop-opacity=".12"/><stop offset="1" stop-color="gray" stop-opacity=".1"/></linearGradient><linearGradient id="paint1_linear_979_75830" x1="3111.08" y1="16230.1" x2="3111.08" y2="9448.65" gradientUnits="userSpaceOnUse"><stop stop-color="gray" stop-opacity=".25"/><stop offset=".54" stop-color="gray" stop-opacity=".12"/><stop offset="1" stop-color="gray" stop-opacity=".1"/></linearGradient><linearGradient id="paint2_linear_979_75830" x1="3679.82" y1="4182.14" x2="3679.82" y2="3019.91" gradientUnits="userSpaceOnUse"><stop stop-color="gray" stop-opacity=".25"/><stop offset=".54" stop-color="gray" stop-opacity=".12"/><stop offset="1" stop-color="gray" stop-opacity=".1"/></linearGradient></defs></svg>