<svg width="150" height="150" fill="none" xmlns="http://www.w3.org/2000/svg"><path d="M57.05 91.068h-9.357v8.27h9.357v-8.27zM57.05 76.752h-9.357v8.14h9.357v-8.14z" fill="#fff"/><path d="M55.308 110.472c3.346 0 6.058-5.534 6.058-12.36s-2.712-12.36-6.058-12.36c-3.346 0-6.058 5.534-6.058 12.36s2.712 12.36 6.058 12.36z" fill="#4E596A"/><path d="M55.867 118.341c-2.426-14.556-.024-29.06 0-29.204l.472.08c-.024.143-2.412 14.571 0 29.046l-.472.078z" fill="#2F8D63"/><path d="M60.641 95.453l-5.478 2.93.226.422 5.478-2.93-.226-.422zM49.608 96.921l-.226.422 5.477 2.932.226-.422-5.477-2.932z" fill="#2F8D63"/><path d="M40.753 103.224c6.544 0 11.848-10.823 11.848-24.175 0-13.35-5.304-24.174-11.848-24.174-6.543 0-11.848 10.823-11.848 24.174 0 13.352 5.305 24.175 11.848 24.175z" fill="#2F8D63"/><path d="M42.073 118.582c-4.739-28.433-.048-56.762 0-57.045l.472.08c-.048.282-4.725 28.535 0 56.887l-.472.078z" fill="#4E596A"/><path d="M51.292 74.052l-10.714 5.731.226.422 10.714-5.73-.226-.423zM29.497 76.923l-.226.422 10.712 5.734.226-.422-10.712-5.734z" fill="#4E596A"/><path d="M68.814 97.58c8.955 0 16.213-14.81 16.213-33.081 0-18.27-7.258-33.081-16.213-33.081-8.954 0-16.213 14.81-16.213 33.08 0 18.271 7.26 33.082 16.213 33.082z" fill="#2F8D63"/><path d="M70.707 118.582c-6.482-38.894-.065-77.647 0-78.033l.472.08c-.065.386-6.468 39.062 0 77.874l-.472.079z" fill="#4E596A"/><path d="M83.278 57.74l-14.662 7.842.226.422 14.662-7.842-.226-.422zM53.37 61.667l-.227.423 14.66 7.846.225-.423-14.659-7.846zM121.75 64.496l3.207-2.685c-2.492-.288-3.515 1.135-3.934 2.26-1.947-.846-4.066.263-4.066.263l6.417 2.44a5.066 5.066 0 0 0-1.624-2.278zM101.75 41.496l3.207-2.685c-2.492-.288-3.515 1.135-3.934 2.26-1.947-.846-4.066.263-4.066.263l6.417 2.44a5.066 5.066 0 0 0-1.624-2.278zM82.645 115.719c-.51 0-1.01.134-1.451.389a3.116 3.116 0 0 0-3.36-.536 3.114 3.114 0 0 0-1.85 2.853h9.565a2.91 2.91 0 0 0-2.904-2.706z" fill="#4E596A"/><path d="M21.958 118.418h106.084" stroke="#B8BDC3"/></svg>