<svg xmlns="http://www.w3.org/2000/svg" width="222" height="208" fill="none">
    <g clip-path="url(#a)">
        <path fill="#B0D8C6"
              d="m205.218 159.126 9.959 1.559a32.596 32.596 0 0 0 6.769-14.133c-7.282 5.972-18.356 2.798-27.186 6.059a19.554 19.554 0 0 0-7.251 4.809 19.602 19.602 0 0 0-4.453 7.482l-4.867 5.246a32.731 32.731 0 0 0 27.406-1.512 31.616 31.616 0 0 0 6.453-4.641c-3.485-2.198-6.83-4.869-6.83-4.869Z"/>
        <path fill="#B0D8C6"
              d="m201.682 143.17 9.608-3.054a32.633 32.633 0 0 0-.233-15.674c-3.859 8.599-15.184 10.706-21.636 17.569a19.629 19.629 0 0 0-5.003 16.23l-2.021 6.87a32.75 32.75 0 0 0 13.417-4.177 32.813 32.813 0 0 0 10.44-9.42 31.75 31.75 0 0 0 3.709-7.037c-4.097-.41-8.281-1.307-8.281-1.307Z"/>
        <path fill="#fff"
              d="M222 173.325a.4.4 0 0 1-.114.278.396.396 0 0 1-.277.114H.391a.389.389 0 0 1-.391-.392.393.393 0 0 1 .391-.391h221.218a.371.371 0 0 1 .15.029.405.405 0 0 1 .212.212.408.408 0 0 1 .029.15Z"/>
        <path fill="#97CCB4"
              d="M91.668 156.627c39.014 0 70.641-31.683 70.641-70.765 0-39.083-31.627-70.766-70.64-70.766-39.015 0-70.642 31.683-70.642 70.766 0 39.082 31.627 70.765 70.641 70.765Z"/>
        <path fill="#97CCB4"
              d="M152.452 85.862a60.893 60.893 0 0 1-6.469 27.361 60.78 60.78 0 0 1-19.615 22.635 60.722 60.722 0 0 1-34.7 10.895 60.72 60.72 0 0 1-36.25-12.01 60.876 60.876 0 0 1-18.055-21.525 60.988 60.988 0 0 1 0-54.712 60.87 60.87 0 0 1 19.606-22.64 60.72 60.72 0 0 1 34.7-10.895 60.722 60.722 0 0 1 36.25 12.01 60.775 60.775 0 0 1 18.064 21.52 60.89 60.89 0 0 1 6.469 27.36Z"/>
        <path fill="#349D6E"
              d="M91.668 141.487c30.667 0 55.527-24.904 55.527-55.625s-24.86-55.625-55.527-55.625S36.141 55.14 36.141 85.862s24.86 55.625 55.527 55.625Z"/>
        <path fill="#000"
              d="M91.813 30.393c-.842 0-1.678.022-2.51.059a55.49 55.49 0 0 1 36.479 18.276 55.681 55.681 0 0 1 14.173 38.314 55.673 55.673 0 0 1-15.783 37.677 55.484 55.484 0 0 1-37.221 16.709 55.478 55.478 0 0 0 44.126-16.078 55.674 55.674 0 0 0 16.263-39.332 55.676 55.676 0 0 0-16.263-39.333 55.48 55.48 0 0 0-39.264-16.292Z"
              opacity=".2"/>
        <path fill="#97CCB4"
              d="M91.832 26.287a1.808 1.808 0 0 0-1.806 1.81v7.9a1.812 1.812 0 0 0 1.806 1.81 1.806 1.806 0 0 0 1.808-1.81v-7.9a1.815 1.815 0 0 0-1.808-1.81ZM127.919 36.98a52.723 52.723 0 0 0-1.551-1.115 1.8 1.8 0 0 0-1.61.787l-4.439 6.527a1.813 1.813 0 0 0 .476 2.514 1.804 1.804 0 0 0 2.511-.477l4.438-6.527a1.795 1.795 0 0 0 .175-1.708ZM148.086 66.742a1.797 1.797 0 0 0-.971-.985 1.8 1.8 0 0 0-1.382-.009l-7.307 2.972a1.81 1.81 0 0 0 1.36 3.354l7.308-2.972a1.813 1.813 0 0 0 .992-2.36ZM63.018 43.179l-4.44-6.527a1.807 1.807 0 0 0-1.61-.787c-.522.362-1.04.734-1.55 1.116a1.802 1.802 0 0 0 .174 1.708l4.439 6.527a1.807 1.807 0 1 0 2.987-2.037ZM44.91 68.72l-7.307-2.972a1.804 1.804 0 0 0-2.354.995 1.813 1.813 0 0 0 .994 2.359l7.307 2.972a1.804 1.804 0 0 0 2.353-.996 1.813 1.813 0 0 0-.992-2.358ZM91.832 133.917a1.813 1.813 0 0 0-1.807 1.81v7.899a1.811 1.811 0 0 0 1.807 1.81 1.811 1.811 0 0 0 1.807-1.81v-7.899a1.814 1.814 0 0 0-1.806-1.81ZM127.744 133.034l-4.438-6.527a1.82 1.82 0 0 0-1.157-.759 1.818 1.818 0 0 0-1.354.282 1.81 1.81 0 0 0-.476 2.515l4.439 6.527a1.804 1.804 0 0 0 1.61.786 54.225 54.225 0 0 0 1.551-1.115 1.802 1.802 0 0 0-.175-1.709ZM147.094 102.622l-7.308-2.972a1.802 1.802 0 0 0-1.382.01 1.812 1.812 0 0 0 .022 3.344l7.307 2.972a1.804 1.804 0 0 0 2.353-.997 1.813 1.813 0 0 0-.992-2.357ZM62.541 126.03a1.807 1.807 0 0 0-2.51.477l-4.439 6.527a1.803 1.803 0 0 0-.174 1.708c.51.382 1.028.754 1.55 1.116a1.797 1.797 0 0 0 1.61-.786l4.44-6.527a1.82 1.82 0 0 0 .281-1.356 1.81 1.81 0 0 0-.758-1.159ZM45.903 100.644a1.8 1.8 0 0 0-1.66-1.128 1.804 1.804 0 0 0-.693.133l-7.307 2.973a1.809 1.809 0 0 0-.992 2.357 1.807 1.807 0 0 0 2.352.997l7.307-2.973a1.817 1.817 0 0 0 .992-2.359Z"/>
        <path fill="#3F3D56"
              d="M94.177 84.964a3.795 3.795 0 0 1-.644 2.823 3.782 3.782 0 0 1-2.447 1.543l-32.067 5.464a3.773 3.773 0 0 1-3.833-1.717 3.788 3.788 0 0 1 2.566-5.746l32.067-5.464a3.778 3.778 0 0 1 2.818.645 3.79 3.79 0 0 1 1.54 2.452Z"/>
        <path fill="#3F3D56"
              d="M127.927 120.554a2.467 2.467 0 0 1-3.485.014l-34.52-34.31a2.47 2.47 0 0 1 1.727-4.219 2.462 2.462 0 0 1 1.745.715l34.519 34.309a2.472 2.472 0 0 1 .014 3.491Z"/>
        <path fill="#fff"
              d="M91.668 90.14a4.275 4.275 0 0 0 4.272-4.278 4.275 4.275 0 0 0-4.272-4.279 4.275 4.275 0 0 0-4.271 4.279 4.275 4.275 0 0 0 4.271 4.279Z"/>
        <path fill="#97CCB4"
              d="M62.248 11.666c-6.557 10.326-16.56 17.179-28.898 21.68a2.318 2.318 0 0 1-3.246-.466c-6.702-8.963-5.188-21.774 3.656-28.623a20.38 20.38 0 0 1 15.2-4.07 20.37 20.37 0 0 1 7.583 2.626 20.406 20.406 0 0 1 5.985 5.353l.186.248a2.325 2.325 0 0 1-.466 3.252ZM120.808 8.166a20.405 20.405 0 0 1 13.569-7.98 20.356 20.356 0 0 1 15.2 4.071c8.844 6.85 10.357 19.66 3.656 28.623a2.328 2.328 0 0 1-1.527.907 2.316 2.316 0 0 1-1.72-.44c-11.453-4.393-20.845-11.994-28.897-21.68a2.323 2.323 0 0 1-.466-3.253l.185-.248ZM117.935 147.17a1.814 1.814 0 0 0-.695 2.464l10.429 18.67a1.806 1.806 0 0 0 3.316-.392c.13-.462.072-.957-.162-1.376l-10.429-18.67a1.811 1.811 0 0 0-2.459-.696ZM62.942 147.866l-10.429 18.67a1.814 1.814 0 0 0 .695 2.463 1.803 1.803 0 0 0 2.46-.695l10.428-18.67a1.81 1.81 0 0 0-2.068-2.626 1.81 1.81 0 0 0-1.086.858Z"/>
        <path fill="#97CCB4"
              d="M129.782 173.084a5.59 5.59 0 0 0 5.585-5.595 5.59 5.59 0 0 0-5.585-5.595 5.59 5.59 0 0 0-5.586 5.595 5.59 5.59 0 0 0 5.586 5.595ZM133.724 29.908a5.59 5.59 0 0 0 5.586-5.596 5.59 5.59 0 0 0-5.586-5.595 5.59 5.59 0 0 0-5.585 5.595 5.59 5.59 0 0 0 5.585 5.596ZM91.34 16.742a5.59 5.59 0 0 0 5.585-5.595A5.59 5.59 0 0 0 91.34 5.55a5.59 5.59 0 0 0-5.586 5.596 5.59 5.59 0 0 0 5.586 5.595ZM50.926 29.25a5.59 5.59 0 0 0 5.586-5.596 5.59 5.59 0 0 0-5.586-5.595 5.59 5.59 0 0 0-5.585 5.595 5.59 5.59 0 0 0 5.585 5.595ZM54.54 173.084a5.59 5.59 0 0 0 5.586-5.595 5.59 5.59 0 0 0-5.585-5.595 5.59 5.59 0 0 0-5.586 5.595 5.59 5.59 0 0 0 5.586 5.595Z"/>
        <path fill="#FFB7B7"
              d="M125.4 117.407a2.802 2.802 0 0 0 1.999 1.271c.406.053.818.016 1.208-.109.39-.124.748-.332 1.048-.61l8.765 4.705-.47-5.155-8.251-3.677a2.806 2.806 0 0 0-3.735-.125 2.818 2.818 0 0 0-.564 3.7Z"/>
        <path fill="#3F3D56"
              d="m131.786 119.206 3.435-4.749 16.546 7.835 20.59-3.87a7.046 7.046 0 0 1 7.682 3.933 7.069 7.069 0 0 1-6.368 10.08l-23.596.044-18.289-13.273Z"/>
        <path fill="#FFB7B7"
              d="m126.496 201.237-3.475-1.665 4.774-14.551 5.128 2.458-6.427 13.758ZM149.793 198.891a95.733 95.733 0 0 1-3.07 1.841v.008l-.016.002-.005.003-.393.097-.564-1.493-.26-.688-.368-.974-.674-1.783-3.548-9.384 5.516-1.363.207.847h.003l.102.419 1.927 7.83.393 1.6.013.049.237.956.204.829.227.925.069.279Z"/>
        <path fill="#2F2E41"
              d="M182.698 165.936c-.349.562-.707 1.122-1.067 1.677a95.814 95.814 0 0 1-2.059 3.053c0 .003-.003.003-.006.005a7.201 7.201 0 0 1-1.352.99c-.021.015-.044.025-.064.038a4.974 4.974 0 0 1-1.139.458l-.431.107a28.359 28.359 0 0 1-4.434.685c-3.652.269-7.208-.163-10.919-.871-1.833-.348-3.704-.765-5.641-1.197-.633-.143-1.269-.284-1.912-.425-.049-.01-.1-.023-.151-.033a214.92 214.92 0 0 0-2.81-.598 130.663 130.663 0 0 0-3.74-.716l.092 1.823c.077 1.402.368 2.785.863 4.099.551 1.616.988 2.894.066 5.556l-.444 1.289c.231.64.31 1.325.231 2a4.395 4.395 0 0 1-.683 1.894l-.089.136 3.704 9.387.24.608h-1.897l-2.333.003h-3.954l-5.704-11.466-.274-.547v-.028l.59-22.034a6.46 6.46 0 0 1 .049-.586 6.702 6.702 0 0 1 2.544-4.51 6.437 6.437 0 0 1 4.797-1.314l1.952.253 3.99.516 2.81.366.056.008 8.288 1.074.595-2.43.11-.041 3.489-1.281 12.068-4.431.031-.01.794-.292.094.154c.028.046.056.092.082.138a23.746 23.746 0 0 1 1.907 4.434 69.808 69.808 0 0 1 2.003 7.663l.062.307.007.028c.008.044.013.072.016.079.278 1.161.084 2.578-.427 3.982Z"/>
        <path fill="#2F2E41"
              d="M183.208 157.816a6.509 6.509 0 0 0-.138-.491 34.92 34.92 0 0 0-1.414-3.585 58.13 58.13 0 0 0-2.185-4.296 95.928 95.928 0 0 0-2.124-3.621l-.074-.122-11.94 1.6-4.447.596-.265 2.22-.064.549c-.003 0-.003 0 0 .003l-.179 1.498v.003l-.237 1.979-.021-.002-6.598-.857-6.8-.882-3.652-.473a6.437 6.437 0 0 0-4.797 1.314 6.715 6.715 0 0 0-2.59 5.055l-3.446 8.18a52.856 52.856 0 0 0-3.896 15.352l-2.527 8.093.36.034 5.356.498 1.414.133 3.114-4.554c.355-.519.691-1.053 1.005-1.601a24.21 24.21 0 0 0 1.376-2.771l6.736-16.058c.521.089 1.037.174 1.547.255 2.361.384 4.628.697 6.8.939 7.063.79 13.179.851 18.623.181a50.606 50.606 0 0 0 6.338-1.179 6.505 6.505 0 0 0 4.556-4.265c.41-1.2.468-2.493.169-3.725ZM127.606 198.861l-3.76-1.805-.589-.284-.942 2.317-6.575 1.449a1.57 1.57 0 0 0-.839.496 1.565 1.565 0 0 0 .583 2.478l6.425 2.626 2.04-1.838-.501 2.467 2.42.99 2.652-8.456-.914-.44ZM150.713 195.293l.24.609h-.24v-.609ZM149.403 196.031l-3.939 1.368-.619.214.958 2.31-3.654 5.665a1.568 1.568 0 0 0 .112 1.849 1.562 1.562 0 0 0 1.796.444l6.41-2.663.157-2.744 1.378 2.106 2.415-1.002-4.055-7.878-.959.331Z"/>
        <path fill="#3F3D56"
              d="M182.225 161.521a1.453 1.453 0 0 1-.671-.167l-20.79-10.883-.24-.985-.452-3.117.006-.029 1.977-9.132a4.948 4.948 0 0 0-.198-.352c-.882-1.498-3.569-6.058 1.558-12.337l9.001-10.512 7.726-.333.088.111a20.182 20.182 0 0 1 3.42 18.724l-.804 14.554.862 2.939a8.12 8.12 0 0 1-.237 5.248l.198 4.759a1.448 1.448 0 0 1-.402 1.063 1.455 1.455 0 0 1-1.042.449Z"/>
        <path fill="#FFB7B7"
              d="M164.192 173.523a2.808 2.808 0 0 0 .698-4.241l4.999-8.611-5.159.291-3.956 8.133a2.815 2.815 0 0 0-.835 1.819 2.815 2.815 0 0 0 4.253 2.609Z"/>
        <path fill="#3F3D56"
              d="m166.209 167.192-4.619-3.604 8.393-16.293-3.145-20.748a7.073 7.073 0 0 1 1.701-5.755 7.042 7.042 0 0 1 10.421-.134 7.082 7.082 0 0 1 1.903 5.061l-.777 23.625-13.877 17.848Z"/>
        <path fill="#2F2E41"
              d="M167.461 109.638v-7.658a10.269 10.269 0 0 1 2.996-7.258 10.232 10.232 0 0 1 14.486-.01 10.269 10.269 0 0 1 3.005 7.255v.013c1.806 3.769.676 5.561 0 7.658a1.38 1.38 0 0 1-1.375 1.378h-17.736a1.382 1.382 0 0 1-1.376-1.378Z"/>
        <path fill="#FFB7B7"
              d="M174.346 110.519c4.235 0 7.668-3.439 7.668-7.682 0-4.242-3.433-7.68-7.668-7.68s-7.668 3.438-7.668 7.68c0 4.243 3.433 7.682 7.668 7.682Z"/>
        <path fill="#2F2E41"
              d="M182.371 104.851c-.07-.011-.139-.025-.209-.036-1.196-.213-2.392-.422-3.584-.638l-.11-2.708-1.445 2.426c-3.295 1.095-6.379.476-9.279-.89a26.113 26.113 0 0 1-2.78-1.536 10.167 10.167 0 0 1 4.993-7.203c.109-.063.215-.118.325-.172h.001l.002-.002.001-.002c.186-.088.376-.172.567-.25a8.43 8.43 0 0 1 8.866 1.723c2.341 2.239 3.394 5.936 2.652 9.288Z"/>
    </g>
    <defs>
        <clipPath id="a">
            <path fill="#fff" d="M0 0h222v208H0z"/>
        </clipPath>
    </defs>
</svg>