<svg width="150" height="150" fill="none" xmlns="http://www.w3.org/2000/svg"><path opacity=".5" d="M119.344 126.502h-88.06l.627-65.866 24.731-6.826h36.981l25.094 4.835.627 67.857z" fill="#B8BDC3"/><path opacity=".7" d="M65.04 23.838h-6.608V36.88h6.608V23.838z" fill="url(#paint0_linear_979_75902)"/><path opacity=".7" d="M58.432 64.013V49.918H29.726L24.85 64.013v1.446h33.76v-1.446h-.178z" fill="url(#paint1_linear_979_75902)"/><path d="M58.432 64.032H25.209l4.823-13.934h28.4v13.934z" fill="#349D6E"/><path opacity=".1" d="M58.432 64.032H25.209l4.823-13.934h28.4v13.934z" fill="#000"/><path d="M58.615 64.033H25.209v1.431h33.406v-1.43z" fill="#349D6E"/><path opacity=".7" d="M120.263 50.098h-28.78v14.255h-.184v1.465h33.851v-1.465l-4.887-14.255z" fill="url(#paint2_linear_979_75902)"/><path d="M91.479 64.388h33.226l-4.823-13.931H91.479v13.93z" fill="#349D6E"/><path opacity=".1" d="M91.479 64.388h33.226l-4.823-13.931H91.479v13.93z" fill="#000"/><path d="M91.3 65.818h33.405v-1.43H91.299v1.43z" fill="#349D6E"/><path opacity=".5" d="M52.178 102.168h-18.04v11.252h18.04v-11.252z" fill="#349D6E"/><path opacity=".1" d="M53.254 112.617H33.069v1.965h20.185v-1.965z" fill="#000"/><path d="M53.254 112.441H33.069v1.965h20.185v-1.965z" fill="#4E596A"/><path opacity=".1" d="M52.178 102.168h-18.04v4.464h18.04v-4.464z" fill="#000"/><path opacity=".5" d="M115.952 102.168h-18.04v11.252h18.04v-11.252z" fill="#349D6E"/><path opacity=".1" d="M117.024 112.617H96.84v1.965h20.184v-1.965z" fill="#000"/><path d="M117.024 112.441H96.84v1.965h20.184v-1.965z" fill="#4E596A"/><path opacity=".1" d="M115.952 102.168h-18.04v4.464h18.04v-4.464z" fill="#000"/><path opacity=".5" d="M115.952 75.908h-18.04V87.16h18.04V75.909z" fill="#349D6E"/><path opacity=".1" d="M117.024 86.361H96.84v1.965h20.184v-1.965z" fill="#000"/><path d="M117.024 86.182H96.84v1.965h20.184v-1.965z" fill="#4E596A"/><path opacity=".1" d="M115.952 75.908h-18.04v4.465h18.04v-4.465z" fill="#000"/><path opacity=".5" d="M52.716 75.908h-18.04V87.16h18.04V75.909z" fill="#349D6E"/><path opacity=".1" d="M53.788 86.361H33.603v1.965h20.185v-1.965z" fill="#000"/><path d="M53.788 86.182H33.603v1.965h20.185v-1.965z" fill="#4E596A"/><path opacity=".1" d="M52.716 75.908h-18.04v4.465h18.04v-4.465z" fill="#000"/><path opacity=".7" d="M97.045 42.626l-22.03-17.04-21.328 17.029-1.673-2.092L74.989 22.18l23.696 18.328-1.64 2.118z" fill="url(#paint3_linear_979_75902)"/><path opacity=".1" d="M55.484 65.459H31.728v.269h23.756v-.269zM118.9 65.818H94.875v.27H118.9v-.27z" fill="#000"/><path d="M64.865 24.018H58.61V36.88h6.254V24.018z" fill="#4E596A"/><path opacity=".7" d="M94.964 126.82H54.95V40.347l20.18-.788 19.834.788v86.473z" fill="url(#paint4_linear_979_75902)"/><path d="M94.426 126.82H55.484V40.004l19.471-14.645 19.83 15.183-.359 86.278z" fill="#fff"/><path d="M79.868 110.387h-9.825v16.434h9.825v-16.434z" fill="#4E596A"/><path opacity=".1" d="M85.05 95.648H64.864v1.966h20.184v-1.966z" fill="#000"/><path opacity=".5" d="M83.977 85.2h-18.04V96.45h18.04V85.2z" fill="#349D6E"/><path d="M85.05 95.469H64.864v1.965h20.184v-1.965z" fill="#4E596A"/><path opacity=".1" d="M83.977 85.2h-18.04v4.463h18.04V85.2z" fill="#000"/><path opacity=".5" d="M83.977 63.139h-18.04V74.39h18.04V63.139z" fill="#349D6E"/><path d="M85.05 73.408H64.864v1.965h20.184v-1.965z" fill="#4E596A"/><path opacity=".1" d="M83.977 63.139h-18.04v4.464h18.04v-4.464z" fill="#000"/><path opacity=".5" d="M83.977 41.076h-18.04v11.252h18.04V41.076z" fill="#349D6E"/><path d="M85.05 51.35H64.864v1.965h20.184V51.35z" fill="#4E596A"/><path opacity=".1" d="M83.977 41.076h-18.04v4.465h18.04v-4.465z" fill="#000"/><path d="M97.045 43.255l-22.03-17.043L53.687 43.24l-1.673-2.092 22.975-18.343 23.696 18.328-1.64 2.122z" fill="#349D6E"/><path d="M78.44 119.316a.714.714 0 1 0 0-1.428.714.714 0 0 0 0 1.428z" fill="#E0E0E0"/><path d="M21.958 127.82h106.084" stroke="#B8BDC3"/><defs><linearGradient id="paint0_linear_979_75902" x1="4677.36" y1="537.031" x2="4677.36" y2="81.743" gradientUnits="userSpaceOnUse"><stop stop-color="gray" stop-opacity=".25"/><stop offset=".54" stop-color="gray" stop-opacity=".12"/><stop offset="1" stop-color="gray" stop-opacity=".1"/></linearGradient><linearGradient id="paint1_linear_979_75902" x1="21812.9" y1="1850.34" x2="21812.9" y2="1203.84" gradientUnits="userSpaceOnUse"><stop stop-color="gray" stop-opacity=".25"/><stop offset=".54" stop-color="gray" stop-opacity=".12"/><stop offset="1" stop-color="gray" stop-opacity=".1"/></linearGradient><linearGradient id="paint2_linear_979_75902" x1="27962.2" y1="1886.39" x2="27962.2" y2="1224.88" gradientUnits="userSpaceOnUse"><stop stop-color="gray" stop-opacity=".25"/><stop offset=".54" stop-color="gray" stop-opacity=".12"/><stop offset="1" stop-color="gray" stop-opacity=".1"/></linearGradient><linearGradient id="paint3_linear_979_75902" x1="34372.4" y1="1141.2" x2="34372.4" y2="22.18" gradientUnits="userSpaceOnUse"><stop stop-color="gray" stop-opacity=".25"/><stop offset=".54" stop-color="gray" stop-opacity=".12"/><stop offset="1" stop-color="gray" stop-opacity=".1"/></linearGradient><linearGradient id="paint4_linear_979_75902" x1="29437.5" y1="24481.4" x2="29437.5" y2="4098.95" gradientUnits="userSpaceOnUse"><stop stop-color="gray" stop-opacity=".25"/><stop offset=".54" stop-color="gray" stop-opacity=".12"/><stop offset="1" stop-color="gray" stop-opacity=".1"/></linearGradient></defs></svg>