<svg width="150" height="150" fill="none" xmlns="http://www.w3.org/2000/svg">
    <path d="m19.672 112.723 1.314-.003h1.853l2.343-37.941 23.203-38.596-1.008-1.08v-2.732L22.283 73.885l-2.611 38.838Z"
          fill="#DCDEE1"/>
    <path opacity=".1" d="M21.127 112.72h1.713l2.343-37.941 23.203-38.596-1.009-1.08-23.933 39.098-2.317 38.519Z"
          fill="#000"/>
    <path d="m15.799 113.039 60.122 4.587.051.003 58.185-3.567.044-.002v-2.449l-64.113-1.173-53.488-.051h-.392l-.042.274-.367 2.378Z"
          fill="#DCDEE1"/>
    <path opacity=".1"
          d="m15.799 113.039 60.122 4.587.051.003 58.185-3.567.044-.047v-2.353h-.051L75.92 113.6l-59.32-3.213h-.01l-.105.068-.32.206-.366 2.378Z"
          fill="#000"/>
    <path opacity=".1" d="m15.799 113.039 60.122 4.587V113.6l-59.436-3.145-.32.206-.366 2.378Z" fill="#000"/>
    <path d="m47.37 35.052 26.505 28.36-.819 49.882 2.252.271.037.005h2.252l.269-48.017 49.633 16.526.836 29.425 1.812.203.614.068-1.421-31.737-51.884-18.157L49.007 32.4H47.37v2.652Z"
          fill="#DCDEE1"/>
    <path opacity=".1"
          d="m77.661 64.635.204.918 49.633 16.526.837 29.425 1.812.203-1.421-30.24-51.065-16.832ZM47.37 35.052l26.505 28.36-.819 49.882 2.252.271.613-51.786-28.551-29.38v2.653Z"
          fill="#000"/>
    <path d="m77.758 84.655 18.204 3.573.006.001 31.883 6.261 1.46-.583-.005-.103-.095-2.03-51.434-10.36-.02 3.24Z"
          fill="#DCDEE1"/>
    <path opacity=".1" d="m95.968 88.229 31.883 6.261 1.46-.583-.005-.103-33.338-5.575Z" fill="#000"/>
    <path d="m97.187 71.987.492 27.02.255 13.861 2.241-.074 1.411-.048-.438-40.368-.973-.323-.213-.068h-2.775Z"
          fill="#DCDEE1"/>
    <path opacity=".1" d="M97.207 71.98v.006l.472 27.02.255 13.862 2.241-.075V71.98h-2.968Z" fill="#0B0C0C"/>
    <path opacity=".1"
          d="M51.592 82.687a.183.183 0 0 0 .053.158c.036-.178-.011-.365.026-.544.055-.268.317-.47.34-.74-.48-.094-.415.837-.419 1.126ZM50.821 73.465c-.029-.225-.047-.486.113-.645a.082.082 0 0 1 .066-.03.086.086 0 0 1 .052.045c.092.145.171.3.235.46a.48.48 0 0 0-.5.193M53.75 72.83l-.046-.445a.203.203 0 0 1 .009-.11.142.142 0 0 1 .183-.05.376.376 0 0 1 .146.146c.105.16.191.33.259.508a1.52 1.52 0 0 0-.61.008"
          fill="#000"/>
</svg>