<svg width="190" height="112" viewBox="0 0 190 112" fill="none" xmlns="http://www.w3.org/2000/svg">
<path d="M65.644 103.384C65.5897 105.433 65.2499 107.464 64.6347 109.417C64.6207 109.462 64.6059 109.507 64.5912 109.552H60.8248C60.8288 109.511 60.8328 109.466 60.8368 109.417C61.088 106.501 62.5359 88.7533 60.8047 85.7183C60.956 85.9645 65.936 94.1192 65.644 103.384Z" fill="#E6E6E6"/>
<path d="M65.3608 109.416C65.3293 109.461 65.2965 109.507 65.263 109.551H62.4375C62.4589 109.513 62.4837 109.467 62.5125 109.416C62.9793 108.565 64.3609 106.021 65.6434 103.384C67.0216 100.55 68.2861 97.6082 68.1796 96.5435C68.2124 96.7836 69.166 104.104 65.3608 109.416Z" fill="#E6E6E6"/>
<path d="M22.5797 45.0731L24.3362 43.6542C22.9717 43.5022 22.411 44.2538 22.1816 44.8487C21.1156 44.4016 19.9551 44.9875 19.9551 44.9875L23.4694 46.2761C23.2921 45.7978 22.9835 45.3805 22.5797 45.0731Z" fill="#349D6E"/>
<path d="M75.4821 37.7703L77.2385 36.3515C75.874 36.1994 75.3134 36.951 75.0839 37.5459C74.0179 37.0989 72.8574 37.6848 72.8574 37.6848L76.3717 38.9733C76.1944 38.4951 75.8858 38.0777 75.4821 37.7703Z" fill="#349D6E"/>
<path d="M65.3668 56.5985L67.1233 55.1796C65.7588 55.0276 65.1981 55.7792 64.9687 56.3741C63.9027 55.927 62.7422 56.5129 62.7422 56.5129L66.2565 57.8015C66.0792 57.3232 65.7706 56.9059 65.3668 56.5985Z" fill="#349D6E"/>
<rect y="18.3316" width="42" height="42" rx="21" fill="#F6F7F8"/>
<path d="M12.9576 34.9816H8.99759L8.74559 38.0776C10.4016 38.1496 11.6076 38.5276 12.3636 39.2116C13.1316 39.8956 13.5156 40.8196 13.5156 41.9836C13.5156 42.5116 13.4316 42.9976 13.2636 43.4416C13.0956 43.8736 12.8436 44.2456 12.5076 44.5576C12.1836 44.8696 11.7696 45.1156 11.2656 45.2956C10.7736 45.4636 10.1976 45.5476 9.53759 45.5476C9.05759 45.5476 8.63759 45.4876 8.27759 45.3676C7.92959 45.2596 7.62959 45.1276 7.37759 44.9716C7.13759 44.8156 6.93959 44.6596 6.78359 44.5036C6.62759 44.3476 6.51359 44.2276 6.44159 44.1436L7.10759 42.8836C7.19159 42.9916 7.30559 43.1236 7.44959 43.2796C7.60559 43.4356 7.78559 43.5856 7.98959 43.7296C8.19359 43.8736 8.42159 43.9996 8.67359 44.1076C8.93759 44.2036 9.22559 44.2516 9.53759 44.2516C10.3656 44.2516 10.9836 44.0656 11.3916 43.6936C11.7996 43.3216 12.0036 42.8236 12.0036 42.1996C12.0036 41.1796 11.6256 40.4476 10.8696 40.0036C10.1136 39.5596 8.91959 39.3376 7.28759 39.3376L7.75559 33.6316H12.9576V34.9816ZM19.1836 42.9816H16.8136C16.8603 43.3149 16.9303 43.5949 17.0236 43.8216C17.1236 44.0483 17.2436 44.2316 17.3836 44.3716C17.5303 44.5116 17.6936 44.6116 17.8736 44.6716C18.0603 44.7316 18.2603 44.7616 18.4736 44.7616C18.7869 44.7616 19.0203 44.7283 19.1736 44.6616C19.3336 44.5883 19.4603 44.5149 19.5536 44.4416L19.7336 45.0816C19.6203 45.1683 19.4603 45.2516 19.2536 45.3316C19.0536 45.4116 18.7603 45.4516 18.3736 45.4516C18.0536 45.4516 17.7603 45.4083 17.4936 45.3216C17.2269 45.2283 16.9903 45.0849 16.7836 44.8916C16.5769 44.6916 16.4036 44.4349 16.2636 44.1216C16.1236 43.8083 16.0269 43.4283 15.9736 42.9816H15.2336V42.4216H15.9236V42.0816C15.9236 42.0283 15.9236 41.9716 15.9236 41.9116C15.9236 41.8516 15.9269 41.7949 15.9336 41.7416H15.2336V41.1816H15.9836C16.0503 40.7416 16.1669 40.3649 16.3336 40.0516C16.5003 39.7383 16.6969 39.4816 16.9236 39.2816C17.1503 39.0816 17.4036 38.9383 17.6836 38.8516C17.9636 38.7583 18.2536 38.7116 18.5536 38.7116C18.8669 38.7116 19.1069 38.7483 19.2736 38.8216C19.4469 38.8883 19.5869 38.9549 19.6936 39.0216L19.4936 39.6916C19.4003 39.6183 19.2803 39.5516 19.1336 39.4916C18.9869 39.4316 18.7936 39.4016 18.5536 39.4016C18.1269 39.4016 17.7603 39.5449 17.4536 39.8316C17.1469 40.1183 16.9403 40.5683 16.8336 41.1816H19.1836V41.7416H16.7736C16.7669 41.7949 16.7636 41.8516 16.7636 41.9116C16.7636 41.9649 16.7636 42.0216 16.7636 42.0816V42.4216H19.1836V42.9816ZM21.4716 46.7316H20.7416L23.7916 37.8316H24.5116L21.4716 46.7316ZM28.4311 45.3316V42.4916C28.4311 42.0116 28.3611 41.6649 28.2211 41.4516C28.0878 41.2383 27.8711 41.1316 27.5711 41.1316C27.3978 41.1316 27.2444 41.1516 27.1111 41.1916C26.9778 41.2249 26.8611 41.2683 26.7611 41.3216C26.6611 41.3749 26.5744 41.4316 26.5011 41.4916C26.4344 41.5516 26.3778 41.6049 26.3311 41.6516V45.3316H25.5211V40.5316H26.2711V41.0716H26.2911C26.3378 41.0183 26.4044 40.9549 26.4911 40.8816C26.5778 40.8016 26.6811 40.7283 26.8011 40.6616C26.9211 40.5883 27.0611 40.5283 27.2211 40.4816C27.3811 40.4349 27.5611 40.4116 27.7611 40.4116C28.0411 40.4116 28.2844 40.4716 28.4911 40.5916C28.7044 40.7049 28.8711 40.8816 28.9911 41.1216C29.0511 41.0549 29.1278 40.9816 29.2211 40.9016C29.3211 40.8149 29.4344 40.7383 29.5611 40.6716C29.6878 40.5983 29.8311 40.5383 29.9911 40.4916C30.1511 40.4383 30.3278 40.4116 30.5211 40.4116C31.0478 40.4116 31.4511 40.5716 31.7311 40.8916C32.0111 41.2116 32.1511 41.7016 32.1511 42.3616V45.3316H31.3411V42.4916C31.3411 42.0116 31.2544 41.6649 31.0811 41.4516C30.9078 41.2383 30.6578 41.1316 30.3311 41.1316C30.0444 41.1316 29.8044 41.1949 29.6111 41.3216C29.4244 41.4416 29.2778 41.5516 29.1711 41.6516C29.2178 41.8449 29.2411 42.0816 29.2411 42.3616V45.3316H28.4311ZM35.7575 38.6216C35.7575 38.8216 35.7242 39.0083 35.6575 39.1816C35.5975 39.3549 35.5075 39.5283 35.3875 39.7016C35.2675 39.8749 35.1175 40.0549 34.9375 40.2416C34.7642 40.4283 34.5608 40.6316 34.3275 40.8516V40.8716H35.7975V41.4316H33.5075L33.4475 40.9916C33.7675 40.6449 34.0308 40.3583 34.2375 40.1316C34.4442 39.8983 34.6075 39.7016 34.7275 39.5416C34.8475 39.3749 34.9275 39.2283 34.9675 39.1016C35.0142 38.9749 35.0375 38.8416 35.0375 38.7016C35.0375 38.5016 34.9875 38.3483 34.8875 38.2416C34.7942 38.1283 34.6475 38.0716 34.4475 38.0716C34.2408 38.0716 34.0708 38.1183 33.9375 38.2116C33.8108 38.2983 33.7175 38.3716 33.6575 38.4316L33.4075 37.9516C33.4475 37.9116 33.4975 37.8649 33.5575 37.8116C33.6242 37.7583 33.7042 37.7083 33.7975 37.6616C33.8908 37.6083 34.0008 37.5649 34.1275 37.5316C34.2542 37.4916 34.3975 37.4716 34.5575 37.4716C34.9375 37.4716 35.2308 37.5749 35.4375 37.7816C35.6508 37.9816 35.7575 38.2616 35.7575 38.6216Z" fill="#004B76"/>
<path d="M31.6411 103.906C31.7034 106.256 32.0931 108.585 32.7988 110.825C32.8149 110.877 32.8318 110.928 32.8487 110.98H37.1689C37.1643 110.933 37.1597 110.881 37.1551 110.825C36.867 107.48 35.2062 87.1234 37.192 83.6422C37.0184 83.9246 31.3062 93.2782 31.6411 103.906Z" fill="#E6E6E6"/>
<path d="M31.9659 110.824C32.002 110.876 32.0396 110.928 32.078 110.979H35.319C35.2944 110.935 35.266 110.883 35.2329 110.824C34.6975 109.848 33.1128 106.93 31.6417 103.905C30.0608 100.654 28.6105 97.2803 28.7326 96.0591C28.695 96.3346 27.6011 104.731 31.9659 110.824Z" fill="#E6E6E6"/>
<path d="M20.5884 95.8382C26.5029 94.7611 29.5337 84.0073 27.3579 71.8189C25.1821 59.6304 18.6236 50.6228 12.7091 51.6999C6.79463 52.7769 3.76385 63.5307 5.93966 75.7191C8.11547 87.9076 14.674 96.9152 20.5884 95.8382Z" fill="#349D6E"/>
<path d="M22.1081 110.071C21.7575 83.2996 12.8886 58.1758 12.7991 57.9254L11.9902 58.22C12.0793 58.4692 20.8996 83.4614 21.2484 110.083L22.1081 110.071Z" fill="#F2F2F2"/>
<path d="M6.37205 70.7395L6.10742 71.566L16.7252 75.0341L16.9899 74.2076L6.37205 70.7395Z" fill="#F2F2F2"/>
<path d="M26.346 69.8085L17.5977 76.8062L18.1316 77.4871L26.88 70.4894L26.346 69.8085Z" fill="#F2F2F2"/>
<path d="M42.027 91.9787C48.5302 91.9787 53.8021 81.1144 53.8021 67.7128C53.8021 54.3111 48.5302 43.4468 42.027 43.4468C35.5238 43.4468 30.252 54.3111 30.252 67.7128C30.252 81.1144 35.5238 91.9787 42.027 91.9787Z" fill="#349D6E"/>
<path d="M40.9393 111.668C45.6553 83.0904 40.9868 54.6157 40.9391 54.3316L40.0217 54.4885C40.0692 54.7712 44.711 83.0964 40.0215 111.514L40.9393 111.668Z" fill="#F2F2F2"/>
<path d="M31.6596 62.495L31.2207 63.3238L41.8686 69.076L42.3075 68.2473L31.6596 62.495Z" fill="#F2F2F2"/>
<path d="M53.1075 65.3749L42.4609 71.1304L42.9001 71.9591L53.5467 66.2036L53.1075 65.3749Z" fill="#F2F2F2"/>
<path d="M50.694 74.2932L48 69.3986L72.6124 48.3023H137.659L137.804 54.4181L114.455 79.714L87.5135 85.1341L50.694 74.2932Z" fill="#4E596A"/>
<path d="M148.566 60.5999V46.3316H140.116V50.8309L137.663 48.3025L114.809 69.3988V76.4309V90.4951V111.592H157.177V70.5546L148.566 60.5999Z" fill="#B8BDC3"/>
<path d="M114.805 69.398L48 69.3989V111.591H114.805V69.398Z" fill="#DCDEE1"/>
<path d="M106.014 83.4625H91.9499V94.0106H106.014V83.4625Z" fill="#4E596A"/>
<path d="M86.7408 83.3698H72.6539V111.59H86.7408V83.3698Z" fill="#B8BDC3"/>
<path d="M56.7981 86.9785V83.4625H53.2821V86.9785H56.5049H56.7981Z" fill="#4E596A"/>
<path d="M56.5049 90.4926H53.2821V94.0087H56.7981V90.4926H56.5049Z" fill="#4E596A"/>
<path d="M67.3472 83.4625H60.3038V86.99H67.3472V83.4625Z" fill="#4E596A"/>
<path d="M67.3359 90.4926H60.3038V94.0087H67.3359V90.4926Z" fill="#4E596A"/>
<rect x="148" y="52.3316" width="42" height="42" rx="21" fill="#F6F7F8"/>
<path d="M161.318 70.2956C161.318 70.6916 161.27 71.0396 161.174 71.3396C161.078 71.6396 160.952 71.9036 160.796 72.1316C160.64 72.3476 160.46 72.5396 160.256 72.7076C160.064 72.8756 159.86 73.0256 159.644 73.1576V73.2116C159.908 73.3556 160.16 73.5236 160.4 73.7156C160.64 73.8956 160.85 74.1116 161.03 74.3636C161.21 74.6156 161.354 74.9036 161.462 75.2276C161.57 75.5516 161.624 75.9176 161.624 76.3256C161.624 76.7456 161.54 77.1536 161.372 77.5496C161.216 77.9336 160.982 78.2756 160.67 78.5756C160.37 78.8756 159.992 79.1156 159.536 79.2956C159.08 79.4636 158.564 79.5476 157.988 79.5476C157.436 79.5476 156.944 79.4636 156.512 79.2956C156.092 79.1276 155.738 78.9056 155.45 78.6296C155.162 78.3536 154.94 78.0296 154.784 77.6576C154.64 77.2856 154.568 76.8956 154.568 76.4876C154.568 76.0316 154.628 75.6416 154.748 75.3176C154.868 74.9816 155.024 74.6936 155.216 74.4536C155.408 74.2136 155.624 74.0156 155.864 73.8596C156.104 73.6916 156.35 73.5476 156.602 73.4276V73.3916C156.062 73.0556 155.648 72.6476 155.36 72.1676C155.072 71.6876 154.928 71.1176 154.928 70.4576C154.928 70.0256 155.006 69.6296 155.162 69.2696C155.33 68.8976 155.558 68.5736 155.846 68.2976C156.134 68.0216 156.476 67.8056 156.872 67.6496C157.28 67.4936 157.724 67.4156 158.204 67.4156C159.14 67.4156 159.89 67.6736 160.454 68.1896C161.03 68.7056 161.318 69.4076 161.318 70.2956ZM157.808 73.9496C157.592 74.0456 157.376 74.1596 157.16 74.2916C156.956 74.4116 156.77 74.5616 156.602 74.7416C156.434 74.9216 156.296 75.1316 156.188 75.3716C156.08 75.6116 156.026 75.8816 156.026 76.1816C156.026 76.7936 156.212 77.2976 156.584 77.6936C156.956 78.0776 157.448 78.2696 158.06 78.2696C158.636 78.2696 159.122 78.0956 159.518 77.7476C159.926 77.3876 160.13 76.9016 160.13 76.2896C160.13 75.6896 159.926 75.2096 159.518 74.8496C159.122 74.4896 158.594 74.2016 157.934 73.9856L157.808 73.9496ZM156.368 70.3496C156.368 70.9616 156.566 71.4476 156.962 71.8076C157.358 72.1676 157.862 72.4676 158.474 72.7076C158.654 72.6116 158.828 72.4976 158.996 72.3656C159.164 72.2336 159.314 72.0716 159.446 71.8796C159.59 71.6876 159.704 71.4716 159.788 71.2316C159.872 70.9916 159.914 70.7156 159.914 70.4036C159.914 69.8756 159.746 69.4616 159.41 69.1616C159.074 68.8496 158.63 68.6936 158.078 68.6936C157.61 68.6936 157.208 68.8376 156.872 69.1256C156.536 69.4136 156.368 69.8216 156.368 70.3496ZM167.184 76.9816H164.814C164.86 77.3149 164.93 77.5949 165.024 77.8216C165.124 78.0483 165.244 78.2316 165.384 78.3716C165.53 78.5116 165.694 78.6116 165.874 78.6716C166.06 78.7316 166.26 78.7616 166.474 78.7616C166.787 78.7616 167.02 78.7283 167.174 78.6616C167.334 78.5883 167.46 78.5149 167.554 78.4416L167.734 79.0816C167.62 79.1683 167.46 79.2516 167.254 79.3316C167.054 79.4116 166.76 79.4516 166.374 79.4516C166.054 79.4516 165.76 79.4083 165.494 79.3216C165.227 79.2283 164.99 79.0849 164.784 78.8916C164.577 78.6916 164.404 78.4349 164.264 78.1216C164.124 77.8083 164.027 77.4283 163.974 76.9816H163.234V76.4216H163.924V76.0816C163.924 76.0283 163.924 75.9716 163.924 75.9116C163.924 75.8516 163.927 75.7949 163.934 75.7416H163.234V75.1816H163.984C164.05 74.7416 164.167 74.3649 164.334 74.0516C164.5 73.7383 164.697 73.4816 164.924 73.2816C165.15 73.0816 165.404 72.9383 165.684 72.8516C165.964 72.7583 166.254 72.7116 166.554 72.7116C166.867 72.7116 167.107 72.7483 167.274 72.8216C167.447 72.8883 167.587 72.9549 167.694 73.0216L167.494 73.6916C167.4 73.6183 167.28 73.5516 167.134 73.4916C166.987 73.4316 166.794 73.4016 166.554 73.4016C166.127 73.4016 165.76 73.5449 165.454 73.8316C165.147 74.1183 164.94 74.5683 164.834 75.1816H167.184V75.7416H164.774C164.767 75.7949 164.764 75.8516 164.764 75.9116C164.764 75.9649 164.764 76.0216 164.764 76.0816V76.4216H167.184V76.9816ZM169.472 80.7316H168.742L171.792 71.8316H172.512L169.472 80.7316ZM176.431 79.3316V76.4916C176.431 76.0116 176.361 75.6649 176.221 75.4516C176.088 75.2383 175.871 75.1316 175.571 75.1316C175.398 75.1316 175.244 75.1516 175.111 75.1916C174.978 75.2249 174.861 75.2683 174.761 75.3216C174.661 75.3749 174.574 75.4316 174.501 75.4916C174.434 75.5516 174.378 75.6049 174.331 75.6516V79.3316H173.521V74.5316H174.271V75.0716H174.291C174.338 75.0183 174.404 74.9549 174.491 74.8816C174.578 74.8016 174.681 74.7283 174.801 74.6616C174.921 74.5883 175.061 74.5283 175.221 74.4816C175.381 74.4349 175.561 74.4116 175.761 74.4116C176.041 74.4116 176.284 74.4716 176.491 74.5916C176.704 74.7049 176.871 74.8816 176.991 75.1216C177.051 75.0549 177.128 74.9816 177.221 74.9016C177.321 74.8149 177.434 74.7383 177.561 74.6716C177.688 74.5983 177.831 74.5383 177.991 74.4916C178.151 74.4383 178.328 74.4116 178.521 74.4116C179.048 74.4116 179.451 74.5716 179.731 74.8916C180.011 75.2116 180.151 75.7016 180.151 76.3616V79.3316H179.341V76.4916C179.341 76.0116 179.254 75.6649 179.081 75.4516C178.908 75.2383 178.658 75.1316 178.331 75.1316C178.044 75.1316 177.804 75.1949 177.611 75.3216C177.424 75.4416 177.278 75.5516 177.171 75.6516C177.218 75.8449 177.241 76.0816 177.241 76.3616V79.3316H176.431ZM183.757 72.6216C183.757 72.8216 183.724 73.0083 183.657 73.1816C183.597 73.3549 183.507 73.5283 183.387 73.7016C183.267 73.8749 183.117 74.0549 182.937 74.2416C182.764 74.4283 182.561 74.6316 182.327 74.8516V74.8716H183.797V75.4316H181.507L181.447 74.9916C181.767 74.6449 182.031 74.3583 182.237 74.1316C182.444 73.8983 182.607 73.7016 182.727 73.5416C182.847 73.3749 182.927 73.2283 182.967 73.1016C183.014 72.9749 183.037 72.8416 183.037 72.7016C183.037 72.5016 182.987 72.3483 182.887 72.2416C182.794 72.1283 182.647 72.0716 182.447 72.0716C182.241 72.0716 182.071 72.1183 181.937 72.2116C181.811 72.2983 181.717 72.3716 181.657 72.4316L181.407 71.9516C181.447 71.9116 181.497 71.8649 181.557 71.8116C181.624 71.7583 181.704 71.7083 181.797 71.6616C181.891 71.6083 182.001 71.5649 182.127 71.5316C182.254 71.4916 182.397 71.4716 182.557 71.4716C182.937 71.4716 183.231 71.5749 183.437 71.7816C183.651 71.9816 183.757 72.2616 183.757 72.6216Z" fill="#004B76"/>
<path d="M134.145 86.9766V83.4605H130.629V86.9766H133.852H134.145Z" fill="#4E596A"/>
<path d="M133.852 90.4948H130.629V94.0109H134.145V90.4948H133.852Z" fill="#4E596A"/>
<path d="M144.698 83.4605H137.655V86.9881H144.698V83.4605Z" fill="#4E596A"/>
<path d="M144.687 90.4948H137.655V94.0109H144.687V90.4948Z" fill="#4E596A"/>
<path d="M131.099 105.771H124.723V106.682H131.099V105.771Z" fill="#AAAAAA"/>
<path d="M173 105.472L171.794 105.748L125.944 105.772L125.532 104.822C124.813 103.191 124.566 101.396 124.819 99.6347C125.017 98.3222 125.511 97.018 126.635 96.4516L128.67 83.0445L154.036 82.9996L163.85 90.8308C163.85 90.8308 168.48 90.7484 170.995 93.8461C171.902 94.9979 172.437 96.3933 172.532 97.8506L172.631 99.462L173 105.472Z" fill="#349D6E"/>
<path d="M162.981 111.237C165.999 111.237 168.446 108.79 168.446 105.772C168.446 102.753 165.999 100.306 162.981 100.306C159.963 100.306 157.516 102.753 157.516 105.772C157.516 108.79 159.963 111.237 162.981 111.237Z" fill="#AAAAAA"/>
<path d="M162.981 108.504C164.49 108.504 165.713 107.28 165.713 105.771C165.713 104.262 164.49 103.039 162.981 103.039C161.472 103.039 160.248 104.262 160.248 105.771C160.248 107.28 161.472 108.504 162.981 108.504Z" fill="#CCCCCC"/>
<path d="M134.743 111.237C137.761 111.237 140.208 108.79 140.208 105.772C140.208 102.753 137.761 100.306 134.743 100.306C131.724 100.306 129.277 102.753 129.277 105.772C129.277 108.79 131.724 111.237 134.743 111.237Z" fill="#AAAAAA"/>
<path d="M134.742 108.504C136.252 108.504 137.475 107.28 137.475 105.771C137.475 104.262 136.252 103.039 134.742 103.039C133.233 103.039 132.01 104.262 132.01 105.771C132.01 107.28 133.233 108.504 134.742 108.504Z" fill="#CCCCCC"/>
<path d="M160.247 90.2791L146.533 90.2853H144.859L142.033 90.2872V90.0817L142.031 87.6069L142.029 84.8281H143.91L145.584 84.8258L148.549 84.8238H150.223L153.646 84.8219L160.247 90.2791Z" fill="white"/>
<path d="M139.297 90.2833L132.014 90.2872L132.012 88.8705V86.3946L132.01 84.8258H133.076L134.758 84.8238L139.295 84.8219L139.297 90.2833Z" fill="white"/>
<path d="M142.94 93.9313H142.029V95.753H142.94V93.9313Z" fill="#AAAAAA"/>
<path d="M158.201 92.5527L158.2 91.6191L156.426 91.62L156.427 92.5536L158.201 92.5527Z" fill="#AAAAAA"/>
<path d="M157.516 88.4644H157.607C157.834 88.4644 158.059 88.5115 158.269 88.6031C158.479 88.6946 158.67 88.8288 158.831 88.998C158.991 89.1671 159.119 89.368 159.206 89.589C159.293 89.81 159.337 90.0469 159.337 90.2862C159.337 90.7693 159.155 91.2327 158.831 91.5744C158.506 91.916 158.066 92.108 157.607 92.108H157.516V88.4644H157.516Z" fill="#AAAAAA"/>
<path d="M172.999 99.3797C172.229 99.453 171.455 99.2862 170.812 98.9087C170.169 98.5311 169.699 97.9671 169.484 97.316C169.27 96.6649 169.325 95.9684 169.639 95.3492C169.954 94.73 170.508 94.2279 171.204 93.9313C172.199 95.0487 172.787 96.4025 172.89 97.8163L172.999 99.3797Z" fill="#AAAAAA"/>
<path d="M145.673 84.8219L142.031 90.2872L142.029 87.7138L143.956 84.8242L145.673 84.8219Z" fill="#F2F2F2"/>
<path d="M134.742 84.8219L132.01 88.4654V86.2362L133.069 84.8236L134.742 84.8219Z" fill="#F2F2F2"/>
<path d="M150.227 84.8219L146.468 90.2872H144.762L148.521 84.8219H150.227Z" fill="#F2F2F2"/>
<rect x="73" y="0.331604" width="56" height="56" rx="28" fill="#F6F7F8"/>
<path d="M84.0856 25.7816C84.0856 26.4056 83.9896 26.9936 83.7976 27.5456C83.6056 28.0856 83.3176 28.6376 82.9336 29.2016C82.5496 29.7656 82.0696 30.3596 81.4936 30.9836C80.9296 31.5956 80.2636 32.2856 79.4956 33.0536V33.0896H84.2836V34.3316H77.6956L77.5876 33.2696C78.5716 32.2256 79.3876 31.3616 80.0356 30.6776C80.6836 29.9816 81.1936 29.3756 81.5656 28.8596C81.9376 28.3436 82.1956 27.8696 82.3396 27.4376C82.4956 27.0056 82.5736 26.5256 82.5736 25.9976C82.5736 25.2776 82.4116 24.7196 82.0876 24.3236C81.7636 23.9156 81.2536 23.7116 80.5576 23.7116C80.2096 23.7116 79.8916 23.7596 79.6036 23.8556C79.3276 23.9396 79.0876 24.0416 78.8836 24.1616C78.6796 24.2816 78.5056 24.4076 78.3616 24.5396C78.2296 24.6716 78.1276 24.7736 78.0556 24.8456L77.4256 23.8016C77.5096 23.7056 77.6416 23.5796 77.8216 23.4236C78.0016 23.2676 78.2236 23.1176 78.4876 22.9736C78.7636 22.8176 79.0816 22.6856 79.4416 22.5776C79.8136 22.4696 80.2336 22.4156 80.7016 22.4156C81.2656 22.4156 81.7576 22.4996 82.1776 22.6676C82.6096 22.8236 82.9636 23.0516 83.2396 23.3516C83.5276 23.6516 83.7376 24.0056 83.8696 24.4136C84.0136 24.8216 84.0856 25.2776 84.0856 25.7816ZM92.9576 23.9816H88.9976L88.7456 27.0776C90.4016 27.1496 91.6076 27.5276 92.3636 28.2116C93.1316 28.8956 93.5156 29.8196 93.5156 30.9836C93.5156 31.5116 93.4316 31.9976 93.2636 32.4416C93.0956 32.8736 92.8436 33.2456 92.5076 33.5576C92.1836 33.8696 91.7696 34.1156 91.2656 34.2956C90.7736 34.4636 90.1976 34.5476 89.5376 34.5476C89.0576 34.5476 88.6376 34.4876 88.2776 34.3676C87.9296 34.2596 87.6296 34.1276 87.3776 33.9716C87.1376 33.8156 86.9396 33.6596 86.7836 33.5036C86.6276 33.3476 86.5136 33.2276 86.4416 33.1436L87.1076 31.8836C87.1916 31.9916 87.3056 32.1236 87.4496 32.2796C87.6056 32.4356 87.7856 32.5856 87.9896 32.7296C88.1936 32.8736 88.4216 32.9996 88.6736 33.1076C88.9376 33.2036 89.2256 33.2516 89.5376 33.2516C90.3656 33.2516 90.9836 33.0656 91.3916 32.6936C91.7996 32.3216 92.0036 31.8236 92.0036 31.1996C92.0036 30.1796 91.6256 29.4476 90.8696 29.0036C90.1136 28.5596 88.9196 28.3376 87.2876 28.3376L87.7556 22.6316H92.9576V23.9816ZM102.964 28.4816C102.964 29.5736 102.868 30.5036 102.676 31.2716C102.484 32.0396 102.214 32.6696 101.866 33.1616C101.53 33.6416 101.128 33.9956 100.66 34.2236C100.204 34.4396 99.7056 34.5476 99.1656 34.5476C98.6256 34.5476 98.1336 34.4336 97.6896 34.2056C97.2576 33.9776 96.8796 33.6176 96.5556 33.1256C96.2436 32.6336 96.0036 32.0096 95.8356 31.2536C95.6676 30.4856 95.5836 29.5616 95.5836 28.4816C95.5836 27.3896 95.6796 26.4596 95.8716 25.6916C96.0636 24.9236 96.3276 24.2996 96.6636 23.8196C97.0116 23.3276 97.4136 22.9736 97.8696 22.7576C98.3376 22.5296 98.8416 22.4156 99.3816 22.4156C99.9216 22.4156 100.408 22.5296 100.84 22.7576C101.284 22.9856 101.662 23.3456 101.974 23.8376C102.298 24.3296 102.544 24.9596 102.712 25.7276C102.88 26.4836 102.964 27.4016 102.964 28.4816ZM101.452 28.4816C101.452 27.6056 101.398 26.8676 101.29 26.2676C101.182 25.6556 101.032 25.1636 100.84 24.7916C100.648 24.4076 100.42 24.1316 100.156 23.9636C99.8916 23.7956 99.5976 23.7116 99.2736 23.7116C98.9496 23.7116 98.6556 23.7956 98.3916 23.9636C98.1276 24.1316 97.8996 24.4076 97.7076 24.7916C97.5156 25.1636 97.3656 25.6556 97.2576 26.2676C97.1496 26.8676 97.0956 27.6056 97.0956 28.4816C97.0956 29.3576 97.1496 30.1016 97.2576 30.7136C97.3656 31.3136 97.5156 31.8056 97.7076 32.1896C97.8996 32.5616 98.1276 32.8316 98.3916 32.9996C98.6556 33.1676 98.9496 33.2516 99.2736 33.2516C99.5976 33.2516 99.8916 33.1676 100.156 32.9996C100.42 32.8316 100.648 32.5616 100.84 32.1896C101.032 31.8056 101.182 31.3136 101.29 30.7136C101.398 30.1016 101.452 29.3576 101.452 28.4816ZM108.344 31.9816H105.974C106.02 32.3149 106.09 32.5949 106.184 32.8216C106.284 33.0483 106.404 33.2316 106.544 33.3716C106.69 33.5116 106.854 33.6116 107.034 33.6716C107.22 33.7316 107.42 33.7616 107.634 33.7616C107.947 33.7616 108.18 33.7283 108.334 33.6616C108.494 33.5883 108.62 33.5149 108.714 33.4416L108.894 34.0816C108.78 34.1683 108.62 34.2516 108.414 34.3316C108.214 34.4116 107.92 34.4516 107.534 34.4516C107.214 34.4516 106.92 34.4083 106.654 34.3216C106.387 34.2283 106.15 34.0849 105.944 33.8916C105.737 33.6916 105.564 33.4349 105.424 33.1216C105.284 32.8083 105.187 32.4283 105.134 31.9816H104.394V31.4216H105.084V31.0816C105.084 31.0283 105.084 30.9716 105.084 30.9116C105.084 30.8516 105.087 30.7949 105.094 30.7416H104.394V30.1816H105.144C105.21 29.7416 105.327 29.3649 105.494 29.0516C105.66 28.7383 105.857 28.4816 106.084 28.2816C106.31 28.0816 106.564 27.9383 106.844 27.8516C107.124 27.7583 107.414 27.7116 107.714 27.7116C108.027 27.7116 108.267 27.7483 108.434 27.8216C108.607 27.8883 108.747 27.9549 108.854 28.0216L108.654 28.6916C108.56 28.6183 108.44 28.5516 108.294 28.4916C108.147 28.4316 107.954 28.4016 107.714 28.4016C107.287 28.4016 106.92 28.5449 106.614 28.8316C106.307 29.1183 106.1 29.5683 105.994 30.1816H108.344V30.7416H105.934C105.927 30.7949 105.924 30.8516 105.924 30.9116C105.924 30.9649 105.924 31.0216 105.924 31.0816V31.4216H108.344V31.9816ZM110.632 35.7316H109.902L112.952 26.8316H113.672L110.632 35.7316ZM117.591 34.3316V31.4916C117.591 31.0116 117.521 30.6649 117.381 30.4516C117.248 30.2383 117.031 30.1316 116.731 30.1316C116.558 30.1316 116.404 30.1516 116.271 30.1916C116.138 30.2249 116.021 30.2683 115.921 30.3216C115.821 30.3749 115.734 30.4316 115.661 30.4916C115.594 30.5516 115.538 30.6049 115.491 30.6516V34.3316H114.681V29.5316H115.431V30.0716H115.451C115.498 30.0183 115.564 29.9549 115.651 29.8816C115.738 29.8016 115.841 29.7283 115.961 29.6616C116.081 29.5883 116.221 29.5283 116.381 29.4816C116.541 29.4349 116.721 29.4116 116.921 29.4116C117.201 29.4116 117.444 29.4716 117.651 29.5916C117.864 29.7049 118.031 29.8816 118.151 30.1216C118.211 30.0549 118.288 29.9816 118.381 29.9016C118.481 29.8149 118.594 29.7383 118.721 29.6716C118.848 29.5983 118.991 29.5383 119.151 29.4916C119.311 29.4383 119.488 29.4116 119.681 29.4116C120.208 29.4116 120.611 29.5716 120.891 29.8916C121.171 30.2116 121.311 30.7016 121.311 31.3616V34.3316H120.501V31.4916C120.501 31.0116 120.414 30.6649 120.241 30.4516C120.068 30.2383 119.818 30.1316 119.491 30.1316C119.204 30.1316 118.964 30.1949 118.771 30.3216C118.584 30.4416 118.438 30.5516 118.331 30.6516C118.378 30.8449 118.401 31.0816 118.401 31.3616V34.3316H117.591ZM124.917 27.6216C124.917 27.8216 124.884 28.0083 124.817 28.1816C124.757 28.3549 124.667 28.5283 124.547 28.7016C124.427 28.8749 124.277 29.0549 124.097 29.2416C123.924 29.4283 123.721 29.6316 123.487 29.8516V29.8716H124.957V30.4316H122.667L122.607 29.9916C122.927 29.6449 123.191 29.3583 123.397 29.1316C123.604 28.8983 123.767 28.7016 123.887 28.5416C124.007 28.3749 124.087 28.2283 124.127 28.1016C124.174 27.9749 124.197 27.8416 124.197 27.7016C124.197 27.5016 124.147 27.3483 124.047 27.2416C123.954 27.1283 123.807 27.0716 123.607 27.0716C123.401 27.0716 123.231 27.1183 123.097 27.2116C122.971 27.2983 122.877 27.3716 122.817 27.4316L122.567 26.9516C122.607 26.9116 122.657 26.8649 122.717 26.8116C122.784 26.7583 122.864 26.7083 122.957 26.6616C123.051 26.6083 123.161 26.5649 123.287 26.5316C123.414 26.4916 123.557 26.4716 123.717 26.4716C124.097 26.4716 124.391 26.5749 124.597 26.7816C124.811 26.9816 124.917 27.2616 124.917 27.6216Z" fill="#004B76"/>
</svg>
