<svg width="155" height="116" viewBox="0 0 155 116" fill="none" xmlns="http://www.w3.org/2000/svg">
    <rect x="28.3346" y="16.1215" width="20.4429" height="28.2479" transform="rotate(9.94729 28.3346 16.1215)"
          fill="#C4C4C4" fill-opacity="0.3" stroke="#B8BDC3" stroke-width="0.0599427"/>
    <rect x="115.63" y="31.4316" width="20.4429" height="28.2479" transform="rotate(9.94729 115.63 31.4316)"
          fill="#C4C4C4" fill-opacity="0.3" stroke="#B8BDC3" stroke-width="0.0599427"/>
    <rect x="49.356" y="14.7804" width="20.5029" height="33.2309" transform="rotate(9.94729 49.356 14.7804)"
          fill="#C4C4C4"/>
    <path d="M44.4596 45.0111L41.739 45.0111L41.5909 46.8158C42.1925 46.8966 42.6953 47.0223 43.0993 47.1929C43.5123 47.3545 43.8445 47.5565 44.0959 47.7989C44.3563 48.0414 44.5404 48.3242 44.6481 48.6474C44.7648 48.9617 44.8232 49.3118 44.8232 49.6979C44.8232 50.1289 44.7514 50.515 44.6077 50.8562C44.464 51.1973 44.262 51.4891 44.0017 51.7316C43.7413 51.974 43.427 52.1625 43.0589 52.2972C42.6908 52.4229 42.2823 52.4858 41.8333 52.4858C41.4742 52.4858 41.1599 52.4499 40.8906 52.378C40.6212 52.3152 40.3878 52.2344 40.1902 52.1356C40.0017 52.0368 39.8401 51.9336 39.7054 51.8258C39.5797 51.7181 39.4764 51.6238 39.3956 51.543L40.0152 50.1962C40.078 50.277 40.1633 50.3668 40.271 50.4656C40.3878 50.5554 40.518 50.6452 40.6616 50.7349C40.8143 50.8158 40.9804 50.8876 41.1599 50.9504C41.3395 51.0043 41.5325 51.0312 41.739 51.0312C42.17 51.0312 42.5022 50.9325 42.7357 50.7349C42.9691 50.5374 43.0858 50.2546 43.0858 49.8865C43.0858 49.5992 43.0275 49.3478 42.9108 49.1323C42.803 48.9168 42.6234 48.7372 42.372 48.5936C42.1206 48.4409 41.7929 48.3242 41.3889 48.2434C40.9848 48.1536 40.491 48.0952 39.9074 48.0683L40.271 43.57L44.4596 43.57L44.4596 45.0111ZM51.9167 47.9471C51.9167 48.7282 51.8449 49.4061 51.7012 49.9807C51.5575 50.5464 51.3555 51.0178 51.0951 51.3949C50.8437 51.763 50.534 52.0368 50.1659 52.2164C49.8067 52.396 49.4117 52.4858 48.9807 52.4858C48.5407 52.4858 48.1412 52.396 47.782 52.2164C47.4319 52.0279 47.1311 51.7495 46.8797 51.3814C46.6283 51.0043 46.4353 50.5329 46.3006 49.9673C46.1659 49.3926 46.0986 48.7193 46.0986 47.9471C46.0986 47.166 46.1704 46.4926 46.314 45.9269C46.4577 45.3523 46.6552 44.8809 46.9066 44.5128C47.167 44.1357 47.4768 43.8573 47.8359 43.6778C48.1951 43.4982 48.5901 43.4084 49.0211 43.4084C49.461 43.4084 49.8606 43.5027 50.2197 43.6912C50.5789 43.8708 50.8841 44.1492 51.1355 44.5263C51.3869 44.8944 51.58 45.3658 51.7147 45.9404C51.8493 46.506 51.9167 47.1749 51.9167 47.9471ZM50.1793 47.9471C50.1793 47.3814 50.1524 46.9011 50.0985 46.506C50.0446 46.111 49.9638 45.7922 49.8561 45.5498C49.7573 45.3074 49.6361 45.1323 49.4925 45.0246C49.3488 44.9168 49.1872 44.8629 49.0076 44.8629C48.828 44.8629 48.6664 44.9168 48.5228 45.0246C48.3791 45.1323 48.2534 45.3074 48.1457 45.5498C48.0469 45.7922 47.9706 46.111 47.9167 46.506C47.8629 46.9011 47.8359 47.3814 47.8359 47.9471C47.8359 48.5397 47.8629 49.0335 47.9167 49.4286C47.9706 49.8236 48.0469 50.1424 48.1457 50.3848C48.2534 50.6182 48.3791 50.7843 48.5228 50.8831C48.6664 50.9819 48.828 51.0312 49.0076 51.0312C49.1872 51.0312 49.3488 50.9819 49.4925 50.8831C49.6361 50.7843 49.7573 50.6182 49.8561 50.3848C49.9638 50.1424 50.0446 49.8236 50.0985 49.4286C50.1524 49.0335 50.1793 48.5397 50.1793 47.9471ZM58.7273 47.9471C58.7273 48.7282 58.6555 49.4061 58.5119 49.9807C58.3682 50.5464 58.1662 51.0178 57.9058 51.3949C57.6544 51.763 57.3446 52.0368 56.9765 52.2164C56.6174 52.396 56.2223 52.4858 55.7914 52.4858C55.3514 52.4858 54.9519 52.396 54.5927 52.2164C54.2425 52.0279 53.9418 51.7495 53.6904 51.3814C53.439 51.0043 53.2459 50.5329 53.1112 49.9673C52.9766 49.3926 52.9092 48.7193 52.9092 47.9471C52.9092 47.166 52.9811 46.4926 53.1247 45.9269C53.2684 45.3523 53.4659 44.8809 53.7173 44.5128C53.9777 44.1357 54.2874 43.8573 54.6466 43.6778C55.0057 43.4982 55.4008 43.4084 55.8318 43.4084C56.2717 43.4084 56.6713 43.5027 57.0304 43.6912C57.3895 43.8708 57.6948 44.1492 57.9462 44.5263C58.1976 44.8944 58.3907 45.3658 58.5253 45.9404C58.66 46.506 58.7273 47.1749 58.7273 47.9471ZM56.99 47.9471C56.99 47.3814 56.9631 46.9011 56.9092 46.506C56.8553 46.111 56.7745 45.7922 56.6668 45.5498C56.568 45.3074 56.4468 45.1323 56.3031 45.0246C56.1595 44.9168 55.9979 44.8629 55.8183 44.8629C55.6387 44.8629 55.4771 44.9168 55.3334 45.0246C55.1898 45.1323 55.0641 45.3074 54.9563 45.5498C54.8576 45.7922 54.7813 46.111 54.7274 46.506C54.6735 46.9011 54.6466 47.3814 54.6466 47.9471C54.6466 48.5397 54.6735 49.0335 54.7274 49.4286C54.7813 49.8236 54.8576 50.1424 54.9563 50.3848C55.0641 50.6182 55.1898 50.7843 55.3334 50.8831C55.4771 50.9819 55.6387 51.0312 55.8183 51.0312C55.9979 51.0312 56.1595 50.9819 56.3031 50.8831C56.4468 50.7843 56.568 50.6182 56.6668 50.3848C56.7745 50.1424 56.8553 49.8236 56.9092 49.4286C56.9631 49.0335 56.99 48.5397 56.99 47.9471Z"
          fill="#B0243F"/>
    <path d="M38.83 54.0884L59.1853 54.0884L59.1853 55.2063L38.83 55.2063L38.83 54.0884Z" fill="#B0243F"/>
    <rect x="67.0104" y="29.1528" width="3.90835" height="22.094" transform="rotate(9.94729 67.0104 29.1528)"
          fill="#C4C4C4" fill-opacity="0.3" stroke="#B8BDC3" stroke-width="0.0599427"/>
    <rect x="71.6632" y="25.5953" width="16.4746" height="26.4017" transform="rotate(9.94729 71.6632 25.5953)"
          fill="#C4C4C4" fill-opacity="0.3" stroke="#B8BDC3" stroke-width="0.0599427"/>
    <rect x="135.506" y="36.7918" width="16.4746" height="26.4017" transform="rotate(9.94729 135.506 36.7918)"
          fill="#C4C4C4" fill-opacity="0.3" stroke="#B8BDC3" stroke-width="0.0599427"/>
    <rect x="74.9095" y="53.0307" width="16.4746" height="4.24777" transform="rotate(9.94729 74.9095 53.0307)"
          fill="#C4C4C4" fill-opacity="0.3" stroke="#B8BDC3" stroke-width="0.0599427"/>
    <rect x="119.86" y="60.9145" width="16.4746" height="4.24777" transform="rotate(9.94729 119.86 60.9145)"
          fill="#C4C4C4" fill-opacity="0.3" stroke="#B8BDC3" stroke-width="0.0599427"/>
    <rect x="118.328" y="27.5311" width="16.4746" height="4.24777" transform="rotate(9.94729 118.328 27.5311)"
          fill="#C4C4C4" fill-opacity="0.3" stroke="#B8BDC3" stroke-width="0.0599427"/>
    <rect x="87.9497" y="28.452" width="27.7181" height="26.4017" transform="rotate(9.94729 87.9497 28.452)"
          fill="#C4C4C4" fill-opacity="0.3" stroke="#B8BDC3" stroke-width="0.0599427"/>
    <rect x="140.609" y="110.728" width="34.8967" height="28.2479" transform="rotate(-170.053 140.609 110.728)"
          fill="#C4C4C4" fill-opacity="0.3" stroke="#B8BDC3" stroke-width="0.0599427"/>
    <rect x="54.8801" y="95.6921" width="22.0555" height="28.2479" transform="rotate(-170.053 54.8801 95.6921)"
          fill="#C4C4C4" stroke="#B8BDC3" stroke-width="0.0599427"/>
    <rect x="107.24" y="98.6273" width="4.22046" height="22.094" transform="rotate(-170.053 107.24 98.6273)"
          fill="#C4C4C4" fill-opacity="0.3" stroke="#B8BDC3" stroke-width="0.0599427"/>
    <rect x="102.279" y="102.131" width="17.7751" height="26.4017" transform="rotate(-170.053 102.279 102.131)"
          fill="#C4C4C4" fill-opacity="0.3" stroke="#B8BDC3" stroke-width="0.0599427"/>
    <rect x="33.4156" y="90.053" width="17.7751" height="26.4017" transform="rotate(-170.053 33.4156 90.053)"
          fill="#C4C4C4" fill-opacity="0.3" stroke="#B8BDC3" stroke-width="0.0599427"/>
    <rect x="94.5083" y="105.141" width="9.77655" height="4.24777" transform="rotate(-170.053 94.5083 105.141)"
          fill="#C4C4C4" fill-opacity="0.3" stroke="#B8BDC3" stroke-width="0.0599427"/>
    <rect x="49.9324" y="66.0844" width="17.7751" height="4.24777" transform="rotate(-170.053 49.9324 66.0844)"
          fill="#C4C4C4" fill-opacity="0.3" stroke="#B8BDC3" stroke-width="0.0599427"/>
    <rect x="52.0279" y="99.5659" width="17.7751" height="4.24777" transform="rotate(-170.053 52.0279 99.5659)"
          fill="#C4C4C4" stroke="#B8BDC3" stroke-width="0.0599427"/>
    <rect x="84.7122" y="99.0502" width="29.9029" height="26.4017" transform="rotate(-170.053 84.7122 99.0502)"
          fill="#C4C4C4" fill-opacity="0.3" stroke="#B8BDC3" stroke-width="0.0599427"/>
    <path d="M17.6354 0.994728C17.6354 0.994728 3.15244 83.7241 3.15244 84.0067L1.38623 94.9573L82.9853 111.56L91.1098 67.7576L81.5723 65.9914L91.1098 13.3582L17.6354 0.994728Z"
          stroke="#B0243F" stroke-width="1.19885"/>
</svg>
