<svg width="170" height="132" viewBox="0 0 170 132" fill="none" xmlns="http://www.w3.org/2000/svg">
    <rect x="29.2313" y="17.1009" width="21.402" height="29.5774" transform="rotate(9.94729 29.2313 17.1009)"
          fill="#C4C4C4" fill-opacity="0.3" stroke="#B8BDC3" stroke-width="0.074"/>
    <rect x="120.667" y="33.1373" width="21.402" height="29.5774" transform="rotate(9.94729 120.667 33.1373)"
          fill="#C4C4C4" fill-opacity="0.3" stroke="#B8BDC3" stroke-width="0.074"/>
    <rect x="51.2454" y="15.6896" width="21.476" height="34.8081" transform="rotate(9.94729 51.2454 15.6896)"
          fill="#C4C4C4"/>
    <path d="M45.7878 47.3071L43.0972 47.3071L42.9506 49.092C43.5456 49.1719 44.0429 49.2962 44.4425 49.465C44.851 49.6248 45.1795 49.8246 45.4282 50.0644C45.6857 50.3041 45.8677 50.5838 45.9743 50.9035C46.0897 51.2143 46.1474 51.5606 46.1474 51.9425C46.1474 52.3687 46.0764 52.7506 45.9343 53.088C45.7922 53.4254 45.5924 53.714 45.3349 53.9538C45.0774 54.1936 44.7666 54.38 44.4025 54.5132C44.0384 54.6376 43.6344 54.6997 43.1904 54.6997C42.8352 54.6997 42.5244 54.6642 42.258 54.5932C41.9916 54.531 41.7607 54.4511 41.5654 54.3534C41.3789 54.2557 41.219 54.1536 41.0858 54.047C40.9615 53.9405 40.8594 53.8472 40.7795 53.7673L41.3922 52.4353C41.4544 52.5152 41.5387 52.604 41.6453 52.7017C41.7607 52.7905 41.8895 52.8793 42.0316 52.9681C42.1825 53.048 42.3468 53.1191 42.5244 53.1812C42.702 53.2345 42.8929 53.2612 43.0972 53.2612C43.5234 53.2612 43.852 53.1635 44.0828 52.9681C44.3137 52.7728 44.4292 52.493 44.4292 52.129C44.4292 51.8448 44.3714 51.5962 44.256 51.383C44.1494 51.1699 43.9718 50.9923 43.7232 50.8502C43.4746 50.6993 43.1504 50.5838 42.7508 50.5039C42.3512 50.4151 41.8628 50.3574 41.2856 50.3308L41.6453 45.8819L45.7878 45.8819L45.7878 47.3071ZM53.1819 50.2109C53.1819 50.9834 53.1108 51.6539 52.9688 52.2222C52.8267 52.7816 52.6269 53.2478 52.3694 53.6208C52.1207 53.9849 51.8144 54.2557 51.4503 54.4333C51.0951 54.6109 50.7044 54.6997 50.2781 54.6997C49.843 54.6997 49.4478 54.6109 49.0926 54.4333C48.7463 54.2468 48.4488 53.9716 48.2002 53.6075C47.9516 53.2345 47.7606 52.7683 47.6274 52.2089C47.4942 51.6406 47.4276 50.9746 47.4276 50.2109C47.4276 49.4383 47.4987 48.7723 47.6408 48.2129C47.7828 47.6446 47.9782 47.1784 48.2268 46.8143C48.4844 46.4413 48.7907 46.166 49.1459 45.9884C49.5011 45.8108 49.8918 45.722 50.3181 45.722C50.7532 45.722 51.1484 45.8153 51.5036 46.0018C51.8588 46.1794 52.1607 46.4546 52.4093 46.8276C52.658 47.1917 52.8489 47.6579 52.9821 48.2262C53.1153 48.7856 53.1819 49.4472 53.1819 50.2109ZM51.4636 50.2109C51.4636 49.6514 51.437 49.1764 51.3837 48.7856C51.3304 48.3949 51.2505 48.0797 51.1439 47.8399C51.0462 47.6002 50.9264 47.427 50.7843 47.3204C50.6422 47.2139 50.4824 47.1606 50.3048 47.1606C50.1272 47.1606 49.9673 47.2139 49.8252 47.3204C49.6832 47.427 49.5588 47.6002 49.4523 47.8399C49.3546 48.0797 49.2791 48.3949 49.2258 48.7856C49.1726 49.1764 49.1459 49.6514 49.1459 50.2109C49.1459 50.797 49.1726 51.2854 49.2258 51.6761C49.2791 52.0668 49.3546 52.382 49.4523 52.6218C49.5588 52.8527 49.6832 53.017 49.8252 53.1146C49.9673 53.2123 50.1272 53.2612 50.3048 53.2612C50.4824 53.2612 50.6422 53.2123 50.7843 53.1146C50.9264 53.017 51.0462 52.8527 51.1439 52.6218C51.2505 52.382 51.3304 52.0668 51.3837 51.6761C51.437 51.2854 51.4636 50.797 51.4636 50.2109ZM59.9366 50.2109C59.9366 50.9834 59.8656 51.6539 59.7235 52.2222C59.5814 52.7816 59.3816 53.2478 59.1241 53.6208C58.8754 53.9849 58.5691 54.2557 58.205 54.4333C57.8498 54.6109 57.4591 54.6997 57.0328 54.6997C56.5977 54.6997 56.2026 54.6109 55.8474 54.4333C55.501 54.2468 55.2036 53.9716 54.9549 53.6075C54.7063 53.2345 54.5154 52.7683 54.3822 52.2089C54.249 51.6406 54.1824 50.9746 54.1824 50.2109C54.1824 49.4383 54.2534 48.7723 54.3955 48.2129C54.5376 47.6446 54.7329 47.1784 54.9816 46.8143C55.2391 46.4413 55.5454 46.166 55.9006 45.9884C56.2558 45.8108 56.6466 45.722 57.0728 45.722C57.5079 45.722 57.9031 45.8153 58.2583 46.0018C58.6135 46.1794 58.9154 46.4546 59.164 46.8276C59.4127 47.1917 59.6036 47.6579 59.7368 48.2262C59.87 48.7856 59.9366 49.4472 59.9366 50.2109ZM58.2183 50.2109C58.2183 49.6514 58.1917 49.1764 58.1384 48.7856C58.0851 48.3949 58.0052 48.0797 57.8986 47.8399C57.801 47.6002 57.6811 47.427 57.539 47.3204C57.3969 47.2139 57.2371 47.1606 57.0595 47.1606C56.8819 47.1606 56.722 47.2139 56.58 47.3204C56.4379 47.427 56.3136 47.6002 56.207 47.8399C56.1093 48.0797 56.0338 48.3949 55.9806 48.7856C55.9273 49.1764 55.9006 49.6514 55.9006 50.2109C55.9006 50.797 55.9273 51.2854 55.9806 51.6761C56.0338 52.0668 56.1093 52.382 56.207 52.6218C56.3136 52.8527 56.4379 53.017 56.58 53.1146C56.722 53.2123 56.8819 53.2612 57.0595 53.2612C57.2371 53.2612 57.3969 53.2123 57.539 53.1146C57.6811 53.017 57.801 52.8527 57.8986 52.6218C58.0052 52.382 58.0851 52.0668 58.1384 51.6761C58.1917 51.2854 58.2183 50.797 58.2183 50.2109Z"
          fill="#B0243F"/>
    <path d="M40.22 56.2848L60.3895 56.2848L60.3895 57.3904L40.22 57.3904L40.22 56.2848Z" fill="#B0243F"/>
    <path d="M115.312 71.338L117.057 71.338L117.057 72.67L111.876 72.67L111.876 71.338L113.634 71.338L113.634 65.6503L111.956 66.2364L111.609 64.9444L114.113 64.012L115.312 64.012L115.312 71.338ZM123.306 66.1032C123.306 66.3874 123.266 66.6404 123.186 66.8624C123.115 67.0844 123.008 67.2798 122.866 67.4485C122.733 67.6084 122.573 67.7504 122.387 67.8748C122.209 67.9991 122.014 68.1056 121.801 68.1944L121.801 68.2211C122.023 68.2832 122.236 68.3676 122.44 68.4742C122.653 68.5807 122.835 68.7184 122.986 68.8871C123.146 69.0469 123.27 69.2467 123.359 69.4865C123.457 69.7262 123.506 70.006 123.506 70.3256C123.506 70.6986 123.439 71.0405 123.306 71.3513C123.181 71.6532 122.995 71.9152 122.746 72.1372C122.498 72.3592 122.196 72.5323 121.841 72.6566C121.485 72.7721 121.081 72.8298 120.628 72.8298C120.264 72.8298 119.94 72.7854 119.656 72.6966C119.381 72.6078 119.141 72.5057 118.937 72.3902C118.741 72.2748 118.582 72.1594 118.457 72.0439C118.333 71.9196 118.244 71.8264 118.191 71.7642L118.87 70.5121C118.932 70.5832 119.008 70.672 119.097 70.7785C119.194 70.8762 119.31 70.9739 119.443 71.0716C119.585 71.1604 119.745 71.2358 119.922 71.298C120.1 71.3602 120.304 71.3912 120.535 71.3912C120.961 71.3912 121.281 71.298 121.494 71.1115C121.716 70.925 121.827 70.6631 121.827 70.3256C121.827 69.8905 121.663 69.562 121.334 69.34C121.015 69.118 120.557 69.007 119.962 69.007L119.43 69.007L119.323 67.7416L119.656 67.7416C120.393 67.7416 120.917 67.6128 121.228 67.3553C121.547 67.0889 121.707 66.7381 121.707 66.303C121.707 66.0011 121.614 65.7524 121.428 65.5571C121.241 65.3617 120.961 65.264 120.588 65.264C120.384 65.264 120.198 65.2907 120.029 65.344C119.86 65.3884 119.709 65.4461 119.576 65.5171C119.443 65.5882 119.327 65.6636 119.23 65.7436C119.132 65.8146 119.057 65.8812 119.003 65.9434L118.391 64.8245C118.471 64.7446 118.582 64.6513 118.724 64.5448C118.866 64.4293 119.043 64.3228 119.256 64.2251C119.47 64.1185 119.714 64.0297 119.989 63.9587C120.264 63.8876 120.575 63.8521 120.921 63.8521C121.658 63.8521 122.24 64.0519 122.666 64.4515C123.093 64.8511 123.306 65.4017 123.306 66.1032ZM130.607 68.341C130.607 69.1135 130.536 69.784 130.393 70.3523C130.251 70.9117 130.052 71.3779 129.794 71.7509C129.545 72.115 129.239 72.3858 128.875 72.5634C128.52 72.741 128.129 72.8298 127.703 72.8298C127.268 72.8298 126.873 72.741 126.517 72.5634C126.171 72.3769 125.874 72.1016 125.625 71.7376C125.376 71.3646 125.185 70.8984 125.052 70.339C124.919 69.7706 124.852 69.1046 124.852 68.341C124.852 67.5684 124.923 66.9024 125.065 66.343C125.208 65.7746 125.403 65.3084 125.652 64.9444C125.909 64.5714 126.215 64.2961 126.571 64.1185C126.926 63.9409 127.317 63.8521 127.743 63.8521C128.178 63.8521 128.573 63.9454 128.928 64.1318C129.283 64.3094 129.585 64.5847 129.834 64.9577C130.083 65.3218 130.274 65.788 130.407 66.3563C130.54 66.9157 130.607 67.5773 130.607 68.341ZM128.888 68.341C128.888 67.7815 128.862 67.3064 128.808 66.9157C128.755 66.525 128.675 66.2098 128.569 65.97C128.471 65.7302 128.351 65.5571 128.209 65.4505C128.067 65.344 127.907 65.2907 127.729 65.2907C127.552 65.2907 127.392 65.344 127.25 65.4505C127.108 65.5571 126.984 65.7302 126.877 65.97C126.779 66.2098 126.704 66.525 126.651 66.9157C126.597 67.3064 126.571 67.7815 126.571 68.341C126.571 68.927 126.597 69.4154 126.651 69.8062C126.704 70.1969 126.779 70.5121 126.877 70.7519C126.984 70.9828 127.108 71.147 127.25 71.2447C127.392 71.3424 127.552 71.3912 127.729 71.3912C127.907 71.3912 128.067 71.3424 128.209 71.2447C128.351 71.147 128.471 70.9828 128.569 70.7519C128.675 70.5121 128.755 70.1969 128.808 69.8062C128.862 69.4154 128.888 68.927 128.888 68.341Z"
          fill="#B0243F"/>
    <path d="M110.89 74.4149L131.059 74.4149L131.059 75.5204L110.89 75.5204L110.89 74.4149Z" fill="#B0243F"/>
    <rect x="69.7418" y="30.7504" width="4.08264" height="23.1314" transform="rotate(9.94729 69.7418 30.7504)"
          fill="#C4C4C4" stroke="#B8BDC3" stroke-width="0.074"/>
    <rect x="74.6154" y="27.024" width="17.2453" height="27.6436" transform="rotate(9.94729 74.6154 27.024)"
          fill="#C4C4C4" stroke="#B8BDC3" stroke-width="0.074"/>
    <rect x="141.487" y="38.7518" width="17.2453" height="27.6436" transform="rotate(9.94729 141.487 38.7518)"
          fill="#C4C4C4" fill-opacity="0.3" stroke="#B8BDC3" stroke-width="0.074"/>
    <rect x="78.0157" y="55.7609" width="17.2453" height="4.43817" transform="rotate(9.94729 78.0157 55.7609)"
          fill="#C4C4C4" fill-opacity="0.3" stroke="#B8BDC3" stroke-width="0.074"/>
    <rect x="125.098" y="64.0188" width="17.2453" height="4.43817" transform="rotate(9.94729 125.098 64.0188)"
          fill="#C4C4C4" fill-opacity="0.3" stroke="#B8BDC3" stroke-width="0.074"/>
    <rect x="123.494" y="29.0517" width="17.2453" height="4.43817" transform="rotate(9.94729 123.494 29.0517)"
          fill="#C4C4C4" fill-opacity="0.3" stroke="#B8BDC3" stroke-width="0.074"/>
    <rect x="91.6745" y="30.0163" width="29.0225" height="27.6436" transform="rotate(9.94729 91.6745 30.0163)"
          fill="#C4C4C4" stroke="#B8BDC3" stroke-width="0.074"/>
    <rect x="146.822" y="116.182" width="36.5418" height="29.5774" transform="rotate(-170.053 146.822 116.182)"
          fill="#C4C4C4" fill-opacity="0.3" stroke="#B8BDC3" stroke-width="0.074"/>
    <rect x="57.027" y="100.433" width="23.0911" height="29.5774" transform="rotate(-170.053 57.027 100.433)"
          fill="#C4C4C4" fill-opacity="0.3" stroke="#B8BDC3" stroke-width="0.074"/>
    <rect x="111.87" y="103.508" width="4.40956" height="23.1314" transform="rotate(-170.053 111.87 103.508)"
          fill="#C4C4C4" fill-opacity="0.3" stroke="#B8BDC3" stroke-width="0.074"/>
    <rect x="106.675" y="107.178" width="18.6075" height="27.6436" transform="rotate(-170.053 106.675 107.178)"
          fill="#C4C4C4" fill-opacity="0.3" stroke="#B8BDC3" stroke-width="0.074"/>
    <rect x="34.5442" y="94.5269" width="18.6075" height="27.6436" transform="rotate(-170.053 34.5442 94.5269)"
          fill="#C4C4C4" fill-opacity="0.3" stroke="#B8BDC3" stroke-width="0.074"/>
    <rect x="98.5351" y="110.331" width="10.2293" height="4.43817" transform="rotate(-170.053 98.5351 110.331)"
          fill="#C4C4C4" fill-opacity="0.3" stroke="#B8BDC3" stroke-width="0.074"/>
    <rect x="51.8446" y="69.4211" width="18.6075" height="4.43817" transform="rotate(-170.053 51.8446 69.4211)"
          fill="#C4C4C4" fill-opacity="0.3" stroke="#B8BDC3" stroke-width="0.074"/>
    <rect x="54.0394" y="104.491" width="18.6075" height="4.43817" transform="rotate(-170.053 54.0394 104.491)"
          fill="#C4C4C4" fill-opacity="0.3" stroke="#B8BDC3" stroke-width="0.074"/>
    <rect x="88.2742" y="103.951" width="31.3109" height="27.6436" transform="rotate(-170.053 88.2742 103.951)"
          fill="#C4C4C4" fill-opacity="0.3" stroke="#B8BDC3" stroke-width="0.074"/>
    <path d="M18.02 1.25C18.02 1.25 2.85 87.904 2.85 88.2L1 99.67L86.47 117.06L94.98 71.18L84.99 69.33L94.98 14.2L18.02 1.25Z"
          stroke="#B0243F" stroke-width="1.48"/>
    <path d="M94.98 14.2L168.24 26.78L158.25 82.28L165.65 84.13L157.14 130.75L86.47 117.06" stroke="#B0243F"
          stroke-width="1.48"/>
</svg>
