<svg xmlns="http://www.w3.org/2000/svg" width="71" height="87" fill="none"><path fill="#fff" d="M35.5 78.588c19.606 0 35.5-15.897 35.5-35.507S55.106 7.574 35.5 7.574 0 23.47 0 43.08s15.894 35.507 35.5 35.507Z"/><path fill="#DCE8EF" d="M66.047 43.081a30.515 30.515 0 0 1-13.109 25.087A30.548 30.548 0 0 1 8.21 56.808a30.561 30.561 0 0 1 9.852-38.813 30.547 30.547 0 0 1 35.656.56A30.509 30.509 0 0 1 66.047 43.08Z"/><path fill="#6693AD" d="M35.5 70.992c15.411 0 27.905-12.496 27.905-27.91 0-15.415-12.494-27.91-27.905-27.91-15.411 0-27.905 12.495-27.905 27.91 0 15.414 12.494 27.91 27.905 27.91Z"/><path fill="#000" d="M35.573 15.248c-.423 0-.843.012-1.262.03a27.902 27.902 0 0 1 18.333 9.17 27.913 27.913 0 0 1-.81 38.13 27.902 27.902 0 0 1-18.705 8.384 27.902 27.902 0 0 0 22.175-8.067 27.914 27.914 0 0 0 0-39.472 27.902 27.902 0 0 0-19.731-8.174Z" opacity=".2"/><path fill="#DCE8EF" d="M35.583 13.189a.91.91 0 0 0-.909.908v3.964a.909.909 0 0 0 1.817 0v-3.964a.91.91 0 0 0-.908-.908ZM53.717 18.555a25.989 25.989 0 0 0-.78-.56.907.907 0 0 0-.808.395l-2.23 3.275a.908.908 0 0 0 1.5 1.022l2.23-3.275a.902.902 0 0 0 .088-.857ZM63.852 33.488a.91.91 0 0 0-1.182-.5l-3.672 1.492a.908.908 0 0 0 .683 1.683l3.672-1.491a.91.91 0 0 0 .5-1.184ZM21.102 21.665l-2.23-3.275a.908.908 0 0 0-.81-.395c-.262.182-.523.368-.78.56a.903.903 0 0 0 .088.857l2.231 3.275a.908.908 0 1 0 1.501-1.022ZM12.002 34.48 8.33 32.989a.908.908 0 0 0-.683 1.683l3.672 1.49a.908.908 0 0 0 .683-1.682ZM35.583 67.194a.91.91 0 0 0-.909.908v3.964a.909.909 0 0 0 1.817 0v-3.964a.91.91 0 0 0-.908-.908ZM53.63 66.751l-2.231-3.275a.908.908 0 1 0-1.5 1.022l2.23 3.275a.908.908 0 0 0 .809.395c.262-.182.523-.368.78-.56a.903.903 0 0 0-.088-.857ZM63.354 51.491 59.68 50a.908.908 0 0 0-.683 1.683l3.672 1.491a.908.908 0 0 0 .684-1.683ZM20.863 63.236a.908.908 0 0 0-1.262.24l-2.23 3.275a.904.904 0 0 0-.088.857c.256.192.517.378.78.56a.907.907 0 0 0 .808-.395l2.231-3.275a.909.909 0 0 0-.24-1.262ZM12.501 50.498a.908.908 0 0 0-1.182-.499L7.647 51.49a.908.908 0 0 0 .683 1.683l3.672-1.491a.91.91 0 0 0 .499-1.184Z"/><path fill="#3F3D56" d="M36.761 42.63a1.902 1.902 0 0 1-1.554 2.191l-16.115 2.742a1.898 1.898 0 0 1-1.329-3.48c.211-.133.447-.223.692-.264l16.116-2.742a1.9 1.9 0 0 1 2.19 1.554Z"/><path fill="#3F3D56" d="M53.722 60.489a1.24 1.24 0 0 1-1.752.007L34.623 43.28a1.24 1.24 0 0 1 1.744-1.759l17.348 17.215a1.24 1.24 0 0 1 .007 1.752Z"/><path fill="#CCC" d="M35.5 45.228a2.147 2.147 0 1 0 0-4.294 2.147 2.147 0 0 0 0 4.294Z"/><path fill="#fff" d="M20.715 5.853c-3.295 5.181-8.322 8.62-14.522 10.878a1.167 1.167 0 0 1-1.631-.234C1.194 12 1.954 5.572 6.399 2.135a10.248 10.248 0 0 1 14.457 1.962l.093.124a1.165 1.165 0 0 1-.234 1.632ZM50.144 4.097a10.25 10.25 0 0 1 14.457-1.962C69.046 5.572 69.806 12 66.44 16.497a1.165 1.165 0 0 1-1.632.235c-5.755-2.204-10.475-6.018-14.522-10.88a1.166 1.166 0 0 1-.234-1.631l.093-.124ZM48.7 73.844a.91.91 0 0 0-.349 1.236l5.241 9.368a.908.908 0 0 0 1.585-.887l-5.241-9.368a.91.91 0 0 0-1.236-.349ZM21.064 74.193l-5.24 9.368a.909.909 0 0 0 1.584.887l5.241-9.368a.91.91 0 0 0-1.585-.887Z"/><path fill="#fff" d="M54.653 86.847a2.807 2.807 0 1 0 0-5.615 2.807 2.807 0 0 0 0 5.615ZM56.635 15.006a2.807 2.807 0 1 0 0-5.615 2.807 2.807 0 0 0 0 5.615ZM35.335 8.4a2.807 2.807 0 1 0 0-5.615 2.807 2.807 0 0 0 0 5.614ZM15.026 14.676a2.807 2.807 0 1 0 0-5.615 2.807 2.807 0 0 0 0 5.615ZM16.842 86.847a2.807 2.807 0 1 0 0-5.615 2.807 2.807 0 0 0 0 5.615Z"/></svg>