<svg xmlns="http://www.w3.org/2000/svg" width="96" height="94" fill="none"><path fill="#4E596A" d="M62.364 37.387a16.759 16.759 0 0 0 1.603 7.183l.022.047a16.538 16.538 0 0 0 1.019 1.837 16.81 16.81 0 0 0 5.923 5.611 16.782 16.782 0 0 0 7.865 2.158l-.166 9.578-2.17-1.144-.386.737 2.54 1.34-.311 17.787-.004.238 1.677.374-.003-.239-.528-28.67a16.748 16.748 0 0 0 12.175-5.502l.012-.013a16.861 16.861 0 0 0 3.063-4.747l-.05.055a16.866 16.866 0 0 0 .32-12.44 16.837 16.837 0 0 0-8.296-9.265c-.058-.03-.117-.058-.175-.087a16.814 16.814 0 0 0-12.196-.943 16.838 16.838 0 0 0-9.91 8.099 16.772 16.772 0 0 0-2.024 8.006Z"/><path fill="#2F8D63" d="M64.628 44.626c-12.174 0-22.043-9.883-22.043-22.073 0-12.191 9.87-22.074 22.043-22.074 12.174 0 22.043 9.883 22.043 22.073 0 12.191-9.869 22.074-22.043 22.074Z"/><path fill="#000" d="M80.904 7.81c4.786 11.21-.41 24.182-11.605 28.975a22.016 22.016 0 0 1-13.466 1.247 22.039 22.039 0 0 1-11.659-6.86c4.785 11.21 17.74 16.413 28.935 11.621 11.196-4.792 16.392-17.764 11.606-28.975a22.077 22.077 0 0 0-3.81-6.009Z" opacity=".2"/><path fill="#3F3D56" d="m63.435 84.045 2.252-.633-.005-.242-.674-36.717-.034-1.83-.001-.054-.118-6.414-.17-9.298v-.002l-.117-6.302h-.061l-.12 6.828-.154 8.886-.11 6.307v.046l-.005.26v.001l-.214 12.292-.022 1.222L63.44 83.8l-.005.245Z"/><path fill="#3F3D56" d="m61.062 55.674 3.644 1.922-.508.965-3.644-1.92.508-.967Z"/><path fill="#3F3D56" stroke="#3F3D56" stroke-width=".5" d="M64.81 88.488v-.25h10.894v.733H64.81v-.483ZM45.737 92.448v-.25h10.894v.732H45.737v-.483ZM16.081 89.42v-.25h10.894v.733H16.081v-.483Z"/><path fill="#2F8D63" d="M21.079 79.942v-6.774s-2.637 4.803 0 6.774Z"/><path fill="#2F8D63" d="M20.916 79.941 25.9 75.36s-5.317 1.303-4.984 4.581ZM72.599 81.573V74.8s-2.637 4.803 0 6.774Z"/><path fill="#2F8D63" d="m72.436 81.572 4.983-4.582s-5.316 1.303-4.983 4.582ZM54.689 86.465V78.04s-3.279 5.973 0 8.425Z"/><path fill="#2F8D63" d="m54.486 86.463 6.198-5.697s-6.611 1.62-6.198 5.697Z"/><path fill="#3F3D56" stroke="#3F3D56" stroke-width=".5" d="m1.174 85.502-.069-.24.24-.069 19.547-5.575.01-.002.029-.007.056-.014.056.013 14.75 3.256 18.686 3.195 8.893-2.5 2.243-.63 6.846-1.924.007-.002.028-.007.057-.014.058.013 5.746 1.282-.05.227.05-.227 1.67.373 3.7.825.243.055-.053.243-.05.227-.054.245-.245-.055-3.646-.814-1.677-.373-5.674-1.267-6.816 1.917-2.252.632-8.906 2.503h-.002l-.025.007-.054.015-.054-.01-18.805-3.216-.011-.002-14.642-3.232-19.457 5.549-.241.068-.068-.24-.064-.225Z"/><path fill="#3F3D56" d="m32.22 15.178-2.806-2.148c2.18-.23 3.076.908 3.442 1.809 1.704-.677 3.558.21 3.558.21L30.799 17a4.087 4.087 0 0 1 1.421-1.822ZM37.82 55.178l-2.406-2.148c1.869-.23 2.636.908 2.95 1.809 1.46-.677 3.05.21 3.05.21L36.6 57a4.061 4.061 0 0 1 1.218-1.822Z"/></svg>