<svg width="150" height="150" fill="none" xmlns="http://www.w3.org/2000/svg"><path opacity=".5" d="M85.325 93.258h-9.826v16.434h9.826V93.258z" fill="#B8BDC3"/><path d="M83.897 102.187a.714.714 0 1 0 0-1.428.714.714 0 0 0 0 1.428z" fill="#fff"/><path d="M23.347 91.607c6.544 0 11.848-10.823 11.848-24.174 0-13.352-5.304-24.175-11.848-24.175-6.543 0-11.848 10.823-11.848 24.175 0 13.35 5.305 24.174 11.848 24.174z" fill="#2F8D63"/><path d="M24.667 106.965c-4.739-28.433-.048-56.762 0-57.045l.472.08c-.048.282-4.725 28.535 0 56.887l-.472.078z" fill="#4E596A"/><path d="M33.887 62.435l-10.715 5.731.226.422 10.714-5.73-.225-.423zM12.091 65.306l-.226.422 10.713 5.734.226-.422-10.713-5.734z" fill="#4E596A"/><path opacity=".5" d="M14.675 109.943c.029.022.06.042.088.064h24.778c.485-1.956.657-3.914-.069-5.614-1.033-2.422-4.09-3.934-6.522-2.894a3.708 3.708 0 0 0-1.458 1.147c-.95-1.691-2.654-2.966-4.621-2.964-2.465.001-4.514 2.005-5.183 4.32-1.076-1.807-3.203-3.07-5.282-2.527-3.477.909-4.576 6.282-1.731 8.468z" fill="#B8BDC3"/><path d="M139.135 109.499l-128.272.243.002 1 128.272-.243-.002-1z" fill="#B8BDC3"/><path fill="#F2F2F2" d="M45.499 67.258h2v42h-2zM112.499 65.258h2v44h-2z"/><path opacity=".5" d="M73.612 73.258h-18.04V84.51h18.04V73.258z" fill="#E6E6E6"/><path opacity=".5" d="M74.684 83.531H54.499v1.965h20.185v-1.965zM66.098 39.258h-7.599v15.63l7.599-2v-13.63z" fill="#B8BDC3"/><path d="M38.5 71.758l43-32.5 39.999 32.5" stroke="#F2F2F2" stroke-width="3"/><path opacity=".5" d="M105.612 73.258h-18.04V84.51h18.04V73.258z" fill="#E6E6E6"/><path opacity=".5" d="M106.684 83.531H86.499v1.965h20.185v-1.965z" fill="#B8BDC3"/><path d="M126.557 100.978c3.345 0 6.058-5.534 6.058-12.36s-2.713-12.36-6.058-12.36c-3.346 0-6.058 5.534-6.058 12.36s2.712 12.36 6.058 12.36z" fill="#91C5AE"/><path d="M127.116 108.849c-2.426-14.556-.024-29.06 0-29.205l.472.08c-.024.144-2.412 14.572 0 29.047l-.472.078z" fill="#A8A8A8"/><path d="M131.89 85.96l-5.478 2.93.226.423 5.478-2.93-.226-.422zM120.857 87.427l-.226.423 5.477 2.931.226-.422-5.477-2.931z" fill="#A8A8A8"/><path opacity=".5" d="M121.291 109.544l.044.033h12.1c.237-1.008.321-2.016-.033-2.892-.505-1.248-1.998-2.027-3.186-1.491-.281.13-.526.334-.712.591-.464-.871-1.296-1.528-2.257-1.527-1.203.001-2.204 1.033-2.53 2.225-.526-.931-1.565-1.581-2.58-1.301-1.698.468-2.235 3.236-.846 4.362z" fill="#B8BDC3"/></svg>