<svg width="115" height="118" fill="none" xmlns="http://www.w3.org/2000/svg"><path fill="#fff" d="M-16-16h150v150H-16z"/><path fill="#F6F7F8" d="M-1-1h120v120H-1z"/><mask id="a" style="mask-type:alpha" maskUnits="userSpaceOnUse" x="-1" y="-1" width="120" height="120"><path fill="#F6F7F8" d="M-1-1h120v120H-1z"/></mask><g mask="url(#a)"><path fill="#C4C4C4" d="M23.401 52.201l56.055 16.382-9.2 31.483L14.2 83.684z"/><path d="M84.2 51.4c-3.52-.96-36.933-10.533-53.2-15.2L41-1c30 9.067 84.8 23.6 94.8 34.4 10 10.8 3.6 43.6 2.4 50.4-.96 5.44-16.933 61.201-24.8 88.401l-43.2-11.6 10.8-31.6c5.067-14.8 13.082-46.16 14.8-52 2-6.8 0-22.437-11.6-25.6zM-29.59 18.438c3.497 1.04 36.939 10.513 53.222 15.12L34.74-3.326C4.466-11.432-49.766-27.962-63.956-24.054c-14.19 3.908-26.038 35.156-28.602 41.567-2.051 5.13-17.863 60.935-25.513 88.197l42.827 12.91 7.476-32.547c3.494-15.248 13.21-46.123 14.828-51.992 1.884-6.833 11.824-19.068 23.35-15.643z" fill="#C4C4C4" fill-opacity=".3"/><path d="M23 134.201l8.8-31.2 48 12.8-10.8 34-46-15.6z" fill="#C4C4C4" fill-opacity=".3"/><path d="M12.6 136.6l11.6-40.8 25.2 6.8 14-46-39.2-12 20.4-68.4" stroke="#B0243F" stroke-width="2"/><path d="M12.44 59.69c0 .273-.038.516-.115.73-.068.213-.17.4-.307.563a2.14 2.14 0 0 1-.461.41c-.17.119-.359.221-.563.307v.025c.213.06.418.141.614.243.205.103.38.235.525.397.153.154.273.346.358.576.094.23.141.5.141.807 0 .358-.064.687-.192.985-.12.29-.299.542-.538.755-.238.214-.529.38-.87.5-.341.11-.73.166-1.165.166-.35 0-.661-.043-.934-.128a3.74 3.74 0 0 1-.691-.294 2.688 2.688 0 0 1-.461-.333c-.12-.12-.205-.21-.256-.269l.653-1.203c.06.068.132.154.217.256.094.094.205.188.333.281a2.3 2.3 0 0 0 .46.218c.171.06.368.09.59.09.41 0 .716-.09.921-.27.213-.178.32-.43.32-.754 0-.418-.158-.734-.473-.947-.308-.214-.747-.32-1.319-.32h-.512l-.102-1.217h.32c.708 0 1.212-.123 1.51-.37.307-.257.461-.594.461-1.012 0-.29-.09-.529-.269-.717-.179-.187-.448-.281-.806-.281-.196 0-.376.025-.538.077a2.009 2.009 0 0 0-.768.383 1.28 1.28 0 0 0-.217.192l-.59-1.075a3.06 3.06 0 0 1 .32-.268c.137-.111.308-.214.513-.308.205-.102.44-.187.704-.256a3.59 3.59 0 0 1 .896-.102c.708 0 1.267.192 1.677.576.41.384.614.913.614 1.587zm7.053 2.15c0 .743-.069 1.387-.205 1.933-.137.538-.329.986-.576 1.344-.239.35-.533.61-.883.781-.341.17-.717.256-1.127.256-.418 0-.798-.085-1.139-.256a2.44 2.44 0 0 1-.857-.793c-.24-.359-.423-.807-.55-1.345-.129-.546-.193-1.186-.193-1.92 0-.742.069-1.382.205-1.92.137-.546.324-.994.563-1.343.248-.359.542-.623.883-.794.342-.17.717-.256 1.127-.256.418 0 .798.09 1.139.269.341.17.632.435.87.793.24.35.423.798.55 1.344.129.538.193 1.174.193 1.907zm-1.651 0c0-.537-.026-.994-.077-1.37-.051-.375-.128-.678-.23-.908-.095-.23-.21-.397-.346-.5a.749.749 0 0 0-.461-.153.749.749 0 0 0-.46.154c-.137.102-.257.269-.36.5-.093.23-.166.532-.217.908-.051.375-.077.832-.077 1.37 0 .563.026 1.032.077 1.407.051.376.124.679.218.91.102.221.222.379.358.473.137.094.29.14.461.14.17 0 .324-.046.46-.14.137-.094.253-.252.346-.474.103-.23.18-.533.23-.908.052-.376.078-.845.078-1.409zm8.179 0c0 .743-.069 1.387-.205 1.933-.136.538-.328.986-.576 1.344-.239.35-.533.61-.883.781-.341.17-.717.256-1.127.256-.418 0-.797-.085-1.139-.256a2.44 2.44 0 0 1-.857-.793c-.24-.359-.423-.807-.55-1.345-.129-.546-.193-1.186-.193-1.92 0-.742.069-1.382.205-1.92.136-.546.324-.994.563-1.343.248-.359.542-.623.883-.794.342-.17.717-.256 1.127-.256.418 0 .798.09 1.139.269.341.17.631.435.87.793.24.35.423.798.55 1.344.129.538.193 1.174.193 1.907zm-1.651 0c0-.537-.026-.994-.077-1.37-.051-.375-.128-.678-.23-.908-.095-.23-.21-.397-.346-.5a.749.749 0 0 0-.461-.153.749.749 0 0 0-.46.154c-.137.102-.257.269-.36.5-.093.23-.166.532-.217.908-.051.375-.077.832-.077 1.37 0 .563.026 1.032.077 1.407.051.376.124.679.218.91.102.221.222.379.358.473.137.094.29.14.461.14.17 0 .324-.046.46-.14.137-.094.252-.252.346-.474.103-.23.18-.533.23-.908.052-.376.078-.845.078-1.409zm8.179 0c0 .743-.069 1.387-.205 1.933-.136.538-.328.986-.576 1.344-.239.35-.533.61-.883.781-.341.17-.717.256-1.127.256-.418 0-.797-.085-1.139-.256a2.44 2.44 0 0 1-.857-.793c-.24-.359-.423-.807-.55-1.345-.129-.546-.193-1.186-.193-1.92 0-.742.069-1.382.205-1.92.136-.546.324-.994.563-1.343.248-.359.542-.623.883-.794.342-.17.717-.256 1.127-.256.418 0 .798.09 1.139.269.341.17.631.435.87.793.24.35.423.798.55 1.344.129.538.193 1.174.193 1.907zm-1.651 0c0-.537-.026-.994-.077-1.37-.051-.375-.128-.678-.23-.908-.095-.23-.21-.397-.346-.5a.749.749 0 0 0-.461-.153.749.749 0 0 0-.46.154c-.137.102-.257.269-.36.5-.093.23-.166.532-.217.908-.051.375-.077.832-.077 1.37 0 .563.026 1.032.077 1.407.051.376.124.679.218.91.102.221.222.379.358.473.137.094.29.14.461.14.17 0 .324-.046.46-.14.137-.094.253-.252.346-.474.103-.23.18-.533.23-.908.052-.376.078-.845.078-1.409zM7 67.677h25.984v1.063H7v-1.063zM72.25 91.72h1.676V93h-4.979v-1.28h1.69v-5.465l-1.613.563-.333-1.242 2.407-.895h1.152v7.04zm7.859-4.736c0 .393-.06.769-.18 1.127-.11.358-.285.725-.524 1.1-.24.368-.538.756-.896 1.165-.35.402-.768.841-1.255 1.319v.026h3.008V93h-4.966l-.115-.986c.691-.751 1.25-1.374 1.677-1.869.426-.495.755-.913.985-1.254.24-.35.401-.653.487-.91.085-.264.128-.537.128-.818 0-.41-.103-.726-.308-.948-.196-.23-.495-.345-.896-.345-.213 0-.41.03-.588.09-.171.05-.329.115-.474.192a1.921 1.921 0 0 0-.358.255 2.18 2.18 0 0 0-.244.23l-.563-1.087c.085-.085.197-.188.333-.307.145-.12.32-.235.525-.346.205-.11.44-.2.704-.269.273-.077.584-.115.934-.115.794 0 1.421.213 1.882.64.47.427.704 1.037.704 1.83zm6.912 1.857c0 .742-.069 1.386-.205 1.932-.136.538-.329.986-.576 1.344-.239.35-.533.61-.883.781-.341.17-.717.256-1.127.256-.418 0-.797-.085-1.139-.256a2.44 2.44 0 0 1-.857-.793c-.24-.359-.423-.807-.55-1.345-.129-.546-.193-1.186-.193-1.92 0-.742.069-1.382.205-1.92.136-.546.324-.994.563-1.344.248-.358.542-.622.883-.793.342-.17.717-.256 1.127-.256.418 0 .798.09 1.139.269.341.17.632.435.87.793.24.35.423.798.55 1.344.129.538.193 1.174.193 1.907zm-1.651 0c0-.538-.026-.995-.077-1.37-.051-.376-.128-.678-.23-.909-.094-.23-.21-.397-.346-.5a.749.749 0 0 0-.461-.153.749.749 0 0 0-.46.154c-.137.102-.257.269-.36.5-.093.23-.166.532-.217.908-.051.375-.077.832-.077 1.37 0 .563.026 1.032.077 1.408.051.375.124.678.218.908.102.222.222.38.358.474.137.094.29.14.461.14.17 0 .324-.046.46-.14.137-.094.253-.252.346-.474.103-.23.18-.533.23-.908.052-.376.078-.845.078-1.408zm8.179 0c0 .742-.069 1.386-.205 1.932-.136.538-.328.986-.576 1.344-.239.35-.533.61-.883.781-.342.17-.717.256-1.127.256-.418 0-.797-.085-1.139-.256a2.44 2.44 0 0 1-.857-.793c-.24-.359-.423-.807-.55-1.345-.129-.546-.193-1.186-.193-1.92 0-.742.069-1.382.205-1.92.136-.546.324-.994.563-1.344.248-.358.542-.622.883-.793.342-.17.717-.256 1.127-.256.418 0 .798.09 1.139.269.341.17.631.435.87.793.24.35.423.798.55 1.344.129.538.193 1.174.193 1.907zm-1.651 0c0-.538-.026-.995-.077-1.37-.051-.376-.128-.678-.23-.909-.094-.23-.21-.397-.346-.5a.749.749 0 0 0-.461-.153.749.749 0 0 0-.46.154c-.137.102-.257.269-.36.5-.093.23-.166.532-.217.908-.051.375-.077.832-.077 1.37 0 .563.026 1.032.077 1.408.051.375.124.678.218.908.102.222.222.38.358.474.137.094.29.14.461.14.17 0 .324-.046.46-.14.137-.094.252-.252.346-.474.103-.23.18-.533.23-.908.052-.376.078-.845.078-1.408zM68 94.677h25.984v1.063H68v-1.063z" fill="#B0243F"/></g></svg>