<svg width="150" height="150" fill="none" xmlns="http://www.w3.org/2000/svg"><path fill="#fff" d="M0 0h150v150H0z"/><path fill="#F6F7F8" d="M15 15h120v120H15z"/><mask id="a" style="mask-type:alpha" maskUnits="userSpaceOnUse" x="15" y="15" width="120" height="120"><path fill="#F6F7F8" d="M15 15h120v120H15z"/></mask><g mask="url(#a)"><path d="M84.44 102.69c0 .273-.038.516-.115.729-.069.214-.17.401-.307.563a2.118 2.118 0 0 1-.461.41c-.17.119-.359.222-.563.307v.026c.213.06.418.141.614.243.205.102.38.235.525.397.153.153.273.345.358.576.094.23.141.499.141.806 0 .359-.064.687-.192.986-.12.29-.299.542-.538.755-.239.213-.529.38-.87.499a3.76 3.76 0 0 1-1.165.167c-.35 0-.661-.043-.934-.128a3.782 3.782 0 0 1-.691-.295 2.69 2.69 0 0 1-.461-.333 5.571 5.571 0 0 1-.256-.268l.653-1.204c.06.069.132.154.217.256.094.094.205.188.333.282.137.085.29.158.46.218.171.059.368.089.59.089.41 0 .716-.089.921-.269.213-.179.32-.431.32-.755 0-.418-.158-.734-.473-.947-.308-.213-.747-.32-1.319-.32h-.512l-.102-1.216h.32c.708 0 1.211-.124 1.51-.371.307-.256.461-.593.461-1.011a.996.996 0 0 0-.269-.717c-.179-.188-.448-.282-.806-.282-.197 0-.376.026-.538.077a2.04 2.04 0 0 0-.768.384 1.254 1.254 0 0 0-.217.192l-.59-1.075c.078-.077.184-.167.32-.269a2.39 2.39 0 0 1 .513-.307 3.513 3.513 0 0 1 1.6-.359c.708 0 1.267.192 1.677.576.41.384.614.913.614 1.588zm7.053 2.15c0 .742-.069 1.387-.205 1.933-.136.537-.328.985-.576 1.344a2.27 2.27 0 0 1-.883.781c-.341.17-.717.256-1.127.256a2.52 2.52 0 0 1-1.139-.256 2.448 2.448 0 0 1-.857-.794c-.24-.358-.423-.806-.55-1.344-.129-.546-.193-1.186-.193-1.92 0-.742.069-1.382.205-1.92.136-.546.324-.994.563-1.344.248-.358.542-.623.883-.794.342-.17.717-.256 1.127-.256.418 0 .798.09 1.139.269.341.171.632.435.87.794.24.35.423.798.55 1.344.129.537.193 1.173.193 1.907zm-1.651 0c0-.538-.026-.994-.077-1.37-.051-.375-.128-.678-.23-.908-.094-.231-.21-.397-.346-.5a.75.75 0 0 0-.461-.153.75.75 0 0 0-.46.153c-.137.103-.257.269-.36.5a3.83 3.83 0 0 0-.217.908 10.36 10.36 0 0 0-.077 1.37c0 .563.026 1.033.077 1.408.051.375.124.678.218.909.102.222.222.38.358.473.137.094.29.141.461.141.17 0 .324-.047.46-.141.137-.093.252-.251.346-.473.103-.231.18-.534.23-.909.052-.375.078-.845.078-1.408zm8.179 0c0 .742-.069 1.387-.205 1.933-.136.537-.329.985-.576 1.344a2.27 2.27 0 0 1-.883.781c-.341.17-.717.256-1.127.256a2.52 2.52 0 0 1-1.139-.256 2.448 2.448 0 0 1-.857-.794c-.24-.358-.423-.806-.55-1.344-.129-.546-.193-1.186-.193-1.92 0-.742.069-1.382.205-1.92.136-.546.324-.994.563-1.344.248-.358.542-.623.883-.794.342-.17.717-.256 1.127-.256.418 0 .798.09 1.139.269.341.171.632.435.87.794.24.35.423.798.55 1.344.129.537.193 1.173.193 1.907zm-1.651 0c0-.538-.026-.994-.077-1.37-.051-.375-.128-.678-.23-.908-.094-.231-.21-.397-.346-.5a.75.75 0 0 0-.461-.153.75.75 0 0 0-.46.153c-.137.103-.257.269-.36.5a3.83 3.83 0 0 0-.217.908 10.36 10.36 0 0 0-.077 1.37c0 .563.026 1.033.077 1.408.051.375.124.678.218.909.102.222.222.38.358.473.137.094.29.141.461.141.17 0 .324-.047.46-.141.137-.093.253-.251.346-.473.103-.231.18-.534.23-.909.052-.375.078-.845.078-1.408zm8.179 0c0 .742-.068 1.387-.205 1.933-.137.537-.329.985-.576 1.344-.239.35-.533.61-.883.781-.342.17-.717.256-1.127.256-.418 0-.797-.086-1.139-.256a2.45 2.45 0 0 1-.857-.794c-.24-.358-.423-.806-.55-1.344-.129-.546-.193-1.186-.193-1.92 0-.742.069-1.382.205-1.92.136-.546.324-.994.563-1.344.248-.358.542-.623.883-.794.342-.17.717-.256 1.127-.256.418 0 .798.09 1.139.269.341.171.631.435.87.794.239.35.423.798.551 1.344.128.537.192 1.173.192 1.907zm-1.651 0c0-.538-.026-.994-.077-1.37-.051-.375-.128-.678-.231-.908-.093-.231-.209-.397-.345-.5a.752.752 0 0 0-.461-.153.752.752 0 0 0-.461.153c-.136.103-.256.269-.358.5-.094.23-.167.533-.218.908a10.39 10.39 0 0 0-.077 1.37c0 .563.026 1.033.077 1.408.051.375.124.678.218.909.102.222.222.38.358.473.137.094.29.141.461.141a.795.795 0 0 0 .461-.141c.136-.093.252-.251.345-.473.103-.231.18-.534.231-.909.051-.375.077-.845.077-1.408zM79 110.677h25.984v1.062H79v-1.062z" fill="#B0243F"/><path fill="#C4C4C4" fill-opacity=".3" stroke="#B8BDC3" stroke-width=".1" d="M44.151 42.92l28.487 4.996-6.904 39.368-28.487-4.996z"/><path fill="#C4C4C4" d="M73.899 41.013l28.586 5.013-8.126 46.331-28.585-5.013z"/><path fill="#C4C4C4" fill-opacity=".3" stroke="#B8BDC3" stroke-width=".1" d="M98.894 61.365l5.434.953-5.4 30.789-5.434-.953zM105.48 56.33l22.955 4.026-6.453 36.794-22.955-4.026zM110.075 95.164l22.955 4.026-1.037 5.908-22.954-4.026zM128.533 60.374l38.63 6.775-6.454 36.794-38.629-6.775zM81.713 155.532l-30.735-5.39 6.904-39.368 30.735 5.39zM148.804 164.645l-24.767-4.343 6.453-36.795 24.767 4.344zM51.33 147.55l-24.767-4.343 6.453-36.795 24.767 4.344zM74.71 113.623l-24.767-4.343 1.036-5.908 24.767 4.343zM123.938 160.285l-41.676-7.309 6.453-36.794 41.676 7.309z"/><path d="M8.5 139C8.5 138.6 29 21.5 29 21.5L162 42" stroke="#B0243F" stroke-width="2"/></g></svg>