<svg width="230" height="218" fill="none" xmlns="http://www.w3.org/2000/svg">
    <path d="M90.062 105.543s6.19 6.209 6.74 9.709l-5.386 3.01-6.215-10.571-3.278-14.11a2.381 2.381 0 0 1-.64-1.081 2.328 2.328 0 0 1 .006-1.247c.115-.407.34-.778.65-1.075a2.49 2.49 0 0 1 1.119-.612c.422-.105.865-.1 1.284.016.42.115.8.335 1.103.64.303.303.517.68.622 1.09.105.41.096.84-.026 1.246l4.02 12.985zM147.474 90.658c-.107-.41-.1-.84.021-1.247.12-.406.349-.775.663-1.067a2.49 2.49 0 0 1 1.126-.6c.424-.1.867-.09 1.284.03.418.12.796.346 1.095.653.299.307.509.686.609 1.098.099.411.085.841-.042 1.246-.127.404-.362.769-.681 1.057l-3.815 13.982-6.615 10.34-5.266-3.202c.683-3.478 7.106-9.459 7.106-9.459l4.515-12.831z"
          fill="#FFB6B6"/>
    <path d="M224.64 24.04a236.475 236.475 0 0 0-4.605-1.961c-.223-.091-.446-.186-.669-.277l-.027-.013a268.397 268.397 0 0 0-4.012-1.629c-.937-.372-1.87-.74-2.807-1.1a49.124 49.124 0 0 0-1.102-.424c-.594-.23-1.192-.455-1.785-.68-.491-.186-.987-.368-1.477-.55-.567-.212-1.134-.416-1.696-.624-.67-.242-1.338-.482-2.004-.719a.041.041 0 0 0-.022-.004 284.462 284.462 0 0 0-21.983-6.843l-.736-.195-1.272-.338c-.75-.195-1.502-.385-2.258-.572-.71-.182-1.424-.355-2.138-.528-.629-.152-1.258-.303-1.892-.45-.62-.148-1.24-.29-1.865-.43a246.807 246.807 0 0 0-5.574-1.203.127.127 0 0 0-.04-.005 72.842 72.842 0 0 0-1.334-.272 258.833 258.833 0 0 0-21.483-3.335h-.009c-.058-.009-.121-.013-.179-.018-.562-.065-1.124-.125-1.687-.181-.74-.078-1.477-.152-2.218-.221a216.664 216.664 0 0 0-6.568-.533c-.505-.039-1.009-.07-1.509-.1a92.665 92.665 0 0 0-1.553-.09c-.196-.014-.388-.022-.58-.03-.241-.018-.486-.027-.727-.04l-1.085-.052a240.81 240.81 0 0 0-20.47-.078c-.374.013-.749.03-1.129.048h-.013c-.272.013-.544.021-.821.034a316.023 316.023 0 0 0-4.467.251L99.501.97l-.888.065c-1.866.138-3.731.298-5.583.48a243.717 243.717 0 0 0-2.874.295A248.157 248.157 0 0 0 68.334 5.2c-.009 0-.018.004-.027.004-.067.013-.138.026-.205.044-.464.09-.933.186-1.397.285-.513.104-1.022.213-1.535.32-.428.092-.857.187-1.285.282A248.096 248.096 0 0 0 54.7 8.332c-.464.122-.933.243-1.401.368a267.136 267.136 0 0 0-22.71 7.103.11.11 0 0 0-.036.009c-1.352.49-2.712.992-4.079 1.507l-1.495.572c-.482.186-.968.372-1.45.563-.424.164-.844.329-1.268.498l-1.013.403c-1.16.467-2.319.94-3.476 1.42-.7.295-1.406.59-2.106.888-.228.095-.46.19-.688.29a286.727 286.727 0 0 0-4.694 2.058 9 9 0 0 0-3.83 3.239 8.62 8.62 0 0 0-1.436 4.73v15.284c0 1.361.327 2.704.955 3.922a8.833 8.833 0 0 0 2.662 3.093 9.172 9.172 0 0 0 3.808 1.61c1.38.242 2.8.168 4.146-.215l2-.571c.557-.16 1.12-.317 1.678-.472l1.83-.507c1.396-.377 2.802-.754 4.207-1.117l1.968-.507c1.031-.264 2.062-.52 3.093-.776l.857-.207a382.24 382.24 0 0 1 13.463-3.023c.46-.096.92-.187 1.375-.278 1.879-.38 3.747-.742 5.605-1.082l1.339-.247h.013c.437-.083.875-.16 1.312-.238 1.223-.217 2.453-.428 3.69-.633.71-.121 1.424-.238 2.138-.35.072-.013.143-.026.214-.035a309.128 309.128 0 0 1 6.23-.944 353.214 353.214 0 0 1 22.599-2.49 350.24 350.24 0 0 1 8.595-.567c2.829-.148 5.667-.265 8.492-.347 6.783-.204 13.66-.204 20.438 0 2.83.082 5.668.199 8.497.346 2.29.121 4.574.269 6.841.433.585.043 1.17.087 1.754.134 6.752.52 13.629 1.256 20.448 2.188.325.043.647.09.973.134.116.017.227.03.343.047.496.07.991.143 1.486.213 1.861.268 3.721.553 5.578.853.478.073.955.151 1.428.23 1.022.168 2.04.34 3.053.515l1.758.312c.371.064.745.13 1.116.199.45.082.901.164 1.347.247.737.134 1.473.273 2.214.416.464.09.933.177 1.401.272a376.54 376.54 0 0 1 16.623 3.643l.21.052c.54.13 1.08.264 1.62.398.772.19 1.545.386 2.32.585.656.164 1.312.333 1.968.507a356.404 356.404 0 0 1 9.729 2.667h.009c.484.14.98.238 1.481.295a9.165 9.165 0 0 0 7.445-2.511A8.632 8.632 0 0 0 230 47.264V32.049a8.623 8.623 0 0 0-1.463-4.771 9 9 0 0 0-3.897-3.237z"
          fill="#004B76"/>
    <path d="M31.803 15.964a1.376 1.376 0 0 0-1.213-.16.106.106 0 0 0-.036.008c-1.352.49-2.712.992-4.079 1.507l-1.495.572c-.482.186-.968.373-1.45.563-.424.165-.844.33-1.268.498l-1.013.403c-1.16.468-2.319.941-3.476 1.42-.7.295-1.406.59-2.106.888a1.357 1.357 0 0 0-.598.49 1.299 1.299 0 0 0-.223.727v31.517c-.001.208.048.413.145.599.096.186.236.347.408.47.11.079.23.141.357.187.27.092.561.098.834.017l1.995-.571 1.674-.468c.611-.17 1.222-.338 1.838-.507a425.574 425.574 0 0 1 6.176-1.624c1.031-.264 2.062-.52 3.093-.775a1.39 1.39 0 0 0 .665-.381l.005-.005c.229-.244.356-.562.356-.892V17.055c0-.215-.053-.426-.156-.616a1.34 1.34 0 0 0-.433-.475zM69.44 5.474a1.378 1.378 0 0 0-1.107-.273c-.008 0-.017.004-.026.004-.067.013-.138.026-.205.043-.464.091-.933.187-1.397.286-.513.104-1.022.213-1.535.32-.428.092-.857.187-1.285.282-1.009.221-2.022.446-3.03.685-2.058.476-4.109.98-6.154 1.511-.429.108-.862.221-1.29.334a1.106 1.106 0 0 0-.12.039c-.26.095-.485.265-.644.487a1.306 1.306 0 0 0-.244.756v35.64c-.001.194.043.386.128.562a1.323 1.323 0 0 0 .715.659 1.409 1.409 0 0 0 .758.078h.014c.437-.083.875-.16 1.312-.239a335.02 335.02 0 0 1 3.69-.632 169.72 169.72 0 0 1 2.352-.385 309.128 309.128 0 0 1 6.23-.944c.393-.061.785-.113 1.178-.17a1.355 1.355 0 0 0 1.046-.76c.08-.172.123-.358.123-.547V6.504c0-.197-.045-.393-.133-.571a1.329 1.329 0 0 0-.375-.46zM107.082.96a1.4 1.4 0 0 0-.937-.367h-.067c-.254.013-.513.021-.767.034l-.299.013a316.096 316.096 0 0 0-4.168.239l-1.343.09-.889.065c-1.865.14-3.73.3-5.582.481-.62.06-1.236.121-1.852.186-.336.036-.646.19-.87.434-.226.244-.35.56-.349.887v37.762c0 .182.039.362.114.528.075.166.186.316.324.438.083.076.176.142.276.195.2.105.424.16.652.16.031 0 .067-.004.103-.004l.526-.039a350.963 350.963 0 0 1 14.231-.75 1.347 1.347 0 0 0 1.169-.707c.101-.19.153-.4.152-.613V1.922a1.277 1.277 0 0 0-.109-.523 1.313 1.313 0 0 0-.315-.438zM143.858 1.888h-.009c-.058-.01-.12-.013-.178-.018-.562-.065-1.125-.125-1.687-.182-.741-.078-1.477-.151-2.218-.22a217.09 217.09 0 0 0-6.569-.533c-.504-.04-1.008-.07-1.508-.1a93.291 93.291 0 0 0-1.553-.09c-.196-.014-.388-.022-.58-.031-.205-.013-.406-.026-.607-.035a1.355 1.355 0 0 0-1.009.36 1.335 1.335 0 0 0-.317.44 1.275 1.275 0 0 0-.111.525v37.988a1.292 1.292 0 0 0 .585 1.087c.215.148.472.23.736.234a351.939 351.939 0 0 1 14.231.75l.527.038c.035 0 .067.004.102.004a1.362 1.362 0 0 0 1.251-.794c.075-.166.114-.345.115-.527V3.204a1.309 1.309 0 0 0-.345-.878 1.385 1.385 0 0 0-.856-.438zM181.715 9.021a.984.984 0 0 0-.107-.034c-.388-.104-.776-.204-1.164-.304-.75-.195-1.503-.385-2.259-.571-.709-.182-1.423-.355-2.137-.529a244.902 244.902 0 0 0-3.758-.879 246.671 246.671 0 0 0-5.573-1.204.13.13 0 0 0-.041-.004 1.383 1.383 0 0 0-1.097.273 1.29 1.29 0 0 0-.509 1.03V43.21a1.287 1.287 0 0 0 .473.996c.195.169.437.277.696.312.116.017.228.03.344.048a332.859 332.859 0 0 1 7.064 1.066c.478.073.955.15 1.428.229 1.022.169 2.039.34 3.052.515l1.759.312c.37.065.745.13 1.115.199a1.39 1.39 0 0 0 .772-.078 1.327 1.327 0 0 0 .716-.66 1.29 1.29 0 0 0 .128-.561v-35.32a1.302 1.302 0 0 0-.249-.76 1.364 1.364 0 0 0-.653-.487zM219.366 21.802l-.027-.014a261 261 0 0 0-4.012-1.628c-.937-.372-1.869-.74-2.806-1.1a47.404 47.404 0 0 0-1.103-.424c-.593-.23-1.191-.455-1.785-.68-.491-.187-.986-.369-1.477-.55-.567-.213-1.133-.416-1.696-.624-.669-.243-1.337-.482-2.003-.719a.044.044 0 0 0-.023-.004 1.365 1.365 0 0 0-1.652.638c-.102.19-.155.4-.155.613v33.137a1.29 1.29 0 0 0 .357.892l.004.004c.18.187.41.32.665.381.255.061.509.126.763.19.772.191 1.546.386 2.321.586.656.164 1.312.333 1.968.506a356.402 356.402 0 0 1 9.728 2.668h.009a1.387 1.387 0 0 0 .821-.022 1.342 1.342 0 0 0 .763-.658c.095-.185.144-.39.143-.597V23.01a1.294 1.294 0 0 0-.217-.72 1.354 1.354 0 0 0-.586-.488z"
          fill="#97CCB4"/>
    <path d="M18.62 55.124c5.811 3.8 11.88 7.218 17.994 10.533 6.542 3.547 13.152 6.973 19.695 10.517 6.582 3.566 13.106 7.247 19.399 11.279a133.515 133.515 0 0 1 17.3 12.924c5.108 4.59 9.736 9.718 13.373 15.494.434.689.853 1.386 1.258 2.091.42.73 1.577.076 1.156-.656a71.575 71.575 0 0 0-12.809-15.969 124.116 124.116 0 0 0-17.023-13.324c-6.252-4.153-12.77-7.917-19.362-11.535-6.574-3.607-13.233-7.064-19.84-10.61-6.22-3.34-12.41-6.75-18.368-10.517a160.7 160.7 0 0 1-2.097-1.349c-.717-.468-1.387.657-.676 1.122z"
          fill="#3F3D56"/>
    <path d="M41.207 39.877a96.68 96.68 0 0 0 10.209 17.297 204.134 204.134 0 0 0 13.13 15.994c4.653 5.202 9.445 10.284 14.131 15.457 4.633 5.114 9.176 10.319 13.324 15.815a103.29 103.29 0 0 1 10.676 17.088c.361.746.71 1.497 1.047 2.254.342.765 1.496.104 1.156-.656a96.623 96.623 0 0 0-10.208-17.297A204.11 204.11 0 0 0 81.54 89.835c-4.652-5.202-9.444-10.284-14.13-15.457-4.633-5.114-9.176-10.319-13.324-15.815A103.287 103.287 0 0 1 43.41 41.475a77.805 77.805 0 0 1-1.047-2.254c-.342-.765-1.496-.104-1.156.656zM204.858 47.625a167.07 167.07 0 0 1-16.19 13.21c-5.891 4.303-11.941 8.394-17.962 12.522-6.01 4.122-12 8.28-17.771 12.716a136.477 136.477 0 0 0-15.644 13.762c-4.522 4.731-8.574 9.941-11.612 15.697a55.404 55.404 0 0 0-1.05 2.097c-.359.755.795 1.415 1.156.656a65.743 65.743 0 0 1 10.924-15.893 125.063 125.063 0 0 1 15.224-13.885c5.673-4.47 11.599-8.627 17.558-12.728 6.025-4.147 12.097-8.232 18.031-12.502a188.225 188.225 0 0 0 16.456-13.045 119.05 119.05 0 0 0 1.827-1.688c.619-.584-.328-1.502-.947-.919z"
          fill="#3F3D56"/>
    <path d="M191.059 35.665a96.694 96.694 0 0 1-10.208 17.297 202.443 202.443 0 0 1-13.147 15.982c-4.657 5.198-9.449 10.28-14.132 15.456-4.63 5.117-9.159 10.331-13.307 15.828a103.21 103.21 0 0 0-10.676 17.088 79.2 79.2 0 0 0-1.047 2.253c-.339.76.814 1.422 1.156.656a96.727 96.727 0 0 1 10.208-17.297 202.456 202.456 0 0 1 13.147-15.982c4.657-5.198 9.449-10.28 14.132-15.456 4.63-5.117 9.159-10.331 13.307-15.828a103.241 103.241 0 0 0 10.676-17.088 78.46 78.46 0 0 0 1.047-2.253c.339-.76-.814-1.422-1.156-.656z"
          fill="#3F3D56"/>
    <path d="M92.228 200.63l.844 2.841 11.693-1.807-1.246-4.193-11.291 3.159z" fill="#FFB6B6"/>
    <path d="M89.144 201.384l2.595 8.737.114-.032a3.63 3.63 0 0 0 2.181-1.689c.468-.822.58-1.79.313-2.692l.773-1.945-2.132-2.628-.226-.763-3.618 1.012z"
          fill="#2F2E41"/>
    <path d="M142.433 214.585l2.973-.649-1.162-11.435-4.388.957 2.577 11.127z" fill="#FFB6B6"/>
    <path d="M142.158 217.824l9.14-1.993-.026-.112a3.544 3.544 0 0 0-1.607-2.215 3.739 3.739 0 0 0-2.75-.462l-1.954-.865-2.831 1.908-.798.174.826 3.565zM133.334 153.338l13.46 53.6-6.584.566-7.295-17.938-11.261-21.113 1.018 24.098-20.952 11.892-4.924-6.546 16.75-8.743-7.317-31.892 1.948-3.924h25.157z"
          fill="#2F2E41"/>
    <path d="M106.367 158.032c-2.182-2.965 1.855-7.846 2.35-8.879a2.66 2.66 0 0 1-1.425-1.067 2.535 2.535 0 0 1-.404-1.702l.213-1.76.223-1.727-1.594-1.546-.004-.038-.917-7.787-1.333-5.172a11.029 11.029 0 0 1 .124-5.938 11.302 11.302 0 0 1 3.196-5.065l3.082-.475 3.745-3.502h6.04l2.071 1.92c3.865.658 4.53.443 7.85 4.31l-1.509 12.023-.376 1.654.001 2.244.957 1.032c.345.372.595.817.731 1.299.137.482.155.989.054 1.479l-.126.611c.987.411 1.929 7.706 2.154 8.725l.336 1.522c.288.368 2.185 2.824 2.185 3.495 0 .101-.076.199-.241.307-1.293.85-12.616 3.1-15.78 1.871-3.371-1.308-11.603 2.166-11.603 2.166z"
          fill="#F6F7F8"/>
    <path d="M94.265 122.357l2.656 3.152c1 1.186 2.23 2.169 3.623 2.892a12.252 12.252 0 0 0 4.489 1.32 5.382 5.382 0 0 0 2.829-.513 5.182 5.182 0 0 0 2.124-1.885 4.95 4.95 0 0 0 .649-3.672 5.071 5.071 0 0 0-2.109-3.113c-3.29-2.244-5.084-5.721-7.671-4.594l-.556-1.326-7.292-5.718-5.977 4.977 7.235 8.48zM145.67 111.926l-5.782-5.189-4.51 2.787-.607 1.305c-2.541-1.22-7.463 4.855-10.837 6.979a5.091 5.091 0 0 0-2.226 3.035 4.943 4.943 0 0 0 .508 3.693 5.17 5.17 0 0 0 2.05 1.96 5.37 5.37 0 0 0 2.808.614 12.256 12.256 0 0 0 4.537-1.157 11.948 11.948 0 0 0 3.731-2.759l2.774-3.054 7.554-8.214z"
          fill="#F6F7F8"/>
    <path d="M116.236 111.682c3.704 0 6.707-2.914 6.707-6.51 0-3.595-3.003-6.51-6.707-6.51-3.704 0-6.707 2.915-6.707 6.51 0 3.596 3.003 6.51 6.707 6.51z"
          fill="#FFB6B6"/>
    <path d="M111.368 109.761c-.059-.05-.114-.103-.171-.155l-.004.016.175.139z" fill="#2F2E41"/>
    <path d="M122.532 102.731c-.036-.022-.067-.044-.103-.061a2.498 2.498 0 0 0-1.548-.507c-.536.065-.978.438-1.491.585-1.102.312-2.213-.45-3.356-.528h-.026a2.833 2.833 0 0 0-2.011.668 2.69 2.69 0 0 0-.657.836 2.625 2.625 0 0 0-.278 1.016c-.022.36.027.719-.018 1.074-.012.18-.07.355-.168.508a1.125 1.125 0 0 1-.394.372c-.504.22-1.183-.109-1.611.233-.379.308-.241.906-.013 1.334.265.362.396.8.37 1.243a.892.892 0 0 1-.031.104 9.784 9.784 0 0 1-2.406-3.326 9.526 9.526 0 0 1-.807-3.989 3.749 3.749 0 0 1 .375-1.749 1.84 1.84 0 0 1 .583-.688c.25-.18.542-.296.849-.339.527-.043 1.071.186 1.571.022.616-.2.875-.888 1.196-1.442a4.235 4.235 0 0 1 1.665-1.568 4.398 4.398 0 0 1 2.262-.498 8.741 8.741 0 0 1 1.669.325l1.062.281c.405.093.799.228 1.174.403a3.77 3.77 0 0 1 1.343 1.26c.283.42.506.874.665 1.351-.588.03-1.178.01-1.763-.06l2.013 1.208c.079.646.04 1.3-.116 1.932z"
          fill="#2F2E41"/>
    <path d="M191.265 133.775c-.919-2.988-3.516-4.941-6.658-5.37-.036-.004-.067.004-.103 0a1 1 0 0 0-.134-.03 20.31 20.31 0 0 0-12.771 2.698c-3.682 2.23-7.971 3.239-12.308 3.404a7.995 7.995 0 0 0-4.484 1.676 7.614 7.614 0 0 0-2.621 3.824.867.867 0 0 0 .04.555.9.9 0 0 0 .371.424 4.038 4.038 0 0 0 1.66.819c1.321.273 2.651.52 3.981.749 2.592.438 5.207.793 7.827 1.065 5.324.556 10.682.753 16.034.59 1.781-.052 3.499-.109 5.132-.875a7.573 7.573 0 0 0 2.95-2.495 8.276 8.276 0 0 0 1.344-3.4 8.189 8.189 0 0 0-.26-3.634zM50.248 98.261c-.92-2.988-3.517-4.941-6.659-5.37-.035-.005-.067.004-.102 0a1.194 1.194 0 0 0-.134-.03 20.318 20.318 0 0 0-12.772 2.698c-3.682 2.23-7.97 3.24-12.308 3.404a7.999 7.999 0 0 0-4.484 1.675 7.62 7.62 0 0 0-2.62 3.825.867.867 0 0 0 .04.555.898.898 0 0 0 .37.424 4.04 4.04 0 0 0 1.66.819c1.321.272 2.651.519 3.98.749 2.594.437 5.209.792 7.828 1.065 5.325.556 10.682.753 16.034.589 1.78-.052 3.499-.108 5.132-.875a7.562 7.562 0 0 0 2.95-2.494 8.277 8.277 0 0 0 1.344-3.4 8.19 8.19 0 0 0-.26-3.634z"
          fill="#B3C9D6"/>
    <g opacity=".2" fill="#000">
        <path d="M0 48.79c.132-.17.27-.333.404-.5l.007-.066L0 48.79zM229.093 50.576a8.638 8.638 0 0 1-3.681 4.07 9.035 9.035 0 0 1-6.918.82 373.828 373.828 0 0 0-15.645-4.158 371.937 371.937 0 0 0-20.457-4.388 361.252 361.252 0 0 0-17.096-2.75 354.477 354.477 0 0 0-37.561-3.105 342.483 342.483 0 0 0-20.452 0c-5.699.165-11.4.47-17.101.914a351.13 351.13 0 0 0-20.457 2.191 369.941 369.941 0 0 0-37.557 7.138 383.882 383.882 0 0 0-15.64 4.157 9.205 9.205 0 0 1-1.456.29 9.062 9.062 0 0 1-3.672-.337 8.88 8.88 0 0 1-3.207-1.767 8.567 8.567 0 0 1-2.18-2.888 8.334 8.334 0 0 1-.772-3.5V43.26C15.304 34.43 29.54 30.337 43.267 28.942c16.324-1.658 32.911-.242 49.146-2.594 13.236-1.918 26.387-6.34 39.677-4.803 11.58 1.334 22.134 7.094 33.554 9.398 14.325 2.89 29.449.234 43.644 3.669 5.565 1.342 11.018 3.703 14.994 7.709a18.674 18.674 0 0 1 4.811 8.255z"/>
    </g>
    <path d="M122.998 113.206c-.317-.905-1.541-1.076-2.526-1.074a86.16 86.16 0 0 0-6.585.272l.22-.246a3.366 3.366 0 0 0-1.846-.201c-.605.167-1.102.84-.829 1.39.205.412.779.675.738 1.131-.07.773-1.611.516-1.851 1.256a.726.726 0 0 0 .338.773c.267.153.566.245.875.269 3.262.46 6.59.043 9.625-1.204a4.037 4.037 0 0 0 1.42-.861c.2-.192.345-.433.419-.697.074-.264.075-.543.002-.808z"
          fill="#F6F7F8"/>
</svg>