<svg width="120" height="115" viewBox="0 0 120 115" fill="none" xmlns="http://www.w3.org/2000/svg">
    <path d="M69.44 82.69c0 .273-.038.516-.115.73-.069.212-.17.4-.307.562a2.14 2.14 0 0 1-.461.41c-.17.12-.359.222-.563.307v.026c.213.06.418.14.614.243.205.102.38.235.525.397.153.153.273.345.358.576.094.23.141.499.141.806 0 .359-.064.687-.192.986a2.05 2.05 0 0 1-.538.755c-.239.213-.529.38-.87.5-.341.11-.73.166-1.165.166-.35 0-.661-.043-.934-.128a3.741 3.741 0 0 1-.691-.295 2.69 2.69 0 0 1-.461-.333 5.698 5.698 0 0 1-.256-.268l.653-1.204c.06.069.132.154.217.256.094.094.205.188.333.282.137.085.29.158.46.218.171.06.368.09.59.09.41 0 .716-.09.921-.27.213-.179.32-.43.32-.755 0-.418-.158-.734-.473-.947-.308-.213-.747-.32-1.319-.32h-.512l-.102-1.216h.32c.708 0 1.211-.124 1.51-.371.307-.256.461-.593.461-1.011 0-.29-.09-.53-.269-.717-.179-.188-.448-.282-.806-.282-.197 0-.376.026-.538.077a2.01 2.01 0 0 0-.768.384 1.28 1.28 0 0 0-.217.192l-.59-1.075a3.17 3.17 0 0 1 .32-.269 2.39 2.39 0 0 1 .513-.307 3.57 3.57 0 0 1 .704-.256 3.59 3.59 0 0 1 .896-.103c.708 0 1.267.192 1.677.576.41.384.614.913.614 1.588Zm7.053 2.15c0 .742-.069 1.387-.205 1.933-.136.537-.328.985-.576 1.344-.239.35-.533.61-.883.78a2.48 2.48 0 0 1-1.127.257c-.418 0-.797-.086-1.139-.256a2.44 2.44 0 0 1-.857-.794c-.24-.358-.423-.806-.55-1.344-.129-.546-.193-1.186-.193-1.92 0-.742.069-1.382.205-1.92.136-.546.324-.994.563-1.344a2.37 2.37 0 0 1 .883-.794c.342-.17.717-.256 1.127-.256.418 0 .798.09 1.139.27.341.17.632.434.87.793.24.35.423.798.55 1.344.129.537.193 1.173.193 1.907Zm-1.651 0c0-.538-.026-.994-.077-1.37-.051-.375-.128-.678-.23-.908-.094-.23-.21-.397-.346-.5a.749.749 0 0 0-.461-.153.749.749 0 0 0-.46.153c-.137.103-.257.27-.36.5-.093.23-.166.533-.217.908a10.39 10.39 0 0 0-.077 1.37c0 .563.026 1.032.077 1.408.051.376.124.678.218.909.102.222.222.38.358.473.137.094.29.141.461.141.17 0 .324-.047.46-.14.137-.094.252-.252.346-.474.103-.23.18-.533.23-.909.052-.376.078-.845.078-1.408Zm8.179 0c0 .742-.069 1.387-.205 1.933-.136.537-.329.985-.576 1.344-.239.35-.533.61-.883.78a2.48 2.48 0 0 1-1.127.257c-.418 0-.797-.086-1.139-.256a2.44 2.44 0 0 1-.857-.794c-.24-.358-.423-.806-.55-1.344-.129-.546-.193-1.186-.193-1.92 0-.742.069-1.382.205-1.92.136-.546.324-.994.563-1.344a2.37 2.37 0 0 1 .883-.794c.342-.17.717-.256 1.127-.256.418 0 .798.09 1.139.27.341.17.632.434.87.793.24.35.423.798.55 1.344.129.537.193 1.173.193 1.907Zm-1.651 0c0-.538-.026-.994-.077-1.37-.051-.375-.128-.678-.23-.908-.094-.23-.21-.397-.346-.5a.749.749 0 0 0-.461-.153.749.749 0 0 0-.46.153c-.137.103-.257.27-.36.5-.093.23-.166.533-.217.908a10.39 10.39 0 0 0-.077 1.37c0 .563.026 1.032.077 1.408.051.376.124.678.218.909.102.222.222.38.358.473.137.094.29.141.461.141.17 0 .324-.047.46-.14.137-.094.253-.252.346-.474.103-.23.18-.533.23-.909.052-.376.078-.845.078-1.408Zm8.179 0c0 .742-.069 1.387-.205 1.933-.136.537-.328.985-.576 1.344-.239.35-.533.61-.883.78a2.483 2.483 0 0 1-1.127.257c-.418 0-.797-.086-1.139-.256a2.44 2.44 0 0 1-.857-.794c-.24-.358-.423-.806-.55-1.344-.129-.546-.193-1.186-.193-1.92 0-.742.069-1.382.205-1.92.136-.546.324-.994.563-1.344a2.37 2.37 0 0 1 .883-.794c.342-.17.717-.256 1.127-.256.418 0 .798.09 1.139.27.341.17.631.434.87.793.24.35.423.798.55 1.344.129.537.193 1.173.193 1.907Zm-1.651 0c0-.538-.026-.994-.077-1.37-.051-.375-.128-.678-.23-.908-.094-.23-.21-.397-.346-.5a.749.749 0 0 0-.461-.153.749.749 0 0 0-.46.153c-.137.103-.257.27-.36.5-.093.23-.166.533-.217.908a10.39 10.39 0 0 0-.077 1.37c0 .563.026 1.032.077 1.408.051.376.124.678.218.909.102.222.222.38.358.473.137.094.29.141.461.141.17 0 .324-.047.46-.14.137-.094.252-.252.346-.474.103-.23.18-.533.23-.909.052-.376.078-.845.078-1.408ZM64 90.677h25.984v1.062H64v-1.062Z"
          fill="#B0243F"/>
    <path fill="#C4C4C4" fill-opacity=".3" stroke="#B8BDC3" stroke-width=".1"
          d="m29.151 22.92 28.487 4.996-6.904 39.368-28.487-4.996z"/>
    <path fill="#C4C4C4" d="m58.899 21.013 28.586 5.013-8.126 46.331-28.585-5.013z"/>
    <path fill="#C4C4C4" fill-opacity=".3" stroke="#B8BDC3" stroke-width=".1"
          d="m90.48 36.33 22.955 4.026-6.453 36.794-22.955-4.026zm23.053 4.044 38.63 6.775-6.454 36.794-38.629-6.775zM36.33 127.55l-24.767-4.343 6.453-36.795 24.767 4.344zm23.38-33.926L34.943 89.28l1.036-5.908 24.767 4.344zm49.228 46.661-41.676-7.309 6.453-36.794 41.676 7.309z"/>
    <path d="M-6.5 119C-6.5 118.6 14 1.5 14 1.5L147 22" stroke="#B0243F" stroke-width="2"/>
</svg>