<svg width="436" height="316" viewBox="0 0 436 316" fill="none" xmlns="http://www.w3.org/2000/svg">
<path d="M194.462 0.0766723H247.813C290.808 0.0766723 314.582 6.67831 355.687 16.6457C382.899 23.2442 410.783 28.5355 436 38.0304V248.826C404.209 261.014 369.866 269.198 337.513 275.818C272.98 289.023 204.26 290.456 138.883 280.523C94.9143 273.842 45.4085 258.345 17.1722 226.418C0.524979 207.594 -2.15242 186.71 1.34277 163.721C5.49224 136.429 20.3539 112.375 37.4573 89.6721C56.5933 64.2717 77.4848 38.5564 105.993 20.5323C119.496 11.9949 134.153 4.56433 150.726 1.8154C165.024 -0.556348 179.986 0.0766723 194.462 0.0766723Z" fill="#B0D8C6"/>
<path d="M118.494 78.4465C116.387 79.2479 114.237 79.9272 112.052 80.4811C109.166 81.1835 107.537 81.5091 104.752 80.4295C104.654 80.3916 104.56 80.3541 104.472 80.3172C99.1931 78.0754 94.6801 74.349 91.4829 69.5918C88.2857 64.8346 86.5422 59.2517 86.4645 53.5228C86.4506 53.3262 86.4506 53.1196 86.4506 52.918C86.4479 51.9471 86.4943 50.9766 86.5898 50.0103C86.7119 48.6941 86.9227 47.3876 87.2208 46.0997L87.193 46.0947C84.938 43.7917 84.0703 40.637 84.358 37.4673C84.5551 35.3183 85.2379 33.242 86.3551 31.3949C87.4723 29.5478 88.9947 27.9781 90.8076 26.8039C93.6487 25.0199 96.8521 23.8906 100.185 23.4981C101.08 23.395 101.98 23.3429 102.881 23.3419H111.344C113.092 22.9331 114.868 22.6535 116.657 22.5053H116.671C133.704 21.0943 147.137 32.3724 145.884 46.0947C145.875 46.1098 145.861 46.1249 145.852 46.1401C145.49 46.7297 145.17 47.289 144.887 47.8232C144.613 48.3221 144.381 48.8008 144.182 49.2544C142.627 52.7618 150.014 107.179 147.365 108.006C145.857 108.474 139.778 67.9808 140.869 75.681C142.242 85.3415 126.341 75.5494 118.494 78.4465Z" fill="#2F2E41"/>
<path d="M144.153 176.818L167.765 227.057L76.936 217.869L95.8961 169.64L144.153 176.818Z" fill="#FFB6B6"/>
<path d="M191.552 277.545C175.758 282.796 159.113 285.023 142.491 284.108L135.263 272.401C135.263 272.401 134.961 276.761 134.509 283.427C126.597 282.511 118.788 280.857 111.184 278.488C96.7647 273.984 83.2478 267.006 69.5462 260.572C66.771 244.049 65.7297 218.571 81.0728 203.739L163.657 218.852C163.657 218.852 176.907 228.751 173.362 232.296C169.817 235.836 169.269 235.288 171.597 237.614C173.926 239.94 178.959 243.05 179.01 245.084C179.03 245.878 184.678 260.279 191.552 277.545Z" fill="#6693AD"/>
<path d="M129.733 79.7372L109.781 81.1274L96.8848 93.5731L92.3685 94.3782C88.3088 95.1011 84.6559 97.2868 82.1024 100.521C79.549 103.755 78.2725 107.812 78.515 111.923C79.444 127.643 81.524 151.131 85.8715 158.751C92.6126 170.567 98.1806 166.86 92.6126 170.567C87.0445 174.275 83.3064 171.362 85.8715 177.221C88.4366 183.08 82.4046 190.595 82.4046 190.595L80.0033 192.993L82.5501 194.036L163.701 204.582C163.701 204.582 156.684 173.072 161.072 165.332C165.461 157.592 176.1 134.194 166.605 125.039L157.32 92.4064L141.349 87.702L129.733 79.7372Z" fill="#004B76"/>
<path d="M250.512 209.061C249.177 209.019 247.866 208.687 246.672 208.09C245.478 207.492 244.428 206.642 243.594 205.599C242.761 204.556 242.165 203.345 241.846 202.049C241.528 200.754 241.495 199.404 241.75 198.094L203.684 172.347L208.226 160.08L253.214 190.991C255.389 191.584 257.271 192.953 258.503 194.839C259.736 196.725 260.232 198.997 259.899 201.225C259.566 203.452 258.426 205.48 256.696 206.924C254.966 208.369 252.766 209.129 250.512 209.061V209.061Z" fill="#FFB6B6"/>
<path d="M142.994 90.8651L137.462 93.0526L166.97 150.61L228.054 192.195L236.859 177.332L190.361 137.219L171.745 101.561C169.125 96.5432 164.737 92.6727 159.427 90.6973C154.117 88.7218 148.262 88.7816 142.994 90.8651Z" fill="#004B76"/>
<path d="M118.718 74.6751C129.783 74.6751 138.753 65.7166 138.753 54.6656C138.753 43.6146 129.783 34.6561 118.718 34.6561C107.653 34.6561 98.6836 43.6146 98.6836 54.6656C98.6836 65.7166 107.653 74.6751 118.718 74.6751Z" fill="#FFB6B6"/>
<path d="M136.141 46.2042C135.807 46.3803 135.477 46.5425 135.143 46.7046C134.795 46.8715 134.447 47.0383 134.094 47.1959C127.39 50.2313 121.928 50.5696 118.615 46.2042C118.525 43.9075 118.007 41.6478 117.089 39.5402C117.251 41.8954 116.63 44.2382 115.321 46.2042H108.649C101.777 50.7596 98.2504 54.9442 103.02 69.8988C103.331 70.8812 105.461 105.786 106.069 108.469C95.666 104.484 86.6922 62.1689 86.4648 51.0191C86.4509 50.8384 86.4509 50.6484 86.4509 50.463C86.4482 49.5698 86.4947 48.6771 86.5901 47.789C86.7126 46.5766 86.9235 45.3747 87.2212 44.1929L87.1933 44.1883C86.1349 43.1776 85.3274 41.9341 84.8352 40.5567C84.343 39.1793 84.1797 37.7061 84.3583 36.2546C86.1034 33.9724 88.263 32.0387 90.7244 30.5545C92.9625 29.4721 95.2953 28.5972 97.6936 27.9408C97.7539 27.9269 97.805 27.913 97.8653 27.8991C98.5984 27.6998 99.3501 27.5191 100.102 27.3615C101.651 27.0371 103.217 26.8004 104.793 26.6525C104.909 26.6479 105.02 26.6386 105.122 26.6386C105.753 26.639 106.371 26.8087 106.913 27.1298C106.918 27.1298 106.918 27.1345 106.927 27.1345C107.448 27.4453 107.88 27.8849 108.182 28.4108C108.483 28.9368 108.644 29.5314 108.649 30.1374H116.082C116.356 30.1374 116.629 30.1467 116.903 30.1606C127.255 30.573 135.575 34.9941 136.108 45.1568C136.131 45.509 136.141 45.852 136.141 46.2042Z" fill="#2F2E41"/>
<path d="M92.1931 47.0085C99.4827 47.0085 105.392 41.1066 105.392 33.8261C105.392 26.5457 99.4827 20.6437 92.1931 20.6437C84.9035 20.6437 78.9941 26.5457 78.9941 33.8261C78.9941 41.1066 84.9035 47.0085 92.1931 47.0085Z" fill="#2F2E41"/>
<path d="M110.314 27.7289C108.814 34.8537 101.416 39.1149 94.3387 37.3718C90.9399 36.5347 88.0133 34.3835 86.2026 31.3913C84.392 28.3991 83.8456 24.8111 84.6837 21.4166C86.429 14.3479 95.0185 16.3858 100.659 11.7738C108.638 5.24946 112.336 18.1207 110.314 27.7289Z" fill="#2F2E41"/>
<path d="M80.9875 226.054C92.2367 180.238 114.526 140.857 151.44 110.004C152.869 107.656 155.171 105.971 157.842 105.317C160.514 104.663 163.336 105.094 165.689 106.516L253.443 159.656C255.793 161.083 257.481 163.383 258.135 166.051C258.79 168.719 258.358 171.537 256.935 173.887C242.845 220.9 221.742 261.695 186.483 289.938C185.054 292.285 182.751 293.971 180.08 294.624C177.409 295.278 174.587 294.847 172.234 293.426L84.4798 240.285C82.1296 238.858 80.442 236.559 79.7873 233.891C79.1326 231.223 79.5643 228.405 80.9875 226.054V226.054Z" fill="#F2F2F2"/>
<path opacity="0.2" d="M96.5859 241.495C94.2357 240.068 92.5481 237.768 91.8935 235.1C91.2388 232.432 91.6705 229.614 93.0937 227.264C104.343 181.447 126.632 142.067 163.546 111.213C164.492 109.676 165.827 108.417 167.417 107.561L165.69 106.516C163.336 105.094 160.515 104.663 157.843 105.317C155.172 105.971 152.87 107.656 151.441 110.003C114.527 140.857 92.2377 180.237 80.9886 226.054C79.5653 228.404 79.1336 231.223 79.7883 233.89C80.443 236.558 82.1305 238.858 84.4807 240.285L172.234 293.425C173.796 294.364 175.579 294.874 177.401 294.902C179.224 294.931 181.022 294.478 182.613 293.589L96.5859 241.495Z" fill="black"/>
<path d="M199.499 215.897L140.594 180.449C139.658 179.885 138.985 178.972 138.723 177.912C138.46 176.852 138.63 175.731 139.194 174.795C139.758 173.86 140.671 173.187 141.732 172.923C142.794 172.659 143.916 172.827 144.853 173.39L203.758 208.837C204.691 209.403 205.362 210.316 205.623 211.375C205.884 212.434 205.715 213.553 205.151 214.487C204.587 215.421 203.676 216.094 202.617 216.359C201.557 216.623 200.436 216.457 199.499 215.897L199.499 215.897Z" fill="white"/>
<path d="M165.231 168.89L152.272 161.091C151.333 160.53 150.655 159.62 150.389 158.56C150.122 157.5 150.288 156.377 150.849 155.439C151.411 154.501 152.323 153.825 153.384 153.558C154.446 153.292 155.57 153.457 156.509 154.018L156.531 154.032L169.49 161.83C170.424 162.396 171.095 163.308 171.356 164.368C171.618 165.427 171.448 166.546 170.884 167.481C170.321 168.415 169.409 169.088 168.349 169.352C167.29 169.616 166.168 169.45 165.231 168.89V168.89Z" fill="white"/>
<path d="M190.136 231.415L131.231 195.967C130.295 195.404 129.62 194.492 129.356 193.432C129.092 192.372 129.26 191.251 129.823 190.314C130.387 189.378 131.299 188.703 132.36 188.439C133.421 188.174 134.544 188.341 135.482 188.902L135.49 188.908L194.395 224.355C195.328 224.921 195.999 225.833 196.26 226.893C196.522 227.952 196.352 229.071 195.788 230.005C195.225 230.939 194.313 231.612 193.254 231.876C192.194 232.141 191.073 231.975 190.136 231.415L190.136 231.415Z" fill="white"/>
<path d="M206.979 149.06C216.481 149.06 224.183 141.366 224.183 131.876C224.183 122.386 216.481 114.693 206.979 114.693C197.477 114.693 189.774 122.386 189.774 131.876C189.774 141.366 197.477 149.06 206.979 149.06Z" fill="#4E596A"/>
<path d="M177.322 316C197.631 316 214.095 299.557 214.095 279.273C214.095 258.99 197.631 242.547 177.322 242.547C157.013 242.547 140.55 258.99 140.55 279.273C140.55 299.557 157.013 316 177.322 316Z" fill="white"/>
<path d="M172.305 298.388C171.67 298.388 171.044 298.24 170.476 297.957C169.908 297.673 169.414 297.261 169.033 296.754L159.001 283.394C158.678 282.965 158.443 282.476 158.31 281.956C158.176 281.436 158.146 280.895 158.222 280.364C158.298 279.832 158.478 279.321 158.751 278.859C159.025 278.397 159.387 277.994 159.817 277.672C160.247 277.35 160.737 277.115 161.257 276.982C161.778 276.849 162.32 276.82 162.852 276.896C163.384 276.972 163.896 277.152 164.358 277.426C164.82 277.7 165.224 278.062 165.546 278.492L172.109 287.231L188.967 261.978C189.264 261.531 189.648 261.148 190.094 260.849C190.54 260.551 191.041 260.343 191.568 260.238C192.095 260.133 192.637 260.132 193.164 260.236C193.691 260.34 194.192 260.547 194.639 260.845C195.086 261.142 195.47 261.525 195.769 261.971C196.068 262.416 196.276 262.916 196.381 263.443C196.486 263.969 196.487 264.51 196.383 265.037C196.279 265.563 196.072 266.064 195.774 266.51L175.709 296.569C175.346 297.112 174.858 297.561 174.286 297.877C173.713 298.194 173.073 298.368 172.419 298.387C172.381 298.387 172.343 298.388 172.305 298.388Z" fill="#01854A"/>
<path d="M86.4601 226.539C85.149 226.003 83.9701 225.188 83.0052 224.152C82.0402 223.115 81.3122 221.882 80.8714 220.537C80.4306 219.192 80.2876 217.767 80.4523 216.362C80.617 214.956 81.0855 213.603 81.8253 212.396L53.5576 172.71L62.6261 162.202L95.855 209.583C97.7966 210.978 99.1585 213.035 99.6826 215.366C100.207 217.697 99.8565 220.138 98.6985 222.229C97.5405 224.319 95.655 225.912 93.3994 226.706C91.1438 227.501 88.6748 227.441 86.4602 226.539H86.4601Z" fill="#FFB6B6"/>
<path d="M87.1097 100.776C85.6796 99.9358 83.9964 99.6321 82.3623 99.9194C80.7282 100.207 79.2501 101.066 78.1933 102.344L40 155.693L75.3953 205.901L89.2456 191.043L67.7006 157.23L96.334 130.001C98.687 124.853 99.0464 119.017 97.3428 113.619C95.6392 108.222 91.9935 103.646 87.1097 100.776V100.776Z" fill="#004B76"/>
</svg>
