<svg width="430" height="351" viewBox="0 0 430 351" fill="none" xmlns="http://www.w3.org/2000/svg">
    <path d="M238.216 0.0937699H303.571C356.24 0.0937699 385.363 8.16755 435.717 20.3576C497.525 35.3205 562.162 44.7876 603.558 91.7189C627.863 119.275 650.394 151.832 652.825 187.347C654.945 218.324 637.59 243.833 611.099 263.524C556.83 303.86 481.544 323.414 413.453 337.324C334.4 353.474 250.219 355.227 170.132 343.078C116.27 334.908 55.6255 315.955 21.0359 276.908C0.6431 253.887 -2.63671 228.346 1.64489 200.231C6.728 166.852 24.9336 137.434 45.8852 109.669C69.3268 78.604 94.9189 47.1544 129.841 25.1109C146.383 14.6698 164.338 5.58216 184.639 2.22022C202.155 -0.680411 220.483 0.0937699 238.216 0.0937699Z"
          fill="#ECF1F4"/>
    <path d="M303.363 190.097H303.27L250.17 212.757L177.518 243.761C177.234 243.88 176.929 243.943 176.622 243.944C176.314 243.946 176.008 243.887 175.723 243.77L100.768 212.692L46.3627 190.134L46.2796 190.097H46.1871C45.3286 190.098 44.5056 190.439 43.8986 191.046C43.2916 191.652 42.9502 192.475 42.9492 193.333V333.861C42.9502 334.719 43.2916 335.541 43.8986 336.148C44.5056 336.755 45.3286 337.096 46.1871 337.097H303.363C304.221 337.096 305.044 336.755 305.651 336.148C306.258 335.541 306.6 334.719 306.601 333.861V193.333C306.6 192.475 306.258 191.652 305.651 191.046C305.044 190.439 304.221 190.098 303.363 190.097V190.097Z"
          fill="white"/>
    <mask id="path-3-outside-1_6712_409359" x="42.8438" y="98" width="263" height="96"
          fill="black">
        <rect fill="white" x="42.8438" y="98" width="263" height="96"/>
        <path d="M303.291 191.045C303.196 191.045 303.104 191.016 303.027 190.962L175.162 101.346C174.773 101.074 174.311 100.929 173.837 100.93C173.364 100.931 172.902 101.077 172.514 101.35L45.5703 190.961C45.4699 191.031 45.3458 191.059 45.2254 191.037C45.1049 191.016 44.9978 190.947 44.9276 190.846C44.8573 190.745 44.8296 190.621 44.8506 190.499C44.8715 190.378 44.9393 190.27 45.0392 190.199L171.983 100.588C172.526 100.206 173.173 100.001 173.836 100C174.499 99.9989 175.146 100.202 175.691 100.582L303.555 190.198C303.636 190.255 303.697 190.336 303.729 190.429C303.76 190.523 303.762 190.625 303.732 190.719C303.703 190.814 303.644 190.896 303.565 190.955C303.485 191.014 303.389 191.045 303.291 191.045H303.291Z"/>
    </mask>
    <path d="M303.291 191.045C303.196 191.045 303.104 191.016 303.027 190.962L175.162 101.346C174.773 101.074 174.311 100.929 173.837 100.93C173.364 100.931 172.902 101.077 172.514 101.35L45.5703 190.961C45.4699 191.031 45.3458 191.059 45.2254 191.037C45.1049 191.016 44.9978 190.947 44.9276 190.846C44.8573 190.745 44.8296 190.621 44.8506 190.499C44.8715 190.378 44.9393 190.27 45.0392 190.199L171.983 100.588C172.526 100.206 173.173 100.001 173.836 100C174.499 99.9989 175.146 100.202 175.691 100.582L303.555 190.198C303.636 190.255 303.697 190.336 303.729 190.429C303.76 190.523 303.762 190.625 303.732 190.719C303.703 190.814 303.644 190.896 303.565 190.955C303.485 191.014 303.389 191.045 303.291 191.045H303.291Z"
          fill="white"/>
    <path d="M303.291 191.045L303.292 193.045L303.291 189.045V191.045ZM303.027 190.962L304.176 189.325L304.175 189.324L303.027 190.962ZM175.162 101.346L176.31 99.7078L176.307 99.7053L175.162 101.346ZM172.514 101.35L171.364 99.7138L171.36 99.7162L172.514 101.35ZM45.5703 190.961L46.7176 192.599L46.7237 192.595L45.5703 190.961ZM45.0392 190.199L43.8858 188.565L43.8798 188.569L45.0392 190.199ZM171.983 100.588L170.833 98.9517L170.829 98.9543L171.983 100.588ZM175.691 100.582L176.839 98.9443L176.835 98.9418L175.691 100.582ZM303.555 190.198L304.704 188.561L304.703 188.56L303.555 190.198ZM303.291 191.045V189.045L303.29 193.045L303.291 191.045ZM303.29 189.045C303.608 189.045 303.917 189.143 304.176 189.325L301.878 192.599C302.292 192.889 302.785 193.045 303.292 193.045L303.29 189.045ZM304.175 189.324L176.31 99.7078L174.014 102.983L301.879 192.6L304.175 189.324ZM176.307 99.7053C175.582 99.1996 174.719 98.9284 173.834 98.9299L173.841 102.93C173.903 102.93 173.965 102.949 174.018 102.986L176.307 99.7053ZM173.834 98.9299C172.949 98.9314 172.087 99.2055 171.364 99.7138L173.664 102.987C173.717 102.949 173.779 102.93 173.841 102.93L173.834 98.9299ZM171.36 99.7162L44.4169 189.327L46.7237 192.595L173.667 102.984L171.36 99.7162ZM44.423 189.323C44.7573 189.089 45.1724 188.996 45.5769 189.068L44.8738 193.006C45.5192 193.121 46.1825 192.974 46.7176 192.599L44.423 189.323ZM45.5769 189.068C45.9812 189.14 46.3368 189.37 46.5684 189.703L43.2867 191.99C43.6588 192.523 44.2286 192.891 44.8738 193.006L45.5769 189.068ZM46.5684 189.703C46.8 190.035 46.8897 190.443 46.8215 190.839L42.8797 190.159C42.7695 190.798 42.9147 191.456 43.2867 191.99L46.5684 189.703ZM46.8215 190.839C46.7531 191.235 46.531 191.592 46.1986 191.829L43.8798 188.569C43.3476 188.948 42.9899 189.521 42.8797 190.159L46.8215 190.839ZM46.1926 191.833L173.136 102.222L170.829 98.9543L43.8858 188.565L46.1926 191.833ZM173.133 102.225C173.341 102.078 173.588 102 173.839 102L173.833 98C172.758 98.0018 171.712 98.3345 170.833 98.9517L173.133 102.225ZM173.839 102C174.091 102 174.338 102.077 174.547 102.222L176.835 98.9418C175.955 98.3275 174.907 97.9982 173.833 98L173.839 102ZM174.543 102.22L302.407 191.836L304.703 188.56L176.839 98.9443L174.543 102.22ZM302.407 191.835C302.139 191.647 301.939 191.379 301.835 191.072L305.623 189.787C305.455 189.292 305.134 188.862 304.704 188.561L302.407 191.835ZM301.835 191.072C301.73 190.764 301.726 190.432 301.823 190.123L305.641 191.316C305.797 190.817 305.79 190.282 305.623 189.787L301.835 191.072ZM301.823 190.123C301.92 189.813 302.113 189.541 302.377 189.346L304.752 192.564C305.175 192.252 305.485 191.814 305.641 191.316L301.823 190.123ZM302.377 189.346C302.641 189.151 302.961 189.045 303.292 189.045L303.29 193.045C303.817 193.045 304.33 192.876 304.752 192.564L302.377 189.346ZM303.291 193.045H303.291V189.045H303.291V193.045Z"
          fill="white" mask="url(#path-3-outside-1_6712_409359)"/>
    <path d="M52.4336 193.679L173.84 103.794L296.169 200.074L180.096 268.813L117.078 254.464L52.4336 193.679Z"
          fill="#E6E6E6"/>
    <path d="M122.658 311.49H62.8193C62.0779 311.491 61.3663 311.193 60.8413 310.66C60.3162 310.127 60.0206 309.404 60.0195 308.649C60.0184 307.895 60.3119 307.171 60.8354 306.636C61.3589 306.102 62.0696 305.801 62.8111 305.8H122.658C123.4 305.799 124.111 306.098 124.637 306.63C125.162 307.163 125.457 307.886 125.458 308.641C125.459 309.396 125.166 310.12 124.642 310.654C124.119 311.188 123.408 311.489 122.667 311.49H122.658Z"
          fill="#349D6E"/>
    <path d="M83.8258 299.161H62.7643C62.0372 299.162 61.3397 298.863 60.825 298.33C60.3103 297.797 60.0206 297.075 60.0195 296.32C60.0185 295.566 60.3061 294.842 60.8193 294.308C61.3324 293.774 62.0291 293.473 62.7562 293.471H83.8258C84.1861 293.47 84.5431 293.543 84.8762 293.685C85.2094 293.828 85.5123 294.037 85.7675 294.301C86.0228 294.564 86.2254 294.878 86.3639 295.223C86.5023 295.568 86.5738 295.938 86.5744 296.312C86.5749 296.686 86.5044 297.056 86.367 297.401C86.2295 297.747 86.0277 298.061 85.7732 298.326C85.5188 298.59 85.2165 298.8 84.8838 298.944C84.551 299.087 84.1943 299.161 83.8339 299.161H83.8258Z"
          fill="#349D6E"/>
    <path d="M175.912 244.155C175.457 244.155 175.006 244.067 174.585 243.894L99.8516 212.825V115.573C99.8526 114.713 100.194 113.888 100.801 113.28C101.408 112.672 102.231 112.33 103.089 112.329H246.459C247.318 112.33 248.14 112.672 248.747 113.28C249.354 113.888 249.696 114.713 249.697 115.573V212.893L249.556 212.953L177.279 243.879C176.846 244.061 176.381 244.155 175.912 244.155V244.155Z"
          fill="white"/>
    <path d="M175.441 244.155C174.954 244.155 174.472 244.062 174.021 243.878L98.9023 212.858V115.792C98.9034 114.874 99.2703 113.994 99.9227 113.345C100.575 112.695 101.46 112.33 102.382 112.329H246.216C247.139 112.33 248.023 112.695 248.676 113.345C249.328 113.994 249.695 114.874 249.696 115.792V212.924L176.903 243.862C176.44 244.056 175.943 244.155 175.441 244.155V244.155ZM99.8303 212.241L174.375 243.025C175.07 243.305 175.849 243.301 176.541 243.012L248.768 212.314V115.792C248.767 115.119 248.498 114.473 248.02 113.997C247.541 113.521 246.893 113.253 246.216 113.253H102.382C101.706 113.253 101.057 113.521 100.579 113.997C100.1 114.473 99.8311 115.119 99.8303 115.792L99.8303 212.241Z"
          fill="#CCCCCC"/>
    <mask id="path-10-outside-2_6712_409359" x="40" y="188.097" width="268" height="151"
          fill="black">
        <rect fill="white" x="40" y="188.097" width="268" height="151"/>
        <path d="M302.414 190.097H302.321L249.221 212.757L176.569 243.761C176.285 243.88 175.98 243.943 175.672 243.944C175.364 243.946 175.059 243.887 174.774 243.77L99.8184 212.692L45.4136 190.134L45.3304 190.097H45.2378C44.3794 190.098 43.5564 190.439 42.9494 191.046C42.3424 191.652 42.001 192.475 42 193.333V333.861C42.001 334.719 42.3424 335.541 42.9494 336.148C43.5564 336.755 44.3794 337.096 45.2378 337.097H302.414C303.272 337.096 304.095 336.755 304.702 336.148C305.309 335.541 305.651 334.719 305.652 333.861V193.333C305.651 192.475 305.309 191.652 304.702 191.046C304.095 190.439 303.272 190.098 302.414 190.097V190.097ZM304.727 333.861C304.726 334.474 304.483 335.062 304.049 335.495C303.615 335.928 303.027 336.172 302.414 336.172H45.2378C44.6245 336.172 44.0364 335.928 43.6027 335.495C43.169 335.062 42.9253 334.474 42.9251 333.861V193.333C42.9259 192.735 43.1579 192.161 43.5725 191.73C43.9872 191.299 44.5524 191.045 45.1499 191.021L99.8184 213.691L174.418 244.625C175.226 244.954 176.13 244.949 176.934 244.612L249.221 213.76L302.506 191.021C303.103 191.047 303.667 191.302 304.08 191.732C304.494 192.163 304.725 192.736 304.727 193.333V333.861Z"/>
    </mask>
    <path d="M302.414 190.097H302.321L249.221 212.757L176.569 243.761C176.285 243.88 175.98 243.943 175.672 243.944C175.364 243.946 175.059 243.887 174.774 243.77L99.8184 212.692L45.4136 190.134L45.3304 190.097H45.2378C44.3794 190.098 43.5564 190.439 42.9494 191.046C42.3424 191.652 42.001 192.475 42 193.333V333.861C42.001 334.719 42.3424 335.541 42.9494 336.148C43.5564 336.755 44.3794 337.096 45.2378 337.097H302.414C303.272 337.096 304.095 336.755 304.702 336.148C305.309 335.541 305.651 334.719 305.652 333.861V193.333C305.651 192.475 305.309 191.652 304.702 191.046C304.095 190.439 303.272 190.098 302.414 190.097V190.097ZM304.727 333.861C304.726 334.474 304.483 335.062 304.049 335.495C303.615 335.928 303.027 336.172 302.414 336.172H45.2378C44.6245 336.172 44.0364 335.928 43.6027 335.495C43.169 335.062 42.9253 334.474 42.9251 333.861V193.333C42.9259 192.735 43.1579 192.161 43.5725 191.73C43.9872 191.299 44.5524 191.045 45.1499 191.021L99.8184 213.691L174.418 244.625C175.226 244.954 176.13 244.949 176.934 244.612L249.221 213.76L302.506 191.021C303.103 191.047 303.667 191.302 304.08 191.732C304.494 192.163 304.725 192.736 304.727 193.333V333.861Z"
          fill="white"/>
    <path d="M302.321 190.097V188.097H301.912L301.536 188.257L302.321 190.097ZM249.221 212.757L248.436 210.917V210.917L249.221 212.757ZM176.569 243.761L177.344 245.605L177.354 245.601L176.569 243.761ZM174.774 243.77L174.008 245.618L174.018 245.622L174.774 243.77ZM99.8184 212.692L99.0523 214.54L99.0524 214.54L99.8184 212.692ZM45.4136 190.134L44.601 191.961L44.6241 191.972L44.6475 191.981L45.4136 190.134ZM45.3304 190.097L46.143 188.269L45.755 188.097H45.3304V190.097ZM45.2378 190.097V188.097L45.2356 188.097L45.2378 190.097ZM42 193.333L40 193.33V193.333H42ZM42 333.861H40L40 333.863L42 333.861ZM45.2378 337.097L45.2356 339.097H45.2378V337.097ZM302.414 337.097V339.097H302.416L302.414 337.097ZM305.652 333.861L307.652 333.863V333.861H305.652ZM305.652 193.333H307.652V193.33L305.652 193.333ZM304.727 333.861L306.727 333.862V333.861H304.727ZM302.414 336.172V338.172H302.415L302.414 336.172ZM45.2378 336.172L45.237 338.172H45.2378V336.172ZM42.9251 333.861H40.9251L40.9251 333.862L42.9251 333.861ZM42.9251 193.333L40.9251 193.33V193.333H42.9251ZM45.1499 191.021L45.916 189.174L45.5095 189.005L45.0698 189.023L45.1499 191.021ZM99.8184 213.691L100.584 211.843L100.584 211.843L99.8184 213.691ZM174.418 244.625L173.652 246.473L173.665 246.478L174.418 244.625ZM176.934 244.612L177.708 246.456L177.719 246.451L176.934 244.612ZM249.221 213.76L248.436 211.921L248.436 211.921L249.221 213.76ZM302.506 191.021L302.593 189.023L302.139 189.004L301.721 189.182L302.506 191.021ZM304.727 193.333H306.727L306.727 193.328L304.727 193.333ZM302.414 188.097H302.321V192.097H302.414V188.097ZM301.536 188.257L248.436 210.917L250.006 214.596L303.106 191.936L301.536 188.257ZM248.436 210.917L175.784 241.922L177.354 245.601L250.006 214.596L248.436 210.917ZM175.794 241.917C175.752 241.935 175.707 241.944 175.662 241.944L175.683 245.944C176.253 245.941 176.818 245.826 177.344 245.605L175.794 241.917ZM175.662 241.944C175.617 241.944 175.572 241.936 175.53 241.919L174.018 245.622C174.546 245.838 175.112 245.947 175.683 245.944L175.662 241.944ZM175.54 241.923L100.584 210.845L99.0524 214.54L174.008 245.618L175.54 241.923ZM100.584 210.845L46.1796 188.286L44.6475 191.981L99.0523 214.54L100.584 210.845ZM46.2262 188.306L46.143 188.269L44.5178 191.924L44.601 191.961L46.2262 188.306ZM45.3304 188.097H45.2378V192.097H45.3304V188.097ZM45.2356 188.097C43.8479 188.098 42.5172 188.65 41.5356 189.631L44.3632 192.46C44.5956 192.228 44.9109 192.097 45.24 192.097L45.2356 188.097ZM41.5356 189.631C40.554 190.612 40.0015 191.942 40 193.33L44 193.335C44.0004 193.007 44.1308 192.692 44.3632 192.46L41.5356 189.631ZM40 193.333V333.861H44V193.333H40ZM40 333.863C40.0015 335.251 40.554 336.582 41.5356 337.563L44.3632 334.733C44.1308 334.501 44.0004 334.187 44 333.859L40 333.863ZM41.5356 337.563C42.5172 338.544 43.8479 339.095 45.2356 339.097L45.24 335.097C44.9109 335.096 44.5956 334.966 44.3632 334.733L41.5356 337.563ZM45.2378 339.097H302.414V335.097H45.2378V339.097ZM302.416 339.097C303.804 339.095 305.134 338.544 306.116 337.563L303.288 334.733C303.056 334.966 302.741 335.096 302.412 335.097L302.416 339.097ZM306.116 337.563C307.098 336.582 307.65 335.251 307.652 333.863L303.652 333.859C303.651 334.187 303.521 334.501 303.288 334.733L306.116 337.563ZM307.652 333.861V193.333H303.652V333.861H307.652ZM307.652 193.33C307.65 191.942 307.098 190.612 306.116 189.631L303.288 192.46C303.521 192.692 303.651 193.007 303.652 193.335L307.652 193.33ZM306.116 189.631C305.134 188.65 303.804 188.098 302.416 188.097L302.412 192.097C302.741 192.097 303.056 192.228 303.288 192.46L306.116 189.631ZM302.727 333.86C302.726 333.943 302.694 334.022 302.635 334.08L305.463 336.91C306.271 336.101 306.726 335.005 306.727 333.862L302.727 333.86ZM302.635 334.08C302.576 334.139 302.497 334.172 302.413 334.172L302.415 338.172C303.558 338.172 304.654 337.718 305.463 336.91L302.635 334.08ZM302.414 334.172H45.2378V338.172H302.414V334.172ZM45.2386 334.172C45.1551 334.172 45.0752 334.139 45.0165 334.08L42.1889 336.91C42.9976 337.718 44.0939 338.172 45.237 338.172L45.2386 334.172ZM45.0165 334.08C44.9579 334.022 44.9251 333.943 44.9251 333.86L40.9251 333.862C40.9256 335.005 41.3802 336.101 42.1889 336.91L45.0165 334.08ZM44.9251 333.861V193.333H40.9251V333.861H44.9251ZM44.9251 193.335C44.9252 193.254 44.9568 193.176 45.0134 193.117L42.1316 190.343C41.359 191.146 40.9267 192.216 40.9251 193.33L44.9251 193.335ZM45.0134 193.117C45.0702 193.058 45.1478 193.023 45.2301 193.02L45.0698 189.023C43.957 189.068 42.9042 189.54 42.1316 190.343L45.0134 193.117ZM44.3839 192.869L99.0523 215.538L100.584 211.843L45.916 189.174L44.3839 192.869ZM99.0523 215.538L173.652 246.473L175.184 242.778L100.584 211.843L99.0523 215.538ZM173.665 246.478C174.962 247.006 176.416 246.998 177.708 246.456L176.16 242.767C175.844 242.9 175.489 242.902 175.171 242.773L173.665 246.478ZM177.719 246.451L250.006 215.6L248.436 211.921L176.149 242.772L177.719 246.451ZM250.006 215.6L303.291 192.861L301.721 189.182L248.436 211.921L250.006 215.6ZM302.42 193.019C302.503 193.023 302.581 193.058 302.638 193.118L305.523 190.347C304.752 189.545 303.703 189.071 302.593 189.023L302.42 193.019ZM302.638 193.118C302.695 193.177 302.726 193.256 302.727 193.337L306.727 193.328C306.724 192.216 306.293 191.148 305.523 190.347L302.638 193.118ZM302.727 193.333V333.861H306.727V193.333H302.727Z"
          fill="white" mask="url(#path-10-outside-2_6712_409359)"/>
    <path d="M163.519 148.368H113.005C112.031 148.366 111.098 147.966 110.41 147.255C109.722 146.543 109.336 145.579 109.336 144.574C109.336 143.569 109.722 142.605 110.41 141.894C111.098 141.182 112.031 140.782 113.005 140.781H163.519C164.492 140.782 165.426 141.182 166.113 141.894C166.801 142.605 167.188 143.569 167.188 144.574C167.188 145.579 166.801 146.543 166.113 147.255C165.426 147.966 164.492 148.366 163.519 148.368V148.368Z"
          fill="#349D6E"/>
    <path d="M137.843 133.194H113.074C112.083 133.194 111.132 132.794 110.431 132.082C109.73 131.371 109.336 130.406 109.336 129.4C109.336 128.394 109.73 127.429 110.431 126.718C111.132 126.006 112.083 125.606 113.074 125.606H137.843C138.834 125.606 139.785 126.006 140.486 126.718C141.187 127.429 141.581 128.394 141.581 129.4C141.581 130.406 141.187 131.371 140.486 132.082C139.785 132.794 138.834 133.194 137.843 133.194V133.194Z"
          fill="#349D6E"/>
    <path d="M212.797 185.355H134.855C133.871 185.353 132.929 184.953 132.234 184.242C131.539 183.531 131.148 182.566 131.148 181.561C131.148 180.556 131.539 179.592 132.234 178.881C132.929 178.17 133.871 177.769 134.855 177.768H212.797C213.78 177.769 214.723 178.17 215.418 178.881C216.113 179.592 216.503 180.556 216.503 181.561C216.503 182.566 216.113 183.531 215.418 184.242C214.723 184.953 213.78 185.353 212.797 185.355V185.355Z"
          fill="#CCCCCC"/>
    <path d="M212.792 202.426H134.859C133.875 202.426 132.931 202.026 132.235 201.315C131.539 200.603 131.148 199.638 131.148 198.632C131.148 197.626 131.539 196.661 132.235 195.95C132.931 195.238 133.875 194.839 134.859 194.839H212.792C213.776 194.839 214.72 195.238 215.416 195.95C216.112 196.661 216.503 197.626 216.503 198.632C216.503 199.638 216.112 200.603 215.416 201.315C214.72 202.026 213.776 202.426 212.792 202.426V202.426Z"
          fill="#CCCCCC"/>
</svg>
