<svg width="268" height="63" fill="none" xmlns="http://www.w3.org/2000/svg">
    <path d="M16.696 19.705a4.5 4.5 0 0 1-.71.54c-.303.208-.7.416-1.193.624-.492.208-1.088.379-1.788.511-.7.152-1.515.227-2.442.227-1.306 0-2.527-.18-3.663-.54a7.513 7.513 0 0 1-2.925-1.731c-.814-.814-1.457-1.874-1.93-3.18-.455-1.307-.682-2.897-.682-4.77 0-1.723.274-3.219.823-4.487.568-1.268 1.316-2.31 2.244-3.123A8.986 8.986 0 0 1 7.58 1.93a11.424 11.424 0 0 1 3.635-.596c.87 0 1.637.085 2.3.255.662.152 1.22.331 1.675.54a5.34 5.34 0 0 1 1.107.653c.284.208.502.369.654.482l-1.335 2.868a11.057 11.057 0 0 0-.54-.426 4.411 4.411 0 0 0-.851-.54 5.727 5.727 0 0 0-1.221-.425 5.587 5.587 0 0 0-1.562-.199c-.833 0-1.618.133-2.357.398a5.48 5.48 0 0 0-1.93 1.22c-.55.55-.985 1.26-1.307 2.13-.322.871-.482 1.903-.482 3.095 0 2.48.501 4.269 1.504 5.367 1.023 1.098 2.433 1.647 4.231 1.647.72 0 1.401-.076 2.045-.227v-4.288H9.739l.029-3.067h6.928v8.888Zm11.535-9.285c-.056-.038-.18-.076-.369-.114a3.271 3.271 0 0 0-.681-.056c-.795 0-1.439.142-1.931.425-.492.284-.861.616-1.107.994v9.598h-3.578V7.438h3.294V9.37h.056a4.849 4.849 0 0 1 1.25-1.561c.53-.417 1.259-.625 2.186-.625.265 0 .492.019.682.057.208.019.36.038.454.057l-.256 3.123Zm14.405 10.847H39.37v-1.562h-.057a9.95 9.95 0 0 1-.51.596 4.852 4.852 0 0 1-.796.625c-.303.19-.672.35-1.107.483-.435.132-.947.198-1.533.198-1.477 0-2.594-.463-3.351-1.391-.757-.928-1.136-2.262-1.136-4.004V7.438h3.578v8.15c0 1.06.16 1.817.483 2.271.34.455.899.682 1.675.682.587 0 1.07-.095 1.448-.284.398-.19.729-.407.994-.653V7.438h3.578v13.829Zm12.208 0v-8.178c0-1.022-.18-1.76-.539-2.215-.34-.473-.9-.71-1.675-.71-.587 0-1.089.104-1.505.313-.417.189-.757.407-1.022.653v10.137h-3.578V7.438h3.294v1.534h.056c.133-.17.303-.36.511-.568.228-.227.502-.435.824-.625.322-.19.7-.35 1.136-.482a5.473 5.473 0 0 1 1.533-.2c1.477 0 2.603.474 3.379 1.42.776.928 1.164 2.253 1.164 3.976v8.774h-3.578Zm6.697-6.872c0-1.211.17-2.271.512-3.18.36-.909.833-1.666 1.42-2.272a5.764 5.764 0 0 1 2.015-1.363 6.242 6.242 0 0 1 2.414-.482c.568 0 1.041.066 1.42.199.397.113.728.246.993.397V1.248l3.578-.312v20.33h-3.265v-1.561h-.057a4.02 4.02 0 0 1-.37.511 3.4 3.4 0 0 1-.709.625 4.098 4.098 0 0 1-1.079.54c-.435.15-.965.226-1.59.226a5.128 5.128 0 0 1-2.158-.454 4.719 4.719 0 0 1-1.675-1.334c-.455-.606-.814-1.363-1.08-2.272-.245-.909-.368-1.96-.368-3.152Zm6.333 4.146c.605 0 1.097-.095 1.476-.284.398-.208.72-.426.965-.653v-7.099a2.625 2.625 0 0 0-.766-.369c-.303-.095-.672-.142-1.108-.142-.965 0-1.75.35-2.356 1.05-.587.682-.88 1.742-.88 3.18 0 .777.066 1.44.198 1.988.133.55.313.994.54 1.335.246.34.53.596.852.767.34.151.7.227 1.079.227Zm17.261-7.582a4.06 4.06 0 0 0-.426-.284 4.64 4.64 0 0 0-.624-.34 3.787 3.787 0 0 0-.824-.284 4.093 4.093 0 0 0-.993-.114c-.606 0-1.07.095-1.392.284-.303.19-.454.417-.454.682 0 .36.132.653.397.88.284.208.748.473 1.392.795l.823.397c.53.265 1.003.54 1.42.824.435.265.804.577 1.107.937.303.34.54.729.71 1.164.17.417.256.909.256 1.477 0 1.287-.445 2.318-1.335 3.095-.87.757-2.167 1.135-3.89 1.135a7.108 7.108 0 0 1-1.647-.17 8.409 8.409 0 0 1-1.25-.34 5.03 5.03 0 0 1-.908-.484 6.59 6.59 0 0 1-.624-.482l1.107-2.896c.132.132.303.284.511.454.208.17.445.331.71.483.284.132.587.255.909.369.34.094.7.142 1.079.142.605 0 1.088-.085 1.448-.256.378-.19.567-.445.567-.767 0-.208-.037-.388-.113-.539a1.272 1.272 0 0 0-.37-.426 2.98 2.98 0 0 0-.624-.397c-.246-.133-.549-.294-.908-.483l-.824-.426c-.965-.473-1.732-1.032-2.3-1.675-.549-.663-.823-1.543-.823-2.641 0-.606.123-1.155.369-1.647a3.629 3.629 0 0 1 1.022-1.25c.454-.34.975-.605 1.562-.794a6.636 6.636 0 0 1 1.987-.284c.568 0 1.07.047 1.505.142.436.094.805.208 1.108.34.321.133.586.275.795.426.208.133.369.246.482.341l-.937 2.612Zm11.902-.681h-3.18v5.594c0 1.022.141 1.722.425 2.1.284.38.758.569 1.42.569.322 0 .615-.029.88-.085.265-.076.455-.133.568-.17l.256 2.64c-.152.076-.436.199-.852.369-.398.17-.994.255-1.789.255-.776 0-1.448-.094-2.016-.283a3.302 3.302 0 0 1-1.391-.909c-.36-.435-.635-.984-.824-1.647-.17-.681-.255-1.514-.255-2.499v-5.934h-1.874V7.836l1.874-.34.397-3.862h3.18v3.804h3.493l-.312 2.84Zm13.576 2.357c0 .624-.028 1.154-.085 1.59-.038.416-.085.785-.142 1.107h-7.411c.095 1.174.454 2.016 1.079 2.527.644.492 1.533.738 2.669.738a5.94 5.94 0 0 0 1.221-.113c.36-.095.672-.199.937-.312.284-.133.521-.256.71-.37.189-.132.331-.236.426-.312l.823 2.499c-.113.095-.274.236-.482.426-.208.17-.511.35-.909.54-.378.17-.861.321-1.448.454-.568.132-1.259.198-2.073.198-.946 0-1.817-.132-2.612-.397a5.305 5.305 0 0 1-2.016-1.306c-.568-.587-1.013-1.344-1.335-2.272-.303-.946-.454-2.073-.454-3.379 0-1.23.16-2.29.483-3.18.34-.909.795-1.656 1.363-2.243a5.614 5.614 0 0 1 2.016-1.306 7.05 7.05 0 0 1 2.442-.426c1.495 0 2.669.464 3.521 1.391.851.928 1.277 2.31 1.277 4.146Zm-5.139-2.755c-.719 0-1.316.256-1.789.767-.454.511-.7 1.278-.738 2.3h4.458c.019-.132.028-.246.028-.34v-.313c0-.738-.17-1.325-.511-1.76-.341-.436-.823-.654-1.448-.654Zm20.171 11.387h-3.265v-1.562h-.057c-.132.17-.303.369-.511.596a4.835 4.835 0 0 1-.795.625 4.64 4.64 0 0 1-1.107.483c-.436.132-.947.198-1.534.198-1.476 0-2.593-.463-3.35-1.391-.757-.928-1.136-2.262-1.136-4.004V7.438h3.578v8.15c0 1.06.161 1.817.483 2.271.34.455.899.682 1.675.682.587 0 1.069-.095 1.448-.284.397-.19.729-.407.994-.653V7.438h3.577v13.829Zm14.339-8.632c0 .624-.028 1.154-.085 1.59-.038.416-.085.785-.142 1.107h-7.411c.095 1.174.454 2.016 1.079 2.527.643.492 1.533.738 2.669.738.454 0 .861-.037 1.221-.113.36-.095.672-.199.937-.312.284-.133.52-.256.71-.37.189-.132.331-.236.426-.312l.823 2.499c-.113.095-.274.236-.483.426-.208.17-.511.35-.908.54-.379.17-.861.321-1.448.454-.568.132-1.259.198-2.073.198-.947 0-1.817-.132-2.612-.397a5.29 5.29 0 0 1-2.016-1.306c-.568-.587-1.013-1.344-1.335-2.272-.303-.946-.454-2.073-.454-3.379 0-1.23.161-2.29.482-3.18.341-.909.795-1.656 1.363-2.243a5.614 5.614 0 0 1 2.016-1.306 7.05 7.05 0 0 1 2.442-.426c1.496 0 2.669.464 3.521 1.391.852.928 1.278 2.31 1.278 4.146Zm-5.139-2.755c-.72 0-1.316.256-1.789.767-.455.511-.701 1.278-.739 2.3h4.458c.019-.132.029-.246.029-.34v-.313c0-.738-.171-1.325-.511-1.76-.341-.436-.824-.654-1.448-.654Zm16.196.54c-.057-.038-.18-.076-.369-.114a3.28 3.28 0 0 0-.682-.056c-.795 0-1.438.142-1.931.425-.492.284-.861.616-1.107.994v9.598h-3.578V7.438h3.294V9.37h.057a4.852 4.852 0 0 1 1.249-1.561c.53-.417 1.259-.625 2.187-.625.265 0 .492.019.681.057.208.019.36.038.454.057l-.255 3.123Zm13.017 2.215c0 .624-.028 1.154-.085 1.59-.038.416-.085.785-.142 1.107h-7.411c.095 1.174.455 2.016 1.079 2.527.644.492 1.534.738 2.669.738a5.94 5.94 0 0 0 1.221-.113c.36-.095.672-.199.937-.312.284-.133.521-.256.71-.37a8.68 8.68 0 0 0 .426-.312l.824 2.499c-.114.095-.275.236-.483.426-.208.17-.511.35-.909.54-.378.17-.861.321-1.448.454-.568.132-1.259.198-2.073.198-.946 0-1.817-.132-2.612-.397a5.305 5.305 0 0 1-2.016-1.306c-.568-.587-1.013-1.344-1.335-2.272-.302-.946-.454-2.073-.454-3.379 0-1.23.161-2.29.483-3.18.341-.909.795-1.656 1.363-2.243a5.614 5.614 0 0 1 2.016-1.306 7.05 7.05 0 0 1 2.442-.426c1.495 0 2.669.464 3.521 1.391.851.928 1.277 2.31 1.277 4.146Zm-5.139-2.755c-.719 0-1.316.256-1.789.767-.454.511-.7 1.278-.738 2.3h4.458c.019-.132.028-.246.028-.34v-.313c0-.738-.17-1.325-.511-1.76-.341-.436-.823-.654-1.448-.654Zm16.196.54c-.056-.038-.179-.076-.369-.114a3.262 3.262 0 0 0-.681-.056c-.795 0-1.439.142-1.931.425-.492.284-.861.616-1.107.994v9.598h-3.578V7.438h3.294V9.37h.056a4.854 4.854 0 0 1 1.25-1.561c.53-.417 1.259-.625 2.186-.625.265 0 .492.019.682.057.208.019.359.038.454.057l-.256 3.123Zm10.259 3.379 4.685 7.468h-4.316l-3.294-5.566h-.994v5.566h-3.577V1.248l3.577-.312v11.869h.938l3.35-5.367h3.975l-4.344 6.36Zm10.558 3.01c0 .738.094 1.24.283 1.505.19.246.502.369.937.369.247 0 .455-.02.625-.057.189-.057.331-.104.426-.142l.227 2.499c-.151.094-.426.208-.823.34-.398.133-.918.2-1.562.2a5.109 5.109 0 0 1-1.562-.228 2.679 2.679 0 0 1-1.164-.682c-.303-.34-.539-.776-.71-1.306-.17-.549-.255-1.211-.255-1.987V1.248l3.578-.312V16.81Zm4.172.653c0-.72.161-1.344.483-1.874.341-.53.795-.966 1.363-1.306.568-.341 1.23-.597 1.987-.767.777-.17 1.609-.256 2.499-.256h.568v-.482c0-1.799-.776-2.698-2.328-2.698-.436 0-.824.047-1.165.142-.34.095-.653.218-.937.37a5.008 5.008 0 0 0-.709.425c-.19.152-.341.284-.455.398l-1.107-2.272c.17-.17.397-.369.681-.596a5.054 5.054 0 0 1 1.051-.682 7.985 7.985 0 0 1 1.448-.54 7.511 7.511 0 0 1 1.931-.226c1.628 0 2.877.464 3.748 1.391.871.928 1.306 2.395 1.306 4.401v4.657c0 .795.019 1.505.057 2.13.057.624.113 1.154.17 1.59h-3.293a36.994 36.994 0 0 1-.057-.71 12.349 12.349 0 0 1-.029-.824h-.056a4.098 4.098 0 0 1-.455.653c-.17.227-.388.436-.653.625-.246.17-.549.312-.908.426-.36.113-.786.17-1.278.17-1.136 0-2.064-.378-2.783-1.135-.719-.758-1.079-1.76-1.079-3.01Zm4.884 1.363c.511 0 .918-.085 1.221-.256a3.94 3.94 0 0 0 .795-.596v-2.556l-.71.029c-.927.056-1.628.217-2.101.482-.473.246-.71.644-.71 1.193 0 .492.142.9.426 1.221.284.322.644.483 1.079.483ZM204.59 3.52c0 .53-.17.975-.511 1.335-.321.34-.757.51-1.306.51s-.994-.17-1.334-.51c-.341-.36-.511-.805-.511-1.335 0-.549.17-.994.511-1.334.34-.36.785-.54 1.334-.54s.985.18 1.306.54c.341.34.511.785.511 1.334Zm5.31 0c0 .53-.17.975-.511 1.335-.341.34-.785.51-1.334.51s-.994-.17-1.335-.51c-.341-.36-.511-.805-.511-1.335 0-.549.17-.994.511-1.334.341-.36.786-.54 1.335-.54.549 0 .993.18 1.334.54.341.34.511.785.511 1.334Zm12.033 6.9c-.057-.038-.18-.076-.369-.114a3.262 3.262 0 0 0-.681-.056c-.795 0-1.439.142-1.931.425-.492.284-.861.616-1.108.994v9.598h-3.577V7.438h3.294V9.37h.056a4.854 4.854 0 0 1 1.25-1.561c.53-.417 1.258-.625 2.186-.625.265 0 .492.019.681.057.209.019.36.038.455.057l-.256 3.123Zm14.404 10.847h-3.265v-1.562h-.057c-.132.17-.303.369-.511.596a4.835 4.835 0 0 1-.795.625 4.64 4.64 0 0 1-1.107.483c-.436.132-.947.198-1.534.198-1.476 0-2.593-.463-3.35-1.391-.757-.928-1.136-2.262-1.136-4.004V7.438h3.578v8.15c0 1.06.161 1.817.483 2.271.34.455.899.682 1.675.682.587 0 1.069-.095 1.448-.284.397-.19.729-.407.994-.653V7.438h3.577v13.829Zm12.209 0v-8.178c0-1.022-.179-1.76-.539-2.215-.341-.473-.899-.71-1.675-.71-.587 0-1.089.104-1.505.313-.417.189-.758.407-1.023.653v10.137h-3.577V7.438h3.294v1.534h.056c.133-.17.303-.36.511-.568.228-.227.502-.435.824-.625.322-.19.7-.35 1.136-.482a5.469 5.469 0 0 1 1.533-.2c1.476 0 2.603.474 3.379 1.42.776.928 1.164 2.253 1.164 3.976v8.774h-3.578Zm18.935-11.614h-1.675c.379.663.568 1.392.568 2.187 0 .795-.142 1.486-.426 2.072a4.117 4.117 0 0 1-1.192 1.477 4.818 4.818 0 0 1-1.761.88 7.827 7.827 0 0 1-2.158.284c-.473 0-.918-.028-1.334-.085a1.498 1.498 0 0 0-.455.398c-.113.17-.17.369-.17.596 0 .53.331.795.994.795h2.981c1.496 0 2.66.303 3.493.908.851.606 1.277 1.562 1.277 2.868 0 .7-.161 1.363-.482 1.988-.322.643-.805 1.202-1.448 1.675-.644.492-1.449.88-2.414 1.164-.965.284-2.082.426-3.351.426-1.836 0-3.189-.322-4.06-.965-.871-.644-1.306-1.534-1.306-2.67 0-.454.076-.851.227-1.192.152-.34.331-.634.54-.88a4.3 4.3 0 0 1 .709-.625c.265-.17.502-.312.71-.426v-.056c-.549-.436-.823-1.06-.823-1.875 0-.378.066-.719.199-1.022.151-.303.312-.568.482-.795.19-.227.379-.416.568-.568.19-.151.341-.255.455-.312v-.028a4.433 4.433 0 0 1-1.676-1.562c-.416-.663-.624-1.486-.624-2.47 0-.814.142-1.515.425-2.102a4.197 4.197 0 0 1 1.193-1.476 4.838 4.838 0 0 1 1.732-.88 8.141 8.141 0 0 1 2.187-.284c.757 0 1.467.113 2.129.34h4.827l-.341 2.215Zm-7.95 11.5h-.596c-.19-.019-.369-.038-.54-.057-.208.152-.397.36-.568.625-.151.265-.227.615-.227 1.05 0 .682.227 1.165.682 1.449.473.303 1.145.454 2.016.454 1.363 0 2.385-.208 3.066-.625.701-.416 1.051-.937 1.051-1.561 0-.474-.142-.814-.426-1.023-.284-.208-.786-.312-1.505-.312h-2.953Zm3.663-9.313c0-.795-.237-1.363-.71-1.704a2.486 2.486 0 0 0-1.59-.54c-.625 0-1.183.18-1.675.54-.474.34-.71.909-.71 1.704 0 .776.236 1.344.71 1.703.473.341 1.012.511 1.618.511.625 0 1.174-.17 1.647-.51.473-.341.71-.91.71-1.704ZM8.291 44.597H5.026v11.67h-2.3v-11.67H.852v-1.619l1.874-.34v-2.3c0-1.534.378-2.68 1.136-3.436.757-.758 1.826-1.136 3.208-1.136.492 0 .89.066 1.193.199.322.113.53.189.624.227l-.312 1.959a12.735 12.735 0 0 0-.568-.199 2.884 2.884 0 0 0-.965-.142c-.663 0-1.164.19-1.505.568-.34.379-.511 1.041-.511 1.988v2.271h3.55l-.285 1.96Zm13.805 11.67h-2.13v-1.534h-.056a9.65 9.65 0 0 1-.483.511 4.433 4.433 0 0 1-.824.625c-.321.19-.719.36-1.192.511-.473.152-1.041.227-1.704.227-1.42 0-2.498-.444-3.237-1.334-.738-.89-1.107-2.29-1.107-4.203v-8.433h2.3v8.064c0 1.363.208 2.348.624 2.953.417.606 1.089.909 2.016.909.474 0 .89-.047 1.25-.142.378-.114.71-.246.994-.398.284-.151.52-.312.71-.482.208-.17.388-.322.539-.455V42.637h2.3v13.63Zm-6.417-17.548c0 .435-.142.785-.426 1.05a1.314 1.314 0 0 1-.966.398 1.41 1.41 0 0 1-.993-.398c-.265-.265-.398-.615-.398-1.05 0-.436.133-.786.398-1.05a1.41 1.41 0 0 1 .993-.398c.38 0 .7.132.966.397.284.265.426.615.426 1.05Zm4.827 0c0 .435-.142.785-.426 1.05a1.315 1.315 0 0 1-.965.398c-.379 0-.71-.133-.994-.398-.265-.265-.398-.615-.398-1.05 0-.436.133-.786.398-1.05.284-.266.615-.398.994-.398.378 0 .7.132.965.397.284.265.426.615.426 1.05Zm12.759 5.963a5.499 5.499 0 0 0-.426-.142c-.17-.076-.445-.114-.823-.114-.455 0-.862.066-1.221.199a3.4 3.4 0 0 0-.909.454c-.246.19-.454.398-.625.625a3.55 3.55 0 0 0-.397.653v9.91h-2.3v-13.63h2.13v2.016h.056c.114-.246.256-.501.426-.766.17-.265.388-.511.653-.739.284-.227.615-.407.994-.54.398-.15.861-.226 1.391-.226.284 0 .52.019.71.056.19.038.37.086.54.142l-.2 2.102ZM55.96 42.58c0 2.026-.672 3.635-2.016 4.828-1.325 1.192-3.388 1.788-6.19 1.788H46.05v7.07h-2.47V36.675h4.316c2.802 0 4.846.511 6.133 1.534 1.287 1.022 1.931 2.48 1.931 4.373Zm-2.64.142c0-1.325-.436-2.319-1.307-2.981-.852-.681-2.224-1.022-4.117-1.022H46.05v8.433h1.704c1.93 0 3.341-.388 4.23-1.164.89-.776 1.335-1.865 1.335-3.266Zm12.812 1.96a5.499 5.499 0 0 0-.426-.142c-.17-.076-.445-.114-.823-.114-.454 0-.861.066-1.221.199a3.4 3.4 0 0 0-.909.454c-.246.19-.454.398-.624.625a3.55 3.55 0 0 0-.398.653v9.91h-2.3v-13.63h2.13v2.016h.057c.113-.246.255-.501.425-.766.17-.265.389-.511.654-.739.283-.227.615-.407.993-.54.398-.15.862-.226 1.392-.226.284 0 .52.019.71.056.189.038.369.086.54.142l-.2 2.102Zm5.93-6.957c0 .492-.162.89-.483 1.193a1.7 1.7 0 0 1-1.165.425 1.7 1.7 0 0 1-1.164-.425c-.303-.303-.454-.7-.454-1.193 0-.492.151-.89.454-1.193.322-.302.71-.454 1.164-.454.455 0 .843.152 1.165.454.321.303.482.7.482 1.193Zm-.512 18.542h-2.3v-13.63h2.3v13.63Zm9.637 0h-1.874l-4.912-13.63h2.442l3.52 10.62h.058l3.492-10.62H86.1l-4.913 13.63Zm6.904-3.55c0-.7.16-1.306.483-1.817a3.76 3.76 0 0 1 1.306-1.25c.568-.321 1.23-.558 1.987-.71.757-.17 1.581-.255 2.47-.255h1.136v-1.05c0-1.193-.227-2.035-.681-2.527-.454-.511-1.126-.767-2.016-.767-.833 0-1.533.151-2.101.454-.55.284-.975.55-1.278.795l-.852-1.703c.17-.133.388-.284.653-.455a6.893 6.893 0 0 1 2.3-.965 7.624 7.624 0 0 1 1.704-.17c1.495 0 2.631.435 3.407 1.306.776.87 1.164 2.214 1.164 4.032v5.792c0 .587.02 1.164.057 1.732.038.55.076.918.114 1.108h-2.215l-.085-1.505h-.057c-.114.189-.275.397-.483.624a3.954 3.954 0 0 1-.795.597c-.303.17-.672.312-1.107.426-.417.132-.89.198-1.42.198-1.136 0-2.035-.36-2.697-1.079-.663-.719-.994-1.656-.994-2.81Zm4.202 1.931c.455 0 .852-.047 1.193-.142a4.27 4.27 0 0 0 .88-.34c.265-.133.483-.275.653-.426l.454-.455v-2.953l-1.306.057c-1.306.057-2.262.255-2.868.596-.605.341-.908.871-.908 1.59 0 .663.19 1.174.568 1.534.397.36.842.54 1.334.54Zm16.269-10.052h-3.521v7.042c0 1.08.152 1.837.455 2.272.303.435.833.653 1.59.653.378 0 .7-.047.965-.142.265-.095.474-.18.625-.256l.227 1.846c-.132.076-.397.19-.795.34-.379.171-.928.256-1.647.256-1.344 0-2.3-.378-2.868-1.135-.568-.777-.852-1.95-.852-3.521v-7.355h-1.874v-1.618l1.874-.34.256-3.806h2.044v3.805h3.805l-.284 1.96Zm13.17 3.039c0 .454-.028.87-.085 1.249a8.103 8.103 0 0 1-.17 1.05h-7.922c.095 1.59.492 2.764 1.192 3.522.72.738 1.704 1.107 2.953 1.107.53 0 .994-.047 1.392-.142a6.67 6.67 0 0 0 1.05-.37 3.37 3.37 0 0 0 .71-.397c.19-.151.332-.274.426-.369l.682 1.647a8.274 8.274 0 0 1-.511.454c-.209.19-.493.379-.852.568-.341.17-.776.322-1.306.455-.512.132-1.127.198-1.846.198-1.931 0-3.445-.587-4.543-1.76-1.098-1.174-1.647-3.029-1.647-5.565 0-1.193.161-2.225.483-3.095.321-.89.757-1.619 1.306-2.187a5.415 5.415 0 0 1 1.874-1.278 6.055 6.055 0 0 1 2.243-.425c1.42 0 2.537.463 3.351 1.39.813.91 1.22 2.225 1.22 3.948Zm-4.77-3.38c-.965 0-1.751.341-2.357 1.023-.605.663-.955 1.618-1.05 2.868h5.963c.038-.17.056-.322.056-.455v-.454c0-.965-.236-1.704-.709-2.215-.455-.51-1.089-.766-1.903-.766Zm11.459-6.53c0 .492-.161.89-.483 1.193a1.7 1.7 0 0 1-1.164.425c-.455 0-.843-.142-1.164-.425-.303-.303-.455-.7-.455-1.193 0-.492.152-.89.455-1.193a1.635 1.635 0 0 1 1.164-.454c.454 0 .842.152 1.164.454.322.303.483.7.483 1.193Zm-.511 18.542h-2.3v-13.63h2.3v13.63Zm15.543-11.84h-2.073c.246.359.435.747.568 1.163.132.417.199.852.199 1.306 0 .72-.142 1.363-.426 1.931a4.163 4.163 0 0 1-1.108 1.448c-.473.398-1.041.7-1.703.909a6.794 6.794 0 0 1-2.101.312 7.27 7.27 0 0 1-1.136-.085 3.258 3.258 0 0 0-.739.454c-.265.209-.397.502-.397.88 0 .285.114.521.341.71.227.17.596.256 1.107.256h2.783c1.438 0 2.546.303 3.322.909.795.587 1.192 1.486 1.192 2.697a3.97 3.97 0 0 1-.454 1.846c-.303.606-.757 1.136-1.363 1.59-.606.473-1.363.842-2.271 1.107-.89.284-1.931.426-3.124.426-1.628 0-2.887-.312-3.776-.937-.89-.605-1.335-1.524-1.335-2.754 0-.511.085-.956.256-1.335.17-.378.378-.7.624-.965.247-.265.502-.473.767-.625.284-.17.53-.312.738-.426v-.056a1.927 1.927 0 0 1-.653-.852 2.96 2.96 0 0 1-.198-1.08c0-.359.066-.671.198-.936.133-.265.284-.483.455-.653.189-.19.369-.341.539-.455.189-.113.331-.189.426-.227v-.057a4.018 4.018 0 0 1-1.675-1.505c-.417-.662-.625-1.504-.625-2.527 0-.757.133-1.42.398-1.987a3.85 3.85 0 0 1 1.107-1.448 4.6 4.6 0 0 1 1.647-.88 6.922 6.922 0 0 1 2.016-.285c.738 0 1.42.114 2.044.341h4.714l-.284 1.79Zm-7.695 11.414c-.473 0-.861-.038-1.164-.114-.36.208-.691.492-.994.852-.284.379-.426.9-.426 1.562 0 .776.256 1.334.767 1.675.511.34 1.277.511 2.3.511.833 0 1.542-.076 2.129-.227.606-.152 1.098-.35 1.477-.596.397-.246.681-.53.852-.852.189-.322.284-.653.284-.994 0-.663-.18-1.126-.54-1.391-.341-.284-.899-.426-1.675-.426h-3.01Zm4.146-8.945c0-.492-.086-.908-.256-1.249a2.114 2.114 0 0 0-.625-.823 2.327 2.327 0 0 0-.937-.483 4.01 4.01 0 0 0-1.079-.142c-.397 0-.776.047-1.135.142a2.606 2.606 0 0 0-.938.483 2.386 2.386 0 0 0-.653.823c-.151.34-.227.757-.227 1.25 0 .492.076.908.227 1.249.171.34.388.624.653.852.265.208.568.36.909.454.36.095.729.142 1.107.142.398 0 .767-.047 1.108-.142.36-.095.672-.246.937-.454.284-.227.502-.511.653-.852.17-.341.256-.757.256-1.25Zm16.665.739c0 .454-.029.87-.086 1.249a7.936 7.936 0 0 1-.17 1.05h-7.922c.095 1.59.492 2.764 1.193 3.522.719.738 1.703 1.107 2.953 1.107.53 0 .993-.047 1.391-.142a6.686 6.686 0 0 0 1.051-.37c.302-.132.539-.264.709-.397.19-.151.332-.274.426-.369l.682 1.647a8.274 8.274 0 0 1-.511.454c-.209.19-.493.379-.852.568-.341.17-.776.322-1.306.455-.511.132-1.127.198-1.846.198-1.931 0-3.445-.587-4.543-1.76-1.098-1.174-1.647-3.029-1.647-5.565 0-1.193.161-2.225.483-3.095.322-.89.757-1.619 1.306-2.187a5.424 5.424 0 0 1 1.874-1.278 6.055 6.055 0 0 1 2.243-.425c1.42 0 2.537.463 3.351 1.39.814.91 1.221 2.225 1.221 3.948Zm-4.771-3.38c-.965 0-1.751.341-2.356 1.023-.606.663-.956 1.618-1.051 2.868h5.963c.038-.17.057-.322.057-.455v-.454c0-.965-.237-1.704-.71-2.215-.455-.51-1.089-.766-1.903-.766Zm17.251 12.012v-8.064c0-1.307-.217-2.272-.653-2.897-.416-.643-1.107-.965-2.073-.965-.454 0-.87.057-1.249.17a4.975 4.975 0 0 0-1.022.37c-.284.132-.54.293-.767.482-.208.17-.388.322-.539.454v10.45h-2.3v-13.63h2.129v1.533h.057a7.13 7.13 0 0 1 .54-.539c.246-.208.539-.407.88-.596.36-.208.766-.379 1.221-.511a5.199 5.199 0 0 1 1.59-.227c1.457 0 2.565.454 3.322 1.362.776.91 1.164 2.3 1.164 4.174v8.434h-2.3Zm13.068-11.67h-3.521v7.041c0 1.08.151 1.837.454 2.272.303.435.833.653 1.59.653.379 0 .701-.047.966-.142.265-.095.473-.18.624-.256l.227 1.846c-.132.076-.397.19-.795.34-.378.171-.927.256-1.647.256-1.344 0-2.299-.378-2.867-1.135-.568-.777-.852-1.95-.852-3.521v-7.355h-1.874v-1.618l1.874-.34.255-3.806h2.045v3.805h3.805l-.284 1.96Zm13.993 11.67h-2.129v-1.534h-.057a9.936 9.936 0 0 1-.483.511 4.448 4.448 0 0 1-.823.625c-.322.19-.72.36-1.193.511-.473.152-1.041.227-1.704.227-1.419 0-2.498-.444-3.237-1.334-.738-.89-1.107-2.29-1.107-4.203v-8.433h2.3v8.064c0 1.363.208 2.348.625 2.953.416.606 1.088.909 2.016.909.473 0 .889-.047 1.249-.142a5.42 5.42 0 0 0 .994-.398c.284-.151.52-.312.71-.482.208-.17.388-.322.539-.455V42.637h2.3v13.63Zm12.731 0v-8.064c0-1.363-.199-2.348-.596-2.954-.379-.605-.994-.908-1.846-.908-.492 0-.928.057-1.306.17a4.347 4.347 0 0 0-1.732.852c-.19.17-.35.322-.483.454v10.45h-2.3v-13.63h2.13v1.533h.056c.133-.15.322-.33.568-.539.246-.227.54-.435.881-.625.34-.208.738-.378 1.192-.51a5.474 5.474 0 0 1 1.533-.2c.796 0 1.486.17 2.073.512.606.321 1.079.823 1.42 1.505.17-.19.388-.398.653-.625a5.1 5.1 0 0 1 .965-.653c.36-.208.767-.379 1.221-.511a4.739 4.739 0 0 1 1.505-.227c1.496 0 2.641.454 3.436 1.362.795.91 1.193 2.3 1.193 4.174v8.434h-2.3v-8.064c0-1.363-.246-2.348-.739-2.954-.492-.605-1.202-.908-2.129-.908-.814 0-1.496.18-2.045.54-.53.34-.946.652-1.249.936.133.55.199 1.221.199 2.016v8.434h-2.3Z"
          fill="#0B0C0C"/>
</svg>