<svg width="345" height="294" fill="none" xmlns="http://www.w3.org/2000/svg">
    <path d="M199.316.078h54.683c44.068 0 68.436 6.756 110.568 16.956 51.714 12.52 105.797 20.44 140.432 59.71 20.337 23.057 39.189 50.298 41.223 80.014 1.774 25.92-12.747 47.264-34.913 63.739-45.407 33.75-108.399 50.112-165.371 61.751-66.144 13.513-136.579 14.98-203.588 4.814-45.066-6.836-95.808-22.694-124.75-55.366C.539 212.434-2.205 191.063 1.377 167.538c4.253-27.929 19.486-52.544 37.016-75.775C58.006 65.77 79.42 39.455 108.64 21.01c13.84-8.736 28.863-16.34 45.849-19.153C169.144-.57 184.479.078 199.316.078Z"
          fill="#ECF1F4"/>
    <g clip-path="url(#a)">
        <path d="M296.918 256.205H41.824a6.572 6.572 0 0 1-4.642-1.929 6.588 6.588 0 0 1-1.926-4.648V92.125a4.827 4.827 0 0 1 1.41-3.406 4.814 4.814 0 0 1 3.401-1.412h258.524a4.907 4.907 0 0 1 4.895 4.902v157.419a6.585 6.585 0 0 1-6.568 6.577Z"
              fill="#F2F2F2"/>
        <path d="M288.67 247.902H50.929c-3.485 0-6.32-2.659-6.32-5.926V104.82c0-2.423 2.1-4.395 4.683-4.395H290.23c2.625 0 4.761 2.004 4.761 4.467v137.084c0 3.267-2.836 5.926-6.321 5.926Z"
              fill="#fff"/>
        <path d="M303.395 92.945H35.164v-3.348a6.61 6.61 0 0 1 1.933-4.664A6.593 6.593 0 0 1 41.755 83h255.048a6.593 6.593 0 0 1 4.658 1.933 6.612 6.612 0 0 1 1.934 4.663v3.349Z"
              fill="#3F3D56"/>
        <path d="M47.143 89.69a1.706 1.706 0 1 0-.002-3.417 1.706 1.706 0 0 0 .002 3.417ZM53.615 89.69a1.706 1.706 0 1 0-.002-3.417 1.706 1.706 0 0 0 .002 3.417ZM60.087 89.69a1.706 1.706 0 1 0-.002-3.417 1.706 1.706 0 0 0 .002 3.417Z"
              fill="#fff"/>
        <path d="M236.851 137.36H124.21c-4.51 0-8.166 3.661-8.166 8.177s3.656 8.176 8.166 8.176h112.641c4.51 0 8.166-3.66 8.166-8.176s-3.656-8.177-8.166-8.177ZM236.851 164.419H124.21c-4.51 0-8.166 3.661-8.166 8.176 0 4.516 3.656 8.177 8.166 8.177h112.641c4.51 0 8.166-3.661 8.166-8.177 0-4.515-3.656-8.176-8.166-8.176ZM236.851 191.479H124.21c-4.51 0-8.166 3.66-8.166 8.176s3.656 8.177 8.166 8.177h112.641c4.51 0 8.166-3.661 8.166-8.177s-3.656-8.176-8.166-8.176ZM101.714 180.966c4.616 0 8.359-3.747 8.359-8.37 0-4.623-3.743-8.37-8.359-8.37-4.617 0-8.36 3.747-8.36 8.37 0 4.623 3.743 8.37 8.36 8.37ZM101.714 208.026c4.616 0 8.359-3.748 8.359-8.371 0-4.622-3.743-8.37-8.359-8.37-4.617 0-8.36 3.748-8.36 8.37 0 4.623 3.743 8.371 8.36 8.371Z"
              fill="#E6E6E6"/>
        <path d="M101.714 153.907c4.616 0 8.359-3.748 8.359-8.371 0-4.622-3.743-8.37-8.359-8.37-4.617 0-8.36 3.748-8.36 8.37 0 4.623 3.743 8.371 8.36 8.371Z"
              fill="#349D6E"/>
        <path d="M93.875 145.312a3.999 3.999 0 0 0-3.192 1.134 4.008 4.008 0 0 0-1.181 3.179l-13.02 5.737 6.21 4.015 11.412-6.064a4.027 4.027 0 0 0 3.434-4.102 4.03 4.03 0 0 0-3.663-3.899ZM41.358 138.156c5.4 0 9.777-4.383 9.777-9.79 0-5.407-4.378-9.79-9.777-9.79-5.4 0-9.777 4.383-9.777 9.79 0 5.407 4.377 9.79 9.777 9.79ZM59.053 267.956h4.88l2.321-18.849-7.202.001v18.848Z"
              fill="#A0616A"/>
        <path d="m57.808 266.361 9.61-.001a6.122 6.122 0 0 1 5.66 3.786c.307.744.466 1.542.466 2.347v.199l-15.736.001v-6.332Z"
              fill="#2F2E41"/>
        <path d="M38.751 267.956h4.88l2.322-18.849-7.203.001.001 18.848Z" fill="#A0616A"/>
        <path d="m37.507 266.361 9.61-.001a6.122 6.122 0 0 1 5.66 3.786c.307.744.465 1.542.465 2.347v.199l-15.735.001v-6.332ZM37.798 263.493a1.784 1.784 0 0 1-.607-1.339l-.23-70.63 25.485-.984.188-.007 4.19 42.367.526 26.99a1.79 1.79 0 0 1-1.582 1.816l-6.186.729a1.788 1.788 0 0 1-1.822-.999 1.798 1.798 0 0 1-.177-.713l-1.101-28.673-5.348-17.85a.595.595 0 0 0-.992-.14.596.596 0 0 0-.146.36l-2.081 46.939a1.791 1.791 0 0 1-1.57 1.689l-7.144.88a1.788 1.788 0 0 1-1.403-.435Z"
              fill="#2F2E41"/>
        <path d="m36.188 194.031-7.55-30.703c-2.354-9.567 3.02-19.2 11.98-21.473A15.198 15.198 0 0 1 53 144.066a17.6 17.6 0 0 1 7.436 12.273l4.932 36.348a1.798 1.798 0 0 1-1.002 1.86 1.808 1.808 0 0 1-.726.175l-25.667.673h-.047a1.804 1.804 0 0 1-1.74-1.364Z"
              fill="#349D6E"/>
        <path d="m67.818 165.666-19.142-9.31a6.43 6.43 0 0 1-3.573-6.578 6.443 6.443 0 0 1 2.641-4.451 6.428 6.428 0 0 1 7.479-.003l15.488 11.075 16.72-6.666a1.782 1.782 0 0 1 1.962.433l2.255 2.383a1.8 1.8 0 0 1 .224 2.176 1.794 1.794 0 0 1-.542.557l-14.968 9.833a8.694 8.694 0 0 1-8.544.551Z"
              fill="#349D6E"/>
        <path d="M37.577 137.541a5.122 5.122 0 0 1-2.228-.461c-.312-.137-.635-.25-.946-.387-2.749-1.214-4.56-4.56-4.624-7.927a12.091 12.091 0 0 1 3.726-8.788 13.413 13.413 0 0 1 8.137-3.516c3.164-.275 6.728.642 8.496 3.655a3.526 3.526 0 0 1 .521 2.743 1.79 1.79 0 0 1-.433.759c-.79.803-1.577.2-2.382.146-1.106-.073-2.1.951-2.457 2.15-.358 1.199-.2 2.52.088 3.743l.005.023a2.057 2.057 0 0 1-.986 2.243 2.054 2.054 0 0 1-.829.259c-1.217.11-2.554.178-2.935-.001-.748-.351-1.752-.273-2.187.505-.14.288-.233.595-.276.912-.39 2.031-.3 1.911-.69 3.942Z"
              fill="#2F2E41"/>
        <path d="M34.812 210.324a4.01 4.01 0 0 0-1.423-5.979l1.834-14.124-6.644 3.244-.723 12.916a4.033 4.033 0 0 0 1.729 5.065 4.019 4.019 0 0 0 5.227-1.122Z"
              fill="#A0616A"/>
        <path d="M35.574 201.719a1.838 1.838 0 0 1-.373.087l-6.706.849a1.787 1.787 0 0 1-1.857-1.042 1.794 1.794 0 0 1-.158-.739l.053-46.882a5.69 5.69 0 0 1 1.387-3.692 5.677 5.677 0 0 1 3.453-1.899 5.654 5.654 0 0 1 6.429 6.14l-1.949 20.204.914 25.217a1.789 1.789 0 0 1-1.193 1.757Z"
              fill="#349D6E"/>
        <path d="M97.4 273H15.397a.4.4 0 0 1-.398-.398.399.399 0 0 1 .398-.399H97.4a.397.397 0 0 1 .398.399.4.4 0 0 1-.398.398Z"
              fill="#CCC"/>
        <path d="m100.209 147.158-1.982-1.983-.661.661 2.643 2.643 5.666-5.665-.661-.661-5.005 5.005Z" fill="#fff"/>
    </g>
    <defs>
        <clipPath id="a">
            <path fill="#fff" transform="translate(15 83)" d="M0 0h288.486v190H0z"/>
        </clipPath>
    </defs>
</svg>