<svg width="314" height="236" viewBox="0 0 314 236" fill="none" xmlns="http://www.w3.org/2000/svg">
    <path d="M302.632 235.146L287.951 190.878C287.951 190.878 304.099 207.013 304.099 220.252L301.2 189.637C301.2 189.637 309.481 200.807 308.653 217.769C307.825 234.732 302.632 235.146 302.632 235.146Z"
          fill="#E6E6E6"/>
    <path d="M258.092 214.775C258.116 243.196 201.705 234.454 132.644 234.513C63.5829 234.573 8.02456 243.411 8.00001 214.991C7.97546 186.571 64.3664 180.341 133.427 180.282C202.488 180.222 258.067 186.355 258.092 214.775Z"
          fill="#ECF1F4"/>
    <path d="M314 234H0V236H314V234Z" fill="#B8BDC3"/>
    <path d="M210.383 228.233L202.495 228.233L198.742 197.832L210.384 197.833L210.383 228.233Z" fill="#A0616A"/>
    <path d="M212.396 225.661L196.862 225.66H196.861C194.235 225.66 191.718 226.703 189.861 228.558C188.005 230.413 186.962 232.928 186.961 235.552V235.873L212.395 235.874L212.396 225.661Z"
          fill="#2F2E41"/>
    <path d="M271.8 224.821L264.001 225.999L255.742 196.5L265.967 194.762L271.8 224.821Z" fill="#A0616A"/>
    <path d="M273.405 221.977L258.046 224.296L258.045 224.296C255.449 224.689 253.115 226.095 251.557 228.207C249.999 230.318 249.344 232.962 249.737 235.556L249.785 235.873L274.933 232.075L273.405 221.977Z"
          fill="#2F2E41"/>
    <path d="M247.48 77.5742L238.722 79.8671L239.304 94.0553L239.377 119.888C238.514 120.484 237.853 121.328 237.48 122.308C237.108 123.288 237.042 124.358 237.291 125.376C237.541 126.394 238.094 127.313 238.877 128.01C239.66 128.708 240.637 129.151 241.678 129.282C242.719 129.412 243.775 129.224 244.707 128.742C245.638 128.26 246.401 127.507 246.895 126.582C247.389 125.657 247.59 124.604 247.472 123.562C247.354 122.521 246.922 121.539 246.234 120.748L248.925 94.8215L247.48 77.5742Z"
          fill="#A0616A"/>
    <path d="M249.005 61.3221C248.956 59.9509 248.514 58.6226 247.73 57.496C246.946 56.3694 245.854 55.4922 244.585 54.9692C243.397 54.4379 242.079 54.2649 240.794 54.4715C239.508 54.678 238.312 55.2551 237.35 56.1319C236.659 56.749 236.111 57.5093 235.744 58.3599C235.377 59.2104 235.2 60.1307 235.226 61.0565C235.202 69.3682 237.08 81.4832 237.099 81.6044L237.129 81.7971L249.931 86.1046L249.005 61.3221Z"
          fill="#CBCBCB"/>
    <path d="M226.116 84.9159L206.536 79.8516L197.485 110.31L197.164 223.78L212.136 223.686L218.395 131.847L258.285 216.708L274.37 214.779L239.305 123.811C239.305 123.811 241.236 107.738 235.123 99.7023L236.41 91.3448L226.116 84.9159Z"
          fill="#2F2E41"/>
    <path d="M239.317 92.494C239.591 92.1615 239.79 91.7741 239.9 91.3579C240.011 90.9418 240.03 90.5068 239.957 90.0825L248.888 63.3098C249.305 62.0583 249.35 60.7127 249.016 59.4365C248.682 58.1603 247.985 57.0084 247.008 56.1206L243.131 52.5992L240.504 42.0977L225.403 45.7861L226.647 50.7591L219.812 49.5179L205.417 81.5542L235.507 93.5719L236.989 93.5952C237.434 93.596 237.874 93.4975 238.277 93.3071C238.68 93.1166 239.035 92.8388 239.317 92.494Z"
          fill="#CBCBCB"/>
    <path d="M218.358 69.8884L209.73 67.1484L202.632 79.4507L188.875 101.321C187.826 101.364 186.816 101.725 185.977 102.354C185.138 102.983 184.51 103.852 184.176 104.846C183.842 105.84 183.818 106.912 184.107 107.919C184.396 108.927 184.984 109.824 185.794 110.49C186.604 111.157 187.597 111.562 188.642 111.652C189.687 111.742 190.735 111.513 191.648 110.995C192.56 110.477 193.293 109.694 193.75 108.751C194.208 107.808 194.368 106.748 194.209 105.711L210.353 85.2367L218.358 69.8884Z"
          fill="#A0616A"/>
    <path d="M228.339 56.9671C229.032 55.7826 229.368 54.4237 229.309 53.0531C229.249 51.6825 228.795 50.358 228.002 49.2381C227.282 48.1547 226.261 47.305 225.064 46.7931C223.868 46.2813 222.547 46.1295 221.266 46.3564C220.351 46.5087 219.481 46.8586 218.716 47.3814C217.951 47.9043 217.31 48.5876 216.836 49.3837C212.37 56.3958 207.476 67.6382 207.427 67.7506L207.35 67.9295L215.865 78.4072L228.339 56.9671Z"
          fill="#CBCBCB"/>
    <path d="M229.332 40.1423C222.705 40.1423 217.333 34.7746 217.333 28.1532C217.333 21.5318 222.705 16.1641 229.332 16.1641C235.958 16.1641 241.33 21.5318 241.33 28.1532C241.33 34.7746 235.958 40.1423 229.332 40.1423Z"
          fill="#A0616A"/>
    <path d="M250.535 23.0972C244.152 23.0972 238.978 17.9267 238.978 11.5486C238.978 5.17048 244.152 0 250.535 0C256.918 0 262.093 5.17048 262.093 11.5486C262.093 17.9267 256.918 23.0972 250.535 23.0972Z"
          fill="#2F2E41"/>
    <path d="M260.504 21.1125C259.009 22.1928 257.275 22.8995 255.45 23.1733C253.625 23.4472 251.761 23.2803 250.013 22.6866C248.266 22.0929 246.686 21.0896 245.406 19.7607C244.126 18.4319 243.183 16.8161 242.656 15.0485C242.856 16.6325 243.382 18.1581 244.201 19.5288C245.02 20.8995 246.115 22.0856 247.416 23.0123C248.717 23.9389 250.196 24.586 251.76 24.9125C253.324 25.2391 254.939 25.2382 256.502 24.9097C258.066 24.5813 259.544 23.9325 260.844 23.0043C262.144 22.0761 263.237 20.8887 264.055 19.517C264.873 18.1453 265.397 16.6192 265.594 15.0349C265.791 13.4506 265.658 11.8426 265.202 10.3125C265.461 12.3683 265.162 14.4557 264.335 16.356C263.508 18.2562 262.185 19.8992 260.504 21.1125Z"
          fill="#2F2E41"/>
    <path d="M214.894 21.1236C216.912 17.5142 217.684 16.0065 220.285 13.8117C222.586 11.8706 225.416 11.3006 227.698 13.1398C230.398 11.9741 233.402 11.7098 236.265 12.3861C239.127 13.0624 241.695 14.6433 243.586 16.8939C245.478 19.1445 246.593 21.9448 246.765 24.8787C246.937 27.8127 246.157 30.7239 244.541 33.1799C242.926 35.6358 240.56 37.5055 237.797 38.5112C235.033 39.5169 232.018 39.6049 229.2 38.7623C226.383 37.9196 223.912 36.1912 222.155 33.8338C220.399 31.4763 219.45 28.6156 219.451 25.6766C219.453 25.1605 219.484 24.6449 219.544 24.1323C217.56 23.8539 216.878 21.402 214.894 21.1236Z"
          fill="#2F2E41"/>
</svg>
