<svg width="314" height="236" fill="none" xmlns="http://www.w3.org/2000/svg">
    <path d="m302.632 235.146-14.681-44.268s16.148 16.135 16.148 29.374l-2.899-30.615s8.281 11.171 7.453 28.133c-.828 16.962-6.021 17.376-6.021 17.376Z"
          fill="#E6E6E6"/>
    <path d="M258.092 214.775c.024 28.42-56.387 19.678-125.448 19.738-69.061.059-124.62 8.898-124.644-19.522-.025-28.42 56.366-34.65 125.427-34.71 69.061-.059 124.64 6.074 124.665 34.494Z"
          fill="#ECF1F4"/>
    <path d="M314 234H0v2h314v-2Z" fill="#B8BDC3"/>
    <path d="m210.383 228.233-7.887-.001-3.753-30.4h11.642l-.002 30.401Z" fill="#A0616A"/>
    <path d="M212.396 225.659H196.862a9.894 9.894 0 0 0-9.9 9.891v.322l25.434.001v-10.214Z" fill="#2F2E41"/>
    <path d="m271.801 224.821-7.799 1.178-8.259-29.499 10.225-1.738 5.833 30.059Z" fill="#A0616A"/>
    <path d="m273.406 221.976-15.359 2.319h-.001a9.903 9.903 0 0 0-6.488 3.911 9.883 9.883 0 0 0-1.82 7.349l.048.317 25.148-3.798-1.528-10.098Z"
          fill="#2F2E41"/>
    <path d="m247.481 77.573-8.758 2.293.582 14.188.073 25.833a5.173 5.173 0 0 0-.5 8.122 5.18 5.18 0 0 0 8.595-4.448 5.182 5.182 0 0 0-1.238-2.814l2.691-25.926-1.445-17.248Z"
          fill="#A0616A"/>
    <path d="M249.006 61.322a7.144 7.144 0 0 0-4.42-6.353 6.687 6.687 0 0 0-7.235 1.163 6.37 6.37 0 0 0-2.124 4.925c-.024 8.311 1.854 20.426 1.873 20.547l.03.193 12.802 4.308-.926-24.783Z"
          fill="#CBCBCB"/>
    <path d="m226.117 84.916-19.58-5.064-9.051 30.458-.321 113.47 14.972-.094 6.259-91.839 39.89 84.861 16.085-1.929-35.065-90.968s1.931-16.073-4.182-24.109l1.287-8.357-10.294-6.43Z"
          fill="#2F2E41"/>
    <path d="M239.318 92.494a2.987 2.987 0 0 0 .64-2.412l8.931-26.772a6.803 6.803 0 0 0-1.88-7.19l-3.877-3.52-2.627-10.502-15.102 3.688 1.245 4.973-6.835-1.241-14.395 32.036 30.09 12.018 1.482.023a3.003 3.003 0 0 0 2.328-1.101Z"
          fill="#CBCBCB"/>
    <path d="m218.359 69.889-8.628-2.74-7.098 12.302-13.757 21.871a5.184 5.184 0 0 0-4.699 3.525 5.17 5.17 0 0 0 1.618 5.644 5.185 5.185 0 0 0 7.956-1.74 5.163 5.163 0 0 0 .459-3.039l16.144-20.475 8.005-15.348Z"
          fill="#A0616A"/>
    <path d="M228.34 56.968a7.142 7.142 0 0 0-.337-7.729 6.682 6.682 0 0 0-6.736-2.882 6.372 6.372 0 0 0-4.43 3.028c-4.466 7.012-9.36 18.254-9.409 18.367l-.077.178 8.515 10.478 12.474-21.44Z"
          fill="#CBCBCB"/>
    <path d="M229.334 40.143c-6.627 0-11.999-5.367-11.999-11.989 0-6.621 5.372-11.989 11.999-11.989 6.626 0 11.998 5.368 11.998 11.99 0 6.62-5.372 11.988-11.998 11.988Z"
          fill="#A0616A"/>
    <path d="M250.536 23.097c-6.383 0-11.557-5.17-11.557-11.548C238.979 5.17 244.153 0 250.536 0s11.558 5.17 11.558 11.549c0 6.378-5.175 11.548-11.558 11.548Z"
          fill="#2F2E41"/>
    <path d="M260.505 21.111a11.56 11.56 0 0 1-15.098-1.351 11.55 11.55 0 0 1-2.75-4.713 11.558 11.558 0 0 0 18.188 7.956 11.559 11.559 0 0 0 4.75-7.97 11.546 11.546 0 0 0-.392-4.721 11.531 11.531 0 0 1-4.698 10.8Z"
          fill="#2F2E41"/>
    <path d="M214.895 21.125c2.018-3.61 2.79-5.117 5.391-7.312 2.301-1.941 5.131-2.511 7.413-.672a13.678 13.678 0 0 1 15.888 3.754 13.65 13.65 0 0 1-5.789 21.617 13.681 13.681 0 0 1-15.642-4.677 13.648 13.648 0 0 1-2.704-8.157c.002-.517.033-1.032.093-1.545-1.984-.278-2.666-2.73-4.65-3.008Z"
          fill="#2F2E41"/>
    <path d="M109.91 155.818 87.206 56.206a5.676 5.676 0 1 1 11.174-1.902l11.53 101.514Z" fill="#F7BB3D"
          stroke="#F7BB3D" stroke-width="26" stroke-linejoin="round"/>
    <circle cx="115.708" cy="192.87" r="14.5" transform="rotate(-9.66 115.708 192.87)" fill="#F7BB3D"/>
</svg>