<svg width="410" height="284" viewBox="0 0 410 284" fill="none" xmlns="http://www.w3.org/2000/svg">
    <path d="M348.768 251.71C348.802 291.343 270.133 279.152 173.823 279.235C77.5137 279.318 0.0342453 291.644 1.1173e-05 252.01C-0.034223 212.377 78.6063 203.689 174.916 203.606C271.225 203.523 348.734 212.076 348.768 251.71Z"
          fill="#ECF1F4"/>
    <path d="M239.462 205.073L67.7127 252.439L11.1565 47.3661L182.906 0L239.462 205.073Z" fill="white"/>
    <path d="M239.462 205.073L67.7127 252.439L11.1565 47.3661L182.906 0L239.462 205.073ZM69.907 248.573L235.597 202.878L180.712 3.86552L15.022 49.5604L69.907 248.573Z"
          fill="#F1F1F1"/>
    <path d="M184.49 106.425L64.3479 139.559L65.6283 144.201L185.77 111.068L184.49 106.425Z" fill="#F1F1F1"/>
    <path d="M187.828 118.527L67.6858 151.66L68.9662 156.303L189.108 123.169L187.828 118.527Z" fill="#F1F1F1"/>
    <path d="M191.166 130.636L71.0244 163.77L72.3048 168.412L192.447 135.279L191.166 130.636Z" fill="#F1F1F1"/>
    <path d="M171.741 58.5697L51.5986 91.7031L52.879 96.3458L173.021 63.2124L171.741 58.5697Z" fill="#F1F1F1"/>
    <path d="M175.078 70.6673L54.9365 103.801L56.2169 108.443L176.359 75.31L175.078 70.6673Z" fill="#F1F1F1"/>
    <path d="M178.417 82.7767L58.2754 115.91L59.5558 120.553L179.698 87.4194L178.417 82.7767Z" fill="#F1F1F1"/>
    <path d="M197.042 151.941L76.9001 185.074L78.1805 189.717L198.322 156.583L197.042 151.941Z" fill="#F1F1F1"/>
    <path d="M200.381 164.042L80.2388 197.176L81.5192 201.819L201.661 168.685L200.381 164.042Z" fill="#F1F1F1"/>
    <path d="M203.719 176.148L83.5769 209.281L84.8573 213.924L204.999 180.791L203.719 176.148Z" fill="#F1F1F1"/>
    <path d="M294.44 251.756H116.279V39.0273H294.44V251.756Z" fill="white"/>
    <path d="M294.44 251.756H116.279V39.0273H294.44V251.756ZM119.422 248.613H291.297V42.1704H119.422V248.613Z"
          fill="#E5E5E5"/>
    <path d="M262.003 130.477H160.141V135.293H262.003V130.477Z" fill="#004B76"/>
    <path d="M262.003 142.996H160.141V147.812H262.003V142.996Z" fill="#004B76"/>
    <path d="M262.003 155.516H160.141V160.332H262.003V155.516Z" fill="#004B76"/>
    <path d="M151.86 136.731C153.595 136.731 155.003 135.324 155.003 133.588C155.003 131.853 153.595 130.445 151.86 130.445C150.124 130.445 148.717 131.853 148.717 133.588C148.717 135.324 150.124 136.731 151.86 136.731Z"
          fill="#004B76"/>
    <path d="M262.003 76.5156H160.141V81.3317H262.003V76.5156Z" fill="#E5E5E5"/>
    <path d="M262.003 89.0391H160.141V93.8551H262.003V89.0391Z" fill="#E5E5E5"/>
    <path d="M262.003 101.562H160.141V106.379H262.003V101.562Z" fill="#E5E5E5"/>
    <path d="M151.86 82.2587C153.595 82.2587 155.003 80.8516 155.003 79.1157C155.003 77.3798 153.595 75.9727 151.86 75.9727C150.124 75.9727 148.717 77.3798 148.717 79.1157C148.717 80.8516 150.124 82.2587 151.86 82.2587Z"
          fill="#E5E5E5"/>
    <path d="M262.003 184.953H160.141V189.769H262.003V184.953Z" fill="#E5E5E5"/>
    <path d="M262.003 197.477H160.141V202.293H262.003V197.477Z" fill="#E5E5E5"/>
    <path d="M262.003 209.996H160.141V214.812H262.003V209.996Z" fill="#E5E5E5"/>
    <path d="M151.86 190.685C153.595 190.685 155.003 189.277 155.003 187.541C155.003 185.806 153.595 184.398 151.86 184.398C150.124 184.398 148.717 185.806 148.717 187.541C148.717 189.277 150.124 190.685 151.86 190.685Z"
          fill="#E5E5E5"/>
    <path d="M377.196 283.901V245.328C377.196 245.328 392.228 272.675 377.196 283.901Z" fill="#01854A"/>
    <path d="M378.124 283.894L349.709 257.809C349.709 257.809 380.019 265.229 378.124 283.894Z" fill="#01854A"/>
    <path d="M255.371 182.013C255.307 181.307 255.4 180.596 255.641 179.929C255.883 179.263 256.267 178.657 256.768 178.155C257.269 177.653 257.874 177.267 258.54 177.024C259.206 176.782 259.917 176.688 260.624 176.75L265.746 166.922L272.477 168.578L265.049 182.355C264.866 183.535 264.257 184.607 263.338 185.367C262.418 186.128 261.251 186.525 260.058 186.483C258.865 186.441 257.729 185.963 256.865 185.139C256.001 184.315 255.469 183.203 255.371 182.013Z"
          fill="#FFB7B7"/>
    <path d="M285.947 277.757L280.267 277.757L277.564 255.848L285.948 255.848L285.947 277.757Z" fill="#FFB7B7"/>
    <path d="M287.396 283.259L269.08 283.259V283.027C269.08 281.137 269.832 279.323 271.168 277.986C272.505 276.65 274.318 275.899 276.209 275.898L287.396 275.899L287.396 283.259Z"
          fill="#2F2E41"/>
    <path d="M331.631 273.517L326.151 275.011L317.779 254.584L325.867 252.379L331.631 273.517Z" fill="#FFB7B7"/>
    <path d="M334.477 278.445L316.807 283.264L316.746 283.04C316.249 281.216 316.497 279.269 317.435 277.628C318.373 275.986 319.924 274.784 321.748 274.287L332.541 271.344L334.477 278.445Z"
          fill="#2F2E41"/>
    <path d="M275.577 183.112L272.743 226.139L278.83 274.413L288.799 271.37L289.219 228.238L297.195 203.366L320.808 269.796L331.616 265.808L322.696 222.676L317.659 182.168L275.577 183.112Z"
          fill="#2F2E41"/>
    <path d="M303.124 107.562L286.335 110.038L280.287 116.02L278.409 137.512L279.575 156.549L274.713 190.119C274.713 190.119 286.94 183.332 296.415 191.828C305.891 200.325 319.149 193.33 319.422 187.678L303.124 107.562Z"
          fill="#CBCBCB"/>
    <path d="M294.598 134.516L294.598 134.492L302.938 107.306L303.046 107.299C303.639 107.261 317.622 106.437 320.75 113.341L320.765 113.374L319.815 141.625L321.123 185.871L295.262 191.472L295.074 191.513L294.598 134.516Z"
          fill="#4E596A"/>
    <path d="M285.356 132.632L286.886 109.586C276.005 110.263 276.169 117.978 276.181 118.314L276.062 152.786L273.883 189.665L281.807 189.071L285.356 132.632Z"
          fill="#4E596A"/>
    <path d="M260.819 174.564L270.48 152.144L277.222 139.762L280.743 162.098L268.52 180.431L260.819 174.564Z"
          fill="#4E596A"/>
    <path d="M300.744 166.32C300.892 165.627 301.19 164.974 301.618 164.408C302.045 163.843 302.591 163.378 303.218 163.046C303.845 162.714 304.536 162.524 305.244 162.488C305.952 162.453 306.66 162.573 307.316 162.84L315.11 154.961L321.053 158.529L309.891 169.502C309.369 170.575 308.471 171.419 307.367 171.875C306.264 172.331 305.032 172.366 303.904 171.973C302.777 171.581 301.833 170.789 301.25 169.747C300.668 168.705 300.488 167.486 300.744 166.32Z"
          fill="#FFB7B7"/>
    <path d="M307.298 159.961L323.189 142.529L312.67 127.52L313.753 120.182L319.952 112.523L320.073 112.68C320.734 113.535 336.263 133.709 336.708 141.347C337.155 149.012 314.835 168.403 313.885 169.224L313.753 169.339L307.298 159.961Z"
          fill="#4E596A"/>
    <path d="M293.436 105.666C299.674 105.666 304.73 100.61 304.73 94.3723C304.73 88.1347 299.674 83.0781 293.436 83.0781C287.199 83.0781 282.142 88.1347 282.142 94.3723C282.142 100.61 287.199 105.666 293.436 105.666Z"
          fill="#FFB7B7"/>
    <path d="M304.058 85.3469L304.606 84.2448L301.851 82.876C301.851 82.876 298.811 77.9308 293.312 79.3205C287.812 80.7102 285.338 81.5419 285.338 81.5419L282.59 82.9247L283.969 84.297L281.494 85.1287L283.147 85.95L281.224 87.0555L282.26 92.7227C282.26 92.7227 283.979 88.4243 287.285 90.0669C290.591 91.7095 296.639 89.2178 296.639 89.2178L301.892 99.3855C301.892 99.3855 302.976 95.8212 304.909 96.7716C304.909 96.7716 309.845 88.9093 304.058 85.3469Z"
          fill="#2F2E41"/>
    <path d="M409.467 283.688H206.312C206.171 283.688 206.035 283.631 205.935 283.531C205.835 283.431 205.779 283.296 205.779 283.154C205.779 283.013 205.835 282.877 205.935 282.777C206.035 282.677 206.171 282.621 206.312 282.621H409.467C409.608 282.621 409.744 282.677 409.844 282.777C409.944 282.877 410 283.013 410 283.154C410 283.296 409.944 283.431 409.844 283.531C409.744 283.631 409.608 283.688 409.467 283.688Z"
          fill="#CBCBCB"/>
</svg>
