<svg width="243" height="157" fill="none" xmlns="http://www.w3.org/2000/svg"><path d="m214.108 42.971 7.894 17.726-1.899 21.922a3.706 3.706 0 0 0 .416 5.968 3.732 3.732 0 0 0 4.347-.264 3.71 3.71 0 0 0 1.121-4.196 3.711 3.711 0 0 0-1.434-1.778l.31-.054 3.092-21.907-5.101-22.097-8.746 4.68Z" fill="#FFB8B8"/><path d="M114.95 0H2.207C1.653 0 1.123.22.731.61.34 1 .119 1.53.119 2.082v96.113c0 .552.22 1.08.612 1.471.392.39.922.61 1.476.61H114.95a2.09 2.09 0 0 0 2.089-2.081V2.082A2.092 2.092 0 0 0 114.95 0Zm1.25 98.195a1.25 1.25 0 0 1-1.25 1.251H2.207a1.255 1.255 0 0 1-1.25-1.251V2.082A1.248 1.248 0 0 1 2.207.831H114.95a1.258 1.258 0 0 1 1.25 1.251v96.113Z" fill="#3F3D56"/><path d="M28.23 83.188a8.468 8.468 0 0 1-2.65 6.147 8.518 8.518 0 0 1-5.854 2.328 8.518 8.518 0 0 1-5.854-2.329 8.467 8.467 0 0 1-2.65-6.147c0-2.248.896-4.405 2.49-5.995a8.517 8.517 0 0 1 6.014-2.483c2.256 0 4.419.893 6.014 2.483a8.465 8.465 0 0 1 2.49 5.996Z" fill="#349D6E"/><path d="M211.414 20.943c4.332 0 7.844-3.501 7.844-7.82 0-4.32-3.512-7.821-7.844-7.821-4.333 0-7.845 3.501-7.845 7.82 0 4.32 3.512 7.82 7.845 7.82Z" fill="#FFB8B8"/><path d="M195.898 54.829 216.5 58.65c6.946-12.686 10.777-24.14 4.312-31.526l-12.217-.716c-7.807 8.322-14.409 16.4-9.923 22.212l-2.774 6.209Z" fill="#349D6E"/><path d="M214.244 44.868c4.715 1.799 9.091.236 13.108-4.89l-5.953-11.45-7.586 1.498.431 14.842Z" fill="#349D6E"/><path d="m193.98 149.884 8.145-.418 5.27-54.99 26.831 54.693 8.385-.239-16.049-48.007c-.634-16.016-1.296-31.99-8.145-38.93l-2.396-5.015-19.165-4.06-2.635 5.016c-6.11 14.223-2.522 54.863-.241 91.95Z" fill="#2F2E41"/><path d="m203.802 39.783-6.707 18.153-12.163 17.256c-.78.05-1.525.345-2.128.84a3.71 3.71 0 0 0-1.103 4.201 3.714 3.714 0 0 0 1.441 1.772 3.733 3.733 0 0 0 4.351-.207 3.713 3.713 0 0 0 1.265-1.901c.211-.75.18-1.548-.09-2.28l.281.14 15.572-15.761 9.103-20.78-9.822-1.433Z" fill="#FFB8B8"/><path d="M202.127 39.783c3.356 3.76 7.962 4.378 13.894 1.672V28.558l-7.426-2.15-6.468 13.375Z" fill="#349D6E"/><path d="M236.016 34.9c-1.193-1.488-2.858-2.51-4.472-3.528-1.614-1.018-3.253-2.099-4.35-3.658-1.751-2.488-1.834-5.761-1.573-8.789.261-3.027.796-6.12.055-9.068-.979-3.9-4.22-7.058-8.049-8.317-3.83-1.26-8.137-.722-11.739 1.085l.99-.932a3.928 3.928 0 0 0-3.101 3.259 3.925 3.925 0 0 0 1.993 4.028c1.625.893 3.839.637 5.145 1.95 1.285 1.296 1.016 3.421.552 5.183-1.201 4.562-3.106 8.953-3.765 13.621-.66 4.669.174 9.9 3.648 13.099 2.554 2.352 6.183 3.259 9.659 3.19 3.476-.07 6.867-1.018 10.212-1.96 2.346-.662 4.993-1.578 5.911-3.83.72-1.763.077-3.845-1.116-5.333ZM202.331 156.178h-17.488v-.221c0-1.8.717-3.526 1.993-4.798a6.817 6.817 0 0 1 4.813-1.988h.001l10.681.001v7.006ZM242.869 155.505l-17.489-.001v-.22c0-1.8.718-3.526 1.994-4.799a6.82 6.82 0 0 1 4.813-1.987H242.869v7.007Z" fill="#2F2E41"/><path fill="#01854A" d="M38 13h117v54H38zM38 78h70v3H38z"/><path fill="#4E596A" d="M38 86h31v3H38z"/><path fill="#fff" d="M49 30h70v3H49zM49 38h70v3H49zM49 46h31v3H49z"/></svg>