<svg width="433" height="388" fill="none" xmlns="http://www.w3.org/2000/svg">
    <mask id="a" style="mask-type:alpha" maskUnits="userSpaceOnUse" x="0" y="0" width="433" height="388">
        <path fill="#D9D9D9" d="M0 0h433v388H0z"/>
    </mask>
    <g mask="url(#a)">
        <path d="M239.216 37.094h65.355c52.669 0 81.792 8.074 132.146 20.264 61.808 14.962 126.445 24.43 167.841 71.361 24.305 27.556 46.836 60.113 49.267 95.628 2.12 30.977-15.235 56.486-41.726 76.177-54.269 40.336-129.555 59.89-197.646 73.8-79.053 16.15-163.234 17.903-243.321 5.754-53.862-8.17-114.507-27.123-149.096-66.17-20.393-23.021-23.673-48.562-19.391-76.677 5.083-33.379 23.289-62.797 44.24-90.562 23.442-31.065 49.034-62.515 83.956-84.558 16.542-10.441 34.497-19.529 54.798-22.89 17.516-2.901 35.844-2.127 53.577-2.127Z"
              fill="#ECF1F4"/>
        <g clip-path="url(#b)">
            <path d="M272.29 141.012c-15.091 0-23.276-1.84-26.134-5.767-2.523-3.466-.832-8.038 1.126-13.332 1.408-3.805 3.002-8.118 3.002-12.386 0-20.76 10.551-31.287 31.359-31.287 10.353 0 21.469 5.487 29.735 14.678 7.515 8.355 11.259 18.356 10.272 27.436-.81 7.447-4.284 12.345-10.934 15.414l-.389.179-.11-.413a17.651 17.651 0 0 0-2.865-5.927 20.244 20.244 0 0 1-2.073 8.036l-.071.143-.153.044c-7.526 2.139-16.458 2.718-23.398 2.984-3.379.131-6.501.197-9.367.198Z"
                  fill="#2F2E41"/>
            <path d="M276.403 169.938a11.294 11.294 0 0 0-7.427-7.158 11.311 11.311 0 0 0-10.157 1.861l-49.637 29.609-15.533-37.813a10.982 10.982 0 0 0-.392-12.932 11.028 11.028 0 0 0-5.635-3.828 11.055 11.055 0 0 0-6.815.209 11.023 11.023 0 0 0-5.388 4.167 10.985 10.985 0 0 0 .407 12.932 11.032 11.032 0 0 0 5.639 3.822c.958 10.904 6.278 59.641 24.787 57.869 15.557-1.489 54.192-27.161 66.192-36.062a11.27 11.27 0 0 0 4.049-5.695 11.24 11.24 0 0 0-.09-6.981Z"
                  fill="#FFB6B6"/>
            <path d="M313.808 385h-43.202l-7.245-35.739-2.35 35.739H220.88a814.672 814.672 0 0 1 4.39-84.03l.497-1.69.786-2.705.497-1.697 8.305-28.454.656-2.258h50.007a73.086 73.086 0 0 1 7.937 8.746 101.98 101.98 0 0 1 2.538 3.366 116.45 116.45 0 0 1 1.86 2.697 90.532 90.532 0 0 1 12.327 27.044v.007a77.6 77.6 0 0 1 1.168 5.057v.007c.302 1.532.569 3.086.778 4.675a68.59 68.59 0 0 1 .397 3.517 80.425 80.425 0 0 1-.628 19.722L313.808 385Z"
                  fill="#2F2E41"/>
            <path d="M84.749 58.202c2.806-1.083 4.468-3.54 3.712-5.488-.755-1.947-3.642-2.647-6.448-1.564-2.806 1.084-4.468 3.54-3.712 5.488.755 1.948 3.642 2.648 6.448 1.564Z"
                  fill="#B8BDC3"/>
            <path d="M120.075 53.68c2.805-1.083 4.467-3.54 3.712-5.487-.756-1.947-3.643-2.648-6.448-1.564-2.806 1.084-4.468 3.54-3.713 5.488.756 1.947 3.643 2.648 6.449 1.564Z"
                  fill="#3F3D56"/>
            <path d="M81.685 88.273c2.806-1.084 4.468-3.54 3.712-5.488-.755-1.948-3.642-2.648-6.448-1.564-2.805 1.083-4.468 3.54-3.712 5.488.756 1.947 3.642 2.647 6.448 1.564Z"
                  fill="#97CCB4"/>
            <path d="M71.466 101.537c1.287-.304 1.975-2.047 1.537-3.893-.438-1.846-1.836-3.096-3.123-2.792-1.287.304-1.976 2.047-1.538 3.893.438 1.846 1.837 3.096 3.124 2.792Z"
                  fill="#B8BDC3"/>
            <path d="M71.255 123.994c1.288-.304 1.976-2.047 1.538-3.893-.438-1.846-1.836-3.096-3.124-2.792-1.287.304-1.975 2.047-1.537 3.893.438 1.846 1.836 3.096 3.123 2.792Z"
                  fill="#3F3D56"/>
            <path d="M102.26 77.48c1.287-.303 1.975-2.047 1.537-3.893-.438-1.846-1.836-3.096-3.123-2.792-1.287.304-1.976 2.047-1.538 3.893.438 1.846 1.837 3.096 3.124 2.793Z"
                  fill="#B8BDC3"/>
            <path d="M83.655 72.973c1.287-.304 1.975-2.047 1.537-3.893-.438-1.846-1.836-3.097-3.123-2.793-1.287.304-1.976 2.047-1.538 3.893.438 1.846 1.837 3.097 3.124 2.793Z"
                  fill="#97CCB4"/>
            <path d="M103.375 52.294c1.287-.304 1.975-2.047 1.537-3.893-.438-1.846-1.836-3.097-3.123-2.793-1.287.304-1.976 2.047-1.538 3.894.438 1.845 1.837 3.096 3.124 2.792Z"
                  fill="#3F3D56"/>
            <path d="M112.546 207.722c1.357-1.59.599-4.456-1.692-6.402-2.291-1.946-5.248-2.234-6.604-.644-1.357 1.59-.599 4.457 1.692 6.402 2.291 1.946 5.248 2.234 6.604.644Z"
                  fill="#B8BDC3"/>
            <path d="M91.741 178.881c1.357-1.59.6-4.457-1.692-6.402-2.29-1.946-5.248-2.234-6.604-.644-1.357 1.59-.6 4.456 1.692 6.402 2.29 1.946 5.248 2.234 6.604.644Z"
                  fill="#3F3D56"/>
            <path d="M140.508 196.092c1.357-1.59.599-4.456-1.692-6.402-2.291-1.946-5.248-2.234-6.604-.644-1.357 1.59-.599 4.457 1.692 6.402 2.291 1.946 5.247 2.234 6.604.644Z"
                  fill="#97CCB4"/>
            <path d="M154.399 196.41c1.419-1.263 1.854-3.085.974-4.07-.881-.984-2.745-.758-4.164.505-1.418 1.263-1.854 3.085-.973 4.07.88.985 2.744.759 4.163-.505Z"
                  fill="#B8BDC3"/>
            <path d="M174.292 185.902c1.418-1.263 1.854-3.085.973-4.07-.88-.984-2.744-.759-4.163.505-1.418 1.263-1.854 3.085-.974 4.07.881.984 2.745.758 4.164-.505Z"
                  fill="#3F3D56"/>
            <path d="M118.534 180.847c1.419-1.263 1.854-3.086.974-4.07-.881-.985-2.745-.759-4.164.504-1.418 1.264-1.854 3.086-.973 4.07.88.985 2.744.759 4.163-.504Z"
                  fill="#B8BDC3"/>
            <path d="M123.42 199.317c1.418-1.263 1.854-3.086.973-4.07-.88-.985-2.744-.759-4.163.504-1.418 1.264-1.854 3.086-.974 4.07.881.985 2.745.759 4.164-.504Z"
                  fill="#97CCB4"/>
            <path d="M95.805 191.861c1.418-1.263 1.854-3.085.973-4.07-.88-.984-2.745-.759-4.163.505-1.419 1.263-1.855 3.085-.974 4.07.881.984 2.745.758 4.163-.505Z"
                  fill="#3F3D56"/>
            <path d="M252.316 22.745c1.878-.922 2.324-3.852.996-6.546-1.328-2.694-3.926-4.13-5.805-3.209-1.878.922-2.324 3.853-.996 6.546 1.328 2.694 3.927 4.13 5.805 3.209Z"
                  fill="#B8BDC3"/>
            <path d="M259.925 57.459c1.878-.922 2.324-3.852.996-6.546-1.327-2.694-3.926-4.13-5.804-3.208-1.878.921-2.324 3.852-.997 6.545 1.328 2.694 3.927 4.13 5.805 3.209Z"
                  fill="#3F3D56"/>
            <path d="M222.024 22.335c1.878-.922 2.324-3.853.997-6.546-1.328-2.694-3.927-4.13-5.805-3.209-1.878.922-2.324 3.852-.996 6.546 1.327 2.694 3.926 4.13 5.804 3.209Z"
                  fill="#97CCB4"/>
            <path d="M206.103 11.318c1.804-.597 2.93-2.096 2.514-3.349-.417-1.253-2.217-1.784-4.022-1.187-1.805.597-2.93 2.096-2.514 3.35.416 1.252 2.217 1.783 4.022 1.186Z"
                  fill="#B8BDC3"/>
            <path d="M183.663 13.077c1.805-.597 2.93-2.097 2.514-3.35-.416-1.252-2.217-1.783-4.022-1.186-1.804.597-2.93 2.096-2.514 3.349.417 1.252 2.217 1.784 4.022 1.187Z"
                  fill="#3F3D56"/>
            <path d="M232.819 39.817c1.805-.597 2.931-2.097 2.514-3.35-.416-1.252-2.217-1.784-4.021-1.187-1.805.597-2.931 2.097-2.514 3.35.416 1.252 2.216 1.784 4.021 1.187Z"
                  fill="#B8BDC3"/>
            <path d="M235.69 20.93c1.804-.597 2.93-2.096 2.514-3.349-.416-1.253-2.217-1.784-4.022-1.187-1.805.597-2.93 2.096-2.514 3.349.416 1.253 2.217 1.784 4.022 1.187Z"
                  fill="#97CCB4"/>
            <path d="M258.064 38.718c1.804-.597 2.93-2.096 2.514-3.35-.416-1.252-2.217-1.783-4.022-1.186-1.805.597-2.93 2.096-2.514 3.349.416 1.253 2.217 1.784 4.022 1.187Z"
                  fill="#3F3D56"/>
            <path d="m264.991 146.792 23.801-1.224 11.055 17.429s20.8 3.469 19.358 27.924c-1.442 24.454-25.307 45.913-25.307 45.913l1.02 12.735-1.772 5.051.227 2.837 2.417 3.003.249 3.107-2.141 4.914 2.912 4.706-61.227-5.918-2.239-8.138 3.266-4.37-1.825-5.699 2.743-5.482 1.43-17.414s-15.646-23.453 2.315-41.118l7.209-12.227 8.066-9.819 8.443-16.21Z"
                  fill="#349D6E"/>
            <path d="M276.824 141.871c13.928 0 25.219-11.266 25.219-25.163s-11.291-25.162-25.219-25.162c-13.929 0-25.22 11.265-25.22 25.162 0 13.897 11.291 25.163 25.22 25.163Z"
                  fill="#FFB6B6"/>
            <path d="M273.447 115.183c-2.173 0-4.345-.061-6.516-.183l-.388-.022.051-.384c.32-2.402.14-4.844-.529-7.173a20.29 20.29 0 0 1-4.954 6.982l-.121.11-.162-.018a124.583 124.583 0 0 1-17.481-3.181l-.22-.056-.044-.222a32.934 32.934 0 0 1-.664-6.386c0-6.7 2.435-12.34 6.857-15.88 4.812-3.852 11.71-5.037 19.43-3.338h24.687a10.26 10.26 0 0 1 7.235 2.995 10.214 10.214 0 0 1 3.002 7.219v15.597l-.27.071a118.364 118.364 0 0 1-29.913 3.869Z"
                  fill="#2F2E41"/>
            <path d="M101.363 87.194a4.44 4.44 0 0 0-2.502 2.292 4.424 4.424 0 0 0-.148 3.385l26.631 72.91a4.442 4.442 0 0 0 5.69 2.644l103.362-37.585a4.426 4.426 0 0 0 2.651-5.676l-26.632-72.91a4.436 4.436 0 0 0-2.297-2.496 4.453 4.453 0 0 0-3.393-.149L101.363 87.195Z"
                  fill="#CCC"/>
            <path d="m195.927 140.809-63.268 23.006a4.792 4.792 0 0 1-3.652-.16 4.775 4.775 0 0 1-2.472-2.686L102.38 94.84a4.762 4.762 0 0 1 .16-3.643 4.778 4.778 0 0 1 2.693-2.467l97.521-35.46a4.793 4.793 0 0 1 3.652.16 4.776 4.776 0 0 1 2.472 2.686l11.671 31.952a41.103 41.103 0 0 1-1.38 31.45 41.244 41.244 0 0 1-23.242 21.291Z"
                  fill="#fff"/>
            <path d="m150.402 93.037-15.035 5.467a1.527 1.527 0 0 1-1.556-2.556c.148-.136.321-.24.51-.31l15.035-5.466a1.53 1.53 0 0 1 1.959.91 1.526 1.526 0 0 1-.913 1.955ZM186.245 86.64l-48.738 17.723c-.188.069-.388.1-.589.091a1.518 1.518 0 0 1-1.462-1.589 1.527 1.527 0 0 1 1.005-1.367l48.738-17.722a1.527 1.527 0 0 1 1.556 2.556c-.148.135-.321.24-.51.309ZM188.702 93.366l-48.738 17.722a1.518 1.518 0 0 1-1.169-.05 1.529 1.529 0 0 1-.739-2.026c.084-.182.204-.345.352-.48s.321-.24.509-.309l48.738-17.722a1.532 1.532 0 0 1 1.957.911 1.527 1.527 0 0 1-.91 1.954ZM191.158 100.091l-48.737 17.722a1.54 1.54 0 0 1-1.17-.049 1.518 1.518 0 0 1-.387-2.507 1.54 1.54 0 0 1 .51-.309l48.738-17.721a1.527 1.527 0 0 1 1.556 2.556c-.148.135-.321.24-.51.308ZM193.615 106.817l-48.738 17.722a1.53 1.53 0 0 1-1.959-.911 1.522 1.522 0 0 1 .913-1.954l48.737-17.722a1.52 1.52 0 0 1 1.169.05 1.533 1.533 0 0 1 .79.86 1.51 1.51 0 0 1-.05 1.166 1.52 1.52 0 0 1-.862.789Z"
                  fill="#349D6E"/>
            <path d="m348.259 125.494-26.684 63.712a11.154 11.154 0 0 1-6.001 5.961 11.193 11.193 0 0 1-12.22-2.436 11.142 11.142 0 0 1-3.239-8.188c.046-1.513.4-3.001 1.04-4.372l29.752-65.333 16.402-40.459a9.708 9.708 0 0 1-1.954-10.991 9.737 9.737 0 0 1 3.961-4.317 9.767 9.767 0 0 1 11.146.974 9.724 9.724 0 0 1 3.148 4.938 9.707 9.707 0 0 1-3.838 10.485l-11.513 50.026Z"
                  fill="#FFB6B6"/>
        </g>
    </g>
    <defs>
        <clipPath id="b">
            <path fill="#fff" transform="translate(68)" d="M0 0h340v385H0z"/>
        </clipPath>
    </defs>
</svg>