<svg width="469" height="381" fill="none" xmlns="http://www.w3.org/2000/svg">
    <path d="M277.216 25.094h65.355c52.669 0 81.792 8.074 132.146 20.264 61.808 14.963 126.445 24.43 167.841 71.361 24.305 27.556 46.836 60.113 49.267 95.628 2.12 30.977-15.235 56.486-41.726 76.177-54.269 40.336-129.555 59.89-197.646 73.8-79.053 16.15-163.234 17.903-243.321 5.754-53.862-8.17-114.507-27.123-149.096-66.17-20.393-23.021-23.673-48.562-19.391-76.677 5.083-33.379 23.289-62.797 44.24-90.562 23.442-31.065 49.034-62.515 83.956-84.558 16.542-10.441 34.497-19.529 54.798-22.89 17.516-2.901 35.844-2.127 53.577-2.127Z"
          fill="#ECF1F4"/>
    <path d="M255.219 234.009c0 64.26-38.202 86.697-85.326 86.697-47.124 0-85.325-22.437-85.325-86.697S169.893 88 169.893 88s85.326 81.749 85.326 146.009Z"
          fill="#97CCB4"/>
    <path d="m166.785 310.876.873-53.78 36.369-66.533-36.232 58.097.393-24.182 25.065-48.136-24.961 41.737.707-43.492 26.84-38.322-26.729 31.483.441-79.748-2.774 105.572.228-4.354-27.288-41.77 26.851 50.13-2.543 48.572-.076-1.289-31.458-43.955 31.363 48.51-.318 6.074-.057.092.026.499-6.451 123.233h8.619l1.034-63.653 31.286-48.391-31.208 43.606Z"
          fill="#4E596A"/>
    <path d="m82.815 314.287-4.791-7.985 44.719-38.331h114.992v11.18L196.21 323.87l-47.913 9.583-65.482-19.166Z"
          fill="#4E596A"/>
    <path d="M257.531 290.465v-24.988h-15.056v7.88l-4.739-5.386-38.331 38.331-6.388 6.388-7.986 31.942 14.374 35.137h73.467v-71.87l-15.341-17.434Z"
          fill="#DCDEE1"/>
    <path d="M199.405 306.302H78.025v73.467h121.38v-73.467Z" fill="#fff"/>
    <path d="M182.635 329.46h-25.554v22.359h25.554V329.46Z" fill="#4E596A"/>
    <path d="M146.699 328.661H124.34v51.108h22.359v-51.108Z" fill="#B8BDC3"/>
    <path d="M98.786 336.647v-7.986h-9.583v7.986H98.787ZM97.987 343.035h-8.784v7.986h9.583v-7.986h-.799ZM114.758 328.661h-9.583v7.986h9.583v-7.986ZM114.758 343.035h-9.583v7.986h9.583v-7.986ZM233.743 337.445v-7.985h-9.583v7.985h9.583ZM232.944 343.834h-8.784v7.985h9.583v-7.985h-.799ZM249.714 329.46h-9.583v7.985h9.583v-7.985ZM249.714 343.834h-9.583v7.985h9.583v-7.985Z"
          fill="#4E596A"/>
    <path d="M285.491 332.336h-1.202v47.474h1.202v-47.474Z" fill="#3F3D56"/>
    <path d="M296.583 338.386c.077 16.601-11.603 30.112-11.603 30.112s-11.803-13.403-11.879-30.003c-.077-16.601 11.602-30.112 11.602-30.112s11.804 13.403 11.88 30.003Z"
          fill="#349D6E"/>
    <path d="M66.753 331.135H65.55v47.473h1.202v-47.473Z" fill="#3F3D56"/>
    <path d="M77.844 337.184c.076 16.601-11.603 30.112-11.603 30.112s-11.803-13.403-11.88-30.003c-.076-16.601 11.603-30.112 11.603-30.112s11.803 13.403 11.88 30.003Z"
          fill="#97CCB4"/>
    <path d="M51.129 331.135h-1.202v47.473h1.202v-47.473Z" fill="#3F3D56"/>
    <path d="M62.22 337.184c.077 16.601-11.602 30.112-11.602 30.112s-11.804-13.403-11.88-30.003c-.077-16.601 11.603-30.112 11.603-30.112s11.803 13.403 11.88 30.003Z"
          fill="#349D6E"/>
    <path d="M316.089 378.85H0v1.202h316.089v-1.202Z" fill="#3F3D56"/>
    <path d="M318.779 7.625 328 .105c-7.163-.805-10.107 3.178-11.311 6.33-5.597-2.369-11.689.736-11.689.736L323.45 14a14.215 14.215 0 0 0-4.671-6.375ZM355.779 72.625l9.221-7.52c-7.163-.806-10.107 3.178-11.311 6.33-5.597-2.369-11.689.736-11.689.736L360.45 79a14.215 14.215 0 0 0-4.671-6.375Z"
          fill="#004B76"/>
</svg>