<svg width="354" height="379" fill="none" xmlns="http://www.w3.org/2000/svg">
    <path d="M194.159.076h53.267c42.928 0 66.666 6.581 107.707 16.517 50.376 12.195 103.059 19.911 136.799 58.163 19.81 22.46 38.174 48.995 40.156 77.942 1.728 25.248-12.418 46.039-34.01 62.088-44.231 32.876-105.594 48.814-161.091 60.151-64.433 13.163-133.045 14.592-198.321 4.69-43.9-6.659-93.328-22.107-121.52-53.932C.523 206.932-2.15 186.114 1.34 163.199c4.143-27.206 18.981-51.183 36.058-73.813 19.106-25.32 39.965-50.953 68.429-68.92 13.482-8.51 28.116-15.916 44.663-18.656C164.767-.555 179.706.076 194.159.076Z"
          fill="#ECF1F4"/>
    <g clip-path="url(#a)">
        <path d="m70.285 297.753-.347.891L262.86 373.73l.347-.89-192.923-75.087Z" fill="#4E596A"/>
        <path d="M208.14 49.865 100.904 78.097a2.973 2.973 0 0 0-1.16.632c-.372.326-.69.71-.94 1.136a6.217 6.217 0 0 0-.865 3.144V241.88c0 .555.078 1.107.232 1.64.141.496.354.97.632 1.405.25.395.569.743.942 1.026.339.259.737.43 1.159.498l107.236 15.768a4.113 4.113 0 0 0 1.857-.142 3.948 3.948 0 0 0 1.525-.909 4.407 4.407 0 0 0 1.034-1.533 5.284 5.284 0 0 0 .382-2.006V53.899a4.969 4.969 0 0 0-.382-1.963 3.743 3.743 0 0 0-1.034-1.412 3.424 3.424 0 0 0-1.525-.732 4.08 4.08 0 0 0-1.857.073Z"
              fill="#F2F2F2"/>
        <path d="M103.547 82.555a2.118 2.118 0 0 0-.817.454c-.261.23-.484.5-.66.8a4.306 4.306 0 0 0-.591 2.218v152.424c-.005.39.046.779.151 1.154.097.351.245.685.439.992.175.28.398.526.66.727.239.184.519.307.817.358l100.448 13.515a2.8 2.8 0 0 0 1.268-.139c.39-.14.743-.367 1.033-.662a3.13 3.13 0 0 0 .69-1.082c.169-.445.25-.918.241-1.395V60.265a3.531 3.531 0 0 0-.241-1.367 2.672 2.672 0 0 0-.69-1.001 2.376 2.376 0 0 0-1.033-.542 2.743 2.743 0 0 0-1.268.009l-100.447 25.19Z"
              fill="#fff"/>
        <path d="M107.796 88.649a1.285 1.285 0 0 0-.554.303c-.18.166-.332.36-.449.576-.134.242-.236.5-.304.77a3.529 3.529 0 0 0-.113.879v21.229c-.002.282.035.562.111.833.063.231.166.45.303.646.116.166.271.301.452.393a.894.894 0 0 0 .553.078l89.781-15.44c.296-.055.576-.175.82-.352.262-.19.489-.425.672-.692.197-.287.35-.602.455-.934.11-.348.166-.71.167-1.075V69.868a2.977 2.977 0 0 0-.167-1.007 2.122 2.122 0 0 0-.455-.75 1.533 1.533 0 0 0-1.492-.439l-89.78 20.977Z"
              fill="#F2F2F2"/>
        <path d="m115.662 89.878 70.763-16.022v5.414l-70.763 15.25v-4.642ZM115.785 99.635l70.808-14.403v2.515l-70.808 14.043v-2.156ZM115.785 103.449l70.808-13.767v2.514l-70.808 13.409v-2.156ZM115.785 107.263l70.808-13.132v2.515l-70.808 12.773v-2.156ZM155.046 172.983l35.908-1.016c.125-.003.248-.028.365-.072.118-.045.229-.108.328-.187a1.426 1.426 0 0 0 .458-.653 1.613 1.613 0 0 0-.05-1.212 1.394 1.394 0 0 0-.22-.333l-23.672-26.207a1.003 1.003 0 0 0-.375-.265.922.922 0 0 0-.425-.061c-.15.015-.295.062-.425.138a1.282 1.282 0 0 0-.373.33l-5.507 7.107a2.588 2.588 0 0 1-.763.673 2.042 2.042 0 0 1-.864.269 1.854 1.854 0 0 1-.861-.14 2.065 2.065 0 0 1-.755-.556l-16.231-18.625a.861.861 0 0 0-.334-.241.778.778 0 0 0-.379-.048.906.906 0 0 0-.379.139c-.13.085-.243.194-.333.32l-28.515 39.66a1.33 1.33 0 0 0-.156.29 1.585 1.585 0 0 0-.035 1.019c.032.105.077.206.135.3.051.084.115.161.189.227.068.06.147.109.232.142.082.033.17.048.259.045l42.82-1.227-.042.184ZM118.517 129.454c.463-.062.935.003 1.364.19.437.193.822.487 1.124.857.338.415.595.89.758 1.399.189.581.283 1.188.28 1.799 0 .632-.094 1.262-.28 1.867a5.73 5.73 0 0 1-.758 1.583 4.344 4.344 0 0 1-1.122 1.132c-.406.281-.874.46-1.364.519a2.565 2.565 0 0 1-1.358-.215 3.076 3.076 0 0 1-1.102-.873 4.319 4.319 0 0 1-.742-1.39 5.736 5.736 0 0 1-.271-1.773c0-.623.091-1.242.271-1.838a5.745 5.745 0 0 1 .74-1.57 4.38 4.38 0 0 1 1.102-1.141 3.082 3.082 0 0 1 1.358-.546ZM155.046 240.007l35.906 4.167a1.054 1.054 0 0 0 .693-.16c.102-.067.193-.15.269-.246a1.28 1.28 0 0 0 .189-.341 1.45 1.45 0 0 0 .09-.4 1.665 1.665 0 0 0-.14-.821 1.73 1.73 0 0 0-.22-.364l-23.67-29.622a1.217 1.217 0 0 0-.375-.317.997.997 0 0 0-.426-.122.954.954 0 0 0-.425.075 1.05 1.05 0 0 0-.373.277l-5.506 6.311a2.103 2.103 0 0 1-.763.563 1.865 1.865 0 0 1-.864.144 2.028 2.028 0 0 1-.861-.265 2.555 2.555 0 0 1-.755-.664l-16.231-20.969a1.065 1.065 0 0 0-.334-.289.843.843 0 0 0-.379-.103.8.8 0 0 0-.379.085.97.97 0 0 0-.335.271l-28.513 35.548a1.092 1.092 0 0 0-.156.268c-.041.102-.07.209-.085.318a1.6 1.6 0 0 0 .05.697c.032.111.077.218.134.319.052.093.116.179.19.255.068.07.146.13.231.176a.727.727 0 0 0 .26.083l42.82 4.95-.042.176ZM118.517 191.207c.48.008.95.141 1.364.384.44.261.822.609 1.122 1.023.335.457.591.967.758 1.508a6.1 6.1 0 0 1 .28 1.839 5.95 5.95 0 0 1-.28 1.826 4.831 4.831 0 0 1-.758 1.474c-.3.399-.683.73-1.122.97a2.69 2.69 0 0 1-1.364.322 2.812 2.812 0 0 1-1.358-.412 3.767 3.767 0 0 1-1.102-1.032 5.116 5.116 0 0 1-.74-1.497 6.11 6.11 0 0 1-.271-1.811 5.974 5.974 0 0 1 .271-1.8c.162-.526.412-1.02.74-1.463.294-.401.67-.735 1.102-.981a2.712 2.712 0 0 1 1.358-.35Z"
              fill="#fff"/>
        <path d="M133.12 109.312a2.273 2.273 0 0 0-.934.406 3.183 3.183 0 0 0-.758.795c-.223.329-.395.69-.511 1.07-.124.4-.188.816-.19 1.234v171.661a4.34 4.34 0 0 0 .699 2.343c.205.319.462.602.758.839.275.219.593.376.934.46l127.351 29.355c.51.122 1.04.137 1.556.042a3.02 3.02 0 0 0 1.278-.568c.371-.286.667-.657.865-1.082.215-.469.324-.979.319-1.495V90.54a3.625 3.625 0 0 0-.319-1.514 3.18 3.18 0 0 0-2.142-1.772 3.758 3.758 0 0 0-1.556-.046l-127.35 22.104Z"
              fill="#E6E6E6"/>
        <path d="M136.06 113.667a2.32 2.32 0 0 0-.951.422 3.207 3.207 0 0 0-.767.813 4.179 4.179 0 0 0-.687 2.34v164.361a4.354 4.354 0 0 0 .687 2.381c.207.327.466.617.767.859.279.226.603.39.951.479l119.171 26.54a3.639 3.639 0 0 0 1.534 0 2.954 2.954 0 0 0 2.085-1.709c.205-.475.305-.989.292-1.506V97.733a3.707 3.707 0 0 0-.292-1.523 3.194 3.194 0 0 0-2.085-1.835 3.66 3.66 0 0 0-1.534-.09L136.06 113.666Z"
              fill="#fff"/>
        <path d="M151.275 136.052a1.057 1.057 0 0 0-.451.162 1.38 1.38 0 0 0-.367.348 1.698 1.698 0 0 0-.247.483c-.06.183-.091.375-.091.567v6.581c-.001.187.03.373.091.549.054.159.138.306.247.433.1.118.226.212.367.275a.914.914 0 0 0 .45.074l80.269-7.072a1.62 1.62 0 0 0 .622-.19 1.81 1.81 0 0 0 .509-.407c.147-.168.264-.36.345-.568a1.86 1.86 0 0 0 .127-.668v-7.771a1.667 1.667 0 0 0-.126-.643 1.48 1.48 0 0 0-.344-.501 1.404 1.404 0 0 0-.51-.308c-.2-.067-.413-.09-.623-.067l-80.268 8.723Z"
              fill="#004B76"/>
        <path d="M150.841 157.912a.262.262 0 0 0-.114.035.332.332 0 0 0-.092.083.392.392 0 0 0-.062.118.445.445 0 0 0-.022.14v2.572a.407.407 0 0 0 .022.138c.014.04.035.078.062.11a.259.259 0 0 0 .206.095l81.703-4.423a.421.421 0 0 0 .284-.139.46.46 0 0 0 .117-.306v-3.031a.415.415 0 0 0-.117-.292.368.368 0 0 0-.284-.107l-81.703 5.007ZM150.841 166.275a.237.237 0 0 0-.114.034.297.297 0 0 0-.092.081.393.393 0 0 0-.062.116.447.447 0 0 0-.022.141v2.571a.413.413 0 0 0 .022.139c.014.041.035.08.062.113a.276.276 0 0 0 .092.074.234.234 0 0 0 .114.024l81.703-2.94a.398.398 0 0 0 .284-.133.452.452 0 0 0 .117-.303v-3.033a.408.408 0 0 0-.117-.294.375.375 0 0 0-.284-.112l-81.703 3.522ZM150.841 174.639a.24.24 0 0 0-.114.031.313.313 0 0 0-.091.079.42.42 0 0 0-.084.255v2.572a.414.414 0 0 0 .084.252.28.28 0 0 0 .092.076.249.249 0 0 0 .114.027l81.702-1.455a.414.414 0 0 0 .37-.266.447.447 0 0 0 .031-.165v-3.031a.42.42 0 0 0-.244-.385.368.368 0 0 0-.157-.028l-81.703 2.038ZM150.696 191.342a.252.252 0 0 0-.205.103.354.354 0 0 0-.061.113.44.44 0 0 0-.023.139v2.571a.396.396 0 0 0 .085.254.301.301 0 0 0 .092.078c.034.02.073.03.113.031l81.648 1.511a.377.377 0 0 0 .283-.119.434.434 0 0 0 .118-.296v-3.03a.44.44 0 0 0-.245-.393.399.399 0 0 0-.156-.035l-81.649-.927ZM150.696 199.703a.24.24 0 0 0-.114.025.338.338 0 0 0-.153.189.421.421 0 0 0-.022.136v2.57c0 .048.008.096.023.141a.393.393 0 0 0 .062.116c.025.033.056.06.092.08.034.02.073.031.113.033l81.648 2.995a.376.376 0 0 0 .283-.114.392.392 0 0 0 .086-.131.44.44 0 0 0 .032-.164v-3.03a.45.45 0 0 0-.118-.303.402.402 0 0 0-.283-.132l-81.649-2.411ZM150.696 208.063a.238.238 0 0 0-.112.024.27.27 0 0 0-.092.072.356.356 0 0 0-.062.111.43.43 0 0 0-.023.138v2.57a.448.448 0 0 0 .085.259.31.31 0 0 0 .092.081.238.238 0 0 0 .113.035l81.648 4.478a.367.367 0 0 0 .283-.108.378.378 0 0 0 .086-.13.434.434 0 0 0 .032-.163v-3.03a.453.453 0 0 0-.245-.399.373.373 0 0 0-.156-.041l-81.649-3.897ZM150.696 216.465a.225.225 0 0 0-.114.021.26.26 0 0 0-.09.071.363.363 0 0 0-.062.11.43.43 0 0 0-.023.138v2.571a.417.417 0 0 0 .085.259.32.32 0 0 0 .092.084.266.266 0 0 0 .113.038l81.647 5.968a.37.37 0 0 0 .369-.231.415.415 0 0 0 .031-.163V222.3a.449.449 0 0 0-.117-.306.412.412 0 0 0-.283-.143l-81.648-5.386ZM150.696 224.825a.235.235 0 0 0-.114.019.26.26 0 0 0-.09.071.337.337 0 0 0-.062.107.43.43 0 0 0-.023.138v2.57a.459.459 0 0 0 .085.261.343.343 0 0 0 .092.086.252.252 0 0 0 .113.037l81.647 7.455a.37.37 0 0 0 .155-.019.367.367 0 0 0 .214-.206.406.406 0 0 0 .031-.162v-3.03a.46.46 0 0 0-.117-.309.437.437 0 0 0-.283-.148l-81.648-6.87ZM150.696 233.186a.233.233 0 0 0-.114.016.271.271 0 0 0-.09.068.342.342 0 0 0-.062.108.424.424 0 0 0-.023.137v2.571a.459.459 0 0 0 .085.262.331.331 0 0 0 .092.087.258.258 0 0 0 .113.041l81.647 8.936a.355.355 0 0 0 .369-.216.41.41 0 0 0 .031-.162v-3.031a.474.474 0 0 0-.245-.415.426.426 0 0 0-.155-.049l-81.648-8.353ZM150.696 241.588a.223.223 0 0 0-.114.015.248.248 0 0 0-.09.064.307.307 0 0 0-.062.108.424.424 0 0 0-.023.137v2.57a.46.46 0 0 0 .085.265.367.367 0 0 0 .092.088.26.26 0 0 0 .113.043l81.647 10.428a.346.346 0 0 0 .369-.212.405.405 0 0 0 .031-.161v-3.03a.463.463 0 0 0-.031-.168.506.506 0 0 0-.214-.251.418.418 0 0 0-.155-.052l-81.648-9.844ZM150.696 249.949a.223.223 0 0 0-.204.076.3.3 0 0 0-.062.106.418.418 0 0 0-.023.136v2.57a.46.46 0 0 0 .085.266.358.358 0 0 0 .092.09.259.259 0 0 0 .113.045l81.647 11.912a.353.353 0 0 0 .283-.082.36.36 0 0 0 .086-.122.404.404 0 0 0 .031-.16v-3.031a.464.464 0 0 0-.031-.169.511.511 0 0 0-.214-.255.404.404 0 0 0-.155-.054l-81.648-11.328ZM150.696 258.309a.222.222 0 0 0-.204.073.291.291 0 0 0-.062.104.422.422 0 0 0-.023.136v2.571a.465.465 0 0 0 .085.267.366.366 0 0 0 .092.092.27.27 0 0 0 .113.047l81.647 13.395a.34.34 0 0 0 .283-.077.347.347 0 0 0 .086-.121.392.392 0 0 0 .031-.159v-3.031a.47.47 0 0 0-.031-.17.5.5 0 0 0-.214-.258.428.428 0 0 0-.155-.058l-81.648-12.811Z"
              fill="#CCC"/>
        <path d="m185.966 299.238-1.682-23.28 3.021-21.815-8.58-.579-1.694 24.098 4.787 22.662a3.363 3.363 0 0 0-.051 3.88 3.378 3.378 0 0 0 6.148-1.609 3.367 3.367 0 0 0-1.949-3.357Z"
              fill="#9F616A"/>
        <path d="m177.63 256.7 2.015-8.709a6.7 6.7 0 0 1 2.822-4.072 6.721 6.721 0 0 1 9.085 1.553 6.698 6.698 0 0 1 1.305 4.779l-1.109 9.84-14.118-3.391Z"
              fill="#B8BDC3"/>
        <path d="M193.514 375.084h4.045l1.924-15.582-5.969.001v15.581Z" fill="#9F616A"/>
        <path d="M192.482 373.765H200.449c1.346 0 2.637.534 3.589 1.485a5.067 5.067 0 0 1 1.487 3.585v.164l-13.042.001-.001-5.235Z"
              fill="#2F2E41"/>
        <path d="m213.666 374.952 3.889-1.113-2.446-15.508-5.74 1.642 4.297 14.979Z" fill="#9F616A"/>
        <path d="m212.311 373.968 7.658-2.191a5.073 5.073 0 0 1 6.278 3.478l.045.158L213.754 379l-1.443-5.032ZM191.328 369.429l1.882-47.2-4.887-21.361c-6.576-11.011.518-28.574.591-28.75l.026-.064.069-.01 17.202-2.327.241.554a82.167 82.167 0 0 1 5.352 48.862l-1.791 9.145 8.849 35.678-8.374 4.182-6.426-16.64-4.343 17.025-8.391.906Z"
              fill="#2F2E41"/>
        <path d="m186.648 276.496-5.611-16.422c-3.489-6.135-1.276-11.582 1.194-15.071 2.669-3.768 2.829-5.881 2.864-5.904l.029-.019 7.373-.223 6.823 6.924c.43-.167 4.055 8.756 3.748 9.204l4.766 15.386-21.186 6.125Z"
              fill="#B8BDC3"/>
        <path d="m232.087 279.336-18.486-14.281-14.256-16.802-6.156 5.997 16.844 17.337 20.096 11.559a3.376 3.376 0 0 0 6.641-1.184 3.372 3.372 0 0 0-4.683-2.626Z"
              fill="#9F616A"/>
        <path d="m191.44 260.325-5.151-7.308a6.695 6.695 0 0 1 1.317-9.111 6.717 6.717 0 0 1 9.183.789l6.599 7.391-11.948 8.239Z"
              fill="#B8BDC3"/>
        <path d="M187.943 236.843c4.835 0 8.755-3.915 8.755-8.744s-3.92-8.744-8.755-8.744c-4.836 0-8.755 3.915-8.755 8.744s3.919 8.744 8.755 8.744Z"
              fill="#9F616A"/>
        <path d="M196.845 223.663h-13.902v-6.052c3.051-1.21 6.037-2.24 7.842 0 1.608 0 3.149.638 4.285 1.773a6.045 6.045 0 0 1 1.775 4.279Z"
              fill="#2F2E41"/>
        <path d="M184.859 216.16c-12.738-.347-10.326 20.61-10.326 20.61s2.404.317 3.5.504l1.324-.745 1.425.933c.655.004 1.342-.009 2.055-.022l.653-1.344 1.457 1.32c2.651.004 9.847.077 9.847.077s4.337-20.944-9.935-21.333Z"
              fill="#2F2E41"/>
        <path d="M133.537 252.067a2.825 2.825 0 0 0-2.961-3.163l-2.799-5.818-3.955.836 4.068 8.16a2.845 2.845 0 0 0 5.647-.015ZM72.783 319.613l3.292 1.682 8.064-11.879-4.858-2.482-6.498 12.679Z"
              fill="#FFB7B7"/>
        <path d="m72.494 318.11 6.482 3.313v.001a4.634 4.634 0 0 1 2.017 6.236l-.069.134-10.613-5.424 2.183-4.26Z"
              fill="#2F2E41"/>
        <path d="M110.8 324.215h3.697l1.759-14.244-5.457.001.001 14.243Z" fill="#FFB7B7"/>
        <path d="M109.856 323.009h7.282c1.231 0 2.411.488 3.282 1.358a4.63 4.63 0 0 1 1.359 3.276v.151h-11.923v-4.785Z"
              fill="#2F2E41"/>
        <path d="M93.504 208.037s-2.476-1.895-2.476 2.733l-.391 15.292 4.365 14.446 2.542-4.685-1.043-10.152-2.997-17.634Z"
              fill="#01854A"/>
        <path d="M119.99 249.864s2.871 13.964-.766 25.424l-2.009 44.064-7.37-.574-2.584-32.689-2.488-16.249-5.169 14.815-17.035 31.351-7.849-6.117s8.697-23.699 15.122-28.674l3.222-36.653 26.926 5.302Z"
              fill="#2F2E41"/>
        <path d="M111.255 189.366c4.64 0 8.402-3.757 8.402-8.392 0-4.634-3.762-8.391-8.402-8.391-4.641 0-8.403 3.757-8.403 8.391 0 4.635 3.762 8.392 8.403 8.392Z"
              fill="#FFB8B8"/>
        <path d="M110.66 182.754c1.007.131 1.767-.898 2.119-1.85.353-.951.621-2.059 1.497-2.573 1.197-.702 2.728.143 4.096-.089 1.545-.262 2.55-1.897 2.628-3.46.079-1.563-.544-3.067-1.155-4.508l-.213 1.791a3.557 3.557 0 0 0-1.555-3.105l.275 2.629a2.786 2.786 0 0 0-2.121-2.273 2.827 2.827 0 0 0-1.092-.036l.043 1.566a25.985 25.985 0 0 0-5.375-.262 8.698 8.698 0 0 0-4.949 1.904c-2.029 1.761-2.77 4.661-2.521 7.334.249 2.673 1.354 5.185 2.505 7.611.29.61.691 1.299 1.363 1.377a1.376 1.376 0 0 0 1.344-1.012 3.66 3.66 0 0 0-.017-1.801 7.654 7.654 0 0 1-.224-2.725c.16-.902.81-1.795 1.722-1.905.911-.111 1.844.929 1.405 1.735l.225-.348Z"
              fill="#2F2E41"/>
        <path d="m103.212 192.419 1.76-2.439s1.966.667 7.232 3.285l.372 2.285 9.142 56.151-16.616-.716-4.525-.096-3.306-.07-4.419-.094-.065-16.138 1.433-12.364-2.215-11.649s-2.788-10.696 7.95-16.463l3.257-1.692Z"
              fill="#01854A"/>
        <path d="m126.24 249.08.604 2.109 4.222-2.747-1.594-1.821-3.232 2.459Z" fill="#CBCBCB"/>
        <path d="M106.355 199.205s6.545-8.344 10.501.956l1.248 9.747s4.792 12.116 4.936 17.017c0 0 3.249 6.398 3.219 9.758l4.807 10.867-4.93 3.056-13.643-20.891-6.138-30.51Z"
              fill="#01854A"/>
    </g>
    <defs>
        <clipPath id="a">
            <path fill="#fff" transform="translate(69.938 49.718)" d="M0 0h220.88v329.282H0z"/>
        </clipPath>
    </defs>
</svg>