<svg width="466" height="256" fill="none" xmlns="http://www.w3.org/2000/svg">
    <path d="M186.68 16.898h44.011c35.468 0 55.08 5.437 88.989 13.646C361.302 40.62 404.829 46.996 432.705 78.6c16.368 18.556 31.541 40.481 33.178 64.396 1.427 20.861-10.26 38.039-28.1 51.299-36.544 27.162-87.243 40.331-133.096 49.698-53.235 10.875-109.924 12.056-163.855 3.875-36.271-5.502-77.11-18.265-100.403-44.56-13.733-15.503-15.941-32.702-13.058-51.635 3.423-22.478 15.683-42.289 29.792-60.986 15.786-20.92 33.02-42.098 56.537-56.942 11.139-7.031 23.23-13.15 36.901-15.415 11.795-1.953 24.138-1.432 36.079-1.432Z"
          fill="#ECF1F4"/>
    <path d="M171.867 157.584c0 43.273-25.725 58.383-57.459 58.383s-57.46-15.11-57.46-58.383 57.46-98.324 57.46-98.324 57.459 55.051 57.459 98.324Z"
          fill="#97CCB4"/>
    <path d="m112.315 209.347.588-36.216 24.491-44.804-24.398 39.123.264-16.284 16.879-32.415-16.809 28.106.476-29.288 18.075-25.807-18 21.201.297-53.703-1.868 71.094.154-2.933-18.377-28.128 18.082 33.758-1.712 32.709-.051-.868-21.185-29.6 21.12 32.667-.214 4.091-.038.061.018.336-4.344 82.987h5.803l.697-42.865 21.068-32.587-21.016 29.365Z"
          fill="#4E596A"/>
    <path d="m55.769 211.644-3.227-5.377 30.114-25.812h77.437v7.528l-27.963 30.115-32.266 6.452-44.096-12.906Z"
          fill="#4E596A"/>
    <path d="M173.424 195.602v-16.827h-10.139v5.306l-3.192-3.627-25.812 25.813-4.302 4.302-5.377 21.51 9.679 23.661h49.474v-48.398l-10.331-11.74Z"
          fill="#DCDEE1"/>
    <path d="M134.281 206.267H52.542v49.473h81.739v-49.473Z" fill="#fff"/>
    <path d="M122.988 221.862H105.78v15.057h17.208v-15.057Z" fill="#4E596A"/>
    <path d="M98.79 221.324H83.731v34.416H98.79v-34.416Z" fill="#B8BDC3"/>
    <path d="M66.524 226.702v-5.378H60.07v5.378H66.524ZM65.986 231.003H60.07v5.378h6.454v-5.378h-.538ZM77.278 221.324h-6.453v5.377h6.453v-5.377ZM77.278 231.004h-6.453v5.377h6.453v-5.377ZM157.405 227.239v-5.377h-6.453v5.377h6.453ZM156.867 231.541h-5.915v5.378h6.453v-5.378h-.538ZM168.16 221.862h-6.453v5.377h6.453v-5.377ZM168.16 231.541h-6.453v5.378h6.453v-5.378Z"
          fill="#4E596A"/>
    <path d="M192.252 223.799h-.809v31.969h.809v-31.969Z" fill="#3F3D56"/>
    <path d="M199.722 227.873c.052 11.179-7.813 20.277-7.813 20.277s-7.948-9.026-8-20.204c-.051-11.179 7.814-20.278 7.814-20.278s7.948 9.026 7.999 20.205Z"
          fill="#349D6E"/>
    <path d="M44.952 222.99h-.81v31.969h.81V222.99Z" fill="#3F3D56"/>
    <path d="M52.421 227.063c.052 11.179-7.813 20.278-7.813 20.278s-7.949-9.026-8-20.205c-.052-11.179 7.813-20.277 7.813-20.277s7.949 9.026 8 20.204Z"
          fill="#97CCB4"/>
    <path d="M34.43 222.99h-.808v31.969h.809V222.99Z" fill="#3F3D56"/>
    <path d="M41.9 227.063c.05 11.179-7.814 20.278-7.814 20.278s-7.948-9.026-8-20.205c-.052-11.179 7.813-20.277 7.813-20.277s7.949 9.026 8 20.204Z"
          fill="#349D6E"/>
    <path d="M212.858 255.121H0v.81h212.858v-.81Z" fill="#3F3D56"/>
    <path d="m214.669 5.134 6.209-5.063c-4.824-.543-6.806 2.14-7.617 4.263-3.769-1.596-7.871.495-7.871.495l12.424 4.599a9.576 9.576 0 0 0-3.145-4.294ZM239.585 48.906l6.21-5.064c-4.824-.542-6.806 2.14-7.617 4.263-3.769-1.595-7.872.496-7.872.496l12.425 4.598a9.57 9.57 0 0 0-3.146-4.293Z"
          fill="#004B76"/>
</svg>