<svg width="664" height="356" fill="none" xmlns="http://www.w3.org/2000/svg">
    <path d="M249.216.094h65.355c52.669 0 81.792 8.074 132.146 20.264 61.808 14.963 126.445 24.43 167.841 71.36 24.305 27.557 46.836 60.114 49.267 95.629 2.12 30.977-15.235 56.486-41.726 76.177-54.269 40.336-129.555 59.89-197.646 73.8-79.053 16.15-163.234 17.903-243.321 5.754-53.862-8.17-114.507-27.123-149.096-66.17-20.393-23.021-23.673-48.562-19.391-76.677 5.083-33.379 23.289-62.797 44.24-90.562 23.442-31.065 49.034-62.515 83.956-84.558 16.542-10.441 34.497-19.529 54.798-22.89C213.155-.68 231.483.093 249.216.093Z"
          fill="#ECF1F4"/>
    <g clip-path="url(#a)">
        <path d="M44.043 192.277c24.324 0 44.042-19.684 44.042-43.965 0-24.282-19.718-43.966-44.042-43.966C19.718 104.346 0 124.03 0 148.312c0 24.281 19.718 43.965 44.043 43.965Z"
              fill="#B8BDC3"/>
        <path d="M44.043 184.95c20.27 0 36.702-16.404 36.702-36.638 0-20.235-16.432-36.638-36.702-36.638S7.34 128.077 7.34 148.312c0 20.234 16.433 36.638 36.703 36.638Z"
              fill="#01723F"/>
        <path d="M161 192.277c24.324 0 44.042-19.684 44.042-43.965 0-24.282-19.718-43.966-44.042-43.966s-44.043 19.684-44.043 43.966c0 24.281 19.719 43.965 44.043 43.965Z"
              fill="#B8BDC3"/>
        <path d="M161 184.95c20.27 0 36.702-16.404 36.702-36.638 0-20.235-16.432-36.638-36.702-36.638s-36.702 16.403-36.702 36.638c0 20.234 16.432 36.638 36.702 36.638Z"
              fill="#fff"/>
        <path d="M277.957 192.277c24.324 0 44.043-19.684 44.043-43.965 0-24.282-19.719-43.966-44.043-43.966-24.324 0-44.042 19.684-44.042 43.966 0 24.281 19.718 43.965 44.042 43.965Z"
              fill="#B8BDC3"/>
        <path d="M277.957 184.949c20.271 0 36.703-16.403 36.703-36.637 0-20.235-16.432-36.638-36.703-36.638-20.27 0-36.702 16.403-36.702 36.638 0 20.234 16.432 36.637 36.702 36.637ZM40.924 161.561a4.042 4.042 0 0 1-3.185-1.554l-5.63-7.226a4.027 4.027 0 0 1 .707-5.65l.203-.158a4.047 4.047 0 0 1 5.66.706 3.58 3.58 0 0 0 2.657 1.379 3.6 3.6 0 0 0 2.78-1.114l11.431-12.046a4.04 4.04 0 0 1 5.702-.154l.187.177a4.021 4.021 0 0 1 .154 5.691l-17.74 18.692a4.027 4.027 0 0 1-2.926 1.257Z"
              fill="#fff"/>
        <path d="M141.67 139.41h-28.989v-25.167a5.88 5.88 0 0 1 1.801-4.124 5.902 5.902 0 0 1 4.192-1.651h9.636c7.367 0 13.36 5.775 13.36 12.874v18.068Z"
              fill="#4E596A"/>
        <path d="M152.402 350.006h-5.503l-2.618-21.19 8.122.001-.001 21.189Z" fill="#FFB8B8"/>
        <path d="M153.806 355.331h-17.745v-.224c0-1.829.728-3.582 2.023-4.875a6.913 6.913 0 0 1 4.884-2.02l10.838.001v7.118Z"
              fill="#4E596A"/>
        <path d="M101.678 350.006h-5.503l-2.618-21.19 8.122.001-.001 21.189Z" fill="#FFB8B8"/>
        <path d="M103.082 355.331H85.337v-.224c0-1.829.728-3.582 2.023-4.875a6.913 6.913 0 0 1 4.884-2.02l10.838.001v7.118Z"
              fill="#4E596A"/>
        <path d="m108.323 179.774-3.591 22.853 34.115.448-4.489-21.956-26.035-1.345Z" fill="#FFB8B8"/>
        <path d="m105.722 197.047-10.865 28.881-1.347 119.688h9.202l21.995-96.163 20.2 93.653h8.978l-6.284-105.303s1.853-21.136-7.632-33.608l-2.308-6.657-31.939-.491Z"
              fill="#4E596A"/>
        <path d="M152.329 219.561a6.73 6.73 0 0 1-4.347-3.677 6.713 6.713 0 0 1 .032-5.688l-14.513-47.233 10.675-2.113 13.274 46.299a6.765 6.765 0 0 1 3.095 3.676 6.746 6.746 0 0 1-.133 4.801 6.763 6.763 0 0 1-3.292 3.501 6.78 6.78 0 0 1-4.791.434Z"
              fill="#FFB8B8"/>
        <path d="m133.123 192.395-23.517-.453a3.072 3.072 0 0 1-2.914-2.312c-1.261-4.983-4.034-17.968-2.563-30.902a18.863 18.863 0 0 1 7.245-12.779 18.908 18.908 0 0 1 14.23-3.72 18.926 18.926 0 0 1 7.419 2.728 18.88 18.88 0 0 1 8.55 12.86 18.845 18.845 0 0 1-.365 7.884c-2.96 11.222-4.632 19.25-4.969 23.862a3.064 3.064 0 0 1-3.051 2.833l-.065-.001Z"
              fill="#B8BDC3"/>
        <path d="M61.69 150.906c.14.316.257.643.347.978l29.435 9.985 5.688-4.961 8.621 7.591-9.214 9.758a5.021 5.021 0 0 1-5.93 1.024L59.137 159.22a6.59 6.59 0 0 1-7.47-.405 6.558 6.558 0 0 1-.052-10.347 6.588 6.588 0 0 1 7.465-.481 6.572 6.572 0 0 1 2.608 2.919Z"
              fill="#FFB8B8"/>
        <path d="M91.534 160.276a2.812 2.812 0 0 1 .99-2.126l10.779-9.165a7.84 7.84 0 0 1 11.039-.763 7.814 7.814 0 0 1 .792 11.018l-7.675 11.931a2.813 2.813 0 0 1-1.978 1.266 2.82 2.82 0 0 1-2.252-.667l-10.73-9.356a2.813 2.813 0 0 1-.965-2.138ZM132.851 174.927a2.81 2.81 0 0 1-1.434-1.857l-3.187-13.771a7.81 7.81 0 0 1 .104-5.975 7.826 7.826 0 0 1 4.301-4.157 7.847 7.847 0 0 1 5.986.088 7.825 7.825 0 0 1 4.176 4.282l7.075 12.295a2.813 2.813 0 0 1-1.415 4.024l-13.26 5.2a2.814 2.814 0 0 1-2.346-.129Z"
              fill="#B8BDC3"/>
        <path d="M144.259 110.927c1.089-2.544-.784-5.782-4.182-7.231-3.399-1.449-7.037-.562-8.126 1.983-1.089 2.545.784 5.782 4.183 7.231 3.398 1.45 7.036.562 8.125-1.983Z"
              fill="#4E596A"/>
        <path d="M133.716 129.841c3.636-6.639 1.191-14.964-5.46-18.593-6.651-3.63-14.991-1.19-18.626 5.45-3.636 6.639-1.192 14.964 5.459 18.593 6.651 3.63 14.991 1.19 18.627-5.45Z"
              fill="#FFB8B8"/>
        <path d="M129.202 107.578h-15.699a4.565 4.565 0 0 0-3.119 1.176 4.545 4.545 0 0 0-1.484 2.979 4.443 4.443 0 0 0 2.675 4.381c.56.242 1.164.368 1.775.368 1.183 0 2.317.469 3.154 1.304a4.449 4.449 0 0 1 1.306 3.148v18.253h24.529v-18.495a13.1 13.1 0 0 0-3.848-9.273 13.134 13.134 0 0 0-9.289-3.841Z"
              fill="#4E596A"/>
        <path d="M206.59 356H36.67a.448.448 0 0 1-.445-.445.446.446 0 0 1 .446-.445H206.59c.119 0 .232.047.316.13a.448.448 0 0 1 0 .63.449.449 0 0 1-.316.13Z"
              fill="#B8BDC3"/>
    </g>
    <defs>
        <clipPath id="a">
            <path fill="#fff" transform="translate(0 103)" d="M0 0h322v253H0z"/>
        </clipPath>
    </defs>
</svg>