<svg width="653" height="367" fill="none" xmlns="http://www.w3.org/2000/svg">
    <path d="M238.216.094h65.355c52.669 0 81.792 8.074 132.146 20.264 61.808 14.963 126.445 24.43 167.841 71.36 24.305 27.557 46.836 60.114 49.267 95.629 2.12 30.977-15.235 56.486-41.726 76.177-54.269 40.336-129.555 59.89-197.646 73.8-79.053 16.15-163.234 17.903-243.321 5.754-53.862-8.17-114.507-27.123-149.096-66.17C.643 253.887-2.637 228.346 1.645 200.231c5.083-33.379 23.289-62.797 44.24-90.562 23.442-31.065 49.034-62.515 83.956-84.558 16.542-10.441 34.497-19.529 54.798-22.89C202.155-.68 220.483.093 238.216.093Z"
          fill="#ECF1F4"/>
    <g clip-path="url(#a)">
        <path d="M194.739 223.798 62.034 258.041a17.515 17.515 0 0 1-13.278-1.892 17.578 17.578 0 0 1-8.067-10.737L.556 89.245A17.614 17.614 0 0 1 2.444 75.94a17.552 17.552 0 0 1 10.715-8.083L136.619 36l31.6 14.175 39.123 152.235a17.613 17.613 0 0 1-1.888 13.306 17.55 17.55 0 0 1-10.715 8.082Z"
              fill="#DCDEE1"/>
        <path d="M14.417 72.753c-3.204.83-5.948 2.9-7.63 5.756a12.543 12.543 0 0 0-1.345 9.475l40.134 156.168a12.515 12.515 0 0 0 5.744 7.645 12.475 12.475 0 0 0 9.456 1.348l132.705-34.243c3.203-.83 5.948-2.9 7.63-5.756a12.544 12.544 0 0 0 1.345-9.475L163.939 53.795l-27.771-12.458L14.417 72.753Z"
              fill="#fff"/>
        <path d="m167.882 50.98-20.538 5.3a5.828 5.828 0 0 1-4.424-.628 5.848 5.848 0 0 1-2.685-3.578l-3.906-15.2a.37.37 0 0 1 .301-.453c.068-.01.137 0 .2.028l31.109 13.843a.365.365 0 0 1 .131.57.367.367 0 0 1-.188.119Z"
              fill="#DCDEE1"/>
        <path d="m157.077 184.344-60.419 15.59a2.906 2.906 0 0 1-2.212-.314 2.914 2.914 0 0 1-1.342-1.789 2.93 2.93 0 0 1 1.072-3.067 2.898 2.898 0 0 1 1.026-.494l60.419-15.591a2.925 2.925 0 0 1 2.212.314 2.928 2.928 0 0 1-.756 5.351ZM171.193 190.895l-72.078 18.598a2.909 2.909 0 0 1-2.212-.314 2.923 2.923 0 0 1-1.03-4.005 2.917 2.917 0 0 1 1.786-1.345l72.079-18.599a2.913 2.913 0 0 1 2.21.315 2.927 2.927 0 0 1-.755 5.35Z"
              fill="#B8BDC3"/>
        <path d="M71.999 218.711c5.697 0 10.316-4.628 10.316-10.338 0-5.709-4.619-10.337-10.316-10.337-5.698 0-10.317 4.628-10.317 10.337 0 5.71 4.62 10.338 10.317 10.338Z"
              fill="#E6E6E6"/>
        <path d="m150.653 157.291-80.242 20.697a9.024 9.024 0 0 1-6.84-.975 9.056 9.056 0 0 1-4.156-5.531L42.6 106.024a9.074 9.074 0 0 1 .973-6.854 9.042 9.042 0 0 1 5.52-4.164l80.242-20.697a9.023 9.023 0 0 1 6.84.975 9.052 9.052 0 0 1 4.155 5.531l16.816 65.458a9.075 9.075 0 0 1-.973 6.854 9.042 9.042 0 0 1-5.52 4.164Z"
              fill="#fff"/>
        <path d="m150.653 157.291-80.242 20.697a9.024 9.024 0 0 1-6.84-.975 9.056 9.056 0 0 1-4.156-5.531L42.6 106.024a9.074 9.074 0 0 1 .973-6.854 9.042 9.042 0 0 1 5.52-4.164l80.242-20.697a9.023 9.023 0 0 1 6.84.975 9.052 9.052 0 0 1 4.155 5.531l16.816 65.458a9.075 9.075 0 0 1-.973 6.854 9.042 9.042 0 0 1-5.52 4.164ZM49.358 96.037a7.978 7.978 0 0 0-4.871 3.674 8.005 8.005 0 0 0-.859 6.047l16.816 65.458a7.991 7.991 0 0 0 3.666 4.881 7.96 7.96 0 0 0 6.036.86l80.242-20.697a7.977 7.977 0 0 0 4.871-3.674 8.003 8.003 0 0 0 .858-6.048l-16.815-65.457a7.991 7.991 0 0 0-3.667-4.881 7.96 7.96 0 0 0-6.035-.86L49.358 96.037Z"
              fill="#E6E6E6"/>
        <path d="m125.264 96.318-40.497 10.446a1.447 1.447 0 0 1-1.757-.915 1.4 1.4 0 0 1 .984-1.777l41.224-10.633c1.665.845 1.227 2.575.046 2.88ZM127.093 103.436l-40.497 10.446a1.452 1.452 0 0 1-1.758-.915 1.401 1.401 0 0 1 .985-1.777l41.223-10.633c1.665.845 1.227 2.575.046 2.879h.001Z"
              fill="#DCDEE1"/>
        <path d="m78.882 120.193-12.36 3.188a1.575 1.575 0 0 1-1.913-1.133l-3.754-14.615a1.58 1.58 0 0 1 1.13-1.917l12.36-3.188a1.575 1.575 0 0 1 1.914 1.132l3.754 14.615a1.58 1.58 0 0 1-1.13 1.918Z"
              fill="#E6E6E6"/>
        <path d="m130.719 118.04-61.806 15.942a1.447 1.447 0 0 1-1.757-.914 1.405 1.405 0 0 1 .478-1.529c.15-.117.322-.201.506-.248l62.533-16.13c1.665.845 1.227 2.575.046 2.879ZM132.548 125.16l-61.806 15.942a1.447 1.447 0 0 1-1.757-.914 1.407 1.407 0 0 1 .478-1.529c.15-.117.322-.201.506-.248l62.533-16.13c1.665.845 1.227 2.575.046 2.879ZM134.376 132.276 72.57 148.218a1.452 1.452 0 0 1-1.757-.915 1.401 1.401 0 0 1 .984-1.777l62.533-16.13c1.665.846 1.227 2.575.046 2.88ZM136.205 139.395l-61.806 15.942a1.447 1.447 0 0 1-1.757-.915 1.398 1.398 0 0 1 .984-1.777l62.533-16.129c1.665.845 1.227 2.574.046 2.879ZM138.033 146.511l-61.806 15.942a1.447 1.447 0 0 1-1.757-.915 1.398 1.398 0 0 1 .984-1.777l62.533-16.13c1.665.846 1.227 2.575.046 2.88Z"
              fill="#DCDEE1"/>
        <path d="M72.76 211.997a1.062 1.062 0 0 1-.677-.047l-.013-.005-2.81-1.194a1.074 1.074 0 0 1-.658-1.004 1.083 1.083 0 0 1 .675-.992 1.085 1.085 0 0 1 .826.009l1.82.776 2.387-5.625a1.081 1.081 0 0 1 1.001-.657c.142.001.281.031.412.086l-.014.037.015-.037a1.08 1.08 0 0 1 .57 1.416l-2.808 6.614a1.087 1.087 0 0 1-.726.622v.001Z"
              fill="#fff"/>
        <path d="M245.639 283.31H108.605a17.535 17.535 0 0 1-12.388-5.15 17.602 17.602 0 0 1-5.14-12.413V104.484a17.6 17.6 0 0 1 5.14-12.413 17.529 17.529 0 0 1 12.388-5.15h127.488l27.074 21.624v157.202a17.604 17.604 0 0 1-5.139 12.413 17.537 17.537 0 0 1-12.389 5.15Z"
              fill="#B8BDC3"/>
        <path d="M108.605 91.977a12.484 12.484 0 0 0-8.822 3.668 12.535 12.535 0 0 0-3.66 8.84v161.262a12.53 12.53 0 0 0 3.66 8.839 12.484 12.484 0 0 0 8.822 3.668h137.034a12.483 12.483 0 0 0 8.822-3.668 12.532 12.532 0 0 0 3.66-8.839V110.981l-23.793-19.004H108.605Z"
              fill="#fff"/>
        <path d="M218.986 138.868h-62.39a2.924 2.924 0 0 1-2.918-2.925c0-.775.307-1.519.855-2.068a2.915 2.915 0 0 1 2.063-.856h62.39a2.917 2.917 0 0 1 2.919 2.924 2.924 2.924 0 0 1-2.919 2.925ZM231.026 148.739h-74.43a2.918 2.918 0 0 1-2.914-2.925 2.923 2.923 0 0 1 2.914-2.924h74.43a2.904 2.904 0 0 1 2.067.855 2.927 2.927 0 0 1-2.067 4.994Z"
              fill="#97CCB4"/>
        <path d="M218.987 177.254h-62.388a2.917 2.917 0 0 0-2.919 2.924c0 .776.308 1.52.855 2.068.547.549 1.29.857 2.064.857h62.388a2.924 2.924 0 0 0 2.918-2.925c0-.775-.307-1.519-.855-2.068a2.915 2.915 0 0 0-2.063-.856ZM231.028 187.126h-74.429c-.774 0-1.517.308-2.064.857a2.928 2.928 0 0 0 0 4.136c.547.548 1.29.856 2.064.856h74.429c.774 0 1.516-.308 2.063-.856a2.927 2.927 0 0 0-2.063-4.993ZM218.986 227.341h-62.39a2.915 2.915 0 0 1-2.063-.856 2.927 2.927 0 0 1 2.063-4.993h62.39a2.924 2.924 0 0 1 2.919 2.925 2.917 2.917 0 0 1-2.919 2.924ZM231.026 237.213h-74.43a2.922 2.922 0 0 1-2.914-2.925 2.918 2.918 0 0 1 2.914-2.925h74.43a2.923 2.923 0 0 1 2.067 4.994 2.928 2.928 0 0 1-2.067.856Z"
              fill="#B8BDC3"/>
        <path d="M130.616 151.216c5.697 0 10.316-4.628 10.316-10.337s-4.619-10.337-10.316-10.337c-5.698 0-10.317 4.628-10.317 10.337s4.619 10.337 10.317 10.337Z"
              fill="#349D6E"/>
        <path d="M129.593 144.822a1.064 1.064 0 0 1-.643-.214l-.012-.009-2.424-1.858a1.087 1.087 0 0 1-.415-.716 1.086 1.086 0 0 1 .928-1.213 1.086 1.086 0 0 1 .798.215l1.57 1.207 3.711-4.851a1.065 1.065 0 0 1 .714-.414 1.078 1.078 0 0 1 .796.214l-.023.032.024-.032a1.083 1.083 0 0 1 .199 1.513l-4.365 5.704a1.078 1.078 0 0 1-.857.421l-.001.001Z"
              fill="#fff"/>
        <path d="M141.992 185.114a10.328 10.328 0 0 1-.784 3.957 10.325 10.325 0 0 1-5.582 5.597 10.31 10.31 0 0 1-3.948.788 2.357 2.357 0 0 1-.266-.011 10.306 10.306 0 0 1-5.658-1.87 10.347 10.347 0 0 1-1.277-15.867 10.301 10.301 0 0 1 11.21-2.12 10.328 10.328 0 0 1 6.305 9.526ZM130.616 239.69c5.697 0 10.316-4.629 10.316-10.338s-4.619-10.337-10.316-10.337c-5.698 0-10.317 4.628-10.317 10.337s4.619 10.338 10.317 10.338ZM262.64 109.241h-21.208a5.834 5.834 0 0 1-4.128-1.714 5.857 5.857 0 0 1-1.71-4.136V87.695a.37.37 0 0 1 .207-.329.36.36 0 0 1 .385.043l26.681 21.18a.363.363 0 0 1 .118.406.365.365 0 0 1-.345.246Z"
              fill="#B8BDC3"/>
        <path d="M141.992 185.114a10.328 10.328 0 0 1-.784 3.957 10.325 10.325 0 0 1-5.582 5.597 10.29 10.29 0 0 1-3.948.787 2.143 2.143 0 0 1-.266-.01 22.424 22.424 0 0 1 2.003-20.523 10.324 10.324 0 0 1 6.146 3.527 10.35 10.35 0 0 1 2.431 6.665ZM153.678 180.181a2.93 2.93 0 0 1 2.921-2.927h15.546a22.149 22.149 0 0 1 1.918 5.849h-17.464a2.919 2.919 0 0 1-2.064-.856 2.931 2.931 0 0 1-.857-2.066ZM174.424 187.126a22.34 22.34 0 0 1-.776 5.849h-17.049a2.917 2.917 0 0 1-2.919-2.924c0-.776.308-1.52.855-2.068a2.914 2.914 0 0 1 2.064-.857h17.825Z"
              fill="#97CCB4"/>
        <path d="M212.89 223.199a3.185 3.185 0 0 1-4.38 1.063l-37.183-22.726a3.186 3.186 0 0 1-1.489-3.219 3.206 3.206 0 0 1 1.27-2.087 3.193 3.193 0 0 1 2.371-.575c.413.065.81.21 1.167.429l37.183 22.726a3.195 3.195 0 0 1 1.061 4.389Z"
              fill="#3F3D56"/>
        <path d="M175.708 200.473a25.518 25.518 0 0 1-11.044 9.875 25.457 25.457 0 0 1-27.989-4.383 25.563 25.563 0 0 1-7.511-12.78 25.603 25.603 0 0 1 .841-14.808 25.55 25.55 0 0 1 8.909-11.844 25.45 25.45 0 0 1 28.304-1.173 25.575 25.575 0 0 1 11.491 15.798 25.623 25.623 0 0 1-3.001 19.315Zm-38.09-23.28a19.184 19.184 0 0 0-2.78 10.769 19.183 19.183 0 0 0 3.658 10.502 19.121 19.121 0 0 0 8.865 6.695 19.088 19.088 0 0 0 20.649-5.013 19.191 19.191 0 0 0 3.28-21.034 19.139 19.139 0 0 0-7.391-8.299 19.107 19.107 0 0 0-14.457-2.256 19.146 19.146 0 0 0-11.824 8.636Z"
              fill="#3F3D56"/>
        <path d="M257.392 191.266c7.205 0 13.046-5.853 13.046-13.072 0-7.219-5.841-13.072-13.046-13.072-7.204 0-13.045 5.853-13.045 13.072 0 7.219 5.841 13.072 13.045 13.072ZM256.549 251.476a5.874 5.874 0 0 1 .527-4.758 5.844 5.844 0 0 1 3.894-2.774c.256-.05.515-.082.775-.095l13.741-22.1-12.552-11.957a5.033 5.033 0 0 1-1.211-5.474 5.02 5.02 0 0 1 2.681-2.775 5.014 5.014 0 0 1 3.856-.045 5.005 5.005 0 0 1 1.643 1.081l17.331 17.123.035.043a4.554 4.554 0 0 1-.316 5.42l-19.254 22.818c.058.183.105.369.144.557a5.867 5.867 0 0 1-2.907 6.272 5.838 5.838 0 0 1-2.834.73 5.853 5.853 0 0 1-3.434-1.131 5.876 5.876 0 0 1-2.119-2.935ZM235.907 360.121h-6.512l-3.098-25.168 9.611.001-.001 25.167Z"
              fill="#A0616A"/>
        <path d="m237.567 366.446-20.996-.001v-.266a8.202 8.202 0 0 1 2.394-5.79 8.138 8.138 0 0 1 2.651-1.775 8.147 8.147 0 0 1 3.127-.624h.001l12.824.001-.001 8.455Z"
              fill="#2F2E41"/>
        <path d="m300.629 351.1-5.595 3.338-15.512-20.036 8.258-4.927 12.849 21.625Z" fill="#A0616A"/>
        <path d="m305.285 355.683-18.04 10.763-.136-.228a8.217 8.217 0 0 1-.9-6.203 8.2 8.2 0 0 1 3.741-5.023l11.019-6.574 4.316 7.265ZM225.476 349.038c-4.362-51.469-6.957-99.283 8.989-118.788l.123-.151 26.837 10.756.044.097c.09.197 9.015 19.869 6.933 33.1l6.62 30.512 21.583 36.212a2.403 2.403 0 0 1 .225 1.957 2.4 2.4 0 0 1-1.314 1.464l-9.38 4.135a2.397 2.397 0 0 1-3-.939l-23.478-38.363-13.262-29.424a.794.794 0 0 0-1.304-.221.802.802 0 0 0-.214.465l-7.351 69.24a2.384 2.384 0 0 1-2.377 2.142h-7.292a2.405 2.405 0 0 1-2.382-2.194Z"
              fill="#2F2E41"/>
        <path d="m234.555 230.658-.127-.061-.02-.141c-1.003-7.031.184-14.842 3.526-23.218a18.425 18.425 0 0 1 8.63-9.496 18.364 18.364 0 0 1 12.723-1.544 18.393 18.393 0 0 1 11.717 9.028 18.241 18.241 0 0 1 1.261 14.596c-4.214 12.348-9.681 23.901-9.735 24.016l-.115.241-27.86-13.421Z"
              fill="#349D6E"/>
        <path d="M205.276 213.146a5.825 5.825 0 0 1 6.896-.253 5.839 5.839 0 0 1 1.692 1.765c.136.222.257.454.361.694l25.47 5.158 6.782-15.968a5.014 5.014 0 0 1 4.692-3.054 5.002 5.002 0 0 1 3.534 1.545 5.017 5.017 0 0 1 1.392 3.602 5.03 5.03 0 0 1-.435 1.921l-9.938 22.263-.027.048a4.531 4.531 0 0 1-5.178 1.602l-28.072-10.081a5.666 5.666 0 0 1-.47.33 5.843 5.843 0 0 1-4.735.637 5.853 5.853 0 0 1-3.966-7.192 5.87 5.87 0 0 1 2.002-3.017Z"
              fill="#A0616A"/>
        <path d="M304.52 192.193c-1.257-2.231-3.088-4.275-5.508-5.099-3.125-1.065-6.51.069-9.723.826-2.476.583-5.063.94-7.559.448-2.495-.492-4.903-1.948-6.038-4.228-1.67-3.355-.263-7.356-.365-11.103a13.489 13.489 0 0 0-5.406-10.463 13.437 13.437 0 0 0-11.55-2.21c-3.077-.89-5.863-.972-7.766 1.398a9.023 9.023 0 0 0-6.385 2.65 9.06 9.06 0 0 0-2.645 6.398h8.634a8.611 8.611 0 0 0 1.304 6.35c1.524 2.244 4.174 3.867 4.684 6.532.495 2.584-1.258 5.035-3.096 6.912-1.838 1.878-3.97 3.738-4.544 6.305a7.833 7.833 0 0 0 1.117 5.623 18.343 18.343 0 0 0 3.923 4.33 57.543 57.543 0 0 0 23.922 12.262c6.216 1.5 13.016 1.889 18.787-.87a18.665 18.665 0 0 0 6.044-4.605 18.711 18.711 0 0 0 4.478-14.208 18.715 18.715 0 0 0-2.308-7.248Z"
              fill="#2F2E41"/>
        <path d="M306.469 367H205.552a.531.531 0 0 1 0-1.064h100.917a.53.53 0 0 1 .375.908.527.527 0 0 1-.375.156Z"
              fill="#B8BDC3"/>
    </g>
    <defs>
        <clipPath id="a">
            <path fill="#fff" transform="translate(0 36)" d="M0 0h307v331H0z"/>
        </clipPath>
    </defs>
</svg>