<svg width="710" height="379" fill="none" xmlns="http://www.w3.org/2000/svg">
    <path d="M295.216 25.094h65.355c52.669 0 81.792 8.074 132.146 20.264 61.808 14.963 126.445 24.43 167.841 71.361 24.305 27.556 46.836 60.113 49.267 95.628 2.12 30.977-15.235 56.486-41.726 76.177-54.269 40.336-129.555 59.89-197.646 73.8-79.053 16.15-163.234 17.903-243.321 5.754-53.862-8.17-114.506-27.123-149.096-66.17-20.393-23.021-23.673-48.562-19.391-76.677 5.083-33.379 23.289-62.797 44.24-90.562 23.442-31.065 49.034-62.515 83.956-84.558 16.542-10.441 34.497-19.529 54.798-22.89 17.516-2.901 35.844-2.127 53.577-2.127Z"
          fill="#ECF1F4"/>
    <path d="M336.779 7.625 346 .105c-7.163-.805-10.107 3.178-11.311 6.33-5.597-2.369-11.689.736-11.689.736L341.45 14a14.215 14.215 0 0 0-4.671-6.375ZM373.779 72.625l9.221-7.52c-7.163-.806-10.107 3.178-11.311 6.33-5.597-2.369-11.689.736-11.689.736L378.45 79a14.215 14.215 0 0 0-4.671-6.375Z"
          fill="#004B76"/>
    <g clip-path="url(#a)">
        <path d="M370.675 267.909h-12.392v43.074h12.392v-43.074Z" fill="#C5C5C9"/>
        <path d="m378.858 302.88-30.139-36.005-60.498.556-36.699 35.895.742.478h-.265v74.662h126.778v-74.662l.081-.924Z"
              fill="#C5C5C9"/>
        <path d="m348.751 266.952-37.652 44.328v67.186h67.678v-75.619l-30.026-35.895Z" fill="#fff"/>
        <path d="M352.087 341.311h-13.822v12.268h13.822v-12.268ZM352.087 320.077h-13.822v12.073h13.822v-12.073Z"
              fill="#3F3D56"/>
        <path d="M352.087 341.311h-13.822v12.268h13.822v-12.268ZM352.087 320.077h-13.822v12.073h13.822v-12.073ZM290.662 338.056h-13.821v12.267h13.821v-12.267ZM290.662 316.822h-13.821v12.073h13.821v-12.073Z"
              fill="#E0E0E0"/>
        <path d="M272.886 267.909h-12.392v43.074h12.392v-43.074Z" fill="#C5C5C9"/>
        <path d="m281.069 302.88-30.139-36.005-60.498.556-36.699 35.895.741.478h-.265v74.662h126.779v-74.662l.081-.924Z"
              fill="#C5C5C9"/>
        <path d="m250.961 266.952-37.652 44.328v67.186h67.679v-75.619l-30.027-35.895Z" fill="#fff"/>
        <path d="M254.298 341.311h-13.822v12.268h13.822v-12.268ZM254.298 320.077h-13.822v12.073h13.822v-12.073Z"
              fill="#3F3D56"/>
        <path d="M254.298 341.311h-13.822v12.268h13.822v-12.268ZM254.298 320.077h-13.822v12.073h13.822v-12.073ZM192.873 338.056h-13.822v12.267h13.822v-12.267ZM192.873 316.822h-13.822v12.073h13.822v-12.073Z"
              fill="#E0E0E0"/>
        <path d="M172.756 230.736h-16.559v57.557h16.559v-57.557Z" fill="#C5C5C9"/>
        <path d="m183.691 277.465-40.273-48.111-80.84.742-49.04 47.964.992.64h-.354v99.766h169.406V278.7l.109-1.235Z"
              fill="#C5C5C9"/>
        <path d="m143.46 229.457-50.313 59.232v89.777h90.435V277.421l-40.122-47.964Z" fill="#fff"/>
        <path d="M147.918 328.818h-18.469v16.392h18.469v-16.392ZM147.918 300.444h-18.469v16.133h18.469v-16.133Z"
              fill="#3F3D56"/>
        <path d="M147.918 328.818h-18.469v16.392h18.469v-16.392ZM147.918 300.444h-18.469v16.133h18.469v-16.133ZM65.84 324.468H47.37v16.393h18.47v-16.393ZM65.84 296.094H47.37v16.133h18.47v-16.133Z"
              fill="#E0E0E0"/>
        <path d="M396.067 378.097H0v.825h396.067v-.825ZM62.401 362.925c6.603 0 11.956-10.968 11.956-24.498 0-13.529-5.353-24.497-11.956-24.497s-11.956 10.968-11.956 24.497c0 13.53 5.353 24.498 11.956 24.498Z"
              fill="#3F3D56"/>
        <path d="M63.505 378.526c-4.788-28.851-.048-57.597 0-57.884l.932.158c-.048.286-4.761 28.881 0 57.57l-.932.156Z"
              fill="#2F8D63"/>
        <path d="m72.927 333.16-10.811 5.807.445.836 10.812-5.807-.446-.836ZM51.15 336.069l-.445.836 10.81 5.811.446-.837-10.81-5.81Z"
              fill="#2F8D63"/>
        <path d="M33.674 348.561c12.915 0 23.385-21.452 23.385-47.914s-10.47-47.914-23.385-47.914c-12.916 0-23.385 21.452-23.385 47.914s10.47 47.914 23.385 47.914Z"
              fill="#2F8D63"/>
        <path d="M36.278 379c-9.353-56.354-.094-112.503 0-113.063l.932.158c-.094.559-9.326 56.557 0 112.749l-.932.156Z"
              fill="#3F3D56"/>
        <path d="m54.475 290.743-21.147 11.359.446.836 21.147-11.358-.446-.837ZM11.456 296.433l-.446.837 21.144 11.364.446-.837-21.144-11.364Z"
              fill="#3F3D56"/>
        <path d="M89.06 337.375c17.673 0 32-29.355 32-65.567 0-36.211-14.327-65.566-32-65.566-17.674 0-32.001 29.355-32.001 65.566 0 36.212 14.327 65.567 32 65.567Z"
              fill="#2F8D63"/>
        <path d="M92.796 379c-12.795-77.088-.13-153.894 0-154.66l.931.158c-.129.765-12.767 77.42 0 154.346l-.931.156Z"
              fill="#3F3D56"/>
        <path d="m117.607 258.411-28.938 15.542.446.837 28.938-15.543-.446-.836ZM58.575 266.197l-.446.836 28.934 15.551.445-.837-28.933-15.55ZM242.256 234.864l3.782-3.038c-2.938-.325-4.145 1.284-4.639 2.558-2.296-.958-4.795.297-4.795.297l7.568 2.759a5.754 5.754 0 0 0-1.916-2.576ZM149.808 208.046l3.783-3.038c-2.939-.326-4.146 1.283-4.64 2.557-2.296-.957-4.795.297-4.795.297l7.568 2.759a5.744 5.744 0 0 0-1.916-2.575ZM300.601 196.08l3.782-3.037c-2.938-.326-4.146 1.283-4.64 2.557-2.295-.957-4.794.297-4.794.297l7.568 2.759a5.76 5.76 0 0 0-1.916-2.576ZM308.238 373.324a5.696 5.696 0 0 0-2.864.772 6.137 6.137 0 0 0-6.63-1.064 6.17 6.17 0 0 0-2.663 2.284 6.21 6.21 0 0 0-.992 3.372h18.88a5.78 5.78 0 0 0-1.815-3.814 5.737 5.737 0 0 0-3.916-1.55ZM116.357 373.324a5.695 5.695 0 0 0-2.863.772 6.137 6.137 0 0 0-6.63-1.064 6.17 6.17 0 0 0-2.663 2.284 6.2 6.2 0 0 0-.992 3.372h18.88a5.784 5.784 0 0 0-1.815-3.814 5.74 5.74 0 0 0-3.917-1.55ZM214.557 373.324a5.695 5.695 0 0 0-2.863.772 6.137 6.137 0 0 0-6.63-1.064 6.17 6.17 0 0 0-2.663 2.284 6.2 6.2 0 0 0-.992 3.372h18.88a5.784 5.784 0 0 0-1.815-3.814 5.74 5.74 0 0 0-3.917-1.55ZM193.836 359.781h-54.47v1.765h8.495v16.762h1.757v-16.762h33.087v16.762h1.757v-16.762h9.374v-1.765ZM193.943 354.503h-54.469v1.764h54.469v-1.764ZM193.943 350.092h-54.469v1.764h54.469v-1.764ZM193.943 345.681h-54.469v1.764h54.469v-1.764ZM278.888 359.781h-54.47v1.765h8.495v16.762h1.757v-16.762h33.087v16.762h1.757v-16.762h9.374v-1.765ZM278.995 354.503h-54.469v1.764h54.469v-1.764ZM278.995 350.092h-54.469v1.764h54.469v-1.764ZM278.995 345.681h-54.469v1.764h54.469v-1.764Z"
              fill="#3F3D56"/>
    </g>
    <defs>
        <clipPath id="a">
            <path fill="#fff" transform="translate(0 193)" d="M0 0h410v186H0z"/>
        </clipPath>
    </defs>
</svg>