<svg width="394" height="280" fill="none" xmlns="http://www.w3.org/2000/svg">
    <path d="M143.442.056h39.353c31.715 0 49.252 4.862 79.572 12.202 37.218 9.01 76.139 14.71 101.065 42.97 14.636 16.594 28.203 36.198 29.667 57.583 1.277 18.653-9.174 34.013-25.126 45.87-32.677 24.288-78.011 36.063-119.012 44.439-47.602 9.724-98.292 10.78-146.516 3.465-32.433-4.92-68.95-16.333-89.778-39.845C.387 152.878-1.588 137.499.99 120.569c3.061-20.099 14.024-37.813 26.64-54.532C41.745 47.331 57.156 28.394 78.184 15.12c9.96-6.287 20.772-11.759 32.996-13.783C121.727-.41 132.764.057 143.442.057Z"
          fill="#ECF1F4"/>
    <g clip-path="url(#a)">
        <path d="m59.763 219.976-.256.658 142.529 55.473.256-.658-142.529-55.473Z" fill="#4E596A"/>
        <path d="M161.608 36.84 82.384 57.697c-.317.09-.61.25-.856.467-.276.24-.51.524-.696.84a4.593 4.593 0 0 0-.639 2.322v117.372c0 .41.058.818.172 1.211.104.367.261.717.467 1.038.184.292.42.549.696.758.25.191.544.318.856.368l79.224 11.65c.46.07.929.034 1.372-.106a2.91 2.91 0 0 0 1.127-.671 3.27 3.27 0 0 0 .764-1.133c.189-.471.285-.974.282-1.482V39.82a3.68 3.68 0 0 0-.282-1.45 2.771 2.771 0 0 0-.764-1.043 2.53 2.53 0 0 0-1.127-.541 3.014 3.014 0 0 0-1.372.054Z"
              fill="#F2F2F2"/>
        <path d="M84.337 60.99c-.224.066-.43.18-.604.336a2.41 2.41 0 0 0-.488.592 3.182 3.182 0 0 0-.437 1.638v112.608c-.003.288.035.576.113.853.071.259.18.506.324.733.129.207.294.389.487.537.177.136.384.227.604.264l74.209 9.985a2.015 2.015 0 0 0 1.7-.592c.224-.228.397-.5.51-.799.125-.329.185-.679.178-1.03V44.523a2.604 2.604 0 0 0-.178-1.01 1.961 1.961 0 0 0-.51-.74 1.752 1.752 0 0 0-.763-.4 2.028 2.028 0 0 0-.937.007L84.337 60.99Z"
              fill="#fff"/>
        <path d="M87.476 65.493a.946.946 0 0 0-.41.223 1.649 1.649 0 0 0-.332.426 2.37 2.37 0 0 0-.224.568 2.62 2.62 0 0 0-.084.65v15.684c0 .208.027.415.083.616.046.17.122.332.224.477.085.123.2.222.333.29.127.063.27.083.41.058l66.328-11.407c.219-.04.426-.13.605-.26.194-.141.362-.314.497-.512a2.57 2.57 0 0 0 .336-.69c.081-.256.123-.524.124-.794V51.617a2.192 2.192 0 0 0-.124-.744 1.55 1.55 0 0 0-.336-.553 1.13 1.13 0 0 0-1.102-.325L87.476 65.493Z"
              fill="#F2F2F2"/>
        <path d="m93.287 66.4 52.279-11.836v4L93.286 69.83V66.4ZM93.378 73.609l52.312-10.64v1.857L93.378 75.201V73.61ZM93.378 76.427l52.312-10.171v1.858l-52.312 9.905v-1.593ZM93.378 79.244l52.312-9.701V71.4l-52.312 9.436v-1.593ZM122.383 127.797l26.529-.75a.825.825 0 0 0 .269-.053.92.92 0 0 0 .242-.138 1.047 1.047 0 0 0 .339-.483 1.195 1.195 0 0 0-.037-.895 1.012 1.012 0 0 0-.163-.246l-17.488-19.362a.686.686 0 0 0-.591-.24.759.759 0 0 0-.314.101.963.963 0 0 0-.276.244l-4.068 5.251c-.153.201-.345.37-.563.497a1.522 1.522 0 0 1-.639.199 1.373 1.373 0 0 1-.636-.104 1.53 1.53 0 0 1-.558-.41l-11.991-13.76a.637.637 0 0 0-.247-.178.574.574 0 0 0-.28-.036.675.675 0 0 0-.28.103.904.904 0 0 0-.246.237l-21.067 29.3a.95.95 0 0 0-.114.214 1.147 1.147 0 0 0-.073.501c.006.085.022.17.047.251a.947.947 0 0 0 .1.222.76.76 0 0 0 .14.168c.05.045.107.08.17.105a.482.482 0 0 0 .192.033l31.635-.907-.032.136ZM95.396 95.639c.343-.046.691.002 1.008.14.323.143.607.36.83.634.25.306.44.657.56 1.033.14.429.21.878.207 1.329 0 .467-.07.932-.206 1.379a4.252 4.252 0 0 1-.56 1.17 3.208 3.208 0 0 1-.83.836c-.3.208-.645.34-1.008.384a1.89 1.89 0 0 1-1.003-.16 2.276 2.276 0 0 1-.814-.644 3.204 3.204 0 0 1-.548-1.027 4.232 4.232 0 0 1-.2-1.31c0-.46.067-.918.2-1.358.123-.412.307-.803.547-1.16.218-.328.494-.613.814-.843a2.275 2.275 0 0 1 1.003-.403ZM122.383 177.314l26.527 3.078a.79.79 0 0 0 .27-.014.788.788 0 0 0 .441-.286.966.966 0 0 0 .14-.251 1.178 1.178 0 0 0 .052-.604 1.233 1.233 0 0 0-.252-.567l-17.487-21.885a.917.917 0 0 0-.277-.234.739.739 0 0 0-.315-.09.692.692 0 0 0-.314.056.758.758 0 0 0-.275.204l-4.068 4.662c-.154.18-.347.322-.564.416-.201.086-.42.123-.638.107a1.5 1.5 0 0 1-.636-.196 1.862 1.862 0 0 1-.558-.491l-11.991-15.491a.781.781 0 0 0-.247-.214.604.604 0 0 0-.56-.013.722.722 0 0 0-.248.201l-21.065 26.262a.796.796 0 0 0-.114.198 1.01 1.01 0 0 0-.064.234 1.187 1.187 0 0 0 .137.751.922.922 0 0 0 .14.189c.05.052.107.095.17.13a.54.54 0 0 0 .192.061l31.636 3.657-.032.13ZM95.396 141.261c.355.006.702.104 1.008.284.325.193.607.45.83.755.246.338.436.715.56 1.115.137.439.207.897.206 1.358.001.458-.068.913-.207 1.35a3.58 3.58 0 0 1-.56 1.088c-.222.295-.505.54-.829.717a1.99 1.99 0 0 1-1.008.238 2.081 2.081 0 0 1-1.003-.304 2.804 2.804 0 0 1-.814-.763 3.794 3.794 0 0 1-.547-1.106 4.5 4.5 0 0 1-.2-1.338 4.41 4.41 0 0 1 .2-1.329c.12-.389.305-.754.547-1.081.217-.296.495-.544.814-.726a2.01 2.01 0 0 1 1.003-.258Z"
              fill="#fff"/>
        <path d="M106.184 80.758a1.678 1.678 0 0 0-.689.3c-.22.162-.409.36-.56.587a3.097 3.097 0 0 0-.518 1.702V210.17c.003.614.182 1.215.516 1.731.152.235.341.445.561.619.202.162.438.278.69.34l94.085 21.687c.376.091.768.101 1.149.031a2.17 2.17 0 0 0 1.583-1.218c.159-.347.239-.724.236-1.105V66.89a2.695 2.695 0 0 0-.236-1.119 2.353 2.353 0 0 0-1.583-1.309 2.773 2.773 0 0 0-1.149-.034l-94.085 16.33Z"
              fill="#E6E6E6"/>
        <path d="M108.357 83.975c-.255.05-.495.157-.703.312a2.406 2.406 0 0 0-.567.6 3.114 3.114 0 0 0-.508 1.729v121.429a3.224 3.224 0 0 0 .508 1.759c.153.241.345.455.567.634.206.167.446.288.703.354l88.041 19.608c.374.08.76.08 1.134 0a2.176 2.176 0 0 0 1.54-1.263c.152-.351.225-.731.216-1.113V72.204a2.736 2.736 0 0 0-.216-1.126 2.355 2.355 0 0 0-1.54-1.355 2.707 2.707 0 0 0-1.134-.067l-88.041 14.32Z"
              fill="#fff"/>
        <path d="M119.597 100.513a.782.782 0 0 0-.333.12 1.02 1.02 0 0 0-.271.257 1.284 1.284 0 0 0-.183.357 1.355 1.355 0 0 0-.067.419v4.862c0 .138.022.275.067.406.041.117.103.225.183.319a.765.765 0 0 0 .271.204.68.68 0 0 0 .333.054l59.301-5.225c.161-.015.318-.062.46-.14.142-.076.27-.178.376-.3a1.421 1.421 0 0 0 .349-.913v-5.742c0-.163-.031-.324-.094-.475a1.094 1.094 0 0 0-.254-.37 1.031 1.031 0 0 0-.837-.277l-59.301 6.444Z"
              fill="#004B76"/>
        <path d="M119.277 116.663a.196.196 0 0 0-.085.026.244.244 0 0 0-.067.061.303.303 0 0 0-.063.191v1.9a.32.32 0 0 0 .017.102c.01.03.026.058.046.082a.18.18 0 0 0 .152.069l60.361-3.267a.319.319 0 0 0 .21-.103.34.34 0 0 0 .086-.226v-2.239a.296.296 0 0 0-.086-.216.292.292 0 0 0-.097-.062.288.288 0 0 0-.113-.017l-60.361 3.699ZM119.277 122.842a.182.182 0 0 0-.085.025.223.223 0 0 0-.067.059.327.327 0 0 0-.063.19v1.9c0 .035.006.069.017.103a.27.27 0 0 0 .046.083.198.198 0 0 0 .067.055.178.178 0 0 0 .085.018l60.361-2.172a.304.304 0 0 0 .21-.099.335.335 0 0 0 .086-.224v-2.24a.296.296 0 0 0-.086-.217.263.263 0 0 0-.095-.063.266.266 0 0 0-.115-.02l-60.361 2.602ZM119.276 129.021a.169.169 0 0 0-.084.023.218.218 0 0 0-.067.058.29.29 0 0 0-.045.085.338.338 0 0 0-.017.104v1.899c0 .035.006.07.017.103.01.031.025.059.045.084a.23.23 0 0 0 .068.056c.026.014.055.02.084.02l60.361-1.075a.27.27 0 0 0 .115-.028.315.315 0 0 0 .181-.291v-2.238a.298.298 0 0 0-.087-.219.271.271 0 0 0-.209-.087l-60.362 1.506ZM119.17 141.361a.174.174 0 0 0-.084.02.207.207 0 0 0-.068.056.262.262 0 0 0-.045.084.326.326 0 0 0-.017.102v1.9c0 .035.006.07.017.103.01.03.026.059.046.084a.212.212 0 0 0 .068.058.172.172 0 0 0 .084.022l60.32 1.117a.284.284 0 0 0 .273-.186.33.33 0 0 0 .023-.121v-2.238a.329.329 0 0 0-.087-.222.287.287 0 0 0-.209-.094l-60.321-.685ZM119.17 147.538a.174.174 0 0 0-.084.018.207.207 0 0 0-.068.056.276.276 0 0 0-.046.084.343.343 0 0 0-.016.1v1.899c0 .036.006.071.017.104.01.031.026.06.046.086a.215.215 0 0 0 .068.059.174.174 0 0 0 .084.024l60.32 2.213a.3.3 0 0 0 .115-.02.302.302 0 0 0 .181-.282v-2.239a.333.333 0 0 0-.181-.293.286.286 0 0 0-.115-.028l-60.321-1.781ZM119.17 153.714a.168.168 0 0 0-.083.018.198.198 0 0 0-.068.053.255.255 0 0 0-.046.082.32.32 0 0 0-.017.102v1.899c0 .035.006.071.017.104a.29.29 0 0 0 .046.087.218.218 0 0 0 .152.086l60.32 3.308a.267.267 0 0 0 .209-.08.3.3 0 0 0 .087-.216v-2.239a.335.335 0 0 0-.181-.295.289.289 0 0 0-.115-.03l-60.321-2.879ZM119.17 159.921a.173.173 0 0 0-.084.016.19.19 0 0 0-.067.052.255.255 0 0 0-.046.082.316.316 0 0 0-.017.102v1.899a.338.338 0 0 0 .063.192.235.235 0 0 0 .068.061.179.179 0 0 0 .084.028l60.319 4.41a.282.282 0 0 0 .115-.017.26.26 0 0 0 .094-.06.302.302 0 0 0 .064-.094.328.328 0 0 0 .023-.12v-2.239a.343.343 0 0 0-.181-.3.275.275 0 0 0-.115-.032l-60.32-3.98ZM119.17 166.098a.161.161 0 0 0-.084.014.19.19 0 0 0-.067.052.241.241 0 0 0-.046.079.32.32 0 0 0-.017.102v1.899a.34.34 0 0 0 .063.193.241.241 0 0 0 .068.063.19.19 0 0 0 .084.028l60.319 5.507a.265.265 0 0 0 .273-.166.327.327 0 0 0 .023-.119v-2.24a.344.344 0 0 0-.181-.303.294.294 0 0 0-.115-.034l-60.32-5.075ZM119.17 172.275a.174.174 0 0 0-.151.062.241.241 0 0 0-.046.079.32.32 0 0 0-.017.102v1.899a.34.34 0 0 0 .063.194.245.245 0 0 0 .068.064.181.181 0 0 0 .084.03l60.319 6.602a.25.25 0 0 0 .115-.012.248.248 0 0 0 .094-.055.286.286 0 0 0 .087-.212v-2.24a.354.354 0 0 0-.181-.306.297.297 0 0 0-.115-.036l-60.32-6.171ZM119.17 178.482a.17.17 0 0 0-.084.011.189.189 0 0 0-.067.047.238.238 0 0 0-.046.08.32.32 0 0 0-.017.101v1.899a.34.34 0 0 0 .063.195.251.251 0 0 0 .068.066.191.191 0 0 0 .084.032l60.319 7.704a.264.264 0 0 0 .115-.01.264.264 0 0 0 .158-.147.323.323 0 0 0 .023-.119v-2.238a.355.355 0 0 0-.296-.348l-60.32-7.273ZM119.17 184.659a.159.159 0 0 0-.084.009.189.189 0 0 0-.067.047.237.237 0 0 0-.046.078.315.315 0 0 0-.017.101v1.899a.34.34 0 0 0 .063.196.255.255 0 0 0 .068.067.206.206 0 0 0 .084.033l60.319 8.8a.263.263 0 0 0 .115-.008.232.232 0 0 0 .094-.053.274.274 0 0 0 .087-.208v-2.239a.355.355 0 0 0-.087-.233.36.36 0 0 0-.094-.08.298.298 0 0 0-.115-.04l-60.32-8.369ZM119.17 190.835a.16.16 0 0 0-.084.008.175.175 0 0 0-.067.046.232.232 0 0 0-.046.077.309.309 0 0 0-.017.1v1.9a.35.35 0 0 0 .063.197.245.245 0 0 0 .152.103l60.319 9.896a.25.25 0 0 0 .273-.146.314.314 0 0 0 .023-.118v-2.239a.36.36 0 0 0-.087-.235.388.388 0 0 0-.094-.082.312.312 0 0 0-.115-.042l-60.32-9.465Z"
              fill="#CCC"/>
        <path d="m145.226 221.073-1.242-17.199 2.232-16.117-6.339-.427-1.252 17.803 3.537 16.742a2.485 2.485 0 0 0-.037 2.867 2.493 2.493 0 0 0 4.215-2.657 2.493 2.493 0 0 0-1.114-1.012Z"
              fill="#9F616A"/>
        <path d="m139.068 189.646 1.489-6.433a4.958 4.958 0 0 1 5.669-3.767 4.95 4.95 0 0 1 4.092 5.436l-.82 7.27-10.43-2.506Z"
              fill="#B8BDC3"/>
        <path d="M150.803 277.107h2.989l1.421-11.512-4.41.001v11.511Z" fill="#9F616A"/>
        <path d="m150.041 276.133 5.885-.001a3.75 3.75 0 0 1 3.751 3.746V280h-9.636v-3.867Z" fill="#2F2E41"/>
        <path d="m165.691 277.009 2.873-.822-1.807-11.457-4.24 1.213 3.174 11.066Z" fill="#9F616A"/>
        <path d="m164.69 276.282 5.657-1.618h.001a3.75 3.75 0 0 1 4.638 2.569l.033.117-9.263 2.65-1.066-3.718ZM149.188 272.929l1.39-34.871-3.61-15.781c-4.858-8.134.383-21.11.436-21.24l.02-.047.051-.007 12.708-1.72.179.409a60.707 60.707 0 0 1 3.953 36.099l-1.322 6.756 6.537 26.359-6.187 3.089-4.747-12.293-3.208 12.578-6.2.669Z"
              fill="#2F2E41"/>
        <path d="m145.731 204.271-4.146-12.132c-2.578-4.532-.943-8.557.882-11.134 1.972-2.784 2.09-4.345 2.116-4.362l.021-.014 5.447-.165 5.042 5.116c.317-.124 2.995 6.468 2.768 6.8l3.521 11.367-15.651 4.524Z"
              fill="#B8BDC3"/>
        <path d="m179.3 206.369-13.657-10.55-10.532-12.413-4.548 4.43 12.444 12.809 14.847 8.539a2.493 2.493 0 1 0 4.257-2.231 2.5 2.5 0 0 0-2.811-.584Z"
              fill="#9F616A"/>
        <path d="m149.27 192.325-3.805-5.4a4.945 4.945 0 0 1 .973-6.731 4.966 4.966 0 0 1 6.785.584l4.875 5.46-8.828 6.087Z"
              fill="#B8BDC3"/>
        <path d="M146.687 174.977a6.465 6.465 0 0 0 6.468-6.46 6.464 6.464 0 0 0-6.468-6.46 6.464 6.464 0 0 0-6.468 6.46 6.465 6.465 0 0 0 6.468 6.46Z"
              fill="#9F616A"/>
        <path d="M153.264 165.24h-10.271v-4.472c2.255-.894 4.461-1.655 5.794 0a4.47 4.47 0 0 1 4.477 4.472Z"
              fill="#2F2E41"/>
        <path d="M144.409 159.696c-9.411-.257-7.629 15.226-7.629 15.226s1.776.235 2.586.373l.978-.551 1.053.69c.484.002.991-.007 1.518-.017l.482-.992 1.077.974c1.959.003 7.275.057 7.275.057s3.204-15.472-7.34-15.76Z"
              fill="#2F2E41"/>
        <path d="M106.493 186.224a2.095 2.095 0 0 0-.548-1.679 2.08 2.08 0 0 0-1.64-.658l-2.068-4.298-2.921.617 3.005 6.029a2.097 2.097 0 0 0 2.091 1.845 2.098 2.098 0 0 0 2.081-1.856ZM61.609 236.126l2.432 1.243 5.957-8.777-3.589-1.834-4.8 9.368Z"
              fill="#FFB7B7"/>
        <path d="m61.395 235.016 4.79 2.447a3.42 3.42 0 0 1 1.49 4.608l-.052.099-7.84-4.007 1.612-3.147Z"
              fill="#2F2E41"/>
        <path d="M89.695 239.526h2.731l1.3-10.523h-4.032v10.523Z" fill="#FFB7B7"/>
        <path d="M88.998 238.635h5.38a3.427 3.427 0 0 1 3.428 3.424v.111h-8.808v-3.535Z" fill="#2F2E41"/>
        <path d="M76.917 153.695s-1.83-1.4-1.83 2.019l-.288 11.298 3.225 10.672 1.877-3.461-.77-7.5-2.214-13.028Z"
              fill="#01854A"/>
        <path d="M96.485 184.596s2.12 10.317-.566 18.783l-1.485 32.554-5.444-.424-1.91-24.15-1.838-12.005-3.818 10.946-12.586 23.161-5.798-4.519s6.425-17.509 11.172-21.185l2.38-27.078 19.893 3.917Z"
              fill="#2F2E41"/>
        <path d="M90.03 139.901a6.204 6.204 0 0 0 6.209-6.2 6.203 6.203 0 0 0-6.208-6.199 6.203 6.203 0 0 0-6.208 6.199c0 3.424 2.78 6.2 6.208 6.2Z"
              fill="#FFB8B8"/>
        <path d="M89.592 135.016c.744.097 1.305-.663 1.566-1.366.26-.703.458-1.521 1.105-1.901.884-.519 2.015.105 3.026-.066 1.142-.193 1.884-1.402 1.942-2.557.058-1.154-.402-2.265-.854-3.33l-.157 1.323a2.623 2.623 0 0 0-1.148-2.293l.203 1.941a2.064 2.064 0 0 0-2.374-1.705l.032 1.157a19.186 19.186 0 0 0-3.971-.194 6.425 6.425 0 0 0-3.656 1.407c-1.5 1.301-2.047 3.443-1.863 5.418.183 1.975 1 3.831 1.85 5.623.215.451.51.96 1.007 1.017a1.011 1.011 0 0 0 .993-.747 2.708 2.708 0 0 0-.012-1.331 5.648 5.648 0 0 1-.166-2.013c.118-.667.599-1.326 1.272-1.408.673-.082 1.362.687 1.039 1.282l.166-.257Z"
              fill="#2F2E41"/>
        <path d="m84.09 142.157 1.3-1.803s1.452.493 5.343 2.427l.274 1.689 6.754 41.483-12.275-.529-3.343-.071-2.443-.052-3.264-.069-.049-11.923 1.06-9.134-1.637-8.605s-2.06-7.903 5.873-12.164l2.406-1.249Z"
              fill="#01854A"/>
        <path d="m101.102 184.017.446 1.558 3.119-2.029-1.177-1.346-2.388 1.817Z" fill="#CBCBCB"/>
        <path d="M86.411 147.17s4.836-6.165 7.758.707l.922 7.2s3.54 8.951 3.647 12.572c0 0 2.4 4.727 2.378 7.209l3.551 8.029-3.642 2.258-10.08-15.435-4.534-22.54Z"
              fill="#01854A"/>
    </g>
    <defs>
        <clipPath id="a">
            <path fill="#fff" transform="translate(59.507 36.731)" d="M0 0h163.183v243.269H0z"/>
        </clipPath>
    </defs>
</svg>