<svg width="456" height="398" fill="none" xmlns="http://www.w3.org/2000/svg">
    <g clip-path="url(#a)">
        <path d="m85.516 280.279-4.693 36.967-6.907-41.994c-33.191-12.735-72-15.208-72-15.208s-8.564 80.205 19.712 113.741 58.088 28.438 82.684 7.705c24.596-20.733 34.662-49.25 6.386-82.787-6.293-7.464-15.177-13.518-25.182-18.424Z"
              fill="#F2F2F2"/>
        <path d="m76.312 322.835 1.394 1.653c16.102 19.298 25.502 37.022 28.043 52.939.041.232.067.462.108.693l-1.077.167-1.038.147c-2.557-17.347-13.646-35.564-27.687-52.4a72.71 72.71 0 0 0-1.372-1.644c-6.007-7.074-12.491-13.885-19.066-20.271a158.58 158.58 0 0 0-1.543-1.499c-8.721-8.384-17.523-16-25.385-22.435-.553-.457-1.115-.908-1.67-1.35C13.668 267.998 3.27 260.762.95 259.175c-.28-.199-.437-.303-.473-.329l.591-.876.001-.015.6-.884c.036.026.568.375 1.528 1.05 3.608 2.502 13.301 9.381 25.32 19.102.539.441 1.1.892 1.654 1.349 6.386 5.215 13.36 11.179 20.388 17.687 1.768 1.632 3.49 3.26 5.168 4.884.527.493 1.047.993 1.551 1.492 7.108 6.902 13.453 13.636 19.034 20.2Z"
              fill="#fff"/>
        <path d="M28.516 277.223a68.44 68.44 0 0 1-1.497 1.611 59.009 59.009 0 0 1-4.416 4.129A57.446 57.446 0 0 1 0 294.68l.065 2.186A59.577 59.577 0 0 0 23.983 284.6a61.06 61.06 0 0 0 4.706-4.416 47.806 47.806 0 0 0 1.482-1.613 59.046 59.046 0 0 0 9.722-14.956c-.732-.154-1.448-.306-2.15-.457a57.258 57.258 0 0 1-9.227 14.065ZM55.727 301.142a38.121 38.121 0 0 1-1.653 1.478c-.165.153-.345.305-.517.449a57.755 57.755 0 0 1-52.2 11.621c.08.759.16 1.517.254 2.277a59.896 59.896 0 0 0 53.325-12.261c.23-.193.46-.386.681-.588a75.002 75.002 0 0 0 1.661-1.484 59.567 59.567 0 0 0 17.091-28.966c-.669-.262-1.338-.524-2.015-.779a57.341 57.341 0 0 1-16.627 28.253Z"
              fill="#fff"/>
        <path d="M76.312 322.835a52.221 52.221 0 0 1-1.629 1.555 61.202 61.202 0 0 1-1.807 1.594 57.91 57.91 0 0 1-69.298 3.928c.19.973.374 1.938.581 2.898a60.033 60.033 0 0 0 70.097-5.19 44.406 44.406 0 0 0 1.799-1.586 51.85 51.85 0 0 0 1.651-1.546 59.84 59.84 0 0 0 17.774-40.196c-.683-.46-1.383-.892-2.09-1.332a57.708 57.708 0 0 1-17.078 39.875Z"
              fill="#fff"/>
        <path d="M261.202 94.08V34.49A34.495 34.495 0 0 0 226.709 0H100.444a34.497 34.497 0 0 0-31.868 21.29 34.487 34.487 0 0 0-2.625 13.2v39.575h-2.22V88.01h2.22v14.874h-2.22v21.382h2.22v9.296h-2.22v21.382h2.22v206.464a34.492 34.492 0 0 0 34.493 34.49h126.264c4.53 0 9.016-.892 13.2-2.626a34.484 34.484 0 0 0 21.294-31.864v-224.91h2.175V94.08h-2.175Z"
              fill="#3F3D56"/>
        <path d="M228.101 8.973h-16.482a12.232 12.232 0 0 1-1.174 11.447 12.245 12.245 0 0 1-10.157 5.41h-72.336a12.243 12.243 0 0 1-10.156-5.41 12.243 12.243 0 0 1-1.174-11.447h-15.394a25.761 25.761 0 0 0-25.76 25.756v326.439a25.758 25.758 0 0 0 25.76 25.756h126.873a25.757 25.757 0 0 0 25.759-25.756V34.729a25.764 25.764 0 0 0-7.545-18.212 25.763 25.763 0 0 0-18.214-7.544Z"
              fill="#fff"/>
        <path d="M231.292 122.577H98.036a3.505 3.505 0 0 1-3.502-3.502V65.012a3.506 3.506 0 0 1 3.502-3.502h133.256a3.505 3.505 0 0 1 3.502 3.502v54.063a3.503 3.503 0 0 1-3.502 3.502ZM218.603 148.161H110.725a3.853 3.853 0 0 1 0-7.705h107.878c1.022 0 2.002.406 2.725 1.128a3.856 3.856 0 0 1 0 5.448 3.853 3.853 0 0 1-2.725 1.129Z"
              fill="#2F8D63"/>
        <path d="M218.603 167.773H110.725a4.199 4.199 0 0 1-4.203-4.202 4.203 4.203 0 0 1 4.203-4.203h107.878a4.203 4.203 0 1 1 0 8.405ZM218.603 187.035H110.725a4.203 4.203 0 1 1 0-8.405h107.878a4.203 4.203 0 1 1 0 8.405ZM231.292 284.377H98.036a3.505 3.505 0 0 1-3.502-3.502v-54.063a3.504 3.504 0 0 1 3.502-3.502h133.256a3.503 3.503 0 0 1 3.502 3.502v54.063a3.503 3.503 0 0 1-3.502 3.502ZM218.603 310.311H110.725a4.202 4.202 0 1 1 0-8.405h107.878a4.203 4.203 0 1 1 0 8.405ZM218.603 329.573H110.725a4.203 4.203 0 1 1 0-8.405h107.878a4.203 4.203 0 1 1 0 8.405ZM218.603 348.835H110.725a4.203 4.203 0 1 1 0-8.405h107.878a4.199 4.199 0 0 1 4.203 4.202 4.199 4.199 0 0 1-4.203 4.203Z"
              fill="#E4E4E4"/>
        <path d="M339.68 102.5c-1.355-9.94-3.055-20.61-10.065-27.785a23.584 23.584 0 0 0-26.348-5.107 23.58 23.58 0 0 0-7.716 5.46c-5.103 5.443-7.357 13.087-7.563 20.546-.206 7.458 1.455 14.834 3.298 22.064a68.02 68.02 0 0 0 28.386-5.586 45.598 45.598 0 0 1 6.806-2.672c2.364-.602 4.05.913 6.25 1.969l1.208-2.312c.988 1.839 4.049 1.294 5.159-.475 1.111-1.768.867-4.033.585-6.102Z"
              fill="#2F2E41"/>
        <path d="m429.016 374.737-7.163 4.737-21.682-25.374 10.572-6.991 18.273 27.628Z" fill="#9E616A"/>
        <path d="m435.435 380.471-23.097 15.273-.193-.292a10.774 10.774 0 0 1 3.044-14.934l14.108-9.329 6.138 9.282Z"
              fill="#2F2E41"/>
        <path d="M336.545 387.421h-8.588l-4.085-33.122 12.675.001-.002 33.121Z" fill="#9E616A"/>
        <path d="m338.736 395.744-27.692-.001v-.35a10.777 10.777 0 0 1 10.778-10.777h.001l16.913.001v11.127Z"
              fill="#2F2E41"/>
        <path d="m275.442 159.802-32.426-23.16a6.3 6.3 0 0 0-6.54-7.033 6.298 6.298 0 0 0-5.593 4.009 6.305 6.305 0 0 0 1.409 6.735 6.296 6.296 0 0 0 3.153 1.716c4.053 3.403 33.658 32.842 37.897 31.289 4.302-1.576 23.112-4.429 23.112-4.429l.524-17.858-21.536 8.731Z"
              fill="#9E616A"/>
        <path d="m300.918 201.94.307 40.75s7.017 60.378 9.605 70.578c2.588 10.2 13.094 57.397 13.094 57.397l17.077-2.754-10.998-61.707 3.324-51.143 19.17 51.256 48.674 50.874 12.337-9.952-42.368-62.256-12.94-50.999s1.61-26.378-12.89-36.537l-44.392 4.493Z"
              fill="#2F2E41"/>
        <path d="M310.728 112.333c10.338 0 18.718-8.38 18.718-18.716 0-10.337-8.38-18.717-18.718-18.717s-18.718 8.38-18.718 18.716c0 10.337 8.38 18.717 18.718 18.717Z"
              fill="#9E616A"/>
        <path d="m315.599 208.515-6.957 15.528 20.188 9.043 6.957-15.527-20.188-9.044Z" fill="#2F2E41"/>
        <path d="M340.708 129.629c-2.206-4.39-3.277-9.813-7.98-11.236-3.176-.961-16.02.479-18.914 2.102-4.814 2.698-.451 7.754-3.292 12.486l-9.262 15.431c-2.123 3.536-4.267 7.123-5.415 11.084-1.148 3.961-1.203 8.407.752 12.039 1.75 3.25 4.92 5.555 6.68 8.8 1.83 3.375-1.455 18.443-3.159 21.884l.818.378c11.324.664 22.685.282 33.938-1.142 2.793-.354 5.694-.816 7.995-2.437 3.391-2.388 4.731-6.721 5.569-10.782a90.824 90.824 0 0 0-7.73-58.607Z"
              fill="#E4E4E4"/>
        <path d="M302.401 172.14c5.071-4.984 10.168-9.997 14.343-15.752 4.174-5.755 7.42-12.342 8.327-19.394a14.364 14.364 0 0 0-.449-6.738c-.778-2.135-2.501-4.031-4.721-4.518-3.553-.78-6.783 2.055-9.318 4.663l-22.427 23.07 14.286 18.802-.041-.133Z"
              fill="#E4E4E4"/>
        <path d="M357.674 175.978c-1.576-4.302-4.43-23.11-4.43-23.11l-17.859-.523 8.731 21.533-23.827 33.352.125.204a6.302 6.302 0 1 0 5.285 6.696.437.437 0 0 0 .546-.094c2.651-3.327 33.005-33.756 31.429-38.058Z"
              fill="#9E616A"/>
        <path d="M359.489 164.1c-1.639-6.918-3.29-13.874-6.054-20.424-2.764-6.55-6.72-12.737-12.285-17.163a14.369 14.369 0 0 0-5.998-3.103c-2.23-.44-4.744.052-6.31 1.699-2.507 2.636-1.752 6.867-.833 10.386l8.132 31.128 23.483-2.489-.135-.034Z"
              fill="#E4E4E4"/>
        <path d="M334.129 95.072c-.586-4.528-1.197-9.093-2.572-13.356-1.375-4.264-3.591-8.257-6.77-10.672-5.033-3.823-11.55-3.086-17.193-.887-4.364 1.701-8.624 4.287-11.702 8.443-3.078 4.156-4.806 10.087-3.661 15.522l18.059-5.025-.659.548c3.906 2.2 6.873 6.755 7.759 11.911a20.11 20.11 0 0 1-3.178 14.735l12.316-5.146c2.534-1.058 5.246-2.278 6.749-4.994 1.742-3.148 1.337-7.322.852-11.079Z"
              fill="#2F2E41"/>
        <path d="M454.27 397.222H.834a.837.837 0 0 1-.832-.834.833.833 0 0 1 .832-.834H454.27a.834.834 0 0 1 0 1.668Z"
              fill="#3F3D56"/>
        <path d="M169.392 15.08h-18.913a1.402 1.402 0 1 1 0-2.803h18.913a1.402 1.402 0 1 1 0 2.802ZM178.849 15.08a1.4 1.4 0 1 0 0-2.802 1.4 1.4 0 0 0 0 2.801Z"
              fill="#fff"/>
    </g>
    <defs>
        <clipPath id="a">
            <path fill="#fff" d="M0 0h455.104v398H0z"/>
        </clipPath>
    </defs>
</svg>