<svg width="238" height="227" fill="none" xmlns="http://www.w3.org/2000/svg"><path d="M217.017 161.662c-13.657.577-21.38.157-31.336-8.471-6.778-.18-12.166-5.074-12.011-10.91.156-5.836 5.797-10.437 12.575-10.257l24.612 1.165c6.778.18 19.384-.237 19.228 5.599-.076 2.865-.077 6.581-.344 10.474a13.29 13.29 0 0 1-3.986 8.629 13.332 13.332 0 0 1-8.738 3.771Z" fill="#2F2E41"/><path d="m173.149 216.291-7.052 1.15-7.799-26.608 10.407-1.698 4.444 27.156Z" fill="#FFB6B6"/><path d="M170.348 160.807c13.147 3.227 22.855-.407 30.851.064 4.545-7.658 19.054-17.384 11.138-21.479-4.409-2.28-49.225-7.536-55.109-1.469-15.128 15.598 3.655 64.86 3.655 64.86l10.448-.135 3.337-4.756-2.688-5.184 2.543-4.239-2.911-4.366-1.264-23.296ZM178 221.607l-4.62 1.235-1.992-4.135-.945 4.92-12.252 3.275a2.856 2.856 0 0 1-3.148-1.228 2.842 2.842 0 0 1 .238-3.366l7.975-9.363-1.18-4.403 10.456-2.138L178 221.607Z" fill="#2F2E41"/><path d="m230.937 207.618-5.147 4.949-21.567-17.463 7.595-7.304 19.119 19.818Z" fill="#FFB6B6"/><path d="M189.45 152.598c12.052 4.635 22.593-.519 33.007-6.494-.621-8.88-.968-21.683-9.812-20.558-4.925.627-45.632 7.342-47.018 15.672-3.564 21.42 47.527 62.25 47.527 62.25l8.518-6.041.038-5.807-5.164-2.739-.321-4.931-4.881-1.94-21.894-29.412ZM237.954 209.239l-3.097 3.638-3.993-2.27 2.024 4.583-8.215 9.65a2.858 2.858 0 0 1-3.289.776 2.85 2.85 0 0 1-1.721-2.905l1.23-12.229-3.478-2.952 7.385-7.694 13.154 9.403Z" fill="#2F2E41"/><path d="M183.096 134.931c-.849 0-1.331-.166-1.518-.522-.274-.524-2.023-1.207-1.473-1.999.384-.551 1.311-1.29.954-1.715-1.374-1.639-4.805-48.637-5.614-55.049a12.766 12.766 0 0 1 .787-5.85c2.265-6.407 5.357-8.377 11.516-12.299.5-.319 1.021-.651 1.562-.998.7-.45.661.6.62-.977-.046-1.753-.093-3.566.767-4.7l.056-.074.09-.02c2.081-.48 9.078-1.372 13.223.006l.057.02.043.042c.984.983 1.074 2.887 1.16 4.728.071 1.511.139.4.696 1.02 2.129 2.369 5.336 3.738 8.012 4.515a7.843 7.843 0 0 1 4.173 2.915 7.822 7.822 0 0 1 1.498 4.86c-.29 8.771-.062 22.64-1.561 32.415-2.496 16.267 20.288 39.759 7.238 40.242a.335.335 0 0 1 .011.345c-.932 1.738-39.097-6.905-42.297-6.905Z" fill="#F5E05D"/><path d="M196.304 49.422c8.591 0 15.556-6.953 15.556-15.531s-6.965-15.532-15.556-15.532-15.556 6.954-15.556 15.532 6.965 15.531 15.556 15.531Z" fill="#2F2E41"/><path d="M197.556 50.703c6.172-.174 11.033-5.311 10.858-11.473-.175-6.162-5.32-11.016-11.491-10.841-6.172.175-11.033 5.311-10.858 11.473.175 6.162 5.319 11.016 11.491 10.841Z" fill="#FFB6B6"/><path d="m197.348 22.525-4.532.128a10.796 10.796 0 0 0-7.525 3.367 10.76 10.76 0 0 0-2.943 7.69l.003.1.082.052a14.32 14.32 0 0 0 8.323 2.364l.255-.007 2.504-.113a6.893 6.893 0 0 0 .409-3.406c.378 1.092.674 2.21.883 3.346l11.235-.51a2.505 2.505 0 0 0 2.385-2.563 10.765 10.765 0 0 0-3.375-7.512 10.797 10.797 0 0 0-7.704-2.936ZM188.317 19.724c-1.022 1.26-2.665 1.784-4.141 2.466a17.704 17.704 0 0 0-6.595 5.375 17.656 17.656 0 0 0-3.322 7.827c-.347 2.313-.226 4.693-.814 6.955-.585 2.261-2.129 4.507-4.422 4.962-1.552.31-3.132-.247-4.616-.8-.816-.3-1.632-.603-2.448-.906.782-2.132 1.562-4.264 2.341-6.396a32.111 32.111 0 0 1-4.519 5.594c-2.925-1.083-5.852-2.165-8.781-3.247 7.127-.174 5.715-7.046 7.112-14.02.768-3.833 8.157-6.623 9.517-10.287a11.089 11.089 0 0 1 3.716-5.002 11.115 11.115 0 0 1 16.39 3.422c1.479.541 1.586 2.814.582 4.057Z" fill="#2F2E41"/><path d="M189.03 24.343a5.788 5.788 0 0 0 5.792-5.783 5.788 5.788 0 0 0-5.792-5.784 5.788 5.788 0 0 0-5.793 5.784 5.788 5.788 0 0 0 5.793 5.783Z" fill="#2F2E41"/><path d="M209.606 107.791h-26.742a3.46 3.46 0 0 1-2.441-1.011 3.448 3.448 0 0 1-1.013-2.437v-28.7a3.459 3.459 0 0 1 3.454-3.449h26.742a3.459 3.459 0 0 1 3.454 3.449v28.7a3.448 3.448 0 0 1-1.013 2.437 3.46 3.46 0 0 1-2.441 1.011Z" fill="#3F3D56"/><path d="M183.616 78.394a2.002 2.002 0 0 0 2.003-2c0-1.104-.897-2-2.003-2a2.002 2.002 0 0 0-2.003 2c0 1.105.897 2 2.003 2Z" fill="#E6E6E6"/><path d="M183.616 77.594a1.2 1.2 0 1 0-1.202-1.2 1.2 1.2 0 0 0 1.202 1.2Z" fill="#3F3D56"/><path d="m192.016 106.398-18.369-4.651-2.855 9.436s19.762 1.461 20.5 1.468a4.724 4.724 0 0 0 5.03 1.849 4.723 4.723 0 0 0 3.526-4.031 4.712 4.712 0 0 0-2.513-4.727 4.727 4.727 0 0 0-5.319.656Z" fill="#FFB6B6"/><path d="M179.758 63.606c-13.097 6.988-18.837 22.565-26.872 36.255a10.81 10.81 0 0 0 6.217 11.007 10.86 10.86 0 0 0 4.36.999l15.719.361-1.97-9.684-5.258-2.982 6.215-15.01 1.589-20.946Z" fill="#F5E05D"/><path d="m199.172 78.736 12.536 15.188-5.177 8.191s-12.605-19.676-12.89-20.356a4.725 4.725 0 0 1-3.609-3.957 4.71 4.71 0 0 1 2.413-4.779 4.734 4.734 0 0 1 5.333.545 4.718 4.718 0 0 1 1.394 5.168Z" fill="#FFB6B6"/><path d="M218.067 63.995c3.784-2.088 14.821 30.11 3.207 48.423a10.856 10.856 0 0 1-8.725.702 10.83 10.83 0 0 1-6.396-5.965l-6.012-14.692 9.632-3.066 4.601 5.27-.64-10.485 5.475-14.904-1.142-5.283Z" fill="#F5E05D"/><path d="M130.11 76H5.89a5.856 5.856 0 0 1-4.163-1.751A6.02 6.02 0 0 1 0 70.029V5.97a6.02 6.02 0 0 1 1.727-4.22A5.856 5.856 0 0 1 5.89 0h124.22a5.855 5.855 0 0 1 4.163 1.751A6.022 6.022 0 0 1 136 5.971V70.03a6.022 6.022 0 0 1-1.727 4.22A5.855 5.855 0 0 1 130.11 76Z" fill="#CCC"/><path d="M128.952 72H7.048a3.044 3.044 0 0 1-2.154-.898A3.072 3.072 0 0 1 4 68.938V8.062c0-.812.322-1.59.894-2.164A3.044 3.044 0 0 1 7.048 5h121.904c.808 0 1.583.324 2.154.898A3.07 3.07 0 0 1 132 8.062v60.876a3.07 3.07 0 0 1-.894 2.164 3.043 3.043 0 0 1-2.154.898Z" fill="#fff"/><path d="M122.04 87.302 108 73l18 .463v12.168c.005.468-.129.927-.385 1.317-.255.39-.62.691-1.047.866a2.252 2.252 0 0 1-1.784.003 2.284 2.284 0 0 1-.744-.515ZM114.149 36H52.851a2.781 2.781 0 0 1-2.016-.879A3.082 3.082 0 0 1 50 33c0-.796.3-1.559.835-2.121A2.781 2.781 0 0 1 52.851 30h61.298c.756 0 1.481.316 2.016.879A3.08 3.08 0 0 1 117 33c0 .796-.3 1.559-.835 2.121a2.782 2.782 0 0 1-2.016.879ZM94.152 23h-41.3c-.374 0-.745-.077-1.09-.227a2.843 2.843 0 0 1-.926-.65 3.017 3.017 0 0 1-.619-.974 3.14 3.14 0 0 1 0-2.298c.144-.364.354-.695.619-.974.265-.278.58-.5.925-.65.346-.15.717-.228 1.091-.227h41.3c.755 0 1.48.316 2.014.879C96.7 18.44 97 19.204 97 20s-.3 1.559-.834 2.121a2.777 2.777 0 0 1-2.014.879Z" fill="#CCC"/><path d="M95.5 59a2.5 2.5 0 1 0 0-5 2.5 2.5 0 0 0 0 5ZM105 59c1.657 0 3-1.12 3-2.5s-1.343-2.5-3-2.5-3 1.12-3 2.5 1.343 2.5 3 2.5ZM115.5 59a2.5 2.5 0 1 0 0-5 2.5 2.5 0 0 0 0 5Z" fill="#E6E6E6"/><path d="M25.477 19.053a6.66 6.66 0 0 0-4.66-2.051 6.692 6.692 0 0 0-4.754 1.827 6.621 6.621 0 0 0-2.061 4.636 6.589 6.589 0 0 0 1.84 4.727c.072.076.146.15.223.222L25.704 38l9.412-9.36A6.76 6.76 0 0 0 37 23.88a6.761 6.761 0 0 0-1.996-4.714 6.836 6.836 0 0 0-4.74-1.985 6.838 6.838 0 0 0-4.786 1.872Z" fill="#004B76"/></svg>