<svg width="297" height="183" fill="none" xmlns="http://www.w3.org/2000/svg"><path d="M234.293 181.528H.182c-.048 0-.095-.028-.129-.078a.33.33 0 0 1-.053-.186c0-.07.02-.137.053-.187.034-.049.08-.077.129-.077h234.111c.048 0 .094.028.128.077.034.05.053.117.053.187a.33.33 0 0 1-.053.186c-.034.05-.08.078-.128.078Z" fill="#CCC"/><path d="M296.818 181.528H62.708c-.049 0-.095-.028-.13-.078a.33.33 0 0 1-.053-.186c0-.07.02-.137.054-.187.034-.049.08-.077.128-.077h234.111c.048 0 .094.028.129.077.034.05.053.117.053.187a.33.33 0 0 1-.053.186c-.035.05-.081.078-.129.078Z" fill="#CCC"/><rect x="29.988" y="45.988" width="117.06" height="135.575" rx="2.986" fill="#D5D5D5"/><path d="M38.042 177.965h-.015a2.067 2.067 0 0 1-2.066-2.066V54.624a2.069 2.069 0 0 1 2.066-2.065h102.075a2.067 2.067 0 0 1 2.066 2.065v94.298a2.069 2.069 0 0 1-2.05 2.066L38.042 177.965Z" fill="#F2F2F2"/><path d="M71.483 79.9H53.56a1.425 1.425 0 0 1-1.423-1.423V68.93a1.425 1.425 0 0 1 1.423-1.424h17.923a1.425 1.425 0 0 1 1.423 1.424v9.547a1.425 1.425 0 0 1-1.423 1.424ZM98.754 79.9H80.832a1.425 1.425 0 0 1-1.424-1.423V68.93a1.425 1.425 0 0 1 1.424-1.424h17.922a1.425 1.425 0 0 1 1.424 1.424v9.547a1.425 1.425 0 0 1-1.424 1.424Z" fill="#fff"/><path d="M126.028 79.9h-17.923a1.426 1.426 0 0 1-1.423-1.423V68.93a1.423 1.423 0 0 1 1.423-1.424h17.923a1.426 1.426 0 0 1 1.423 1.424v9.547a1.423 1.423 0 0 1-1.423 1.424Z" fill="#349D6E"/><path d="M71.483 111.739H53.56a1.428 1.428 0 0 1-1.423-1.424v-9.548a1.425 1.425 0 0 1 1.423-1.423h17.923a1.425 1.425 0 0 1 1.423 1.423v9.548a1.426 1.426 0 0 1-1.423 1.424ZM98.754 111.739H80.832a1.428 1.428 0 0 1-1.424-1.424v-9.548a1.425 1.425 0 0 1 1.424-1.423h17.922a1.425 1.425 0 0 1 1.424 1.423v9.548a1.426 1.426 0 0 1-1.424 1.424ZM126.028 111.739h-17.923a1.428 1.428 0 0 1-1.423-1.424v-9.548a1.422 1.422 0 0 1 1.423-1.423h17.923a1.426 1.426 0 0 1 1.423 1.423v9.548a1.423 1.423 0 0 1-1.423 1.424ZM71.483 143.576H53.56a1.423 1.423 0 0 1-1.423-1.423v-9.548a1.426 1.426 0 0 1 1.423-1.423h17.923a1.423 1.423 0 0 1 1.423 1.423v9.548a1.426 1.426 0 0 1-1.423 1.423ZM98.754 143.576H80.832a1.423 1.423 0 0 1-1.424-1.423v-9.548a1.426 1.426 0 0 1 1.424-1.423h17.922a1.423 1.423 0 0 1 1.424 1.423v9.548a1.426 1.426 0 0 1-1.424 1.423ZM126.028 143.576h-17.923a1.423 1.423 0 0 1-1.423-1.423v-9.548a1.423 1.423 0 0 1 1.423-1.423h17.923a1.423 1.423 0 0 1 1.423 1.423v9.548a1.423 1.423 0 0 1-1.423 1.423Z" fill="#fff"/><path d="M68.578 81.248a2.016 2.016 0 0 0 2.014-2.014v-11.06a2.016 2.016 0 0 0-2.014-2.014H47.816a2.016 2.016 0 0 0-2.014 2.014v11.06a2.016 2.016 0 0 0 2.014 2.014h20.762Zm-21.67-13.982c.241-.241.568-.377.908-.377h20.762a1.287 1.287 0 0 1 1.285 1.285v11.06a1.286 1.286 0 0 1-1.285 1.285H47.816a1.286 1.286 0 0 1-1.285-1.285v-11.06c0-.34.136-.668.377-.908ZM100.174 81.248a2.014 2.014 0 0 0 2.014-2.014v-11.06a2.016 2.016 0 0 0-2.014-2.014H79.412a2.016 2.016 0 0 0-2.014 2.014v11.06a2.016 2.016 0 0 0 2.014 2.014h20.762Zm-21.67-13.982c.24-.241.567-.377.908-.377h20.762a1.288 1.288 0 0 1 1.285 1.285v11.06a1.289 1.289 0 0 1-1.285 1.285H79.412a1.286 1.286 0 0 1-1.285-1.285v-11.06c0-.34.136-.668.377-.908ZM131.768 81.248a2.016 2.016 0 0 0 2.013-2.014v-11.06a2.011 2.011 0 0 0-2.013-2.014h-20.762a2.018 2.018 0 0 0-2.014 2.014v11.06a2.015 2.015 0 0 0 2.014 2.014h20.762Zm-21.67-13.982c.24-.241.567-.377.908-.377h20.762a1.288 1.288 0 0 1 1.284 1.285v11.06a1.288 1.288 0 0 1-1.285 1.285h-20.761a1.286 1.286 0 0 1-1.285-1.285v-11.06c0-.34.136-.668.377-.908ZM68.578 113.084a2.016 2.016 0 0 0 2.014-2.014v-11.061a2.016 2.016 0 0 0-2.014-2.013H47.816a2.016 2.016 0 0 0-2.014 2.013v11.061a2.014 2.014 0 0 0 2.014 2.014h20.762Zm-21.67-13.982c.241-.241.568-.377.908-.377h20.762a1.286 1.286 0 0 1 1.285 1.285v11.06a1.287 1.287 0 0 1-1.285 1.284H47.816a1.283 1.283 0 0 1-1.285-1.284v-11.06c0-.341.136-.668.377-.908ZM100.174 113.084a2.014 2.014 0 0 0 2.014-2.014v-11.061a2.016 2.016 0 0 0-2.014-2.013H79.412a2.016 2.016 0 0 0-2.014 2.013v11.061a2.014 2.014 0 0 0 2.014 2.014h20.762Zm-21.67-13.982c.24-.241.567-.377.908-.377h20.762a1.287 1.287 0 0 1 1.285 1.285v11.06a1.29 1.29 0 0 1-1.285 1.284H79.412a1.284 1.284 0 0 1-1.285-1.284v-11.06c0-.341.136-.668.377-.908ZM131.768 113.084a2.016 2.016 0 0 0 2.013-2.014v-11.061a2.016 2.016 0 0 0-2.013-2.013h-20.762a2.018 2.018 0 0 0-2.014 2.013v11.061a2.013 2.013 0 0 0 2.014 2.014h20.762Zm-21.67-13.982c.24-.241.567-.377.908-.377h20.762a1.287 1.287 0 0 1 1.284 1.285v11.06a1.285 1.285 0 0 1-1.285 1.284h-20.761a1.283 1.283 0 0 1-1.285-1.284v-11.06c0-.341.136-.668.377-.908ZM68.578 144.921a2.016 2.016 0 0 0 2.014-2.013v-11.061a2.016 2.016 0 0 0-2.014-2.013H47.816a2.015 2.015 0 0 0-2.014 2.013v11.061a2.016 2.016 0 0 0 2.014 2.013h20.762Zm-21.67-13.982c.241-.24.568-.376.908-.376h20.762a1.287 1.287 0 0 1 1.285 1.285v11.059a1.288 1.288 0 0 1-1.285 1.285H47.816a1.287 1.287 0 0 1-1.285-1.285v-11.059c0-.341.136-.668.377-.909ZM100.174 144.921a2.016 2.016 0 0 0 2.014-2.013v-11.061a2.016 2.016 0 0 0-2.014-2.013H79.412a2.015 2.015 0 0 0-2.014 2.013v11.061a2.016 2.016 0 0 0 2.014 2.013h20.762Zm-21.67-13.982c.24-.24.567-.376.908-.376h20.762a1.289 1.289 0 0 1 1.285 1.285v11.059a1.285 1.285 0 0 1-1.285 1.285H79.412a1.284 1.284 0 0 1-1.285-1.285v-11.059c0-.341.136-.668.377-.909ZM131.768 144.921a2.011 2.011 0 0 0 2.013-2.013v-11.061a2.011 2.011 0 0 0-2.013-2.013h-20.762a2.018 2.018 0 0 0-2.014 2.013v11.061a2.015 2.015 0 0 0 2.014 2.013h20.762Zm-21.67-13.982c.24-.24.567-.376.908-.376h20.762c.34 0 .667.136.908.376.24.241.376.568.376.909v11.059a1.285 1.285 0 0 1-1.285 1.285h-20.761a1.283 1.283 0 0 1-1.285-1.285v-11.059c0-.341.136-.668.377-.909ZM100.002 156.578H89.671v25.397h12.517v-23.158a2.216 2.216 0 0 0-2.186-2.239Z" fill="#AAA" stroke="#AAA" stroke-width=".243"/><path d="M89.972 181.853h.121v-25.275H79.621c-.64 0-1.251.257-1.703.713a2.443 2.443 0 0 0-.706 1.717v22.845h12.76Zm-.603-.729H77.937v-22.116c0-.451.178-.884.494-1.203a1.674 1.674 0 0 1 1.19-.498h9.748v23.817Z" fill="#AAA" stroke="#AAA" stroke-width=".243"/><path d="M78.856 170.796a.729.729 0 1 0 0-1.458.729.729 0 0 0 0 1.458Z" fill="#AAA"/><rect x="39.545" y="33.445" width="97.948" height="15.528" rx="2.986" fill="#D5D5D5"/><rect x="61.643" y="11.348" width="54.349" height="24.487" rx="2.986" fill="#D5D5D5"/><rect x="68.811" width="9.556" height="15.528" rx="2.986" fill="#D5D5D5"/><path d="M186.678 168.42H172v2.097h14.678v-2.097Z" fill="#AAA"/><path d="m283.13 167.728-2.777.636-105.541.056-.949-2.188a21.871 21.871 0 0 1-1.641-11.939c.455-3.022 1.594-6.024 4.181-7.328l4.683-30.862 58.391-.103 22.591 18.027s10.656-.19 16.446 6.941a16.63 16.63 0 0 1 3.538 9.218l.229 3.709.849 13.833Z" fill="#349D6E"/><path d="M260.067 181.001c6.948 0 12.581-5.632 12.581-12.58 0-6.949-5.633-12.581-12.581-12.581-6.948 0-12.581 5.632-12.581 12.581 0 6.948 5.633 12.58 12.581 12.58Z" fill="#AAA"/><path d="M260.066 174.712a6.29 6.29 0 1 0-.001-12.581 6.29 6.29 0 0 0 .001 12.581Z" fill="#CCC"/><path d="M195.065 181.001c6.948 0 12.581-5.632 12.581-12.58 0-6.949-5.633-12.581-12.581-12.581-6.948 0-12.581 5.632-12.581 12.581 0 6.948 5.633 12.58 12.581 12.58Z" fill="#AAA"/><path d="M195.066 174.712a6.29 6.29 0 1 0-.001-12.581 6.29 6.29 0 0 0 .001 12.581Z" fill="#CCC"/><path d="m253.776 132.757-31.568.015h-3.853l-6.506.004v-.473l-.005-5.697-.004-6.396h4.328l3.854-.006 6.825-.004h3.854l7.88-.005 15.195 12.562ZM205.55 132.767l-16.766.009-.004-3.261v-5.699l-.005-3.612h2.455l3.873-.004 10.442-.005.005 12.572Z" fill="#fff"/><path d="M213.937 141.16h-2.097v4.194h2.097v-4.194ZM249.066 137.989l-.002-2.149-4.083.002.001 2.149 4.084-.002Z" fill="#AAA"/><path d="M247.486 128.584h.21c.523 0 1.041.108 1.525.319.483.211.922.52 1.292.909.37.39.663.852.864 1.361.2.509.303 1.054.303 1.605a4.31 4.31 0 0 1-1.167 2.965 3.886 3.886 0 0 1-2.817 1.228h-.21v-8.387ZM283.127 153.702c-1.771.169-3.554-.215-5.035-1.084-1.48-.869-2.562-2.168-3.056-3.666a5.865 5.865 0 0 1 .358-4.528c.724-1.425 2-2.581 3.602-3.264 2.29 2.572 3.643 5.689 3.881 8.943l.25 3.599Z" fill="#AAA"/><path d="m220.227 120.195-8.383 12.581-.004-5.924 4.435-6.651 3.952-.006ZM195.066 120.195l-6.291 8.387v-5.131l2.438-3.252 3.853-.004ZM230.71 120.195l-8.654 12.581h-3.927l8.654-12.581h3.927Z" fill="#F2F2F2"/></svg>