<svg width="266" height="231" fill="none" xmlns="http://www.w3.org/2000/svg"><g clip-path="url(#a)"><path d="M243.762 198.295h-120.14a2.775 2.775 0 0 1-1.986-.848 2.949 2.949 0 0 1-.824-2.046v-84.515a2.945 2.945 0 0 1 .824-2.045 2.772 2.772 0 0 1 1.986-.849h120.14a2.771 2.771 0 0 1 1.985.849 2.94 2.94 0 0 1 .824 2.045v84.515a2.944 2.944 0 0 1-.824 2.046 2.774 2.774 0 0 1-1.985.848Z" fill="#fff"/><path d="M243.762 198.295h-120.14a2.775 2.775 0 0 1-1.986-.848 2.949 2.949 0 0 1-.824-2.046v-84.515a2.945 2.945 0 0 1 .824-2.045 2.772 2.772 0 0 1 1.986-.849h120.14a2.771 2.771 0 0 1 1.985.849 2.94 2.94 0 0 1 .824 2.045v84.515a2.944 2.944 0 0 1-.824 2.046 2.774 2.774 0 0 1-1.985.848Zm-120.14-89.66a2.158 2.158 0 0 0-1.545.66 2.29 2.29 0 0 0-.64 1.591v84.515c0 .597.231 1.169.64 1.591.41.422.965.659 1.545.66h120.14a2.157 2.157 0 0 0 1.544-.66c.41-.422.64-.994.641-1.591v-84.515a2.29 2.29 0 0 0-.641-1.591 2.157 2.157 0 0 0-1.544-.66h-120.14Z" fill="#3F3D56"/><path d="M197.599 197.787h-27.814v-47.438a4.313 4.313 0 0 1 1.208-2.999 4.064 4.064 0 0 1 2.911-1.245h19.576a4.064 4.064 0 0 1 2.911 1.245 4.308 4.308 0 0 1 1.208 2.999v47.438Z" fill="#E6E6E6"/><path d="M237.21 89.978h-15.884V62.63a2.941 2.941 0 0 1 .824-2.045 2.772 2.772 0 0 1 1.985-.849h10.266c.745.001 1.459.306 1.985.849.527.542.823 1.278.824 2.045v27.348Z" fill="#fff"/><path d="M237.21 89.978h-15.884V62.63a2.941 2.941 0 0 1 .824-2.045 2.772 2.772 0 0 1 1.985-.849h10.266c.745.001 1.459.306 1.985.849.527.542.823 1.278.824 2.045v27.348Zm-15.26-.643h14.636V62.63a2.289 2.289 0 0 0-.641-1.59 2.154 2.154 0 0 0-1.544-.66h-10.266c-.579 0-1.134.237-1.544.66-.409.422-.64.994-.641 1.59v26.705Z" fill="#3F3D56"/><path d="M147.655 101.492c16.893 0 30.587-14.108 30.587-31.51 0-17.403-13.694-31.511-30.587-31.511-16.892 0-30.587 14.108-30.587 31.51 0 17.404 13.695 31.511 30.587 31.511Z" fill="#F2F2F2"/><path d="M158.037 159.886h-23.494a3.486 3.486 0 0 1-2.499-1.068 3.702 3.702 0 0 1-1.036-2.573V136.29a3.705 3.705 0 0 1 1.036-2.574 3.494 3.494 0 0 1 2.499-1.068h23.494a3.494 3.494 0 0 1 2.499 1.068 3.705 3.705 0 0 1 1.036 2.574v19.955a3.702 3.702 0 0 1-1.036 2.573 3.486 3.486 0 0 1-2.499 1.068ZM233.389 159.886h-23.495a3.486 3.486 0 0 1-2.498-1.068 3.699 3.699 0 0 1-1.037-2.573V136.29a3.701 3.701 0 0 1 1.037-2.574 3.494 3.494 0 0 1 2.498-1.068h23.495a3.492 3.492 0 0 1 2.498 1.068 3.701 3.701 0 0 1 1.037 2.574v19.955a3.699 3.699 0 0 1-1.037 2.573 3.484 3.484 0 0 1-2.498 1.068Z" fill="#E6E6E6"/><path d="M111.842 109.733V96.73c0-1 .256-1.98.743-2.844a5.578 5.578 0 0 1 2.028-2.076l70.13-41.294a5.37 5.37 0 0 1 2.862-.745 5.385 5.385 0 0 1 2.825.888l62.567 41.112a5.601 5.601 0 0 1 1.865 2.053c.445.835.678 1.772.678 2.724v13.185c0 1.503-.58 2.944-1.611 4.007a5.424 5.424 0 0 1-3.89 1.659H117.342a5.42 5.42 0 0 1-3.889-1.659 5.753 5.753 0 0 1-1.611-4.007Z" fill="#349D6E"/><path opacity=".2" d="M250.039 109.61H117.342a5.417 5.417 0 0 1-3.889-1.66 5.751 5.751 0 0 1-1.611-4.007v5.145c0 1.503.579 2.945 1.611 4.007a5.417 5.417 0 0 0 3.889 1.66h132.697a5.42 5.42 0 0 0 3.89-1.66 5.756 5.756 0 0 0 1.611-4.007v-5.145c0 1.503-.58 2.945-1.611 4.007a5.42 5.42 0 0 1-3.89 1.66Z" fill="#000"/><path d="M46.898 134.266c0-14.669 11.543-49.477 25.782-49.477 14.238 0 25.78 34.808 25.78 49.477 0 7.044-2.715 13.799-7.55 18.78-4.835 4.981-11.393 7.78-18.23 7.78-6.838 0-13.396-2.799-18.23-7.78-4.835-4.981-7.552-11.736-7.552-18.78Z" fill="#349D6E"/><path d="M72.681 198.556a.308.308 0 0 1-.22-.094.328.328 0 0 1-.092-.228v-95.369c0-.086.033-.168.092-.228a.308.308 0 0 1 .441 0c.058.06.091.142.091.228v95.369a.328.328 0 0 1-.091.228.308.308 0 0 1-.22.094Z" fill="#3F3D56"/><path d="M72.681 145.005a.31.31 0 0 1-.287-.195.333.333 0 0 1 .061-.349l13.106-14.168a.307.307 0 0 1 .441-.011.327.327 0 0 1 .01.455l-13.105 14.168a.304.304 0 0 1-.226.1ZM72.68 121.118a.307.307 0 0 1-.21-.084l-11.325-10.668a.327.327 0 0 1-.02-.455.304.304 0 0 1 .441-.02l11.326 10.668a.324.324 0 0 1 .08.354.31.31 0 0 1-.291.205Z" fill="#3F3D56"/><path d="M48.06 198.454c.06.048.123.091.184.137h51.235c1.004-4.19 1.358-8.385-.141-12.028-2.137-5.191-8.46-8.432-13.487-6.202a7.716 7.716 0 0 0-3.015 2.457c-1.965-3.623-5.489-6.354-9.557-6.351-5.096.004-9.333 4.297-10.716 9.256-2.226-3.872-6.625-6.578-10.923-5.414-7.19 1.947-9.462 13.462-3.58 18.145Z" fill="#E6E6E6"/><path d="M265.306 197.666 0 198.172l.001.643 265.306-.506-.001-.643Z" fill="#CCC"/><path fill="#fff" stroke="#BDBDBD" stroke-width="1.038" d="m6.205 148.676 164.718-10.897 6.716 101.525L12.921 250.2z"/><path d="M22.753 164.627c.1 1.518.9 2.026 1.941 1.957.698-.046 1.059-.338 1.17-.433l-.117-1.757-1.245.082.028.419.738-.049.075 1.123a1.77 1.77 0 0 1-.62.158c-.856.056-1.354-.413-1.43-1.553-.077-1.17.55-1.667 1.266-1.714.488-.032.8.175.91.243l.165-.419c-.104-.064-.453-.303-1.104-.26-.96.063-1.874.725-1.777 2.203Zm5.186-1.144a.746.746 0 0 0-.258-.023c-.436.028-.605.303-.679.512l-.012.001-.027-.413-.436.029.184 2.792.472-.031-.135-2.031a.69.69 0 0 1 .62-.438c.151-.01.223.02.26.036l.011-.434Zm.995-.054-.47.031.114 1.728c.051.78.389 1.114.965 1.076.547-.037.755-.331.835-.441l.012-.001.02.314.437-.029-.185-2.792-.471.031.14 2.129a.97.97 0 0 1-.695.344c-.378.025-.556-.197-.592-.738l-.11-1.652Zm5.01 2.473-.114-1.727c-.05-.762-.4-1.113-.994-1.074a1.14 1.14 0 0 0-.841.441l-.012.001-.021-.314-.436.029.184 2.792.472-.031-.142-2.141c.12-.125.335-.326.713-.351.395-.026.575.219.61.754l.11 1.652.471-.031Zm.605-1.389c.06.913.56 1.382 1.17 1.342.564-.037.738-.329.806-.439l.012-.001.02.314.437-.029-.275-4.165-.468.084.09 1.367a1.292 1.292 0 0 0-.53-.064c-.675.044-1.333.514-1.262 1.591Zm.487-.068c-.05-.756.285-1.07.826-1.106.25-.017.412.043.51.107l.106 1.611a.763.763 0 0 1-.613.35c-.42.028-.78-.223-.83-.962Zm5.05-.509c-.055-.849-.505-1.281-1.104-1.242-.453.03-.718.264-.82.411l-.011.001-.11-1.646-.468.072.257 3.874c.159.106.438.263.95.229.797-.053 1.384-.536 1.307-1.699Zm-.482.125c.053.791-.295 1.101-.882 1.14a.694.694 0 0 1-.439-.094l-.107-1.617a.875.875 0 0 1 .648-.364c.43-.029.736.266.78.935Zm1.572-1.442-.47.032.113 1.727c.052.78.39 1.114.966 1.076.546-.036.755-.331.835-.441l.012-.001.02.314.437-.029-.185-2.792-.471.031.14 2.129a.97.97 0 0 1-.695.344c-.378.025-.556-.197-.592-.738l-.11-1.652Zm4.557-.132c-.091-.058-.335-.217-.76-.189-.669.044-1.328.503-1.259 1.55.07 1.041.598 1.439 1.296 1.392.489-.032.722-.217.821-.305l-.17-.357a.996.996 0 0 1-.581.22c-.483.031-.827-.226-.88-1.017-.047-.722.306-1.037.812-1.071a.898.898 0 0 1 .584.166l.137-.389Zm3.02 2.436-.114-1.728c-.05-.762-.4-1.113-.994-1.074-.43.029-.678.261-.808.41l-.012.001-.11-1.658-.467.084.272 4.112.471-.031-.141-2.141c.12-.124.334-.325.712-.35.396-.027.576.219.611.754l.11 1.652.47-.031Zm3.925-3.064-.448.029-.571 2.223-.012.001-.865-2.128-.5.033 1.19 2.726.384-.026.822-2.858Zm2.927 1.202c-.066-1.006-.614-1.426-1.3-1.38-.67.044-1.245.538-1.178 1.544.067 1.007.615 1.438 1.302 1.392.669-.044 1.243-.549 1.176-1.556Zm-.488.033c.046.703-.234 1.055-.682 1.085-.437.029-.773-.282-.82-.986-.046-.71.246-1.062.682-1.091.437-.029.773.282.82.992Zm3.533 1.174-.115-1.728c-.05-.762-.4-1.113-.994-1.073a1.14 1.14 0 0 0-.841.441l-.012.001-.02-.314-.437.029.185 2.792.471-.031-.142-2.141c.12-.125.335-.326.713-.351.396-.026.576.219.611.754l.11 1.652.47-.031Zm5.004-4.362-.506.033.204 3.083-.012.001-2.223-2.95-.47.032.265 4.013.506-.033-.205-3.101h.011l2.224 2.966.471-.031-.265-4.013Zm3.09 2.015c-.044-.68-.441-1.034-1.017-.996-.634.042-1.169.533-1.104 1.505.069 1.047.588 1.474 1.338 1.424.617-.04.873-.32.932-.394l-.18-.345c-.072.069-.292.271-.716.299-.5.033-.817-.244-.894-.876l1.623-.107c.02-.148.032-.312.019-.51Zm-1.02-.592c.332-.022.55.185.576.575.004.058.007.116 0 .187l-1.221.081c0-.515.255-.818.645-.843Zm2.146-.475-.471.031.114 1.727c.052.78.39 1.114.965 1.076.547-.036.755-.331.836-.441l.011-.001.021.314.436-.029-.184-2.792-.472.031.141 2.129a.966.966 0 0 1-.696.344c-.378.025-.556-.196-.592-.737l-.109-1.652Zm4.796-.318-.57.038-.847 1.149-.245.016-.162-2.461-.468.084.272 4.112.471-.031-.086-1.303.233-.015 1.04 1.24.593-.04-1.259-1.459 1.028-1.33Zm1.297-.892c-.012-.18-.148-.288-.305-.278-.157.011-.277.136-.265.316.011.18.147.288.304.278.157-.011.278-.135.266-.316Zm.989-.065c-.012-.18-.148-.288-.305-.278-.157.01-.277.135-.266.316.012.18.148.288.305.277.157-.01.277-.135.266-.315Zm.587 2.164c-.067-1.007-.615-1.426-1.301-1.381-.669.044-1.244.538-1.177 1.545.066 1.006.615 1.437 1.301 1.392.67-.045 1.243-.55 1.177-1.556Zm-.489.032c.047.704-.234 1.055-.682 1.085-.436.029-.772-.282-.819-.986-.047-.709.245-1.062.682-1.091.436-.029.772.282.82.992Zm1.495-2.874-.468.083.228 3.45c.037.547.263.701.63.677.22-.015.35-.088.384-.107l-.064-.352a.61.61 0 0 1-.202.048c-.168.011-.26-.053-.278-.321l-.23-3.478Zm1.494-.099-.468.084.228 3.449c.037.547.263.701.63.677a.867.867 0 0 0 .384-.107l-.064-.352a.584.584 0 0 1-.202.048c-.168.011-.26-.053-.278-.32l-.23-3.479Zm3.532 3.95-.114-1.728c-.05-.762-.4-1.113-.994-1.074a1.136 1.136 0 0 0-.842.442h-.011l-.021-.314-.436.029.184 2.792.472-.031-.142-2.14c.12-.125.335-.326.713-.351.395-.027.575.219.61.754l.11 1.652.471-.031ZM33.463 211.37c-.06-.917-.638-1.347-1.519-1.289-.766.051-1.252.463-1.432.688l.307.492a1.486 1.486 0 0 1 1.044-.538c.529-.035.859.271.893.791.044.661-.337 1.199-1.218 1.257l-.326.022.076.606.185-.013c.969-.064 1.533.297 1.582 1.046.038.573-.286.895-.947.939-.634.042-1.003-.323-1.164-.481l-.295.63c.208.199.701.565 1.538.509 1.084-.071 1.669-.73 1.606-1.681-.057-.864-.596-1.244-1.25-1.369l-.001-.017c.567-.259.977-.755.921-1.592Zm4.58-.073c-.064-.952-.636-1.578-1.737-1.505-.925.062-1.43.582-1.595.778l.352.499c.14-.159.518-.592 1.205-.637.679-.045.997.35 1.042 1.028.07 1.049-.436 1.569-2.214 3.722l.089.543 3.233-.214-.041-.635-2.353.156-.001-.018c1.372-1.595 2.103-2.457 2.02-3.717Zm4.768 1.047c-.14-2.106-.893-2.923-1.95-2.853-1.057.07-1.804.96-1.663 3.092.14 2.106.893 2.923 1.95 2.853 1.057-.069 1.804-.96 1.663-3.092Zm-.74.049c.111 1.692-.288 2.338-.914 2.379-.625.042-1.107-.546-1.219-2.238-.113-1.709.286-2.364.912-2.405.625-.041 1.107.555 1.22 2.264Zm4.483-4.057-.634.042-2.169 8.019.643-.043 2.16-8.018Zm3.075.681-.555.037-1.528.703.206.57 1.212-.54.289 4.37-1.295.086.041.634 3.304-.219-.041-.634-1.296.086-.337-5.093Zm5.873 2.488c-.14-2.106-.893-2.923-1.95-2.854-1.057.07-1.804.96-1.663 3.093.14 2.105.893 2.923 1.95 2.853 1.058-.07 1.804-.96 1.663-3.092Zm-.74.049c.112 1.691-.288 2.337-.914 2.379-.625.041-1.106-.547-1.218-2.238-.114-1.71.286-2.364.911-2.406.626-.041 1.108.555 1.22 2.265Zm2.762 2.295a.497.497 0 0 0-.545-.478.49.49 0 0 0-.468.545c.02.308.253.487.535.469.282-.019.498-.228.478-.536Zm4.293-2.762c-.139-2.106-.892-2.923-1.95-2.853-1.057.07-1.803.96-1.662 3.092.14 2.106.892 2.923 1.95 2.853 1.057-.07 1.803-.96 1.662-3.092Zm-.74.049c.112 1.692-.288 2.337-.913 2.379-.626.041-1.107-.546-1.219-2.238-.113-1.709.286-2.364.912-2.405.625-.042 1.107.555 1.22 2.264Zm5.146-.341c-.14-2.105-.893-2.923-1.95-2.853-1.057.07-1.804.96-1.663 3.092.14 2.106.893 2.924 1.95 2.854 1.057-.07 1.804-.96 1.663-3.093Zm-.74.049c.112 1.692-.288 2.338-.914 2.379-.625.042-1.107-.546-1.219-2.238-.113-1.709.286-2.364.912-2.405.626-.041 1.108.555 1.22 2.264Zm5.145-.34c-.14-2.106-.892-2.923-1.95-2.853-1.057.07-1.803.96-1.662 3.092.139 2.106.892 2.923 1.95 2.853 1.057-.07 1.803-.96 1.662-3.092Zm-.74.049c.112 1.692-.288 2.338-.913 2.379-.626.041-1.107-.546-1.22-2.238-.112-1.709.287-2.364.913-2.405.625-.042 1.107.555 1.22 2.264Zm9.414-3.853-.767.051-1.696 5.121-.018.001-2.365-4.852-.837.055.402 6.08.74-.049-.287-4.344.017-.001 2.041 4.228.66-.044 1.467-4.46.017-.001.288 4.344.74-.049-.402-6.08Zm2.365.171a.496.496 0 0 0-.544-.477.49.49 0 0 0-.469.544c.02.309.254.488.536.469.282-.018.498-.227.478-.536Zm-.057 1.535-.714.047.28 4.229.713-.047-.28-4.229Zm3.379-.224-1.18.079-.079-1.181-.634.042-.002 1.186-.574.144.033.502.582-.038.15 2.282c.065.969.44 1.422 1.242 1.369.449-.03.678-.178.763-.236l-.127-.585c-.086.05-.257.132-.513.149-.431.029-.615-.198-.657-.841l-.145-2.186 1.093-.072.048-.614Zm4.02 1.239c-.07-1.031-.67-1.566-1.543-1.509-.96.064-1.77.808-1.672 2.279.105 1.586.89 2.233 2.027 2.158.934-.062 1.322-.486 1.412-.598l-.273-.522c-.108.105-.442.41-1.085.453-.758.05-1.237-.37-1.354-1.327l2.459-.162c.029-.224.048-.473.028-.772Zm-1.547-.898c.502-.033.833.281.872.872.006.088.011.176 0 .283l-1.85.122c.002-.779.388-1.238.978-1.277Zm3.343-2.256a.497.497 0 0 0-.545-.478.49.49 0 0 0-.468.545c.02.308.253.487.535.469.282-.019.499-.228.478-.536Zm-.058 1.534-.713.048.28 4.229.713-.047-.28-4.23Zm4.994 4.245c-.05-.749-.585-1.085-1.475-1.026l-.864.057c-.317.021-.457-.094-.469-.27-.015-.229.188-.366.325-.437.116.01.23.011.354.003.943-.062 1.622-.638 1.562-1.537a1.345 1.345 0 0 0-.288-.751l.643-.042.051-.561-1.462.097a1.843 1.843 0 0 0-.642-.064c-.89.059-1.572.582-1.509 1.533.041.626.35 1.021.797 1.204v.018c-.11.06-.484.297-.455.738.016.238.11.444.304.581l.001.018c-.246.149-.714.445-.671 1.089.05.757.657 1.107 1.662 1.04 1.471-.097 2.189-.888 2.136-1.69Zm-1.263-3.164c.04.608-.376.866-.86.898-.468.031-.915-.17-.955-.778-.04-.608.377-.865.861-.898.467-.03.914.17.954.778Zm-1.857 3.627c-.026-.396.188-.632.39-.778.108.02.232.02.365.012l.933-.062c.476-.032.698.113.725.518.028.432-.386.858-1.417.926-.634.042-.965-.14-.996-.616Zm6.962-3.788c-.069-1.031-.67-1.566-1.543-1.508-.96.063-1.77.807-1.672 2.279.105 1.585.891 2.233 2.028 2.157.934-.061 1.322-.485 1.412-.597l-.274-.522c-.108.104-.442.41-1.085.452-.758.05-1.237-.369-1.353-1.326l2.458-.163c.03-.223.049-.472.029-.772Zm-1.546-.897c.502-.034.832.281.871.871.006.088.012.176.001.283l-1.85.123c.002-.779.387-1.238.978-1.277Zm6.234 3.33-.173-2.616c-.076-1.155-.607-1.686-1.505-1.626a1.722 1.722 0 0 0-1.275.668l-.017.001-.032-.476-.661.044.28 4.229.714-.047-.215-3.242c.182-.189.507-.494 1.08-.532.599-.04.872.332.925 1.142l.166 2.503.713-.048Zm3.072-4.45-1.181.078-.078-1.181-.635.042-.001 1.186-.574.144.033.502.582-.038.15 2.282c.065.969.44 1.422 1.241 1.369.45-.03.679-.178.764-.236l-.128-.585c-.085.05-.256.132-.512.149-.432.029-.615-.198-.657-.841l-.145-2.185 1.093-.073.048-.613Zm1.559-.103-.714.047.173 2.617c.078 1.18.589 1.686 1.462 1.628.828-.054 1.144-.5 1.265-.667l.018-.002.031.476.661-.043-.28-4.23-.713.048.213 3.224c-.157.17-.455.482-1.054.521-.573.038-.843-.298-.897-1.117l-.165-2.502Zm7.482 3.752-.173-2.617a3.478 3.478 0 0 0-.095-.63c.164-.188.481-.484.983-.517.573-.038.914.303.969 1.14l.166 2.502.714-.047-.173-2.617c-.077-1.154-.625-1.684-1.55-1.623-.661.043-1.103.453-1.299.705-.247-.399-.64-.577-1.133-.544a1.713 1.713 0 0 0-1.257.667l-.017.001-.032-.476-.661.044.28 4.229.714-.047-.215-3.243c.148-.177.463-.49 1.063-.53.519-.034.781.311.837 1.148l.165 2.502.714-.047Zm5.912-4.347c-.139-.097-.519-.363-1.215-.317-.784.052-1.31.538-1.266 1.207.039.582.36.888.99 1.174l.319.147c.511.231.767.356.791.717.021.317-.239.538-.776.574-.511.033-.856-.227-1.025-.366l-.24.644c.186.138.602.403 1.307.356 1.03-.068 1.469-.663 1.423-1.351-.039-.59-.422-.901-1.105-1.192l-.328-.138c-.464-.199-.668-.336-.688-.644-.018-.273.198-.482.674-.514.449-.03.793.213.922.302l.217-.599Zm1.065 2.78c.047.713.529 1.177 1.225 1.131.669-.044 1.009-.403 1.143-.651l.017-.001c.023.211.041.342.058.465l.687-.045a7.82 7.82 0 0 1-.111-.878l-.119-1.797c-.074-1.119-.603-1.624-1.528-1.563-.749.05-1.222.399-1.422.59l.317.501a1.7 1.7 0 0 1 1.014-.448c.547-.036.856.227.905.967l.022.326-.353.023c-1.101.073-1.913.507-1.855 1.38Zm.71-.092c-.029-.449.328-.667 1.127-.756l.404-.044.061.916c-.139.169-.386.45-.959.488-.308.021-.605-.19-.633-.604Zm7.028.686-.173-2.617c-.076-1.154-.607-1.686-1.505-1.626a1.722 1.722 0 0 0-1.275.668l-.017.001-.032-.475-.661.043.28 4.23.714-.048-.215-3.242c.183-.189.507-.494 1.08-.532.599-.039.872.332.925 1.143l.166 2.502.713-.047Zm3.072-4.451-1.181.078-.078-1.181-.635.042-.001 1.186-.574.144.033.503.582-.039.15 2.282c.065.969.44 1.422 1.241 1.369.45-.029.679-.177.764-.236l-.128-.584a1.155 1.155 0 0 1-.512.148c-.432.029-.615-.198-.657-.841l-.145-2.185 1.093-.072.048-.614Zm4.019 1.238c-.068-1.03-.67-1.566-1.542-1.508-.961.063-1.77.807-1.673 2.279.105 1.585.892 2.233 2.028 2.157.934-.061 1.322-.485 1.412-.597l-.274-.522c-.108.104-.441.41-1.085.452-.757.05-1.236-.369-1.353-1.326l2.458-.163c.03-.223.049-.472.029-.772Zm-1.546-.897c.502-.034.833.281.872.871.005.088.011.176.001.283l-1.851.123c.002-.779.388-1.238.978-1.277Zm3.343-2.257a.496.496 0 0 0-.545-.477.489.489 0 0 0-.468.544.48.48 0 0 0 .535.469c.282-.018.498-.227.478-.536Zm-.058 1.535-.713.047.279 4.229.714-.047-.28-4.229Zm1.876-2.213-.708.127.345 5.225c.055.828.398 1.062.953 1.025.335-.022.531-.132.582-.162l-.097-.534a.868.868 0 0 1-.305.074c-.255.017-.395-.08-.421-.486l-.349-5.269Zm2.656 2.32a.495.495 0 0 0-.544-.477.49.49 0 0 0-.469.544.482.482 0 0 0 .536.469c.282-.018.498-.227.477-.536Zm.227 3.428a.497.497 0 0 0-.545-.478.49.49 0 0 0-.468.545c.02.308.253.487.535.469.282-.019.499-.228.478-.536ZM33.39 222.94l-.42.028.17 2.554-.01.001-1.841-2.444-.39.026.22 3.325.419-.027-.17-2.569.01-.001 1.842 2.458.39-.025-.22-3.326Zm2.561 1.67c-.037-.564-.366-.857-.843-.825-.526.035-.968.442-.915 1.246.057.868.487 1.222 1.11 1.181.51-.034.722-.266.771-.327l-.15-.286a.908.908 0 0 1-.593.248c-.414.027-.676-.202-.74-.726l1.345-.089c.016-.122.026-.258.015-.422Zm-.845-.491c.274-.018.455.154.476.477.004.048.007.096.001.155l-1.012.067c0-.426.212-.678.535-.699Zm1.777-.393-.39.025.095 1.432c.042.646.322.922.8.891.452-.03.625-.274.692-.366h.01l.016.26.362-.024-.153-2.313-.39.026.116 1.764a.808.808 0 0 1-.576.285c-.314.02-.461-.164-.491-.612l-.09-1.368Zm3.974-.263-.472.031-.702.952-.203.013-.135-2.039-.387.07.225 3.407.39-.026-.07-1.08.192-.012.862 1.027.491-.033-1.043-1.208.852-1.102Zm1.074-.739c-.01-.15-.122-.239-.252-.231-.13.009-.23.112-.22.262.01.149.122.239.252.23.13-.009.23-.112.22-.261Zm.82-.055c-.01-.149-.123-.238-.253-.23-.13.009-.23.112-.22.262.01.149.123.238.253.23.13-.009.23-.112.22-.262Zm.486 1.793c-.055-.834-.509-1.181-1.078-1.144-.554.037-1.03.446-.975 1.28.055.834.51 1.191 1.078 1.153.554-.036 1.03-.455.975-1.289Zm-.405.027c.039.583-.194.874-.565.899-.361.024-.64-.234-.678-.817-.04-.588.203-.88.564-.904.362-.024.64.234.68.822Zm1.239-2.381-.388.069.19 2.858c.03.453.217.581.52.561a.72.72 0 0 0 .319-.089l-.053-.292a.477.477 0 0 1-.167.04c-.14.009-.216-.044-.23-.265l-.191-2.882Zm1.238-.082-.388.069.19 2.858c.03.453.217.581.52.561a.719.719 0 0 0 .319-.089l-.053-.292a.455.455 0 0 1-.167.04c-.14.01-.216-.043-.23-.265l-.191-2.882Zm2.926 3.272-.095-1.431c-.041-.632-.332-.922-.823-.89a.946.946 0 0 0-.697.366h-.01l-.017-.26-.362.024.153 2.314.39-.026-.117-1.774c.1-.103.278-.27.591-.291.328-.021.477.182.506.625l.09 1.369.39-.026ZM58.963 221.308l-.304.02-.836.384.113.312.663-.295.158 2.39-.709.047.023.347 1.808-.12-.023-.347-.709.047-.184-2.785Zm3.014.628c-.035-.52-.348-.863-.95-.823a1.226 1.226 0 0 0-.873.426l.193.272c.076-.087.283-.323.66-.348.37-.025.544.191.569.562.038.574-.239.858-1.211 2.036l.049.297 1.768-.117-.023-.347-1.286.085-.001-.009c.75-.873 1.15-1.345 1.105-2.034ZM76.052 220.881c-.033-.501-.349-.737-.83-.705a1.12 1.12 0 0 0-.784.376l.168.27a.811.811 0 0 1 .57-.294c.29-.02.47.148.49.432.023.361-.185.656-.667.688l-.178.012.04.331.102-.007c.53-.035.839.163.866.572.02.313-.157.49-.518.514-.347.023-.55-.177-.637-.263l-.161.345c.113.108.383.308.841.278.593-.039.913-.399.878-.92-.031-.472-.326-.68-.683-.748l-.001-.01c.31-.142.534-.413.504-.871Zm2.735 1.097-.4.027-.13-1.972-.333.022-1.194 2.074.05.316 1.253-.083.055.829.376-.025-.055-.829.4-.026-.022-.333Zm-.776.051-.901.06.802-1.413.01-.001.089 1.354Zm2.824-2.166-1.388.092-.025 1.531c.897-.055 1.273.143 1.307.654.024.366-.174.583-.575.609-.38.025-.628-.205-.721-.296l-.166.345c.108.1.367.349.926.312.64-.043.976-.467.938-1.045-.041-.617-.45-.943-1.34-.937l.012-.834 1.056-.07-.024-.361ZM110.038 218.391c-.091-.057-.334-.225-.811-.194-.593.04-.942.397-.912.85.03.458.257.67.715.93l.307.173c.382.217.54.333.557.593.018.275-.161.499-.609.529a1.098 1.098 0 0 1-.753-.255l-.138.396c.112.085.415.268.916.235.708-.047 1.051-.433 1.014-.992-.028-.419-.309-.647-.721-.867l-.301-.159c-.421-.224-.542-.371-.56-.631-.014-.222.157-.417.533-.442.327-.021.566.147.627.186l.136-.352Zm2.392.809c-.076-.048-.278-.18-.63-.156-.554.036-1.1.416-1.043 1.284.057.862.495 1.192 1.073 1.153.405-.027.598-.18.681-.253l-.141-.296a.823.823 0 0 1-.482.182c-.4.027-.685-.187-.728-.842-.04-.598.253-.859.672-.887a.74.74 0 0 1 .484.138l.114-.323Zm2.502 2.018-.094-1.431c-.042-.632-.332-.922-.824-.89a.943.943 0 0 0-.67.34h-.009l-.091-1.373-.388.069.226 3.407.39-.025-.117-1.774a.864.864 0 0 1 .59-.291c.328-.021.477.182.506.625l.091 1.369.39-.026Zm.914-2.384-.391.026.095 1.431c.043.646.323.923.8.891.453-.03.625-.273.692-.365l.01-.001.017.261.361-.024-.153-2.314-.39.026.117 1.764a.805.805 0 0 1-.577.285c-.313.021-.461-.163-.491-.611l-.09-1.369Zm2.462-1.305-.388.069.189 2.858c.03.453.218.581.522.561a.717.717 0 0 0 .318-.089l-.053-.292a.46.46 0 0 1-.167.04c-.14.01-.216-.043-.23-.265l-.191-2.882Zm2.215 1.155c-.076-.053-.284-.199-.665-.173-.429.028-.716.294-.692.66.021.318.197.486.541.642l.175.08c.279.127.419.195.432.393.012.173-.13.294-.424.314a.776.776 0 0 1-.56-.201l-.132.353c.102.075.329.22.715.195.564-.038.803-.363.779-.739-.022-.323-.231-.493-.605-.653l-.179-.075c-.254-.109-.366-.184-.377-.352-.01-.15.108-.264.369-.281.245-.017.433.116.504.165l.119-.328Zm1.756-.275-.646.042-.043-.646-.347.023v.649l-.315.079.019.275.318-.021.082 1.248c.035.53.24.778.679.749a.783.783 0 0 0 .417-.129l-.069-.32a.64.64 0 0 1-.28.081c-.236.016-.337-.108-.36-.46l-.079-1.195.598-.04.026-.335Zm1.652-.119a.581.581 0 0 0-.214-.02.597.597 0 0 0-.563.424l-.009.001-.023-.342-.362.024.153 2.313.391-.026-.111-1.682a.57.57 0 0 1 .513-.363c.125-.008.185.017.215.029l.01-.358Zm.417 1.7c.026.39.289.644.67.619.366-.024.552-.221.625-.356l.01-.001c.012.116.022.188.031.255l.376-.025a4.15 4.15 0 0 1-.061-.48l-.065-.983c-.04-.612-.329-.889-.836-.855a1.244 1.244 0 0 0-.777.322l.173.275a.927.927 0 0 1 .555-.245c.299-.02.468.124.495.528l.012.179-.193.013c-.602.039-1.047.277-1.015.754Zm.389-.05c-.017-.246.179-.365.616-.413l.221-.025.033.502a.675.675 0 0 1-.524.267c-.169.011-.331-.104-.346-.331Zm4.054-.258c-.02-.304-.192-.491-.617-.695-.21-.098-.317-.173-.327-.337-.02-.294.491-.541.458-1.052-.03-.443-.359-.736-.817-.706-.53.036-.968.369-.921 1.073l.163 2.472.391-.025-.164-2.473c-.03-.462.193-.676.506-.696.289-.019.465.143.481.389.024.366-.517.61-.486 1.068.022.342.24.478.515.624.357.19.428.243.44.426.011.159-.102.292-.352.309a.69.69 0 0 1-.486-.166l-.107.355c.097.067.288.18.625.157.492-.032.722-.362.698-.723Zm2.115-1.021c-.037-.564-.366-.857-.843-.826-.525.035-.968.442-.915 1.247.058.867.488 1.221 1.109 1.18.511-.034.723-.265.772-.327l-.149-.285a.904.904 0 0 1-.594.247c-.414.028-.676-.202-.74-.725l1.345-.089c.016-.122.026-.258.015-.422Zm-.845-.491c.274-.019.455.153.477.476.003.049.006.097 0 .155l-1.012.067c.001-.426.212-.677.535-.698Zm3.577-1.336-.304.02-.836.385.113.312.663-.296.158 2.391-.709.047.023.347 1.808-.12-.023-.347-.709.047-.184-2.786Zm3.014.629c-.035-.521-.348-.863-.95-.823a1.23 1.23 0 0 0-.873.425l.193.273c.076-.087.283-.324.659-.349.371-.024.545.192.57.563.038.573-.239.858-1.211 2.036l.049.297 1.768-.117-.023-.347-1.286.085-.001-.01c.751-.873 1.15-1.344 1.105-2.033ZM45.937 178.712c-.091-1.374-.953-2.202-3.429-2.038l-1.983.131.592 8.944 2.1-.139c2.501-.166 3.354-1.251 3.261-2.65-.08-1.219-.946-1.904-2.022-2.028l-.001-.026c.85-.329 1.567-.91 1.482-2.194Zm-1.162.142c.07 1.063-.526 1.701-2.016 1.8l-.843.056-.201-3.046.855-.057c1.594-.105 2.15.431 2.205 1.247Zm.493 4.108c.066.998-.43 1.564-2.116 1.676l-.972.064-.204-3.085 1.05-.069c1.4-.093 2.176.416 2.242 1.414Zm7.277-2.005c-.1-1.516-.986-2.304-2.27-2.219-1.412.093-2.602 1.187-2.46 3.352.155 2.333 1.312 3.285 2.984 3.174 1.374-.09 1.944-.714 2.077-.879l-.403-.768c-.159.154-.65.603-1.596.666-1.115.074-1.82-.544-1.99-1.951l3.616-.24c.043-.328.07-.694.042-1.135Zm-2.275-1.321c.74-.048 1.225.414 1.283 1.282.008.13.017.26.001.417l-2.722.18c.003-1.146.57-1.821 1.438-1.879Zm7.26-.792c-.205-.143-.765-.536-1.789-.468-1.153.077-1.926.792-1.861 1.777.057.855.529 1.306 1.455 1.726l.47.216c.752.341 1.128.524 1.163 1.056.031.467-.35.791-1.142.844-.751.049-1.258-.334-1.506-.539l-.354.948c.274.203.885.592 1.922.524 1.517-.101 2.162-.976 2.095-1.987-.057-.869-.621-1.326-1.626-1.754l-.482-.203c-.684-.293-.983-.495-1.013-.948-.027-.402.291-.71.991-.756.661-.044 1.166.313 1.357.444l.32-.88Zm4.722-.742-1.737.115-.115-1.737-.933.062-.002 1.744-.845.212.049.739.855-.057.222 3.358c.094 1.425.646 2.092 1.826 2.014.66-.044.998-.262 1.122-.348l-.187-.86a1.696 1.696 0 0 1-.753.219c-.635.042-.905-.291-.967-1.238l-.213-3.214 1.607-.106.07-.903Zm1.198 4.542c.069 1.05.778 1.732 1.802 1.664.985-.065 1.484-.593 1.681-.957l.026-.002c.034.31.06.504.084.685l1.011-.067c-.037-.167-.128-.76-.163-1.291l-.175-2.644c-.109-1.647-.887-2.389-2.248-2.299-1.102.073-1.797.587-2.09.867l.465.737c.233-.21.754-.609 1.492-.658.804-.053 1.26.333 1.331 1.422l.032.48-.519.034c-1.62.107-2.814.746-2.73 2.029Zm1.045-.134c-.044-.661.482-.982 1.658-1.112l.595-.066.089 1.348c-.205.248-.568.663-1.41.719-.455.03-.892-.28-.932-.889Zm10.34 1.008-.255-3.849c-.113-1.698-.893-2.48-2.215-2.392a2.533 2.533 0 0 0-1.875.983l-.026.001-.046-.699-.973.064.412 6.221 1.05-.069-.316-4.77c.269-.278.747-.726 1.59-.782.88-.058 1.281.488 1.36 1.681l.243 3.681 1.05-.07Zm1.348-3.096c.134 2.035 1.245 3.081 2.606 2.991 1.257-.083 1.644-.734 1.797-.978l.026-.002.046.7.972-.064-.614-9.281-1.042.186.202 3.046c-.24-.088-.637-.179-1.181-.143-1.504.099-2.97 1.147-2.812 3.545Zm1.084-.15c-.112-1.685.636-2.385 1.841-2.465.558-.037.918.095 1.136.237l.237 3.591c-.167.232-.525.724-1.367.78-.934.062-1.739-.497-1.847-2.143Zm9.35-3.353c-.204-.142-.764-.535-1.788-.467-1.153.076-1.926.791-1.861 1.776.056.856.529 1.306 1.455 1.727l.47.216c.751.341 1.128.524 1.163 1.056.031.466-.351.791-1.142.843-.751.05-1.258-.333-1.506-.538l-.354.948c.274.203.885.592 1.922.524 1.517-.101 2.162-.977 2.095-1.988-.058-.868-.622-1.325-1.626-1.754l-.482-.202c-.684-.293-.983-.495-1.014-.949-.026-.401.292-.709.992-.755.661-.044 1.166.313 1.357.444l.32-.881Zm6.278-.844-.998.066-1.274 4.953-.026.001-1.928-4.741-1.114.074 2.654 6.073.855-.056 1.83-6.37Zm5.737 1.833c-.1-1.516-.986-2.304-2.269-2.219-1.413.093-2.603 1.188-2.46 3.352.154 2.333 1.311 3.285 2.983 3.175 1.374-.091 1.945-.715 2.077-.88l-.402-.767c-.16.153-.65.602-1.597.665-1.114.074-1.82-.544-1.99-1.951l3.616-.239a5.61 5.61 0 0 0 .042-1.136Zm-2.274-1.32c.738-.049 1.225.413 1.282 1.282.009.129.017.259.002.416l-2.722.18c.002-1.146.57-1.821 1.438-1.878Zm6.931-1.227a1.63 1.63 0 0 0-.576-.053c-.973.064-1.349.675-1.513 1.142l-.026.001-.061-.92-.972.064.411 6.222 1.05-.07-.299-4.523a1.538 1.538 0 0 1 1.381-.977c.337-.022.497.045.578.079l.027-.965Zm5.107-.312-4.186.277.059.894 2.839-.187.001.026-2.688 4.825.045.674 4.459-.295.016-.938-3.137.207-.002-.026 2.639-4.783-.045-.674Zm6.198 1.803c-.101-1.516-.986-2.304-2.269-2.219-1.413.094-2.603 1.188-2.46 3.352.154 2.333 1.311 3.285 2.983 3.175 1.374-.091 1.944-.715 2.077-.88l-.403-.767c-.159.154-.65.603-1.596.665-1.115.074-1.82-.543-1.991-1.951l3.617-.239c.043-.329.071-.695.042-1.136Zm-2.275-1.32c.739-.049 1.225.413 1.283 1.282.008.129.017.259.001.416l-2.722.18c.003-1.145.57-1.821 1.438-1.878Zm4.918-3.32c-.03-.454-.386-.729-.801-.702-.415.028-.719.347-.689.801.03.453.373.717.787.69.415-.028.733-.335.703-.789Zm-.085 2.258-1.05.069.412 6.222 1.05-.069-.412-6.222Zm6.292-.039c-.203-.13-.748-.484-1.694-.421-1.49.098-2.959 1.12-2.805 3.453.154 2.32 1.332 3.205 2.887 3.102 1.089-.072 1.609-.484 1.83-.68l-.378-.796c-.185.156-.609.444-1.296.49-1.075.071-1.842-.503-1.959-2.266-.106-1.607.68-2.31 1.808-2.385a1.996 1.996 0 0 1 1.3.37l.307-.867Zm6.731 5.426-.255-3.849c-.112-1.698-.893-2.48-2.215-2.392-.959.063-1.511.581-1.801.913l-.026.002-.245-3.694-1.042.186.606 9.164 1.05-.07-.315-4.77c.268-.278.746-.726 1.588-.782.882-.058 1.282.488 1.361 1.681l.244 3.681 1.05-.07Zm6.848-.453-.255-3.849c-.112-1.698-.893-2.48-2.215-2.392a2.533 2.533 0 0 0-1.875.983l-.026.002-.046-.7-.972.064.411 6.222 1.05-.07-.315-4.77c.268-.278.746-.726 1.588-.782.882-.058 1.282.488 1.361 1.681l.244 3.681 1.05-.07Zm2.593-8.672a.729.729 0 0 0-.801-.702c-.415.027-.719.347-.689.8.03.454.373.718.788.69.414-.027.733-.335.702-.788Zm-.084 2.257-1.05.07.411 6.222 1.05-.07-.411-6.222Zm5.388.074c-.205-.143-.765-.536-1.789-.468-1.153.076-1.926.791-1.861 1.777.057.855.529 1.305 1.455 1.726l.47.216c.752.341 1.128.524 1.163 1.056.031.466-.351.791-1.141.843-.752.05-1.259-.333-1.507-.538l-.354.948c.274.203.885.592 1.922.524 1.517-.101 2.162-.977 2.095-1.988-.058-.868-.622-1.325-1.626-1.754l-.482-.202c-.684-.293-.983-.495-1.013-.948-.027-.402.291-.71.991-.756.661-.044 1.166.313 1.357.444l.32-.88ZM139.208 155.925c-.041-.616-.428-.988-1.539-.914l-.89.058.266 4.014.942-.062c1.123-.074 1.506-.561 1.464-1.19-.036-.546-.425-.854-.907-.909l-.001-.012c.381-.148.703-.409.665-.985Zm-.522.064c.032.477-.235.764-.904.808l-.378.025-.091-1.367.384-.026c.716-.047.965.194.989.56Zm.222 1.843c.029.448-.193.703-.95.753l-.436.028-.092-1.384.472-.031c.628-.042.976.186 1.006.634Zm1.574-3.159-.468.083.228 3.45c.036.546.263.701.629.677a.857.857 0 0 0 .384-.108l-.064-.352a.573.573 0 0 1-.201.049c-.169.011-.261-.053-.278-.321l-.23-3.478Zm1.07 3.382c.031.471.349.777.808.747.443-.03.666-.266.755-.43l.012-.001c.015.139.026.226.037.307l.454-.03a5.331 5.331 0 0 1-.073-.579l-.079-1.187c-.049-.738-.398-1.072-1.009-1.031a1.497 1.497 0 0 0-.938.389l.209.331c.105-.095.338-.274.67-.296.36-.024.565.15.597.638l.014.216-.232.015c-.727.048-1.264.335-1.225.911Zm.469-.061c-.02-.296.216-.44.744-.499l.267-.029.04.605a.815.815 0 0 1-.633.322c-.204.014-.4-.125-.418-.399Zm3.594-2.282-.779.051-.052-.779-.419.028v.783l-.38.095.022.331.384-.025.1 1.507c.042.639.29.939.819.904.297-.02.448-.118.504-.156l-.084-.386a.758.758 0 0 1-.338.098c-.285.019-.406-.131-.434-.556l-.096-1.442.722-.048.031-.405Zm1.954-.129-.779.051-.052-.779-.418.027-.001.783-.38.096.022.331.384-.025.1 1.506c.042.64.29.939.819.904.297-.019.448-.117.504-.156l-.084-.386a.756.756 0 0 1-.338.099c-.285.019-.406-.131-.434-.556l-.095-1.442.721-.048.031-.405Zm3.201-1.205-.366.024-1.009.464.136.377.8-.357.191 2.885-.855.057.027.418 2.182-.144-.028-.419-.855.057-.223-3.362Zm3.638.758c-.042-.628-.42-1.041-1.147-.993a1.48 1.48 0 0 0-1.052.513l.232.33c.092-.106.342-.391.796-.421.448-.03.658.231.687.679.046.692-.288 1.036-1.461 2.457l.058.358 2.135-.141-.028-.419-1.553.103v-.012c.906-1.053 1.388-1.622 1.333-2.454Zm2.794-.337c-.04-.605-.421-.889-1.003-.851a1.351 1.351 0 0 0-.946.454l.203.326a.98.98 0 0 1 .689-.355c.349-.024.567.178.59.521.029.437-.222.792-.804.831l-.215.014.049.4.123-.008c.639-.043 1.012.196 1.044.69.025.378-.188.591-.625.62-.419.028-.662-.213-.769-.317l-.194.416c.137.131.463.372 1.015.336.716-.048 1.102-.482 1.06-1.11-.037-.571-.393-.822-.825-.904l-.001-.012c.375-.171.645-.498.609-1.051Z" fill="#000"/><path d="m24.034 248.949-3.29-49.726 143.046-9.463 3.289 49.726" stroke="#767676" stroke-width=".519"/></g><defs><clipPath id="a"><path fill="#fff" d="M0 0h265.307v231H0z"/></clipPath></defs></svg>