<svg width="274" height="215" fill="none" xmlns="http://www.w3.org/2000/svg"><path d="M216.149 181.552H.168a.192.192 0 0 1-.119-.039.121.121 0 0 1-.049-.094c0-.036.018-.07.05-.095a.192.192 0 0 1 .118-.039h215.981a.19.19 0 0 1 .118.039.12.12 0 0 1 .049.095.12.12 0 0 1-.049.094.19.19 0 0 1-.118.039Z" fill="#CCC"/><path d="M273.832 181.552H57.852a.192.192 0 0 1-.12-.039.121.121 0 0 1-.048-.094c0-.036.017-.07.049-.095a.192.192 0 0 1 .118-.039h215.981c.045 0 .087.014.119.039a.123.123 0 0 1 .049.095.123.123 0 0 1-.049.094.193.193 0 0 1-.119.039Z" fill="#CCC"/><rect x="60.988" y="45.988" width="117.06" height="135.575" rx="2.986" fill="#D5D5D5"/><path d="M69.043 177.965h-.016a2.067 2.067 0 0 1-2.066-2.066V54.624a2.069 2.069 0 0 1 2.066-2.065h102.075a2.067 2.067 0 0 1 2.066 2.065v94.298a2.069 2.069 0 0 1-2.05 2.066L69.042 177.965Z" fill="#F2F2F2"/><path d="M102.483 79.9H84.561a1.425 1.425 0 0 1-1.424-1.423V68.93a1.425 1.425 0 0 1 1.424-1.424h17.922a1.426 1.426 0 0 1 1.423 1.424v9.547a1.423 1.423 0 0 1-1.423 1.424ZM129.754 79.9h-17.922a1.424 1.424 0 0 1-1.424-1.423V68.93a1.428 1.428 0 0 1 1.424-1.424h17.922a1.422 1.422 0 0 1 1.424 1.424v9.547a1.424 1.424 0 0 1-1.424 1.424Z" fill="#fff"/><path d="M157.028 79.9h-17.923a1.426 1.426 0 0 1-1.423-1.423V68.93a1.423 1.423 0 0 1 1.423-1.424h17.923a1.426 1.426 0 0 1 1.423 1.424v9.547a1.423 1.423 0 0 1-1.423 1.424Z" fill="#349D6E"/><path d="M102.483 111.739H84.561a1.428 1.428 0 0 1-1.424-1.424v-9.548a1.425 1.425 0 0 1 1.424-1.423h17.922a1.426 1.426 0 0 1 1.423 1.423v9.548a1.423 1.423 0 0 1-1.423 1.424ZM129.754 111.739h-17.922a1.427 1.427 0 0 1-1.424-1.424v-9.548a1.427 1.427 0 0 1 1.424-1.423h17.922a1.422 1.422 0 0 1 1.424 1.423v9.548a1.424 1.424 0 0 1-1.424 1.424ZM157.028 111.739h-17.923a1.428 1.428 0 0 1-1.423-1.424v-9.548a1.422 1.422 0 0 1 1.423-1.423h17.923a1.426 1.426 0 0 1 1.423 1.423v9.548a1.423 1.423 0 0 1-1.423 1.424ZM102.483 143.576H84.561a1.423 1.423 0 0 1-1.424-1.423v-9.548a1.426 1.426 0 0 1 1.424-1.423h17.922a1.423 1.423 0 0 1 1.423 1.423v9.548a1.423 1.423 0 0 1-1.423 1.423ZM129.754 143.576h-17.922a1.421 1.421 0 0 1-1.424-1.423v-9.548a1.428 1.428 0 0 1 1.424-1.423h17.922a1.424 1.424 0 0 1 1.424 1.423v9.548a1.424 1.424 0 0 1-1.424 1.423ZM157.028 143.576h-17.923a1.423 1.423 0 0 1-1.423-1.423v-9.548a1.423 1.423 0 0 1 1.423-1.423h17.923a1.423 1.423 0 0 1 1.423 1.423v9.548a1.423 1.423 0 0 1-1.423 1.423Z" fill="#fff"/><path d="M99.578 81.248a2.018 2.018 0 0 0 2.014-2.014v-11.06a2.018 2.018 0 0 0-2.014-2.014H78.816a2.016 2.016 0 0 0-2.014 2.014v11.06a2.016 2.016 0 0 0 2.014 2.014h20.762Zm-21.67-13.982c.241-.241.568-.377.908-.377h20.762a1.287 1.287 0 0 1 1.285 1.285v11.06a1.285 1.285 0 0 1-1.285 1.285H78.816a1.286 1.286 0 0 1-1.285-1.285v-11.06c0-.34.136-.668.377-.908ZM131.174 81.248a2.014 2.014 0 0 0 2.014-2.014v-11.06a2.016 2.016 0 0 0-2.014-2.014h-20.762a2.018 2.018 0 0 0-2.014 2.014v11.06a2.018 2.018 0 0 0 2.014 2.014h20.762Zm-21.67-13.982c.241-.241.567-.377.908-.377h20.762a1.288 1.288 0 0 1 1.285 1.285v11.06a1.289 1.289 0 0 1-1.285 1.285h-20.762a1.286 1.286 0 0 1-1.285-1.285v-11.06c.001-.34.136-.668.377-.908ZM162.768 81.248a2.016 2.016 0 0 0 2.013-2.014v-11.06a2.011 2.011 0 0 0-2.013-2.014h-20.762a2.018 2.018 0 0 0-2.014 2.014v11.06a2.015 2.015 0 0 0 2.014 2.014h20.762Zm-21.67-13.982c.24-.241.567-.377.908-.377h20.762a1.288 1.288 0 0 1 1.284 1.285v11.06a1.288 1.288 0 0 1-1.285 1.285h-20.761a1.286 1.286 0 0 1-1.285-1.285v-11.06c0-.34.136-.668.377-.908ZM99.578 113.084a2.018 2.018 0 0 0 2.014-2.014v-11.061a2.02 2.02 0 0 0-2.014-2.013H78.816a2.016 2.016 0 0 0-2.014 2.013v11.061a2.014 2.014 0 0 0 2.014 2.014h20.762Zm-21.67-13.982c.241-.241.568-.377.908-.377h20.762a1.286 1.286 0 0 1 1.285 1.285v11.06a1.286 1.286 0 0 1-1.285 1.284H78.816a1.283 1.283 0 0 1-1.285-1.284v-11.06c0-.341.136-.668.377-.908ZM131.174 113.084a2.014 2.014 0 0 0 2.014-2.014v-11.061a2.016 2.016 0 0 0-2.014-2.013h-20.762a2.018 2.018 0 0 0-2.014 2.013v11.061a2.018 2.018 0 0 0 2.014 2.014h20.762Zm-21.67-13.982c.241-.241.567-.377.908-.377h20.762a1.287 1.287 0 0 1 1.285 1.285v11.06a1.29 1.29 0 0 1-1.285 1.284h-20.762a1.283 1.283 0 0 1-1.285-1.284v-11.06c.001-.341.136-.668.377-.908ZM162.768 113.084a2.016 2.016 0 0 0 2.013-2.014v-11.061a2.016 2.016 0 0 0-2.013-2.013h-20.762a2.018 2.018 0 0 0-2.014 2.013v11.061a2.013 2.013 0 0 0 2.014 2.014h20.762Zm-21.67-13.982c.24-.241.567-.377.908-.377h20.762a1.287 1.287 0 0 1 1.284 1.285v11.06a1.285 1.285 0 0 1-1.285 1.284h-20.761a1.283 1.283 0 0 1-1.285-1.284v-11.06c0-.341.136-.668.377-.908ZM99.578 144.921a2.013 2.013 0 0 0 2.014-2.013v-11.061a2.017 2.017 0 0 0-2.014-2.013H78.816a2.015 2.015 0 0 0-2.014 2.013v11.061a2.016 2.016 0 0 0 2.014 2.013h20.762Zm-21.67-13.982c.241-.24.568-.376.908-.376h20.762a1.287 1.287 0 0 1 1.285 1.285v11.059a1.286 1.286 0 0 1-1.285 1.285H78.816a1.287 1.287 0 0 1-1.285-1.285v-11.059c0-.341.136-.668.377-.909ZM131.174 144.921a2.016 2.016 0 0 0 2.014-2.013v-11.061a2.016 2.016 0 0 0-2.014-2.013h-20.762a2.018 2.018 0 0 0-2.014 2.013v11.061a2.013 2.013 0 0 0 2.014 2.013h20.762Zm-21.67-13.982c.241-.24.567-.376.908-.376h20.762a1.289 1.289 0 0 1 1.285 1.285v11.059a1.285 1.285 0 0 1-1.285 1.285h-20.762a1.283 1.283 0 0 1-1.285-1.285v-11.059a1.29 1.29 0 0 1 .377-.909ZM162.768 144.921a2.011 2.011 0 0 0 2.013-2.013v-11.061a2.011 2.011 0 0 0-2.013-2.013h-20.762a2.018 2.018 0 0 0-2.014 2.013v11.061a2.015 2.015 0 0 0 2.014 2.013h20.762Zm-21.67-13.982c.24-.24.567-.376.908-.376h20.762c.34 0 .667.136.908.376.24.241.376.568.376.909v11.059a1.285 1.285 0 0 1-1.285 1.285h-20.761a1.283 1.283 0 0 1-1.285-1.285v-11.059c0-.341.136-.668.377-.909ZM131.002 156.578H120.671v25.397h12.517v-23.158a2.216 2.216 0 0 0-2.186-2.239Z" fill="#AAA" stroke="#AAA" stroke-width=".243"/><path d="M120.972 181.853h.121v-25.275H110.621c-.639 0-1.251.257-1.703.713a2.445 2.445 0 0 0-.706 1.717v22.845h12.76Zm-.603-.729h-11.432v-22.116c0-.451.178-.884.494-1.203a1.675 1.675 0 0 1 1.19-.498h9.748v23.817Z" fill="#AAA" stroke="#AAA" stroke-width=".243"/><path d="M109.856 170.796a.729.729 0 1 0 .001-1.457.729.729 0 0 0-.001 1.457Z" fill="#AAA"/><rect x="70.545" y="33.445" width="97.948" height="15.528" rx="2.986" fill="#D5D5D5"/><rect x="92.643" y="11.348" width="54.349" height="24.487" rx="2.986" fill="#D5D5D5"/><rect x="99.811" width="9.556" height="15.528" rx="2.986" fill="#D5D5D5"/><path d="M12.075 175.791H6v.868h6.075v-.868Z" fill="#AAA"/><path d="m52 175.506-1.15.263-43.686.023-.393-.906a9.05 9.05 0 0 1-.679-4.942c.188-1.25.66-2.493 1.73-3.033l1.94-12.774 24.169-.043 9.35 7.462s4.412-.079 6.808 2.873a6.883 6.883 0 0 1 1.465 3.815l.094 1.536.352 5.726Z" fill="#349D6E"/><path d="M42.454 180.999a5.207 5.207 0 1 0 0-10.414 5.207 5.207 0 0 0 0 10.414Z" fill="#AAA"/><path d="M42.453 178.395a2.604 2.604 0 1 0 0-5.208 2.604 2.604 0 0 0 0 5.208Z" fill="#CCC"/><path d="M15.547 180.999a5.207 5.207 0 1 0 .001-10.414 5.207 5.207 0 0 0 0 10.414Z" fill="#AAA"/><path d="M15.547 178.395a2.604 2.604 0 1 0 0-5.208 2.604 2.604 0 0 0 0 5.208Z" fill="#CCC"/><path d="m39.849 161.03-13.067.006h-1.595l-2.693.002v-.196l-.002-2.358-.002-2.648h1.792l1.595-.002 2.825-.002h1.595l3.262-.002 6.29 5.2ZM19.887 161.034l-6.94.004-.002-1.35v-2.359l-.002-1.495h1.017l1.602-.002 4.323-.002.002 5.204Z" fill="#fff"/><path d="M23.358 164.51h-.868v1.736h.868v-1.736ZM37.899 163.196v-.889l-1.69.001v.889l1.69-.001Z" fill="#AAA"/><path d="M37.246 159.301h.087c.216 0 .43.045.631.132.2.087.382.215.535.376.153.161.274.353.357.563.083.211.126.437.126.665 0 .46-.174.902-.483 1.227-.31.326-.729.508-1.166.508h-.087v-3.471ZM51.999 169.701a3.482 3.482 0 0 1-2.084-.449c-.613-.359-1.06-.897-1.265-1.517a2.426 2.426 0 0 1 .148-1.874c.3-.59.828-1.069 1.491-1.351.948 1.065 1.508 2.354 1.606 3.702l.104 1.489Z" fill="#AAA"/><path d="m25.962 155.83-3.47 5.208-.002-2.452 1.836-2.754 1.636-.002ZM15.547 155.83l-2.604 3.472v-2.124l1.01-1.346 1.594-.002ZM30.301 155.83l-3.582 5.208h-1.625l3.582-5.208H30.3Z" fill="#F2F2F2"/><g clip-path="url(#a)"><path d="M263.931 152.114c.023-.004.041-.021.068-.017a.842.842 0 0 0-.047-.136l-.098.136.077.017Z" fill="#fff"/><path d="M192.407 174.574c.062 2.35.452 4.679 1.157 6.919l.05.155h4.321a4.056 4.056 0 0 1-.014-.155c-.288-3.345-1.949-23.701.037-27.182-.174.282-5.886 9.636-5.551 20.263Z" fill="#E6E6E6"/><path d="M192.731 181.492c.037.052.074.104.113.155h3.241l-.086-.155a169.023 169.023 0 0 1-3.592-6.919c-1.581-3.251-3.031-6.625-2.909-7.846-.037.275-1.131 8.671 3.233 14.765ZM226.41 175.053a22.02 22.02 0 0 1-1.01 6.032l-.043.135h-3.767l.012-.135c.252-2.916 1.7-20.663-.032-23.698.152.246 5.132 8.401 4.84 17.666Z" fill="#E6E6E6"/><path d="M226.126 181.083a4.211 4.211 0 0 1-.097.136h-2.826l.075-.136c.467-.85 1.849-3.394 3.131-6.032 1.378-2.834 2.643-5.775 2.536-6.84.033.24.987 7.56-2.819 12.872Z" fill="#E6E6E6"/><path d="m183.345 116.741 1.757-1.418c-1.365-.152-1.925.599-2.155 1.194-1.066-.447-2.226.139-2.226.139l3.514 1.288a2.685 2.685 0 0 0-.89-1.203ZM236.248 109.439l1.756-1.419c-1.364-.152-1.925.599-2.154 1.194-1.066-.447-2.227.139-2.227.139l3.514 1.289a2.68 2.68 0 0 0-.889-1.203ZM181.354 166.507c5.915-1.077 8.945-11.831 6.769-24.02-2.175-12.188-8.734-21.196-14.648-20.119-5.915 1.077-8.946 11.831-6.77 24.02 2.176 12.188 8.735 21.196 14.649 20.119Z" fill="#349D6E"/><path d="M182.874 180.74c-.351-26.772-9.22-51.896-9.309-52.146l-.809.294c.089.25 8.909 25.242 9.258 51.864l.86-.012Z" fill="#F2F2F2"/><path d="m167.138 141.408-.265.826 10.618 3.468.264-.826-10.617-3.468ZM187.112 140.477l-8.749 6.998.534.681 8.749-6.998-.534-.681Z" fill="#F2F2F2"/><path d="M202.793 162.647c6.503 0 11.775-10.864 11.775-24.266 0-13.402-5.272-24.266-11.775-24.266-6.504 0-11.775 10.864-11.775 24.266 0 13.402 5.271 24.266 11.775 24.266Z" fill="#349D6E"/><path d="M201.705 178.1c4.716-28.578.047-57.052 0-57.336l-.918.157c.048.282 4.69 28.607 0 57.025l.918.154Z" fill="#F2F2F2"/><path d="m192.425 133.163-.439.829 10.648 5.752.439-.828-10.648-5.753ZM213.873 136.043l-10.646 5.756.439.828 10.646-5.755-.439-.829Z" fill="#F2F2F2"/><path d="m226.132 128.267 1.757-1.419c-1.365-.152-1.925.6-2.155 1.194-1.066-.447-2.226.139-2.226.139l3.514 1.289a2.68 2.68 0 0 0-.89-1.203Z" fill="#349D6E"/><path d="M216.742 151.467h38.357" stroke="#349D6E" stroke-width="2.25" stroke-linecap="round"/><path d="M218.926 181h2.495M256.658 181h2.495M213 181h2.495M250.734 181h2.495" stroke="#349D6E" stroke-width="1.5" stroke-linecap="round"/><path d="M220 152v28M220.172 152.246l-5.925 28.431M252 152v28M251.98 152.246l5.926 28.431" stroke="#349D6E" stroke-width="2.25" stroke-linecap="round"/><rect x="225.161" y="151.312" width="1.247" height="2.183" rx=".624" stroke="#349D6E" stroke-width=".624"/><rect x="232.958" y="151.312" width="1.247" height="2.183" rx=".624" stroke="#349D6E" stroke-width=".624"/><path d="M225.785 153.494v14.813a3.898 3.898 0 1 0 7.796 0v-14.813" stroke="#349D6E" stroke-width=".624"/><path d="M225.785 166.904v1.404a3.898 3.898 0 0 0 3.898 3.898v0a3.898 3.898 0 0 0 3.898-3.898v-1.404" stroke="#349D6E" stroke-width="2.25" stroke-linecap="round"/><rect x="237.636" y="151.312" width="1.247" height="2.183" rx=".624" stroke="#349D6E" stroke-width=".624"/><rect x="245.433" y="151.312" width="1.247" height="2.183" rx=".624" stroke="#349D6E" stroke-width=".624"/><path d="M238.26 153.494v14.813a3.898 3.898 0 1 0 7.796 0v-14.813" stroke="#349D6E" stroke-width=".624"/><path d="M238.26 166.904v1.404a3.898 3.898 0 0 0 3.898 3.898v0a3.898 3.898 0 0 0 3.898-3.898v-1.404" stroke="#349D6E" stroke-width="2.25" stroke-linecap="round"/></g><defs><clipPath id="a"><path fill="#fff" transform="translate(166 108)" d="M0 0h98v107H0z"/></clipPath></defs></svg>