<svg width="192" height="145" viewBox="0 0 192 145" fill="none" xmlns="http://www.w3.org/2000/svg">
    <path d="M127.195 126.212H0.0986839C0.0725112 126.212 0.0474111 126.204 0.0289041 126.189C0.0103972 126.175 0 126.155 0 126.135C0 126.115 0.0103972 126.095 0.0289041 126.081C0.0474111 126.066 0.0725112 126.058 0.0986839 126.058H127.195C127.221 126.058 127.246 126.066 127.265 126.081C127.283 126.095 127.294 126.115 127.294 126.135C127.294 126.155 127.283 126.175 127.265 126.189C127.246 126.204 127.221 126.212 127.195 126.212Z" fill="#CCCCCC"/>
    <path d="M168.244 126.212H41.1478C41.1216 126.212 41.0965 126.204 41.078 126.189C41.0595 126.175 41.0491 126.155 41.0491 126.135C41.0491 126.115 41.0595 126.095 41.078 126.081C41.0965 126.066 41.1216 126.058 41.1478 126.058H168.244C168.27 126.058 168.295 126.066 168.314 126.081C168.332 126.095 168.343 126.115 168.343 126.135C168.343 126.155 168.332 126.175 168.314 126.189C168.295 126.204 168.27 126.212 168.244 126.212Z" fill="#CCCCCC"/>
    <rect x="39.7761" y="31.9745" width="83.1652" height="94.2622" rx="2.46556" fill="#D5D5D5"/>
    <path d="M45.4984 123.735H45.4872C45.0981 123.735 44.725 123.583 44.4499 123.314C44.1747 123.045 44.02 122.68 44.0195 122.299V37.9792C44.02 37.5984 44.1747 37.2333 44.4499 36.964C44.725 36.6947 45.0981 36.5433 45.4872 36.5428H118.006C118.395 36.5433 118.768 36.6947 119.044 36.964C119.319 37.2333 119.473 37.5984 119.474 37.9792V103.542C119.473 103.921 119.32 104.285 119.048 104.554C118.775 104.823 118.405 104.975 118.018 104.979L45.4984 123.735Z" fill="#F2F2F2"/>
    <path d="M69.2553 55.553H56.5225C56.2543 55.5527 55.9972 55.4483 55.8076 55.2627C55.618 55.0771 55.5113 54.8255 55.511 54.5631V47.925C55.5113 47.6626 55.618 47.411 55.8076 47.2254C55.9972 47.0398 56.2543 46.9354 56.5225 46.9351H69.2553C69.5235 46.9354 69.7806 47.0398 69.9702 47.2254C70.1598 47.411 70.2665 47.6626 70.2668 47.925V54.5631C70.2665 54.8255 70.1598 55.0771 69.9702 55.2627C69.7806 55.4483 69.5235 55.5527 69.2553 55.553Z" fill="white"/>
    <path d="M88.6304 55.553H75.8976C75.6294 55.5527 75.3723 55.4483 75.1827 55.2627C74.9931 55.0771 74.8864 54.8255 74.8861 54.5631V47.925C74.8864 47.6626 74.9931 47.411 75.1827 47.2254C75.3723 47.0398 75.6294 46.9354 75.8976 46.9351H88.6304C88.8986 46.9354 89.1557 47.0398 89.3453 47.2254C89.5349 47.411 89.6416 47.6626 89.6419 47.925V54.5631C89.6416 54.8255 89.5349 55.0771 89.3453 55.2627C89.1557 55.4483 88.8986 55.5527 88.6304 55.553Z" fill="white"/>
    <path d="M108.008 55.553H95.2747C95.0065 55.5527 94.7494 55.4483 94.5598 55.2627C94.3701 55.0771 94.2635 54.8255 94.2632 54.5631V47.925C94.2635 47.6626 94.3701 47.411 94.5598 47.2254C94.7494 47.0398 95.0065 46.9354 95.2747 46.9351H108.008C108.276 46.9354 108.533 47.0398 108.722 47.2254C108.912 47.411 109.019 47.6626 109.019 47.925V54.5631C109.019 54.8255 108.912 55.0771 108.722 55.2627C108.533 55.4483 108.276 55.5527 108.008 55.553Z" fill="#349D6E"/>
    <path d="M69.2553 77.6888H56.5225C56.2543 77.6885 55.9972 77.5841 55.8076 77.3985C55.618 77.2129 55.5113 76.9613 55.511 76.6989V70.0608C55.5113 69.7984 55.618 69.5468 55.8076 69.3612C55.9972 69.1756 56.2543 69.0712 56.5225 69.0709H69.2553C69.5235 69.0712 69.7806 69.1756 69.9702 69.3612C70.1598 69.5468 70.2665 69.7984 70.2668 70.0608V76.6989C70.2665 76.9613 70.1598 77.2129 69.9702 77.3985C69.7806 77.5841 69.5235 77.6885 69.2553 77.6888Z" fill="white"/>
    <path d="M88.6304 77.6888H75.8976C75.6294 77.6885 75.3723 77.5841 75.1827 77.3985C74.9931 77.2129 74.8864 76.9613 74.8861 76.6989V70.0608C74.8864 69.7984 74.9931 69.5468 75.1827 69.3612C75.3723 69.1756 75.6294 69.0712 75.8976 69.0709H88.6304C88.8986 69.0712 89.1557 69.1756 89.3453 69.3612C89.5349 69.5468 89.6416 69.7984 89.6419 70.0608V76.6989C89.6416 76.9613 89.5349 77.2129 89.3453 77.3985C89.1557 77.5841 88.8986 77.6885 88.6304 77.6888Z" fill="white"/>
    <path d="M108.008 77.6888H95.2747C95.0065 77.6885 94.7494 77.5841 94.5598 77.3985C94.3701 77.2129 94.2635 76.9613 94.2632 76.6989V70.0608C94.2635 69.7984 94.3701 69.5468 94.5598 69.3612C94.7494 69.1756 95.0065 69.0712 95.2747 69.0709H108.008C108.276 69.0712 108.533 69.1756 108.722 69.3612C108.912 69.5468 109.019 69.7984 109.019 70.0608V76.6989C109.019 76.9613 108.912 77.2129 108.722 77.3985C108.533 77.5841 108.276 77.6885 108.008 77.6888Z" fill="white"/>
    <path d="M69.2553 99.8251H56.5225C56.2543 99.8248 55.9972 99.7204 55.8076 99.5349C55.618 99.3493 55.5113 99.0977 55.511 98.8352V92.1972C55.5113 91.9347 55.618 91.6831 55.8076 91.4975C55.9972 91.312 56.2543 91.2076 56.5225 91.2073H69.2553C69.5235 91.2076 69.7806 91.312 69.9702 91.4975C70.1598 91.6831 70.2665 91.9347 70.2668 92.1972V98.8352C70.2665 99.0977 70.1598 99.3493 69.9702 99.5349C69.7806 99.7204 69.5235 99.8248 69.2553 99.8251Z" fill="white"/>
    <path d="M88.6304 99.8251H75.8976C75.6294 99.8248 75.3723 99.7204 75.1827 99.5349C74.9931 99.3493 74.8864 99.0977 74.8861 98.8352V92.1972C74.8864 91.9347 74.9931 91.6831 75.1827 91.4975C75.3723 91.312 75.6294 91.2076 75.8976 91.2073H88.6304C88.8986 91.2076 89.1557 91.312 89.3453 91.4975C89.5349 91.6831 89.6416 91.9347 89.6419 92.1972V98.8352C89.6416 99.0977 89.5349 99.3493 89.3453 99.5349C89.1557 99.7204 88.8986 99.8248 88.6304 99.8251Z" fill="white"/>
    <path d="M108.008 99.8251H95.2747C95.0065 99.8248 94.7494 99.7204 94.5598 99.5349C94.3701 99.3493 94.2635 99.0977 94.2632 98.8352V92.1972C94.2635 91.9347 94.3701 91.6831 94.5598 91.4975C94.7494 91.312 95.0065 91.2076 95.2747 91.2073H108.008C108.276 91.2076 108.533 91.312 108.722 91.4975C108.912 91.6831 109.019 91.9347 109.019 92.1972V98.8352C109.019 99.0977 108.912 99.3493 108.722 99.5349C108.533 99.7204 108.276 99.8248 108.008 99.8251Z" fill="white"/>
    <path d="M67.1929 56.5049H67.1931C67.5754 56.5045 67.9423 56.3557 68.2133 56.0904C68.4844 55.8252 68.6373 55.465 68.6377 55.0889V55.0888V47.399V47.3989C68.6373 47.0228 68.4844 46.6627 68.2133 46.3974C67.9423 46.1322 67.5754 45.9834 67.1931 45.9829H67.1929L52.4427 45.9829L52.4426 45.9829C52.0602 45.9834 51.6933 46.1322 51.4223 46.3974C51.1512 46.6627 50.9984 47.0228 50.9979 47.3989V47.399L50.9979 55.0888L50.9979 55.0889C50.9984 55.465 51.1512 55.8252 51.4223 56.0904C51.6933 56.3557 52.0602 56.5045 52.4426 56.5049H52.4427H67.1929ZM51.8067 46.7796C51.9751 46.6149 52.2038 46.5218 52.4428 46.5215L51.4436 47.399L51.5439 47.3991C51.5439 47.3991 51.5439 47.3991 51.5439 47.3991C51.5442 47.1671 51.6384 46.9443 51.8067 46.7796ZM67.1928 55.9663H52.4428L67.1928 46.5215C67.1928 46.5215 67.1929 46.5215 67.1929 46.5215C67.4319 46.5218 67.6606 46.6149 67.8289 46.7796C67.9972 46.9443 68.0915 47.1672 68.0917 47.3991V55.0887C68.0915 55.3207 67.9972 55.5435 67.8289 55.7082C67.6606 55.873 67.4318 55.966 67.1928 55.9663Z" fill="#AAAAAA" stroke="#AAAAAA" stroke-width="0.200661"/>
    <path d="M89.6397 56.5049H89.6398C90.0222 56.5045 90.3891 56.3557 90.6601 56.0904C90.9312 55.8252 91.084 55.465 91.0845 55.0889V55.0888V47.399V47.3989C91.084 47.0228 90.9312 46.6627 90.6601 46.3974C90.3891 46.1322 90.0222 45.9834 89.6398 45.9829H89.6397L74.8895 45.9829L74.8894 45.9829C74.507 45.9834 74.1401 46.1322 73.8691 46.3974C73.598 46.6627 73.4451 47.0228 73.4447 47.3989V47.399L73.4447 55.0888L73.4447 55.0889C73.4451 55.465 73.598 55.8252 73.8691 56.0904C74.1401 56.3557 74.507 56.5045 74.8894 56.5049H74.8895H89.6397ZM74.2535 46.7796C74.4219 46.6149 74.6506 46.5218 74.8896 46.5215L73.8904 47.399L73.9907 47.3991C73.9907 47.3991 73.9907 47.3991 73.9907 47.3991C73.991 47.1671 74.0852 46.9443 74.2535 46.7796ZM89.6396 55.9663H74.8896L89.6396 46.5215C89.6396 46.5215 89.6396 46.5215 89.6397 46.5215C89.8787 46.5218 90.1074 46.6149 90.2757 46.7796C90.444 46.9443 90.5382 47.1672 90.5385 47.3991V55.0887C90.5382 55.3207 90.444 55.5435 90.2757 55.7082C90.1073 55.873 89.8786 55.966 89.6396 55.9663Z" fill="#AAAAAA" stroke="#AAAAAA" stroke-width="0.200661"/>
    <path d="M112.086 56.5049H112.086C112.468 56.5045 112.835 56.3557 113.106 56.0904C113.377 55.8252 113.53 55.465 113.53 55.0889V55.0888V47.399V47.3989C113.53 47.0228 113.377 46.6627 113.106 46.3974C112.835 46.1322 112.468 45.9834 112.086 45.9829H112.086L97.3353 45.9829L97.3352 45.9829C96.9528 45.9834 96.5859 46.1322 96.3149 46.3974C96.0438 46.6627 95.8909 47.0228 95.8905 47.3989V47.399L95.8905 55.0888L95.8905 55.0889C95.8909 55.465 96.0438 55.8252 96.3149 56.0904C96.5859 56.3557 96.9528 56.5045 97.3352 56.5049H97.3353H112.086ZM96.6993 46.7796C96.8677 46.6149 97.0964 46.5218 97.3354 46.5215L96.3362 47.399L96.4365 47.3991C96.4365 47.3991 96.4365 47.3991 96.4365 47.3991C96.4368 47.1671 96.531 46.9443 96.6993 46.7796ZM112.085 55.9663H97.3354L112.085 46.5215C112.085 46.5215 112.085 46.5215 112.085 46.5215C112.324 46.5218 112.553 46.6149 112.721 46.7796C112.89 46.9443 112.984 47.1672 112.984 47.3991V55.0887C112.984 55.3207 112.89 55.5435 112.722 55.7082C112.553 55.873 112.324 55.966 112.085 55.9663Z" fill="#AAAAAA" stroke="#AAAAAA" stroke-width="0.200661"/>
    <path d="M67.1929 78.6407H67.1931C67.5754 78.6403 67.9423 78.4915 68.2133 78.2263C68.4844 77.961 68.6373 77.6008 68.6377 77.2247V77.2246V69.5348V69.5347C68.6373 69.1586 68.4844 68.7985 68.2133 68.5332C67.9423 68.268 67.5754 68.1192 67.1931 68.1187H67.1929L52.4427 68.1187L52.4426 68.1187C52.0602 68.1192 51.6933 68.268 51.4223 68.5332C51.1512 68.7985 50.9984 69.1586 50.9979 69.5347V69.5348L50.9979 77.2246L50.9979 77.2247C50.9984 77.6008 51.1512 77.961 51.4223 78.2262C51.6933 78.4915 52.0602 78.6403 52.4426 78.6407H52.4427H67.1929ZM51.8067 68.9154C51.9751 68.7507 52.2038 68.6576 52.4428 68.6573L51.4436 69.5348L51.5439 69.5349C51.5439 69.5349 51.5439 69.5349 51.5439 69.5349C51.5442 69.3029 51.6384 69.0801 51.8067 68.9154ZM67.1928 78.1021H52.4428L67.1928 68.6573C67.1928 68.6573 67.1929 68.6573 67.1929 68.6573C67.4319 68.6576 67.6606 68.7507 67.8289 68.9154C67.9972 69.0801 68.0915 69.303 68.0917 69.5349V77.2245C68.0915 77.4565 67.9972 77.6793 67.8289 77.844C67.6606 78.0088 67.4318 78.1018 67.1928 78.1021Z" fill="#AAAAAA" stroke="#AAAAAA" stroke-width="0.200661"/>
    <path d="M89.6397 78.6407H89.6398C90.0222 78.6403 90.3891 78.4915 90.6601 78.2262C90.9312 77.961 91.084 77.6008 91.0845 77.2247V77.2246V69.5348V69.5347C91.084 69.1586 90.9312 68.7985 90.6601 68.5332C90.3891 68.268 90.0222 68.1192 89.6398 68.1187H89.6397L74.8895 68.1187L74.8894 68.1187C74.507 68.1192 74.1401 68.268 73.8691 68.5332C73.598 68.7985 73.4451 69.1586 73.4447 69.5347V69.5348L73.4447 77.2246L73.4447 77.2247C73.4451 77.6008 73.598 77.961 73.8691 78.2263C74.1401 78.4915 74.507 78.6403 74.8894 78.6407H74.8895H89.6397ZM74.2535 68.9154C74.4219 68.7507 74.6506 68.6576 74.8896 68.6573L73.8904 69.5348L73.9907 69.5349C73.9907 69.5349 73.9907 69.5349 73.9907 69.5349C73.991 69.3029 74.0852 69.0801 74.2535 68.9154ZM89.6396 78.1021H74.8896L89.6396 68.6573C89.6396 68.6573 89.6396 68.6573 89.6397 68.6573C89.8787 68.6576 90.1074 68.7507 90.2757 68.9154C90.444 69.0801 90.5382 69.303 90.5385 69.5349V77.2245C90.5382 77.4565 90.444 77.6793 90.2757 77.844C90.1073 78.0088 89.8786 78.1018 89.6396 78.1021Z" fill="#AAAAAA" stroke="#AAAAAA" stroke-width="0.200661"/>
    <path d="M112.086 78.6407H112.086C112.468 78.6403 112.835 78.4915 113.106 78.2262C113.377 77.961 113.53 77.6008 113.53 77.2247V77.2246V69.5348V69.5347C113.53 69.1586 113.377 68.7985 113.106 68.5332C112.835 68.268 112.468 68.1192 112.086 68.1187H112.086L97.3353 68.1187L97.3352 68.1187C96.9528 68.1192 96.5859 68.268 96.3149 68.5332C96.0438 68.7985 95.8909 69.1586 95.8905 69.5347V69.5348L95.8905 77.2246L95.8905 77.2247C95.8909 77.6008 96.0438 77.961 96.3149 78.2263C96.5859 78.4915 96.9528 78.6403 97.3352 78.6407H97.3353H112.086ZM96.6993 68.9154C96.8677 68.7507 97.0964 68.6576 97.3354 68.6573L96.3362 69.5348L96.4365 69.5349C96.4365 69.5349 96.4365 69.5349 96.4365 69.5349C96.4368 69.3029 96.531 69.0801 96.6993 68.9154ZM112.085 78.1021H97.3354L112.085 68.6573C112.085 68.6573 112.085 68.6573 112.085 68.6573C112.324 68.6576 112.553 68.7507 112.721 68.9154C112.89 69.0801 112.984 69.303 112.984 69.5349V77.2245C112.984 77.4565 112.89 77.6793 112.722 77.844C112.553 78.0088 112.324 78.1018 112.085 78.1021Z" fill="#AAAAAA" stroke="#AAAAAA" stroke-width="0.200661"/>
    <path d="M67.1929 100.777H67.1931C67.5754 100.777 67.9423 100.628 68.2133 100.363C68.4844 100.097 68.6373 99.7371 68.6377 99.361V99.3609V91.6711V91.671C68.6373 91.2949 68.4844 90.9347 68.2133 90.6695C67.9423 90.4043 67.5754 90.2554 67.1931 90.255H67.1929L52.4427 90.255L52.4426 90.255C52.0602 90.2555 51.6933 90.4043 51.4223 90.6695C51.1512 90.9348 50.9984 91.2949 50.9979 91.671V91.6711L50.9979 99.3609L50.9979 99.361C50.9984 99.7371 51.1512 100.097 51.4223 100.363C51.6933 100.628 52.0602 100.777 52.4426 100.777H52.4427H67.1929ZM51.8067 91.0517C51.9751 90.887 52.2038 90.7939 52.4428 90.7936L51.4436 91.6711L51.5439 91.6712C51.5439 91.6712 51.5439 91.6712 51.5439 91.6712C51.5442 91.4392 51.6384 91.2164 51.8067 91.0517ZM67.1928 100.238H52.4428L67.1928 90.7936C67.1928 90.7936 67.1929 90.7936 67.1929 90.7936C67.4319 90.7939 67.6606 90.887 67.8289 91.0517C67.9972 91.2164 68.0915 91.4393 68.0917 91.6712V99.3608C68.0915 99.5928 67.9972 99.8156 67.8289 99.9803C67.6606 100.145 67.4318 100.238 67.1928 100.238Z" fill="#AAAAAA" stroke="#AAAAAA" stroke-width="0.200661"/>
    <path d="M89.6397 100.777H89.6398C90.0222 100.777 90.3891 100.628 90.6601 100.363C90.9312 100.097 91.084 99.7371 91.0845 99.361V99.3609V91.6711V91.671C91.084 91.2949 90.9312 90.9347 90.6601 90.6695C90.3891 90.4043 90.0222 90.2554 89.6398 90.255H89.6397L74.8895 90.255L74.8894 90.255C74.507 90.2554 74.1401 90.4043 73.8691 90.6695C73.598 90.9347 73.4451 91.2949 73.4447 91.671V91.6711L73.4447 99.3609L73.4447 99.361C73.4451 99.7371 73.598 100.097 73.8691 100.363C74.1401 100.628 74.507 100.777 74.8894 100.777H74.8895H89.6397ZM74.2535 91.0517C74.4219 90.887 74.6506 90.7939 74.8896 90.7936L73.8904 91.6711L73.9907 91.6712C73.9907 91.6712 73.9907 91.6712 73.9907 91.6712C73.991 91.4392 74.0852 91.2164 74.2535 91.0517ZM89.6396 100.238H74.8896L89.6396 90.7936C89.6396 90.7936 89.6396 90.7936 89.6397 90.7936C89.8787 90.7939 90.1074 90.887 90.2757 91.0517C90.444 91.2164 90.5382 91.4393 90.5385 91.6712V99.3608C90.5382 99.5928 90.444 99.8156 90.2757 99.9803C90.1073 100.145 89.8786 100.238 89.6396 100.238Z" fill="#AAAAAA" stroke="#AAAAAA" stroke-width="0.200661"/>
    <path d="M112.086 100.777H112.086C112.468 100.777 112.835 100.628 113.106 100.363C113.377 100.097 113.53 99.7371 113.53 99.361V99.3609V91.6711V91.671C113.53 91.2949 113.377 90.9347 113.106 90.6695C112.835 90.4043 112.468 90.2554 112.086 90.255H112.086L97.3353 90.255L97.3352 90.255C96.9528 90.2554 96.5859 90.4043 96.3149 90.6695C96.0438 90.9347 95.8909 91.2949 95.8905 91.671V91.6711L95.8905 99.3609L95.8905 99.361C95.8909 99.7371 96.0438 100.097 96.3149 100.363C96.5859 100.628 96.9528 100.777 97.3352 100.777H97.3353H112.086ZM96.6993 91.0517C96.8677 90.887 97.0964 90.7939 97.3354 90.7936L96.3362 91.6711L96.4365 91.6712C96.4365 91.6712 96.4365 91.6712 96.4365 91.6712C96.4368 91.4392 96.531 91.2164 96.6993 91.0517ZM112.085 100.238H97.3354L112.085 90.7936C112.085 90.7936 112.085 90.7936 112.085 90.7936C112.324 90.7939 112.553 90.887 112.721 91.0517C112.89 91.2164 112.984 91.4393 112.984 91.6712V99.3608C112.984 99.5928 112.89 99.8156 112.722 99.9803C112.553 100.145 112.324 100.238 112.085 100.238Z" fill="#AAAAAA" stroke="#AAAAAA" stroke-width="0.200661"/>
    <path d="M89.5181 108.849L89.5181 108.849H89.5169H82.265H82.1647V108.95V126.439V126.539H82.265H90.9846H91.0849V126.439V110.422C91.0898 110.01 90.9271 109.612 90.6332 109.317C90.3392 109.023 89.9381 108.855 89.5181 108.849Z" fill="#AAAAAA" stroke="#AAAAAA" stroke-width="0.200661"/>
    <path d="M82.3914 126.455H82.4917V126.354V108.95V108.849H82.3914L75.0375 108.849L75.0374 108.849C74.5805 108.85 74.1422 109.03 73.8187 109.349C73.4952 109.669 73.313 110.102 73.3125 110.555V110.555V126.354V126.455H73.4128H82.3914ZM81.949 125.916H73.8552V110.555C73.8556 110.246 73.98 109.95 74.2015 109.731C74.4231 109.512 74.7238 109.388 75.0376 109.388L81.949 109.388V125.916Z" fill="#AAAAAA" stroke="#AAAAAA" stroke-width="0.200661"/>
    <path d="M74.4944 118.75C74.7805 118.75 75.0124 118.523 75.0124 118.243C75.0124 117.963 74.7805 117.736 74.4944 117.736C74.2084 117.736 73.9764 117.963 73.9764 118.243C73.9764 118.523 74.2084 118.75 74.4944 118.75Z" fill="#AAAAAA"/>
    <rect x="46.5658" y="23.2541" width="69.5872" height="10.7965" rx="2.46556" fill="#D5D5D5"/>
    <rect x="62.2646" y="7.88992" width="38.6124" height="17.0253" rx="2.46556" fill="#D5D5D5"/>
    <rect x="67.3573" width="6.789" height="10.7965" rx="2.46556" fill="#D5D5D5"/>
    <path d="M108.625 126H134L110.375 145H85L108.625 126Z" fill="#349D6E"/>
    <path d="M137.625 126H163L139.375 145H114L137.625 126Z" fill="#D9D9D9"/>
    <path d="M166.625 126H192L168.375 145H143L166.625 126Z" fill="#D9D9D9"/>
</svg>
