<svg width="266" height="231" viewBox="-25 -50 345 231"  fill="none" xmlns="http://www.w3.org/2000/svg"><path d="M273.891 129.659h-127.57c-3.484 0-6.319-2.567-6.319-5.722V46.714a3.21 3.21 0 0 1 2.106-2.932l59.399-23.76a23.125 23.125 0 0 1 16.993-.01l59.6 23.77a3.207 3.207 0 0 1 2.11 2.934v77.221c0 3.155-2.835 5.722-6.319 5.722Z" fill="#D5D5D5"/><path d="M101.727 97.926c13.076 0 23.675-13.268 23.675-29.634s-10.599-29.634-23.675-29.634c-13.075 0-23.674 13.268-23.674 29.634s10.6 29.634 23.674 29.634Z" fill="#F2F2F2"/><path d="M101.79 62.334h.065l1.171 67.122h-2.471l1.235-67.122Z" fill="#CCC"/><path d="M105.831 106.771a.586.586 0 0 1-.246.79l-3.395 1.788-.545-1.036 3.395-1.788a.586.586 0 0 1 .791.246Z" fill="#CCC"/><path d="M33.665 97.926c13.075 0 23.675-13.268 23.675-29.634s-10.6-29.634-23.675-29.634C20.59 38.658 9.99 51.926 9.99 68.292s10.6 29.634 23.675 29.634Z" fill="#F2F2F2"/><path d="M37.764 107.879a.586.586 0 0 0-.79-.245l-2.371 1.248-.812-46.549h-.065l-1.236 67.122h2.472l-.336-19.262 2.893-1.523a.584.584 0 0 0 .245-.791Z" fill="#CCC"/><path d="M67.613 0c16.568 0 30.034 31.218 30.034 51.955 0 20.738-13.43 37.55-29.998 37.55S37.65 72.692 37.65 51.954C37.65 31.218 51.046 0 67.613 0Z" fill="#D5D5D5"/><path d="M72.846 102.115a.738.738 0 0 0-.436-.362.733.733 0 0 0-.565.052l-3.004 1.581-1.029-58.983h-.082l-1.566 85.051h3.132l-.426-24.407 3.666-1.93a.733.733 0 0 0 .363-.436.744.744 0 0 0-.053-.566Z" fill="#3F3D56"/><path d="M180.318 76.59v-7.987a3.93 3.93 0 0 0-3.928-3.927h-20.154a3.929 3.929 0 0 0-3.927 3.927v7.987h28.009ZM152.309 77.844V90.22a3.925 3.925 0 0 0 3.927 3.928h20.154a3.93 3.93 0 0 0 3.928-3.928V77.844h-28.009Z" fill="#fff"/><path d="m275.357 54.667-60.509-22.18a16.549 16.549 0 0 0-11.392 0l-60.509 22.18a8.44 8.44 0 0 1-5.809-15.846l66.318-24.31a16.55 16.55 0 0 1 11.392 0l66.318 24.31a8.44 8.44 0 1 1-5.809 15.846Z" fill="#349D6E"/><path d="M218.925 130.028h-16.172a6.486 6.486 0 0 1-4.576-1.898 6.484 6.484 0 0 1-1.898-4.576V84.389a6.483 6.483 0 0 1 6.474-6.473h16.172a6.48 6.48 0 0 1 6.473 6.474v39.164a6.48 6.48 0 0 1-6.473 6.474Zm-16.172-51.002a5.369 5.369 0 0 0-5.364 5.364v39.164a5.367 5.367 0 0 0 5.364 5.364h16.172a5.367 5.367 0 0 0 5.364-5.364V84.389a5.374 5.374 0 0 0-5.364-5.363h-16.172Z" fill="#fff"/><path d="M152.523 90.152a3.158 3.158 0 1 0 0 6.32h27.591a3.158 3.158 0 1 0 0-6.32h-27.591Z" fill="#AAA"/><path d="M238.221 77.844V90.22a3.93 3.93 0 0 0 3.927 3.928h20.155a3.929 3.929 0 0 0 3.927-3.928V77.844h-28.009ZM266.23 76.59v-7.987a3.93 3.93 0 0 0-3.927-3.927h-20.155a3.929 3.929 0 0 0-3.927 3.927v7.987h28.009ZM220.454 105.227a2.3 2.3 0 1 0 0-4.599 2.3 2.3 0 0 0 0 4.599Z" fill="#fff"/><path d="M299.767 129.94H.233a.264.264 0 0 1-.165-.054.17.17 0 0 1-.068-.131.17.17 0 0 1 .068-.131.27.27 0 0 1 .165-.054h299.534c.062 0 .121.02.165.054a.17.17 0 0 1 .068.131.17.17 0 0 1-.068.131.266.266 0 0 1-.165.054Z" fill="#CCC"/><path d="M265.814 96.84h-27.591a3.53 3.53 0 0 1 0-7.058h27.591a3.53 3.53 0 0 1 2.496 6.025 3.53 3.53 0 0 1-2.496 1.034Z" fill="#AAA"/></svg>
