<svg width="237" height="183" fill="none" xmlns="http://www.w3.org/2000/svg"><path d="M179.035 181.528H.139a.158.158 0 0 1-.098-.033.101.101 0 0 1-.041-.078c0-.029.015-.057.04-.078a.157.157 0 0 1 .099-.032h178.896c.037 0 .072.011.098.032a.102.102 0 0 1 .041.078.102.102 0 0 1-.041.078.157.157 0 0 1-.098.033Z" fill="#CCC"/><path d="M236.814 181.528H57.918a.158.158 0 0 1-.098-.033.101.101 0 0 1-.04-.078c0-.029.014-.057.04-.078a.157.157 0 0 1 .098-.032h178.896c.037 0 .073.011.099.032a.1.1 0 0 1 .04.078.1.1 0 0 1-.04.078.16.16 0 0 1-.099.033Z" fill="#CCC"/><rect x="55.988" y="45.988" width="117.06" height="135.575" rx="2.986" fill="#D5D5D5"/><path d="M64.043 177.965h-.016a2.067 2.067 0 0 1-2.066-2.066V54.624a2.069 2.069 0 0 1 2.066-2.065h102.075a2.067 2.067 0 0 1 2.066 2.065v94.298a2.069 2.069 0 0 1-2.05 2.066L64.042 177.965Z" fill="#F2F2F2"/><path d="M97.483 79.9H79.56a1.425 1.425 0 0 1-1.424-1.423V68.93a1.425 1.425 0 0 1 1.424-1.424h17.922a1.425 1.425 0 0 1 1.423 1.424v9.547a1.425 1.425 0 0 1-1.423 1.424ZM124.754 79.9h-17.922a1.424 1.424 0 0 1-1.424-1.423V68.93a1.428 1.428 0 0 1 1.424-1.424h17.922a1.422 1.422 0 0 1 1.424 1.424v9.547a1.424 1.424 0 0 1-1.424 1.424Z" fill="#fff"/><path d="M152.028 79.9h-17.923a1.426 1.426 0 0 1-1.423-1.423V68.93a1.423 1.423 0 0 1 1.423-1.424h17.923a1.426 1.426 0 0 1 1.423 1.424v9.547a1.423 1.423 0 0 1-1.423 1.424Z" fill="#349D6E"/><path d="M97.483 111.739H79.56a1.428 1.428 0 0 1-1.424-1.424v-9.548a1.425 1.425 0 0 1 1.424-1.423h17.922a1.425 1.425 0 0 1 1.423 1.423v9.548a1.426 1.426 0 0 1-1.423 1.424ZM124.754 111.739h-17.922a1.427 1.427 0 0 1-1.424-1.424v-9.548a1.427 1.427 0 0 1 1.424-1.423h17.922a1.422 1.422 0 0 1 1.424 1.423v9.548a1.424 1.424 0 0 1-1.424 1.424ZM152.028 111.739h-17.923a1.428 1.428 0 0 1-1.423-1.424v-9.548a1.422 1.422 0 0 1 1.423-1.423h17.923a1.426 1.426 0 0 1 1.423 1.423v9.548a1.423 1.423 0 0 1-1.423 1.424ZM97.483 143.576H79.56a1.423 1.423 0 0 1-1.424-1.423v-9.548a1.426 1.426 0 0 1 1.424-1.423h17.922a1.423 1.423 0 0 1 1.423 1.423v9.548a1.426 1.426 0 0 1-1.423 1.423ZM124.754 143.576h-17.922a1.421 1.421 0 0 1-1.424-1.423v-9.548a1.428 1.428 0 0 1 1.424-1.423h17.922a1.424 1.424 0 0 1 1.424 1.423v9.548a1.424 1.424 0 0 1-1.424 1.423ZM152.028 143.576h-17.923a1.423 1.423 0 0 1-1.423-1.423v-9.548a1.423 1.423 0 0 1 1.423-1.423h17.923a1.423 1.423 0 0 1 1.423 1.423v9.548a1.423 1.423 0 0 1-1.423 1.423Z" fill="#fff"/><path d="M94.578 81.248a2.016 2.016 0 0 0 2.014-2.014v-11.06a2.016 2.016 0 0 0-2.014-2.014H73.816a2.016 2.016 0 0 0-2.014 2.014v11.06a2.016 2.016 0 0 0 2.014 2.014h20.762Zm-21.67-13.982c.241-.241.568-.377.908-.377h20.762a1.287 1.287 0 0 1 1.285 1.285v11.06a1.286 1.286 0 0 1-1.285 1.285H73.816a1.286 1.286 0 0 1-1.285-1.285v-11.06c0-.34.136-.668.377-.908ZM126.174 81.248a2.014 2.014 0 0 0 2.014-2.014v-11.06a2.016 2.016 0 0 0-2.014-2.014h-20.762a2.018 2.018 0 0 0-2.014 2.014v11.06a2.018 2.018 0 0 0 2.014 2.014h20.762Zm-21.67-13.982c.241-.241.567-.377.908-.377h20.762a1.288 1.288 0 0 1 1.285 1.285v11.06a1.289 1.289 0 0 1-1.285 1.285h-20.762a1.286 1.286 0 0 1-1.285-1.285v-11.06c.001-.34.136-.668.377-.908ZM157.768 81.248a2.016 2.016 0 0 0 2.013-2.014v-11.06a2.011 2.011 0 0 0-2.013-2.014h-20.762a2.018 2.018 0 0 0-2.014 2.014v11.06a2.015 2.015 0 0 0 2.014 2.014h20.762Zm-21.67-13.982c.24-.241.567-.377.908-.377h20.762a1.288 1.288 0 0 1 1.284 1.285v11.06a1.288 1.288 0 0 1-1.285 1.285h-20.761a1.286 1.286 0 0 1-1.285-1.285v-11.06c0-.34.136-.668.377-.908ZM94.578 113.084a2.016 2.016 0 0 0 2.014-2.014v-11.061a2.016 2.016 0 0 0-2.014-2.013H73.816a2.016 2.016 0 0 0-2.014 2.013v11.061a2.014 2.014 0 0 0 2.014 2.014h20.762Zm-21.67-13.982c.241-.241.568-.377.908-.377h20.762a1.286 1.286 0 0 1 1.285 1.285v11.06a1.287 1.287 0 0 1-1.285 1.284H73.816a1.283 1.283 0 0 1-1.285-1.284v-11.06c0-.341.136-.668.377-.908ZM126.174 113.084a2.014 2.014 0 0 0 2.014-2.014v-11.061a2.016 2.016 0 0 0-2.014-2.013h-20.762a2.018 2.018 0 0 0-2.014 2.013v11.061a2.018 2.018 0 0 0 2.014 2.014h20.762Zm-21.67-13.982c.241-.241.567-.377.908-.377h20.762a1.287 1.287 0 0 1 1.285 1.285v11.06a1.29 1.29 0 0 1-1.285 1.284h-20.762a1.283 1.283 0 0 1-1.285-1.284v-11.06c.001-.341.136-.668.377-.908ZM157.768 113.084a2.016 2.016 0 0 0 2.013-2.014v-11.061a2.016 2.016 0 0 0-2.013-2.013h-20.762a2.018 2.018 0 0 0-2.014 2.013v11.061a2.013 2.013 0 0 0 2.014 2.014h20.762Zm-21.67-13.982c.24-.241.567-.377.908-.377h20.762a1.287 1.287 0 0 1 1.284 1.285v11.06a1.285 1.285 0 0 1-1.285 1.284h-20.761a1.283 1.283 0 0 1-1.285-1.284v-11.06c0-.341.136-.668.377-.908ZM94.578 144.921a2.016 2.016 0 0 0 2.014-2.013v-11.061a2.016 2.016 0 0 0-2.014-2.013H73.816a2.015 2.015 0 0 0-2.014 2.013v11.061a2.016 2.016 0 0 0 2.014 2.013h20.762Zm-21.67-13.982c.241-.24.568-.376.908-.376h20.762a1.287 1.287 0 0 1 1.285 1.285v11.059a1.288 1.288 0 0 1-1.285 1.285H73.816a1.287 1.287 0 0 1-1.285-1.285v-11.059c0-.341.136-.668.377-.909ZM126.174 144.921a2.016 2.016 0 0 0 2.014-2.013v-11.061a2.016 2.016 0 0 0-2.014-2.013h-20.762a2.018 2.018 0 0 0-2.014 2.013v11.061a2.013 2.013 0 0 0 2.014 2.013h20.762Zm-21.67-13.982c.241-.24.567-.376.908-.376h20.762a1.289 1.289 0 0 1 1.285 1.285v11.059a1.285 1.285 0 0 1-1.285 1.285h-20.762a1.283 1.283 0 0 1-1.285-1.285v-11.059a1.29 1.29 0 0 1 .377-.909ZM157.768 144.921a2.011 2.011 0 0 0 2.013-2.013v-11.061a2.011 2.011 0 0 0-2.013-2.013h-20.762a2.018 2.018 0 0 0-2.014 2.013v11.061a2.015 2.015 0 0 0 2.014 2.013h20.762Zm-21.67-13.982c.24-.24.567-.376.908-.376h20.762c.34 0 .667.136.908.376.24.241.376.568.376.909v11.059a1.285 1.285 0 0 1-1.285 1.285h-20.761a1.283 1.283 0 0 1-1.285-1.285v-11.059c0-.341.136-.668.377-.909ZM126.002 156.578H115.671v25.397h12.517v-23.158a2.216 2.216 0 0 0-2.186-2.239Z" fill="#AAA" stroke="#AAA" stroke-width=".243"/><path d="M115.972 181.853h.121v-25.275H105.621c-.639 0-1.251.257-1.703.713a2.445 2.445 0 0 0-.706 1.717v22.845h12.76Zm-.603-.729h-11.432v-22.116c0-.451.178-.884.494-1.203a1.675 1.675 0 0 1 1.19-.498h9.748v23.817Z" fill="#AAA" stroke="#AAA" stroke-width=".243"/><path d="M104.856 170.796a.729.729 0 1 0 .001-1.457.729.729 0 0 0-.001 1.457Z" fill="#AAA"/><rect x="65.545" y="33.445" width="97.948" height="15.528" rx="2.986" fill="#D5D5D5"/><rect x="87.641" y="11.348" width="54.349" height="24.487" rx="2.986" fill="#D5D5D5"/><rect x="94.809" width="9.556" height="15.528" rx="2.986" fill="#D5D5D5"/></svg>